<svg xmlns="http://www.w3.org/2000/svg" xmlns:xlink="http://www.w3.org/1999/xlink" width="603.422" height="337.509" viewBox="0 0 603.422 337.509">
  <defs>
    <clipPath id="clip-path">
      <rect id="Rectángulo_463117" data-name="Rectángulo 463117" width="502.717" height="329.458" fill="none"/>
    </clipPath>
    <clipPath id="clip-path-3">
      <path id="Trazado_1279973" data-name="Trazado 1279973" d="M262.714,0c-22.353,0-40.47,19.527-40.47,43.612,0,.256.014.512.017.77-6.655-12.07-18.871-20.164-32.843-20.164-12.1,0-22.873,6.069-29.87,15.525C151.4,25.968,137.111,16.821,120.83,16.821c-25.345,0-45.89,22.139-45.89,49.45a52.349,52.349,0,0,0,4.834,22.086c-8.335,1.318-14.74,9.033-14.74,18.381,0,.153.017.3.022.453-12.1,3.235-21.068,15.013-21.068,29.053a32.012,32.012,0,0,0,1.391,9.353,31.148,31.148,0,0,0-3.727-.231c-18.387,0-33.288,16.064-33.288,35.875a37.571,37.571,0,0,0,6.516,21.321A48.783,48.783,0,0,0,0,238.022c0,25.918,19.366,46.95,43.351,47.236C48.148,303.576,63.762,317,82.294,317H418.142c29.837,0,54.025-26.066,54.025-58.219a62.675,62.675,0,0,0-1.513-13.67c18.587-6.324,32.062-25.048,32.062-47.164,0-27.312-20.545-49.453-45.887-49.453a42.946,42.946,0,0,0-17.928,3.919c-2.37-10.969-10.146-19.694-20.142-22.739a60.213,60.213,0,0,0,17.146-42.53c0-32.151-24.186-58.216-54.02-58.216-17.166,0-32.448,8.636-42.344,22.083A37.463,37.463,0,0,0,310.3,36.573a36.235,36.235,0,0,0-7.532.8C299.955,16.24,283.1,0,262.714,0Z" fill="none"/>
    </clipPath>
    <clipPath id="clip-path-5">
      <path id="Rectángulo_463104" data-name="Rectángulo 463104" d="M2.221,0H301.577A2.221,2.221,0,0,1,303.8,2.221v158a2.221,2.221,0,0,1-2.221,2.221H2.222A2.222,2.222,0,0,1,0,160.221v-158A2.221,2.221,0,0,1,2.221,0Z" fill="none"/>
    </clipPath>
    <linearGradient id="linear-gradient" x1="-0.212" y1="1.042" x2="-0.204" y2="1.042" gradientUnits="objectBoundingBox">
      <stop offset="0" stop-color="#e4abff"/>
      <stop offset="1" stop-color="#00b0ff"/>
    </linearGradient>
    <clipPath id="clip-path-7">
      <rect id="Rectángulo_463105" data-name="Rectángulo 463105" width="160.236" height="93.132" fill="none"/>
    </clipPath>
    <clipPath id="clip-path-8">
      <rect id="Rectángulo_463106" data-name="Rectángulo 463106" width="303.797" height="162.44" fill="none"/>
    </clipPath>
    <clipPath id="clip-path-9">
      <path id="Trazado_1279985" data-name="Trazado 1279985" d="M106.211,76.181a7.319,7.319,0,0,0,0,14.638h77.162V76.181Z" transform="translate(-98.896 -76.181)" fill="none"/>
    </clipPath>
    <linearGradient id="linear-gradient-2" x1="-3.256" y1="8.033" x2="-3.223" y2="8.033" gradientUnits="objectBoundingBox">
      <stop offset="0" stop-color="#3b2b5a"/>
      <stop offset="0.114" stop-color="#404f82"/>
      <stop offset="0.241" stop-color="#4571a8"/>
      <stop offset="0.373" stop-color="#4a8cc7"/>
      <stop offset="0.51" stop-color="#4da2e0"/>
      <stop offset="0.655" stop-color="#50b1f1"/>
      <stop offset="0.811" stop-color="#51bbfb"/>
      <stop offset="1" stop-color="#52beff"/>
    </linearGradient>
    <clipPath id="clip-path-11">
      <path id="Trazado_1279988" data-name="Trazado 1279988" d="M126.41,83.5a7.317,7.317,0,1,0,7.317-7.32,7.319,7.319,0,0,0-7.317,7.32" transform="translate(-126.41 -76.181)" fill="none"/>
    </clipPath>
    <linearGradient id="linear-gradient-3" x1="-24.023" y1="8.033" x2="-23.833" y2="8.033" gradientUnits="objectBoundingBox">
      <stop offset="0" stop-color="#ff80f3"/>
      <stop offset="1" stop-color="#d41e39"/>
    </linearGradient>
    <clipPath id="clip-path-13">
      <rect id="Rectángulo_463114" data-name="Rectángulo 463114" width="91.39" height="91.911" fill="none"/>
    </clipPath>
    <clipPath id="clip-path-14">
      <rect id="Rectángulo_463113" data-name="Rectángulo 463113" width="101.693" height="101.688" fill="none"/>
    </clipPath>
    <clipPath id="clip-path-15">
      <rect id="Rectángulo_463115" data-name="Rectángulo 463115" width="406.549" height="261.021" fill="none"/>
    </clipPath>
  </defs>
  <g id="Grupo_1212553" data-name="Grupo 1212553" transform="translate(-1017.422 -1845.691)">
    <path id="Trazado_1272217" data-name="Trazado 1272217" d="M301.711,6.55C489.137-104.057,603.422,74.227,603.422,157.712S580.565,307.237,301.711,308.875,0,241.2,0,157.712,114.284,117.157,301.711,6.55Z" transform="translate(1017.422 1874.296)" fill="#ffe79e"/>
    <g id="Grupo_1213395" data-name="Grupo 1213395" transform="translate(1068.083 1846.843)">
      <g id="Grupo_1213394" data-name="Grupo 1213394" clip-path="url(#clip-path)">
        <g id="Grupo_1213362" data-name="Grupo 1213362" transform="translate(0 0)">
          <g id="Grupo_1213361" data-name="Grupo 1213361" clip-path="url(#clip-path)">
            <path id="Trazado_1279971" data-name="Trazado 1279971" d="M165.307,106.307q.713.722,1.457,1.4l-3.4,6.53a46.022,46.022,0,0,0,4.781,3.513l5.215-5.2a38.992,38.992,0,0,0,3.585,1.847l-1.218,7.276a45.69,45.69,0,0,0,5.635,1.852l3.357-6.566a39.434,39.434,0,0,0,3.974.651l1.09,7.284a46.44,46.44,0,0,0,5.935.028l1.16-7.273a38.691,38.691,0,0,0,3.983-.612l3.29,6.6a46.467,46.467,0,0,0,5.651-1.8l-1.143-7.287a38.6,38.6,0,0,0,3.6-1.813l5.162,5.254a45.856,45.856,0,0,0,4.817-3.465l-3.337-6.566c.5-.445.99-.9,1.468-1.382s.948-.96,1.4-1.455l6.53,3.4a46.343,46.343,0,0,0,3.515-4.781l-5.2-5.215a39.326,39.326,0,0,0,1.847-3.585l7.276,1.215a46.136,46.136,0,0,0,1.855-5.632l-6.569-3.357a39.344,39.344,0,0,0,.651-3.977l7.284-1.087a46.439,46.439,0,0,0,.028-5.935l-7.273-1.163a38.648,38.648,0,0,0-.612-3.98l6.6-3.293a46.777,46.777,0,0,0-1.8-5.651l-7.287,1.146a38.281,38.281,0,0,0-1.813-3.6l5.254-5.165a45.527,45.527,0,0,0-3.465-4.814l-6.564,3.335c-.448-.5-.907-.987-1.385-1.468s-.96-.946-1.455-1.4l3.4-6.533a46.32,46.32,0,0,0-4.781-3.513l-5.215,5.2a38.339,38.339,0,0,0-3.585-1.85l1.215-7.273a45.986,45.986,0,0,0-5.632-1.855l-3.357,6.569a38.59,38.59,0,0,0-3.977-.651l-1.087-7.284a45.938,45.938,0,0,0-5.935-.028l-1.16,7.273a39.454,39.454,0,0,0-3.983.609l-3.293-6.6a45.813,45.813,0,0,0-5.651,1.8l1.146,7.287a38.245,38.245,0,0,0-3.6,1.811l-5.165-5.254A46.259,46.259,0,0,0,163.71,43.3l3.335,6.564q-.747.667-1.468,1.382t-1.4,1.457l-6.533-3.4a46.014,46.014,0,0,0-3.513,4.781l5.2,5.215a37.639,37.639,0,0,0-1.847,3.585l-7.276-1.218a46.02,46.02,0,0,0-1.855,5.635l6.569,3.357a38.656,38.656,0,0,0-.651,3.974L147,75.719a46.957,46.957,0,0,0-.031,5.935l7.276,1.16a39.464,39.464,0,0,0,.609,3.983l-6.6,3.29a45.982,45.982,0,0,0,1.8,5.651l7.287-1.143a38.562,38.562,0,0,0,1.811,3.6l-5.251,5.162a45.854,45.854,0,0,0,3.465,4.817l6.564-3.337c.445.5.907.99,1.382,1.468m5.907-49.369A30.924,30.924,0,1,1,171,100.672a30.927,30.927,0,0,1,.214-43.735" transform="translate(261.635 58.464)" fill="#6cb9ff"/>
            <path id="Trazado_1279972" data-name="Trazado 1279972" d="M26.151,63.507c.275.278.553.545.837.8l-1.955,3.757a26.41,26.41,0,0,0,2.751,2.019l3-2.99a22.607,22.607,0,0,0,2.064,1.062l-.7,4.183a26.108,26.108,0,0,0,3.24,1.065l1.93-3.777a22.888,22.888,0,0,0,2.286.375l.629,4.189a26.862,26.862,0,0,0,3.413.017l.667-4.183a22.141,22.141,0,0,0,2.292-.353l1.891,3.8a26.6,26.6,0,0,0,3.251-1.037l-.659-4.189a22.559,22.559,0,0,0,2.072-1.043l2.97,3.02a26.648,26.648,0,0,0,2.77-1.991l-1.919-3.777c.286-.256.567-.523.845-.8s.545-.553.8-.837l3.757,1.955A26.814,26.814,0,0,0,64.4,62.03l-2.993-3a22.247,22.247,0,0,0,1.062-2.064l4.186.7a26.422,26.422,0,0,0,1.065-3.24L63.948,52.5a21.992,21.992,0,0,0,.373-2.286l4.191-.626a26.913,26.913,0,0,0,.017-3.415L64.345,45.5a22.746,22.746,0,0,0-.353-2.289l3.8-1.894a26.11,26.11,0,0,0-1.035-3.251l-4.191.659a22.526,22.526,0,0,0-1.04-2.072l3.02-2.97a26.677,26.677,0,0,0-1.994-2.77l-3.777,1.919c-.256-.286-.52-.567-.793-.845s-.553-.542-.837-.8L59.1,27.432a26.435,26.435,0,0,0-2.751-2.022l-3,2.993a22.6,22.6,0,0,0-2.064-1.062l.7-4.183a26.122,26.122,0,0,0-3.24-1.068l-1.93,3.777a22.809,22.809,0,0,0-2.289-.373L43.9,21.3a26.362,26.362,0,0,0-3.413-.014l-.667,4.183a22.138,22.138,0,0,0-2.292.35l-1.891-3.8a26.11,26.11,0,0,0-3.251,1.035l.659,4.191a21.545,21.545,0,0,0-2.072,1.043L28,25.271a26.676,26.676,0,0,0-2.77,1.994l1.919,3.777c-.286.256-.57.52-.845.8s-.545.551-.8.837l-3.757-1.955a26.375,26.375,0,0,0-2.019,2.748l2.993,3a22.2,22.2,0,0,0-1.062,2.061l-4.186-.7a26.621,26.621,0,0,0-1.065,3.243L20.182,43a21.99,21.99,0,0,0-.373,2.286l-4.191.626a26.87,26.87,0,0,0-.017,3.413l4.183.667a22.8,22.8,0,0,0,.353,2.292l-3.8,1.894a26.069,26.069,0,0,0,1.035,3.248l4.191-.659a22.226,22.226,0,0,0,1.04,2.075l-3.02,2.968a26.1,26.1,0,0,0,1.994,2.77l3.774-1.919c.259.286.523.57.8.845m3.4-28.4a17.787,17.787,0,1,1-.122,25.153,17.788,17.788,0,0,1,.122-25.153" transform="translate(27.708 37.832)" fill="#69d7e5"/>
          </g>
        </g>
        <g id="Grupo_1213364" data-name="Grupo 1213364">
          <g id="Grupo_1213363" data-name="Grupo 1213363" clip-path="url(#clip-path-3)">
            <rect id="Rectángulo_463101" data-name="Rectángulo 463101" width="510.1" height="328.848" transform="translate(-7.523 0.179) rotate(-1.36)" fill="#d5f4f8"/>
          </g>
        </g>
        <g id="Grupo_1213366" data-name="Grupo 1213366" transform="translate(0 0)">
          <g id="Grupo_1213365" data-name="Grupo 1213365" clip-path="url(#clip-path)">
            <path id="Trazado_1279974" data-name="Trazado 1279974" d="M335.2,208.229H43.761a12.534,12.534,0,0,1-12.535-12.535V45.606A12.534,12.534,0,0,1,43.761,33.071H335.2A12.535,12.535,0,0,1,347.74,45.606V195.694A12.536,12.536,0,0,1,335.2,208.229" transform="translate(55.62 58.907)" fill="#3b2b5a"/>
          </g>
        </g>
        <g id="Grupo_1213368" data-name="Grupo 1213368" transform="translate(93.204 98.336)">
          <g id="Grupo_1213367" data-name="Grupo 1213367" clip-path="url(#clip-path-5)">
            <rect id="Rectángulo_463103" data-name="Rectángulo 463103" width="344.055" height="276.397" transform="translate(-62.614 29.487) rotate(-25.218)" fill="url(#linear-gradient)"/>
          </g>
        </g>
        <g id="Grupo_1213376" data-name="Grupo 1213376" transform="translate(0 0)">
          <g id="Grupo_1213375" data-name="Grupo 1213375" clip-path="url(#clip-path)">
            <g id="Grupo_1213371" data-name="Grupo 1213371" transform="translate(162.817 128.567)" opacity="0.92">
              <g id="Grupo_1213370" data-name="Grupo 1213370">
                <g id="Grupo_1213369" data-name="Grupo 1213369" clip-path="url(#clip-path-7)">
                  <path id="Trazado_1279975" data-name="Trazado 1279975" d="M83.877,82.425a9.656,9.656,0,1,0,9.656-9.656,9.658,9.658,0,0,0-9.656,9.656" transform="translate(-13.413 1.05)" fill="#fff"/>
                  <path id="Trazado_1279976" data-name="Trazado 1279976" d="M136.949,98.26a6.7,6.7,0,0,1-6.444-4.875A22.073,22.073,0,0,0,88.156,93a6.7,6.7,0,1,1-12.827-3.888,35.477,35.477,0,0,1,68.073.617,6.709,6.709,0,0,1-6.452,8.53" transform="translate(-29.156 -14.667)" fill="#fff"/>
                  <path id="Trazado_1279977" data-name="Trazado 1279977" d="M173.859,104.455a6.705,6.705,0,0,1-6.338-4.531,46.384,46.384,0,0,0-87.542-.553A6.7,6.7,0,0,1,67.358,94.86a59.787,59.787,0,0,1,112.84.718,6.705,6.705,0,0,1-6.338,8.878" transform="translate(-43.535 -30.23)" fill="#fff"/>
                  <path id="Trazado_1279978" data-name="Trazado 1279978" d="M65.244,111.141a6.705,6.705,0,0,1-6.3-8.981,84.776,84.776,0,0,1,159.436,0,6.7,6.7,0,1,1-12.6,4.558,71.373,71.373,0,0,0-134.227,0,6.7,6.7,0,0,1-6.3,4.425" transform="translate(-58.542 -46.227)" fill="#fff"/>
                </g>
              </g>
            </g>
            <g id="Grupo_1213374" data-name="Grupo 1213374" transform="translate(93.205 98.337)" opacity="0.35" style="mix-blend-mode: overlay;isolation: isolate">
              <g id="Grupo_1213373" data-name="Grupo 1213373">
                <g id="Grupo_1213372" data-name="Grupo 1213372" clip-path="url(#clip-path-8)">
                  <path id="Trazado_1279979" data-name="Trazado 1279979" d="M96.847,197.8h78.561L75.646,35.358H39.685a6.18,6.18,0,0,0-6.172,6.177V86.41Z" transform="translate(-33.511 -35.357)" fill="#fff"/>
                  <path id="Trazado_1279980" data-name="Trazado 1279980" d="M171.431,35.358h-48.26L177.608,87.5V41.535a6.183,6.183,0,0,0-6.177-6.177" transform="translate(126.189 -35.357)" fill="#fff"/>
                  <path id="Trazado_1279981" data-name="Trazado 1279981" d="M114.359,35.358H85.231L202.089,197.8h26.691Z" transform="translate(58.61 -35.358)" fill="#fff"/>
                  <path id="Trazado_1279982" data-name="Trazado 1279982" d="M98.422,35.358H66.632l107.3,162.44h39.029Z" transform="translate(25.481 -35.358)" fill="#fff"/>
                </g>
              </g>
            </g>
            <rect id="Rectángulo_463107" data-name="Rectángulo 463107" width="72.114" height="24.155" transform="translate(209.048 267.136)" fill="#3b2b5a"/>
            <path id="Trazado_1279983" data-name="Trazado 1279983" d="M379.137,122.131c0,7.22-78.8,13.075-176.007,13.075s-176-5.854-176-13.075,78.8-13.075,176-13.075,176.007,5.854,176.007,13.075" transform="translate(48.317 194.253)" fill="#2b69be"/>
            <path id="Trazado_1279984" data-name="Trazado 1279984" d="M250.175,128.768H52.611v-9.431a14.6,14.6,0,0,1,14.6-14.6H235.571a14.6,14.6,0,0,1,14.6,14.6Z" transform="translate(93.712 186.558)" fill="#3b2b5a"/>
          </g>
        </g>
        <g id="Grupo_1213378" data-name="Grupo 1213378" transform="translate(275.052 211.876)">
          <g id="Grupo_1213377" data-name="Grupo 1213377" clip-path="url(#clip-path-9)">
            <rect id="Rectángulo_463109" data-name="Rectángulo 463109" width="84.477" height="14.638" transform="translate(0 0)" fill="url(#linear-gradient-2)"/>
          </g>
        </g>
        <g id="Grupo_1213380" data-name="Grupo 1213380" transform="translate(0 0)">
          <g id="Grupo_1213379" data-name="Grupo 1213379" clip-path="url(#clip-path)">
            <path id="Trazado_1279986" data-name="Trazado 1279986" d="M132.994,90.817a7.317,7.317,0,1,1,7.317-7.317,7.318,7.318,0,0,1-7.317,7.317" transform="translate(223.858 135.697)" fill="#8ff0ff"/>
            <path id="Trazado_1279987" data-name="Trazado 1279987" d="M197.125,77.2a6.3,6.3,0,0,1,0,12.6H106.212a6.3,6.3,0,0,1,0-12.6Zm0-1.015H106.212a7.317,7.317,0,1,0,0,14.635h90.913a7.317,7.317,0,0,0,0-14.635" transform="translate(176.154 135.697)" fill="#3b2b5a"/>
          </g>
        </g>
        <g id="Grupo_1213382" data-name="Grupo 1213382" transform="translate(351.574 211.876)">
          <g id="Grupo_1213381" data-name="Grupo 1213381" clip-path="url(#clip-path-11)">
            <rect id="Rectángulo_463111" data-name="Rectángulo 463111" width="14.635" height="14.638" transform="translate(0 0)" fill="url(#linear-gradient-3)"/>
          </g>
        </g>
        <g id="Grupo_1213393" data-name="Grupo 1213393" transform="translate(0 0)">
          <g id="Grupo_1213392" data-name="Grupo 1213392" clip-path="url(#clip-path)">
            <path id="Trazado_1279993" data-name="Trazado 1279993" d="M96.935,82.126a1.1,1.1,0,0,1-.014-2.208l82.98-1.193a1.1,1.1,0,1,1,.031,2.208l-82.98,1.193h-.017" transform="translate(170.696 140.227)" fill="#fff"/>
            <path id="Trazado_1279999" data-name="Trazado 1279999" d="M107.022,109.014c-.27-.15-.392-.6-.434-1.19-.05-.025-.106-.045-.156-.072a4.535,4.535,0,0,1-1.566-1.549,8.128,8.128,0,0,1-1.6-5.5c-1.132,2.039-1.9,3.418-2.039,3.68-.673,1.274.4,5.145,3.171,6.33.492.209,6.505,2.1,7.025,1.549s-3.49-2.742-4.4-3.248" transform="translate(179.963 179.376)" fill="#3b2b5a"/>
            <path id="Trazado_1280000" data-name="Trazado 1280000" d="M129.189,107.627c-.108-.851-5.735-3.529-7.226-4.255q-1.7.317-3.424.481a10.079,10.079,0,0,1-2.147.022c.9,1.716,1.5,2.834,1.619,2.993.626.834,11.264,1.427,11.178.759" transform="translate(207.322 184.128)" fill="#3b2b5a"/>
            <path id="Trazado_1280001" data-name="Trazado 1280001" d="M133.935,91.75a7.912,7.912,0,0,1-1.193-15.733.6.6,0,1,1,.181,1.176,6.722,6.722,0,0,0,2.033,13.289.6.6,0,0,1,.181,1.176,8,8,0,0,1-1.2.092" transform="translate(224.481 135.386)" fill="#fff"/>
            <g id="Grupo_1213402" data-name="Grupo 1213402" transform="translate(299.853 160.928)">
              <g id="Grupo_1213387" data-name="Grupo 1213387" transform="translate(14.165 9.68)">
                <g id="Grupo_1213386" data-name="Grupo 1213386" clip-path="url(#clip-path-13)">
                  <path id="Trazado_1280009" data-name="Trazado 1280009" d="M88.365,37.06a50.877,50.877,0,0,1,65.909-5.684,52.039,52.039,0,0,0-4.908-5.672A50.848,50.848,0,0,0,78.086,98.236a51.866,51.866,0,0,0,5.76,4.808,50.865,50.865,0,0,1,4.52-65.984" transform="translate(-62.874 -11.129)" fill="#52beff"/>
                </g>
              </g>
              <g id="Grupo_1213401" data-name="Grupo 1213401" transform="translate(0 0)">
                <rect id="Rectángulo_463112" data-name="Rectángulo 463112" width="79.41" height="15.866" transform="translate(158.297 167.8) rotate(-135.512)" fill="#3696c6"/>
                <g id="Grupo_1213385" data-name="Grupo 1213385" transform="translate(14.165 14.182)" opacity="0.54">
                  <g id="Grupo_1213384" data-name="Grupo 1213384">
                    <g id="Grupo_1213383" data-name="Grupo 1213383" clip-path="url(#clip-path-14)">
                      <path id="Trazado_1280007" data-name="Trazado 1280007" d="M149.174,97.614a50.847,50.847,0,1,1-.626-71.906,50.845,50.845,0,0,1,.626,71.906" transform="translate(-62.056 -11.134)" fill="#fff"/>
                    </g>
                  </g>
                </g>
                <path id="Trazado_1280010" data-name="Trazado 1280010" d="M172.314,120.584a65.014,65.014,0,1,1-.8-91.94,65,65,0,0,1,.8,91.94m-10.73-81.835a50.848,50.848,0,1,0,.626,71.906,50.845,50.845,0,0,0-.626-71.906" transform="translate(-60.927 -9.993)" fill="#52beff"/>
              </g>
            </g>
            <g id="Grupo_1213391" data-name="Grupo 1213391" transform="translate(43.814 34.779)" opacity="0.56">
              <g id="Grupo_1213390" data-name="Grupo 1213390">
                <g id="Grupo_1213389" data-name="Grupo 1213389" clip-path="url(#clip-path-15)">
                  <path id="Trazado_1280017" data-name="Trazado 1280017" d="M151.894,106.79a4.061,4.061,0,1,0,4.061-4.061,4.062,4.062,0,0,0-4.061,4.061" transform="translate(226.743 148.204)" fill="#fff"/>
                  <path id="Trazado_1280018" data-name="Trazado 1280018" d="M159.01,61.974a4.061,4.061,0,1,0,4.061-4.061,4.06,4.06,0,0,0-4.061,4.061" transform="translate(239.418 68.377)" fill="#fff"/>
                  <path id="Trazado_1280019" data-name="Trazado 1280019" d="M101.3,16.567a4.061,4.061,0,1,0,4.061-4.061,4.062,4.062,0,0,0-4.061,4.061" transform="translate(136.624 -12.503)" fill="#fff"/>
                  <path id="Trazado_1280020" data-name="Trazado 1280020" d="M15.753,82.884a4.061,4.061,0,1,0,4.061-4.061,4.06,4.06,0,0,0-4.061,4.061" transform="translate(-15.754 105.622)" fill="#fff"/>
                  <path id="Trazado_1280021" data-name="Trazado 1280021" d="M160.151,82.135a2.828,2.828,0,1,1-2.829,2.828,2.833,2.833,0,0,1,2.829-2.828m0-1.232a4.061,4.061,0,1,0,4.061,4.061,4.062,4.062,0,0,0-4.061-4.061" transform="translate(234.217 109.327)" fill="#fff"/>
                  <path id="Trazado_1280022" data-name="Trazado 1280022" d="M39.664,21.4a2.829,2.829,0,1,1-2.828,2.829A2.831,2.831,0,0,1,39.664,21.4m0-1.232a4.061,4.061,0,1,0,4.061,4.061,4.06,4.06,0,0,0-4.061-4.061" transform="translate(19.603 1.152)" fill="#fff"/>
                  <path id="Trazado_1280023" data-name="Trazado 1280023" d="M105.511,28.727a2.829,2.829,0,1,1-2.829,2.828,2.833,2.833,0,0,1,2.829-2.828m0-1.232a4.061,4.061,0,1,0,4.061,4.061,4.06,4.06,0,0,0-4.061-4.061" transform="translate(136.891 14.195)" fill="#fff"/>
                  <path id="Trazado_1280024" data-name="Trazado 1280024" d="M79.225,24.208A2.828,2.828,0,1,1,76.4,27.037a2.831,2.831,0,0,1,2.828-2.828m0-1.232a4.061,4.061,0,1,0,4.061,4.061,4.06,4.06,0,0,0-4.061-4.061" transform="translate(90.07 6.146)" fill="#fff"/>
                  <path id="Trazado_1280025" data-name="Trazado 1280025" d="M39.664,104.668a2.828,2.828,0,1,1-2.828,2.828,2.831,2.831,0,0,1,2.828-2.828m0-1.232a4.061,4.061,0,1,0,4.061,4.061,4.06,4.06,0,0,0-4.061-4.061" transform="translate(19.603 149.463)" fill="#fff"/>
                  <path id="Trazado_1280026" data-name="Trazado 1280026" d="M25.655,59.988a2.828,2.828,0,1,1-2.828,2.828,2.833,2.833,0,0,1,2.828-2.828m0-1.232a4.061,4.061,0,1,0,4.061,4.061,4.06,4.06,0,0,0-4.061-4.061" transform="translate(-5.35 69.878)" fill="#fff"/>
                </g>
              </g>
            </g>
            <path id="Trazado_1280027" data-name="Trazado 1280027" d="M120.644,25.182l.373-1.805a1.065,1.065,0,0,1,1.811-.523c1.911,1.991,5.629,5.159,5.624,6.035a17.258,17.258,0,0,1-2.147,2.637Z" transform="translate(214.893 40.124)"/>
            <path id="Trazado_1280028" data-name="Trazado 1280028" d="M135.645,17.076a2.372,2.372,0,0,1,2.25-.6,20.189,20.189,0,0,0,2.061.737c2.5.576,2.753.106,4.506.337,1.416.186,1.688,1.115,1.774,2.367.111,1.591.261,2.873,1.966,3.538,1.343.523,2.08.548,3.413,1.124a2.945,2.945,0,0,1,1.852,2.726c.242,2.036,2.392,2.281,3.232,3.677,1.88,3.112-.606,3.371,1.482,5.129a5.4,5.4,0,0,1,2.275,3.977,3.967,3.967,0,0,1-1.546,3.093c-3.279,3.788-6.375,3.933-11.314,4.756-5.382.9-11.167.225-15.783-2.684a8.521,8.521,0,0,1-4.022-4.831,7.739,7.739,0,0,1,.442-4.511,8.113,8.113,0,0,1,1.908-3.079c.957-.915,2.325-1.7,2.383-3.023.031-.715-.359-1.449-.114-2.122a3.214,3.214,0,0,1,.926-1.093A4.282,4.282,0,0,0,134.466,22a4.516,4.516,0,0,1,1.179-4.928" transform="translate(227.324 29.181)"/>
            <path id="Trazado_1280029" data-name="Trazado 1280029" d="M178.281,58.383c2.389.523,5.713,1.427,5.79,1.121.114-.426-5.66-4.111-6.427-5.112s-4.706-12.755-6.728-16.37S166.333,28.813,164.948,28s-6.886-2.178-7.576-3.034-.971-4.583-1.5-5.179-3.179.1-2.712,1.85a7.208,7.208,0,0,1-.651,4.008c-.548,1.029-3.571.548-4.661,2.091s-6.936,11.206-7.882,11.756-11.1-4.144-11.94-4.567a34.089,34.089,0,0,1-3.143-2.236c-.818.52.584,1.852-.389,1.658s-2.539-4.684-3.613-3.9c-.993.723.122,3.315,1.952,5.073a13.354,13.354,0,0,0,4,2.392c.378.256,13.481,7.356,14.4,6.911s9.64-7.871,9.64-7.871a20.454,20.454,0,0,1,2.356,5.857c.442,2.762-.159,5.868-.67,6.077S135,52.954,130.8,54.957c-3.457,1.649-2.773,6.992-2.256,8.5s7.982,24.024,8.43,27.114,1.062,5.532.651,6.224-4.567,5.315-4.428,6.263,8.9-3.265,9.312-4.411-.25-22.914-1.185-26.586-3.374-8.31-2.915-8.761,13.389-4.806,13.923-4.667-5.5,14.179-5.226,16.192,6.305,29.306,6.455,30.032-3.143,7.629-2.183,8.338,6.939-6.864,7.112-7.96.437-19.558.15-22.67c-.323-3.518-1.452-7.7-.985-8.6s9.373-13.939,9.734-17.5-3.438-19.519-3.438-19.519,10,16.707,10.4,17.383c.286.489.37,3.6,2.119,4.773a6.668,6.668,0,0,0,1.441.882c.576.2,1.816.6,1.071-.139-.1-.1-.862-.962-.94-1.082s-.061-.32.072-.37a.318.318,0,0,1,.17-.008" transform="translate(214.656 34.866)" fill="#ffd6bd"/>
            <path id="Trazado_1280030" data-name="Trazado 1280030" d="M133.733,17.536c-2.475.4-3.2,3.015-2.979,5.134s1.549,4.572,2.264,4.956,4.6-.731,5.29-1.557-.993-9.108-4.575-8.533" transform="translate(232.834 31.185)" fill="#ffd6bd"/>
            <path id="Trazado_1280031" data-name="Trazado 1280031" d="M138.934,49.584a21.411,21.411,0,0,1-2.425,2.731,6.538,6.538,0,0,1-3.424,1.7c-.854,2.286-1.977,5.268-1.366,5.721.957.706,6.939-6.864,7.114-7.96.031-.2.067-1.007.1-2.2" transform="translate(234.311 88.32)" fill="#3b2b5a"/>
            <path id="Trazado_1280032" data-name="Trazado 1280032" d="M129.437,49.049a3.567,3.567,0,0,1-.9-.275c-1.346,1.649-3.563,4.328-3.46,5.026.139.948,8.9-3.265,9.314-4.414a12.2,12.2,0,0,0,.12-2.155,6.285,6.285,0,0,1-5.07,1.819" transform="translate(222.777 84.127)" fill="#3b2b5a"/>
            <path id="Trazado_1280033" data-name="Trazado 1280033" d="M166.586,34.056c-2.022-3.616-4.583-9.209-5.968-10.029-1-.592-4.141-1.463-6.074-2.225a7.962,7.962,0,0,1-1.463,2.231,3.229,3.229,0,0,1-3.048.973,3.145,3.145,0,0,1-1.844-1.7c-.159-.309-.259-.818-.417-1.254-1.015.553-3.326.409-4.252,1.719-1.09,1.541-6.934,11.2-7.879,11.756-.882.515-9.768-4.061-11.94-4.567a14.244,14.244,0,0,1-.759,3.21c2.286,1.165,13.138,7.087,13.967,6.686.918-.448,9.64-7.871,9.64-7.871a20.445,20.445,0,0,1,2.359,5.854c.275,1.719-.679,3.221-.047,4.433.019.028.692,1.04.715,1.065.364.451-.139-.172.762.439a8.838,8.838,0,0,0,7.323,1.257c1.218-.339,2.781-.134,4.036-.756.167-.083.4-.606.548-.72.7-2.664-2.617-11.573-2.617-11.573s10,16.707,10.4,17.38A2.725,2.725,0,0,1,170.2,51q1.364-.672,2.773-1.243c-1.238-2.745-4.575-12.471-6.383-15.7" transform="translate(218.983 38.834)" fill="#52beff"/>
            <path id="Trazado_1280034" data-name="Trazado 1280034" d="M160.922,30.8c-3.538.845-7.109.325-10.655-.565-.9-.228-1.836-.426-2.726-.718-.164.915-.4,1.555-.626,1.644-.509.209-18.05,3.852-22.253,5.857a4.045,4.045,0,0,0-.982.659C136.6,51.608,152.4,54.957,152.945,55.335c2.058-3.2,8.483-13.486,8.8-16.587a21.292,21.292,0,0,0-.82-7.946" transform="translate(220.303 52.582)" fill="#3b2b5a"/>
            <path id="Trazado_1280035" data-name="Trazado 1280035" d="M131.307,22.552a.675.675,0,0,0-.047.756.816.816,0,0,0,.314.211,4.6,4.6,0,0,0,1.2.334,4.122,4.122,0,0,0-.756.9.7.7,0,0,0-.111.7.613.613,0,0,0,.314.222,1.706,1.706,0,0,0,1.646-.259,2.14,2.14,0,0,0-.128,1.733,1.115,1.115,0,0,0,1.474.6,3.1,3.1,0,0,0,.651-.681c.22-.239.523-.57.325-.829a1.3,1.3,0,0,0,.793,1.129.621.621,0,0,0,.309.053.7.7,0,0,0,.311-.153,1.62,1.62,0,0,0,.587-.762.948.948,0,0,0-.164-.918,3.132,3.132,0,0,0,.934.367,1.047,1.047,0,0,0,.929-.273c.406-.448.153-1.179-.245-1.633a1.238,1.238,0,1,0-.025-2.367.485.485,0,0,0-.178.1.6.6,0,0,0-.114.236,3.258,3.258,0,0,1-3.112,2.214,3.339,3.339,0,0,1-2.667-1.63c-.231-.35-.37-.609-.809-.673a1.508,1.508,0,0,0-1.43.626" transform="translate(233.628 38.532)" fill="#b5e2ff"/>
            <path id="Trazado_1280036" data-name="Trazado 1280036" d="M131.335,22.546a1.136,1.136,0,0,0,.642.045c.451-.083.759-.417,1.182-.565a1.07,1.07,0,0,1,.868.039c.409.231.59.809,1.051.907.484.1.909-.412,1.407-.4s.812.515,1.243.751a1.324,1.324,0,0,0,1.811-.654,2.232,2.232,0,0,0-.292-2.03,9.061,9.061,0,0,0-1.443-1.569,8.514,8.514,0,0,0-2.117-1.744,3.708,3.708,0,0,0-3.312.145,3.871,3.871,0,0,0-1.991,2.492c-.1.8.1,2.247.951,2.581" transform="translate(232.201 30.289)"/>
            <path id="Trazado_1280037" data-name="Trazado 1280037" d="M126.247,26.926a.386.386,0,0,1-.387-.387,3.524,3.524,0,0,0-1.023-2.612,3.776,3.776,0,0,0-2.773-1,.378.378,0,0,1-.4-.373.384.384,0,0,1,.373-.4,4.559,4.559,0,0,1,3.34,1.221,4.28,4.28,0,0,1,1.257,3.168.386.386,0,0,1-.387.387" transform="translate(216.708 39.45)" fill="#52beff"/>
            <path id="Trazado_1280038" data-name="Trazado 1280038" d="M130.008,29.507a.39.39,0,0,1-.387-.359c-.362-4.934-2.89-7.348-7.729-7.379a.387.387,0,1,1,0-.773c5.248.033,8.107,2.756,8.5,8.1a.388.388,0,0,1-.359.414h-.028" transform="translate(216.429 37.398)" fill="#52beff"/>
            <path id="Trazado_1280039" data-name="Trazado 1280039" d="M134.107,32.681a.386.386,0,0,1-.387-.381c-.15-7.918-4.214-11.773-12.3-11.717a.39.39,0,0,1-.389-.387c0-.25.242-.389.49-.389,8.455,0,12.819,4.2,12.974,12.479a.384.384,0,0,1-.378.395Z" transform="translate(215.581 35.281)" fill="#52beff"/>
          </g>
        </g>
      </g>
    </g>
  </g>
</svg>
