<svg xmlns="http://www.w3.org/2000/svg" xmlns:xlink="http://www.w3.org/1999/xlink" width="130" height="130" viewBox="0 0 130 130">
  <defs>
    <clipPath id="clip-path">
      <rect id="Rectángulo_454829" data-name="Rectángulo 454829" width="130" height="130" fill="#1e535a"/>
    </clipPath>
    <clipPath id="clip-path-2">
      <rect id="Rectángulo_463094" data-name="Rectángulo 463094" width="50" height="50.857" fill="#1e535a"/>
    </clipPath>
  </defs>
  <g id="Grupo_1212507" data-name="Grupo 1212507" transform="translate(-186 -4323.945)">
    <g id="Grupo_1177591" data-name="Grupo 1177591" transform="translate(186 4323.945)">
      <g id="Grupo_1177589" data-name="Grupo 1177589" transform="translate(0 0)">
        <g id="Grupo_1177587" data-name="Grupo 1177587" clip-path="url(#clip-path)">
          <path id="Trazado_997422" data-name="Trazado 997422" d="M124.692,57.54a59.768,59.768,0,0,0-13.5-31.1,6.874,6.874,0,0,0-9.672-9.26,59.68,59.68,0,0,0-30.9-12.073,6.875,6.875,0,0,0-13.353.271A59.762,59.762,0,0,0,27.622,18.05a6.877,6.877,0,0,0-9.545,9.61A59.712,59.712,0,0,0,5.568,57.481,6.88,6.88,0,0,0,5.4,70.954,59.7,59.7,0,0,0,17.522,101.38a6.876,6.876,0,0,0,9.342,9.709,59.757,59.757,0,0,0,30.35,13.274,6.877,6.877,0,0,0,13.473.271,59.706,59.706,0,0,0,31.125-12.3,6.875,6.875,0,0,0,9.624-9.308,59.783,59.783,0,0,0,13.418-32.141,6.877,6.877,0,0,0-.161-13.35M105.274,29.825a6.838,6.838,0,0,0,3.808-1.153,56.758,56.758,0,0,1,12.526,28.85,6.887,6.887,0,0,0-4.395,3.184L99.637,54.116c.014-.192.027-.388.027-.587a6.877,6.877,0,0,0-2.913-5.62L104.44,29.77a7.449,7.449,0,0,0,.834.055m-3.716-1.094L93.917,46.749a6.806,6.806,0,0,0-7.575,4.374L54.544,43.8A6.691,6.691,0,0,0,54.4,42.43L99.523,26.716a6.9,6.9,0,0,0,2.035,2.014M63.979,13.765a6.883,6.883,0,0,0,6.755-5.582A56.663,56.663,0,0,1,99.386,19.388a6.844,6.844,0,0,0-.995,3.554,7.226,7.226,0,0,0,.065.909L53.107,39.641A6.9,6.9,0,0,0,51.861,38.4L63.756,13.754c.075,0,.148.01.223.01M57.286,8.454a6.884,6.884,0,0,0,3.462,4.5L49.086,37.109a6.9,6.9,0,0,0-1.42-.148,6.832,6.832,0,0,0-3.922,1.232L29.921,26.648a6.842,6.842,0,0,0-.233-6.333,56.709,56.709,0,0,1,27.6-11.861M13.6,62.741l28.59-14.746a6.857,6.857,0,0,0,5.424,2.728l9.8,31.321a7,7,0,0,0-1.516,1.678L13.511,66.062a6.836,6.836,0,0,0,.254-1.825,6.916,6.916,0,0,0-.168-1.5m6.752-33.029a6.877,6.877,0,0,0,7.682-.655l13.648,11.4a6.863,6.863,0,0,0-.758,4.755L12.283,59.976a6.88,6.88,0,0,0-3.644-2.388,56.684,56.684,0,0,1,11.71-27.876M23.2,98.391a6.862,6.862,0,0,0-3.417.913,56.633,56.633,0,0,1-11.3-28.38,6.888,6.888,0,0,0,3.572-2.155L54.857,86.6a7.38,7.38,0,0,0-.055.827,6.881,6.881,0,0,0,.412,2.326l-25.886,12.4A6.881,6.881,0,0,0,23.2,98.391M57.347,121.3A56.765,56.765,0,0,1,29.029,108.91a6.81,6.81,0,0,0,1.05-3.637l0-.079,26.8-12.845a6.882,6.882,0,0,0,2.429,1.534l1.606,23.08a6.882,6.882,0,0,0-3.565,4.337M60.2,80.715,50.609,50.057a6.892,6.892,0,0,0,3.27-3.27l32.055,7.38A6.842,6.842,0,0,0,87.028,57.3L65.043,81.426a6.8,6.8,0,0,0-4.844-.71M70.68,121.567a6.88,6.88,0,0,0-6.7-5.332l-.051,0L62.4,94.278a6.87,6.87,0,0,0,4.206-2.041l32.048,14.135c0,.062-.01.117-.01.178a6.848,6.848,0,0,0,1.019,3.589A56.66,56.66,0,0,1,70.68,121.567m28.747-18.2L68.213,89.6a6.842,6.842,0,0,0-.9-6.121l21.92-24.061a6.841,6.841,0,0,0,3.551.995,7.576,7.576,0,0,0,.844-.055l8.193,40.4a6.867,6.867,0,0,0-2.391,2.611M109.3,100.8a6.84,6.84,0,0,0-4.573-1.081L96.532,59.3A6.91,6.91,0,0,0,98.7,57.032l17.566,6.587a6.1,6.1,0,0,0-.031.618,6.88,6.88,0,0,0,5.531,6.745A56.707,56.707,0,0,1,109.3,100.8" transform="translate(0 0.001)" fill="#1e535a"/>
        </g>
      </g>
    </g>
    <g id="Elipse_13614" data-name="Elipse 13614" transform="translate(210.059 4348.488)" fill="#fff" stroke="#1e535a" stroke-width="3">
      <ellipse cx="40.732" cy="40.733" rx="40.732" ry="40.733" stroke="none"/>
      <ellipse cx="40.732" cy="40.733" rx="39.232" ry="39.233" fill="none"/>
    </g>
    <g id="Grupo_1213351" data-name="Grupo 1213351" transform="translate(226.059 4363.488)">
      <g id="Grupo_1213350" data-name="Grupo 1213350" clip-path="url(#clip-path-2)">
        <path id="Trazado_1279928" data-name="Trazado 1279928" d="M118.154,20.7l-25.208-.062A5.906,5.906,0,0,1,87.4,15.365a6.047,6.047,0,0,1,4.348-6.539A7.737,7.737,0,0,1,97.812.171a7.869,7.869,0,0,1,9.076,5.359,6.136,6.136,0,0,1,9.82,5.064A5.189,5.189,0,1,1,118.154,20.7M99.426,3.43l-.008-1.716A6.044,6.044,0,0,0,93.39,7.741l1.724-.007a4.322,4.322,0,0,1,4.312-4.3m-6.011,8.636-.026-1.709a4.3,4.3,0,0,0-4.319,4.287L90.8,14.61a2.579,2.579,0,0,1,2.617-2.545m23.242,6.921,2.062-.065a3.352,3.352,0,0,0,3.1-3.383l-1.692.015a1.819,1.819,0,0,1-1.885,1.7l-1.594-.018Z" transform="translate(-73.546 0)" fill="#1e535a"/>
        <path id="Trazado_1279929" data-name="Trazado 1279929" d="M52.752,96.076l.008,6.937-20.653,0,.016,1.727H54.468l0-8.668h3.438v12.079l-36.21,0,0-20.654,8.7,0a7.744,7.744,0,0,0,7.256,8.568H49.326l0,3.475H37.232l0,1.739h13.8l.008-5.212ZM35.51,99.542H33.8v1.747h1.71Zm-6.03,4.31a2.582,2.582,0,1,0-2.582,2.582,2.582,2.582,0,0,0,2.582-2.582" transform="translate(-18.269 -73.673)" fill="#1e535a"/>
        <path id="Trazado_1279930" data-name="Trazado 1279930" d="M41.37,89.649l0-12,1.743,0L43.1,94.067a2.561,2.561,0,0,1-2.7,2.553L2.344,96.606A2.543,2.543,0,0,1,0,94.056V68.177a2.478,2.478,0,0,1,2.178-2.518l11.185-.04-.852,1.724-9.4.024a1.68,1.68,0,0,0-1.393,1.6V89.788a1.724,1.724,0,0,0,1.567,1.657l36.316.005a1.7,1.7,0,0,0,1.764-1.8m-8.6,3.516H31.055v1.723h1.719Zm8.594,0H34.486v1.723h6.882Z" transform="translate(0 -55.247)" fill="#1e535a"/>
        <path id="Trazado_1279931" data-name="Trazado 1279931" d="M72.988,303.318l-29.293,0a3.481,3.481,0,0,1,3.65-3.455l22.527,0a3.44,3.44,0,0,1,3.117,3.449" transform="translate(-36.788 -252.464)" fill="#1e535a"/>
        <path id="Trazado_1279932" data-name="Trazado 1279932" d="M98.2,275.281H80.486l.844-2.574H97.3Z" transform="translate(-67.763 -229.599)" fill="#1e535a"/>
        <path id="Trazado_1279933" data-name="Trazado 1279933" d="M50.859,186.283a.86.86,0,1,1-.86-.86.86.86,0,0,1,.86.86" transform="translate(-41.372 -156.113)" fill="#1e535a"/>
      </g>
    </g>
  </g>
</svg>
