<svg xmlns="http://www.w3.org/2000/svg" xmlns:xlink="http://www.w3.org/1999/xlink" width="130" height="130" viewBox="0 0 130 130">
  <defs>
    <clipPath id="clip-path">
      <rect id="Rectángulo_454829" data-name="Rectángulo 454829" width="130" height="130" fill="#1e535a"/>
    </clipPath>
    <clipPath id="clip-path-2">
      <rect id="Rectángulo_463092" data-name="Rectángulo 463092" width="50.479" height="50.476" fill="#1e535a"/>
    </clipPath>
  </defs>
  <g id="Grupo_1184506" data-name="Grupo 1184506" transform="translate(-186.059 -4323.488)">
    <g id="Grupo_1177591" data-name="Grupo 1177591" transform="translate(186.059 4323.488)">
      <g id="Grupo_1177589" data-name="Grupo 1177589" transform="translate(0 0)">
        <g id="Grupo_1177587" data-name="Grupo 1177587" clip-path="url(#clip-path)">
          <path id="Trazado_997422" data-name="Trazado 997422" d="M124.692,57.54a59.768,59.768,0,0,0-13.5-31.1,6.874,6.874,0,0,0-9.672-9.26,59.68,59.68,0,0,0-30.9-12.073,6.875,6.875,0,0,0-13.353.271A59.762,59.762,0,0,0,27.622,18.05a6.877,6.877,0,0,0-9.545,9.61A59.712,59.712,0,0,0,5.568,57.481,6.88,6.88,0,0,0,5.4,70.954,59.7,59.7,0,0,0,17.522,101.38a6.876,6.876,0,0,0,9.342,9.709,59.757,59.757,0,0,0,30.35,13.274,6.877,6.877,0,0,0,13.473.271,59.706,59.706,0,0,0,31.125-12.3,6.875,6.875,0,0,0,9.624-9.308,59.783,59.783,0,0,0,13.418-32.141,6.877,6.877,0,0,0-.161-13.35M105.274,29.825a6.838,6.838,0,0,0,3.808-1.153,56.758,56.758,0,0,1,12.526,28.85,6.887,6.887,0,0,0-4.395,3.184L99.637,54.116c.014-.192.027-.388.027-.587a6.877,6.877,0,0,0-2.913-5.62L104.44,29.77a7.449,7.449,0,0,0,.834.055m-3.716-1.094L93.917,46.749a6.806,6.806,0,0,0-7.575,4.374L54.544,43.8A6.691,6.691,0,0,0,54.4,42.43L99.523,26.716a6.9,6.9,0,0,0,2.035,2.014M63.979,13.765a6.883,6.883,0,0,0,6.755-5.582A56.663,56.663,0,0,1,99.386,19.388a6.844,6.844,0,0,0-.995,3.554,7.226,7.226,0,0,0,.065.909L53.107,39.641A6.9,6.9,0,0,0,51.861,38.4L63.756,13.754c.075,0,.148.01.223.01M57.286,8.454a6.884,6.884,0,0,0,3.462,4.5L49.086,37.109a6.9,6.9,0,0,0-1.42-.148,6.832,6.832,0,0,0-3.922,1.232L29.921,26.648a6.842,6.842,0,0,0-.233-6.333,56.709,56.709,0,0,1,27.6-11.861M13.6,62.741l28.59-14.746a6.857,6.857,0,0,0,5.424,2.728l9.8,31.321a7,7,0,0,0-1.516,1.678L13.511,66.062a6.836,6.836,0,0,0,.254-1.825,6.916,6.916,0,0,0-.168-1.5m6.752-33.029a6.877,6.877,0,0,0,7.682-.655l13.648,11.4a6.863,6.863,0,0,0-.758,4.755L12.283,59.976a6.88,6.88,0,0,0-3.644-2.388,56.684,56.684,0,0,1,11.71-27.876M23.2,98.391a6.862,6.862,0,0,0-3.417.913,56.633,56.633,0,0,1-11.3-28.38,6.888,6.888,0,0,0,3.572-2.155L54.857,86.6a7.38,7.38,0,0,0-.055.827,6.881,6.881,0,0,0,.412,2.326l-25.886,12.4A6.881,6.881,0,0,0,23.2,98.391M57.347,121.3A56.765,56.765,0,0,1,29.029,108.91a6.81,6.81,0,0,0,1.05-3.637l0-.079,26.8-12.845a6.882,6.882,0,0,0,2.429,1.534l1.606,23.08a6.882,6.882,0,0,0-3.565,4.337M60.2,80.715,50.609,50.057a6.892,6.892,0,0,0,3.27-3.27l32.055,7.38A6.842,6.842,0,0,0,87.028,57.3L65.043,81.426a6.8,6.8,0,0,0-4.844-.71M70.68,121.567a6.88,6.88,0,0,0-6.7-5.332l-.051,0L62.4,94.278a6.87,6.87,0,0,0,4.206-2.041l32.048,14.135c0,.062-.01.117-.01.178a6.848,6.848,0,0,0,1.019,3.589A56.66,56.66,0,0,1,70.68,121.567m28.747-18.2L68.213,89.6a6.842,6.842,0,0,0-.9-6.121l21.92-24.061a6.841,6.841,0,0,0,3.551.995,7.576,7.576,0,0,0,.844-.055l8.193,40.4a6.867,6.867,0,0,0-2.391,2.611M109.3,100.8a6.84,6.84,0,0,0-4.573-1.081L96.532,59.3A6.91,6.91,0,0,0,98.7,57.032l17.566,6.587a6.1,6.1,0,0,0-.031.618,6.88,6.88,0,0,0,5.531,6.745A56.707,56.707,0,0,1,109.3,100.8" transform="translate(0 0.001)" fill="#1e535a"/>
        </g>
      </g>
    </g>
    <g id="Elipse_13614" data-name="Elipse 13614" transform="translate(210.273 4348.213)" fill="#fff" stroke="#1e535a" stroke-width="3">
      <ellipse cx="40.732" cy="40.733" rx="40.732" ry="40.733" stroke="none"/>
      <ellipse cx="40.732" cy="40.733" rx="39.232" ry="39.233" fill="none"/>
    </g>
    <g id="Grupo_1213347" data-name="Grupo 1213347" transform="translate(226.059 4363.488)">
      <g id="Grupo_1213346" data-name="Grupo 1213346" clip-path="url(#clip-path-2)">
        <path id="Trazado_1279918" data-name="Trazado 1279918" d="M31.873,11.726a4.936,4.936,0,0,0-.64,9.814,23.357,23.357,0,0,0,3.017.073l.012,3.751a2.8,2.8,0,0,0-3.194,1.122,2.677,2.677,0,0,0-3.6.9,2.689,2.689,0,0,0-2.7.018,2.727,2.727,0,0,0-1.345,2.236l.007,8.682a14.022,14.022,0,0,0,.546,3.16l-22.065,0A1.809,1.809,0,0,1,.007,39.74L0,7.222l13.686-.014c.414,0,.76-.635.743-.931a.941.941,0,0,0-.886-.874H0l.01-3.682A1.745,1.745,0,0,1,1.767,0l46.8,0a1.8,1.8,0,0,1,1.909,1.876L50.468,5.4,20,5.4a.932.932,0,0,0-1.035.756.881.881,0,0,0,.886,1.058l30.632,0,0,32.521a1.8,1.8,0,0,1-1.884,1.732l-5.229.005,4.769-8.957a3.141,3.141,0,0,0-5.637-2.76L39.669,34.9l-.013-13.264L42.1,21.6a4.935,4.935,0,0,0-.005-9.865ZM3.6,2.7a.9.9,0,1,0-.9.9.9.9,0,0,0,.9-.9m3.611,0a.9.9,0,1,0-.9.9.9.9,0,0,0,.9-.9m3.6-.006a.895.895,0,1,0-.895.9.895.895,0,0,0,.895-.9M20.7,28.57l-.5-4.244a3.584,3.584,0,0,0,4.073-3.208c.093-2.706.068-5.255.011-7.984A3.354,3.354,0,0,0,21.126,9.98L5.787,10a3.428,3.428,0,0,0-3.074,3.416l.02,7.577a3.447,3.447,0,0,0,3.176,3.283l7.4.048,5.928,5.187a1.064,1.064,0,0,0,1.076.112A1.113,1.113,0,0,0,20.7,28.57M6.38,39.648a.961.961,0,0,0,.843-.832c.03-.336-.3-.926-.683-.928l-2.931-.011,0-2.747a.963.963,0,0,0-.928-.9,1.013,1.013,0,0,0-.877.8l-.015,3.709a.98.98,0,0,0,.94.921Z" transform="translate(0 -0.001)" fill="#1e535a"/>
        <path id="Trazado_1279919" data-name="Trazado 1279919" d="M174.556,149.56l-.011-8.7c0-.457.632-.783.955-.735a.976.976,0,0,1,.855.927l-.008,4.365a.933.933,0,0,0,.818,1.013.924.924,0,0,0,.977-.866l.011-5.461a.922.922,0,0,1,.863-.874.89.89,0,0,1,.93.969l0,5.36a.948.948,0,0,0,.82.869.878.878,0,0,0,.96-.865l.024-6.463c0-.488.673-.843,1.007-.78a.971.971,0,0,1,.808,1.013l-.012,6.087a.922.922,0,0,0,.841,1.008.9.9,0,0,0,.961-.878l0-14.574a.958.958,0,0,1,.9-.875,1.036,1.036,0,0,1,.91.881l.012,15.435a1.755,1.755,0,0,0,1.293,1.555,1.787,1.787,0,0,0,1.985-.74l2.97-5.422a1.3,1.3,0,0,1,1.688-.48,1.368,1.368,0,0,1,.689,1.728l-4.843,9.129a12.58,12.58,0,0,1-2.814,4.051,3.238,3.238,0,0,0-.932,2.015l-.032,3.508h-9.925l-.022-3.044a9.521,9.521,0,0,0-1.366-4.586,9.45,9.45,0,0,1-1.317-4.567" transform="translate(-149.302 -111.283)" fill="#1e535a"/>
        <path id="Trazado_1279920" data-name="Trazado 1279920" d="M210.294,99.727a2.7,2.7,0,1,0-5.405-.012l-2.3-.009a3.156,3.156,0,0,1,.052-6.312l10.016.013a3.144,3.144,0,0,1,.074,6.282Z" transform="translate(-170.637 -79.887)" fill="#1e535a"/>
        <path id="Trazado_1279921" data-name="Trazado 1279921" d="M44.852,92.688l.357,3.159-4.617-4.031L32.821,91.8a1.817,1.817,0,0,1-1.736-1.718l0-7.239a1.812,1.812,0,0,1,1.739-1.864H47.4a1.782,1.782,0,0,1,1.718,1.869l-.011,7.232a1.694,1.694,0,0,1-1.573,1.694l-1.729.031c-.47.008-1.014.338-.953.881M35.583,85.5a.97.97,0,0,0,.91-.839c.037-.314-.277-.92-.622-.928l-1.924-.047a.95.95,0,0,0-1.04.838.92.92,0,0,0,.9.969Zm10.895-.009a.9.9,0,0,0,.806-1.1.963.963,0,0,0-1.015-.694l-7.248.023c-.5,0-.8.689-.7,1.056a1.01,1.01,0,0,0,.985.731ZM41.053,89.1a.961.961,0,0,0,.865-.828c.036-.337-.281-.944-.71-.943l-7.669.014c-.45,0-.709.741-.617,1.074a1.019,1.019,0,0,0,.887.689Zm5.488-.01c.37,0,.748-.506.773-.81.1-1.189-1.331-1-3.069-.9-.357.021-.591.722-.5,1.044a1.1,1.1,0,0,0,.88.689Z" transform="translate(-26.587 -69.269)" fill="#1e535a"/>
      </g>
    </g>
  </g>
</svg>
