<svg xmlns="http://www.w3.org/2000/svg" xmlns:xlink="http://www.w3.org/1999/xlink" width="128" height="128" viewBox="0 0 128 128">
  <defs>
    <clipPath id="clip-path">
      <rect id="Rectángulo_454829" data-name="Rectángulo 454829" width="128" height="128" fill="#1e535a"/>
    </clipPath>
    <clipPath id="clip-path-2">
      <rect id="Rectángulo_463087" data-name="Rectángulo 463087" width="44" height="44" fill="#1e535a"/>
    </clipPath>
  </defs>
  <g id="Grupo_1210201" data-name="Grupo 1210201" transform="translate(-0.402 -0.359)">
    <g id="Grupo_1177591" data-name="Grupo 1177591" transform="translate(0.402 0.359)">
      <g id="Grupo_1177589" data-name="Grupo 1177589" transform="translate(0 0)">
        <g id="Grupo_1177587" data-name="Grupo 1177587" clip-path="url(#clip-path)">
          <path id="Trazado_997422" data-name="Trazado 997422" d="M122.774,56.654a58.848,58.848,0,0,0-13.293-30.623,6.768,6.768,0,0,0-9.523-9.118A58.761,58.761,0,0,0,69.535,5.027a6.769,6.769,0,0,0-13.148.267A58.842,58.842,0,0,0,27.2,17.772a6.771,6.771,0,0,0-9.4,9.462A58.794,58.794,0,0,0,5.483,56.6a6.774,6.774,0,0,0-.162,13.266A58.776,58.776,0,0,0,17.252,99.82a6.771,6.771,0,0,0,9.2,9.56,58.838,58.838,0,0,0,29.883,13.07,6.771,6.771,0,0,0,13.266.267,58.788,58.788,0,0,0,30.646-12.107,6.769,6.769,0,0,0,9.476-9.165A58.863,58.863,0,0,0,122.933,69.8a6.771,6.771,0,0,0-.159-13.144m-19.12-27.288a6.733,6.733,0,0,0,3.75-1.135,55.884,55.884,0,0,1,12.333,28.407,6.781,6.781,0,0,0-4.327,3.135L98.1,53.283c.013-.189.027-.382.027-.578a6.772,6.772,0,0,0-2.868-5.533l7.57-17.86a7.335,7.335,0,0,0,.821.054M100,28.288,92.472,46.03a6.7,6.7,0,0,0-7.459,4.307L53.705,43.125a6.588,6.588,0,0,0-.142-1.348L97.992,26.305a6.793,6.793,0,0,0,2,1.983M63,13.553a6.777,6.777,0,0,0,6.651-5.5A55.792,55.792,0,0,1,97.857,19.09a6.739,6.739,0,0,0-.98,3.5,7.114,7.114,0,0,0,.064.9L52.29,39.031A6.8,6.8,0,0,0,51.064,37.8L62.775,13.543c.074,0,.145.01.22.01M56.4,8.324a6.778,6.778,0,0,0,3.409,4.435L48.331,36.538a6.8,6.8,0,0,0-1.4-.145,6.727,6.727,0,0,0-3.861,1.213L29.461,26.238A6.736,6.736,0,0,0,29.231,20,55.836,55.836,0,0,1,56.4,8.324M13.387,61.776l28.15-14.519a6.751,6.751,0,0,0,5.341,2.686l9.648,30.839a6.887,6.887,0,0,0-1.493,1.652L13.3,65.046a6.731,6.731,0,0,0,.25-1.8,6.81,6.81,0,0,0-.166-1.473m6.648-32.521a6.771,6.771,0,0,0,7.564-.645L41.037,39.831a6.758,6.758,0,0,0-.747,4.682l-28.2,14.539A6.774,6.774,0,0,0,8.506,56.7,55.812,55.812,0,0,1,20.036,29.254m2.8,67.623a6.756,6.756,0,0,0-3.365.9A55.762,55.762,0,0,1,8.351,69.832a6.783,6.783,0,0,0,3.517-2.121L54.013,85.27a7.266,7.266,0,0,0-.054.814,6.775,6.775,0,0,0,.405,2.29L28.876,100.587a6.775,6.775,0,0,0-6.037-3.709m33.626,22.556a55.892,55.892,0,0,1-27.883-12.2,6.705,6.705,0,0,0,1.034-3.581l0-.078L56,90.929a6.776,6.776,0,0,0,2.392,1.51l1.581,22.725a6.776,6.776,0,0,0-3.51,4.27m2.807-39.96L49.831,49.287a6.786,6.786,0,0,0,3.219-3.219l31.562,7.266a6.736,6.736,0,0,0,1.078,3.081L64.042,80.173a6.692,6.692,0,0,0-4.77-.7M69.592,119.7a6.774,6.774,0,0,0-6.6-5.25l-.051,0-1.5-21.623a6.764,6.764,0,0,0,4.142-2.01l31.555,13.918c0,.061-.01.115-.01.176a6.743,6.743,0,0,0,1,3.534A55.789,55.789,0,0,1,69.592,119.7M97.9,101.779,67.164,88.22a6.736,6.736,0,0,0-.888-6.027L87.858,58.5a6.736,6.736,0,0,0,3.5.98,7.46,7.46,0,0,0,.831-.054l8.067,39.781a6.761,6.761,0,0,0-2.355,2.571m9.722-2.534a6.735,6.735,0,0,0-4.5-1.064l-8.07-39.8a6.8,6.8,0,0,0,2.135-2.23l17.3,6.486a6.009,6.009,0,0,0-.03.608,6.774,6.774,0,0,0,5.445,6.641A55.835,55.835,0,0,1,107.62,99.246" transform="translate(0 0.001)" fill="#1e535a"/>
        </g>
      </g>
    </g>
    <g id="Elipse_13614" data-name="Elipse 13614" transform="translate(24.056 23.773)" fill="#fff" stroke="#1e535a" stroke-width="3">
      <ellipse cx="39.732" cy="39.733" rx="39.732" ry="39.733" stroke="none"/>
      <ellipse cx="39.732" cy="39.733" rx="38.232" ry="38.233" fill="none"/>
    </g>
    <g id="Grupo_1213338" data-name="Grupo 1213338" transform="translate(42.057 41.773)">
      <g id="Grupo_1213337" data-name="Grupo 1213337" clip-path="url(#clip-path-2)">
        <path id="Trazado_1279890" data-name="Trazado 1279890" d="M0,25.01V19a2.312,2.312,0,0,1,1.717-.685,4.65,4.65,0,0,0,3.992-3A4.8,4.8,0,0,0,4.7,10.095a1.415,1.415,0,0,1-.129-1.959l3.36-3.383c.593-.6,1.5-.169,1.992.3a4.63,4.63,0,0,0,5.374.739,5,5,0,0,0,2.687-4.535A1.454,1.454,0,0,1,19.843.048a6.717,6.717,0,0,0-.118.927v12a9.241,9.241,0,0,0,0,18.06V43.294l.122.706a1.862,1.862,0,0,1-1.478-.414,1.824,1.824,0,0,1-.439-1.208,4.778,4.778,0,0,0-2.814-4.253,4.592,4.592,0,0,0-5.191.826c-.489.467-1.4.9-1.993.3L4.688,36.01a1.4,1.4,0,0,1-.1-1.951,4.9,4.9,0,0,0,1.157-5.273A4.663,4.663,0,0,0,1.714,25.7,2.334,2.334,0,0,1,0,25.01" transform="translate(0 0)" fill="#1e535a"/>
        <path id="Trazado_1279891" data-name="Trazado 1279891" d="M185.938,43.212a.829.829,0,0,1-.819.922h-20.9c-.413,0-.744-.51-.744-.914V1.091c.033-.413.319-.907.732-.907L175.4.176l0,8.03a2.687,2.687,0,0,0,2.772,2.623l7.775,0ZM173.03,10.66a.922.922,0,0,0,.877-1.024.944.944,0,0,0-1.008-.808l-4.889,0a.952.952,0,0,0-1,.917.994.994,0,0,0,.864.91Zm6.416,6.574a.924.924,0,0,0,.931-.841c.04-.365-.285-.982-.776-.983l-11.705,0a.906.906,0,0,0-.876.986.958.958,0,0,0,.9.84Zm.073,6.59a.979.979,0,0,0,.862-.994,1.013,1.013,0,0,0-.8-.867l-11.677,0a.914.914,0,0,0-.884.974.949.949,0,0,0,.885.877Zm.016,6.562a.93.93,0,0,0-.09-1.856l-11.525,0a.928.928,0,0,0-.022,1.855Zm-.059,6.564a.963.963,0,0,0,.9-.805c.062-.312-.185-.984-.651-.984l-11.7-.014a.922.922,0,0,0-1.008.906.964.964,0,0,0,.874.895Z" transform="translate(-141.94 -0.152)" fill="#1e535a"/>
        <path id="Trazado_1279892" data-name="Trazado 1279892" d="M268.467,9.177A.94.94,0,0,1,267.4,8.2l.024-7.836,8.731,8.762Z" transform="translate(-232.184 -0.315)" fill="#1e535a"/>
      </g>
    </g>
  </g>
</svg>
