<svg xmlns="http://www.w3.org/2000/svg" xmlns:xlink="http://www.w3.org/1999/xlink" width="130" height="130" viewBox="0 0 130 130">
  <defs>
    <clipPath id="clip-path">
      <rect id="Rectángulo_454829" data-name="Rectángulo 454829" width="130" height="130" fill="#1e535a"/>
    </clipPath>
    <clipPath id="clip-path-2">
      <rect id="Rectángulo_463097" data-name="Rectángulo 463097" width="40.595" height="52.637" fill="#1e535a"/>
    </clipPath>
  </defs>
  <g id="Grupo_1212512" data-name="Grupo 1212512" transform="translate(-186 -4323.945)">
    <g id="Grupo_1177591" data-name="Grupo 1177591" transform="translate(186 4323.945)">
      <g id="Grupo_1177589" data-name="Grupo 1177589" transform="translate(0 0)">
        <g id="Grupo_1177587" data-name="Grupo 1177587" clip-path="url(#clip-path)">
          <path id="Trazado_997422" data-name="Trazado 997422" d="M124.692,57.54a59.768,59.768,0,0,0-13.5-31.1,6.874,6.874,0,0,0-9.672-9.26,59.68,59.68,0,0,0-30.9-12.073,6.875,6.875,0,0,0-13.353.271A59.762,59.762,0,0,0,27.622,18.05a6.877,6.877,0,0,0-9.545,9.61A59.712,59.712,0,0,0,5.568,57.481,6.88,6.88,0,0,0,5.4,70.954,59.7,59.7,0,0,0,17.522,101.38a6.876,6.876,0,0,0,9.342,9.709,59.757,59.757,0,0,0,30.35,13.274,6.877,6.877,0,0,0,13.473.271,59.706,59.706,0,0,0,31.125-12.3,6.875,6.875,0,0,0,9.624-9.308,59.783,59.783,0,0,0,13.418-32.141,6.877,6.877,0,0,0-.161-13.35M105.274,29.825a6.838,6.838,0,0,0,3.808-1.153,56.758,56.758,0,0,1,12.526,28.85,6.887,6.887,0,0,0-4.395,3.184L99.637,54.116c.014-.192.027-.388.027-.587a6.877,6.877,0,0,0-2.913-5.62L104.44,29.77a7.449,7.449,0,0,0,.834.055m-3.716-1.094L93.917,46.749a6.806,6.806,0,0,0-7.575,4.374L54.544,43.8A6.691,6.691,0,0,0,54.4,42.43L99.523,26.716a6.9,6.9,0,0,0,2.035,2.014M63.979,13.765a6.883,6.883,0,0,0,6.755-5.582A56.663,56.663,0,0,1,99.386,19.388a6.844,6.844,0,0,0-.995,3.554,7.226,7.226,0,0,0,.065.909L53.107,39.641A6.9,6.9,0,0,0,51.861,38.4L63.756,13.754c.075,0,.148.01.223.01M57.286,8.454a6.884,6.884,0,0,0,3.462,4.5L49.086,37.109a6.9,6.9,0,0,0-1.42-.148,6.832,6.832,0,0,0-3.922,1.232L29.921,26.648a6.842,6.842,0,0,0-.233-6.333,56.709,56.709,0,0,1,27.6-11.861M13.6,62.741l28.59-14.746a6.857,6.857,0,0,0,5.424,2.728l9.8,31.321a7,7,0,0,0-1.516,1.678L13.511,66.062a6.836,6.836,0,0,0,.254-1.825,6.916,6.916,0,0,0-.168-1.5m6.752-33.029a6.877,6.877,0,0,0,7.682-.655l13.648,11.4a6.863,6.863,0,0,0-.758,4.755L12.283,59.976a6.88,6.88,0,0,0-3.644-2.388,56.684,56.684,0,0,1,11.71-27.876M23.2,98.391a6.862,6.862,0,0,0-3.417.913,56.633,56.633,0,0,1-11.3-28.38,6.888,6.888,0,0,0,3.572-2.155L54.857,86.6a7.38,7.38,0,0,0-.055.827,6.881,6.881,0,0,0,.412,2.326l-25.886,12.4A6.881,6.881,0,0,0,23.2,98.391M57.347,121.3A56.765,56.765,0,0,1,29.029,108.91a6.81,6.81,0,0,0,1.05-3.637l0-.079,26.8-12.845a6.882,6.882,0,0,0,2.429,1.534l1.606,23.08a6.882,6.882,0,0,0-3.565,4.337M60.2,80.715,50.609,50.057a6.892,6.892,0,0,0,3.27-3.27l32.055,7.38A6.842,6.842,0,0,0,87.028,57.3L65.043,81.426a6.8,6.8,0,0,0-4.844-.71M70.68,121.567a6.88,6.88,0,0,0-6.7-5.332l-.051,0L62.4,94.278a6.87,6.87,0,0,0,4.206-2.041l32.048,14.135c0,.062-.01.117-.01.178a6.848,6.848,0,0,0,1.019,3.589A56.66,56.66,0,0,1,70.68,121.567m28.747-18.2L68.213,89.6a6.842,6.842,0,0,0-.9-6.121l21.92-24.061a6.841,6.841,0,0,0,3.551.995,7.576,7.576,0,0,0,.844-.055l8.193,40.4a6.867,6.867,0,0,0-2.391,2.611M109.3,100.8a6.84,6.84,0,0,0-4.573-1.081L96.532,59.3A6.91,6.91,0,0,0,98.7,57.032l17.566,6.587a6.1,6.1,0,0,0-.031.618,6.88,6.88,0,0,0,5.531,6.745A56.707,56.707,0,0,1,109.3,100.8" transform="translate(0 0.001)" fill="#1e535a"/>
        </g>
      </g>
    </g>
    <g id="Elipse_13614" data-name="Elipse 13614" transform="translate(210.059 4348.488)" fill="#fff" stroke="#1e535a" stroke-width="3">
      <ellipse cx="40.732" cy="40.733" rx="40.732" ry="40.733" stroke="none"/>
      <ellipse cx="40.732" cy="40.733" rx="39.232" ry="39.233" fill="none"/>
    </g>
    <g id="Grupo_1213357" data-name="Grupo 1213357" transform="translate(231.059 4362.488)">
      <g id="Grupo_1213356" data-name="Grupo 1213356" clip-path="url(#clip-path-2)">
        <path id="Trazado_1279941" data-name="Trazado 1279941" d="M28.276,52.625,2.97,52.637c-1.491,0-2.96-.908-2.961-2.314L0,11.954l10.721,0a2.54,2.54,0,0,0,2.8-2.492L13.528,0l24.4.014A2.553,2.553,0,0,1,40.6,2.587l0,47.588a2.668,2.668,0,0,1-2.944,2.458Zm-7.9-21.442c8.31-3.526,9.585-8.235,9.352-15.8-.02-.64-.711-.974-1.339-1.01C23.009,14.06,21,11.941,20.3,11.951c-.742.01-2.789,2.138-8.092,2.423-.632.034-1.338.356-1.36,1.009-.258,7.57,1.141,12.529,9.532,15.8m10.978,4.675a1.225,1.225,0,0,0,1.1-1.324,1.32,1.32,0,0,0-1.3-1.068l-21.712,0a1.248,1.248,0,0,0-1.3,1.351c.1.648.658,1.041,1.494,1.041ZM17.677,40.681c.852-.153,1.336-.76,1.244-1.378a1.4,1.4,0,0,0-1.5-1.07l-7.815,0a1.321,1.321,0,0,0-1.471,1.218,1.339,1.339,0,0,0,1.474,1.221Zm11.586,2.371,2.1-.039a1.138,1.138,0,0,0,1.093-1.378,1.39,1.39,0,0,0-1.478-.97l-2.888.049c-.311.005-.789.507-1.049.743l-1.558-2.65a1.476,1.476,0,0,0-1.853-.358,6.526,6.526,0,0,0-3.325,5.688,1.37,1.37,0,0,0,2.713.173,5.884,5.884,0,0,1,.914-2.957L25.8,44.646a1.673,1.673,0,0,0,1.212.789,1.609,1.609,0,0,0,1.285-.692ZM16.18,45.429a1.257,1.257,0,0,0,1.4-1.21,1.236,1.236,0,0,0-1.315-1.179H9.454a1.229,1.229,0,0,0-1.318,1.324,1.367,1.367,0,0,0,1.481,1.074Z" fill="#1e535a"/>
        <path id="Trazado_1279942" data-name="Trazado 1279942" d="M14.892,13.5l-10.046.007,10-8.831Z" transform="translate(-4.05 -3.906)" fill="#1e535a"/>
        <path id="Trazado_1279943" data-name="Trazado 1279943" d="M89.1,103.25a26.072,26.072,0,0,1-2.83-1.642,9.237,9.237,0,0,1-3.509-4.975,24.3,24.3,0,0,1-.518-5.289A20.069,20.069,0,0,0,89,89.35a20.921,20.921,0,0,0,6.8,1.99,24.583,24.583,0,0,1-.518,5.291,9.346,9.346,0,0,1-3.5,4.984Zm-3.9-6.4,2.948,2.619a1.453,1.453,0,0,0,2.032-.277l2.787-4.926a1.15,1.15,0,0,0-.657-1.539,1.432,1.432,0,0,0-1.773.53l-1.881,3.3-1.664-1.391a1.484,1.484,0,0,0-1.643.2c-.353.31-.559,1.121-.15,1.484" transform="translate(-68.723 -74.666)" fill="#1e535a"/>
      </g>
    </g>
  </g>
</svg>
