<svg id="Grupo_1210200" data-name="Grupo 1210200" xmlns="http://www.w3.org/2000/svg" xmlns:xlink="http://www.w3.org/1999/xlink" width="128" height="128" viewBox="0 0 128 128">
  <defs>
    <clipPath id="clip-path">
      <rect id="Rectángulo_454829" data-name="Rectángulo 454829" width="128" height="128" fill="#1e535a"/>
    </clipPath>
    <clipPath id="clip-path-2">
      <rect id="Rectángulo_463088" data-name="Rectángulo 463088" width="31.359" height="45" fill="#1e535a"/>
    </clipPath>
  </defs>
  <g id="Grupo_1177591" data-name="Grupo 1177591">
    <g id="Grupo_1177589" data-name="Grupo 1177589" transform="translate(0 0)">
      <g id="Grupo_1177587" data-name="Grupo 1177587" clip-path="url(#clip-path)">
        <path id="Trazado_997422" data-name="Trazado 997422" d="M122.774,56.654a58.848,58.848,0,0,0-13.293-30.623,6.768,6.768,0,0,0-9.523-9.118A58.761,58.761,0,0,0,69.535,5.027a6.769,6.769,0,0,0-13.148.267A58.842,58.842,0,0,0,27.2,17.772a6.771,6.771,0,0,0-9.4,9.462A58.794,58.794,0,0,0,5.483,56.6a6.774,6.774,0,0,0-.162,13.266A58.776,58.776,0,0,0,17.252,99.82a6.771,6.771,0,0,0,9.2,9.56,58.838,58.838,0,0,0,29.883,13.07,6.771,6.771,0,0,0,13.266.267,58.788,58.788,0,0,0,30.646-12.107,6.769,6.769,0,0,0,9.476-9.165A58.863,58.863,0,0,0,122.933,69.8a6.771,6.771,0,0,0-.159-13.144m-19.12-27.288a6.733,6.733,0,0,0,3.75-1.135,55.884,55.884,0,0,1,12.333,28.407,6.781,6.781,0,0,0-4.327,3.135L98.1,53.283c.013-.189.027-.382.027-.578a6.772,6.772,0,0,0-2.868-5.533l7.57-17.86a7.335,7.335,0,0,0,.821.054M100,28.288,92.472,46.03a6.7,6.7,0,0,0-7.459,4.307L53.705,43.125a6.588,6.588,0,0,0-.142-1.348L97.992,26.305a6.793,6.793,0,0,0,2,1.983M63,13.553a6.777,6.777,0,0,0,6.651-5.5A55.792,55.792,0,0,1,97.857,19.09a6.739,6.739,0,0,0-.98,3.5,7.114,7.114,0,0,0,.064.9L52.29,39.031A6.8,6.8,0,0,0,51.064,37.8L62.775,13.543c.074,0,.145.01.22.01M56.4,8.324a6.778,6.778,0,0,0,3.409,4.435L48.331,36.538a6.8,6.8,0,0,0-1.4-.145,6.727,6.727,0,0,0-3.861,1.213L29.461,26.238A6.736,6.736,0,0,0,29.231,20,55.836,55.836,0,0,1,56.4,8.324M13.387,61.776l28.15-14.519a6.751,6.751,0,0,0,5.341,2.686l9.648,30.839a6.887,6.887,0,0,0-1.493,1.652L13.3,65.046a6.731,6.731,0,0,0,.25-1.8,6.81,6.81,0,0,0-.166-1.473m6.648-32.521a6.771,6.771,0,0,0,7.564-.645L41.037,39.831a6.758,6.758,0,0,0-.747,4.682l-28.2,14.539A6.774,6.774,0,0,0,8.506,56.7,55.812,55.812,0,0,1,20.036,29.254m2.8,67.623a6.756,6.756,0,0,0-3.365.9A55.762,55.762,0,0,1,8.351,69.832a6.783,6.783,0,0,0,3.517-2.121L54.013,85.27a7.266,7.266,0,0,0-.054.814,6.775,6.775,0,0,0,.405,2.29L28.876,100.587a6.775,6.775,0,0,0-6.037-3.709m33.626,22.556a55.892,55.892,0,0,1-27.883-12.2,6.705,6.705,0,0,0,1.034-3.581l0-.078L56,90.929a6.776,6.776,0,0,0,2.392,1.51l1.581,22.725a6.776,6.776,0,0,0-3.51,4.27m2.807-39.96L49.831,49.287a6.786,6.786,0,0,0,3.219-3.219l31.562,7.266a6.736,6.736,0,0,0,1.078,3.081L64.042,80.173a6.692,6.692,0,0,0-4.77-.7M69.592,119.7a6.774,6.774,0,0,0-6.6-5.25l-.051,0-1.5-21.623a6.764,6.764,0,0,0,4.142-2.01l31.555,13.918c0,.061-.01.115-.01.176a6.743,6.743,0,0,0,1,3.534A55.789,55.789,0,0,1,69.592,119.7M97.9,101.779,67.164,88.22a6.736,6.736,0,0,0-.888-6.027L87.858,58.5a6.736,6.736,0,0,0,3.5.98,7.46,7.46,0,0,0,.831-.054l8.067,39.781a6.761,6.761,0,0,0-2.355,2.571m9.722-2.534a6.735,6.735,0,0,0-4.5-1.064l-8.07-39.8a6.8,6.8,0,0,0,2.135-2.23l17.3,6.486a6.009,6.009,0,0,0-.03.608,6.774,6.774,0,0,0,5.445,6.641A55.835,55.835,0,0,1,107.62,99.246" transform="translate(0 0.001)" fill="#1e535a"/>
      </g>
    </g>
  </g>
  <g id="Elipse_13614" data-name="Elipse 13614" transform="translate(23.745 24.773)" fill="#fff" stroke="#1e535a" stroke-width="3">
    <ellipse cx="39.732" cy="39.733" rx="39.732" ry="39.733" stroke="none"/>
    <ellipse cx="39.732" cy="39.733" rx="38.232" ry="38.233" fill="none"/>
  </g>
  <g id="Grupo_1213340" data-name="Grupo 1213340" transform="translate(47.745 41.774)">
    <g id="Grupo_1213339" data-name="Grupo 1213339" clip-path="url(#clip-path-2)">
      <path id="Trazado_1279893" data-name="Trazado 1279893" d="M49.474,144.763l-20.222,0a2.052,2.052,0,0,1-1.96-1.812l-.01-14.561a2.027,2.027,0,0,1,1.96-1.893l2.3-.033.022-4.519a7.682,7.682,0,0,1,7.83-7.411,7.761,7.761,0,0,1,7.829,7.41l.019,4.515,2.406.054a1.982,1.982,0,0,1,1.854,1.878l-.011,14.557a2.043,2.043,0,0,1-2.015,1.817m-5.814-18.3-.007-4.659a4.244,4.244,0,0,0-4.272-3.756,4.152,4.152,0,0,0-4.211,3.761c-.1,1.557-.031,3.065-.045,4.659Zm-3.554,12.569.028-3.5a2.224,2.224,0,0,0,1.371-2.405,2.15,2.15,0,0,0-4.177-.179,2.114,2.114,0,0,0,1.055,2.425.984.984,0,0,1,.294.6l-.007,3.113a.787.787,0,0,0,.716.756.77.77,0,0,0,.721-.813" transform="translate(-23.711 -99.763)" fill="#1e535a"/>
      <path id="Trazado_1279894" data-name="Trazado 1279894" d="M27.868,6.41A26.376,26.376,0,0,0,3.505,6.4l0,10.214A16.544,16.544,0,0,0,5.132,23.6a.684.684,0,0,1-.518,1.029c-1.17.21-1.536.831-2,.855a.938.938,0,0,1-.6-.363,19.725,19.725,0,0,1-2-8.489L0,5.538A1.743,1.743,0,0,1,.657,4.1a29.589,29.589,0,0,1,29.968-.05,1.727,1.727,0,0,1,.734,1.49V16.627a20.412,20.412,0,0,1-2.011,8.481c-.792.937-1.142-.254-2.5-.454a.742.742,0,0,1-.7-.882,16.95,16.95,0,0,0,1.714-7.288Z" transform="translate(0 0)" fill="#1e535a"/>
      <path id="Trazado_1279895" data-name="Trazado 1279895" d="M63.984,58.416a2.123,2.123,0,0,1-4.2,0,10.217,10.217,0,0,1,.01-2.047,2.125,2.125,0,0,1,4.178.009,11.377,11.377,0,0,1,.015,2.041m-1.429,0L62.6,56.7a.786.786,0,0,0-.74-.7c-.248.007-.68.365-.684.605l-.023,1.438a.859.859,0,0,0,.566.778c.248.068.831-.17.837-.411" transform="translate(-51.915 -47.589)" fill="#1e535a"/>
      <path id="Trazado_1279896" data-name="Trazado 1279896" d="M151.338,58.3a2.126,2.126,0,0,1-4.221.127,11.537,11.537,0,0,1,.013-2.042,2.125,2.125,0,0,1,4.178-.009,11.755,11.755,0,0,1,.03,1.924m-1.384-.272-.029-1.4c0-.241-.427-.589-.67-.611-.882-.079-.806,1.122-.695,2.417.027.319.649.483.935.373a.97.97,0,0,0,.459-.777" transform="translate(-127.825 -47.595)" fill="#1e535a"/>
      <path id="Trazado_1279897" data-name="Trazado 1279897" d="M104.722,59.5c0,.343-.462.593-.716.582-.281-.011-.714-.312-.714-.649l0-4.274a.77.77,0,0,1,.718-.7.727.727,0,0,1,.723.7Z" transform="translate(-89.768 -47.435)" fill="#1e535a"/>
      <path id="Trazado_1279898" data-name="Trazado 1279898" d="M126.7,59.277a.818.818,0,0,1-.609.821c-.278.059-.823-.174-.825-.521l-.016-4.389a.725.725,0,0,1,.725-.7.756.756,0,0,1,.714.7Z" transform="translate(-108.855 -47.463)" fill="#1e535a"/>
      <path id="Trazado_1279899" data-name="Trazado 1279899" d="M39.521,59.359a.782.782,0,0,1-.567.769c-.293.062-.854-.157-.855-.5l0-4.552c0-.315.462-.573.741-.551a.784.784,0,0,1,.68.708Z" transform="translate(-33.107 -47.496)" fill="#1e535a"/>
      <path id="Trazado_1279900" data-name="Trazado 1279900" d="M192.017,59.518c0,.352-.473.576-.744.563a.749.749,0,0,1-.68-.664l.008-4.352c0-.279.443-.59.68-.606.266-.018.734.251.734.559Z" transform="translate(-165.643 -47.436)" fill="#1e535a"/>
    </g>
  </g>
</svg>
