<svg id="Grupo_1210279" data-name="Grupo 1210279" xmlns="http://www.w3.org/2000/svg" xmlns:xlink="http://www.w3.org/1999/xlink" width="128" height="128" viewBox="0 0 128 128">
  <defs>
    <clipPath id="clip-path">
      <rect id="Rectángulo_454829" data-name="Rectángulo 454829" width="128" height="128" fill="#1e535a"/>
    </clipPath>
    <clipPath id="clip-path-2">
      <rect id="Rectángulo_463086" data-name="Rectángulo 463086" width="44" height="50.534" fill="#1e535a"/>
    </clipPath>
  </defs>
  <g id="Grupo_1177591" data-name="Grupo 1177591">
    <g id="Grupo_1177589" data-name="Grupo 1177589" transform="translate(0 0)">
      <g id="Grupo_1177587" data-name="Grupo 1177587" clip-path="url(#clip-path)">
        <path id="Trazado_997422" data-name="Trazado 997422" d="M122.774,56.654a58.848,58.848,0,0,0-13.293-30.623,6.768,6.768,0,0,0-9.523-9.118A58.761,58.761,0,0,0,69.535,5.027a6.769,6.769,0,0,0-13.148.267A58.842,58.842,0,0,0,27.2,17.772a6.771,6.771,0,0,0-9.4,9.462A58.794,58.794,0,0,0,5.483,56.6a6.774,6.774,0,0,0-.162,13.266A58.776,58.776,0,0,0,17.252,99.82a6.771,6.771,0,0,0,9.2,9.56,58.838,58.838,0,0,0,29.883,13.07,6.771,6.771,0,0,0,13.266.267,58.788,58.788,0,0,0,30.646-12.107,6.769,6.769,0,0,0,9.476-9.165A58.863,58.863,0,0,0,122.933,69.8a6.771,6.771,0,0,0-.159-13.144m-19.12-27.288a6.733,6.733,0,0,0,3.75-1.135,55.884,55.884,0,0,1,12.333,28.407,6.781,6.781,0,0,0-4.327,3.135L98.1,53.283c.013-.189.027-.382.027-.578a6.772,6.772,0,0,0-2.868-5.533l7.57-17.86a7.335,7.335,0,0,0,.821.054M100,28.288,92.472,46.03a6.7,6.7,0,0,0-7.459,4.307L53.705,43.125a6.588,6.588,0,0,0-.142-1.348L97.992,26.305a6.793,6.793,0,0,0,2,1.983M63,13.553a6.777,6.777,0,0,0,6.651-5.5A55.792,55.792,0,0,1,97.857,19.09a6.739,6.739,0,0,0-.98,3.5,7.114,7.114,0,0,0,.064.9L52.29,39.031A6.8,6.8,0,0,0,51.064,37.8L62.775,13.543c.074,0,.145.01.22.01M56.4,8.324a6.778,6.778,0,0,0,3.409,4.435L48.331,36.538a6.8,6.8,0,0,0-1.4-.145,6.727,6.727,0,0,0-3.861,1.213L29.461,26.238A6.736,6.736,0,0,0,29.231,20,55.836,55.836,0,0,1,56.4,8.324M13.387,61.776l28.15-14.519a6.751,6.751,0,0,0,5.341,2.686l9.648,30.839a6.887,6.887,0,0,0-1.493,1.652L13.3,65.046a6.731,6.731,0,0,0,.25-1.8,6.81,6.81,0,0,0-.166-1.473m6.648-32.521a6.771,6.771,0,0,0,7.564-.645L41.037,39.831a6.758,6.758,0,0,0-.747,4.682l-28.2,14.539A6.774,6.774,0,0,0,8.506,56.7,55.812,55.812,0,0,1,20.036,29.254m2.8,67.623a6.756,6.756,0,0,0-3.365.9A55.762,55.762,0,0,1,8.351,69.832a6.783,6.783,0,0,0,3.517-2.121L54.013,85.27a7.266,7.266,0,0,0-.054.814,6.775,6.775,0,0,0,.405,2.29L28.876,100.587a6.775,6.775,0,0,0-6.037-3.709m33.626,22.556a55.892,55.892,0,0,1-27.883-12.2,6.705,6.705,0,0,0,1.034-3.581l0-.078L56,90.929a6.776,6.776,0,0,0,2.392,1.51l1.581,22.725a6.776,6.776,0,0,0-3.51,4.27m2.807-39.96L49.831,49.287a6.786,6.786,0,0,0,3.219-3.219l31.562,7.266a6.736,6.736,0,0,0,1.078,3.081L64.042,80.173a6.692,6.692,0,0,0-4.77-.7M69.592,119.7a6.774,6.774,0,0,0-6.6-5.25l-.051,0-1.5-21.623a6.764,6.764,0,0,0,4.142-2.01l31.555,13.918c0,.061-.01.115-.01.176a6.743,6.743,0,0,0,1,3.534A55.789,55.789,0,0,1,69.592,119.7M97.9,101.779,67.164,88.22a6.736,6.736,0,0,0-.888-6.027L87.858,58.5a6.736,6.736,0,0,0,3.5.98,7.46,7.46,0,0,0,.831-.054l8.067,39.781a6.761,6.761,0,0,0-2.355,2.571m9.722-2.534a6.735,6.735,0,0,0-4.5-1.064l-8.07-39.8a6.8,6.8,0,0,0,2.135-2.23l17.3,6.486a6.009,6.009,0,0,0-.03.608,6.774,6.774,0,0,0,5.445,6.641A55.835,55.835,0,0,1,107.62,99.246" transform="translate(0 0.001)" fill="#1e535a"/>
      </g>
    </g>
  </g>
  <g id="Elipse_13614" data-name="Elipse 13614" transform="translate(24.079 24.773)" fill="#fff" stroke="#1e535a" stroke-width="3">
    <ellipse cx="39.732" cy="39.733" rx="39.732" ry="39.733" stroke="none"/>
    <ellipse cx="39.732" cy="39.733" rx="38.232" ry="38.233" fill="none"/>
  </g>
  <g id="Grupo_1213336" data-name="Grupo 1213336" transform="translate(42.079 38.773)">
    <g id="Grupo_1213335" data-name="Grupo 1213335" clip-path="url(#clip-path-2)">
      <path id="Trazado_1279882" data-name="Trazado 1279882" d="M80.94,12.854c-1.224,5.959-5.793,9.6-11.532,11.325C63.72,22.56,59.01,18.829,57.8,12.855a18.65,18.65,0,0,1,.567-9.311c.374-1.213,2.224-.244,5.371-1.191A22.1,22.1,0,0,0,68.524.276a1.431,1.431,0,0,1,1.688,0,16.784,16.784,0,0,0,9.133,2.579,1.08,1.08,0,0,1,1.075.829,18.693,18.693,0,0,1,.52,9.172M74.434,8.6a3.489,3.489,0,0,0-4.984-.024,3.772,3.772,0,0,0-3.331-.937,3.244,3.244,0,0,0-2.3,1.888c-1.121,3.094,2.518,7.421,5.631,7.924,3.591-.637,7.59-6.126,4.985-8.851" transform="translate(-47.295 0)" fill="#1e535a"/>
      <path id="Trazado_1279883" data-name="Trazado 1279883" d="M58.457,163.052a2.1,2.1,0,0,1-.827,2.222c-1.756,1.042-5.7-.5-8.089-1.449a1.025,1.025,0,0,0-1.311.426,1.07,1.07,0,0,0,.46,1.312l4.464,1.575c-.551,2.324-4.133,1.33-6.525.476a3.349,3.349,0,0,0,.012-3.56,4.133,4.133,0,0,0-2.978-1.705,3.623,3.623,0,0,0-4.159-2.966,3.525,3.525,0,0,0-1.678-2.523,3.4,3.4,0,0,0-3.236-.15l-1.412.705a26.493,26.493,0,0,1-3.277-4.856l6.84-9.181a21.732,21.732,0,0,0,5.86.816,37.7,37.7,0,0,1-5.072,2.21,2.306,2.306,0,0,0-1.351,1.236,2.451,2.451,0,0,0,.207,1.946,4.135,4.135,0,0,0,4.542,2.286,14.234,14.234,0,0,0,2.372-.754,9.045,9.045,0,0,1,8.93,1.206l4.3,3.27a8.765,8.765,0,0,0,5.558,1.852,2.553,2.553,0,0,1,.919,1.957,2.045,2.045,0,0,1-1.171,1.745c-2.119.643-5.466-.661-7.823-1.626a1.091,1.091,0,0,0-1.216.3c-.252.357-.181,1.178.256,1.374a34.076,34.076,0,0,0,5.405,1.857" transform="translate(-24.618 -118.042)" fill="#1e535a"/>
      <path id="Trazado_1279884" data-name="Trazado 1279884" d="M91.006,150.83a10.811,10.811,0,0,0-10.2-1.721l-2.353.8a2.272,2.272,0,0,1-2.928-1.6,42.5,42.5,0,0,0,5.918-2.645,12.19,12.19,0,0,1,6.432-1.529,19.562,19.562,0,0,0,6.323-.768l6.813,9.134a11.986,11.986,0,0,0-1.854,2.972,6.346,6.346,0,0,1-3.777-1.34Z" transform="translate(-62.178 -118.033)" fill="#1e535a"/>
      <path id="Trazado_1279885" data-name="Trazado 1279885" d="M72.451,248.73c-1.22.321-2.569-1.211-2.02-2.315.475-.956,3.168-2.506,4.211-1.129a1.537,1.537,0,0,1,.106,1.764,4.3,4.3,0,0,1-2.3,1.68" transform="translate(-57.88 -201.489)" fill="#1e535a"/>
      <path id="Trazado_1279886" data-name="Trazado 1279886" d="M50.225,231.765a1.907,1.907,0,0,1-2.134-2.223c1.229-1.034,2.728-2.02,3.743-1.357a1.563,1.563,0,0,1,.665,1.621,6.827,6.827,0,0,0-2.275,1.96" transform="translate(-39.579 -187.683)" fill="#1e535a"/>
      <path id="Trazado_1279887" data-name="Trazado 1279887" d="M94.325,265.7a1.873,1.873,0,0,1-1.608,0,2.727,2.727,0,0,1-.941-1.228,19.958,19.958,0,0,0,2.506-2.295c.4-.428,1.341.106,1.616.508a1.542,1.542,0,0,1-.244,1.983Z" transform="translate(-75.556 -215.716)" fill="#1e535a"/>
      <path id="Trazado_1279888" data-name="Trazado 1279888" d="M192.794,128.552l-5.35-7.478a2.383,2.383,0,0,1,.552-3.325l.837-.6a2.383,2.383,0,0,1,3.325.552l5.35,7.478a2.383,2.383,0,0,1-.552,3.325l-.837.6a2.383,2.383,0,0,1-3.325-.552" transform="translate(-153.953 -96.081)" fill="#1e535a"/>
      <path id="Trazado_1279889" data-name="Trazado 1279889" d="M5.158,128.552l5.35-7.478a2.383,2.383,0,0,0-.552-3.325l-.837-.6a2.383,2.383,0,0,0-3.325.552L.445,125.18A2.383,2.383,0,0,0,1,128.505l.837.6a2.383,2.383,0,0,0,3.325-.552" transform="translate(0 -96.081)" fill="#1e535a"/>
    </g>
  </g>
</svg>
