<svg xmlns="http://www.w3.org/2000/svg" xmlns:xlink="http://www.w3.org/1999/xlink" width="396" height="263" viewBox="0 0 396 263">
  <defs>
    <clipPath id="clip-path">
      <rect id="Rectángulo_462565" data-name="Rectángulo 462565" width="383.675" height="243.762" fill="none"/>
    </clipPath>
  </defs>
  <g id="Grupo_1213446" data-name="Grupo 1213446" transform="translate(4457 3166.342)">
    <rect id="Rectángulo_461508" data-name="Rectángulo 461508" width="396" height="263" transform="translate(-4457 -3166.342)" fill="#d5f4f8"/>
    <g id="Grupo_1212941" data-name="Grupo 1212941" transform="translate(-4449 -3154.762)">
      <g id="Grupo_1212940" data-name="Grupo 1212940" transform="translate(0 0)" clip-path="url(#clip-path)">
        <path id="Trazado_1278875" data-name="Trazado 1278875" d="M233.944,199.622c11.329-1.533,22.8-5.751,31.078-15.367,4.409-5.121,5.613-9.373,7.048-16.038,1.63-7.569,7.128-13.065,10.814-19.352a82.055,82.055,0,0,0,10.072-28.32c1.378-8.135.826-16.376.05-24.549-.633-6.651-.1-14.5-1.186-20.882C289.794,63.247,277.285,52.63,268.412,48.5c-4.964-2.313-9.972-1.886-14.921-3.4-5.222-1.6-11.208-5.3-15.648-8.878C226.905,27.41,217.588,16.347,205.5,9.452,194.07,2.94,181,.893,168.466,2.243A62,62,0,0,0,139.549,12.9c-5.359,3.772-9.6,9.53-15,13.238-4.89,3.355-10.922,3.835-16.377,5.144-3.524.847-7.063,1.556-10.609,2.242-8.168,1.586-16.38,3.074-24.546,5.908-14.145,4.915-24.685,13.639-33.5,27.574C31.3,79.983,30.4,92.448,30.588,107.853c.087,6.958-4.027,13.725-6.293,20.29a92.713,92.713,0,0,0-5.21,24c-1.121,16.529,1.2,31.368,12.121,42.713,10.724,11.146,22.369,5,35.272,5.084,12.847.086,22.754,8.5,34.071,14.419,15.809,8.267,32.2,12.413,49.631,10.921,7.7-.66,14.921-1.908,21.823-6.148,5.545-3.408,10.183-8.372,15.921-11.386,14.806-7.779,30.342-6,46.021-8.12" transform="translate(39.631 6.063)" fill="#f0f7fd"/>
        <path id="Trazado_1278876" data-name="Trazado 1278876" d="M383.509,165.83H149.3c-49.48,0-99.947.6-149-.03-.354-4.722-.575-11.517,1.637-16.06,3.657-7.505,10.314-13.358,16.285-19.228,11.053-10.858,22.918-13.251,38.92-12.887-10.224-10.866-1.479-30.54,6.732-39.878,10.18-11.573,25.052-16.3,40.035-12.146C106.2,29,146.164,11.4,183.149,14.66c17.388,1.533,32.4,6.713,42.611,20.59,5.955,8.088,7.089,19.541,12.933,26.8,9.652-18.937,40.849-3.922,52.195,5.973,15.866,13.838,15.558,30.214,17.13,48.556,15.443-12.613,31.983-14.514,47.954,2.321a55.133,55.133,0,0,1,13.06,22.944c2.15,7.724.27,14.369,6.713,20.414.926.869.491,1.867,1.942,2.68,3.629,2.038,3.041-1.6,5.822.895" transform="translate(-0.079 46.713)" fill="#d9ebf9"/>
        <path id="Trazado_1278877" data-name="Trazado 1278877" d="M383.43,165.675H191.763q-47.548,0-95.1.145-23.774.09-47.545.111-11.829-.006-23.661-.064-5.793-.032-11.587-.081c-3.94-.034-7.991.188-11.916-.124C1,165.585.683,165.654.618,164.61c-.037-.629-.071-1.258-.093-1.887-.062-1.647-.065-3.295.037-4.938a21.522,21.522,0,0,1,2.617-9.5c3.365-5.977,8.432-10.782,13.331-15.528,4.39-4.249,8.867-8.151,14.521-10.7a49.339,49.339,0,0,1,17.063-3.928c3.055-.21,6.119-.227,9.181-.163a.235.235,0,0,0,.168-.4c-7.724-8.463-4.312-21.21.45-30.246,5.284-10.034,14-18.257,25.2-21.424a39.164,39.164,0,0,1,20.854.068.239.239,0,0,0,.3-.227,47.512,47.512,0,0,1,12.838-29.566c7.544-8.01,17.5-13.525,27.964-16.944a95.881,95.881,0,0,1,34.772-4.407c12.524.676,25.536,3.35,35.816,10.8a41.637,41.637,0,0,1,14.089,17.5c2.729,6.448,4.368,13.564,8.774,19.186a.243.243,0,0,0,.41,0c6.964-13.294,24.3-9.084,35.418-4.095C288,64.346,299.595,74.192,303.991,88.782c2.723,9.032,2.968,18.574,3.76,27.9a.242.242,0,0,0,.4.167c6.02-4.873,13.117-8.994,21.028-9.7,7.7-.689,14.971,2.221,20.938,6.872a54.364,54.364,0,0,1,15.852,20.38,44.737,44.737,0,0,1,3.586,11.553c.506,3.29.605,6.679,1.652,9.862a15.514,15.514,0,0,0,2.561,4.809,29.74,29.74,0,0,1,2.049,2.409,8.083,8.083,0,0,0,1.108,1.789,4.058,4.058,0,0,0,3,1.048c1.5-.223,1.819-1.074,3.334.205.23.193.565-.133.335-.329a2.841,2.841,0,0,0-2.1-.958c-1.313.163-1.726,1.031-3.272.282-1.08-.522-1.425-1.557-2.021-2.473a15.1,15.1,0,0,0-1.472-1.566,15.249,15.249,0,0,1-3.213-5.832c-1.071-3.586-1.071-7.385-1.788-11.039a46.894,46.894,0,0,0-3.878-11.138c-6.424-13.38-19.845-27.525-36.154-26.378-8.243.578-15.62,4.818-21.876,9.88.137.051.27.107.4.163-1.133-13.354-1.31-27.529-8.876-39.206-6.2-9.572-16.25-16.165-26.725-20.508-8.774-3.633-21.137-6.949-29.488-.561a15.39,15.39,0,0,0-2.288,2.152c-.363.424-.708.864-1.028,1.322-.2.282-.857,1.759-1.111,1.8-.587.1-2.2-3.23-2.453-3.714a52.056,52.056,0,0,1-2.512-5.639c-2.611-6.726-4.719-13.461-9.4-19.147C215.421,22.346,202.254,17.1,188.516,15.2a99.2,99.2,0,0,0-39.237,2.289c-11.556,3.119-22.723,8.609-31.236,17.038a48.671,48.671,0,0,0-10.078,14.265,46.57,46.57,0,0,0-2.828,8.065q-.531,2.137-.866,4.313c-.143.933-.047,3.915-.792,4.189-.469.175-2.217-.513-2.692-.608-.714-.137-1.431-.252-2.152-.351a38.937,38.937,0,0,0-5.905-.364A37.882,37.882,0,0,0,82.42,65.613a40.155,40.155,0,0,0-17.967,11.42,49.089,49.089,0,0,0-9.494,15.622c-2.155,5.635-3.44,12.057-1.85,18a17.328,17.328,0,0,0,4,7.244c.053-.133.109-.265.165-.4-10.41-.214-21.05.723-30.184,6.067-4.946,2.892-8.914,6.9-12.968,10.855-4.309,4.206-8.594,8.609-11.5,13.9C-.335,153.7-.2,159.937.233,165.876a.235.235,0,0,0,.236.231c49.383.633,98.769.038,148.152.034q75.234-.013,150.465,0H383.43a.233.233,0,0,0,0-.466" transform="translate(0 46.632)" fill="#a1cdf0"/>
        <path id="Trazado_1278878" data-name="Trazado 1278878" d="M122.1,92.451H58.912c-13.35,0-26.964.222-40.2-.013a17.331,17.331,0,0,1,.441-5.973c.987-2.79,2.782-4.968,4.393-7.15,2.98-4.039,6.181-4.929,10.5-4.8-2.757-4.039-.4-11.36,1.816-14.83,2.748-4.3,6.759-6.063,10.8-4.518C47.286,41.555,58.065,35,68.043,36.22c4.691.569,8.74,2.5,11.5,7.659,1.605,3.008,1.912,7.27,3.487,9.969,2.6-7.047,11.022-1.459,14.083,2.221,4.278,5.147,4.2,11.24,4.62,18.061,4.166-4.689,8.628-5.4,12.937.864a23.326,23.326,0,0,1,3.524,8.536c.581,2.871.071,5.344,1.81,7.59.251.325.133.7.525,1,.981.757.82-.595,1.571.334" transform="translate(39.263 118.286)" fill="#b4d7f3"/>
        <path id="Trazado_1278879" data-name="Trazado 1278879" d="M122.254,92.377H81.75q-20.188,0-40.376.073c-7.5.034-15,.047-22.5-.086l.233.321a15.586,15.586,0,0,1,.484-6.016A20.452,20.452,0,0,1,22.523,81.6a25.183,25.183,0,0,1,3.288-3.971,9.6,9.6,0,0,1,3.6-2.041,14.8,14.8,0,0,1,4.794-.5c.211,0,.3-.351.165-.552-2.03-3.068-1.09-7.744.165-11.013,1.428-3.718,3.772-6.722,6.762-7.851a7.661,7.661,0,0,1,5.464.051c.155.06.286-.1.295-.308A21.077,21.077,0,0,1,50.5,44.536a17.922,17.922,0,0,1,7.532-6.243,19.2,19.2,0,0,1,9.323-1.587,14.561,14.561,0,0,1,9.516,3.979,15.27,15.27,0,0,1,3.7,6.307c.77,2.469,1.22,5.177,2.443,7.329.093.163.3.1.366-.064,1.832-4.818,6.4-3.248,9.292-1.463a17.171,17.171,0,0,1,7.985,11.347,69.019,69.019,0,0,1,.99,10.235c.019.291.239.406.4.227,1.593-1.771,3.474-3.282,5.551-3.538,2.037-.252,3.955.792,5.545,2.494a20.564,20.564,0,0,1,4.3,7.68,21.3,21.3,0,0,1,.922,4.3,23.957,23.957,0,0,0,.469,3.645,6.917,6.917,0,0,0,.683,1.7,7.15,7.15,0,0,1,.6,1.006,2.175,2.175,0,0,0,.258.569,1.065,1.065,0,0,0,.975.454c.354-.086.394-.385.736.013.227.265.559-.184.329-.454-.2-.231-.413-.466-.686-.424s-.4.3-.683.193c-.31-.107-.385-.432-.543-.749a6.752,6.752,0,0,0-.425-.689,6.248,6.248,0,0,1-.882-2.152c-.27-1.267-.283-2.606-.453-3.9a22.2,22.2,0,0,0-1.043-4.27c-1.754-5.134-5.449-10.453-9.892-10.081-2.288.193-4.34,1.806-6.088,3.752.133.077.267.15.4.227a77.9,77.9,0,0,0-.891-9.841,18.6,18.6,0,0,0-3.664-8.284,18.261,18.261,0,0,0-4.424-3.872A10.945,10.945,0,0,0,87.683,50.4c-1.975-.043-3.76,1.061-4.7,3.534l.366-.064c-1.174-2.067-1.605-4.724-2.338-7.1a16.152,16.152,0,0,0-3.164-5.845,14.409,14.409,0,0,0-9.488-4.758A18.858,18.858,0,0,0,50.7,43.347a21.677,21.677,0,0,0-4.111,12.07c.1-.1.2-.21.295-.312-3.362-1.245-6.9-.291-9.618,2.734a19.669,19.669,0,0,0-4.48,10.924A9.762,9.762,0,0,0,34.044,75c.056-.184.109-.368.165-.552-2.847-.081-5.759.282-8.265,2.315A21.811,21.811,0,0,0,22.5,80.73a23.749,23.749,0,0,0-3.151,5.2,15.733,15.733,0,0,0-.708,6.752c.009.175.1.321.233.325,13.331.231,26.663.013,39.994.009h63.385c.3,0,.3-.642,0-.642" transform="translate(39.105 118.035)" fill="#a1cdf0"/>
        <path id="Trazado_1278880" data-name="Trazado 1278880" d="M27.2,31.648a.554.554,0,0,1-.444-.257,9.9,9.9,0,0,1-1.18-2.3,1.032,1.032,0,0,1,.276-1.151c.3-.214.68-.043.835.377a7.828,7.828,0,0,0,.956,1.878A1.1,1.1,0,0,1,27.63,31.4a.545.545,0,0,1-.435.244" transform="translate(53.682 91.302)" fill="#b4d7f3"/>
        <path id="Trazado_1278881" data-name="Trazado 1278881" d="M221.782,118.869a.582.582,0,0,1-.484-.321,1.09,1.09,0,0,1,.1-1.2,32.357,32.357,0,0,0,2.682-3.432.511.511,0,0,1,.879-.034,1.1,1.1,0,0,1,.025,1.211,34.43,34.43,0,0,1-2.807,3.586.525.525,0,0,1-.391.193M25.908,115.908c-.307,0-.577-.317-.618-.753-.1-1.155-.158-2.422-.158-3.77,0-.5.006-1.01.022-1.523.016-.471.3-.843.646-.822s.605.415.6.886c-.012.488-.019.971-.019,1.459,0,1.275.05,2.473.149,3.556a.849.849,0,0,1-.537.958l-.081.009m201.015-4.518a.52.52,0,0,1-.366-.167,1.073,1.073,0,0,1-.133-1.194,45.156,45.156,0,0,0,1.975-4.262c.161-.411.537-.565.838-.334a1.032,1.032,0,0,1,.245,1.16,46.188,46.188,0,0,1-2.055,4.446.6.6,0,0,1-.5.351M26.11,105.609l-.081-.009a.847.847,0,0,1-.531-.963c.127-1.3.289-2.657.487-4.035q.075-.558.158-1.117c.071-.462.407-.757.739-.659a.885.885,0,0,1,.478,1.014c-.053.364-.109.727-.158,1.091-.192,1.344-.351,2.67-.475,3.936-.043.428-.307.74-.618.74m204.405-3.256a.472.472,0,0,1-.233-.06.989.989,0,0,1-.345-1.112c.463-1.6.9-3.218,1.288-4.8.112-.445.466-.685.789-.531a.952.952,0,0,1,.388,1.083c-.4,1.613-.841,3.256-1.313,4.886a.652.652,0,0,1-.574.535M27.653,95.507a.406.406,0,0,1-.171-.034.937.937,0,0,1-.428-1.053c.342-1.652.726-3.325,1.143-4.976.118-.445.472-.68.795-.522a.972.972,0,0,1,.382,1.091c-.416,1.617-.792,3.256-1.121,4.869-.081.381-.326.625-.6.625M232.928,92.58a.479.479,0,0,1-.171-.03.932.932,0,0,1-.428-1.053c.338-1.656.633-3.329.885-4.963.071-.462.4-.757.739-.659a.9.9,0,0,1,.478,1.018c-.261,1.669-.565,3.372-.907,5.062-.078.381-.326.625-.6.625M30.134,85.768A.445.445,0,0,1,29.9,85.7a.986.986,0,0,1-.332-1.121c.484-1.6,1.018-3.192,1.574-4.741.152-.424.525-.6.829-.389a1.025,1.025,0,0,1,.283,1.147c-.543,1.523-1.062,3.085-1.54,4.651a.66.66,0,0,1-.577.522m204.349-3.282-.087-.009a.856.856,0,0,1-.531-.967c.177-1.7.314-3.406.4-5.07.022-.475.323-.83.661-.8s.6.441.574.911c-.087,1.711-.22,3.457-.4,5.2-.043.424-.307.732-.612.732M33.456,76.513a.471.471,0,0,1-.3-.111,1.043,1.043,0,0,1-.233-1.168c.63-1.515,1.3-3.012,1.984-4.446a.527.527,0,0,1,.86-.24,1.058,1.058,0,0,1,.177,1.185c-.671,1.4-1.323,2.867-1.944,4.351a.613.613,0,0,1-.54.428M235,72.192c-.345,0-.621-.377-.624-.847-.012-1.7-.075-3.414-.186-5.083a.825.825,0,0,1,.562-.933c.341-.047.643.3.68.774.112,1.716.174,3.479.186,5.229,0,.471-.273.856-.615.86Zm-197.4-4.283a.529.529,0,0,1-.376-.175,1.083,1.083,0,0,1-.121-1.2c.574-1.031,1.164-2.045,1.767-3.012.211-.342.428-.685.646-1.023a.508.508,0,0,1,.872-.077,1.106,1.106,0,0,1,.056,1.211c-.214.329-.425.663-.63,1-.584.941-1.161,1.93-1.72,2.935a.583.583,0,0,1-.494.338m43.431-.18a.372.372,0,0,1-.1-.013,6.373,6.373,0,0,1-3.636-2.456,1.1,1.1,0,0,1-.028-1.211.51.51,0,0,1,.876-.043,5.28,5.28,0,0,0,2.987,2.024.867.867,0,0,1,.512.984c-.053.419-.317.715-.615.715m3.71-.347a.686.686,0,0,1-.6-.638.915.915,0,0,1,.438-1.044l.124-.047a10.589,10.589,0,0,0,3.126-1.908c.292-.252.674-.128.86.27a1.072,1.072,0,0,1-.2,1.181A11.592,11.592,0,0,1,85.03,67.3l-.134.051a.443.443,0,0,1-.161.03m6.29-5.357a.522.522,0,0,1-.416-.222,1.088,1.088,0,0,1-.043-1.211,18.883,18.883,0,0,0,2.015-4.048c.152-.424.528-.595.832-.385a1.025,1.025,0,0,1,.283,1.147,20.908,20.908,0,0,1-2.214,4.441.552.552,0,0,1-.456.278m143.281-.1c-.3,0-.559-.291-.615-.706-.217-1.664-.491-3.333-.813-4.963a.92.92,0,0,1,.438-1.048c.329-.128.671.145.761.6.332,1.677.618,3.4.838,5.109a.875.875,0,0,1-.5.993.333.333,0,0,1-.109.017M75.67,61.217a.661.661,0,0,1-.574-.539,25.816,25.816,0,0,1-.913-5.233.821.821,0,0,1,.546-.941c.342-.051.646.287.683.757a23.433,23.433,0,0,0,.838,4.779,1,1,0,0,1-.345,1.112.5.5,0,0,1-.236.064M42.549,60.173a.545.545,0,0,1-.444-.252,1.1,1.1,0,0,1,0-1.211c.888-1.207,1.822-2.4,2.776-3.547a.514.514,0,0,1,.879.081,1.1,1.1,0,0,1-.062,1.207c-.935,1.125-1.85,2.293-2.717,3.474a.548.548,0,0,1-.435.248m5.644-6.782a.578.578,0,0,1-.494-.334,1.078,1.078,0,0,1,.115-1.2c.99-1.048,2.021-2.079,3.061-3.055a.527.527,0,0,1,.863.227,1.075,1.075,0,0,1-.161,1.189c-1.028.958-2.037,1.964-3.008,3a.518.518,0,0,1-.376.18m46.061-.518a.29.29,0,0,1-.087-.009.847.847,0,0,1-.531-.963c.062-.625.1-1.254.1-1.87a17.518,17.518,0,0,0-.248-2.948.906.906,0,0,1,.466-1.027c.332-.111.668.175.745.638a20.576,20.576,0,0,1,.171,5.443c-.043.428-.307.736-.612.736m138.052-.89a.658.658,0,0,1-.577-.543c-.438-1.536-.956-3.085-1.537-4.608a1.037,1.037,0,0,1,.258-1.155c.307-.218.68-.056.841.359.6,1.579,1.136,3.183,1.6,4.779a.993.993,0,0,1-.354,1.108.45.45,0,0,1-.227.06m-157.5-.928-.065-.009a.827.827,0,0,1-.553-.941,30.258,30.258,0,0,1,.854-5.22c.112-.449.466-.68.789-.522a.973.973,0,0,1,.379,1.1,28.592,28.592,0,0,0-.789,4.831c-.034.441-.3.766-.615.766M54.387,47.589a.616.616,0,0,1-.537-.419A1.061,1.061,0,0,1,54.064,46c1.08-.89,2.192-1.741,3.306-2.542.3-.218.68-.056.835.364a1.034,1.034,0,0,1-.261,1.155c-1.093.783-2.186,1.622-3.241,2.494a.5.5,0,0,1-.317.12m38.2-4.54a.6.6,0,0,1-.515-.372,11.2,11.2,0,0,0-2.5-3.342A1.061,1.061,0,0,1,89.4,38.15a.53.53,0,0,1,.86-.248,12.775,12.775,0,0,1,2.838,3.8,1.071,1.071,0,0,1-.158,1.189.517.517,0,0,1-.351.154m136.245-.205a.608.608,0,0,1-.522-.385c-.661-1.391-1.388-2.781-2.158-4.133a1.089,1.089,0,0,1,.1-1.2.514.514,0,0,1,.869.145c.8,1.391,1.543,2.82,2.226,4.249a1.069,1.069,0,0,1-.177,1.185.512.512,0,0,1-.341.141m-167.8-.021a.644.644,0,0,1-.565-.5,1.009,1.009,0,0,1,.31-1.13c1.158-.71,2.335-1.378,3.508-1.985.32-.163.674.06.8.5a.977.977,0,0,1-.366,1.1c-1.143.59-2.3,1.245-3.428,1.943a.5.5,0,0,1-.258.073m16.188-1.463a.5.5,0,0,1-.307-.107,1.043,1.043,0,0,1-.233-1.168c.5-1.219,1.059-2.43,1.667-3.611-.934.094-1.909.24-2.9.441-.338.068-.655-.252-.7-.723a.856.856,0,0,1,.522-.971,29.731,29.731,0,0,1,3.791-.518c.342-.026.63.338.646.813l0,.064a1.119,1.119,0,0,1,.062,1.125,41.388,41.388,0,0,0-2.006,4.223.618.618,0,0,1-.54.432M68.048,39.2c-.264,0-.509-.235-.593-.608a.944.944,0,0,1,.413-1.065c.565-.235,1.136-.462,1.7-.667.649-.24,1.307-.466,1.965-.676.335-.1.667.184.745.646a.9.9,0,0,1-.466,1.023c-.646.205-1.292.424-1.922.659-.553.205-1.108.424-1.658.655a.463.463,0,0,1-.183.034m18.467-1.827a.4.4,0,0,1-.174-.034,14.233,14.233,0,0,0-3.567-.864c-.342-.039-.593-.454-.565-.924s.326-.817.671-.783a15.026,15.026,0,0,1,3.806.928.938.938,0,0,1,.422,1.061.685.685,0,0,1-.593.616m137.7-2.653a.569.569,0,0,1-.459-.278c-.82-1.228-1.7-2.452-2.6-3.628a1.106,1.106,0,0,1-.025-1.211.511.511,0,0,1,.879-.034c.928,1.207,1.829,2.456,2.667,3.714a1.106,1.106,0,0,1-.037,1.211.542.542,0,0,1-.419.227M81.684,33.106a.544.544,0,0,1-.425-.235,1.093,1.093,0,0,1-.028-1.207c.844-1.232,1.77-2.456,2.748-3.633a.513.513,0,0,1,.876.081,1.1,1.1,0,0,1-.059,1.211c-.947,1.138-1.841,2.323-2.658,3.513a.559.559,0,0,1-.453.27m137.077-5.472a.526.526,0,0,1-.394-.2c-.944-1.074-1.931-2.127-2.934-3.128a1.079,1.079,0,0,1-.137-1.194.519.519,0,0,1,.866-.193c1.028,1.023,2.03,2.1,2.993,3.192a1.086,1.086,0,0,1,.084,1.207.568.568,0,0,1-.478.312M87.312,26.3a.579.579,0,0,1-.5-.347,1.07,1.07,0,0,1,.13-1.2c.981-1,2.034-1.994,3.126-2.952.289-.252.671-.133.857.265a1.071,1.071,0,0,1-.189,1.181c-1.068.933-2.1,1.9-3.058,2.884a.515.515,0,0,1-.366.167M212.7,21.57a.515.515,0,0,1-.338-.133c-1.04-.916-2.114-1.793-3.189-2.61a1.039,1.039,0,0,1-.245-1.16c.168-.415.543-.565.844-.338,1.1.834,2.2,1.729,3.257,2.661a1.066,1.066,0,0,1,.193,1.181.609.609,0,0,1-.522.4M93.621,20.745a.626.626,0,0,1-.543-.441,1.053,1.053,0,0,1,.245-1.164c1.068-.822,2.195-1.63,3.347-2.409.307-.21.68-.034.832.389a1.012,1.012,0,0,1-.286,1.142c-1.13.77-2.238,1.566-3.294,2.375a.488.488,0,0,1-.3.107M206.137,16.59a.487.487,0,0,1-.264-.081c-.388-.252-.776-.5-1.161-.727-.739-.449-1.493-.894-2.245-1.322a.994.994,0,0,1-.338-1.117c.13-.436.5-.646.813-.466.758.432,1.524.886,2.27,1.339q.591.359,1.189.744a1.015,1.015,0,0,1,.3,1.138.643.643,0,0,1-.562.492m-105.792-.411a.649.649,0,0,1-.568-.513,1,1,0,0,1,.32-1.125c1.121-.68,2.294-1.348,3.487-1.99.317-.171.677.043.8.483a.984.984,0,0,1-.354,1.108c-1.174.633-2.332,1.3-3.44,1.964a.493.493,0,0,1-.248.073m98.871-3.551a.5.5,0,0,1-.217-.051c-1.152-.595-2.335-1.177-3.511-1.724a.959.959,0,0,1-.388-1.087c.109-.445.459-.685.789-.535,1.189.556,2.381,1.142,3.546,1.741a.976.976,0,0,1,.363,1.1.66.66,0,0,1-.581.552m-91.9-.227a.667.667,0,0,1-.584-.569.962.962,0,0,1,.379-1.091c1.158-.565,2.36-1.117,3.573-1.652.326-.141.677.107.779.561a.945.945,0,0,1-.4,1.074c-1.2.526-2.387,1.074-3.536,1.63a.46.46,0,0,1-.208.047m84.8-3.081a.444.444,0,0,1-.18-.039c-1.18-.492-2.387-.967-3.586-1.412a.919.919,0,0,1-.438-1.048c.09-.454.428-.723.761-.6,1.211.449,2.431.928,3.623,1.429a.942.942,0,0,1,.413,1.065.685.685,0,0,1-.593.608m-77.651-.051c-.27,0-.518-.244-.6-.62a.929.929,0,0,1,.425-1.057c1.186-.471,2.409-.928,3.632-1.365.332-.116.671.158.758.616a.916.916,0,0,1-.447,1.04c-1.214.432-2.425.89-3.6,1.352a.406.406,0,0,1-.171.034m7.256-2.584c-.283,0-.537-.27-.6-.663a.9.9,0,0,1,.466-1.027c1.211-.385,2.446-.757,3.676-1.1.338-.09.664.21.733.672a.893.893,0,0,1-.481,1.01c-1.223.338-2.45.7-3.651,1.087a.527.527,0,0,1-.14.021m63.158-.051a.42.42,0,0,1-.143-.026c-1.2-.389-2.425-.766-3.642-1.108a.9.9,0,0,1-.484-1.014c.071-.462.4-.757.736-.663,1.229.351,2.465.727,3.676,1.121a.908.908,0,0,1,.459,1.031c-.065.394-.32.659-.6.659m-55.813-2c-.3,0-.556-.291-.612-.706a.874.874,0,0,1,.506-.993c1.226-.3,2.474-.569,3.713-.822.342-.068.655.252.7.719a.853.853,0,0,1-.522.971c-1.229.252-2.468.526-3.685.817a.446.446,0,0,1-.106.013m48.473-.09a.471.471,0,0,1-.109-.013c-1.214-.3-2.453-.569-3.682-.822a.849.849,0,0,1-.525-.967c.05-.471.369-.792.7-.723,1.242.252,2.49.531,3.716.826a.874.874,0,0,1,.506.993c-.053.415-.317.706-.612.706M136.481,3.129c-.307,0-.577-.317-.615-.753a.838.838,0,0,1,.543-.95c1.239-.205,2.5-.394,3.741-.552.341-.043.643.3.677.77a.825.825,0,0,1-.562.933c-1.229.158-2.478.342-3.707.548l-.078,0m33.648-.086-.075-.009c-1.226-.2-2.478-.381-3.71-.535a.82.82,0,0,1-.562-.928c.031-.471.329-.822.674-.774,1.245.154,2.505.338,3.744.539a.838.838,0,0,1,.543.95c-.037.436-.3.757-.615.757m-26.188-.877c-.323,0-.6-.347-.618-.8C143.3.9,143.56.485,143.9.455c1.248-.116,2.512-.21,3.757-.282.351-.03.633.347.646.817s-.251.873-.593.894c-1.236.068-2.487.163-3.726.278l-.043,0m18.724-.06-.04,0c-1.233-.107-2.487-.193-3.726-.257-.342-.017-.612-.415-.6-.89s.286-.839.643-.822c1.251.064,2.515.154,3.76.261.342.03.6.436.581.911-.022.449-.295.8-.621.8m-11.233-.372c-.342,0-.618-.372-.624-.843s.267-.86.612-.869c1.254-.026,2.505-.03,3.763-.013.342,0,.618.394.615.864s-.279.847-.621.847h-.006q-1.867-.026-3.732.013Z" transform="translate(52.895 0)" fill="#b4d7f3"/>
        <path id="Trazado_1278882" data-name="Trazado 1278882" d="M87.357,30.931a.644.644,0,0,1-.568-.509,1.006,1.006,0,0,1,.317-1.13,17.32,17.32,0,0,0,1.608-1.117c.3-.231.68-.086.848.325a1.045,1.045,0,0,1-.236,1.164,18.05,18.05,0,0,1-1.717,1.194.472.472,0,0,1-.251.073" transform="translate(182.548 92.019)" fill="#b4d7f3"/>
        <path id="Trazado_1278884" data-name="Trazado 1278884" d="M54.208,71.141a9.275,9.275,0,0,1-1.215-.078.553.553,0,0,1-.375-.626c.021-.316.225-.546.454-.517a9.706,9.706,0,0,0,2.363,0c.229-.026.431.21.45.526a.55.55,0,0,1-.379.62,11.259,11.259,0,0,1-1.3.078m3.674-.583c-.192,0-.365-.184-.406-.454a.6.6,0,0,1,.319-.684,20.2,20.2,0,0,0,2.32-.853c.221-.1.454.072.523.373a.639.639,0,0,1-.271.721,20.476,20.476,0,0,1-2.4.882.31.31,0,0,1-.088.014m-7.226-.218a.332.332,0,0,1-.146-.034,7.375,7.375,0,0,1-2.226-1.775.733.733,0,0,1-.048-.81.344.344,0,0,1,.588-.069A6.513,6.513,0,0,0,50.8,69.228a.652.652,0,0,1,.246.738.443.443,0,0,1-.39.373m11.88-1.8a.438.438,0,0,1-.386-.359.668.668,0,0,1,.229-.75c.732-.408,1.474-.865,2.205-1.353.206-.141.456-.023.556.264a.686.686,0,0,1-.192.767c-.748.5-1.507.968-2.257,1.387a.315.315,0,0,1-.156.043M47.007,66.086a.409.409,0,0,1-.361-.287,16.285,16.285,0,0,1-.869-2.812c-.033-.152-.063-.307-.085-.462a.6.6,0,0,1,.321-.684c.225-.066.446.132.494.442.019.126.042.25.069.373q.184.836.427,1.583a.386.386,0,0,1,.223-.141,11.751,11.751,0,0,0,2.324-.666c.221-.089.452.083.517.388a.634.634,0,0,1-.281.715,12.733,12.733,0,0,1-2.413.7.706.706,0,0,1-.156.778.331.331,0,0,1-.208.075M66.926,65.6a.411.411,0,0,1-.361-.29.7.7,0,0,1,.154-.784c.717-.566,1.407-1.155,2.049-1.752a.355.355,0,0,1,.579.155.722.722,0,0,1-.113.8c-.661.612-1.367,1.218-2.1,1.8a.329.329,0,0,1-.206.078m-22.08-.164h-.006a13.6,13.6,0,0,1-2.489-.276.575.575,0,0,1-.35-.652c.033-.313.246-.529.473-.485a12.636,12.636,0,0,0,2.376.264c.231.006.415.264.413.583s-.19.566-.417.566m-4.817-.982a.282.282,0,0,1-.117-.023,15.67,15.67,0,0,1-2.347-1.172.675.675,0,0,1-.211-.758c.092-.29.338-.422.55-.293a14.789,14.789,0,0,0,2.238,1.12.628.628,0,0,1,.286.709c-.052.253-.219.416-.4.416M51.89,63.208a.389.389,0,0,1-.333-.227.725.725,0,0,1,.081-.8,4.022,4.022,0,0,0,1.1-2.4c.031-.313.238-.534.469-.494a.571.571,0,0,1,.356.646,5.291,5.291,0,0,1-1.424,3.16.347.347,0,0,1-.25.115M35.581,61.728a.335.335,0,0,1-.221-.089,17.256,17.256,0,0,1-2.005-2.071.733.733,0,0,1-.038-.81.345.345,0,0,1,.59-.049,16.357,16.357,0,0,0,1.9,1.959.711.711,0,0,1,.131.793.407.407,0,0,1-.354.267M46.33,59.677a.315.315,0,0,1-.156-.043.661.661,0,0,1-.231-.747,6.77,6.77,0,0,1,1.617-2.878.349.349,0,0,1,.581.129.724.724,0,0,1-.1.8,5.594,5.594,0,0,0-1.33,2.378.438.438,0,0,1-.386.359m5.984-2.261a.361.361,0,0,1-.279-.146,3.263,3.263,0,0,0-1.553-1.043,1.981,1.981,0,0,0-.421-.092.554.554,0,0,1-.379-.623c.021-.316.225-.551.452-.523a3,3,0,0,1,.54.121,4.033,4.033,0,0,1,1.917,1.3.738.738,0,0,1,.033.813.377.377,0,0,1-.311.19m-20.356-.144a.389.389,0,0,1-.329-.221,19.777,19.777,0,0,1-1.355-2.924.693.693,0,0,1,.185-.773c.2-.144.456-.029.559.253a18.134,18.134,0,0,0,1.267,2.734.731.731,0,0,1-.071.807.346.346,0,0,1-.256.124" transform="translate(94.314 158.124)" fill="#b4d7f3"/>
        <path id="Trazado_1278886" data-name="Trazado 1278886" d="M94.52,27.384a.617.617,0,0,1-.534-.415,1.057,1.057,0,0,1,.214-1.177,17.491,17.491,0,0,1,1.7-1.241c.31-.2.68-.013.823.419a1.007,1.007,0,0,1-.3,1.134A16.9,16.9,0,0,0,94.84,27.26a.492.492,0,0,1-.32.124" transform="translate(197.623 80.24)" fill="#b4d7f3"/>
        <path id="Trazado_1278887" data-name="Trazado 1278887" d="M130.288,57.375a.492.492,0,0,1-.109-.013.871.871,0,0,1-.5-.993,21.756,21.756,0,0,0,.177-2.807c0-.642-.028-1.309-.081-1.972a.834.834,0,0,1,.55-.946c.335-.051.646.287.686.757.056.727.087,1.455.087,2.161a24.2,24.2,0,0,1-.2,3.111c-.053.415-.317.7-.612.7m-.711-9.935a.67.67,0,0,1-.587-.578,34.936,34.936,0,0,0-1.45-4.471,1.037,1.037,0,0,1,.245-1.16c.3-.231.68-.077.844.338a37.173,37.173,0,0,1,1.534,4.737.962.962,0,0,1-.385,1.087.444.444,0,0,1-.2.047m-3.49-8.836a.579.579,0,0,1-.494-.338,34.908,34.908,0,0,0-2.353-3.705,1.093,1.093,0,0,1-.006-1.207.509.509,0,0,1,.879-.009,35.6,35.6,0,0,1,2.468,3.889,1.082,1.082,0,0,1-.118,1.2.523.523,0,0,1-.376.171m-5.2-7.06a.513.513,0,0,1-.363-.163,16.185,16.185,0,0,0-3.052-2.426,1,1,0,0,1-.323-1.125c.137-.432.5-.633.817-.445a17.553,17.553,0,0,1,3.285,2.606,1.086,1.086,0,0,1,.143,1.2.6.6,0,0,1-.506.355m-6.625-4.172a.469.469,0,0,1-.168-.034,27.292,27.292,0,0,0-3.508-1.1.874.874,0,0,1-.506-.993c.059-.466.382-.774.72-.693a28.506,28.506,0,0,1,3.629,1.134.932.932,0,0,1,.432,1.057c-.078.377-.326.625-.6.625m-18.1-.539c-.273,0-.525-.252-.6-.633A.924.924,0,0,1,96,25.152a21.469,21.469,0,0,1,3.67-1c.338-.06.652.265.7.732a.848.848,0,0,1-.537.963,20.527,20.527,0,0,0-3.508.958.431.431,0,0,1-.161.03m10.9-1.211-.05,0a26.737,26.737,0,0,0-3.6-.141c-.329.009-.627-.368-.633-.839s.267-.864.609-.873a27.138,27.138,0,0,1,3.719.15c.345.034.6.445.571.92-.025.445-.3.787-.618.787" transform="translate(201.074 77.885)" fill="#b4d7f3"/>
        <path id="Trazado_1278888" data-name="Trazado 1278888" d="M106.414,36.148a.53.53,0,0,1-.391-.193,1.083,1.083,0,0,1-.09-1.2,16.249,16.249,0,0,0,.993-2c.168-.411.546-.556.844-.321a1.045,1.045,0,0,1,.236,1.164,17.728,17.728,0,0,1-1.111,2.238.568.568,0,0,1-.481.317" transform="translate(222.659 105.958)" fill="#b4d7f3"/>
        <path id="Trazado_1278890" data-name="Trazado 1278890" d="M96.567,63.348c-.341,0-.618-.377-.624-.843s.273-.864.612-.869c1.146-.026,2.329-.1,3.508-.218.345-.03.643.321.667.792a.811.811,0,0,1-.577.916c-1.2.12-2.409.2-3.58.222Zm-3.549-.09h-.031l-.264-.021c-1.068-.09-2.183-.231-3.313-.424a.836.836,0,0,1-.543-.95c.04-.471.357-.8.692-.749,1.108.188,2.2.325,3.238.415l.255.021c.342.026.605.428.587.9s-.292.809-.621.809m10.624-.625c-.307,0-.577-.317-.618-.744a.846.846,0,0,1,.534-.963c1.183-.21,2.347-.471,3.465-.77.335-.094.664.21.727.676a.871.871,0,0,1-.487,1c-1.146.308-2.332.573-3.539.792l-.081.009m-17.666-.548a.506.506,0,0,1-.112-.017c-1.229-.312-2.406-.676-3.511-1.078a.926.926,0,0,1-.441-1.048c.09-.458.428-.727.764-.608a35.43,35.43,0,0,0,3.415,1.053.87.87,0,0,1,.494,1c-.056.411-.317.7-.609.7m24.62-1.344c-.273,0-.522-.248-.6-.629a.928.928,0,0,1,.438-1.048,30.848,30.848,0,0,0,3.322-1.476c.32-.163.677.06.8.5a.971.971,0,0,1-.363,1.1,31.472,31.472,0,0,1-3.431,1.519.436.436,0,0,1-.165.03M79.141,59.532a.479.479,0,0,1-.227-.06,20.284,20.284,0,0,1-3.3-2.152,1.056,1.056,0,0,1-.217-1.172c.174-.406.559-.543.854-.3a18.824,18.824,0,0,0,3.108,2.032.979.979,0,0,1,.354,1.1.66.66,0,0,1-.574.552m38.076-2.272a.628.628,0,0,1-.553-.458,1.032,1.032,0,0,1,.261-1.155,19.806,19.806,0,0,0,2.89-2.546.517.517,0,0,1,.872.145,1.094,1.094,0,0,1-.106,1.2,21.153,21.153,0,0,1-3.08,2.713.481.481,0,0,1-.286.1" transform="translate(125.581 157.497)" fill="#b4d7f3"/>
      </g>
    </g>
    <rect id="Rectángulo_461257" data-name="Rectángulo 461257" width="247.431" height="42.324" rx="12" transform="translate(-4335.036 -3114.635)" fill="#ffe79e"/>
    <rect id="Rectángulo_462563" data-name="Rectángulo 462563" width="211.101" height="44.951" rx="12" transform="translate(-4298.706 -3057.152)" fill="#a4e7f0"/>
    <rect id="Rectángulo_462564" data-name="Rectángulo 462564" width="186.813" height="37.541" rx="12" transform="translate(-4274.418 -2997.606)" fill="#ffe3b9"/>
    <path id="Trazado_1280283" data-name="Trazado 1280283" d="M-94.539,0V-11.375h3.211a5.169,5.169,0,0,1,2.625.656,4.438,4.438,0,0,1,1.762,1.867,6.078,6.078,0,0,1,.629,2.781v.727a6.1,6.1,0,0,1-.621,2.82A4.369,4.369,0,0,1-88.707-.664,5.5,5.5,0,0,1-91.391,0Zm1.5-10.148v8.922h1.578a3.434,3.434,0,0,0,2.7-1.079A4.458,4.458,0,0,0-87.8-5.379v-.665a4.529,4.529,0,0,0-.91-3.014,3.239,3.239,0,0,0-2.582-1.091ZM-84.656-4.3a4.993,4.993,0,0,1,.488-2.234A3.643,3.643,0,0,1-82.809-8.07a3.7,3.7,0,0,1,1.988-.539,3.565,3.565,0,0,1,2.793,1.2,4.6,4.6,0,0,1,1.066,3.18v.1a5.036,5.036,0,0,1-.473,2.215A3.589,3.589,0,0,1-78.785-.391,3.743,3.743,0,0,1-80.8.156a3.556,3.556,0,0,1-2.785-1.2A4.575,4.575,0,0,1-84.656-4.2Zm1.453.172a3.616,3.616,0,0,0,.652,2.258,2.088,2.088,0,0,0,1.746.852,2.075,2.075,0,0,0,1.75-.863A3.955,3.955,0,0,0-78.406-4.3a3.61,3.61,0,0,0-.66-2.254,2.1,2.1,0,0,0-1.754-.863,2.075,2.075,0,0,0-1.727.852A3.925,3.925,0,0,0-83.2-4.133Zm9.422-4.32.047,1.063A3.08,3.08,0,0,1-71.2-8.609q2.68,0,2.7,3.023V0h-1.445V-5.594a1.946,1.946,0,0,0-.418-1.352,1.675,1.675,0,0,0-1.277-.437,2.086,2.086,0,0,0-1.234.375,2.546,2.546,0,0,0-.828.984V0h-1.445V-8.453ZM-66.672-4.3a4.952,4.952,0,0,1,.922-3.129,2.915,2.915,0,0,1,2.414-1.184,2.932,2.932,0,0,1,2.352,1.016V-12h1.445V0h-1.328l-.07-.906A2.943,2.943,0,0,1-63.352.156a2.887,2.887,0,0,1-2.395-1.2,5.008,5.008,0,0,1-.926-3.141Zm1.445.164a3.749,3.749,0,0,0,.594,2.25,1.92,1.92,0,0,0,1.641.813A2.108,2.108,0,0,0-60.984-2.3V-6.187a2.125,2.125,0,0,0-1.992-1.2,1.929,1.929,0,0,0-1.656.82A4.128,4.128,0,0,0-65.227-4.133ZM-53.789.156a3.693,3.693,0,0,1-2.8-1.129,4.19,4.19,0,0,1-1.078-3.02v-.266a5.073,5.073,0,0,1,.48-2.246A3.748,3.748,0,0,1-55.84-8.051a3.378,3.378,0,0,1,1.871-.559,3.166,3.166,0,0,1,2.563,1.086,4.7,4.7,0,0,1,.914,3.109v.6h-5.727a3,3,0,0,0,.73,2.02,2.3,2.3,0,0,0,1.777.77,2.517,2.517,0,0,0,1.3-.312,3.259,3.259,0,0,0,.93-.828l.883.688A3.55,3.55,0,0,1-53.789.156Zm-.18-7.578a1.928,1.928,0,0,0-1.469.637A3.1,3.1,0,0,0-56.172-5h4.234v-.109a2.753,2.753,0,0,0-.594-1.707A1.815,1.815,0,0,0-53.969-7.422Zm16.25,3.289A5.062,5.062,0,0,1-38.6-1.023,2.829,2.829,0,0,1-40.992.156,3.1,3.1,0,0,1-43.414-.82V3.25h-1.445v-11.7h1.32l.07.938a2.977,2.977,0,0,1,2.453-1.094,2.882,2.882,0,0,1,2.41,1.148,5.117,5.117,0,0,1,.887,3.2ZM-39.164-4.3a3.735,3.735,0,0,0-.609-2.258,1.963,1.963,0,0,0-1.672-.828,2.125,2.125,0,0,0-1.969,1.164V-2.18A2.129,2.129,0,0,0-41.43-1.023a1.954,1.954,0,0,0,1.652-.824A4.077,4.077,0,0,0-39.164-4.3ZM-31.8-7.156a4.331,4.331,0,0,0-.711-.055A1.9,1.9,0,0,0-34.437-6V0h-1.445V-8.453h1.406l.023.977a2.251,2.251,0,0,1,2.016-1.133A1.477,1.477,0,0,1-31.8-8.5ZM-28.9,0h-1.445V-8.453H-28.9Zm-1.562-10.7a.863.863,0,0,1,.215-.594.807.807,0,0,1,.637-.242.819.819,0,0,1,.641.242.854.854,0,0,1,.219.594.826.826,0,0,1-.219.586.834.834,0,0,1-.641.234.821.821,0,0,1-.637-.234A.834.834,0,0,1-30.461-10.7Zm5.234,2.242.039.938A3.122,3.122,0,0,1-22.68-8.609,2.417,2.417,0,0,1-20.266-7.25a3.2,3.2,0,0,1,1.1-.984,3.242,3.242,0,0,1,1.6-.375q2.781,0,2.828,2.945V0h-1.445V-5.578A1.941,1.941,0,0,0-16.6-6.934a1.823,1.823,0,0,0-1.391-.449,1.916,1.916,0,0,0-1.336.48,1.949,1.949,0,0,0-.617,1.293V0H-21.4V-5.539a1.613,1.613,0,0,0-1.8-1.844,1.934,1.934,0,0,0-1.945,1.211V0h-1.445V-8.453ZM-7.344,0a3.036,3.036,0,0,1-.2-.891A3.225,3.225,0,0,1-9.953.156,2.984,2.984,0,0,1-12-.551a2.287,2.287,0,0,1-.8-1.793,2.39,2.39,0,0,1,1-2.051,4.733,4.733,0,0,1,2.824-.73H-7.57v-.664A1.623,1.623,0,0,0-8.023-7a1.821,1.821,0,0,0-1.336-.449,2.107,2.107,0,0,0-1.3.391,1.151,1.151,0,0,0-.523.945h-1.453a2,2,0,0,1,.449-1.223,3.066,3.066,0,0,1,1.219-.934,4.1,4.1,0,0,1,1.691-.344,3.342,3.342,0,0,1,2.289.73,2.635,2.635,0,0,1,.859,2.012v3.891a4.757,4.757,0,0,0,.3,1.852V0Zm-2.4-1.1a2.54,2.54,0,0,0,1.289-.352,2.127,2.127,0,0,0,.883-.914V-4.1H-8.7q-2.656,0-2.656,1.555a1.316,1.316,0,0,0,.453,1.063A1.742,1.742,0,0,0-9.742-1.1ZM1.672,0H.227V-12H1.672ZM9.2,0A3.036,3.036,0,0,1,9-.891,3.225,3.225,0,0,1,6.594.156,2.984,2.984,0,0,1,4.543-.551a2.287,2.287,0,0,1-.8-1.793,2.39,2.39,0,0,1,1-2.051,4.733,4.733,0,0,1,2.824-.73H8.977v-.664A1.623,1.623,0,0,0,8.523-7a1.821,1.821,0,0,0-1.336-.449,2.107,2.107,0,0,0-1.3.391,1.151,1.151,0,0,0-.523.945H3.914a2,2,0,0,1,.449-1.223,3.066,3.066,0,0,1,1.219-.934,4.1,4.1,0,0,1,1.691-.344,3.342,3.342,0,0,1,2.289.73,2.635,2.635,0,0,1,.859,2.012v3.891a4.757,4.757,0,0,0,.3,1.852V0ZM6.8-1.1a2.54,2.54,0,0,0,1.289-.352,2.127,2.127,0,0,0,.883-.914V-4.1H7.844q-2.656,0-2.656,1.555a1.316,1.316,0,0,0,.453,1.063A1.742,1.742,0,0,0,6.8-1.1Zm13.234.078a2.082,2.082,0,0,0,1.352-.469,1.649,1.649,0,0,0,.641-1.172H23.4a2.621,2.621,0,0,1-.5,1.383,3.293,3.293,0,0,1-1.23,1.047,3.55,3.55,0,0,1-1.629.391A3.482,3.482,0,0,1,17.293-1a4.59,4.59,0,0,1-1.02-3.152v-.242a5.089,5.089,0,0,1,.453-2.2,3.451,3.451,0,0,1,1.3-1.492,3.7,3.7,0,0,1,2-.531,3.39,3.39,0,0,1,2.363.852,3.043,3.043,0,0,1,1,2.211H22.031a1.992,1.992,0,0,0-.621-1.348,1.932,1.932,0,0,0-1.379-.527,2.023,2.023,0,0,0-1.707.793,3.724,3.724,0,0,0-.605,2.293v.273a3.65,3.65,0,0,0,.6,2.25A2.033,2.033,0,0,0,20.039-1.023Zm4.6-3.281a4.993,4.993,0,0,1,.488-2.234A3.643,3.643,0,0,1,26.488-8.07a3.7,3.7,0,0,1,1.988-.539,3.565,3.565,0,0,1,2.793,1.2,4.6,4.6,0,0,1,1.066,3.18v.1a5.036,5.036,0,0,1-.473,2.215A3.589,3.589,0,0,1,30.512-.391a3.743,3.743,0,0,1-2.02.547,3.556,3.556,0,0,1-2.785-1.2A4.575,4.575,0,0,1,24.641-4.2Zm1.453.172a3.616,3.616,0,0,0,.652,2.258,2.088,2.088,0,0,0,1.746.852,2.075,2.075,0,0,0,1.75-.863A3.955,3.955,0,0,0,30.891-4.3a3.61,3.61,0,0,0-.66-2.254,2.1,2.1,0,0,0-1.754-.863,2.075,2.075,0,0,0-1.727.852A3.925,3.925,0,0,0,26.094-4.133Zm9.414-4.32.039.938a3.122,3.122,0,0,1,2.508-1.094A2.417,2.417,0,0,1,40.469-7.25a3.2,3.2,0,0,1,1.1-.984,3.242,3.242,0,0,1,1.6-.375q2.781,0,2.828,2.945V0H44.547V-5.578a1.941,1.941,0,0,0-.414-1.355,1.823,1.823,0,0,0-1.391-.449,1.917,1.917,0,0,0-1.336.48,1.949,1.949,0,0,0-.617,1.293V0H39.336V-5.539a1.613,1.613,0,0,0-1.8-1.844,1.934,1.934,0,0,0-1.945,1.211V0H34.141V-8.453ZM47.789-4.3a4.993,4.993,0,0,1,.488-2.234A3.643,3.643,0,0,1,49.637-8.07a3.7,3.7,0,0,1,1.988-.539,3.565,3.565,0,0,1,2.793,1.2,4.6,4.6,0,0,1,1.066,3.18v.1a5.036,5.036,0,0,1-.473,2.215A3.589,3.589,0,0,1,53.66-.391a3.743,3.743,0,0,1-2.02.547,3.556,3.556,0,0,1-2.785-1.2A4.575,4.575,0,0,1,47.789-4.2Zm1.453.172a3.616,3.616,0,0,0,.652,2.258,2.088,2.088,0,0,0,1.746.852,2.075,2.075,0,0,0,1.75-.863A3.955,3.955,0,0,0,54.039-4.3a3.61,3.61,0,0,0-.66-2.254,2.1,2.1,0,0,0-1.754-.863A2.075,2.075,0,0,0,49.9-6.57,3.925,3.925,0,0,0,49.242-4.133Zm7.7-.164a4.952,4.952,0,0,1,.922-3.129,2.915,2.915,0,0,1,2.414-1.184,2.932,2.932,0,0,1,2.352,1.016V-12h1.445V0H62.75l-.07-.906A2.943,2.943,0,0,1,60.266.156a2.887,2.887,0,0,1-2.395-1.2,5.008,5.008,0,0,1-.926-3.141Zm1.445.164a3.749,3.749,0,0,0,.594,2.25,1.92,1.92,0,0,0,1.641.813A2.108,2.108,0,0,0,62.633-2.3V-6.187a2.125,2.125,0,0,0-1.992-1.2,1.929,1.929,0,0,0-1.656.82A4.128,4.128,0,0,0,58.391-4.133ZM67.891,0H66.445V-8.453h1.445ZM66.328-10.7a.863.863,0,0,1,.215-.594.807.807,0,0,1,.637-.242.819.819,0,0,1,.641.242.854.854,0,0,1,.219.594.826.826,0,0,1-.219.586.834.834,0,0,1-.641.234.821.821,0,0,1-.637-.234A.834.834,0,0,1,66.328-10.7Zm3.523,6.4a4.952,4.952,0,0,1,.922-3.129,2.915,2.915,0,0,1,2.414-1.184,2.932,2.932,0,0,1,2.352,1.016V-12h1.445V0H75.656l-.07-.906A2.943,2.943,0,0,1,73.172.156a2.887,2.887,0,0,1-2.395-1.2,5.008,5.008,0,0,1-.926-3.141Zm1.445.164a3.749,3.749,0,0,0,.594,2.25,1.92,1.92,0,0,0,1.641.813A2.109,2.109,0,0,0,75.539-2.3V-6.187a2.125,2.125,0,0,0-1.992-1.2,1.929,1.929,0,0,0-1.656.82A4.128,4.128,0,0,0,71.3-4.133ZM84.445,0a3.036,3.036,0,0,1-.2-.891A3.225,3.225,0,0,1,81.836.156a2.984,2.984,0,0,1-2.051-.707,2.288,2.288,0,0,1-.8-1.793,2.39,2.39,0,0,1,1-2.051,4.733,4.733,0,0,1,2.824-.73h1.406v-.664A1.623,1.623,0,0,0,83.766-7a1.821,1.821,0,0,0-1.336-.449,2.108,2.108,0,0,0-1.3.391,1.151,1.151,0,0,0-.523.945H79.156a2,2,0,0,1,.449-1.223,3.066,3.066,0,0,1,1.219-.934,4.1,4.1,0,0,1,1.691-.344,3.342,3.342,0,0,1,2.289.73,2.635,2.635,0,0,1,.859,2.012v3.891a4.757,4.757,0,0,0,.3,1.852V0Zm-2.4-1.1a2.54,2.54,0,0,0,1.289-.352,2.127,2.127,0,0,0,.883-.914V-4.1H83.086q-2.656,0-2.656,1.555a1.316,1.316,0,0,0,.453,1.063A1.742,1.742,0,0,0,82.047-1.1Zm5.531-3.2A4.952,4.952,0,0,1,88.5-7.426a2.915,2.915,0,0,1,2.414-1.184,2.932,2.932,0,0,1,2.352,1.016V-12h1.445V0H93.383l-.07-.906A2.943,2.943,0,0,1,90.9.156a2.887,2.887,0,0,1-2.395-1.2,5.008,5.008,0,0,1-.926-3.141Zm1.445.164a3.749,3.749,0,0,0,.594,2.25,1.92,1.92,0,0,0,1.641.813A2.109,2.109,0,0,0,93.266-2.3V-6.187a2.125,2.125,0,0,0-1.992-1.2,1.929,1.929,0,0,0-1.656.82A4.128,4.128,0,0,0,89.023-4.133Zm-150.422,18a5.062,5.062,0,0,1-.883,3.109,2.829,2.829,0,0,1-2.391,1.18,3.1,3.1,0,0,1-2.422-.977v4.07h-1.445V9.547h1.32l.07.938A2.977,2.977,0,0,1-64.7,9.391a2.882,2.882,0,0,1,2.41,1.148,5.117,5.117,0,0,1,.887,3.2Zm-1.445-.164a3.735,3.735,0,0,0-.609-2.258,1.963,1.963,0,0,0-1.672-.828,2.125,2.125,0,0,0-1.969,1.164V15.82a2.129,2.129,0,0,0,1.984,1.156,1.954,1.954,0,0,0,1.652-.824A4.077,4.077,0,0,0-62.844,13.7Zm8.5,4.3a3.036,3.036,0,0,1-.2-.891,3.225,3.225,0,0,1-2.406,1.047A2.984,2.984,0,0,1-59,17.449a2.287,2.287,0,0,1-.8-1.793,2.39,2.39,0,0,1,1-2.051,4.733,4.733,0,0,1,2.824-.73h1.406v-.664A1.623,1.623,0,0,0-55.023,11a1.821,1.821,0,0,0-1.336-.449,2.107,2.107,0,0,0-1.3.391,1.151,1.151,0,0,0-.523.945h-1.453a2,2,0,0,1,.449-1.223,3.066,3.066,0,0,1,1.219-.934,4.1,4.1,0,0,1,1.691-.344,3.342,3.342,0,0,1,2.289.73,2.635,2.635,0,0,1,.859,2.012v3.891a4.757,4.757,0,0,0,.3,1.852V18Zm-2.4-1.1a2.54,2.54,0,0,0,1.289-.352,2.127,2.127,0,0,0,.883-.914V13.9H-55.7q-2.656,0-2.656,1.555a1.316,1.316,0,0,0,.453,1.063A1.742,1.742,0,0,0-56.742,16.9Zm9.969-6.055a4.331,4.331,0,0,0-.711-.055A1.9,1.9,0,0,0-49.414,12v6h-1.445V9.547h1.406l.023.977a2.251,2.251,0,0,1,2.016-1.133,1.477,1.477,0,0,1,.641.109ZM-40.539,18a3.036,3.036,0,0,1-.2-.891,3.225,3.225,0,0,1-2.406,1.047,2.984,2.984,0,0,1-2.051-.707,2.287,2.287,0,0,1-.8-1.793,2.39,2.39,0,0,1,1-2.051,4.733,4.733,0,0,1,2.824-.73h1.406v-.664A1.623,1.623,0,0,0-41.219,11a1.821,1.821,0,0,0-1.336-.449,2.107,2.107,0,0,0-1.3.391,1.151,1.151,0,0,0-.523.945h-1.453a2,2,0,0,1,.449-1.223,3.066,3.066,0,0,1,1.219-.934,4.1,4.1,0,0,1,1.691-.344,3.342,3.342,0,0,1,2.289.73,2.635,2.635,0,0,1,.859,2.012v3.891a4.757,4.757,0,0,0,.3,1.852V18Zm-2.4-1.1a2.54,2.54,0,0,0,1.289-.352,2.127,2.127,0,0,0,.883-.914V13.9H-41.9q-2.656,0-2.656,1.555a1.316,1.316,0,0,0,.453,1.063A1.742,1.742,0,0,0-42.937,16.9Zm13.352,1.258a3.693,3.693,0,0,1-2.8-1.129,4.19,4.19,0,0,1-1.078-3.02v-.266a5.073,5.073,0,0,1,.48-2.246,3.748,3.748,0,0,1,1.344-1.547,3.378,3.378,0,0,1,1.871-.559A3.166,3.166,0,0,1-27.2,10.477a4.7,4.7,0,0,1,.914,3.109v.6h-5.727a3,3,0,0,0,.73,2.02,2.3,2.3,0,0,0,1.777.77,2.517,2.517,0,0,0,1.3-.312,3.259,3.259,0,0,0,.93-.828l.883.688A3.55,3.55,0,0,1-29.586,18.156Zm-.18-7.578a1.928,1.928,0,0,0-1.469.637A3.1,3.1,0,0,0-31.969,13h4.234v-.109a2.753,2.753,0,0,0-.594-1.707A1.815,1.815,0,0,0-29.766,10.578ZM-23.047,18h-1.445V6h1.445Zm11.492-.836a3.07,3.07,0,0,1-2.477.992,2.628,2.628,0,0,1-2.059-.785,3.4,3.4,0,0,1-.715-2.324v-5.5h1.445v5.461q0,1.922,1.563,1.922a2.163,2.163,0,0,0,2.2-1.234V9.547h1.445V18h-1.375Zm8.523-1.406a1.064,1.064,0,0,0-.441-.91,4.249,4.249,0,0,0-1.539-.559,7.277,7.277,0,0,1-1.742-.562,2.479,2.479,0,0,1-.953-.781,1.869,1.869,0,0,1-.309-1.078,2.193,2.193,0,0,1,.879-1.758,3.432,3.432,0,0,1,2.246-.719,3.532,3.532,0,0,1,2.332.742,2.357,2.357,0,0,1,.895,1.9H-3.117a1.3,1.3,0,0,0-.5-1.023,1.888,1.888,0,0,0-1.27-.43,1.976,1.976,0,0,0-1.234.344,1.082,1.082,0,0,0-.445.9.877.877,0,0,0,.414.789,5.1,5.1,0,0,0,1.5.508,7.8,7.8,0,0,1,1.754.578,2.558,2.558,0,0,1,1,.809,1.988,1.988,0,0,1,.324,1.152,2.163,2.163,0,0,1-.906,1.816,3.8,3.8,0,0,1-2.352.684,4.257,4.257,0,0,1-1.8-.359,2.922,2.922,0,0,1-1.223-1A2.42,2.42,0,0,1-8.3,15.4h1.445a1.5,1.5,0,0,0,.582,1.152,2.258,2.258,0,0,0,1.434.426,2.331,2.331,0,0,0,1.316-.332A1.02,1.02,0,0,0-3.031,15.758Zm8.547,1.406a3.07,3.07,0,0,1-2.477.992A2.628,2.628,0,0,1,.98,17.371a3.4,3.4,0,0,1-.715-2.324v-5.5H1.711v5.461q0,1.922,1.563,1.922a2.163,2.163,0,0,0,2.2-1.234V9.547H6.922V18H5.547Zm8.82.836a3.036,3.036,0,0,1-.2-.891,3.225,3.225,0,0,1-2.406,1.047,2.984,2.984,0,0,1-2.051-.707,2.287,2.287,0,0,1-.8-1.793,2.39,2.39,0,0,1,1-2.051,4.733,4.733,0,0,1,2.824-.73h1.406v-.664A1.623,1.623,0,0,0,13.656,11a1.821,1.821,0,0,0-1.336-.449,2.107,2.107,0,0,0-1.3.391,1.151,1.151,0,0,0-.523.945H9.047A2,2,0,0,1,9.5,10.668a3.066,3.066,0,0,1,1.219-.934,4.1,4.1,0,0,1,1.691-.344,3.342,3.342,0,0,1,2.289.73,2.635,2.635,0,0,1,.859,2.012v3.891a4.757,4.757,0,0,0,.3,1.852V18Zm-2.4-1.1a2.54,2.54,0,0,0,1.289-.352,2.127,2.127,0,0,0,.883-.914V13.9H12.977q-2.656,0-2.656,1.555a1.316,1.316,0,0,0,.453,1.063A1.742,1.742,0,0,0,11.938,16.9Zm9.969-6.055a4.331,4.331,0,0,0-.711-.055A1.9,1.9,0,0,0,19.266,12v6H17.82V9.547h1.406l.023.977a2.251,2.251,0,0,1,2.016-1.133,1.477,1.477,0,0,1,.641.109ZM24.8,18H23.359V9.547H24.8ZM23.242,7.3a.863.863,0,0,1,.215-.594.807.807,0,0,1,.637-.242.819.819,0,0,1,.641.242.854.854,0,0,1,.219.594.826.826,0,0,1-.219.586.834.834,0,0,1-.641.234.821.821,0,0,1-.637-.234A.834.834,0,0,1,23.242,7.3ZM26.734,13.7a4.993,4.993,0,0,1,.488-2.234A3.643,3.643,0,0,1,28.582,9.93a3.7,3.7,0,0,1,1.988-.539,3.565,3.565,0,0,1,2.793,1.2,4.6,4.6,0,0,1,1.066,3.18v.1a5.036,5.036,0,0,1-.473,2.215,3.589,3.589,0,0,1-1.352,1.527,3.743,3.743,0,0,1-2.02.547,3.556,3.556,0,0,1-2.785-1.2A4.575,4.575,0,0,1,26.734,13.8Zm1.453.172a3.616,3.616,0,0,0,.652,2.258,2.211,2.211,0,0,0,3.5-.012,3.955,3.955,0,0,0,.648-2.418,3.61,3.61,0,0,0-.66-2.254,2.1,2.1,0,0,0-1.754-.863,2.075,2.075,0,0,0-1.727.852A3.925,3.925,0,0,0,28.188,13.867ZM40.688,18V10.664H39.352V9.547h1.336V8.828a2.937,2.937,0,0,1,.809-2.2,3.136,3.136,0,0,1,2.285-.789,6.881,6.881,0,0,1,2.211.477L45.75,7.531a5.008,5.008,0,0,0-1.859-.391,1.819,1.819,0,0,0-1.34.418,1.723,1.723,0,0,0-.41,1.254v.734h1.727v1.117H42.141V18Zm6.023,0H45.258V9.547h1.453ZM50.43,9.547l.047,1.063a3.08,3.08,0,0,1,2.531-1.219q2.68,0,2.7,3.023V18H54.266V12.406a1.946,1.946,0,0,0-.418-1.352,1.675,1.675,0,0,0-1.277-.437,2.086,2.086,0,0,0-1.234.375,2.546,2.546,0,0,0-.828.984V18H49.063V9.547ZM63.109,18a3.036,3.036,0,0,1-.2-.891A3.225,3.225,0,0,1,60.5,18.156a2.984,2.984,0,0,1-2.051-.707,2.287,2.287,0,0,1-.8-1.793,2.39,2.39,0,0,1,1-2.051,4.733,4.733,0,0,1,2.824-.73h1.406v-.664A1.623,1.623,0,0,0,62.43,11a1.821,1.821,0,0,0-1.336-.449,2.107,2.107,0,0,0-1.3.391,1.151,1.151,0,0,0-.523.945H57.82a2,2,0,0,1,.449-1.223,3.066,3.066,0,0,1,1.219-.934,4.1,4.1,0,0,1,1.691-.344,3.342,3.342,0,0,1,2.289.73,2.635,2.635,0,0,1,.859,2.012v3.891a4.757,4.757,0,0,0,.3,1.852V18Zm-2.4-1.1A2.54,2.54,0,0,0,62,16.547a2.127,2.127,0,0,0,.883-.914V13.9H61.75q-2.656,0-2.656,1.555a1.316,1.316,0,0,0,.453,1.063A1.742,1.742,0,0,0,60.711,16.9ZM68.164,18H66.719V6h1.445Zm2.344-.758a.905.905,0,0,1,.223-.625.848.848,0,0,1,.668-.25.874.874,0,0,1,.676.25.887.887,0,0,1,.23.625.839.839,0,0,1-.23.6.89.89,0,0,1-.676.242.8.8,0,0,1-.891-.844Z" transform="translate(-4192.646 -3096.973)" fill="#12263f"/>
    <path id="Trazado_1280287" data-name="Trazado 1280287" d="M-37.055-3.609A4.185,4.185,0,0,1-38.387-.824a4.365,4.365,0,0,1-2.98.98A4.008,4.008,0,0,1-44.6-1.289a5.815,5.815,0,0,1-1.215-3.867V-6.25a6.481,6.481,0,0,1,.566-2.789,4.231,4.231,0,0,1,1.605-1.848,4.47,4.47,0,0,1,2.406-.645,4.11,4.11,0,0,1,2.906,1.012,4.235,4.235,0,0,1,1.273,2.8h-1.508a3.268,3.268,0,0,0-.848-1.975,2.565,2.565,0,0,0-1.824-.611,2.684,2.684,0,0,0-2.254,1.063A4.882,4.882,0,0,0-44.3-6.215v1.1a5.018,5.018,0,0,0,.773,2.948A2.5,2.5,0,0,0-41.367-1.07a2.887,2.887,0,0,0,1.918-.566,3.143,3.143,0,0,0,.887-1.973Zm1.438-.7a4.993,4.993,0,0,1,.488-2.234A3.643,3.643,0,0,1-33.77-8.07a3.7,3.7,0,0,1,1.988-.539,3.565,3.565,0,0,1,2.793,1.2,4.6,4.6,0,0,1,1.066,3.18v.1a5.036,5.036,0,0,1-.473,2.215A3.589,3.589,0,0,1-29.746-.391a3.743,3.743,0,0,1-2.02.547,3.556,3.556,0,0,1-2.785-1.2A4.575,4.575,0,0,1-35.617-4.2Zm1.453.172a3.616,3.616,0,0,0,.652,2.258,2.088,2.088,0,0,0,1.746.852,2.075,2.075,0,0,0,1.75-.863A3.955,3.955,0,0,0-29.367-4.3a3.61,3.61,0,0,0-.66-2.254,2.1,2.1,0,0,0-1.754-.863,2.075,2.075,0,0,0-1.727.852A3.925,3.925,0,0,0-34.164-4.133Zm9.422-4.32.047,1.063a3.08,3.08,0,0,1,2.531-1.219q2.68,0,2.7,3.023V0h-1.445V-5.594a1.946,1.946,0,0,0-.418-1.352A1.675,1.675,0,0,0-22.6-7.383a2.086,2.086,0,0,0-1.234.375,2.546,2.546,0,0,0-.828.984V0h-1.445V-8.453ZM-9.812.156a3.693,3.693,0,0,1-2.8-1.129,4.19,4.19,0,0,1-1.078-3.02v-.266a5.073,5.073,0,0,1,.48-2.246,3.748,3.748,0,0,1,1.344-1.547,3.378,3.378,0,0,1,1.871-.559A3.166,3.166,0,0,1-7.43-7.523a4.7,4.7,0,0,1,.914,3.109v.6h-5.727a3,3,0,0,0,.73,2.02,2.3,2.3,0,0,0,1.777.77,2.517,2.517,0,0,0,1.3-.312,3.259,3.259,0,0,0,.93-.828l.883.688A3.55,3.55,0,0,1-9.812.156Zm-.18-7.578a1.928,1.928,0,0,0-1.469.637A3.1,3.1,0,0,0-12.2-5h4.234v-.109a2.753,2.753,0,0,0-.594-1.707A1.815,1.815,0,0,0-9.992-7.422ZM-3.273,0H-4.719V-12h1.445ZM4.359-8.453l.039.938A3.122,3.122,0,0,1,6.906-8.609,2.417,2.417,0,0,1,9.32-7.25a3.2,3.2,0,0,1,1.1-.984,3.242,3.242,0,0,1,1.6-.375q2.781,0,2.828,2.945V0H13.4V-5.578a1.941,1.941,0,0,0-.414-1.355,1.823,1.823,0,0,0-1.391-.449,1.916,1.916,0,0,0-1.336.48,1.949,1.949,0,0,0-.617,1.293V0H8.188V-5.539a1.613,1.613,0,0,0-1.8-1.844A1.934,1.934,0,0,0,4.438-6.172V0H2.992V-8.453ZM22.242,0a3.036,3.036,0,0,1-.2-.891A3.225,3.225,0,0,1,19.633.156a2.984,2.984,0,0,1-2.051-.707,2.287,2.287,0,0,1-.8-1.793,2.39,2.39,0,0,1,1-2.051,4.733,4.733,0,0,1,2.824-.73h1.406v-.664A1.623,1.623,0,0,0,21.563-7a1.821,1.821,0,0,0-1.336-.449,2.108,2.108,0,0,0-1.3.391,1.151,1.151,0,0,0-.523.945H16.953A2,2,0,0,1,17.4-7.332a3.066,3.066,0,0,1,1.219-.934,4.1,4.1,0,0,1,1.691-.344,3.342,3.342,0,0,1,2.289.73,2.635,2.635,0,0,1,.859,2.012v3.891a4.757,4.757,0,0,0,.3,1.852V0Zm-2.4-1.1a2.54,2.54,0,0,0,1.289-.352,2.127,2.127,0,0,0,.883-.914V-4.1H20.883q-2.656,0-2.656,1.555a1.316,1.316,0,0,0,.453,1.063A1.742,1.742,0,0,0,19.844-1.1Zm8.648-1.016,1.969-6.336h1.547L28.609,1.3Q27.82,3.414,26.1,3.414l-.273-.023-.539-.1V2.117l.391.031a1.923,1.923,0,0,0,1.145-.3A2.148,2.148,0,0,0,27.5.766l.32-.859L24.8-8.453h1.578ZM32.914-4.3A4.993,4.993,0,0,1,33.4-6.539,3.643,3.643,0,0,1,34.762-8.07a3.7,3.7,0,0,1,1.988-.539,3.565,3.565,0,0,1,2.793,1.2,4.6,4.6,0,0,1,1.066,3.18v.1a5.036,5.036,0,0,1-.473,2.215A3.589,3.589,0,0,1,38.785-.391a3.743,3.743,0,0,1-2.02.547,3.556,3.556,0,0,1-2.785-1.2A4.575,4.575,0,0,1,32.914-4.2Zm1.453.172a3.616,3.616,0,0,0,.652,2.258,2.088,2.088,0,0,0,1.746.852,2.075,2.075,0,0,0,1.75-.863A3.955,3.955,0,0,0,39.164-4.3a3.61,3.61,0,0,0-.66-2.254,2.1,2.1,0,0,0-1.754-.863,2.075,2.075,0,0,0-1.727.852A3.925,3.925,0,0,0,34.367-4.133ZM46.508-7.156a4.331,4.331,0,0,0-.711-.055A1.9,1.9,0,0,0,43.867-6V0H42.422V-8.453h1.406l.023.977a2.251,2.251,0,0,1,2.016-1.133,1.477,1.477,0,0,1,.641.109ZM-48.676,16.977a2.082,2.082,0,0,0,1.352-.469,1.649,1.649,0,0,0,.641-1.172h1.367a2.621,2.621,0,0,1-.5,1.383,3.293,3.293,0,0,1-1.23,1.047,3.55,3.55,0,0,1-1.629.391A3.482,3.482,0,0,1-51.422,17a4.59,4.59,0,0,1-1.02-3.152v-.242a5.089,5.089,0,0,1,.453-2.2,3.451,3.451,0,0,1,1.3-1.492,3.7,3.7,0,0,1,2-.531,3.39,3.39,0,0,1,2.363.852,3.043,3.043,0,0,1,1,2.211h-1.367a1.992,1.992,0,0,0-.621-1.348,1.932,1.932,0,0,0-1.379-.527,2.023,2.023,0,0,0-1.707.793A3.724,3.724,0,0,0-51,13.664v.273a3.65,3.65,0,0,0,.6,2.25A2.033,2.033,0,0,0-48.676,16.977Zm4.6-3.281a4.993,4.993,0,0,1,.488-2.234A3.643,3.643,0,0,1-42.227,9.93a3.7,3.7,0,0,1,1.988-.539,3.565,3.565,0,0,1,2.793,1.2,4.6,4.6,0,0,1,1.066,3.18v.1a5.036,5.036,0,0,1-.473,2.215A3.589,3.589,0,0,1-38.2,17.609a3.743,3.743,0,0,1-2.02.547,3.556,3.556,0,0,1-2.785-1.2A4.575,4.575,0,0,1-44.074,13.8Zm1.453.172a3.616,3.616,0,0,0,.652,2.258,2.088,2.088,0,0,0,1.746.852,2.075,2.075,0,0,0,1.75-.863,3.955,3.955,0,0,0,.648-2.418,3.61,3.61,0,0,0-.66-2.254,2.1,2.1,0,0,0-1.754-.863,2.075,2.075,0,0,0-1.727.852A3.925,3.925,0,0,0-42.621,13.867Zm9.422-4.32.047,1.063a3.08,3.08,0,0,1,2.531-1.219q2.68,0,2.7,3.023V18h-1.445V12.406a1.946,1.946,0,0,0-.418-1.352,1.675,1.675,0,0,0-1.277-.437,2.086,2.086,0,0,0-1.234.375,2.546,2.546,0,0,0-.828.984V18h-1.445V9.547ZM-23.777,7.5V9.547H-22.2v1.117h-1.578v5.249a1.173,1.173,0,0,0,.211.763.888.888,0,0,0,.719.254,3.5,3.5,0,0,0,.688-.094V18a4.215,4.215,0,0,1-1.109.155,1.8,1.8,0,0,1-1.461-.586,2.517,2.517,0,0,1-.492-1.664V10.664h-1.539V9.547h1.539V7.5Zm7.352,3.344a4.331,4.331,0,0,0-.711-.055A1.9,1.9,0,0,0-19.066,12v6h-1.445V9.547h1.406l.023.977a2.251,2.251,0,0,1,2.016-1.133,1.477,1.477,0,0,1,.641.109Zm.789,2.852a4.993,4.993,0,0,1,.488-2.234A3.643,3.643,0,0,1-13.789,9.93,3.7,3.7,0,0,1-11.8,9.391a3.565,3.565,0,0,1,2.793,1.2,4.6,4.6,0,0,1,1.066,3.18v.1a5.036,5.036,0,0,1-.473,2.215,3.589,3.589,0,0,1-1.352,1.527,3.743,3.743,0,0,1-2.02.547,3.556,3.556,0,0,1-2.785-1.2A4.575,4.575,0,0,1-15.637,13.8Zm1.453.172a3.616,3.616,0,0,0,.652,2.258,2.088,2.088,0,0,0,1.746.852,2.075,2.075,0,0,0,1.75-.863A3.955,3.955,0,0,0-9.387,13.7a3.61,3.61,0,0,0-.66-2.254,2.1,2.1,0,0,0-1.754-.863,2.075,2.075,0,0,0-1.727.852A3.925,3.925,0,0,0-14.184,13.867ZM-4.559,18H-6V6h1.445ZM3.676,7.5V9.547H5.254v1.117H3.676v5.249a1.173,1.173,0,0,0,.211.763.888.888,0,0,0,.719.254,3.5,3.5,0,0,0,.688-.094V18a4.215,4.215,0,0,1-1.109.155,1.8,1.8,0,0,1-1.461-.586,2.517,2.517,0,0,1-.492-1.664V10.664H.691V9.547H2.23V7.5Zm6.773,10.656a3.693,3.693,0,0,1-2.8-1.129,4.19,4.19,0,0,1-1.078-3.02v-.266a5.073,5.073,0,0,1,.48-2.246A3.748,3.748,0,0,1,8.4,9.949a3.378,3.378,0,0,1,1.871-.559,3.166,3.166,0,0,1,2.563,1.086,4.7,4.7,0,0,1,.914,3.109v.6H8.02a3,3,0,0,0,.73,2.02,2.3,2.3,0,0,0,1.777.77,2.517,2.517,0,0,0,1.3-.312,3.259,3.259,0,0,0,.93-.828l.883.688A3.55,3.55,0,0,1,10.449,18.156Zm-.18-7.578a1.928,1.928,0,0,0-1.469.637A3.1,3.1,0,0,0,8.066,13H12.3v-.109a2.753,2.753,0,0,0-.594-1.707A1.815,1.815,0,0,0,10.27,10.578ZM10.973,6h1.75L10.629,8.3l-1.164,0Zm7.836,10.977a2.082,2.082,0,0,0,1.352-.469,1.649,1.649,0,0,0,.641-1.172h1.367a2.621,2.621,0,0,1-.5,1.383,3.293,3.293,0,0,1-1.23,1.047,3.55,3.55,0,0,1-1.629.391A3.482,3.482,0,0,1,16.063,17a4.59,4.59,0,0,1-1.02-3.152v-.242a5.089,5.089,0,0,1,.453-2.2,3.451,3.451,0,0,1,1.3-1.492,3.7,3.7,0,0,1,2-.531,3.39,3.39,0,0,1,2.363.852,3.043,3.043,0,0,1,1,2.211H20.8a1.992,1.992,0,0,0-.621-1.348,1.932,1.932,0,0,0-1.379-.527,2.023,2.023,0,0,0-1.707.793,3.724,3.724,0,0,0-.605,2.293v.273a3.65,3.65,0,0,0,.6,2.25A2.033,2.033,0,0,0,18.809,16.977Zm6.352-7.43.047,1.063a3.08,3.08,0,0,1,2.531-1.219q2.68,0,2.7,3.023V18H29V12.406a1.946,1.946,0,0,0-.418-1.352,1.675,1.675,0,0,0-1.277-.437,2.086,2.086,0,0,0-1.234.375,2.546,2.546,0,0,0-.828.984V18H23.793V9.547ZM34.191,18H32.746V9.547h1.445ZM32.629,7.3a.863.863,0,0,1,.215-.594.807.807,0,0,1,.637-.242.819.819,0,0,1,.641.242.854.854,0,0,1,.219.594.826.826,0,0,1-.219.586.834.834,0,0,1-.641.234.821.821,0,0,1-.637-.234A.834.834,0,0,1,32.629,7.3Zm7.266,9.672a2.082,2.082,0,0,0,1.352-.469,1.649,1.649,0,0,0,.641-1.172h1.367a2.621,2.621,0,0,1-.5,1.383,3.293,3.293,0,0,1-1.23,1.047,3.55,3.55,0,0,1-1.629.391A3.482,3.482,0,0,1,37.148,17a4.59,4.59,0,0,1-1.02-3.152v-.242a5.089,5.089,0,0,1,.453-2.2,3.451,3.451,0,0,1,1.3-1.492,3.7,3.7,0,0,1,2-.531,3.39,3.39,0,0,1,2.363.852,3.043,3.043,0,0,1,1,2.211H41.887a1.992,1.992,0,0,0-.621-1.348,1.932,1.932,0,0,0-1.379-.527,2.023,2.023,0,0,0-1.707.793,3.724,3.724,0,0,0-.605,2.293v.273a3.65,3.65,0,0,0,.6,2.25A2.033,2.033,0,0,0,39.895,16.977ZM44.5,13.7a4.993,4.993,0,0,1,.488-2.234A3.643,3.643,0,0,1,46.344,9.93a3.7,3.7,0,0,1,1.988-.539,3.565,3.565,0,0,1,2.793,1.2,4.6,4.6,0,0,1,1.066,3.18v.1a5.036,5.036,0,0,1-.473,2.215,3.589,3.589,0,0,1-1.352,1.527,3.743,3.743,0,0,1-2.02.547,3.556,3.556,0,0,1-2.785-1.2A4.575,4.575,0,0,1,44.5,13.8Zm1.453.172a3.616,3.616,0,0,0,.652,2.258,2.211,2.211,0,0,0,3.5-.012,3.955,3.955,0,0,0,.648-2.418,3.61,3.61,0,0,0-.66-2.254,2.1,2.1,0,0,0-1.754-.863,2.075,2.075,0,0,0-1.727.852A3.925,3.925,0,0,0,45.949,13.867Zm8.086,3.375a.905.905,0,0,1,.223-.625.848.848,0,0,1,.668-.25.874.874,0,0,1,.676.25.887.887,0,0,1,.23.625.839.839,0,0,1-.23.6.89.89,0,0,1-.676.242.8.8,0,0,1-.891-.844Z" transform="translate(-4178.752 -2982.606)" fill="#12263f"/>
    <g id="Grupo_1212943" data-name="Grupo 1212943" transform="translate(-4430 -3127.315)">
      <path id="Trazado_1278892" data-name="Trazado 1278892" d="M48.6,0,14.842,58.477H82.365Z" transform="translate(48.79 0)" fill="#ffd453"/>
      <path id="Trazado_1278893" data-name="Trazado 1278893" d="M144.312,69.194l-31.164-53.98H37.831L6.663,69.194Z" transform="translate(21.905 50.013)" fill="#69d7e5"/>
      <path id="Trazado_1278894" data-name="Trazado 1278894" d="M24.672,29.379,0,72.11H194.784l-24.669-42.73Z" transform="translate(0 96.577)" fill="#ffb851"/>
    </g>
    <rect id="Rectángulo_462560" data-name="Rectángulo 462560" width="63.778" height="27.324" rx="6" transform="translate(-4366.678 -2993.425)" fill="#344866"/>
    <rect id="Rectángulo_462561" data-name="Rectángulo 462561" width="63.778" height="27.324" rx="6" transform="translate(-4366.646 -3047)" fill="#344866"/>
    <rect id="Rectángulo_462562" data-name="Rectángulo 462562" width="63.778" height="27.324" rx="7" transform="translate(-4366.656 -3107.135)" fill="#344866"/>
    <path id="Trazado_1280288" data-name="Trazado 1280288" d="M3.955,0H.984V-13.5H3.955Zm7.361,0a3.344,3.344,0,0,1-.281-.853A2.754,2.754,0,0,1,8.749.176,3.374,3.374,0,0,1,6.464-.637a2.588,2.588,0,0,1-.94-2.043A2.66,2.66,0,0,1,6.666-5.019,5.821,5.821,0,0,1,9.989-5.81H10.9v-.5q0-1.316-1.134-1.316A.927.927,0,0,0,8.714-6.587H5.752A2.655,2.655,0,0,1,6.926-8.825a4.931,4.931,0,0,1,2.993-.86,4.323,4.323,0,0,1,2.874.888,3.086,3.086,0,0,1,1.081,2.435v4.21a4.311,4.311,0,0,0,.4,2V0ZM9.461-1.934a1.652,1.652,0,0,0,.918-.237,1.487,1.487,0,0,0,.523-.536V-4.228h-.861q-1.547,0-1.547,1.389a.848.848,0,0,0,.272.655A.986.986,0,0,0,9.461-1.934ZM21.049,0a3.344,3.344,0,0,1-.281-.853A2.754,2.754,0,0,1,18.483.176,3.374,3.374,0,0,1,16.2-.637a2.588,2.588,0,0,1-.94-2.043A2.66,2.66,0,0,1,16.4-5.019a5.821,5.821,0,0,1,3.322-.791h.914v-.5q0-1.316-1.134-1.316a.927.927,0,0,0-1.055,1.042H15.486a2.655,2.655,0,0,1,1.173-2.239,4.931,4.931,0,0,1,2.993-.86,4.323,4.323,0,0,1,2.874.888,3.086,3.086,0,0,1,1.081,2.435v4.21a4.311,4.311,0,0,0,.4,2V0ZM19.195-1.934a1.652,1.652,0,0,0,.918-.237,1.487,1.487,0,0,0,.523-.536V-4.228h-.861q-1.547,0-1.547,1.389a.848.848,0,0,0,.272.655A.986.986,0,0,0,19.195-1.934ZM32.163-3.4a1.268,1.268,0,0,0-.479-1.055A5.954,5.954,0,0,0,30-5.238a16.147,16.147,0,0,1-1.969-.782q-2.487-1.222-2.487-3.357a3.011,3.011,0,0,1,.62-1.876,4.008,4.008,0,0,1,1.753-1.266,6.823,6.823,0,0,1,2.549-.453,5.969,5.969,0,0,1,2.474.492,3.917,3.917,0,0,1,1.7,1.4A3.661,3.661,0,0,1,35.248-9H32.172a1.547,1.547,0,0,0-.479-1.213,1.867,1.867,0,0,0-1.3-.431,2.106,2.106,0,0,0-1.305.365,1.119,1.119,0,0,0-.479.927,1.127,1.127,0,0,0,.527.892,6.65,6.65,0,0,0,1.854.826,11.36,11.36,0,0,1,2.18.918,3.663,3.663,0,0,1,2.074,3.3A3.125,3.125,0,0,1,33.982-.782a5.629,5.629,0,0,1-3.472.958,6.888,6.888,0,0,1-2.817-.558,4.247,4.247,0,0,1-1.9-1.529,3.985,3.985,0,0,1-.637-2.237h3.094a1.963,1.963,0,0,0,.532,1.516,2.513,2.513,0,0,0,1.727.488,1.985,1.985,0,0,0,1.208-.33A1.088,1.088,0,0,0,32.163-3.4Z" transform="translate(-4350.824 -2974.642)" fill="#fff"/>
    <path id="Trazado_1280285" data-name="Trazado 1280285" d="M4.052-4.342V0H.967V-12.8H6.073a5.948,5.948,0,0,1,2.6.541,4.074,4.074,0,0,1,1.749,1.538,4.2,4.2,0,0,1,.62,2.263A3.7,3.7,0,0,1,9.7-5.462,5.561,5.561,0,0,1,6.021-4.342Zm0-2.382H6.073A1.906,1.906,0,0,0,7.44-7.172a1.665,1.665,0,0,0,.47-1.266A2.059,2.059,0,0,0,7.427-9.87a1.712,1.712,0,0,0-1.318-.545H4.052ZM17.987,0a3.344,3.344,0,0,1-.281-.853A2.754,2.754,0,0,1,15.42.176a3.374,3.374,0,0,1-2.285-.813,2.588,2.588,0,0,1-.94-2.043,2.66,2.66,0,0,1,1.143-2.338,5.821,5.821,0,0,1,3.322-.791h.914v-.5q0-1.316-1.134-1.316a.927.927,0,0,0-1.055,1.042H12.423A2.655,2.655,0,0,1,13.6-8.825a4.931,4.931,0,0,1,2.993-.86,4.323,4.323,0,0,1,2.874.888,3.086,3.086,0,0,1,1.081,2.435v4.21a4.311,4.311,0,0,0,.4,2V0ZM16.132-1.934a1.652,1.652,0,0,0,.918-.237,1.487,1.487,0,0,0,.523-.536V-4.228h-.861q-1.547,0-1.547,1.389a.848.848,0,0,0,.272.655A.986.986,0,0,0,16.132-1.934ZM27.72,0a3.344,3.344,0,0,1-.281-.853A2.754,2.754,0,0,1,25.154.176a3.374,3.374,0,0,1-2.285-.813,2.588,2.588,0,0,1-.94-2.043,2.66,2.66,0,0,1,1.143-2.338,5.821,5.821,0,0,1,3.322-.791h.914v-.5q0-1.316-1.134-1.316a.927.927,0,0,0-1.055,1.042H22.157A2.655,2.655,0,0,1,23.33-8.825a4.931,4.931,0,0,1,2.993-.86A4.323,4.323,0,0,1,29.2-8.8a3.086,3.086,0,0,1,1.081,2.435v4.21a4.311,4.311,0,0,0,.4,2V0ZM25.866-1.934a1.652,1.652,0,0,0,.918-.237,1.487,1.487,0,0,0,.523-.536V-4.228h-.861q-1.547,0-1.547,1.389a.848.848,0,0,0,.272.655A.986.986,0,0,0,25.866-1.934ZM38.834-3.4a1.268,1.268,0,0,0-.479-1.055,5.954,5.954,0,0,0-1.683-.782A16.147,16.147,0,0,1,34.7-6.021q-2.487-1.222-2.487-3.357a3.011,3.011,0,0,1,.62-1.876,4.008,4.008,0,0,1,1.753-1.266,6.823,6.823,0,0,1,2.549-.453,5.969,5.969,0,0,1,2.474.492,3.917,3.917,0,0,1,1.7,1.4A3.661,3.661,0,0,1,41.919-9H38.843a1.547,1.547,0,0,0-.479-1.213,1.867,1.867,0,0,0-1.3-.431,2.106,2.106,0,0,0-1.305.365,1.119,1.119,0,0,0-.479.927,1.127,1.127,0,0,0,.527.892,6.65,6.65,0,0,0,1.854.826,11.36,11.36,0,0,1,2.18.918,3.663,3.663,0,0,1,2.074,3.3A3.125,3.125,0,0,1,40.653-.782a5.629,5.629,0,0,1-3.472.958,6.888,6.888,0,0,1-2.817-.558,4.247,4.247,0,0,1-1.9-1.529,3.985,3.985,0,0,1-.637-2.237h3.094a1.963,1.963,0,0,0,.532,1.516,2.513,2.513,0,0,0,1.727.488,1.985,1.985,0,0,0,1.208-.33A1.088,1.088,0,0,0,38.834-3.4Z" transform="translate(-4356.646 -3027)" fill="#fff"/>
    <path id="Trazado_1280284" data-name="Trazado 1280284" d="M8.408-3.779a1.408,1.408,0,0,0-.532-1.172,6.615,6.615,0,0,0-1.87-.869,17.941,17.941,0,0,1-2.187-.869Q1.055-8.047,1.055-10.42A3.345,3.345,0,0,1,1.743-12.5a4.453,4.453,0,0,1,1.948-1.406,7.582,7.582,0,0,1,2.832-.5,6.632,6.632,0,0,1,2.749.547,4.352,4.352,0,0,1,1.89,1.558A4.068,4.068,0,0,1,11.836-10H8.418a1.719,1.719,0,0,0-.532-1.348,2.075,2.075,0,0,0-1.44-.479A2.339,2.339,0,0,0,5-11.421a1.243,1.243,0,0,0-.532,1.03,1.252,1.252,0,0,0,.586.991,7.389,7.389,0,0,0,2.061.918A12.623,12.623,0,0,1,9.531-7.461a4.07,4.07,0,0,1,2.3,3.662A3.472,3.472,0,0,1,10.43-.869,6.255,6.255,0,0,1,6.572.2a7.653,7.653,0,0,1-3.13-.62,4.719,4.719,0,0,1-2.109-1.7A4.428,4.428,0,0,1,.625-4.609H4.063a2.181,2.181,0,0,0,.591,1.685,2.793,2.793,0,0,0,1.919.542,2.206,2.206,0,0,0,1.343-.366A1.209,1.209,0,0,0,8.408-3.779ZM19.595,0a3.716,3.716,0,0,1-.312-.947A3.06,3.06,0,0,1,16.743.2a3.749,3.749,0,0,1-2.539-.9,2.875,2.875,0,0,1-1.045-2.271,2.955,2.955,0,0,1,1.27-2.6,6.468,6.468,0,0,1,3.691-.879h1.016v-.559q0-1.462-1.26-1.462A1.03,1.03,0,0,0,16.7-7.319H13.413a2.95,2.95,0,0,1,1.3-2.487,5.479,5.479,0,0,1,3.325-.956,4.8,4.8,0,0,1,3.193.986,3.429,3.429,0,0,1,1.2,2.705v4.678a4.79,4.79,0,0,0,.449,2.227V0ZM17.534-2.148a1.836,1.836,0,0,0,1.021-.264,1.653,1.653,0,0,0,.581-.6V-4.7h-.957q-1.719,0-1.719,1.543a.942.942,0,0,0,.3.728A1.1,1.1,0,0,0,17.534-2.148ZM30.41,0A3.716,3.716,0,0,1,30.1-.947,3.06,3.06,0,0,1,27.558.2a3.749,3.749,0,0,1-2.539-.9,2.875,2.875,0,0,1-1.045-2.271,2.955,2.955,0,0,1,1.27-2.6,6.468,6.468,0,0,1,3.691-.879h1.016v-.559q0-1.462-1.26-1.462a1.03,1.03,0,0,0-1.172,1.158H24.228a2.95,2.95,0,0,1,1.3-2.487,5.479,5.479,0,0,1,3.325-.956,4.8,4.8,0,0,1,3.193.986,3.429,3.429,0,0,1,1.2,2.705v4.678A4.79,4.79,0,0,0,33.7-.166V0ZM28.349-2.148a1.836,1.836,0,0,0,1.021-.264,1.653,1.653,0,0,0,.581-.6V-4.7h-.957q-1.719,0-1.719,1.543a.942.942,0,0,0,.3.728A1.1,1.1,0,0,0,28.349-2.148ZM42.758-3.779a1.408,1.408,0,0,0-.532-1.172,6.615,6.615,0,0,0-1.87-.869,17.942,17.942,0,0,1-2.187-.869Q35.4-8.047,35.4-10.42a3.345,3.345,0,0,1,.688-2.085,4.453,4.453,0,0,1,1.948-1.406,7.582,7.582,0,0,1,2.832-.5,6.632,6.632,0,0,1,2.749.547,4.352,4.352,0,0,1,1.89,1.558A4.068,4.068,0,0,1,46.186-10H42.768a1.719,1.719,0,0,0-.532-1.348,2.075,2.075,0,0,0-1.44-.479,2.339,2.339,0,0,0-1.45.405,1.243,1.243,0,0,0-.532,1.03A1.252,1.252,0,0,0,39.4-9.4a7.389,7.389,0,0,0,2.061.918,12.623,12.623,0,0,1,2.422,1.021,4.07,4.07,0,0,1,2.3,3.662A3.472,3.472,0,0,1,44.78-.869,6.255,6.255,0,0,1,40.922.2a7.653,7.653,0,0,1-3.13-.62,4.719,4.719,0,0,1-2.109-1.7,4.428,4.428,0,0,1-.708-2.485h3.438A2.181,2.181,0,0,0,39-2.925a2.793,2.793,0,0,0,1.919.542,2.206,2.206,0,0,0,1.343-.366A1.209,1.209,0,0,0,42.758-3.779Z" transform="translate(-4358.268 -3088.353)" fill="#fff"/>
    <path id="Trazado_1280286" data-name="Trazado 1280286" d="M-69.027-5.32a7.026,7.026,0,0,1-.523,2.84A4.388,4.388,0,0,1-71.02-.617L-68.988.977l-1.023.945L-72.41.016A4.88,4.88,0,0,1-73.6.156,4.347,4.347,0,0,1-75.98-.5a4.363,4.363,0,0,1-1.613-1.883,6.752,6.752,0,0,1-.59-2.832v-.82a6.953,6.953,0,0,1,.57-2.9A4.347,4.347,0,0,1-76-10.863a4.329,4.329,0,0,1,2.387-.668,4.4,4.4,0,0,1,2.418.664,4.284,4.284,0,0,1,1.605,1.91,7.016,7.016,0,0,1,.563,2.91Zm-1.5-.734a5.162,5.162,0,0,0-.8-3.1,2.666,2.666,0,0,0-2.285-1.09,2.643,2.643,0,0,0-2.23,1.082,5,5,0,0,0-.84,3v.836a5.147,5.147,0,0,0,.816,3.078A2.646,2.646,0,0,0-73.6-1.117a2.652,2.652,0,0,0,2.25-1.059,5.079,5.079,0,0,0,.82-3.035Zm8.8,5.219A3.07,3.07,0,0,1-64.2.156a2.628,2.628,0,0,1-2.059-.785,3.4,3.4,0,0,1-.715-2.324v-5.5h1.445v5.461q0,1.922,1.563,1.922a2.163,2.163,0,0,0,2.2-1.234V-8.453h1.445V0h-1.375Zm7.109.992a3.693,3.693,0,0,1-2.8-1.129,4.19,4.19,0,0,1-1.078-3.02v-.266a5.073,5.073,0,0,1,.48-2.246,3.748,3.748,0,0,1,1.344-1.547,3.378,3.378,0,0,1,1.871-.559A3.166,3.166,0,0,1-52.23-7.523a4.7,4.7,0,0,1,.914,3.109v.6h-5.727a3,3,0,0,0,.73,2.02,2.3,2.3,0,0,0,1.777.77,2.517,2.517,0,0,0,1.3-.312,3.259,3.259,0,0,0,.93-.828l.883.688A3.55,3.55,0,0,1-54.613.156Zm-.18-7.578a1.928,1.928,0,0,0-1.469.637A3.1,3.1,0,0,0-57-5h4.234v-.109a2.753,2.753,0,0,0-.594-1.707A1.815,1.815,0,0,0-54.793-7.422ZM-42.176.156a3.693,3.693,0,0,1-2.8-1.129,4.19,4.19,0,0,1-1.078-3.02v-.266A5.073,5.073,0,0,1-45.57-6.5a3.748,3.748,0,0,1,1.344-1.547,3.378,3.378,0,0,1,1.871-.559,3.166,3.166,0,0,1,2.563,1.086,4.7,4.7,0,0,1,.914,3.109v.6h-5.727a3,3,0,0,0,.73,2.02,2.3,2.3,0,0,0,1.777.77,2.517,2.517,0,0,0,1.3-.312,3.259,3.259,0,0,0,.93-.828l.883.688A3.55,3.55,0,0,1-42.176.156Zm-.18-7.578a1.928,1.928,0,0,0-1.469.637A3.1,3.1,0,0,0-44.559-5h4.234v-.109a2.753,2.753,0,0,0-.594-1.707A1.815,1.815,0,0,0-42.355-7.422Zm4.8,3.125a4.961,4.961,0,0,1,.914-3.152,2.962,2.962,0,0,1,2.453-1.16A2.96,2.96,0,0,1-31.824-7.6l.063-.852h1.328V3.25h-1.445V-.781a3.033,3.033,0,0,1-2.328.938,2.915,2.915,0,0,1-2.441-1.191,5.072,5.072,0,0,1-.91-3.16Zm1.445.164A3.761,3.761,0,0,0-35.5-1.852a1.951,1.951,0,0,0,1.652.828,2.164,2.164,0,0,0,1.969-1.141V-6.3a2.171,2.171,0,0,0-1.953-1.117A1.965,1.965,0,0,0-35.5-6.59,4.094,4.094,0,0,0-36.113-4.133Zm13.219,3.3a3.07,3.07,0,0,1-2.477.992A2.628,2.628,0,0,1-27.43-.629a3.4,3.4,0,0,1-.715-2.324v-5.5H-26.7v5.461q0,1.922,1.563,1.922a2.163,2.163,0,0,0,2.2-1.234V-8.453h1.445V0h-1.375ZM-17.723,0h-1.445V-8.453h1.445Zm-1.562-10.7a.863.863,0,0,1,.215-.594.807.807,0,0,1,.637-.242.819.819,0,0,1,.641.242.854.854,0,0,1,.219.594.826.826,0,0,1-.219.586.834.834,0,0,1-.641.234.821.821,0,0,1-.637-.234A.834.834,0,0,1-19.285-10.7ZM-13.84,0h-1.445V-12h1.445Zm3.883,0H-11.4V-8.453h1.445ZM-11.52-10.7a.863.863,0,0,1,.215-.594.807.807,0,0,1,.637-.242.819.819,0,0,1,.641.242.854.854,0,0,1,.219.594.826.826,0,0,1-.219.586.834.834,0,0,1-.641.234.821.821,0,0,1-.637-.234A.834.834,0,0,1-11.52-10.7ZM-.488-4.133A5.026,5.026,0,0,1-1.379-1.02,2.846,2.846,0,0,1-3.77.156,2.947,2.947,0,0,1-6.246-.977L-6.316,0H-7.645V-12H-6.2v4.477A2.93,2.93,0,0,1-3.785-8.609,2.863,2.863,0,0,1-1.367-7.445,5.177,5.177,0,0,1-.488-4.258ZM-1.934-4.3A3.906,3.906,0,0,0-2.5-6.578a1.888,1.888,0,0,0-1.641-.8A2.122,2.122,0,0,0-6.2-6.055V-2.4A2.181,2.181,0,0,0-4.129-1.07a1.878,1.878,0,0,0,1.617-.8A4.153,4.153,0,0,0-1.934-4.3ZM5.418-7.156a4.331,4.331,0,0,0-.711-.055A1.9,1.9,0,0,0,2.777-6V0H1.332V-8.453H2.738l.023.977A2.251,2.251,0,0,1,4.777-8.609a1.477,1.477,0,0,1,.641.109ZM11.652,0a3.036,3.036,0,0,1-.2-.891A3.225,3.225,0,0,1,9.043.156,2.984,2.984,0,0,1,6.992-.551a2.287,2.287,0,0,1-.8-1.793,2.39,2.39,0,0,1,1-2.051,4.733,4.733,0,0,1,2.824-.73h1.406v-.664A1.623,1.623,0,0,0,10.973-7a1.821,1.821,0,0,0-1.336-.449,2.107,2.107,0,0,0-1.3.391,1.151,1.151,0,0,0-.523.945H6.363a2,2,0,0,1,.449-1.223,3.066,3.066,0,0,1,1.219-.934,4.1,4.1,0,0,1,1.691-.344,3.342,3.342,0,0,1,2.289.73,2.635,2.635,0,0,1,.859,2.012v3.891a4.757,4.757,0,0,0,.3,1.852V0Zm-2.4-1.1a2.54,2.54,0,0,0,1.289-.352,2.127,2.127,0,0,0,.883-.914V-4.1H10.293q-2.656,0-2.656,1.555A1.316,1.316,0,0,0,8.09-1.484,1.742,1.742,0,0,0,9.254-1.1ZM19.809,0V-7.336H18.473V-8.453h1.336V-9.32a2.878,2.878,0,0,1,.727-2.1,2.745,2.745,0,0,1,2.055-.742,3.816,3.816,0,0,1,.992.132L23.5-10.867a4.151,4.151,0,0,0-.781-.07,1.41,1.41,0,0,0-1.086.411,1.669,1.669,0,0,0-.383,1.18v.893h1.8v1.117h-1.8V0ZM29.871,0a3.036,3.036,0,0,1-.2-.891A3.225,3.225,0,0,1,27.262.156a2.984,2.984,0,0,1-2.051-.707,2.287,2.287,0,0,1-.8-1.793,2.39,2.39,0,0,1,1-2.051,4.733,4.733,0,0,1,2.824-.73h1.406v-.664A1.623,1.623,0,0,0,29.191-7a1.821,1.821,0,0,0-1.336-.449,2.108,2.108,0,0,0-1.3.391,1.151,1.151,0,0,0-.523.945H24.582a2,2,0,0,1,.449-1.223,3.066,3.066,0,0,1,1.219-.934,4.1,4.1,0,0,1,1.691-.344,3.342,3.342,0,0,1,2.289.73,2.635,2.635,0,0,1,.859,2.012v3.891a4.757,4.757,0,0,0,.3,1.852V0Zm-2.4-1.1a2.54,2.54,0,0,0,1.289-.352,2.127,2.127,0,0,0,.883-.914V-4.1H28.512q-2.656,0-2.656,1.555a1.316,1.316,0,0,0,.453,1.063A1.742,1.742,0,0,0,27.473-1.1Zm9.273.078A2.082,2.082,0,0,0,38.1-1.492a1.649,1.649,0,0,0,.641-1.172h1.367a2.621,2.621,0,0,1-.5,1.383,3.293,3.293,0,0,1-1.23,1.047,3.55,3.55,0,0,1-1.629.391A3.482,3.482,0,0,1,34-1a4.59,4.59,0,0,1-1.02-3.152v-.242a5.089,5.089,0,0,1,.453-2.2,3.451,3.451,0,0,1,1.3-1.492,3.7,3.7,0,0,1,2-.531,3.39,3.39,0,0,1,2.363.852,3.043,3.043,0,0,1,1,2.211H38.738a1.992,1.992,0,0,0-.621-1.348,1.932,1.932,0,0,0-1.379-.527,2.023,2.023,0,0,0-1.707.793,3.724,3.724,0,0,0-.605,2.293v.273a3.65,3.65,0,0,0,.6,2.25A2.033,2.033,0,0,0,36.746-1.023ZM43.3,0H41.855V-8.453H43.3ZM41.738-10.7a.863.863,0,0,1,.215-.594.807.807,0,0,1,.637-.242.819.819,0,0,1,.641.242.854.854,0,0,1,.219.594.826.826,0,0,1-.219.586.834.834,0,0,1-.641.234.821.821,0,0,1-.637-.234A.834.834,0,0,1,41.738-10.7ZM47.184,0H45.738V-12h1.445Zm3.883,0H49.621V-8.453h1.445ZM49.5-10.7a.863.863,0,0,1,.215-.594.807.807,0,0,1,.637-.242.819.819,0,0,1,.641.242.854.854,0,0,1,.219.594.826.826,0,0,1-.219.586.834.834,0,0,1-.641.234.821.821,0,0,1-.637-.234A.834.834,0,0,1,49.5-10.7Zm3.523,6.4a4.952,4.952,0,0,1,.922-3.129,2.915,2.915,0,0,1,2.414-1.184,2.932,2.932,0,0,1,2.352,1.016V-12H60.16V0H58.832l-.07-.906A2.943,2.943,0,0,1,56.348.156a2.887,2.887,0,0,1-2.395-1.2,5.008,5.008,0,0,1-.926-3.141Zm1.445.164a3.749,3.749,0,0,0,.594,2.25,1.92,1.92,0,0,0,1.641.813A2.108,2.108,0,0,0,58.715-2.3V-6.187a2.125,2.125,0,0,0-1.992-1.2,1.929,1.929,0,0,0-1.656.82A4.128,4.128,0,0,0,54.473-4.133ZM67.621,0a3.036,3.036,0,0,1-.2-.891A3.225,3.225,0,0,1,65.012.156a2.984,2.984,0,0,1-2.051-.707,2.287,2.287,0,0,1-.8-1.793,2.39,2.39,0,0,1,1-2.051,4.733,4.733,0,0,1,2.824-.73h1.406v-.664A1.623,1.623,0,0,0,66.941-7a1.821,1.821,0,0,0-1.336-.449,2.108,2.108,0,0,0-1.3.391,1.151,1.151,0,0,0-.523.945H62.332a2,2,0,0,1,.449-1.223A3.066,3.066,0,0,1,64-8.266a4.1,4.1,0,0,1,1.691-.344,3.342,3.342,0,0,1,2.289.73,2.635,2.635,0,0,1,.859,2.012v3.891a4.757,4.757,0,0,0,.3,1.852V0Zm-2.4-1.1a2.54,2.54,0,0,0,1.289-.352,2.127,2.127,0,0,0,.883-.914V-4.1H66.262q-2.656,0-2.656,1.555a1.316,1.316,0,0,0,.453,1.063A1.742,1.742,0,0,0,65.223-1.1Zm5.531-3.2a4.952,4.952,0,0,1,.922-3.129A2.915,2.915,0,0,1,74.09-8.609a2.932,2.932,0,0,1,2.352,1.016V-12h1.445V0H76.559l-.07-.906A2.943,2.943,0,0,1,74.074.156a2.887,2.887,0,0,1-2.395-1.2,5.008,5.008,0,0,1-.926-3.141Zm1.445.164a3.749,3.749,0,0,0,.594,2.25,1.92,1.92,0,0,0,1.641.813A2.109,2.109,0,0,0,76.441-2.3V-6.187a2.125,2.125,0,0,0-1.992-1.2,1.929,1.929,0,0,0-1.656.82A4.128,4.128,0,0,0,72.2-4.133ZM-40.406,15.883l1.969-6.336h1.547l-3.4,9.758q-.789,2.109-2.508,2.109l-.273-.023-.539-.1V20.117l.391.031a1.923,1.923,0,0,0,1.145-.3,2.148,2.148,0,0,0,.676-1.086l.32-.859-3.016-8.359h1.578Zm14.047-8.664a10.282,10.282,0,0,0-1.562-.156q-1.562,0-1.562,1.646v.839h1.8v1.117h-1.8V18H-30.93V10.664h-1.336V9.547h1.336V8.625a2.757,2.757,0,0,1,.758-2.07,2.96,2.96,0,0,1,2.133-.719,19.688,19.688,0,0,1,3.125.477V18h-1.445Zm7.313,10.937a3.693,3.693,0,0,1-2.8-1.129,4.19,4.19,0,0,1-1.078-3.02v-.266a5.073,5.073,0,0,1,.48-2.246A3.748,3.748,0,0,1-21.1,9.949a3.378,3.378,0,0,1,1.871-.559,3.166,3.166,0,0,1,2.563,1.086,4.7,4.7,0,0,1,.914,3.109v.6h-5.727a3,3,0,0,0,.73,2.02,2.3,2.3,0,0,0,1.777.77,2.517,2.517,0,0,0,1.3-.312,3.259,3.259,0,0,0,.93-.828l.883.688A3.55,3.55,0,0,1-19.047,18.156Zm-.18-7.578a1.928,1.928,0,0,0-1.469.637A3.1,3.1,0,0,0-21.43,13H-17.2v-.109a2.753,2.753,0,0,0-.594-1.707A1.815,1.815,0,0,0-19.227,10.578Zm7.984,2.055,1.875-3.086H-7.68l-2.766,4.18L-7.594,18H-9.266l-1.953-3.164L-13.172,18h-1.68L-12,13.727l-2.766-4.18h1.672ZM-4.578,18H-6.023V9.547h1.445ZM-6.141,7.3a.863.863,0,0,1,.215-.594.807.807,0,0,1,.637-.242.819.819,0,0,1,.641.242A.854.854,0,0,1-4.43,7.3a.826.826,0,0,1-.219.586.834.834,0,0,1-.641.234.821.821,0,0,1-.637-.234A.834.834,0,0,1-6.141,7.3ZM4.891,13.867A5.026,5.026,0,0,1,4,16.98a2.846,2.846,0,0,1-2.391,1.176A2.947,2.947,0,0,1-.867,17.023L-.937,18H-2.266V6H-.82v4.477A2.93,2.93,0,0,1,1.594,9.391a2.863,2.863,0,0,1,2.418,1.164,5.177,5.177,0,0,1,.879,3.188ZM3.445,13.7a3.906,3.906,0,0,0-.57-2.281,1.888,1.888,0,0,0-1.641-.8A2.122,2.122,0,0,0-.82,11.945V15.6A2.181,2.181,0,0,0,1.25,16.93a1.878,1.878,0,0,0,1.617-.8A4.153,4.153,0,0,0,3.445,13.7ZM8.281,18H6.836V9.547H8.281ZM6.719,7.3a.863.863,0,0,1,.215-.594.807.807,0,0,1,.637-.242.819.819,0,0,1,.641.242A.854.854,0,0,1,8.43,7.3a.826.826,0,0,1-.219.586.834.834,0,0,1-.641.234.821.821,0,0,1-.637-.234A.834.834,0,0,1,6.719,7.3ZM12.164,18H10.719V6h1.445Zm3.883,0H14.6V9.547h1.445ZM14.484,7.3a.863.863,0,0,1,.215-.594.807.807,0,0,1,.637-.242.819.819,0,0,1,.641.242A.854.854,0,0,1,16.2,7.3a.826.826,0,0,1-.219.586.834.834,0,0,1-.641.234.821.821,0,0,1-.637-.234A.834.834,0,0,1,14.484,7.3Zm3.523,6.4a4.952,4.952,0,0,1,.922-3.129,3.137,3.137,0,0,1,4.766-.168V6h1.445V18H23.813l-.07-.906a2.943,2.943,0,0,1-2.414,1.063,2.887,2.887,0,0,1-2.395-1.2,5.008,5.008,0,0,1-.926-3.141Zm1.445.164a3.749,3.749,0,0,0,.594,2.25,1.92,1.92,0,0,0,1.641.813A2.108,2.108,0,0,0,23.7,15.7V11.813a2.125,2.125,0,0,0-1.992-1.2,1.929,1.929,0,0,0-1.656.82A4.128,4.128,0,0,0,19.453,13.867ZM32.6,18a3.036,3.036,0,0,1-.2-.891,3.225,3.225,0,0,1-2.406,1.047,2.984,2.984,0,0,1-2.051-.707,2.287,2.287,0,0,1-.8-1.793,2.39,2.39,0,0,1,1-2.051,4.733,4.733,0,0,1,2.824-.73h1.406v-.664A1.623,1.623,0,0,0,31.922,11a1.821,1.821,0,0,0-1.336-.449,2.107,2.107,0,0,0-1.3.391,1.151,1.151,0,0,0-.523.945H27.313a2,2,0,0,1,.449-1.223,3.066,3.066,0,0,1,1.219-.934,4.1,4.1,0,0,1,1.691-.344,3.342,3.342,0,0,1,2.289.73,2.635,2.635,0,0,1,.859,2.012v3.891a4.757,4.757,0,0,0,.3,1.852V18Zm-2.4-1.1a2.54,2.54,0,0,0,1.289-.352,2.127,2.127,0,0,0,.883-.914V13.9H31.242q-2.656,0-2.656,1.555a1.316,1.316,0,0,0,.453,1.063A1.742,1.742,0,0,0,30.2,16.9Zm5.531-3.2a4.952,4.952,0,0,1,.922-3.129,3.137,3.137,0,0,1,4.766-.168V6h1.445V18H41.539l-.07-.906a2.943,2.943,0,0,1-2.414,1.063,2.887,2.887,0,0,1-2.395-1.2,5.008,5.008,0,0,1-.926-3.141Zm1.445.164a3.749,3.749,0,0,0,.594,2.25,1.92,1.92,0,0,0,1.641.813A2.108,2.108,0,0,0,41.422,15.7V11.813a2.125,2.125,0,0,0-1.992-1.2,1.929,1.929,0,0,0-1.656.82A4.128,4.128,0,0,0,37.18,13.867Zm7.961,3.375a.905.905,0,0,1,.223-.625.848.848,0,0,1,.668-.25.874.874,0,0,1,.676.25.887.887,0,0,1,.23.625.839.839,0,0,1-.23.6.89.89,0,0,1-.676.242.8.8,0,0,1-.891-.844Z" transform="translate(-4192.646 -3038.555)" fill="#12263f"/>
  </g>
</svg>
