<svg xmlns="http://www.w3.org/2000/svg" xmlns:xlink="http://www.w3.org/1999/xlink" width="96" height="96" viewBox="0 0 96 96">
  <defs>
    <clipPath id="clip-path">
      <rect id="Rectángulo_454829" data-name="Rectángulo 454829" width="96" height="96" fill="#1e535a"/>
    </clipPath>
    <clipPath id="clip-path-2">
      <rect id="Rectángulo_462480" data-name="Rectángulo 462480" width="37.93" height="38.062" fill="#1e535a"/>
    </clipPath>
  </defs>
  <g id="Grupo_1212389" data-name="Grupo 1212389" transform="translate(-1481 -8562.5)">
    <g id="Grupo_1177591" data-name="Grupo 1177591" transform="translate(1481 8562.5)">
      <g id="Grupo_1177589" data-name="Grupo 1177589" transform="translate(0 0)">
        <g id="Grupo_1177587" data-name="Grupo 1177587" clip-path="url(#clip-path)">
          <path id="Trazado_997422" data-name="Trazado 997422" d="M92.081,42.491a44.136,44.136,0,0,0-9.97-22.967,5.076,5.076,0,0,0-7.142-6.838A44.071,44.071,0,0,0,52.151,3.77a5.077,5.077,0,0,0-9.861.2A44.132,44.132,0,0,0,20.4,13.329a5.079,5.079,0,0,0-7.048,7.1A44.1,44.1,0,0,0,4.112,42.448,5.08,5.08,0,0,0,3.99,52.4a44.082,44.082,0,0,0,8.949,22.468,5.078,5.078,0,0,0,6.9,7.17,44.128,44.128,0,0,0,22.412,9.8,5.078,5.078,0,0,0,9.949.2,44.091,44.091,0,0,0,22.985-9.08,5.077,5.077,0,0,0,7.107-6.874A44.147,44.147,0,0,0,92.2,52.349a5.078,5.078,0,0,0-.119-9.858M77.74,22.024a5.05,5.05,0,0,0,2.812-.851,41.913,41.913,0,0,1,9.25,21.3,5.086,5.086,0,0,0-3.246,2.351l-12.98-4.867c.01-.142.02-.286.02-.433a5.079,5.079,0,0,0-2.151-4.15l5.678-13.4a5.5,5.5,0,0,0,.616.041M75,21.216,69.354,34.523a5.026,5.026,0,0,0-5.594,3.23L40.279,32.344a4.941,4.941,0,0,0-.106-1.011l33.322-11.6A5.1,5.1,0,0,0,75,21.216M47.246,10.165a5.083,5.083,0,0,0,4.989-4.122,41.844,41.844,0,0,1,21.158,8.275,5.054,5.054,0,0,0-.735,2.625,5.335,5.335,0,0,0,.048.671L39.217,29.273a5.1,5.1,0,0,0-.92-.92l8.784-18.2c.056,0,.109.008.165.008M42.3,6.243A5.083,5.083,0,0,0,44.86,9.569L36.248,27.4a5.1,5.1,0,0,0-1.049-.109,5.045,5.045,0,0,0-2.9.91L22.1,19.678A5.052,5.052,0,0,0,21.923,15,41.877,41.877,0,0,1,42.3,6.243M10.041,46.332,31.153,35.442a5.064,5.064,0,0,0,4.006,2.014l7.236,23.129a5.166,5.166,0,0,0-1.12,1.239l-31.3-13.04a5.048,5.048,0,0,0,.187-1.348,5.107,5.107,0,0,0-.124-1.1m4.986-24.391a5.079,5.079,0,0,0,5.673-.484l10.079,8.417a5.068,5.068,0,0,0-.56,3.512L9.07,44.29A5.081,5.081,0,0,0,6.38,42.526a41.859,41.859,0,0,1,8.647-20.585m2.1,50.717a5.067,5.067,0,0,0-2.523.674A41.822,41.822,0,0,1,6.263,52.374,5.087,5.087,0,0,0,8.9,50.783l31.609,13.17a5.45,5.45,0,0,0-.041.611,5.081,5.081,0,0,0,.3,1.718L21.657,75.44a5.081,5.081,0,0,0-4.528-2.782M42.349,89.575a41.919,41.919,0,0,1-20.912-9.149,5.029,5.029,0,0,0,.775-2.686l0-.058L42,68.2A5.082,5.082,0,0,0,43.8,69.329l1.186,17.043a5.082,5.082,0,0,0-2.632,3.2m2.105-29.97-7.081-22.64a5.089,5.089,0,0,0,2.415-2.415L63.459,40a5.052,5.052,0,0,0,.808,2.311L48.032,60.13a5.019,5.019,0,0,0-3.577-.524m7.74,30.167a5.081,5.081,0,0,0-4.948-3.937l-.038,0L46.081,69.62a5.073,5.073,0,0,0,3.106-1.507L72.853,78.551c0,.046-.008.086-.008.132a5.057,5.057,0,0,0,.752,2.65,41.841,41.841,0,0,1-21.4,8.439M73.423,76.334,50.373,66.165a5.052,5.052,0,0,0-.666-4.52L65.893,43.877a5.052,5.052,0,0,0,2.622.735,5.594,5.594,0,0,0,.623-.041l6.05,29.836a5.071,5.071,0,0,0-1.766,1.928m7.292-1.9a5.051,5.051,0,0,0-3.377-.8L71.285,43.788a5.1,5.1,0,0,0,1.6-1.672L85.858,46.98a4.506,4.506,0,0,0-.023.456,5.08,5.08,0,0,0,4.084,4.981,41.876,41.876,0,0,1-9.2,22.017" transform="translate(0 0.001)" fill="#1e535a"/>
        </g>
      </g>
    </g>
    <g id="Elipse_13614" data-name="Elipse 13614" transform="translate(1497.965 8579)" fill="#d5f4f8" stroke="#1e535a" stroke-width="3">
      <ellipse cx="31.232" cy="31.233" rx="31.232" ry="31.233" stroke="none"/>
      <ellipse cx="31.232" cy="31.233" rx="29.732" ry="29.733" fill="none"/>
    </g>
    <g id="Grupo_1212877" data-name="Grupo 1212877" transform="translate(1510.232 8591.469)">
      <g id="Grupo_1212876" data-name="Grupo 1212876" clip-path="url(#clip-path-2)">
        <path id="Sustracción_119" data-name="Sustracción 119" d="M3223.159,7881.854a13.427,13.427,0,1,1,9.495-3.933A13.339,13.339,0,0,1,3223.159,7881.854Zm0-22.373h-.04a1.109,1.109,0,0,0-1.074,1.12l0,7.42-4.308,5.41a.908.908,0,0,0-.171.747,1.243,1.243,0,0,0,.555.818,1.067,1.067,0,0,0,.542.15,1.269,1.269,0,0,0,.981-.528l4.346-5.428a1.478,1.478,0,0,0,.291-.813l0-7.77A1.1,1.1,0,0,0,3223.159,7859.482Z" transform="translate(-3204.264 -7849.406)" fill="#1e535a" stroke="rgba(0,0,0,0)" stroke-miterlimit="10" stroke-width="1"/>
        <path id="Trazado_1278549" data-name="Trazado 1278549" d="M100.393,34.489a16.8,16.8,0,1,0-.018-30.926,1.105,1.105,0,0,1-1.42-.692,1.144,1.144,0,0,1,.763-1.453,19.03,19.03,0,1,1-.147,35.14,1.113,1.113,0,0,1,.823-2.068" transform="translate(-88.064 -0.001)" fill="#1e535a"/>
        <path id="Trazado_1278550" data-name="Trazado 1278550" d="M34.071,38.451a1.121,1.121,0,0,1-1.606.2,1.134,1.134,0,0,1-.137-1.615,19.924,19.924,0,0,1,3.557-3.554,1.123,1.123,0,1,1,1.418,1.74,17.084,17.084,0,0,0-3.231,3.229" transform="translate(-28.545 -29.585)" fill="#1e535a"/>
        <path id="Trazado_1278551" data-name="Trazado 1278551" d="M3.431,189.485a1.088,1.088,0,0,1-.6,1.42,1.13,1.13,0,0,1-1.448-.555,19.054,19.054,0,0,1-1.363-5.075,1.129,1.129,0,0,1,.9-1.2A1.1,1.1,0,0,1,2.233,185a18.89,18.89,0,0,0,1.2,4.482" transform="translate(-0.01 -163.906)" fill="#1e535a"/>
        <path id="Trazado_1278552" data-name="Trazado 1278552" d="M37.242,266.076a1.131,1.131,0,0,1,.224,1.532,1.113,1.113,0,0,1-1.57.249,18.277,18.277,0,0,1-3.714-3.726,1.1,1.1,0,0,1,.276-1.526,1.115,1.115,0,0,1,1.554.246,17.162,17.162,0,0,0,3.23,3.226" transform="translate(-28.483 -233.668)" fill="#1e535a"/>
        <path id="Trazado_1278553" data-name="Trazado 1278553" d="M2.232,106.122a1.112,1.112,0,0,1-1.312.967A1.133,1.133,0,0,1,.012,105.8a19.618,19.618,0,0,1,1.358-4.983,1.117,1.117,0,0,1,1.451-.558,1.088,1.088,0,0,1,.6,1.422,18.422,18.422,0,0,0-1.187,4.437" transform="translate(0 -89.216)" fill="#1e535a"/>
      </g>
    </g>
  </g>
</svg>
