<svg xmlns="http://www.w3.org/2000/svg" xmlns:xlink="http://www.w3.org/1999/xlink" width="133" height="133" viewBox="0 0 133 133">
  <defs>
    <clipPath id="clip-path">
      <rect id="Rectángulo_454829" data-name="Rectángulo 454829" width="133" height="133" fill="#1e535a"/>
    </clipPath>
    <clipPath id="clip-path-2">
      <rect id="Rectángulo_462413" data-name="Rectángulo 462413" width="50.117" height="50.931" fill="#1e535a"/>
    </clipPath>
  </defs>
  <g id="Grupo_1177822" data-name="Grupo 1177822" transform="translate(-185.559 -4324.325)">
    <g id="Grupo_1177591" data-name="Grupo 1177591" transform="translate(185.559 4324.325)">
      <g id="Grupo_1177589" data-name="Grupo 1177589" transform="translate(0 0)">
        <g id="Grupo_1177587" data-name="Grupo 1177587" clip-path="url(#clip-path)">
          <path id="Trazado_997422" data-name="Trazado 997422" d="M127.57,58.867a61.147,61.147,0,0,0-13.812-31.819,7.032,7.032,0,0,0-9.895-9.474A61.057,61.057,0,0,0,72.251,5.223,7.034,7.034,0,0,0,58.59,5.5,61.141,61.141,0,0,0,28.26,18.467,7.036,7.036,0,0,0,18.495,28.3,61.09,61.09,0,0,0,5.7,58.808a7.039,7.039,0,0,0-.168,13.784,61.072,61.072,0,0,0,12.4,31.127,7.035,7.035,0,0,0,9.558,9.934,61.136,61.136,0,0,0,31.05,13.58,7.036,7.036,0,0,0,13.784.277,61.084,61.084,0,0,0,31.843-12.58,7.034,7.034,0,0,0,9.846-9.523,61.162,61.162,0,0,0,13.728-32.882,7.036,7.036,0,0,0-.165-13.658M107.7,30.513a7,7,0,0,0,3.9-1.179A58.067,58.067,0,0,1,124.414,58.85a7.046,7.046,0,0,0-4.5,3.257l-17.982-6.743c.014-.2.028-.4.028-.6a7.036,7.036,0,0,0-2.98-5.749l7.866-18.558a7.621,7.621,0,0,0,.853.056m-3.8-1.12L96.085,47.828a6.963,6.963,0,0,0-7.75,4.475L55.8,44.81a6.845,6.845,0,0,0-.147-1.4L101.82,27.333a7.058,7.058,0,0,0,2.081,2.06M65.456,14.082a7.041,7.041,0,0,0,6.911-5.711A57.971,57.971,0,0,1,101.68,19.835a7,7,0,0,0-1.018,3.636,7.392,7.392,0,0,0,.067.93l-46.4,16.153a7.062,7.062,0,0,0-1.274-1.274L65.228,14.072c.077,0,.151.011.228.011M58.608,8.649a7.043,7.043,0,0,0,3.542,4.609L50.219,37.965a7.061,7.061,0,0,0-1.453-.151,6.99,6.99,0,0,0-4.012,1.26L30.611,27.263a7,7,0,0,0-.239-6.48A58.017,58.017,0,0,1,58.608,8.649m-44.7,55.54L43.16,49.1a7.015,7.015,0,0,0,5.549,2.791L58.734,83.936a7.157,7.157,0,0,0-1.551,1.716L13.823,67.586a6.994,6.994,0,0,0,.26-1.867,7.076,7.076,0,0,0-.172-1.53M20.818,30.4a7.036,7.036,0,0,0,7.859-.67L42.64,41.387a7.022,7.022,0,0,0-.776,4.865L12.566,61.36a7.039,7.039,0,0,0-3.728-2.443A57.992,57.992,0,0,1,20.818,30.4m2.913,70.265a7.02,7.02,0,0,0-3.5.934A57.94,57.94,0,0,1,8.677,72.56a7.047,7.047,0,0,0,3.654-2.2L56.122,88.6a7.55,7.55,0,0,0-.056.846,7.04,7.04,0,0,0,.421,2.38L30,104.516a7.04,7.04,0,0,0-6.272-3.854M58.671,124.1A58.075,58.075,0,0,1,29.7,111.424a6.967,6.967,0,0,0,1.074-3.721l0-.081L58.19,94.481a7.041,7.041,0,0,0,2.485,1.569l1.643,23.612a7.041,7.041,0,0,0-3.647,4.437m2.917-41.521L51.777,51.212a7.051,7.051,0,0,0,3.345-3.345l32.795,7.55a7,7,0,0,0,1.12,3.2L66.544,83.3a6.954,6.954,0,0,0-4.956-.727m10.723,41.794a7.039,7.039,0,0,0-6.855-5.455l-.053,0L63.841,96.453a7.028,7.028,0,0,0,4.3-2.088l32.788,14.462c0,.063-.011.119-.011.183a7.006,7.006,0,0,0,1.042,3.672,57.968,57.968,0,0,1-29.653,11.692m29.411-18.617L69.787,91.666a7,7,0,0,0-.923-6.262L91.29,60.787a7,7,0,0,0,3.633,1.018,7.75,7.75,0,0,0,.863-.056l8.382,41.335a7.025,7.025,0,0,0-2.447,2.671m10.1-2.633a7,7,0,0,0-4.679-1.106L98.759,60.665a7.069,7.069,0,0,0,2.218-2.317l17.972,6.739a6.245,6.245,0,0,0-.032.632,7.039,7.039,0,0,0,5.658,6.9,58.016,58.016,0,0,1-12.752,30.5" transform="translate(0 0.001)" fill="#1e535a"/>
        </g>
      </g>
    </g>
    <g id="Elipse_13614" data-name="Elipse 13614" transform="translate(210.273 4348.213)" fill="#fff" stroke="#1e535a" stroke-width="3">
      <ellipse cx="42.232" cy="42.233" rx="42.232" ry="42.233" stroke="none"/>
      <ellipse cx="42.232" cy="42.233" rx="40.732" ry="40.733" fill="none"/>
    </g>
    <g id="Grupo_1212788" data-name="Grupo 1212788" transform="translate(227.558 4365.325)">
      <g id="Grupo_1212787" data-name="Grupo 1212787" clip-path="url(#clip-path-2)">
        <path id="Trazado_1278235" data-name="Trazado 1278235" d="M29.652,9.874c-1.632,0-2.919.722-3.185,2.344l-1.46.6c-1.374-.975-2.792-.505-3.889.61-1.073,1.091-1.668,2.467-.609,3.846l-.617,1.519c-1.629.244-2.3,1.563-2.308,3.1,0,1.55.527,2.933,2.267,3.228l.671,1.49c-1.038,1.371-.524,2.78.6,3.887,1.091,1.077,2.463,1.664,3.865.6l1.423.649.753,1.48.031,3.53-9.578.005a12.475,12.475,0,0,1-.424-24.929,12.48,12.48,0,0,1,24.926,0,12.474,12.474,0,0,1-.571,24.929l-9.428-.007.022-3.534a6,6,0,0,0,.7-1.443l1.5-.681c1.378,1.07,2.764.477,3.846-.6s1.662-2.471.609-3.845l.616-1.5c1.705-.311,2.343-1.649,2.311-3.262-.03-1.47-.593-2.834-2.27-3.064l-.654-1.552c1.052-1.372.472-2.756-.611-3.842s-2.463-1.619-3.845-.614l-1.505-.588c-.258-1.636-1.556-2.348-3.18-2.349" transform="translate(-4.593 0)" fill="#1e535a"/>
        <path id="Trazado_1278236" data-name="Trazado 1278236" d="M38.326,118.638l-26.458,0a2.276,2.276,0,0,1-2.292-2.2l-.052-2.326L.9,114.117a.853.853,0,0,1-.891-.669.791.791,0,0,1,.749-.943l8.765-.005.048-2.288a2.323,2.323,0,0,1,2.571-2.249l12.089.009-.009-7.927a1.414,1.414,0,0,1-.782-1.034,1.646,1.646,0,0,0-.591-.964l-2.213-.913c-.709-.292-1.608,1.184-2.552.24l-.734-.733c-.948-.947.534-1.821.236-2.555l-.9-2.214c-.327-.805-2.154-.25-2.019-1.995.031-.4-.042-1.324.3-1.481l1.637-.722.981-2.416c.271-.667-1.048-1.7-.39-2.383l.886-.914c.831-.858,1.435.216,2.471.3l2.386-1c.819-.855.258-2.031,1.929-1.975.369.012,1.274-.017,1.468.3l.723,1.641,2.511,1.047c.968-.1,1.656-1.1,2.37-.388l.9.9c.717.718-.276,1.385-.364,2.372l1.032,2.515,1.632.723c.357.158.266,1.1.295,1.471.126,1.623-1.188,1.144-1.965,1.923l-.952,2.3c-.3.714,1.189,1.617.241,2.553l-.825.816c-.784.775-1.817-.563-2.383-.338l-1.733.689c-.585.233-1,.449-1.115,1.122a1.7,1.7,0,0,1-.813,1.143l-.012,7.9H38.12a2.241,2.241,0,0,1,2.41,2.106l.06,2.427,8.625-.005a.84.84,0,0,1,.894.67.808.808,0,0,1-.753.943l-8.764,0-.052,2.334a2.256,2.256,0,0,1-2.214,2.189m-8.67-28.966a4.6,4.6,0,1,0-4.6,4.6,4.6,4.6,0,0,0,4.6-4.6m1.357,24.45a.9.9,0,0,0,.676-.815.949.949,0,0,0-.6-.805l-17.474,0a.808.808,0,0,0-.736.938.892.892,0,0,0,.878.679Zm5.471,0c.412.028.779-.492.78-.814,0-.252-.317-.76-.591-.782a5.445,5.445,0,0,0-1.57.051c-.2.049-.426.522-.424.731s.221.708.438.723Z" transform="translate(0 -67.711)" fill="#1e535a"/>
        <path id="Trazado_1278237" data-name="Trazado 1278237" d="M157.389,133.213a2.953,2.953,0,1,1-2.953-2.953,2.953,2.953,0,0,1,2.953,2.953" transform="translate(-129.378 -111.252)" fill="#1e535a"/>
      </g>
    </g>
  </g>
</svg>
