<svg xmlns="http://www.w3.org/2000/svg" xmlns:xlink="http://www.w3.org/1999/xlink" width="91" height="91" viewBox="0 0 91 91">
  <defs>
    <clipPath id="clip-path">
      <rect id="Rectángulo_462556" data-name="Rectángulo 462556" width="64" height="55.091" fill="none"/>
    </clipPath>
  </defs>
  <g id="Grupo_1212023" data-name="Grupo 1212023" transform="translate(-751.711 -2638.394)">
    <circle id="Elipse_13734" data-name="Elipse 13734" cx="45.5" cy="45.5" r="45.5" transform="translate(751.711 2638.394)" fill="#fff"/>
    <g id="Grupo_1212934" data-name="Grupo 1212934" transform="translate(766.426 2657.394)">
      <g id="Grupo_1212933" data-name="Grupo 1212933" clip-path="url(#clip-path)">
        <path id="Trazado_1278834" data-name="Trazado 1278834" d="M47.232,55.082l-30.4.008a1.59,1.59,0,0,1-1.228-.588,1.5,1.5,0,0,1-.2-1.553l3.116-5.4L4.071,47.5A4.1,4.1,0,0,1,0,43.652l0-39.8A4.121,4.121,0,0,1,4.1,0H59.9A4.127,4.127,0,0,1,64,3.852l0,39.8A4.1,4.1,0,0,1,59.932,47.5l-14.45.043,3.116,5.4a1.607,1.607,0,0,1-.112,1.428,1.464,1.464,0,0,1-1.253.7m14.8-15,.005-35.925A2.265,2.265,0,0,0,59.71,1.988l-55.586,0A2.239,2.239,0,0,0,1.98,4.235l0,35.85ZM59.8,45.508a2.184,2.184,0,0,0,2.185-1.842,5.579,5.579,0,0,0,.009-1.576H2.012l-.034,1.242A2.149,2.149,0,0,0,4.124,45.5ZM44.99,53.058l-3.218-5.529-20.9.009-3.2,5.528Z" transform="translate(0 0.001)" fill="#030404"/>
        <path id="Trazado_1278835" data-name="Trazado 1278835" d="M266.238,144.911l-10.505,0a1.307,1.307,0,0,1-1.431-1.3,6.683,6.683,0,0,1,3.861-5.818,4.1,4.1,0,1,1,5.65,0,6.645,6.645,0,0,1,3.837,5.941,1.31,1.31,0,0,1-1.412,1.171m-3.169-10.091a2.085,2.085,0,1,0-2.085,2.085,2.085,2.085,0,0,0,2.085-2.085m2.489,8.007a4.7,4.7,0,0,0-9.155.075Z" transform="translate(-207.418 -106.618)" fill="#030404"/>
        <path id="Trazado_1278836" data-name="Trazado 1278836" d="M274.856,180.453l-9.155.075a4.7,4.7,0,0,1,9.155-.075" transform="translate(-216.717 -144.243)" fill="#ffb851"/>
        <path id="Trazado_1278837" data-name="Trazado 1278837" d="M283.417,143.758a2.085,2.085,0,1,1-2.085-2.085,2.084,2.084,0,0,1,2.085,2.085" transform="translate(-227.766 -115.554)" fill="#f8d0b8"/>
        <path id="Trazado_1278838" data-name="Trazado 1278838" d="M70.78,48.887l-60.053,0,0-35.85a2.24,2.24,0,0,1,2.144-2.245l55.587,0a2.265,2.265,0,0,1,2.326,2.174ZM24.646,26.8a1.446,1.446,0,0,0,1.231-1.619,6.845,6.845,0,0,0-3.87-5.519,4.1,4.1,0,1,0-5.652,0,6.79,6.79,0,0,0-3.871,5.689,1.417,1.417,0,0,0,1.3,1.448Zm42.994,0A1.483,1.483,0,0,0,69,25.034a6.908,6.908,0,0,0-3.864-5.376,4.1,4.1,0,1,0-5.646,0,6.892,6.892,0,0,0-3.862,5.348,1.464,1.464,0,0,0,1.3,1.789ZM42.873,43.687c1.251,0,.918-1.317,1.147-2.392a23.663,23.663,0,0,0,2.563-1.014c.264,0,.623.471.778.656a1.147,1.147,0,0,0,1.789.105l2.762-2.76a1.206,1.206,0,0,0,.4-1.02c-.07-.7-.831-.931-1.147-1.57a22.8,22.8,0,0,0,1.105-2.706l1.306-.005a1,1,0,0,0,1.016-1.012l.01-4.2c0-1.35-1.3-.9-2.364-1.211a26.94,26.94,0,0,0-1.068-2.521c.559-.83,1.7-1.615.94-2.386l-3.016-3.058a1.088,1.088,0,0,0-1.663.091,2.994,2.994,0,0,1-.873.781,11.1,11.1,0,0,0-2.6-1.079,3.549,3.549,0,0,1-.049-1.135,1.047,1.047,0,0,0-1.049-1.242L38.64,16c-1.588,0-.771,2.222-1.209,2.381a11.914,11.914,0,0,0-2.511,1.122l-1.155-1.077a.927.927,0,0,0-1.253.079L29.64,21.348a1.243,1.243,0,0,0-.458.971c.041.819.9,1.07,1.155,1.716a16.961,16.961,0,0,0-1.079,2.625,5.113,5.113,0,0,1-1.136.035A1.049,1.049,0,0,0,26.9,27.769l.007,4.2a1.015,1.015,0,0,0,1.018,1.014l1.35.06a17.88,17.88,0,0,0,1.053,2.652c-.3.635-1.07.868-1.141,1.567a1.206,1.206,0,0,0,.4,1.02l2.758,2.766a1.165,1.165,0,0,0,1.779-.1c.17-.2.537-.668.8-.648.871.344,1.645.722,2.551,1,.185.161.157.767.119,1.016a1.122,1.122,0,0,0,1.1,1.383ZM24.522,47.1a1.33,1.33,0,0,0,1.353-1.469A6.758,6.758,0,0,0,22,39.978,4.094,4.094,0,1,0,16.378,40a6.683,6.683,0,0,0-3.9,5.641A1.358,1.358,0,0,0,13.925,47.1Zm43.047,0a1.311,1.311,0,0,0,1.412-1.171,6.646,6.646,0,0,0-3.837-5.941,4.1,4.1,0,1,0-5.65,0A6.683,6.683,0,0,0,55.632,45.8a1.307,1.307,0,0,0,1.431,1.3Z" transform="translate(-8.749 -8.799)" fill="#e4f5fc"/>
        <path id="Trazado_1278839" data-name="Trazado 1278839" d="M32.407,34.725H21.54a1.418,1.418,0,0,1-1.3-1.448,6.79,6.79,0,0,1,3.871-5.689,4.1,4.1,0,1,1,5.652,0,6.844,6.844,0,0,1,3.87,5.519,1.445,1.445,0,0,1-1.231,1.619M29.025,24.6a2.083,2.083,0,1,0-2.083,2.083A2.083,2.083,0,0,0,29.025,24.6m2.5,8.052a4.691,4.691,0,0,0-9.164.078Z" transform="translate(-16.51 -16.727)" fill="#030404"/>
        <path id="Trazado_1278840" data-name="Trazado 1278840" d="M40.9,70.254l-9.164.078a4.691,4.691,0,0,1,9.164-.078" transform="translate(-25.888 -54.328)" fill="#69d7e5"/>
        <path id="Trazado_1278841" data-name="Trazado 1278841" d="M49.455,33.5a2.083,2.083,0,1,1-2.083-2.083A2.083,2.083,0,0,1,49.455,33.5" transform="translate(-36.94 -25.622)" fill="#f8d0b8"/>
        <path id="Trazado_1278842" data-name="Trazado 1278842" d="M68.541,231.722l-55.672-.011a2.149,2.149,0,0,1-2.146-2.164l.034-1.242H70.735a5.585,5.585,0,0,1-.009,1.576,2.184,2.184,0,0,1-2.185,1.842" transform="translate(-8.745 -186.213)" fill="#344866"/>
        <path id="Trazado_1278843" data-name="Trazado 1278843" d="M266.223,34.727l-10.713-.006a1.464,1.464,0,0,1-1.3-1.789,6.892,6.892,0,0,1,3.862-5.348,4.1,4.1,0,1,1,5.646,0,6.908,6.908,0,0,1,3.864,5.377,1.483,1.483,0,0,1-1.364,1.768M262.98,24.6a2.082,2.082,0,1,0-2.081,2.081A2.082,2.082,0,0,0,262.98,24.6m2.527,8.091a4.713,4.713,0,0,0-9.209.031Z" transform="translate(-207.332 -16.724)" fill="#030404"/>
        <path id="Trazado_1278844" data-name="Trazado 1278844" d="M274.814,70.26l-9.209.031a4.713,4.713,0,0,1,9.209-.031" transform="translate(-216.638 -54.295)" fill="#ffd453"/>
        <path id="Trazado_1278845" data-name="Trazado 1278845" d="M283.431,33.5a2.082,2.082,0,1,1-2.082-2.082,2.082,2.082,0,0,1,2.082,2.082" transform="translate(-227.782 -25.627)" fill="#f8d0b8"/>
        <path id="Trazado_1278846" data-name="Trazado 1278846" d="M123.176,263.343l-27.318.008,3.2-5.528,20.9-.009Z" transform="translate(-78.186 -210.284)" fill="#344866"/>
        <path id="Trazado_1278847" data-name="Trazado 1278847" d="M114.439,66.753l-4.173.008a1.122,1.122,0,0,1-1.1-1.383c.038-.249.066-.854-.119-1.016-.906-.273-1.68-.651-2.551-.995-.266-.02-.633.447-.8.648a1.165,1.165,0,0,1-1.779.1l-2.758-2.765a1.206,1.206,0,0,1-.4-1.02c.071-.7.838-.932,1.141-1.567a17.831,17.831,0,0,1-1.053-2.652l-1.35-.06a1.014,1.014,0,0,1-1.018-1.014l-.007-4.2a1.049,1.049,0,0,1,1.219-1.073,5.1,5.1,0,0,0,1.136-.036A16.941,16.941,0,0,1,101.9,47.1c-.253-.646-1.114-.9-1.154-1.717a1.242,1.242,0,0,1,.458-.971l2.872-2.841a.927.927,0,0,1,1.253-.079l1.155,1.077A11.912,11.912,0,0,1,109,41.449c.438-.159-.379-2.383,1.209-2.381l4.219.005a1.047,1.047,0,0,1,1.049,1.242,3.545,3.545,0,0,0,.049,1.136,11.092,11.092,0,0,1,2.6,1.079,3,3,0,0,0,.873-.781,1.088,1.088,0,0,1,1.663-.091l3.016,3.058c.761.772-.381,1.557-.94,2.386a26.941,26.941,0,0,1,1.068,2.521c1.061.307,2.368-.139,2.364,1.211l-.01,4.2a1,1,0,0,1-1.016,1.012l-1.306.006a22.8,22.8,0,0,1-1.105,2.706c.317.639,1.078.875,1.147,1.57a1.207,1.207,0,0,1-.4,1.02l-2.762,2.76A1.147,1.147,0,0,1,118.928,64c-.155-.185-.514-.657-.778-.656a23.707,23.707,0,0,1-2.564,1.014c-.229,1.075.1,2.39-1.147,2.392m3.316-5.6c.928-.672,1.414.428,2.185.811a7.157,7.157,0,0,0,1.477-1.581c-.4-.333-1.3-1.021-1.04-1.576a16.926,16.926,0,0,0,1.608-3.932c.177-.931,1.075-.784,2.062-.951l.008-2.024c-.882-.245-1.863.1-2.091-1.042a15.111,15.111,0,0,0-1.583-3.768c-.288-.581.563-1.266,1.05-1.612a7.33,7.33,0,0,0-1.619-1.683c-.376.508-1.114,1.329-1.717.994a17.6,17.6,0,0,0-4.082-1.695c-.646-.175-.75-1.264-.583-1.919a4.9,4.9,0,0,0-2.308.045c.115.508.153,1.672-.384,1.822a22.474,22.474,0,0,0-4.314,1.776c-.544.279-1.286-.609-1.6-1.018a5.726,5.726,0,0,0-1.616,1.677c.455.311,1.3,1.059,1.014,1.569a22.857,22.857,0,0,0-1.8,4.323c-.184.58-1.415.416-1.862.414a6.927,6.927,0,0,0,.014,2.3c.544-.1,1.714-.173,1.876.406a21.617,21.617,0,0,0,1.785,4.314c.279.533-.617,1.287-1.022,1.573a7.154,7.154,0,0,0,1.566,1.657l.681-.673a1.093,1.093,0,0,1,1.3-.269,14.229,14.229,0,0,0,4.032,1.7c.523.232.413,1.322.34,1.846a3.665,3.665,0,0,0,2.3-.1c-.449-2.645,1.736-1.506,4.33-3.384" transform="translate(-80.315 -31.865)" fill="#030404"/>
        <path id="Trazado_1278848" data-name="Trazado 1278848" d="M126.587,69.968c-2.594,1.879-4.779.739-4.33,3.384a3.666,3.666,0,0,1-2.3.1c.073-.524.183-1.614-.34-1.846a14.229,14.229,0,0,1-4.032-1.7,1.093,1.093,0,0,0-1.3.27l-.681.672a7.151,7.151,0,0,1-1.566-1.657c.405-.286,1.3-1.041,1.022-1.573a21.618,21.618,0,0,1-1.785-4.314c-.163-.579-1.332-.5-1.876-.406a6.927,6.927,0,0,1-.014-2.3c.447,0,1.678.166,1.862-.414a22.854,22.854,0,0,1,1.8-4.322c.282-.51-.559-1.258-1.014-1.569a5.725,5.725,0,0,1,1.616-1.677c.314.409,1.056,1.3,1.6,1.018a22.462,22.462,0,0,1,4.314-1.776c.537-.15.5-1.314.384-1.822a4.9,4.9,0,0,1,2.308-.045c-.167.655-.064,1.744.583,1.919a17.608,17.608,0,0,1,4.082,1.695c.6.335,1.342-.486,1.717-.994a7.33,7.33,0,0,1,1.619,1.683c-.487.346-1.338,1.032-1.05,1.612a15.108,15.108,0,0,1,1.583,3.768c.228,1.139,1.209.8,2.091,1.042l-.008,2.024c-.987.167-1.885.02-2.062.951a16.923,16.923,0,0,1-1.608,3.932c-.257.555.638,1.244,1.04,1.576a7.153,7.153,0,0,1-1.477,1.581c-.771-.383-1.257-1.483-2.185-.811m2.782-8.245a8.222,8.222,0,1,0-8.222,8.222,8.222,8.222,0,0,0,8.222-8.222" transform="translate(-89.146 -40.679)" fill="#435456"/>
        <path id="Trazado_1278849" data-name="Trazado 1278849" d="M145.422,77.769a8.222,8.222,0,1,1-8.222-8.222,8.222,8.222,0,0,1,8.222,8.222m-14.385.67a6.211,6.211,0,0,0,.13.758q.045.192.1.381a6.2,6.2,0,1,0-.233-1.14" transform="translate(-105.2 -56.725)" fill="#030404"/>
        <path id="Trazado_1278850" data-name="Trazado 1278850" d="M151.706,89.486c-1.135.15-1.439,1.8-2.681,1.33-.606-.231-.471-.876-.618-1.329.386.138,1.022.312,1.36-.025l2.037-2.03a.977.977,0,0,0,.021-1.36l-2.142-2.108c-.415-.408-.955-.092-1.266.154-.453.357-.123.866-.224,1.24l-1.431,5.319a1.017,1.017,0,0,1-1.294.763,1.286,1.286,0,0,1-.69-1.412c.4.253,1.392.343,1.566-.294l1.439-5.264a.947.947,0,0,0-.77-1.219.989.989,0,0,0-1.136.673l-1.154,4.182a7.543,7.543,0,0,0-.212,1.706,1.388,1.388,0,0,1-.692,1.029,1.194,1.194,0,0,1-1.222-.331l-1.643-1.687a.745.745,0,0,0-.732-.287q-.057-.189-.1-.382a.344.344,0,0,0,.4-.129.981.981,0,0,0,.055-.432l1.958,1.86a.982.982,0,0,0,1.407-.176c.67-.877-.263-1.418-.925-2.305a5.553,5.553,0,0,0,.9-1.357c.176-.476.409-.943.064-1.386-.277-.357-.929-.68-1.348-.264l-2.232,2.217c-.322.32-.162.871-.05,1.2a1,1,0,0,0-.354.018,6.2,6.2,0,1,1,11.718,2.09" transform="translate(-114.151 -65.683)" fill="#e4f5fc"/>
        <path id="Trazado_1278851" data-name="Trazado 1278851" d="M149.8,107.133a1.036,1.036,0,0,0,.59,1.306,4.2,4.2,0,0,1-.559.661c-.744.561-.44,1.135-.238,1.756.147.453.012,1.1.618,1.329,1.243.474,1.547-1.18,2.681-1.331a6.2,6.2,0,0,1-11.485-.95.744.744,0,0,1,.732.287l1.643,1.687a1.194,1.194,0,0,0,1.222.331,1.388,1.388,0,0,0,.692-1.029c.129.006.277.135.267.216a1.286,1.286,0,0,0,.69,1.412,1.017,1.017,0,0,0,1.294-.763l1.431-5.319c.33,0,.309.318.421.4" transform="translate(-115.341 -87.052)" fill="#f4f4f4"/>
        <path id="Trazado_1278852" data-name="Trazado 1278852" d="M140.5,117.628l.227.215a.98.98,0,0,1-.054.432.345.345,0,0,1-.4.129,6.283,6.283,0,0,1-.13-.758,1.011,1.011,0,0,1,.354-.018" transform="translate(-114.31 -95.933)" fill="#f4f4f4"/>
        <path id="Trazado_1278853" data-name="Trazado 1278853" d="M145.012,99.945c-.71.394-1.338,1.031-1.126,1.253a.91.91,0,0,0,.228.1c.662.887,1.6,1.428.925,2.305a.982.982,0,0,1-1.407.176l-1.958-1.86-.227-.215c-.112-.327-.272-.878.05-1.2l2.232-2.217c.419-.416,1.071-.093,1.348.264.345.444.112.911-.064,1.387" transform="translate(-115.255 -80.013)" fill="#030404"/>
        <path id="Trazado_1278854" data-name="Trazado 1278854" d="M184.771,103.822c-.2-.621-.506-1.2.238-1.756a4.208,4.208,0,0,0,.559-.661c.092-.082.442-.153.374-.359-.18-.459-.7-.74-.965-.947-.111-.087-.091-.4-.421-.4.1-.374-.228-.883.224-1.24.311-.245.852-.562,1.266-.154l2.142,2.108a.977.977,0,0,1-.021,1.36l-2.037,2.03c-.338.337-.974.163-1.36.025" transform="translate(-150.514 -80.017)" fill="#030404"/>
        <path id="Trazado_1278855" data-name="Trazado 1278855" d="M164.949,102.01c.01-.081-.138-.211-.267-.216a7.543,7.543,0,0,1,.212-1.706l1.154-4.182a.988.988,0,0,1,1.135-.673.947.947,0,0,1,.77,1.219l-1.44,5.264c-.174.636-1.166.546-1.565.293" transform="translate(-134.321 -77.664)" fill="#030404"/>
        <path id="Trazado_1278856" data-name="Trazado 1278856" d="M155.346,109.47a.9.9,0,0,1-.228-.1c-.212-.222.416-.858,1.126-1.252a5.556,5.556,0,0,1-.9,1.357" transform="translate(-126.487 -88.181)" fill="#f8d0b8"/>
        <path id="Trazado_1278857" data-name="Trazado 1278857" d="M187.307,110.23a1.036,1.036,0,0,1-.59-1.306c.265.207.785.488.965.947.068.206-.282.277-.374.359" transform="translate(-152.253 -88.843)" fill="#f8d0b8"/>
        <path id="Trazado_1278858" data-name="Trazado 1278858" d="M32.268,144.916h-10.6a1.358,1.358,0,0,1-1.444-1.452,6.683,6.683,0,0,1,3.9-5.64A4.091,4.091,0,0,1,23.968,132a4.094,4.094,0,1,1,5.781,5.8,6.757,6.757,0,0,1,3.872,5.65,1.33,1.33,0,0,1-1.353,1.469m-3.256-10.095a2.084,2.084,0,1,0-2.084,2.084,2.084,2.084,0,0,0,2.084-2.084m2.484,8.084a4.683,4.683,0,0,0-9.149,0Z" transform="translate(-16.495 -106.618)" fill="#030404"/>
        <path id="Trazado_1278859" data-name="Trazado 1278859" d="M40.892,180.541l-9.149,0a4.683,4.683,0,0,1,9.149,0" transform="translate(-25.891 -144.254)" fill="#6cb9ff"/>
        <path id="Trazado_1278860" data-name="Trazado 1278860" d="M49.456,143.763a2.084,2.084,0,1,1-2.084-2.084,2.084,2.084,0,0,1,2.084,2.084" transform="translate(-36.94 -115.559)" fill="#f8d0b8"/>
      </g>
    </g>
  </g>
</svg>
