<svg xmlns="http://www.w3.org/2000/svg" xmlns:xlink="http://www.w3.org/1999/xlink" width="133" height="133" viewBox="0 0 133 133">
  <defs>
    <clipPath id="clip-path">
      <rect id="Rectángulo_454829" data-name="Rectángulo 454829" width="133" height="133" fill="#1e535a"/>
    </clipPath>
    <clipPath id="clip-path-2">
      <rect id="Rectángulo_462411" data-name="Rectángulo 462411" width="50" height="59.397" fill="#1e535a"/>
    </clipPath>
  </defs>
  <g id="Grupo_1177820" data-name="Grupo 1177820" transform="translate(-186 -4323.945)">
    <g id="Grupo_1177591" data-name="Grupo 1177591" transform="translate(186 4323.945)">
      <g id="Grupo_1177589" data-name="Grupo 1177589" transform="translate(0 0)">
        <g id="Grupo_1177587" data-name="Grupo 1177587" clip-path="url(#clip-path)">
          <path id="Trazado_997422" data-name="Trazado 997422" d="M127.57,58.867a61.147,61.147,0,0,0-13.812-31.819,7.032,7.032,0,0,0-9.895-9.474A61.057,61.057,0,0,0,72.251,5.223,7.034,7.034,0,0,0,58.59,5.5,61.141,61.141,0,0,0,28.26,18.467,7.036,7.036,0,0,0,18.495,28.3,61.09,61.09,0,0,0,5.7,58.808a7.039,7.039,0,0,0-.168,13.784,61.072,61.072,0,0,0,12.4,31.127,7.035,7.035,0,0,0,9.558,9.934,61.136,61.136,0,0,0,31.05,13.58,7.036,7.036,0,0,0,13.784.277,61.084,61.084,0,0,0,31.843-12.58,7.034,7.034,0,0,0,9.846-9.523,61.162,61.162,0,0,0,13.728-32.882,7.036,7.036,0,0,0-.165-13.658M107.7,30.513a7,7,0,0,0,3.9-1.179A58.067,58.067,0,0,1,124.414,58.85a7.046,7.046,0,0,0-4.5,3.257l-17.982-6.743c.014-.2.028-.4.028-.6a7.036,7.036,0,0,0-2.98-5.749l7.866-18.558a7.621,7.621,0,0,0,.853.056m-3.8-1.12L96.085,47.828a6.963,6.963,0,0,0-7.75,4.475L55.8,44.81a6.845,6.845,0,0,0-.147-1.4L101.82,27.333a7.058,7.058,0,0,0,2.081,2.06M65.456,14.082a7.041,7.041,0,0,0,6.911-5.711A57.971,57.971,0,0,1,101.68,19.835a7,7,0,0,0-1.018,3.636,7.392,7.392,0,0,0,.067.93l-46.4,16.153a7.062,7.062,0,0,0-1.274-1.274L65.228,14.072c.077,0,.151.011.228.011M58.608,8.649a7.043,7.043,0,0,0,3.542,4.609L50.219,37.965a7.061,7.061,0,0,0-1.453-.151,6.99,6.99,0,0,0-4.012,1.26L30.611,27.263a7,7,0,0,0-.239-6.48A58.017,58.017,0,0,1,58.608,8.649m-44.7,55.54L43.16,49.1a7.015,7.015,0,0,0,5.549,2.791L58.734,83.936a7.157,7.157,0,0,0-1.551,1.716L13.823,67.586a6.994,6.994,0,0,0,.26-1.867,7.076,7.076,0,0,0-.172-1.53M20.818,30.4a7.036,7.036,0,0,0,7.859-.67L42.64,41.387a7.022,7.022,0,0,0-.776,4.865L12.566,61.36a7.039,7.039,0,0,0-3.728-2.443A57.992,57.992,0,0,1,20.818,30.4m2.913,70.265a7.02,7.02,0,0,0-3.5.934A57.94,57.94,0,0,1,8.677,72.56a7.047,7.047,0,0,0,3.654-2.2L56.122,88.6a7.55,7.55,0,0,0-.056.846,7.04,7.04,0,0,0,.421,2.38L30,104.516a7.04,7.04,0,0,0-6.272-3.854M58.671,124.1A58.075,58.075,0,0,1,29.7,111.424a6.967,6.967,0,0,0,1.074-3.721l0-.081L58.19,94.481a7.041,7.041,0,0,0,2.485,1.569l1.643,23.612a7.041,7.041,0,0,0-3.647,4.437m2.917-41.521L51.777,51.212a7.051,7.051,0,0,0,3.345-3.345l32.795,7.55a7,7,0,0,0,1.12,3.2L66.544,83.3a6.954,6.954,0,0,0-4.956-.727m10.723,41.794a7.039,7.039,0,0,0-6.855-5.455l-.053,0L63.841,96.453a7.028,7.028,0,0,0,4.3-2.088l32.788,14.462c0,.063-.011.119-.011.183a7.006,7.006,0,0,0,1.042,3.672,57.968,57.968,0,0,1-29.653,11.692m29.411-18.617L69.787,91.666a7,7,0,0,0-.923-6.262L91.29,60.787a7,7,0,0,0,3.633,1.018,7.75,7.75,0,0,0,.863-.056l8.382,41.335a7.025,7.025,0,0,0-2.447,2.671m10.1-2.633a7,7,0,0,0-4.679-1.106L98.759,60.665a7.069,7.069,0,0,0,2.218-2.317l17.972,6.739a6.245,6.245,0,0,0-.032.632,7.039,7.039,0,0,0,5.658,6.9,58.016,58.016,0,0,1-12.752,30.5" transform="translate(0 0.001)" fill="#1e535a"/>
        </g>
      </g>
    </g>
    <g id="Elipse_13614" data-name="Elipse 13614" transform="translate(210.059 4348.325)" fill="#fff" stroke="#1e535a" stroke-width="3">
      <ellipse cx="42.232" cy="42.233" rx="42.232" ry="42.233" stroke="none"/>
      <ellipse cx="42.232" cy="42.233" rx="40.732" ry="40.733" fill="none"/>
    </g>
    <g id="Grupo_1212784" data-name="Grupo 1212784" transform="translate(227.059 4361.325)">
      <g id="Grupo_1212783" data-name="Grupo 1212783" clip-path="url(#clip-path-2)">
        <path id="Trazado_1278230" data-name="Trazado 1278230" d="M76.532,129.635l-28.553.006a2.779,2.779,0,0,1-2.8-2.586l-.044-4.067a2.706,2.706,0,0,1,2.412-2.8l2.406-.072.012-1.624c-.873-.008-1.669.009-2.584-.072a2.651,2.651,0,0,1-2.213-2.434l-.021-4.217a2.719,2.719,0,0,1,2.622-2.71l2.185-.036,0-1.574-2.4-.086a2.7,2.7,0,0,1-2.421-2.752l.032-4.058a2.644,2.644,0,0,1,2.6-2.577H76.663a2.648,2.648,0,0,1,2.6,2.577l.031,4.057a2.7,2.7,0,0,1-2.422,2.753l-2.39.084-.018,1.554,2.33.08a2.652,2.652,0,0,1,2.485,2.688l.012,3.892a2.668,2.668,0,0,1-2.424,2.784l-2.386.042,0,1.641a22.225,22.225,0,0,1,2.718.111,2.686,2.686,0,0,1,2.091,2.743v3.747a2.816,2.816,0,0,1-2.761,2.9M51.321,102.688a1.612,1.612,0,1,0-1.612,1.612,1.612,1.612,0,0,0,1.612-1.612m4.224,0a1.609,1.609,0,1,0-1.609,1.609,1.609,1.609,0,0,0,1.609-1.609m4.229,0a1.613,1.613,0,1,0-1.613,1.613,1.613,1.613,0,0,0,1.613-1.613m12.894,4.723h-20.9v1.634h20.9Zm-21.348,6.367a1.614,1.614,0,1,0-1.614,1.614,1.614,1.614,0,0,0,1.614-1.614m4.227,0a1.613,1.613,0,1,0-1.613,1.613,1.613,1.613,0,0,0,1.613-1.613m4.232,0a1.612,1.612,0,1,0-1.612,1.612,1.612,1.612,0,0,0,1.612-1.612m-8.008,6.407h20.9v-1.7H51.77Zm-.446,4.677a1.615,1.615,0,1,0-1.615,1.615,1.615,1.615,0,0,0,1.615-1.615m4.218,0a1.61,1.61,0,1,0-1.61,1.61,1.61,1.61,0,0,0,1.61-1.61m4.23,0a1.612,1.612,0,1,0-1.612,1.612,1.612,1.612,0,0,0,1.612-1.612" transform="translate(-37.218 -80.789)" fill="#1e535a"/>
        <path id="Trazado_1278231" data-name="Trazado 1278231" d="M39.91,15.433l-29.729-.014A4.382,4.382,0,0,0,6.2,19.367c-.1,1.708-.057,3.159-.044,4.8a4.679,4.679,0,0,0,1.675,3.312,4.566,4.566,0,0,0-1.675,4.106A9.114,9.114,0,0,1,.066,21.874a9.207,9.207,0,0,1,8.058-7.961,11.59,11.59,0,0,1,3.135-10.3A11.959,11.959,0,0,1,31.306,8.545a8.474,8.474,0,0,1,11.236,6.922A8.4,8.4,0,0,1,49.956,22.9a8.32,8.32,0,0,1-6.114,8.886,4.553,4.553,0,0,0-1.677-4.309,4.706,4.706,0,0,0,1.707-3.665l-.066-4.461a4.285,4.285,0,0,0-3.9-3.921" transform="translate(0 0)" fill="#1e535a"/>
        <path id="Trazado_1278232" data-name="Trazado 1278232" d="M68.066,295.136a3.13,3.13,0,0,1-5.983,0l-12.538,0a.944.944,0,0,1-.935-.839c-.036-.33.331-.955.791-.955l12.72-.012a3.078,3.078,0,0,1,2.032-1.994l.031-2.752h1.8l0,2.693a3.375,3.375,0,0,1,2.052,2.055l12.568,0a.992.992,0,0,1,.936.786.907.907,0,0,1-.924,1.015Z" transform="translate(-40.079 -237.951)" fill="#1e535a"/>
      </g>
    </g>
  </g>
</svg>
