<svg xmlns="http://www.w3.org/2000/svg" xmlns:xlink="http://www.w3.org/1999/xlink" width="187.711" height="121.729" viewBox="0 0 187.711 121.729">
  <defs>
    <clipPath id="clip-path">
      <rect id="Rectángulo_462503" data-name="Rectángulo 462503" width="128" height="115.823" fill="none"/>
    </clipPath>
    <clipPath id="clip-path-2">
      <rect id="Rectángulo_462502" data-name="Rectángulo 462502" width="128.001" height="115.822" fill="none"/>
    </clipPath>
    <clipPath id="clip-path-3">
      <rect id="Rectángulo_462500" data-name="Rectángulo 462500" width="22.48" height="22.466" fill="none"/>
    </clipPath>
    <clipPath id="clip-path-4">
      <rect id="Rectángulo_462501" data-name="Rectángulo 462501" width="41.688" height="60.429" fill="none"/>
    </clipPath>
  </defs>
  <g id="Grupo_1212904" data-name="Grupo 1212904" transform="translate(-393.711 -5125)">
    <g id="Grupo_1212396" data-name="Grupo 1212396" transform="translate(104.434 -3743.039)">
      <g id="Grupo_1204518" data-name="Grupo 1204518" transform="translate(289.277 8868.039)">
        <rect id="Rectángulo_455283" data-name="Rectángulo 455283" width="187.711" height="121.729" rx="19" fill="#9ed1ff"/>
      </g>
    </g>
    <g id="Grupo_1212903" data-name="Grupo 1212903" transform="translate(423.711 5128)">
      <g id="Grupo_1212902" data-name="Grupo 1212902" clip-path="url(#clip-path)">
        <g id="Grupo_1212901" data-name="Grupo 1212901" transform="translate(0 0)">
          <g id="Grupo_1212900" data-name="Grupo 1212900" clip-path="url(#clip-path-2)">
            <path id="Trazado_1278613" data-name="Trazado 1278613" d="M63.823,50.194a35.051,35.051,0,0,0-5.447,4.853L52.5,58.521l-8.387,1.267-6.143-1.045L27.924,71.227c5.373-1.214,26.219-3.91,26.219-3.91l9.326-8.035s4.763-5.109,5.2-7.441c.211-1.173-1.4-3.676-4.843-1.646" transform="translate(23.267 41.183)" fill="#d4a47d"/>
            <path id="Trazado_1278614" data-name="Trazado 1278614" d="M75.846,49.9c.216-1.182-1.406-3.676-4.84-1.643a34.537,34.537,0,0,0-5.439,4.858l-4.123,1.661s4.123-4.433,4.493-6.444c.185-1.017-1.223-3.179-4.194-1.426a30.261,30.261,0,0,0-4.715,4.211l-5.089,3.012-7.265,1.1-1.452-.2c-5.166,1.168-12.688-1.116-16.567-1.967a57.254,57.254,0,0,0-7.546-1.314l-5.9,17.265,31.9.02c4.99-1.175,16.222-3.648,16.222-3.648l9.326-8.05s4.757-5.111,5.186-7.436" transform="translate(11.007 38.528)" fill="#d4a47d"/>
            <path id="Trazado_1278615" data-name="Trazado 1278615" d="M35.072,53.65c1.23.7,2.557,1.3,3.773,2.026l1.459-.942s4.11-3.34,4.669-5.052c.3-.858-.664-2.911-3.457-1.743-1.732.717-15.518,6.4-15.518,6.4.785.4,8.583-.962,9.075-.687" transform="translate(21.662 39.651)" fill="#d4a47d"/>
            <path id="Trazado_1278616" data-name="Trazado 1278616" d="M54.3,52.338c-1.967-1.175-3.787-.669-5.989-.354a45.939,45.939,0,0,1-9.438.715c-5.782-.354-12.417-4.409-18.285-4.534A22.482,22.482,0,0,0,11.934,49.7v6.369c4.114-1.677,8.849-1.606,13.194-1.206,5.4.493,10.459,2.649,15.924,2.706a44.51,44.51,0,0,0,7.3-.775c2.29-.35,4.389-.257,6.226-1.754a1.731,1.731,0,0,0-.279-2.7" transform="translate(9.944 40.129)" fill="#d4a47d"/>
            <path id="Trazado_1278617" data-name="Trazado 1278617" d="M71.118,57.618c.856,1.859-.084,4.625-3.326,6.206-2.356,1.149-6.464,3-6.464,3L49.752,72.363c-2.083-.35-32.32-3.736-32.32-3.736l-8.9,3.736-6.8-18.4c.436.066,18.752-6.99,26.109-5.753,7.8,1.318,24.017,11.96,24.017,11.96s6.757-2.231,8.778-3.126c6.8-3,9.509-1.525,10.486.576" transform="translate(1.44 40.047)" fill="#ffc89f"/>
            <rect id="Rectángulo_462490" data-name="Rectángulo 462490" width="10.899" height="25.562" transform="translate(-0.003 91.702) rotate(-19.337)" fill="#ffb851"/>
            <path id="Trazado_1278618" data-name="Trazado 1278618" d="M65.81,8.391a5.328,5.328,0,0,0-5.436-5.166l-17.6.029-17.608.027a5.318,5.318,0,0,0-5.412,5.179l.11,72.886A5.317,5.317,0,0,0,25.3,86.509L42.9,86.482l17.61-.027a5.318,5.318,0,0,0,5.414-5.183Z" transform="translate(16.464 2.687)" fill="#10151a"/>
            <path id="Trazado_1278619" data-name="Trazado 1278619" d="M62.753,8.391a5.328,5.328,0,0,0-5.436-5.166l-17.6.029-17.608.027A5.319,5.319,0,0,0,16.7,8.461l.114,72.886a5.315,5.315,0,0,0,5.434,5.162l17.6-.027,17.608-.027a5.323,5.323,0,0,0,5.415-5.183Z" transform="translate(13.915 2.687)" fill="#2c3540"/>
            <path id="Trazado_1278620" data-name="Trazado 1278620" d="M59.7,67.741a2.137,2.137,0,0,1-2.174,2.077l-18.684.027-18.686.026a2.138,2.138,0,0,1-2.13-1.7,1.529,1.529,0,0,1-.042-.361l-.038-28.815-.027-8.761L17.9,19.276l-.015-9.4A2.131,2.131,0,0,1,20.047,7.8l9.362-.015,9.337-.015h1.637l8.8-.013,8.251-.013A2.123,2.123,0,0,1,59.6,9.8l.027,17.6Z" transform="translate(14.904 6.45)" fill="#f2f6fa"/>
            <rect id="Rectángulo_462491" data-name="Rectángulo 462491" width="37.589" height="5.914" transform="translate(34.901 16.935)" fill="#97b0cc"/>
            <rect id="Rectángulo_462492" data-name="Rectángulo 462492" width="19.865" height="18.554" transform="translate(34.901 25.871)" fill="#97b0cc"/>
            <rect id="Rectángulo_462493" data-name="Rectángulo 462493" width="16.453" height="3.206" transform="translate(55.885 25.871)" fill="#97b0cc"/>
            <rect id="Rectángulo_462494" data-name="Rectángulo 462494" width="16.453" height="3.208" transform="translate(55.885 31.033)" fill="#97b0cc"/>
            <rect id="Rectángulo_462495" data-name="Rectángulo 462495" width="37.589" height="4.798" transform="translate(34.901 47.556)" fill="#97b0cc"/>
            <rect id="Rectángulo_462496" data-name="Rectángulo 462496" width="37.589" height="4.798" transform="translate(34.901 54.928)" fill="#97b0cc"/>
            <rect id="Rectángulo_462497" data-name="Rectángulo 462497" width="11.571" height="10.809" transform="translate(34.901 62.215)" fill="#97b0cc"/>
            <rect id="Rectángulo_462498" data-name="Rectángulo 462498" width="11.571" height="10.809" transform="translate(47.833 62.215)" fill="#97b0cc"/>
            <rect id="Rectángulo_462499" data-name="Rectángulo 462499" width="11.57" height="10.809" transform="translate(60.768 62.215)" fill="#97b0cc"/>
            <path id="Trazado_1278621" data-name="Trazado 1278621" d="M36.51,44.408a3.121,3.121,0,0,0-2.174-.854l-2.5.006h-2.5a3.2,3.2,0,0,0-1.17.224A2.932,2.932,0,0,0,26.268,46.5a3.018,3.018,0,0,0,3.089,2.93l2.491,0,2.493,0a3.141,3.141,0,0,0,1.171-.225,2.92,2.92,0,0,0,1.9-2.713,2.844,2.844,0,0,0-.906-2.075" transform="translate(21.888 36.291)" fill="#e4e8ed"/>
            <path id="Trazado_1278622" data-name="Trazado 1278622" d="M37.251,5.127l-5.122.007L27,5.14A1.186,1.186,0,0,0,25.8,6.3a1.167,1.167,0,0,0,1.2,1.142l5.126,0,5.124,0a1.154,1.154,0,1,0,0-2.306" transform="translate(21.498 4.272)" fill="#e4e8ed"/>
            <path id="Trazado_1278623" data-name="Trazado 1278623" d="M22.872,18.387A3.629,3.629,0,1,0,26.5,14.7a3.66,3.66,0,0,0-3.628,3.683" transform="translate(19.058 12.252)" fill="#215372"/>
            <path id="Trazado_1278624" data-name="Trazado 1278624" d="M21.325,27.77H34.3c0-2.169,0-4.315,0-6.5a2.053,2.053,0,0,0-2.035-2.07h-8.9a2.052,2.052,0,0,0-2.033,2.106c.035,2.152.026,4.293-.013,6.464" transform="translate(17.769 15.998)" fill="#215372"/>
            <g id="Grupo_1212896" data-name="Grupo 1212896" transform="translate(32.807 14.217)" opacity="0.2" style="mix-blend-mode: screen;isolation: isolate">
              <g id="Grupo_1212895" data-name="Grupo 1212895">
                <g id="Grupo_1212894" data-name="Grupo 1212894" clip-path="url(#clip-path-3)">
                  <path id="Trazado_1278625" data-name="Trazado 1278625" d="M40.376,7.755,17.91,30.222,17.9,19.263,29.4,7.77l9.335-.015Z" transform="translate(-17.896 -7.755)" fill="#fff"/>
                </g>
              </g>
            </g>
            <g id="Grupo_1212899" data-name="Grupo 1212899" transform="translate(32.848 14.192)" opacity="0.2" style="mix-blend-mode: screen;isolation: isolate">
              <g id="Grupo_1212898" data-name="Grupo 1212898">
                <g id="Grupo_1212897" data-name="Grupo 1212897" clip-path="url(#clip-path-4)">
                  <path id="Trazado_1278626" data-name="Trazado 1278626" d="M59.606,27.406,18.842,68.17H18a1.529,1.529,0,0,1-.042-.361l-.038-28.815L49.156,7.754l8.251-.013A2.123,2.123,0,0,1,59.578,9.8Z" transform="translate(-17.918 -7.742)" fill="#fff"/>
                </g>
              </g>
            </g>
            <path id="Trazado_1278627" data-name="Trazado 1278627" d="M70.719.61c-14.187-2.587-27.145,3.3-28.94,13.144a14.527,14.527,0,0,0,2.567,10.768,25.982,25.982,0,0,0,9.3,8.092L42.542,45.7l20.191-9.735c.488.112.983.209,1.481.3,14.187,2.583,27.145-3.3,28.938-13.146S84.906,3.2,70.719.61" transform="translate(34.639 0)" fill="#e4e8ed"/>
            <path id="Trazado_1278628" data-name="Trazado 1278628" d="M69.5.61C55.311-1.977,42.355,3.91,40.557,13.754a14.529,14.529,0,0,0,2.57,10.768,25.944,25.944,0,0,0,9.3,8.092L43.558,45.7l17.953-9.735c.489.112.983.209,1.481.3,14.189,2.583,27.147-3.3,28.941-13.146S83.684,3.2,69.5.61" transform="translate(33.622 0)" fill="#fff"/>
          </g>
        </g>
      </g>
    </g>
  </g>
</svg>
