<svg xmlns="http://www.w3.org/2000/svg" xmlns:xlink="http://www.w3.org/1999/xlink" width="106" height="106" viewBox="0 0 106 106">
  <defs>
    <clipPath id="clip-path">
      <rect id="Rectángulo_457735" data-name="Rectángulo 457735" width="11.889" height="5.828" fill="#fff"/>
    </clipPath>
    <clipPath id="clip-path-2">
      <rect id="Rectángulo_457775" data-name="Rectángulo 457775" width="65.265" height="19.442" fill="#9ed1ff"/>
    </clipPath>
    <clipPath id="clip-path-3">
      <rect id="Rectángulo_457776" data-name="Rectángulo 457776" width="43.507" height="48.189" fill="#1e535a"/>
    </clipPath>
    <clipPath id="clip-path-4">
      <rect id="Rectángulo_457777" data-name="Rectángulo 457777" width="36.566" height="22.961" fill="#a4e7f0"/>
    </clipPath>
    <clipPath id="clip-path-5">
      <rect id="Rectángulo_457778" data-name="Rectángulo 457778" width="36.103" height="32.457" fill="#a4e7f0"/>
    </clipPath>
    <clipPath id="clip-path-6">
      <rect id="Rectángulo_457779" data-name="Rectángulo 457779" width="22.61" height="66.096" fill="#1e535a"/>
    </clipPath>
    <clipPath id="clip-path-7">
      <rect id="Rectángulo_457780" data-name="Rectángulo 457780" width="21.609" height="24.113" fill="#fff"/>
    </clipPath>
    <clipPath id="clip-path-8">
      <rect id="Rectángulo_457781" data-name="Rectángulo 457781" width="63.954" height="22.114" fill="#1e535a"/>
    </clipPath>
    <clipPath id="clip-path-9">
      <rect id="Rectángulo_457782" data-name="Rectángulo 457782" width="68.996" height="26.837" fill="#6cb9ff"/>
    </clipPath>
    <clipPath id="clip-path-10">
      <rect id="Rectángulo_457783" data-name="Rectángulo 457783" width="18.38" height="34.152" fill="#a4e7f0"/>
    </clipPath>
    <clipPath id="clip-path-11">
      <rect id="Rectángulo_457784" data-name="Rectángulo 457784" width="106" height="106" transform="translate(-0.002 -0.002)" fill="#1e535a"/>
    </clipPath>
    <clipPath id="clip-path-12">
      <rect id="Rectángulo_462511" data-name="Rectángulo 462511" width="51" height="51" fill="#fff"/>
    </clipPath>
  </defs>
  <g id="Grupo_1212418" data-name="Grupo 1212418" transform="translate(11953.483 11875.481)">
    <g id="Grupo_1183348" data-name="Grupo 1183348" transform="translate(-11903.425 -11819.787)" opacity="0.1">
      <g id="Grupo_1183347" data-name="Grupo 1183347">
        <g id="Grupo_1183346" data-name="Grupo 1183346" clip-path="url(#clip-path)">
          <path id="Trazado_1028907" data-name="Trazado 1028907" d="M66.624,74.766l.367.209c.241.115.626.182,1.053.34a11.632,11.632,0,0,0,1.558.2,7.472,7.472,0,0,0,1.772-.3,6.1,6.1,0,0,0,3.737-2.971L77.321,73.5s-.105.188-.281.517c-.2.313-.574.709-.974,1.212a11.4,11.4,0,0,1-1.679,1.4,8.875,8.875,0,0,1-2.294,1.024,9.952,9.952,0,0,1-2.475.4,13.448,13.448,0,0,1-2.174-.274c-.61-.2-1.135-.324-1.477-.484-.328-.18-.516-.281-.516-.281Z" transform="translate(-65.44 -72.238)" fill="#fff"/>
          <path id="Trazado_1028908" data-name="Trazado 1028908" d="M65.439,77.022l.518.283c.341.159.87.281,1.481.485a12.878,12.878,0,0,0,2.176.276,9.967,9.967,0,0,0,2.483-.4,8.893,8.893,0,0,0,2.3-1.025,11.367,11.367,0,0,0,1.682-1.406c.4-.507.77-.9.973-1.216.181-.329.28-.521.28-.521l-2.223-1.256a6.118,6.118,0,0,1-3.737,2.974,7.394,7.394,0,0,1-1.771.3,11.488,11.488,0,0,1-1.557-.2c-.43-.161-.812-.225-1.055-.342l-.366-.211ZM77.31,73.5s-.1.19-.281.519c-.205.309-.571.705-.972,1.209a11.422,11.422,0,0,1-1.678,1.4,8.71,8.71,0,0,1-2.287,1.016,9.874,9.874,0,0,1-2.47.407,13.663,13.663,0,0,1-2.169-.271c-.608-.205-1.133-.331-1.473-.481l-.518-.284,1.165-2.242s.133.074.366.21c.246.108.624.179,1.054.34a12.437,12.437,0,0,0,1.56.2,7.5,7.5,0,0,0,1.767-.3,6.105,6.105,0,0,0,3.738-2.968Z" transform="translate(-65.439 -72.238)" fill="#fff"/>
        </g>
      </g>
    </g>
    <g id="Grupo_1183444" data-name="Grupo 1183444" transform="translate(-11933.807 -11792.691)" opacity="0.72">
      <g id="Grupo_1183443" data-name="Grupo 1183443">
        <g id="Grupo_1183442" data-name="Grupo 1183442" clip-path="url(#clip-path-2)">
          <path id="Trazado_1029005" data-name="Trazado 1029005" d="M38.772,99.8s.041.046.123.132.2.216.357.383c.076.082.161.177.261.279s.206.209.322.331.238.245.374.381.281.272.433.425c.618.588,1.382,1.293,2.3,2.051a39.371,39.371,0,0,0,3.208,2.382,39.894,39.894,0,0,0,4.081,2.387c.188.091.376.187.567.283l.143.069.147.069c.095.043.193.092.289.135.389.188.79.356,1.192.535.811.341,1.646.675,2.511.968.109.038.217.078.325.119s.22.068.327.1c.22.069.439.149.661.213.447.133.892.269,1.348.387s.915.235,1.377.35c.232.049.464.1.7.151.12.026.236.053.353.074s.235.045.353.069l.353.068c.12.024.238.045.357.06.238.042.476.082.714.122s.48.07.721.1l.36.05.362.042c.966.121,1.943.189,2.919.236l.732.027.734.009c.122,0,.245.006.367,0l.366-.007c.245,0,.487,0,.734-.009.975-.03,1.943-.1,2.9-.189s1.9-.232,2.829-.394c.234-.04.462-.086.692-.131.115-.022.231-.046.345-.064s.228-.052.341-.074l.676-.149.669-.163c.223-.053.443-.113.662-.171s.435-.115.651-.182c.43-.127.859-.249,1.275-.389.105-.038.21-.069.313-.1l.157-.048.152-.054c.205-.075.409-.143.613-.217.1-.038.2-.071.3-.107s.2-.081.3-.119c.2-.079.4-.148.593-.226a39.923,39.923,0,0,0,4.273-2.013c1.285-.7,2.421-1.418,3.4-2.089.124-.085.244-.168.363-.251s.235-.163.345-.246l.648-.476c.206-.155.4-.307.589-.45.047-.033.093-.069.138-.105s.092-.073.134-.107c.088-.072.173-.142.258-.206.334-.263.624-.516.874-.729.067-.052.126-.108.185-.153s.113-.1.168-.146c.1-.095.2-.179.285-.259.172-.15.3-.266.39-.35s.131-.12.131-.12l4.355,4.711s-.049.051-.15.148-.256.229-.453.4c-.1.092-.21.192-.33.3-.067.056-.127.113-.2.168s-.139.12-.212.18c-.293.253-.632.535-1.021.848-.095.074-.195.157-.3.239-.05.042-.1.084-.154.124s-.105.083-.161.124c-.219.164-.446.341-.683.524s-.493.362-.754.552c-.129.093-.264.187-.4.284s-.277.192-.42.289a44.863,44.863,0,0,1-3.956,2.43,46.148,46.148,0,0,1-4.972,2.341c-.224.092-.46.173-.688.266-.116.041-.231.084-.349.128s-.231.089-.351.131c-.234.082-.474.169-.711.25l-.181.063-.178.059c-.121.041-.243.078-.364.12-.485.162-.985.306-1.486.456q-.376.106-.759.209c-.255.068-.509.137-.771.2s-.515.128-.777.19-.525.117-.789.173c-.132.029-.263.06-.4.084s-.264.053-.4.079c-.266.051-.533.106-.8.151-1.077.186-2.177.337-3.286.456s-2.238.187-3.368.218c-.281.014-.563.009-.847.014l-.424,0c-.142,0-.284,0-.425,0l-.85-.013-.851-.031c-1.133-.055-2.267-.139-3.389-.276l-.421-.046-.42-.059c-.28-.041-.559-.077-.837-.121s-.554-.091-.83-.139c-.14-.02-.276-.045-.414-.072s-.275-.053-.412-.079-.276-.055-.413-.082-.272-.053-.407-.086c-.273-.061-.543-.118-.814-.178-.537-.131-1.074-.254-1.6-.406-.528-.137-1.049-.3-1.565-.452-.259-.075-.515-.161-.771-.242-.127-.043-.255-.085-.382-.126s-.251-.088-.376-.132c-1.008-.342-1.981-.736-2.925-1.128-.468-.206-.934-.408-1.386-.621-.113-.052-.227-.106-.339-.16l-.17-.077-.165-.084c-.222-.109-.441-.219-.661-.329a46.444,46.444,0,0,1-4.743-2.771c-1.416-.948-2.66-1.893-3.728-2.771s-1.954-1.7-2.67-2.386c-.177-.171-.344-.338-.5-.49s-.3-.3-.435-.444-.26-.265-.374-.385-.214-.224-.3-.32c-.182-.2-.322-.343-.415-.444s-.141-.156-.141-.156Z" transform="translate(-34.001 -99.789)" fill="#9ed1ff"/>
          <path id="Trazado_1029006" data-name="Trazado 1029006" d="M68.045,119.231l-.319,0-.85-.012-.852-.034c-1.254-.06-2.362-.148-3.39-.271l-.419-.052-.421-.057c-.12-.018-.24-.035-.36-.049-.157-.022-.319-.045-.477-.069-.132-.024-.267-.045-.4-.068l-.43-.069c-.114-.019-.264-.045-.415-.074-.079-.019-.158-.032-.237-.047l-.176-.035c-.11-.019-.224-.042-.332-.065l-.079-.014c-.141-.027-.286-.06-.407-.088-.272-.059-.541-.116-.812-.176-.125-.03-.247-.06-.369-.088-.405-.1-.827-.2-1.235-.318-.471-.124-.94-.263-1.395-.4l-.173-.05c-.184-.056-.366-.117-.546-.171-.074-.029-.15-.051-.225-.074l-.2-.068c-.06-.018-.119-.039-.18-.057l-.187-.067c-.063-.025-.126-.044-.189-.067-1.049-.359-2.066-.775-2.925-1.13l-.336-.145c-.346-.153-.706-.313-1.05-.476l-.1-.043c-.081-.041-.161-.077-.241-.118l-.17-.076-.165-.085-.289-.142-.371-.186a46.425,46.425,0,0,1-4.745-2.772c-1.277-.853-2.532-1.785-3.729-2.769-.889-.736-1.763-1.514-2.671-2.385-.079-.081-.158-.156-.233-.23-.094-.092-.183-.18-.271-.265-.129-.124-.246-.247-.358-.362l-.078-.082-.206-.208c-.058-.062-.114-.116-.168-.175-.075-.075-.144-.149-.209-.219-.033-.036-.064-.068-.094-.1-.118-.125-.218-.235-.3-.323l-.115-.121c-.094-.1-.14-.156-.142-.156l-.006-.01.01-.01,4.763-4.31.009,0s.041.05.121.134l.045.046c.078.082.182.2.312.337.028.028.056.057.086.091.054.06.112.121.175.189.1.1.206.208.323.329.044.043.09.091.135.137.076.077.155.16.24.24.143.139.293.286.433.426.564.538,1.336,1.256,2.3,2.052a38.169,38.169,0,0,0,3.207,2.383,40.454,40.454,0,0,0,4.078,2.388c.177.085.362.179.538.266l.03.017.288.136c.095.045.193.092.29.135.28.134.572.263.855.388.113.048.225.1.337.148.776.325,1.619.668,2.51.966l.176.063c.05.018.1.038.15.055l.044.014.286.091c.093.029.184.058.277.09.123.042.254.086.381.121l.254.075c.357.105.725.217,1.095.313.314.089.64.168.954.245l.422.1.421.093c.092.021.184.039.276.062l.1.019.249.055c.061.013.119.022.179.034s.116.022.175.034l.354.067c.105.02.229.045.356.064l.576.1.137.02c.146.025.29.045.437.064.095.013.188.027.283.041l.362.05.362.043c.839.1,1.767.178,2.918.237l.731.026.735.007c.1,0,.2,0,.306,0h.061l.5-.008c.2,0,.4,0,.6-.01.914-.027,1.862-.087,2.9-.188s1.963-.241,2.83-.395c.157-.026.314-.054.465-.087l.224-.041c.119-.023.234-.045.347-.064l.141-.032c.067-.015.132-.032.2-.043.128-.027.255-.057.383-.083l.293-.067c.1-.023.195-.047.29-.069l.38-.094c.188-.045.379-.1.563-.144l.1-.027c.1-.029.2-.057.3-.081.119-.031.239-.064.354-.1l.223-.067c.348-.1.709-.2,1.052-.324l.176-.056c.047-.015.095-.028.139-.045l.157-.048.151-.057.2-.068c.137-.052.274-.1.411-.149l.066-.02c.079-.029.16-.054.237-.087.1-.037.195-.077.294-.115s.174-.065.26-.1c.111-.039.226-.079.334-.124a39.808,39.808,0,0,0,4.272-2.013c1.146-.625,2.291-1.329,3.4-2.088.125-.084.243-.166.362-.25.038-.025.074-.052.111-.078.082-.058.16-.111.234-.166.159-.12.313-.231.459-.339l.19-.137.312-.239c.094-.073.186-.145.278-.212.033-.023.065-.048.1-.074l.041-.031.071-.06a.514.514,0,0,0,.062-.049c.088-.068.174-.136.258-.205.259-.2.493-.4.7-.579.062-.05.121-.1.178-.149l.087-.073.1-.082.023-.018c.051-.045.1-.087.145-.123.056-.053.11-.1.161-.146s.086-.076.124-.114c.167-.148.3-.267.39-.35s.131-.122.131-.122l.01-.01.007.012,4.365,4.719-.01.009s-.05.051-.15.149-.255.226-.453.4c-.044.039-.093.081-.142.126s-.122.109-.189.165l-.064.056c-.042.041-.086.077-.13.116s-.1.083-.147.122l-.066.057c-.3.261-.639.542-1.021.847-.1.075-.195.156-.3.24l-.154.123c-.053.043-.105.083-.161.126-.159.118-.32.241-.491.372l-.192.15c-.144.1-.289.209-.437.319l-.319.232c-.117.087-.248.177-.4.286-.137.094-.277.192-.421.288a45.168,45.168,0,0,1-3.956,2.431,45.893,45.893,0,0,1-4.973,2.34c-.127.052-.261.1-.39.153-.1.038-.2.072-.3.112l-.349.133-.119.042-.232.087c-.1.034-.209.074-.314.111-.133.047-.264.092-.4.14l-.36.118c-.061.022-.122.04-.182.062s-.122.04-.181.061c-.406.135-.828.259-1.238.38l-.249.074c-.221.064-.454.129-.76.208-.242.069-.506.138-.77.2l-.291.07c-.162.04-.323.076-.487.118-.214.049-.5.112-.789.173l-.079.016c-.1.024-.211.047-.317.069-.124.026-.244.046-.372.07l-.028,0-.272.053c-.175.035-.355.071-.532.1-1.02.177-2.127.331-3.288.458-1.243.116-2.346.186-3.37.217-.181.006-.367.009-.546.009-.1,0-.2,0-.3,0l-.424.007ZM34.032,104.11c.018.022.061.072.133.149l.116.121c.08.089.18.2.3.322.032.034.064.067.095.1.066.069.134.143.209.22l.169.173c.067.067.135.136.206.21l.076.079c.114.12.23.241.36.362.086.087.177.174.269.266.076.072.154.15.234.228.909.872,1.781,1.65,2.67,2.385a46.187,46.187,0,0,0,3.726,2.766,46.859,46.859,0,0,0,4.742,2.774c.124.061.247.121.371.185L48,114.6l.164.084.171.078c.079.039.16.075.24.113l.1.048c.342.163.7.319,1.05.471.112.052.223.1.336.15.857.357,1.874.768,2.921,1.128.064.021.126.045.191.065s.124.047.187.068.12.039.179.058l.2.066c.075.026.15.05.226.073.178.058.362.117.544.172l.173.05c.454.138.923.278,1.394.4.408.117.829.219,1.236.318.122.028.243.058.366.089l.814.175c.122.028.265.061.407.087l.078.015c.11.022.223.045.333.064.058.014.116.024.175.034.081.017.16.03.238.048.15.03.3.056.413.074l.43.07c.135.021.267.042.4.067.157.024.32.048.476.068.12.017.24.031.362.049l.418.06.42.05c1.028.124,2.137.213,3.389.272l.851.034.85.011c.106,0,.212.007.319,0h.106l.424,0c.1,0,.2,0,.3,0,.178,0,.365,0,.546-.012,1.022-.029,2.125-.1,3.367-.216,1.162-.127,2.267-.281,3.285-.456.178-.032.36-.067.534-.1l.271-.052.029-.007c.126-.024.247-.045.371-.07.105-.021.214-.045.316-.069l.079-.015c.29-.061.575-.123.79-.172.162-.042.324-.079.485-.12l.292-.07c.249-.059.487-.122.771-.2.3-.079.538-.144.757-.207l.248-.074c.41-.12.833-.245,1.237-.38l.184-.062.181-.061.36-.12c.131-.043.263-.092.395-.138.107-.038.213-.074.316-.112.079-.027.155-.058.233-.084.04-.016.079-.032.12-.044.116-.046.231-.092.346-.133l.3-.113c.129-.05.262-.1.389-.151a46.32,46.32,0,0,0,4.971-2.339A44.931,44.931,0,0,0,94,111.185c.144-.1.285-.195.421-.29.153-.106.285-.2.4-.282l.318-.232c.148-.108.294-.214.437-.316l.193-.151c.17-.132.33-.257.489-.374.054-.041.108-.082.161-.124s.1-.084.154-.125c.1-.084.2-.165.3-.239.384-.3.718-.585,1.021-.848l.066-.055c.051-.041.1-.083.148-.123l.13-.115.063-.056c.067-.058.13-.114.189-.168l.144-.126c.2-.177.351-.311.452-.4l.142-.138-4.341-4.694c-.018.015-.059.05-.122.112-.089.085-.224.2-.39.351-.039.035-.081.071-.123.112s-.105.095-.161.147-.095.08-.144.122l-.024.021c-.031.026-.064.053-.1.082s-.057.048-.088.072c-.056.05-.116.1-.176.149-.206.177-.441.376-.7.581l-.258.2a.616.616,0,0,1-.063.05c-.023.018-.046.041-.071.059l-.041.034-.1.071c-.09.07-.183.143-.278.212s-.205.156-.311.239l-.19.138c-.15.107-.3.221-.461.337-.074.056-.155.115-.234.17-.037.024-.073.05-.111.076-.119.086-.237.166-.362.252-1.113.756-2.26,1.462-3.406,2.088a40.315,40.315,0,0,1-4.274,2.015c-.109.046-.224.089-.334.127-.086.031-.174.063-.259.1s-.2.077-.3.118c-.077.029-.156.058-.237.086l-.065.022c-.137.05-.275.1-.412.146l-.354.125-.157.05c-.046.014-.094.031-.138.046l-.175.054c-.344.116-.706.222-1.055.326l-.22.067c-.119.036-.239.068-.356.1-.1.024-.2.052-.3.081l-.1.024c-.185.048-.375.1-.565.149-.125.031-.253.06-.379.093-.1.02-.192.043-.29.068l-.293.065c-.128.028-.255.056-.383.082l-.2.045c-.047.012-.095.021-.141.031q-.168.029-.344.064c-.076.013-.149.03-.226.042-.151.032-.31.06-.465.088-.868.152-1.8.279-2.832.393s-1.982.161-2.9.187c-.2.012-.4.012-.6.012h-.134l-.366.007c-.069,0-.145,0-.213,0-.052,0-.1,0-.153,0l-.735,0-.734-.028c-1.151-.057-2.078-.133-2.918-.237l-.362-.042-.362-.048c-.1-.017-.19-.031-.283-.043-.146-.019-.291-.04-.437-.063l-.139-.021c-.193-.033-.384-.065-.575-.1-.127-.018-.252-.041-.358-.064l-.352-.066-.177-.036c-.059-.01-.119-.019-.179-.034-.081-.014-.163-.034-.248-.053l-.1-.019c-.092-.022-.184-.04-.276-.061-.141-.033-.282-.065-.421-.093l-.425-.1c-.314-.076-.639-.157-.954-.245-.368-.1-.738-.205-1.094-.313l-.253-.074c-.13-.038-.259-.082-.384-.122l-.277-.091-.286-.091-.043-.014c-.049-.017-.1-.037-.151-.052s-.116-.044-.173-.064c-.891-.3-1.734-.64-2.512-.969-.112-.05-.227-.1-.338-.147-.283-.124-.575-.252-.855-.39-.1-.042-.2-.088-.29-.135l-.32-.15c-.177-.088-.359-.181-.538-.268a40.814,40.814,0,0,1-4.079-2.387,39.124,39.124,0,0,1-3.211-2.385c-.964-.8-1.734-1.514-2.3-2.052-.143-.142-.291-.288-.434-.427-.085-.08-.164-.162-.24-.241-.047-.048-.092-.092-.135-.138-.117-.122-.225-.23-.321-.331-.067-.065-.124-.129-.177-.185-.03-.033-.058-.065-.086-.094-.13-.141-.233-.252-.313-.335l-.043-.048-.116-.122Z" transform="translate(-34 -99.789)" fill="#9ed1ff"/>
        </g>
      </g>
    </g>
    <g id="Grupo_1183447" data-name="Grupo 1183447" transform="translate(-11893.04 -11821.449)" opacity="0.79">
      <g id="Grupo_1183446" data-name="Grupo 1183446">
        <g id="Grupo_1183445" data-name="Grupo 1183445" clip-path="url(#clip-path-3)">
          <path id="Trazado_1029007" data-name="Trazado 1029007" d="M75.647,112.305l.178-.02c.058,0,.128-.013.215-.021s.187-.028.3-.045c.224-.031.5-.068.829-.117s.7-.113,1.113-.185c.832-.157,1.84-.363,2.984-.65s2.415-.676,3.78-1.169a40.947,40.947,0,0,0,4.316-1.824c.184-.09.371-.186.562-.28s.372-.2.561-.29.381-.2.571-.3.374-.214.566-.316.381-.219.57-.333.38-.227.572-.337l.569-.358c.1-.061.191-.119.286-.18s.191-.124.284-.185a42.866,42.866,0,0,0,12.131-11.971c.26-.4.527-.789.771-1.193.061-.1.125-.2.186-.3l.1-.148.089-.153.36-.6c.463-.811.907-1.62,1.305-2.433.206-.406.393-.814.581-1.217.1-.2.181-.405.268-.6s.181-.405.262-.609.166-.4.246-.6c.041-.1.086-.2.124-.3s.073-.2.112-.3c.075-.2.152-.4.225-.594s.142-.4.212-.593a42.977,42.977,0,0,0,1.3-4.5c.326-1.41.55-2.727.7-3.9.044-.29.07-.573.1-.847s.064-.537.084-.792.04-.5.064-.732.03-.455.043-.668.031-.41.035-.6.014-.368.021-.531.014-.317.016-.458,0-.265.007-.377c0-.458.006-.7.006-.7h5.9s0,.272-.009.787c0,.133-.006.275-.009.432s-.012.332-.016.519-.015.388-.023.6-.026.447-.04.683-.032.494-.049.76-.048.543-.074.831-.057.593-.093.9-.071.635-.121.966c-.175,1.331-.432,2.824-.8,4.437a48.533,48.533,0,0,1-1.484,5.128c-.08.222-.159.447-.238.671s-.171.451-.258.677c-.044.117-.085.229-.13.344s-.09.224-.136.338c-.095.228-.187.458-.283.688s-.2.456-.3.689-.2.464-.311.692c-.213.464-.425.926-.661,1.385-.454.931-.959,1.851-1.487,2.772-.134.23-.272.46-.407.687l-.1.177-.109.17c-.07.115-.141.226-.212.343-.282.456-.579.9-.879,1.358a48.865,48.865,0,0,1-13.8,13.616,48.107,48.107,0,0,1-10.087,5.022c-1.559.559-3.012.991-4.311,1.328s-2.452.568-3.4.741c-.475.087-.9.154-1.269.218-.371.046-.688.095-.944.128-.127.018-.237.036-.336.051s-.181.018-.247.027c-.134.014-.2.022-.2.022Z" transform="translate(-75.647 -69.974)" fill="#1e535a"/>
        </g>
      </g>
    </g>
    <g id="Grupo_1183450" data-name="Grupo 1183450" transform="translate(-11897.26 -11800.497)" opacity="0.89">
      <g id="Grupo_1183449" data-name="Grupo 1183449">
        <g id="Grupo_1183448" data-name="Grupo 1183448" clip-path="url(#clip-path-4)">
          <path id="Trazado_1029008" data-name="Trazado 1029008" d="M71.286,110.6H71.4c.075,0,.189-.006.334-.011.291-.013.719-.018,1.262-.057a43.421,43.421,0,0,0,4.469-.53c.914-.171,1.9-.375,2.937-.637s2.107-.586,3.2-.967A39.729,39.729,0,0,0,96.2,101.2c.891-.753,1.718-1.517,2.475-2.273s1.434-1.5,2.044-2.209a39.651,39.651,0,0,0,2.737-3.573c.156-.222.285-.429.4-.6s.216-.322.291-.449l.236-.377,3.437,2.131s-.088.142-.26.418c-.084.135-.192.3-.321.494s-.269.421-.442.666a43.552,43.552,0,0,1-3.014,3.935c-.672.774-1.421,1.593-2.251,2.425s-1.744,1.675-2.722,2.5a44.806,44.806,0,0,1-6.569,4.6,43.87,43.87,0,0,1-7.3,3.325c-1.21.422-2.4.774-3.537,1.069s-2.226.515-3.236.7a43.534,43.534,0,0,1-4.92.584c-.6.045-1.067.053-1.386.069-.161,0-.284.009-.367.009h-.126Z" transform="translate(-71.274 -91.698)" fill="#a4e7f0"/>
          <path id="Trazado_1029009" data-name="Trazado 1029009" d="M71.366,114.658h-.011v-.011l-.081-4.058H71.4c.047,0,.11,0,.185-.007.044,0,.095,0,.149,0,.094,0,.2-.01.325-.013.254-.01.569-.021.935-.046a41.794,41.794,0,0,0,4.47-.531c1.07-.2,2.029-.4,2.935-.636,1.092-.283,2.172-.609,3.205-.969a39.453,39.453,0,0,0,6.621-3.016,40.324,40.324,0,0,0,5.967-4.18c.83-.7,1.662-1.463,2.475-2.272.68-.684,1.367-1.426,2.041-2.208a39.538,39.538,0,0,0,2.736-3.568c.106-.151.2-.3.286-.429.04-.06.079-.121.116-.176l.093-.137c.076-.12.145-.222.2-.312.154-.248.235-.382.235-.382l.007-.009.011.006,3.448,2.138-.007.01s-.09.145-.261.419c-.072.118-.162.254-.269.415l-.051.078c-.052.075-.1.158-.162.243-.086.135-.177.275-.281.422a43.843,43.843,0,0,1-3.015,3.937c-.775.893-1.511,1.685-2.251,2.428-.861.86-1.778,1.7-2.724,2.5a44.74,44.74,0,0,1-6.57,4.606,44.014,44.014,0,0,1-7.307,3.326c-1.113.389-2.3.749-3.536,1.068-1.037.266-2.1.492-3.237.7a43.892,43.892,0,0,1-4.92.584c-.416.031-.772.044-1.056.053-.124.007-.235.013-.333.014-.13,0-.25.007-.367.007-.083,0-.126,0-.126,0m-.068-4.045.08,4.02h.114c.116,0,.236,0,.367-.008.1-.007.207-.01.331-.013.285-.012.64-.024,1.056-.053a44.375,44.375,0,0,0,4.916-.587c1.143-.205,2.2-.432,3.237-.7,1.233-.319,2.422-.678,3.535-1.071a43.848,43.848,0,0,0,7.3-3.321,44.722,44.722,0,0,0,6.569-4.6c.945-.8,1.861-1.64,2.723-2.5.739-.742,1.475-1.538,2.25-2.428a43.814,43.814,0,0,0,3.011-3.935c.105-.147.2-.286.284-.422q.081-.127.159-.243l.053-.076c.105-.161.2-.3.268-.418.145-.229.231-.368.254-.406l-3.416-2.118c-.023.035-.1.162-.23.369-.056.09-.124.192-.2.312l-.088.138c-.039.056-.077.117-.119.177-.083.129-.179.276-.286.428a40.352,40.352,0,0,1-2.738,3.57c-.674.781-1.363,1.528-2.042,2.212-.814.806-1.646,1.569-2.477,2.271a39.686,39.686,0,0,1-12.6,7.2c-1.035.36-2.113.688-3.209.969-.9.23-1.865.439-2.934.636a42.655,42.655,0,0,1-4.472.532c-.367.026-.683.037-.937.044-.122,0-.23.008-.326.013-.054,0-.1,0-.148.006-.076,0-.139,0-.186,0Z" transform="translate(-71.274 -91.697)" fill="#a4e7f0"/>
        </g>
      </g>
    </g>
    <g id="Grupo_1183453" data-name="Grupo 1183453" transform="translate(-11946.291 -11804.983)" opacity="0.64">
      <g id="Grupo_1183452" data-name="Grupo 1183452">
        <g id="Grupo_1183451" data-name="Grupo 1183451" clip-path="url(#clip-path-5)">
          <path id="Trazado_1029010" data-name="Trazado 1029010" d="M25.326,87.06s.063.162.179.472c.059.154.138.343.229.561.043.114.094.231.144.357l.081.2c.029.067.06.134.091.205a46.245,46.245,0,0,0,2.261,4.562c.523.914,1.108,1.9,1.783,2.9s1.418,2.032,2.235,3.068a46.729,46.729,0,0,0,12.3,10.871c1.126.684,2.245,1.3,3.321,1.834.272.134.537.278.8.4s.527.247.786.367.516.227.766.339c.124.054.248.105.372.164s.248.1.369.15a45.257,45.257,0,0,0,4.807,1.675c.3.088.559.154.792.215s.423.119.585.158l.491.119-.928,3.823s-.184-.043-.533-.13c-.172-.041-.385-.1-.635-.168s-.54-.141-.86-.237a49.664,49.664,0,0,1-5.215-1.821l-.4-.165c-.132-.057-.268-.114-.4-.174-.273-.121-.551-.24-.831-.37l-.853-.4c-.288-.134-.576-.283-.869-.428-1.17-.585-2.382-1.248-3.6-1.988a51.187,51.187,0,0,1-7.194-5.306,50.51,50.51,0,0,1-6.148-6.483c-.885-1.123-1.694-2.243-2.422-3.331s-1.369-2.147-1.937-3.143A49.93,49.93,0,0,1,22.434,90.4c-.032-.077-.066-.153-.1-.225s-.059-.146-.087-.211c-.058-.14-.11-.267-.16-.387-.095-.24-.182-.443-.246-.608-.126-.338-.194-.514-.194-.514Z" transform="translate(-21.634 -87.045)" fill="#a4e7f0"/>
          <path id="Trazado_1029011" data-name="Trazado 1029011" d="M56.805,119.5l-.012,0s-.185-.044-.534-.132c-.1-.022-.211-.052-.338-.088-.093-.026-.192-.051-.3-.079-.071-.021-.146-.039-.225-.061-.19-.049-.407-.108-.636-.176a49.724,49.724,0,0,1-5.217-1.822L49.2,117l-.059-.021-.128-.056c-.092-.041-.184-.082-.277-.121l-.216-.1c-.2-.088-.409-.179-.615-.274l-.854-.4c-.219-.1-.444-.214-.661-.325l-.207-.1c-1.214-.608-2.428-1.277-3.606-1.99a51.452,51.452,0,0,1-7.2-5.308,50.81,50.81,0,0,1-6.149-6.483c-.839-1.064-1.656-2.184-2.424-3.333-.64-.948-1.256-1.947-1.937-3.144a49.585,49.585,0,0,1-2.453-4.946l-.04-.095c-.02-.045-.041-.089-.059-.131s-.035-.082-.05-.123-.024-.061-.037-.087c-.056-.14-.109-.267-.158-.387-.037-.091-.072-.176-.105-.258-.053-.131-.1-.249-.141-.353-.128-.335-.195-.51-.195-.51l0-.011.012,0,3.687-1.4,0,.011s.063.163.179.472c.041.112.095.236.155.384l.074.178c.027.071.055.142.087.216.019.047.037.092.056.144.015.032.031.069.045.106s.023.056.037.084c.029.068.058.136.09.206A45.949,45.949,0,0,0,28.32,93.4c.64,1.123,1.207,2.044,1.782,2.9.708,1.058,1.462,2.09,2.235,3.069a46.789,46.789,0,0,0,12.3,10.869c1.046.638,2.165,1.251,3.323,1.837.092.043.182.087.272.134.175.089.353.178.53.258l.785.367c.138.064.274.122.411.181.121.055.236.1.355.156l.1.045c.091.037.181.076.271.12.075.027.15.058.225.09.049.021.1.041.146.06a46.194,46.194,0,0,0,4.8,1.675c.217.066.421.119.6.164.068.018.132.034.195.052.235.067.426.121.585.161l.49.114.012,0,0,.012ZM21.666,88.466c.017.044.08.213.19.5.04.107.087.218.142.355.033.079.068.166.1.255.05.12.1.249.159.386.011.029.024.058.037.09s.033.083.051.123.037.087.056.128l.041.095A49.919,49.919,0,0,0,24.9,95.34c.681,1.2,1.3,2.194,1.934,3.144.769,1.147,1.583,2.269,2.423,3.33A50.974,50.974,0,0,0,35.4,108.3a51.68,51.68,0,0,0,7.195,5.3c1.178.714,2.39,1.381,3.6,1.988l.206.1c.219.108.443.222.663.324l.853.4c.206.1.413.184.612.271l.218.1.278.119.186.079c.116.044.23.091.342.139a49,49,0,0,0,5.213,1.821c.231.068.445.127.636.177.078.02.152.039.225.061.106.026.206.053.3.079l.337.089c.3.072.476.118.521.128l.922-3.8c-.043-.012-.207-.049-.477-.114-.16-.04-.353-.093-.586-.158l-.194-.054c-.179-.045-.382-.1-.6-.163a45.326,45.326,0,0,1-4.806-1.676c-.049-.018-.1-.04-.144-.061-.076-.031-.151-.062-.227-.091-.091-.042-.179-.079-.271-.12l-.1-.043c-.117-.049-.234-.1-.354-.156-.137-.058-.274-.118-.411-.182l-.786-.367c-.177-.079-.355-.168-.53-.255-.09-.048-.179-.094-.272-.139-1.159-.581-2.276-1.2-3.325-1.836a46.782,46.782,0,0,1-12.3-10.873c-.775-.982-1.527-2.015-2.235-3.071-.578-.853-1.144-1.776-1.784-2.9a46.068,46.068,0,0,1-2.262-4.562c-.032-.071-.063-.139-.092-.205-.011-.031-.024-.058-.035-.086s-.03-.073-.044-.111-.04-.094-.058-.139c-.03-.072-.06-.147-.088-.216l-.073-.179c-.06-.146-.112-.273-.154-.383-.1-.261-.158-.42-.177-.46Z" transform="translate(-21.634 -87.045)" fill="#a4e7f0"/>
        </g>
      </g>
    </g>
    <g id="Grupo_1183456" data-name="Grupo 1183456" transform="translate(-11950.637 -11862.497)" opacity="0.5">
      <g id="Grupo_1183455" data-name="Grupo 1183455">
        <g id="Grupo_1183454" data-name="Grupo 1183454" clip-path="url(#clip-path-6)">
          <path id="Trazado_1029012" data-name="Trazado 1029012" d="M39.722,33.123s-.2.156-.561.465-.89.761-1.544,1.364a45.535,45.535,0,0,0-7.8,9.413c-.113.185-.231.369-.345.558s-.227.383-.34.575c-.056.1-.115.192-.172.29s-.109.2-.164.3l-.334.6c-.111.2-.214.405-.325.609s-.219.409-.319.621c-.207.417-.422.836-.617,1.269a45.292,45.292,0,0,0-3.586,11.327A46.131,46.131,0,0,0,23.856,77.8a46.952,46.952,0,0,0,1.255,4.749c.469,1.447.967,2.748,1.455,3.886s.961,2.1,1.36,2.9c.206.391.389.744.555,1.045s.313.556.428.763.211.362.272.469.1.159.1.159l-4.964,2.947-.108-.18c-.068-.121-.176-.293-.306-.529s-.293-.523-.481-.86-.394-.737-.627-1.179c-.449-.89-.989-1.98-1.533-3.264s-1.112-2.751-1.638-4.384A50.941,50.941,0,0,1,18.2,78.967a51.867,51.867,0,0,1-1.017-12.7c.007-.137.012-.28.017-.42s.017-.28.027-.423c.016-.279.036-.559.052-.844s.051-.561.074-.846l.04-.424c.014-.142.031-.282.046-.422.033-.285.066-.567.1-.85s.078-.563.117-.845c.073-.567.177-1.13.266-1.693A51.268,51.268,0,0,1,21.97,46.729c.222-.488.463-.961.7-1.431.116-.236.241-.466.361-.7s.241-.458.366-.684.252-.45.375-.675c.064-.11.125-.219.187-.331s.128-.218.193-.325c.127-.219.257-.432.381-.646s.262-.422.39-.631a52.684,52.684,0,0,1,3.174-4.529c1.057-1.345,2.1-2.527,3.051-3.537.234-.259.476-.494.7-.728l.334-.341c.113-.11.222-.218.331-.322.215-.21.42-.412.618-.6s.395-.367.578-.536c.735-.679,1.329-1.19,1.739-1.534s.633-.527.633-.527Z" transform="translate(-17.129 -28.635)" fill="#1e535a"/>
          <path id="Trazado_1029013" data-name="Trazado 1029013" d="M24.309,94.73l-.007-.011s-.038-.061-.108-.183c-.023-.039-.05-.087-.08-.136-.064-.106-.139-.236-.227-.392l-.322-.573-.16-.286c-.135-.247-.281-.525-.435-.818-.062-.115-.126-.237-.19-.362-.489-.969-1.014-2.033-1.534-3.264-.615-1.448-1.167-2.925-1.639-4.385a50.469,50.469,0,0,1-2.3-11.461,51.038,51.038,0,0,1-.135-6.59l0-.16c0-.086.009-.173.013-.26.008-.142.016-.282.026-.425.009-.165.02-.331.032-.5l.022-.344c.02-.244.042-.488.063-.735l.048-.535c.011-.105.022-.207.034-.311l.042-.378c.024-.195.045-.39.068-.585s.05-.387.078-.582c.012-.088.025-.176.039-.266.053-.41.122-.827.19-1.229.025-.154.049-.308.077-.462a51.4,51.4,0,0,1,4.042-12.774c.177-.388.368-.772.552-1.141.048-.1.1-.2.147-.291.08-.168.169-.332.254-.492.037-.068.072-.137.107-.207s.074-.138.109-.2c.084-.157.169-.321.256-.479l.018-.032c.121-.215.241-.427.357-.641.064-.111.125-.223.188-.333q.055-.091.107-.182l.086-.143c.07-.122.142-.242.214-.365l.166-.283c.084-.138.17-.276.253-.409.048-.074.093-.149.138-.222a52.344,52.344,0,0,1,3.175-4.529c.961-1.22,1.985-2.412,3.051-3.539.157-.173.316-.335.471-.492.078-.079.155-.157.23-.235.048-.048.095-.1.141-.145.066-.066.129-.132.193-.2s.111-.105.163-.158l.167-.164.109-.106c.177-.171.345-.338.511-.5.134-.124.261-.246.388-.361l.188-.177c.608-.562,1.193-1.077,1.741-1.533.4-.347.631-.527.634-.527l.008-.007.009.007,3.655,4.485-.011.008s-.2.158-.56.464c-.486.407-1.006.867-1.544,1.362a45.484,45.484,0,0,0-7.8,9.411c-.042.069-.086.138-.129.205-.074.117-.146.234-.217.352s-.145.244-.217.367l-.123.207c-.035.06-.069.118-.1.177l-.068.114-.165.3c-.071.125-.143.252-.212.38l-.122.216c-.067.122-.132.245-.2.371l-.127.235q-.046.093-.1.185c-.076.143-.152.288-.223.436l-.125.248c-.165.332-.335.674-.492,1.022a45.47,45.47,0,0,0-3.587,11.322,46.418,46.418,0,0,0-.534,11.868,45.16,45.16,0,0,0,2.036,10.165c.424,1.312.912,2.621,1.453,3.887.5,1.183,1.018,2.213,1.36,2.9.064.123.126.24.187.354.13.25.253.483.368.693.089.162.171.309.248.441s.123.225.179.322c.074.131.138.241.191.331.03.052.059.1.081.134.066.108.1.162.1.162l.006.011-.011.008ZM36.073,28.668c-.047.037-.265.211-.623.517-.547.457-1.132.972-1.739,1.532l-.189.177-.388.36c-.165.16-.335.324-.509.5l-.109.109c-.055.052-.111.107-.167.162s-.109.105-.163.16-.128.129-.193.2l-.143.144c-.074.078-.15.154-.227.233-.155.158-.315.322-.474.493-1.064,1.127-2.088,2.317-3.049,3.538a51.764,51.764,0,0,0-3.172,4.526c-.046.074-.091.15-.138.222-.084.133-.17.271-.252.41l-.168.283-.214.362-.084.144c-.038.061-.072.123-.109.182-.061.113-.124.222-.187.333-.116.212-.236.427-.356.64l-.019.034c-.087.158-.172.321-.255.48l-.11.205c-.034.068-.071.138-.108.205-.085.159-.172.325-.254.49-.048.1-.1.195-.145.291-.184.371-.376.755-.549,1.141A51.261,51.261,0,0,0,17.937,59.5c-.026.156-.052.31-.076.464-.068.4-.137.816-.19,1.228-.014.088-.026.179-.038.267-.029.193-.055.387-.078.579s-.045.391-.068.586L17.443,63c-.01.1-.024.206-.035.31l-.046.536c-.022.247-.042.491-.065.734l-.022.344c-.011.166-.021.332-.032.5-.009.142-.016.281-.026.422,0,.089-.007.176-.013.26l0,.16a51.518,51.518,0,0,0,.134,6.587A50.648,50.648,0,0,0,19.63,84.313c.473,1.459,1.022,2.937,1.638,4.382.521,1.231,1.046,2.294,1.533,3.263.067.124.128.243.19.36.155.3.3.572.437.819l.16.286c.121.218.229.411.321.572s.164.288.224.393c.033.051.06.1.083.135.054.093.088.151.1.173l4.941-2.935c-.011-.019-.041-.069-.089-.15l-.08-.136-.193-.327c-.054-.1-.114-.206-.178-.322-.077-.135-.158-.284-.249-.444-.115-.206-.237-.442-.368-.694-.059-.113-.122-.23-.186-.352-.343-.685-.86-1.715-1.36-2.9-.541-1.269-1.03-2.577-1.455-3.891A45.948,45.948,0,0,1,23.845,77.8a45.365,45.365,0,0,1-.781-5.423A46.317,46.317,0,0,1,23.6,60.5a45.576,45.576,0,0,1,3.587-11.331c.157-.347.33-.691.5-1.022L27.8,47.9c.071-.149.148-.294.223-.436.033-.062.065-.124.1-.184.042-.079.084-.159.127-.238.064-.123.129-.248.2-.372l.122-.216c.069-.126.14-.253.21-.378l.233-.411c.034-.06.068-.118.1-.176l.124-.208.217-.365c.071-.119.144-.236.216-.352.043-.071.088-.139.129-.208a46.308,46.308,0,0,1,2.82-4.02,45.546,45.546,0,0,1,4.986-5.394c.536-.5,1.057-.956,1.543-1.364.314-.269.507-.422.552-.458Z" transform="translate(-17.129 -28.634)" fill="#1e535a"/>
        </g>
      </g>
    </g>
    <g id="Grupo_1183459" data-name="Grupo 1183459" transform="translate(-11940.378 -11861.375)" opacity="0.52">
      <g id="Grupo_1183458" data-name="Grupo 1183458">
        <g id="Grupo_1183457" data-name="Grupo 1183457" clip-path="url(#clip-path-7)">
          <path id="Trazado_1029014" data-name="Trazado 1029014" d="M49.355,32.352l-.072.041c-.049.027-.122.067-.214.12s-.209.117-.343.193-.293.161-.465.264-.363.214-.571.338-.424.264-.661.41-.484.312-.747.482c-.129.087-.264.173-.4.264s-.272.189-.412.288a41.315,41.315,0,0,0-3.688,2.887l-.484.43c-.161.149-.321.3-.483.449-.079.075-.161.151-.241.226s-.16.154-.239.234c-.161.154-.322.31-.483.469l-.474.483-.237.245-.232.248c-.155.168-.311.337-.464.5l-.458.511c-.151.171-.3.344-.445.521s-.3.345-.44.523c-.286.357-.573.708-.845,1.068s-.536.717-.8,1.072c-.131.177-.252.362-.377.539s-.25.354-.364.533a42.473,42.473,0,0,0-2.381,4.033c-.629,1.219-1.085,2.268-1.395,3-.15.372-.275.662-.349.862s-.116.306-.116.306l-2.7-1.027s.043-.117.123-.329.212-.524.372-.92c.333-.79.822-1.91,1.494-3.214a44.751,44.751,0,0,1,2.546-4.316c.125-.193.259-.379.391-.573s.265-.385.4-.574c.279-.381.558-.769.854-1.151s.6-.76.9-1.14c.152-.191.313-.373.471-.56s.313-.374.478-.557l.485-.547.5-.539.249-.266.254-.261c.171-.172.338-.346.506-.519l.515-.5c.088-.083.17-.168.257-.249s.175-.16.26-.242l.515-.478c.174-.155.347-.309.519-.46a43.137,43.137,0,0,1,3.946-3.09c.15-.105.3-.206.441-.308s.29-.191.43-.284c.277-.184.542-.359.8-.515s.488-.31.712-.441l.608-.36c.185-.111.351-.2.5-.284s.269-.151.368-.205l.229-.129c.05-.029.078-.042.078-.042Z" transform="translate(-27.764 -29.8)" fill="#fff"/>
          <path id="Trazado_1029015" data-name="Trazado 1029015" d="M30.481,53.912l-.011-.006-2.707-1.03.129-.34c.049-.136.123-.314.207-.518.049-.123.105-.259.165-.4.313-.747.813-1.893,1.494-3.213a45.631,45.631,0,0,1,2.546-4.318c.087-.132.177-.264.267-.391l.124-.179c.05-.072.1-.143.147-.214.084-.12.169-.244.258-.363l.125-.171c.233-.323.475-.654.728-.979s.514-.662.771-.98l.13-.162c.093-.113.188-.227.282-.336.064-.074.126-.15.189-.224l.1-.118c.122-.147.249-.3.38-.44l.487-.548.329-.356.466-.5.205-.211.3-.312.2-.205.128-.127.386-.377c.038-.035.074-.072.111-.109s.1-.093.145-.138l.073-.069c.063-.058.126-.116.186-.174.175-.161.345-.32.516-.48l.52-.46a43.52,43.52,0,0,1,3.947-3.09c.086-.061.17-.119.256-.177l.185-.13c.089-.06.176-.119.263-.175.056-.037.112-.072.166-.109l.085-.057c.249-.163.484-.318.713-.459.081-.049.16-.1.236-.149.166-.1.324-.2.474-.292.2-.116.378-.222.545-.322l.066-.038c.18-.107.343-.2.5-.284l.112-.062c.1-.056.183-.1.256-.145s.15-.082.2-.112l.029-.015a.782.782,0,0,1,.079-.042l.011-.006,0,.012,1.382,2.546-.012,0s-.025.013-.073.041c-.023.014-.054.031-.092.051s-.077.042-.122.069l-.118.067c-.068.037-.144.078-.226.126l-.048.027c-.123.068-.263.145-.414.237-.173.1-.365.215-.572.338-.125.075-.258.157-.394.243l-.268.167c-.187.113-.377.24-.58.373l-.166.108-.145.1c-.084.055-.17.113-.256.172q-.2.136-.415.286a39.93,39.93,0,0,0-3.686,2.889l-.182.16c-.1.088-.2.177-.3.268-.16.147-.32.3-.482.448-.081.077-.163.15-.243.226-.052.048-.1.1-.154.149-.029.031-.056.057-.085.085-.161.155-.32.312-.482.472s-.308.314-.465.474l-.009.01-.236.244-.234.249-.263.286c-.066.07-.134.146-.2.217L38,41.446c-.156.172-.311.356-.447.521-.046.055-.095.11-.143.168-.1.114-.2.233-.3.354l-.166.21c-.225.279-.459.568-.676.858s-.431.57-.637.85l-.161.223c-.084.117-.166.234-.245.349-.045.064-.088.126-.133.188s-.081.121-.123.18c-.079.117-.164.235-.241.355a43.066,43.066,0,0,0-2.38,4.029c-.633,1.23-1.1,2.3-1.395,3-.058.147-.113.279-.163.4-.076.18-.14.338-.186.458-.073.2-.116.308-.116.308ZM27.8,52.861l2.672,1.02c.014-.032.051-.131.114-.3.045-.121.109-.277.182-.46.05-.119.105-.253.165-.4.3-.7.762-1.771,1.4-3a42.216,42.216,0,0,1,2.382-4.033c.075-.121.158-.24.239-.354.041-.061.083-.119.125-.179s.088-.128.129-.19c.079-.116.161-.236.247-.351l.163-.22c.2-.282.414-.57.636-.854s.451-.578.677-.858l.166-.208c.1-.119.2-.239.3-.355l.143-.168c.135-.163.29-.348.447-.521l.453-.511c.069-.073.135-.146.2-.217.09-.1.177-.193.268-.287l.231-.248.246-.255.465-.475q.242-.237.481-.469c.03-.029.057-.057.087-.083.05-.052.1-.1.152-.15.082-.077.164-.151.243-.226.161-.153.321-.3.483-.449.1-.091.2-.179.3-.269l.181-.161a40.148,40.148,0,0,1,3.688-2.889c.142-.1.28-.195.415-.286.085-.06.172-.116.257-.172l.144-.095.167-.109c.2-.133.391-.259.58-.374.092-.055.18-.111.266-.167.138-.084.269-.167.4-.243.209-.123.4-.234.572-.338.15-.092.292-.17.417-.237l.045-.026c.083-.048.159-.091.227-.127l.118-.066.121-.069c.038-.019.068-.037.094-.051l.062-.035-1.363-2.515-.068.036-.029.017c-.049.029-.117.065-.2.112l-.256.143-.113.063c-.152.083-.315.176-.5.284l-.064.038c-.166.1-.348.207-.544.322-.151.09-.308.188-.474.293l-.236.148c-.229.14-.464.293-.714.457L44.7,31.8c-.054.037-.11.072-.166.109-.087.058-.175.115-.262.175l-.187.131c-.084.057-.169.117-.254.177a43.037,43.037,0,0,0-3.945,3.088l-.52.459c-.171.16-.341.32-.514.479-.063.06-.126.118-.189.177l-.072.066-.143.14c-.037.037-.072.072-.111.109-.13.123-.258.25-.388.377l-.127.123-.2.207-.306.311c-.067.072-.135.143-.206.212l-.048.05-.416.448c-.11.12-.222.238-.329.358l-.487.546c-.131.144-.258.293-.379.439l-.1.119-.188.225c-.095.108-.189.22-.282.335l-.129.162c-.257.319-.523.648-.772.978s-.493.658-.729.979l-.123.172c-.09.119-.174.243-.256.363-.051.07-.1.141-.148.211s-.084.12-.124.18c-.09.126-.182.259-.267.392a45.16,45.16,0,0,0-2.545,4.315c-.682,1.32-1.179,2.465-1.494,3.212-.06.148-.114.284-.165.405-.085.205-.157.382-.207.516Z" transform="translate(-27.764 -29.799)" fill="#fff"/>
        </g>
      </g>
    </g>
    <g id="Grupo_1183462" data-name="Grupo 1183462" transform="translate(-11921.811 -11872.449)" opacity="0.84">
      <g id="Grupo_1183461" data-name="Grupo 1183461">
        <g id="Grupo_1183460" data-name="Grupo 1183460" clip-path="url(#clip-path-8)">
          <path id="Trazado_1029016" data-name="Trazado 1029016" d="M107.428,40.416s-.036-.052-.114-.155c-.035-.05-.084-.113-.139-.191s-.123-.16-.2-.259c-.15-.193-.332-.438-.551-.718l-.362-.45c-.132-.158-.266-.332-.415-.5-.3-.352-.624-.744-1-1.156-.181-.207-.374-.424-.579-.643s-.414-.448-.639-.678c-.885-.928-1.927-1.932-3.118-2.968a46.734,46.734,0,0,0-4.021-3.125c-.187-.128-.374-.259-.563-.387s-.384-.252-.581-.382l-.289-.19-.3-.188-.6-.373c-.814-.49-1.654-.979-2.529-1.433s-1.776-.9-2.7-1.318c-.465-.2-.933-.412-1.41-.6-.238-.095-.474-.2-.715-.287l-.723-.275c-.976-.357-1.964-.7-2.972-.988-.5-.154-1.011-.285-1.516-.424-.255-.068-.509-.126-.765-.19s-.511-.125-.769-.179l-.773-.168c-.258-.053-.514-.1-.775-.15l-.386-.074c-.128-.023-.26-.044-.388-.066-.26-.045-.52-.087-.777-.129s-.52-.072-.777-.111L75.6,21.6c-.128-.017-.26-.031-.387-.046l-.778-.088c-.258-.027-.516-.046-.776-.071a46.975,46.975,0,0,0-6.074-.135l-.369.014c-.122,0-.243.014-.368.022l-.727.046c-.242.013-.482.041-.721.061s-.477.04-.714.067c-.943.1-1.865.219-2.758.368a47.08,47.08,0,0,0-4.977,1.1c-1.521.423-2.893.89-4.091,1.348-.15.056-.3.115-.442.167s-.286.116-.424.174c-.277.114-.546.22-.8.33-.508.223-.976.423-1.393.622l-.591.277-.516.257c-.159.079-.309.153-.443.222s-.257.135-.365.19l-.669.354-1.377-2.538.711-.376c.115-.059.243-.128.388-.2s.3-.152.47-.235l.55-.272c.2-.094.407-.191.627-.294.441-.211.939-.425,1.477-.66.273-.12.558-.231.851-.352l.451-.182.469-.179c1.276-.486,2.73-.982,4.346-1.431a49.775,49.775,0,0,1,5.285-1.164c.946-.16,1.925-.284,2.927-.393.251-.026.5-.046.757-.069s.507-.048.764-.065.514-.032.775-.047c.129-.009.258-.018.388-.024l.392-.015a50.134,50.134,0,0,1,6.444.143c.273.026.549.048.825.077l.82.093c.137.016.278.032.414.049l.412.058c.279.039.551.074.828.117s.55.092.823.137c.14.021.278.042.413.069l.409.079c.277.053.55.1.826.158l.816.18c.276.055.549.123.819.19s.544.129.811.2c.539.148,1.082.287,1.614.451,1.068.309,2.119.669,3.15,1.049.26.1.516.195.772.29s.507.2.76.308c.508.2,1,.422,1.5.638.982.446,1.944.9,2.867,1.4s1.821,1,2.685,1.521c.211.135.426.267.637.4l.317.2.31.2c.2.135.411.269.613.4s.4.275.6.412a49.707,49.707,0,0,1,4.27,3.315c1.266,1.1,2.372,2.167,3.311,3.149.235.246.457.49.674.721s.422.46.617.682c.395.436.743.852,1.055,1.225.161.185.3.368.438.536l.385.477c.234.3.428.556.589.763l.21.276c.059.081.109.149.147.2l.122.166Z" transform="translate(-45.82 -18.32)" fill="#1e535a"/>
          <path id="Trazado_1029017" data-name="Trazado 1029017" d="M107.425,40.434l-.008-.012s-.036-.052-.112-.153c-.022-.032-.048-.067-.075-.106s-.041-.055-.064-.088l-.067-.084-.134-.174-.126-.168q-.188-.242-.425-.552c-.114-.14-.234-.29-.362-.449l-.168-.2c-.079-.1-.16-.2-.246-.3l-.183-.217c-.255-.3-.516-.611-.814-.938-.206-.24-.4-.45-.578-.642-.072-.078-.148-.157-.221-.237-.134-.143-.273-.293-.418-.441-.945-.993-1.995-1.991-3.118-2.968a46.144,46.144,0,0,0-4.021-3.124l-.184-.128c-.125-.087-.251-.175-.378-.26s-.228-.15-.342-.225c-.079-.053-.157-.1-.236-.155l-.055-.034c-.078-.054-.159-.107-.236-.157-.1-.062-.2-.123-.3-.187l-.225-.139-.376-.233c-.994-.6-1.775-1.042-2.527-1.434-.776-.414-1.634-.832-2.7-1.317l-.176-.078c-.4-.177-.815-.358-1.232-.525-.091-.035-.182-.074-.274-.111-.143-.06-.292-.122-.439-.177-.131-.048-.259-.1-.39-.147l-.336-.128c-1.146-.418-2.089-.732-2.971-.987-.358-.111-.729-.21-1.087-.31-.144-.037-.286-.076-.427-.114-.181-.049-.365-.094-.541-.137l-.226-.053-.114-.029c-.214-.052-.434-.105-.654-.15l-.774-.169c-.22-.045-.45-.088-.672-.128l-.488-.1c-.084-.016-.171-.029-.257-.044l-.131-.02-.413-.07c-.122-.019-.242-.04-.364-.061-.259-.034-.519-.071-.776-.109l-.39-.055c-.1-.014-.2-.023-.3-.035l-.081-.01-.5-.057-.281-.033c-.15-.014-.3-.028-.452-.04l-.322-.029c-1.31-.118-2.672-.177-4.046-.177-.666,0-1.348.014-2.028.041l-.239.01-.13.006c-.1,0-.2.011-.3.017l-.068,0-.727.047c-.157.008-.314.022-.468.036-.084.009-.168.017-.254.022-.07.008-.143.014-.213.019-.164.015-.334.03-.5.046-1.125.124-1.974.237-2.758.369a46.962,46.962,0,0,0-4.974,1.1c-1.379.381-2.755.835-4.09,1.346l-.161.062-.283.106c-.106.041-.208.083-.311.125L52,24.633l-.3.12c-.177.07-.343.139-.507.211-.126.054-.251.111-.373.163-.363.159-.706.31-1.019.457l-.2.095-.389.182-.516.257-.124.061c-.113.057-.219.111-.319.16-.079.041-.152.078-.221.115l-.144.076-.668.354-.011.006-.006-.011-1.384-2.549.011,0,.71-.375c.037-.018.072-.037.11-.058l.28-.143.035-.019.436-.215.549-.273c.116-.054.233-.111.357-.167l.27-.128c.355-.171.752-.342,1.172-.526l.308-.135c.192-.084.387-.163.593-.248.085-.034.17-.068.256-.1s.141-.057.211-.087l.24-.1.311-.118.16-.061c1.424-.544,2.887-1.026,4.345-1.432a49.779,49.779,0,0,1,5.287-1.164c.836-.142,1.74-.264,2.928-.394.169-.017.342-.033.512-.047l.243-.02.254-.024c.167-.015.341-.033.512-.04s.325-.022.489-.033l.322-.02c.116-.009.234-.015.351-.019.087,0,.174-.007.261-.011l.13,0c.722-.032,1.449-.045,2.159-.045,1.454,0,2.9.062,4.287.186l.321.029c.168.014.335.031.5.046s.35.039.526.061l.3.033c.06.007.119.015.18.021.078.009.156.016.234.028l.637.09c.2.026.4.055.6.087l.44.072.384.063.058.011c.122.018.236.037.354.061l.41.077c.1.02.193.037.291.056.176.033.356.068.533.1l.817.177c.253.053.509.114.753.175l.067.015c.1.027.2.05.294.073.171.04.346.083.516.13.128.034.257.068.386.1.405.109.824.222,1.228.345.96.28,1.961.613,3.151,1.05.236.088.47.177.7.265l.07.026c.193.074.388.153.576.232l.185.075c.386.152.769.32,1.141.483.119.051.237.1.356.155,1.129.513,2.041.958,2.866,1.4.8.418,1.631.887,2.687,1.521.089.058.18.114.271.172q.184.114.365.23l.1.059c.074.044.149.093.224.137.1.068.206.137.308.2s.214.139.32.21l.292.193c.138.09.274.186.405.279.064.043.128.089.191.134a49.225,49.225,0,0,1,4.273,3.316c1.171,1.017,2.285,2.077,3.311,3.148.149.156.293.313.433.463l.241.259c.223.237.433.475.617.684.39.431.735.842,1.041,1.207l.015.017c.115.132.217.262.317.387.041.053.081.1.121.151.086.105.168.208.247.306l.137.17c.143.181.27.347.384.5.073.1.142.185.206.267l.21.278c.059.078.109.148.147.2l.122.168.009.009-.011.009ZM69.61,21.207c1.375,0,2.737.058,4.048.177l.324.026c.15.014.3.026.451.041l.28.031c.166.02.332.039.5.06l.082.008c.1.013.2.023.3.037l.389.054c.259.039.518.074.778.109.122.022.242.041.364.062l.415.069.129.021c.087.014.174.028.259.043l.489.095c.219.041.448.084.67.13l.773.17c.22.044.442.1.656.15l.113.027.225.055c.177.043.361.087.542.136.142.041.285.078.427.117.359.1.731.2,1.089.307.881.256,1.824.57,2.971.99l.336.126.39.149c.149.055.3.116.441.175l.273.113c.418.165.832.347,1.233.523l.178.08c1.067.482,1.924.9,2.7,1.317.753.393,1.535.835,2.53,1.433l.376.234.225.14.3.187c.08.052.159.1.236.156l.054.035.236.155.344.228c.126.084.252.172.377.258l.184.127a46.9,46.9,0,0,1,4.023,3.126c1.125.978,2.174,1.976,3.12,2.97.144.149.284.3.418.444.073.079.147.158.221.234.181.194.37.4.579.644.3.328.559.64.814.938.062.074.123.146.182.216.087.1.168.2.249.3.055.069.111.138.166.2.127.161.247.309.362.45.16.206.3.39.424.554l.126.166c.05.063.094.12.135.172l.066.088c.023.031.045.061.063.087s.054.074.078.105l.105.144,2.308-1.69c-.014-.022-.054-.075-.114-.159-.039-.051-.088-.121-.148-.2l-.21-.275c-.064-.082-.132-.172-.206-.269-.115-.148-.242-.313-.383-.494l-.137-.169c-.079-.1-.161-.2-.248-.307l-.121-.15c-.1-.125-.2-.255-.317-.387l-.014-.017c-.3-.365-.653-.777-1.041-1.207-.185-.209-.395-.447-.618-.682-.079-.086-.16-.172-.241-.26-.14-.15-.284-.306-.432-.46-1.027-1.072-2.139-2.132-3.311-3.15a49.776,49.776,0,0,0-4.269-3.315l-.192-.133c-.132-.092-.265-.186-.4-.278-.095-.065-.193-.128-.293-.193l-.318-.211-.309-.2-.223-.138-.1-.059c-.12-.078-.242-.153-.365-.23l-.271-.171c-1.054-.634-1.882-1.1-2.683-1.52-.826-.441-1.736-.885-2.866-1.4-.12-.05-.239-.1-.357-.157-.371-.161-.753-.328-1.139-.48l-.186-.077c-.188-.077-.383-.158-.575-.229l-.069-.027c-.232-.09-.465-.177-.7-.266-1.19-.436-2.192-.771-3.15-1.049-.4-.124-.824-.237-1.227-.345l-.386-.1c-.17-.048-.346-.091-.514-.13l-.3-.073-.065-.016c-.245-.06-.5-.122-.754-.175l-.817-.177c-.178-.037-.356-.07-.532-.1l-.292-.056-.409-.078c-.117-.023-.232-.041-.355-.061l-.057-.011L77.642,19l-.44-.071c-.2-.032-.405-.061-.6-.087l-.637-.091-.233-.027c-.062-.008-.121-.015-.179-.021l-.3-.033c-.176-.019-.35-.041-.525-.061s-.335-.032-.5-.045l-.322-.03c-1.388-.123-2.831-.187-4.285-.187-.71,0-1.436.016-2.159.045l-.128.006c-.088,0-.176,0-.263.011-.117,0-.235.011-.348.019l-.325.02-.488.032c-.17.009-.344.024-.511.04l-.254.023-.243.021c-.168.014-.342.029-.511.047-1.189.129-2.091.251-2.927.395a49.721,49.721,0,0,0-5.284,1.162c-1.459.405-2.921.889-4.344,1.431l-.158.062c-.106.039-.209.078-.312.117l-.239.1-.21.085-.258.106c-.205.083-.4.163-.593.246l-.307.134c-.42.182-.816.353-1.171.526l-.27.126c-.122.059-.243.114-.357.168l-.55.272c-.155.076-.3.15-.435.218l-.035.016c-.1.051-.192.1-.278.145l-.11.057c-.407.215-.646.343-.7.369l1.366,2.515c.05-.024.275-.143.659-.346.047-.023.094-.05.144-.076.068-.038.143-.074.222-.114.1-.052.206-.106.32-.161l.124-.061.515-.257.39-.182.2-.095c.312-.15.656-.3,1.021-.458.122-.055.247-.108.374-.166.163-.07.33-.136.507-.208.1-.04.2-.079.293-.122l.114-.045c.1-.041.205-.084.312-.125s.186-.072.283-.108l.158-.06c1.338-.511,2.714-.965,4.094-1.348a47.026,47.026,0,0,1,4.978-1.1c.782-.133,1.634-.246,2.758-.37.165-.018.335-.032.5-.047.071-.006.144-.012.214-.019s.168-.013.253-.021c.153-.016.312-.029.467-.037l.729-.047.068-.006c.1,0,.2-.013.3-.015l.13,0c.079,0,.158-.008.239-.01.679-.028,1.362-.041,2.028-.041" transform="translate(-45.819 -18.32)" fill="#1e535a"/>
        </g>
      </g>
    </g>
    <g id="Grupo_1183465" data-name="Grupo 1183465" transform="translate(-11925.138 -11870.056)" opacity="0.67">
      <g id="Grupo_1183464" data-name="Grupo 1183464">
        <g id="Grupo_1183463" data-name="Grupo 1183463" clip-path="url(#clip-path-9)">
          <path id="Trazado_1029018" data-name="Trazado 1029018" d="M108.347,47.62s-.032-.064-.1-.188-.167-.31-.3-.546-.293-.532-.5-.871l-.324-.548c-.117-.2-.247-.4-.379-.612-.543-.863-1.226-1.893-2.078-3.027a44.7,44.7,0,0,0-3.061-3.644c-.3-.323-.611-.64-.924-.964-.159-.165-.325-.319-.492-.483s-.329-.329-.5-.485l-.518-.484c-.175-.167-.36-.321-.54-.483-.36-.327-.741-.64-1.121-.966-.193-.158-.389-.313-.586-.473l-.3-.24c-.1-.077-.2-.156-.3-.232-.2-.156-.405-.314-.615-.471l-.633-.461c-.855-.61-1.744-1.209-2.674-1.775s-1.9-1.112-2.895-1.627-2.03-.989-3.086-1.434-2.137-.84-3.237-1.2l-.413-.135c-.14-.044-.278-.09-.416-.129-.278-.082-.558-.163-.836-.248-.558-.151-1.118-.31-1.687-.441a43.8,43.8,0,0,0-6.845-1.094c-1.144-.087-2.279-.139-3.4-.141-.281,0-.561.006-.84.007l-.419,0c-.138,0-.275.013-.415.017-.279.011-.553.016-.827.033l-.821.051a43.993,43.993,0,0,0-11.631,2.441c-.1.038-.2.071-.306.109s-.2.075-.3.113c-.2.077-.4.151-.591.225-.389.151-.764.309-1.133.459s-.719.313-1.061.468-.675.312-.993.468-.625.308-.92.46l-.846.446-.77.427c-.063.038-.122.068-.183.1s-.117.068-.174.105c-.117.068-.228.132-.338.2-.442.254-.822.5-1.158.709s-.612.4-.841.55-.4.27-.515.35l-.175.122-1.943-2.792s.065-.043.188-.131.308-.216.556-.375.544-.365.906-.592.773-.49,1.246-.763l.364-.213c.062-.039.125-.076.19-.114s.128-.072.195-.11c.265-.147.542-.3.829-.462l.913-.482c.317-.162.65-.325.991-.494s.7-.332,1.07-.5.752-.332,1.143-.505.8-.329,1.222-.493l.64-.242c.106-.041.215-.082.323-.122l.33-.12A47.43,47.43,0,0,1,59.327,21.9c.524-.117,1.062-.215,1.6-.321.271-.05.546-.092.822-.138.138-.023.276-.044.416-.068s.278-.04.419-.061c.28-.038.562-.078.844-.117l.857-.1c.285-.036.574-.057.863-.085.145-.014.29-.027.436-.038l.218-.018.22-.014.883-.058c.3-.014.594-.023.89-.037l.449-.015c.149,0,.3,0,.45-.007.3,0,.6-.013.9-.007,1.211,0,2.432.057,3.661.15a47.217,47.217,0,0,1,7.377,1.18c.61.142,1.214.311,1.821.474.3.09.6.18.9.269.149.042.3.09.448.138l.446.146c1.184.393,2.352.82,3.491,1.3s2.247,1,3.324,1.544,2.114,1.14,3.118,1.752,1.961,1.257,2.88,1.913l.681.5c.224.168.443.339.664.506.112.083.219.169.328.252s.213.172.319.257c.213.173.424.34.633.512.409.348.821.686,1.206,1.038.195.174.393.342.58.52s.376.349.558.522.364.351.544.521.357.344.527.522c.339.351.681.69,1,1.036a47.688,47.688,0,0,1,3.3,3.928c.916,1.221,1.653,2.329,2.239,3.255.143.235.282.453.409.663s.239.406.346.59c.222.364.394.684.538.938s.254.455.322.589.107.2.107.2Z" transform="translate(-42.372 -20.801)" fill="#6cb9ff"/>
          <path id="Trazado_1029019" data-name="Trazado 1029019" d="M108.341,47.638l0-.014s-.032-.064-.1-.186-.16-.3-.3-.546l-.1-.177c-.115-.2-.243-.435-.4-.695l-.121-.2c-.065-.109-.133-.225-.2-.344s-.148-.237-.225-.362c-.05-.082-.1-.165-.156-.251-.683-1.086-1.363-2.073-2.076-3.024A44.462,44.462,0,0,0,101.6,38.19c-.219-.24-.456-.483-.687-.718l-.237-.243c-.1-.109-.215-.217-.322-.321-.056-.054-.112-.106-.168-.162s-.1-.1-.144-.142c-.116-.115-.235-.233-.359-.344-.172-.16-.345-.32-.517-.483-.118-.111-.24-.22-.362-.325l-.179-.158c-.268-.243-.554-.485-.829-.719l-.292-.247c-.131-.108-.264-.216-.4-.321-.063-.05-.126-.1-.188-.152-.1-.08-.2-.159-.3-.24l-.165-.125c-.046-.037-.095-.07-.14-.106l-.11-.086c-.164-.127-.332-.257-.5-.384l-.634-.461c-.953-.678-1.827-1.261-2.675-1.775-.949-.579-1.923-1.125-2.894-1.627-1.006-.512-2.044-.994-3.086-1.432-.973-.413-2.03-.807-3.235-1.206l-.5-.161c-.114-.038-.222-.071-.334-.1l-.247-.073-.588-.172-.235-.067c-.474-.129-.961-.263-1.449-.375a43.76,43.76,0,0,0-6.845-1.095c-1.23-.091-2.342-.139-3.4-.141-.176,0-.35,0-.523,0l-.528,0-.209,0-.207.008c-.068,0-.137.007-.207.009-.112.006-.223.009-.335.013-.161.006-.329.011-.492.019l-.1.008-.721.045A44.139,44.139,0,0,0,54.64,26.778l-.2.071-.106.038c-.068.026-.137.053-.206.077L54.034,27c-.122.048-.243.093-.362.138l-.231.087c-.277.108-.552.222-.815.331-.106.045-.211.086-.317.13-.151.068-.3.132-.449.2-.213.093-.413.18-.612.27-.129.06-.258.122-.385.178-.211.1-.41.191-.606.288l-.348.172c-.2.1-.388.193-.573.288L49,29.256c-.174.094-.343.183-.507.27l-.772.427c-.062.038-.122.069-.183.1l-.072.043-.1.062-.117.067-.223.132c-.31.179-.6.36-.849.516-.108.068-.211.133-.309.193-.217.137-.409.264-.582.378-.092.062-.179.119-.259.171-.154.1-.283.19-.385.26l-.129.09c-.117.08-.174.122-.174.122l-.012.006-.007-.011-1.949-2.8.011-.008.19-.13c.037-.026.082-.058.132-.092.111-.078.25-.175.421-.286.082-.052.17-.11.263-.172.187-.125.4-.266.642-.419q.149-.091.307-.191c.279-.176.6-.375.942-.573l.113-.067c.082-.049.165-.1.249-.148l.189-.114c.035-.017.067-.037.1-.054s.065-.037.1-.055l.152-.086c.217-.121.444-.246.675-.376l.352-.186c.183-.1.371-.2.561-.3.22-.114.443-.223.681-.341.1-.05.2-.1.311-.152.235-.117.476-.228.728-.345l.341-.16c.246-.111.491-.219.753-.332.128-.058.259-.115.392-.173s.286-.116.429-.176c.258-.1.523-.213.792-.318.14-.055.28-.106.422-.161l.217-.082c.108-.041.214-.082.324-.122l.113-.041.219-.077a46.623,46.623,0,0,1,5.834-1.667c.394-.09.8-.17,1.2-.246l.4-.076c.182-.036.368-.065.547-.095l.278-.045.218-.036.2-.033c.082-.014.167-.025.251-.037l.169-.025c.173-.022.345-.048.518-.071l.325-.044.477-.056.379-.042c.221-.028.446-.047.666-.067l.312-.028c.108-.012.217-.02.325-.029l.219-.019.219-.013.611-.041.272-.018.533-.021.357-.013c.089-.006.177-.008.267-.012l.181-.008c.148,0,.3,0,.444-.006l.313,0c.2,0,.4,0,.592,0,1.156,0,2.388.053,3.661.151a47.082,47.082,0,0,1,7.38,1.178c.5.119,1.013.256,1.5.388l.316.086.768.231.13.038c.163.049.326.1.448.141l.447.145c1.275.422,2.417.848,3.491,1.3,1.119.472,2.239.992,3.326,1.545,1.021.524,2.069,1.115,3.119,1.753.923.562,1.864,1.188,2.879,1.913l.626.456.056.041c.149.11.3.224.439.334.074.059.149.116.225.172l.194.15c.045.034.089.069.135.1l.158.129c.055.041.107.085.16.128l.212.171q.213.169.421.341l.294.249c.3.257.62.52.913.789l.2.176c.129.111.259.227.383.345l.042.039c.174.162.346.322.516.482.119.106.231.217.34.325.068.065.135.131.2.2s.139.135.208.2c.107.1.216.21.32.318s.2.208.3.312c.243.249.472.482.694.725a47.828,47.828,0,0,1,3.3,3.928c.776,1.03,1.507,2.1,2.24,3.256.064.105.126.205.187.3.077.123.15.243.222.361.089.148.172.292.253.427l.095.163c.171.282.312.534.435.756.037.064.07.123.1.182.143.255.253.451.323.588s.106.2.106.2l.007.012-.012,0ZM69.453,24.2h.134c1.058,0,2.17.048,3.4.14a43.951,43.951,0,0,1,6.846,1.095c.489.115.977.246,1.451.375l.236.066.588.175.248.071c.11.033.218.068.333.1l.084.027.413.136c1.2.4,2.264.793,3.238,1.2,1.042.438,2.08.921,3.087,1.433.971.5,1.945,1.048,2.895,1.626.849.516,1.723,1.1,2.674,1.777l.635.461c.172.128.34.259.5.386l.11.084c.047.036.094.071.14.105l.167.127c.1.082.2.161.3.24.063.052.124.1.187.152.134.107.266.213.4.322.1.083.195.165.291.246.276.235.56.476.829.719l.179.159c.121.105.245.214.361.325.174.163.347.324.517.484.125.113.245.23.362.345l.142.139c.057.056.113.111.169.164.107.1.218.211.325.319.077.082.156.164.236.243.23.236.467.479.688.721a44.858,44.858,0,0,1,3.061,3.648c.715.95,1.395,1.939,2.079,3.024.052.088.1.17.156.252.077.125.152.245.224.361s.139.235.2.347l.121.2c.157.259.285.491.4.7.034.062.067.12.1.176.14.25.235.425.3.547.051.095.081.153.093.177l2.982-1.583c-.013-.023-.048-.088-.1-.192-.069-.138-.179-.334-.322-.588-.033-.056-.066-.119-.1-.181-.123-.223-.265-.475-.435-.757l-.1-.161-.252-.429c-.069-.116-.145-.236-.222-.359l-.187-.3c-.731-1.159-1.463-2.226-2.237-3.257a48.462,48.462,0,0,0-3.3-3.924c-.221-.243-.45-.477-.692-.723l-.306-.313c-.1-.109-.212-.216-.319-.319-.068-.067-.138-.133-.206-.2s-.136-.13-.2-.2c-.11-.109-.221-.219-.339-.325-.171-.161-.342-.321-.518-.483l-.041-.04c-.123-.117-.256-.232-.383-.345-.065-.057-.132-.114-.2-.175-.293-.267-.608-.531-.912-.788l-.3-.25c-.139-.115-.279-.227-.419-.34-.071-.058-.141-.115-.212-.171-.053-.042-.108-.087-.16-.13l-.159-.127-.136-.1c-.062-.05-.127-.1-.193-.149s-.15-.117-.225-.174c-.143-.109-.289-.223-.438-.334l-.055-.04-.626-.457c-1.015-.723-1.956-1.349-2.88-1.912-1.049-.639-2.1-1.228-3.116-1.752-1.087-.554-2.206-1.073-3.325-1.544-1.074-.451-2.214-.877-3.489-1.3l-.447-.146c-.123-.039-.285-.092-.448-.14l-.131-.04c-.254-.074-.512-.15-.768-.228l-.314-.086c-.492-.132-1-.271-1.5-.388a47.277,47.277,0,0,0-7.377-1.179c-1.273-.1-2.5-.15-3.66-.151-.2,0-.395,0-.592,0l-.308,0c-.154,0-.3,0-.45,0l-.18.008c-.088,0-.178,0-.268.011l-.355.014-.534.02-.27.019-.613.04-.217.014-.218.018-.325.029-.313.03c-.218.017-.445.04-.664.065l-.379.044c-.16.017-.318.035-.477.054l-.324.044-.519.072-.169.024-.251.038-.2.033c-.072.011-.145.024-.218.035l-.276.047c-.179.03-.367.058-.546.093l-.4.076c-.4.076-.807.156-1.2.246A46.787,46.787,0,0,0,53.5,23.577c-.073.026-.145.05-.22.078l-.112.04-.323.123-.216.083c-.143.052-.283.105-.423.159-.268.1-.533.213-.789.319-.146.059-.287.119-.43.176s-.262.114-.392.172c-.261.113-.508.221-.752.333l-.343.16c-.252.116-.491.226-.726.342-.1.053-.208.1-.313.154-.234.118-.458.228-.678.34-.19.1-.377.2-.561.3l-.351.186c-.231.131-.459.257-.677.377l-.15.085-.1.054-.1.056c-.067.038-.127.075-.19.114-.085.049-.168.1-.249.145l-.114.069c-.345.2-.662.4-.94.57-.107.068-.208.131-.308.193-.241.15-.454.292-.641.417-.095.065-.181.121-.262.175-.172.109-.311.206-.422.284l-.131.092c-.1.068-.158.108-.179.123l1.929,2.77c.02-.013.076-.052.163-.114l.13-.09c.1-.07.231-.158.385-.258l.26-.172c.171-.114.365-.243.581-.379l.309-.191c.254-.159.539-.338.851-.518l.222-.132.116-.067c.032-.019.067-.041.1-.061l.073-.043c.063-.035.121-.067.183-.1l.77-.427.508-.269.338-.177c.185-.095.378-.19.574-.288l.347-.17c.2-.1.4-.191.606-.289l.386-.179c.2-.091.4-.177.613-.27l.449-.2.318-.131c.264-.109.536-.22.815-.33l.231-.088.361-.135.1-.038c.069-.025.138-.053.205-.076l.107-.039c.065-.024.132-.046.2-.07a44.077,44.077,0,0,1,11.633-2.442c.239-.014.479-.031.721-.047l.1,0c.165-.009.331-.014.494-.02l.335-.013.207-.007.207-.009c.141,0,.28,0,.42,0,.105,0,.21,0,.317,0,.128,0,.258,0,.389,0" transform="translate(-42.371 -20.801)" fill="#6cb9ff"/>
        </g>
      </g>
    </g>
    <g id="Grupo_1183468" data-name="Grupo 1183468" transform="translate(-11870.811 -11856.482)" opacity="0.66">
      <g id="Grupo_1183467" data-name="Grupo 1183467">
        <g id="Grupo_1183466" data-name="Grupo 1183466" clip-path="url(#clip-path-10)">
          <path id="Trazado_1029020" data-name="Trazado 1029020" d="M112.582,68.686s0-.135,0-.392-.006-.631-.023-1.105c-.037-.951-.115-2.31-.331-3.93a41.116,41.116,0,0,0-3.263-11.45c-.45-.988-.937-1.96-1.454-2.9s-1.063-1.838-1.618-2.693c-.142-.212-.276-.424-.421-.629s-.284-.41-.422-.612-.286-.395-.428-.588c-.07-.1-.139-.195-.208-.289l-.215-.279c-.561-.749-1.13-1.425-1.661-2.046-1.072-1.231-2.033-2.193-2.721-2.851-.349-.322-.618-.584-.809-.752s-.294-.258-.294-.258l2.968-3.35s.112.1.325.286.51.475.9.83c.758.732,1.827,1.8,3.014,3.16.584.691,1.219,1.439,1.838,2.268.079.1.156.206.236.31s.156.214.235.321c.155.215.317.429.475.652s.309.449.469.677.307.464.465.7c.618.948,1.228,1.945,1.8,2.986s1.111,2.118,1.609,3.216a45.609,45.609,0,0,1,3.62,12.7c.24,1.792.326,3.3.364,4.35.025.526.024.945.026,1.226s.01.432.01.432Z" transform="translate(-98.693 -34.546)" fill="#a4e7f0"/>
          <path id="Trazado_1029021" data-name="Trazado 1029021" d="M112.57,68.7v-.012l0-.392c0-.073,0-.154,0-.248,0-.231-.007-.519-.02-.857-.053-1.376-.16-2.661-.33-3.929a41.124,41.124,0,0,0-3.261-11.447c-.451-.989-.941-1.965-1.455-2.9-.438-.813-.952-1.667-1.618-2.691-.044-.068-.09-.135-.135-.205-.092-.14-.187-.286-.285-.425l-.188-.268c-.078-.116-.158-.23-.235-.341-.09-.127-.179-.251-.27-.375-.053-.071-.106-.142-.156-.214-.036-.046-.068-.095-.1-.14l-.106-.148c-.039-.051-.075-.1-.115-.146s-.068-.091-.1-.136c-.559-.744-1.127-1.417-1.659-2.044-.864-.991-1.755-1.922-2.722-2.85l-.369-.343c-.172-.164-.322-.3-.44-.407l-.292-.258-.01-.009.008-.01,2.976-3.36.009.008.325.287c.128.114.289.264.476.439l.423.394c1.09,1.047,2.076,2.081,3.017,3.159.566.667,1.206,1.425,1.838,2.27.042.05.081.1.121.156s.076.1.115.152.08.106.12.16l.117.161.167.227c.1.138.205.282.308.425.055.081.11.162.165.241.1.145.2.29.3.435s.2.294.291.436c.056.09.115.177.174.267.69,1.055,1.277,2.031,1.8,2.983.591,1.082,1.133,2.165,1.61,3.217a46.056,46.056,0,0,1,2.4,6.658,45.289,45.289,0,0,1,1.225,6.051,43.633,43.633,0,0,1,.366,4.353c.021.441.023.811.025,1.08v.145c.007.281.01.432.01.432v.012h-.013ZM98.728,37.911c.028.027.124.111.284.252.118.1.266.245.441.407l.369.345c.967.926,1.859,1.859,2.722,2.85.534.627,1.1,1.3,1.661,2.046.034.044.068.091.1.135s.076.1.112.146.071.1.109.149.066.094.1.139c.052.072.1.146.157.217.09.123.182.247.271.372s.156.229.235.342l.188.27c.1.138.193.286.286.424.043.069.09.137.135.207.665,1.023,1.178,1.879,1.618,2.69.513.934,1,1.912,1.454,2.9a41.19,41.19,0,0,1,3.265,11.454c.169,1.269.278,2.555.331,3.933.013.338.015.626.018.857,0,.092,0,.175,0,.248l0,.38,4.455,0c0-.041,0-.185-.01-.421l0-.144c0-.27,0-.639-.025-1.081-.053-1.488-.172-2.913-.364-4.35a45.386,45.386,0,0,0-1.224-6.045,46.015,46.015,0,0,0-2.394-6.656c-.478-1.051-1.02-2.134-1.61-3.213-.52-.953-1.107-1.931-1.8-2.986l-.175-.266c-.094-.143-.19-.291-.29-.432l-.3-.439-.168-.239c-.1-.145-.205-.287-.307-.427-.055-.075-.111-.15-.165-.227-.04-.052-.079-.106-.118-.158s-.078-.109-.118-.16l-.116-.153c-.041-.052-.081-.1-.121-.157-.633-.845-1.274-1.6-1.839-2.269-.939-1.076-1.926-2.11-3.013-3.157-.156-.142-.3-.273-.422-.392-.186-.176-.351-.325-.477-.439-.179-.155-.286-.253-.316-.28Z" transform="translate(-98.692 -34.545)" fill="#a4e7f0"/>
        </g>
      </g>
    </g>
    <g id="Grupo_1183471" data-name="Grupo 1183471" transform="translate(-11953.481 -11875.479)" opacity="0.86">
      <g id="Grupo_1183470" data-name="Grupo 1183470" transform="translate(0 0)">
        <g id="Grupo_1183469" data-name="Grupo 1183469" transform="translate(0 0)" clip-path="url(#clip-path-11)">
          <path id="Trazado_1029022" data-name="Trazado 1029022" d="M84.853,136.68l-.151-.129h-.244l-.131-3.625h.1c.055,0,.094-.02.149-.02h.114v.1Zm-1.86-.092-.28-.094-.02-3.546.376.092.017,3.547Zm-1.633-.02h-.394l.19-3.619h.28v.092Zm-1.744-.056-.375-.017.207-3.641.094.017h.114l.167.019Zm6.571-.038-.245-3.638.262-.019.02.09h.092l.264,3.534h-.1a.824.824,0,0,1-.206.017Zm-8.315-.074-.094-.016c-.055,0-.112-.023-.167-.023h-.1v-.091l.319-3.531h.1c.037,0,.056.02.092.02h.1l.075.016Zm10.059-.075-.376-3.622.189-.02h.092l.1-.017.376,3.622h-.1c-.056,0-.131.019-.186.019Zm-11.88-.134h-.056a.365.365,0,0,1-.131-.016l-.094-.017.45-3.6.356.055-.412,3.511h-.094Zm13.606-.072-.489-3.6.1-.017c.056,0,.114-.019.186-.019l.076-.023.5,3.6-.092.02a.159.159,0,0,0-.094.02h-.094Zm-15.239-.131-.375-.074.562-3.586.1.017a.523.523,0,0,0,.169.019h.114Zm16.969-.131-.6-3.586.15-.02a.056.056,0,0,0,.036-.017v-.13l.19.2.6,3.494-.094.02c-.075,0-.131.017-.186.017Zm-18.676-.17-.094-.017a.631.631,0,0,1-.189-.038l-.094-.017.675-3.567.357.072Zm20.381-.149-.714-3.55.357-.074.731,3.547-.092.02a.746.746,0,0,1-.187.036ZM71,135.351l-.094-.019c-.036-.017-.075-.017-.114-.038l-.167-.039.787-3.528.15.017c.037.02.1.02.131.036l.1.02Zm23.8-.17-.843-3.547.357-.076.864,3.528-.1.017a.824.824,0,0,1-.185.042Zm-25.5-.226-.1-.036a.528.528,0,0,0-.169-.039l-.1-.017.9-3.531.355.1ZM96.92,134.9l-.206-.2a.275.275,0,0,0-.131.036l-.094.019-.957-3.511.094-.017c.037-.02.1-.02.13-.04l.133-.02Zm-29.3-.415-.1-.017-.186-.054-.094-.039,1.034-3.475.353.1Zm-1.822-.034-.019-.526-.186-.058,1.142-3.453.153.039c.017.02.056.02.1.036H67.1Zm32.356-.187-1.068-3.473.2-.058v-.542l1.221,3.922Zm1.651-.526L98.628,130.3l.092-.043.171-.054.036-.017.094.071,1.165,3.382h-.112c-.04.017-.058.017-.1.036ZM64.3,133.417l-.1-.04c-.055-.017-.114-.035-.169-.054l-.1-.038,1.261-3.417.092.038c.019,0,.037.019.056.019l.17-.639v.7l.019.019Zm37.14-.264-1.274-3.4.074-.035c.037-.019.075-.036.112-.056l.15-.058,1.277,3.416-.058.02a.449.449,0,0,0-.187.078ZM62.668,132.8l-.094-.037a.723.723,0,0,0-.169-.076l-.092-.036,1.37-3.361.092.017c.059.019.114.059.167.078l.078.037Zm40.389-.3-1.388-3.346.076-.033a.4.4,0,0,0,.149-.076l.094-.02.058.076,1.368,3.247-.076.037a.649.649,0,0,1-.185.074Zm-42-.379-.074-.056a.261.261,0,0,1-.112-.033l-.151-.079,1.463-3.321.337.15Zm43.6-.319-1.5-3.3.149-.056.036-.036v-.36l1.672,3.6-.092.04a.757.757,0,0,1-.133.054Zm-45.172-.411-.1-.039c-.054-.036-.111-.056-.169-.092l-.092-.037,1.6-3.267.074.039.114.054.114.131-.02.02Zm46.748-.319-1.613-3.265.112-.06c.04-.019.1-.036.133-.055l.094-.019.04.055,1.612,3.21h-.13c-.023.02-.059.02-.076.04a.171.171,0,0,1-.074.036Zm-48.324-.45-.078-.06c-.055-.034-.111-.054-.169-.09l-.094-.041,1.708-3.226.076.055c.055.017.092.058.149.075l.076.039-.021.1Zm49.882-.362-1.727-3.208.076-.036c.037-.017.075-.04.114-.058v-.3l.112.228.075-.036V127l1.671,3.095-.078.04c-.055.036-.111.056-.169.092Zm-51.4-.487-.094-.036c-.056-.036-.111-.054-.17-.094l-.074-.056,1.782-3.155.1.039a1.429,1.429,0,0,0,.151.1l.072.056Zm52.909-.354-1.823-3.135.075-.056a.889.889,0,0,0,.17-.094l.074-.037,1.842,3.133Zm-54.43-.506-.072-.06a.876.876,0,0,0-.169-.091l-.078-.058,1.894-3.1.078.036a1.3,1.3,0,0,0,.15.094l.094.06Zm55.929-.376-1.934-3.1.337-.15.021.036,1.894,3-.149.078a.193.193,0,0,1-.1.072ZM53.4,127.974l-.1-.058c-.055-.038-.091-.056-.15-.094l-.074-.06,1.989-3.021.075.037c.017.02.056.04.075.06.021,0,.039.016.056.016h.15l-.056.074.226.115h-.3Zm58.835-.4-2.028-3,.151-.114c.019,0,.019-.019.039-.019v-.26l2.157,3.191-.075.054a.427.427,0,0,0-.112.078Zm-60.3-.58-.075-.06a.448.448,0,0,0-.15-.09l-.074-.058,2.082-2.985.075.054a1.319,1.319,0,0,1,.15.114l.075.059Zm61.727-.414-2.122-2.949.1-.054c.017-.019.055-.043.072-.06l.133-.09,2.1,2.966-.036.034a.317.317,0,0,0-.075.056c-.039.02-.058.04-.1.059Zm-63.473-.264.208-.453a.2.2,0,0,1-.1-.07l-.074-.06,2.2-2.891.091.074c.04.042.078.062.114.1l.037.114-.019.017Zm64.88-.771-2.214-2.869.075-.056a.234.234,0,0,1,.075-.058l.056-.055.076-.058,2.233,2.872-.076.056c-.055.036-.092.078-.15.114Zm-65.911-.637-.3-.24,2.271-2.817.149.108a.256.256,0,0,0,.078.06l.074.054Zm67.264-.433-2.311-2.815.075-.056c.058-.037.1-.074.15-.111l.076-.056,2.308,2.8-.074.056c-.04.036-.1.076-.151.13Zm-68.616-.674-.282-.242,2.366-2.762.112.114a.314.314,0,0,1,.094.076l.074.054Zm69.947-.453-2.4-2.738.075-.059c.017-.017.056-.037.074-.056a.266.266,0,0,1,.076-.052l.056-.076,2.4,2.722-.055.074c-.058.036-.1.076-.151.114Zm-71.242-.692-.114-.1c-.036-.039-.075-.072-.111-.112l-.058-.055,2.459-2.686.094.114c.039.019.056.056.094.072l.075.078Zm72.536-.47-2.477-2.665.055-.058c.039-.039.076-.076.114-.11l.092-.078,2.59,2.724h-.187c-.019.019-.037.036-.056.056s-.036.036-.056.054Zm-73.812-.734-.078-.054c-.036-.036-.072-.076-.111-.114l-.094-.1,2.55-2.588.265.264Zm75.069-.486-2.57-2.571.056-.058a.875.875,0,0,0,.131-.133l.112-.036.019.036,2.477,2.5v.229l-.092-.1a.278.278,0,0,0-.058.078ZM44,120.237l-.112-.131a.392.392,0,0,1-.076-.094l-.058-.054,2.612-2.519.114.114c.017.019.036.037.055.059h.185Zm77.511-.525-2.647-2.479.094-.09c.037-.041.075-.078.094-.1l.056-.076,2.779,2.572-.226.019c-.02.038-.056.054-.075.1Zm-78.695-.75-.055-.076.055-.058-.072.042a.922.922,0,0,1-.114-.131l-.055-.078,2.7-2.4.245.265Zm79.877-.526-2.74-2.4.076-.072a.868.868,0,0,0,.111-.135l.058-.072,2.739,2.4-.058.072c-.035.04-.092.1-.13.131Zm-81.02-.786-.058-.078a.25.25,0,0,1-.056-.074.244.244,0,0,1-.074-.078l-.059-.074,2.779-2.326.114.114a.372.372,0,0,0,.072.09l.059.078Zm82.146-.548L121,114.8l.242-.283,2.781,2.3v.228l-.1-.076Zm-83.253-.787-.056-.094c-.04-.038-.076-.094-.112-.13l-.078-.078,2.876-2.252.055.075c.036.039.074.1.114.149l.055.06Zm84.341-.562-2.873-2.217.076-.11a.381.381,0,0,0,.075-.114l.056-.072,2.909,2.215-.075.09a1.119,1.119,0,0,0-.112.131Zm-85.394-.829-.072-.11a.518.518,0,0,1-.1-.131l-.056-.078,2.926-2.137.058.075c.019.035.055.076.074.112h.245Zm86.446-.561-2.967-2.14.225-.3,2.947,2.122-.055.074a.388.388,0,0,1-.1.149Zm-87.4-.884-.114-.054c-.037-.059-.074-.1-.112-.15l-.056-.079.076-.054,2.928-2.009.092.13a.5.5,0,0,0,.055.1l.059.074Zm88.4-.56-3.022-2.027.2-.3,3.023,2.006Zm-89.427-.865-.208-.317,3.062-1.955.054.074a.8.8,0,0,1,.094.17l.056.079Zm90.364-.6-3.076-1.914.056-.078a.089.089,0,0,1,.037-.071l-.262-.134h.412l.039.02,3,1.859-.094.15a.41.41,0,0,1-.056.094ZM36.6,110.59l-.189-.319,3.114-1.857.19.3Zm92.205-.62-3.153-1.821.036-.1a.2.2,0,0,0,.058-.071c.019-.02.019-.056.036-.079l.058-.072,3.134,1.8-.038.076c-.037.054-.056.114-.092.167Zm-93.124-.846-.059-.411,3.115-1.707.039.074c.039.058.058.094.094.147v.115l-.036.019Zm93.968-.676-3.19-1.726.038-.078c.019-.035.036-.071.055-.11l.076-.129,3.189,1.707-.036.072c-.019.04-.038.078-.056.114Zm-94.738-.9-.17-.336,3.246-1.654.169.34Zm95.544-.655-3.265-1.612.056-.1a.286.286,0,0,1,.039-.094l-.114-.11h.244l.039.019,3.151,1.576-.016.054c-.02.04-.04.06-.04.1a.414.414,0,0,0-.056.1Zm-96.314-.9-.04-.076c-.016-.058-.056-.13-.074-.185l-.055-.078,3.3-1.54.036.079a.268.268,0,0,1,.036.09l.078.15Zm97.066-.676-3.3-1.5.055-.133c.019-.036.037-.088.056-.129l.039-.075,3.3,1.5Zm-97.781-.9-.151-.358,3.343-1.425.037.09c.019.06.036.114.055.17l.039.078Zm98.475-.7-3.36-1.389.078-.186-.284-.131h.451l3.267,1.35-.039.094c-.019.056-.056.115-.074.169Zm-99.149-.9-.131-.352L36,101.127l.036.1a.71.71,0,0,0,.075.169v.092l-.056.021Zm99.805-.712-3.415-1.3.039-.091a.16.16,0,0,0,.035-.078c0-.019,0-.019.021-.036l-.264-.264,3.679,1.464Zm-100.408-.919-.035-.1a.242.242,0,0,1-.039-.111l-.058-.151L35.437,99.6l.17.321-.134.058Zm101.009-.732-3.451-1.184.036-.074c.019-.036.019-.078.038-.115l.019-.167.112.037,3.359,1.146-.036.094c-.019.058-.039.112-.058.167ZM31.665,99.515l-.114-.078c-.019-.036-.019-.054-.036-.09,0-.038-.019-.059-.019-.1l-.036-.091,3.471-1.09.112.355Zm102.022-.731-3.474-1.052.019-.094a.954.954,0,0,0,.056-.169l.039-.094,3.471,1.05ZM31.064,97.861l-.019-.092a.183.183,0,0,1-.017-.094c-.019-.017-.019-.054-.037-.1l-.02-.072,3.491-.995.036.1c0,.036.019.072.019.112l.056.147Zm103.111-.749-3.51-.94.094-.354,3.491,1.014-.02.072c-.017.04-.017.076-.036.112Zm-103.562-.94-.019-.074a.856.856,0,0,1-.036-.206l-.019-.074,3.508-.866.019.078a.693.693,0,0,1,.037.113h.153l-.131.13.019.017Zm103.993-.749-3.529-.828.02-.094a.257.257,0,0,1,.017-.112v-.15h.037l.151-.751v.789l3.359.865-.019.074c0,.037-.019.074-.019.114Zm-104.385-.94-.02-.094c-.019-.055-.019-.112-.039-.189l-.019-.091,3.549-.755.019.1a.587.587,0,0,1,.037.171l-.075.111Zm104.76-.75-3.568-.714.023-.092a.56.56,0,0,1,.035-.19l.02-.1,3.566.695-.019.1a.73.73,0,0,0-.039.206Zm-105.1-.957-.075-.378,3.584-.636.02.092c0,.058.017.134.017.189l.017.094ZM135.3,92.006l-3.584-.6.02-.149c0-.039.017-.075.017-.114v-.112l.111.036,3.491.565-.017.094c0,.037-.02.1-.02.13ZM29.582,91.067v-.091c0-.04-.02-.076-.02-.113l-.017-.173,3.583-.524.021.094c0,.058.017.112.017.186l.02.079Zm105.981-.77-3.6-.486.037-.378,3.6.47V90c-.02.056-.02.115-.037.17ZM29.356,89.341l-.037-.4,3.6-.394.017.094c0,.076.02.135.02.19v.076l-.075.016Zm106.395-.77-3.6-.376V88.1c0-.036.019-.075.019-.129l.017-.133h.1l3.528.337ZM29.187,87.6v-.076a.243.243,0,0,1-.019-.112l-.019-.189,3.621-.283.02.1v.186l.017.092ZM135.9,86.826l-3.621-.245.019-.375,3.64.245-.019.092v.19ZM29.076,85.869l-.021-.1h.1l-.1-.019v-.187l.1-.092,3.529-.15.019.355Zm106.918-.789-3.641-.131.02-.1v-.091l.019-.17,3.621.112v.186a.143.143,0,0,1-.019.1ZM29,84.123v-.28l.094-.1,3.548-.056-.1.376Zm107.033-.769-3.623-.115.092-.469h3.53Zm-103.411-.92L29,82.284V82l3.641.149v.189Zm99.769-.9-.019-.169v-.112l-.02-.094h.112l3.529-.131v.092a.212.212,0,0,1,.019.1V81.4ZM32.585,80.8l-3.491-.169-.208-.167h.169v-.1l.114-.1,3.529.265a.536.536,0,0,1-.019.17Zm99.713-.9-.019-.374,3.621-.246.019.114v.188l.019.094Zm-99.527-.712-3.621-.28.019-.1v-.149l.019-.133,3.621.3-.017.1v.094Zm99.413-.9-.017-.1a.527.527,0,0,0-.019-.17v-.112l3.51-.337.017.189v-.1l.094-.017.037.28Zm-99.262-.715-3.6-.581h.019a.174.174,0,0,1,.019-.1v-.111l3.623.431-.019.094a.187.187,0,0,1-.02.092v.076Zm99.074-.9-.037-.374,3.585-.471.019.1c0,.037.017.072.017.114l.02.167Zm-98.87-.711-3.583-.507v-.133c.017-.056.017-.112.037-.167l.019-.074,3.585.522-.02.1v.094a.123.123,0,0,0-.017.076Zm98.645-.9-.019-.092c0-.039-.017-.076-.017-.112l-.115-.133L135.3,74.1v.113c.019.02.019.055.019.112l.037.149Zm-98.381-.694-3.584-.636.075-.379,3.564.659-.017.094a.121.121,0,0,1-.017.075v.092Zm98.1-.9-.02-.094a1.121,1.121,0,0,1-.035-.149l-.023-.1.1-.038,3.471-.695.019.1a.617.617,0,0,0,.039.186l.019.1Zm-97.8-.694-3.549-.75.019-.133c.02-.058.02-.115.039-.15l.02-.094,3.545.767-.017.1a.3.3,0,0,0-.02.131Zm97.46-.882-.019-.1c-.019-.055-.036-.111-.056-.169l-.019-.092,3.548-.846.019.1c.019.074.019.133.038.187l.017.1Zm-97.105-.695-3.526-.882.092-.356,3.53.882-.019.094a.473.473,0,0,0-.037.167Zm96.711-.882-.094-.356,3.51-.956.019.091c.019.058.036.134.056.189l.017.094Zm-96.278-.715h-.114l-3.4-.956.039-.189c.019-.016.019-.055.036-.091l.019-.094,3.49.994Zm95.847-.862-.058-.149a.135.135,0,0,0-.037-.1l-.019-.094,3.474-1.07.036.151c.019.036.037.091.056.13l.019.1Zm-95.4-.675L31.46,66.966l.036-.1c.019-.074.036-.13.055-.185l.019-.1L35.044,67.7l-.04.094c0,.036-.017.055-.017.094-.019.019-.019.056-.037.074Zm94.906-.862-.129-.358,3.451-1.165.019.1c.019.036.019.055.039.094,0,.039.019.056.019.075l.036.092Zm-94.4-.675L32.02,65.295l.017-.076c.021-.072.059-.13.079-.186l.035-.094,3.418,1.22-.037.094c-.02.055-.037.114-.059.169Zm93.857-.865-.111-.339.056-.036,3.36-1.257v.112c.017.055.036.111.055.167l.037.094Zm-93.331-.695h-.039l-3.3-1.3.035-.092c.021-.037.04-.094.059-.133l.037-.13,3.4,1.332-.076.187.264.131Zm92.731-.807-.039-.1a1.532,1.532,0,0,0-.058-.149l-.035-.1,3.34-1.389.039.075a.683.683,0,0,1,.074.169l.039.1-.1.039ZM36.62,63.475l-3.343-1.427.04-.094c.019-.039.039-.076.056-.111l.055-.151,3.34,1.446-.037.094a.6.6,0,0,0-.074.169Zm91.437-.809-.039-.092a.4.4,0,0,0-.075-.151l-.036-.094,3.3-1.5.075.131c.019.039.037.1.055.133l.039.076Zm-90.762-.675-3.3-1.54.169-.356,3.267,1.557-.019.094a.1.1,0,0,0-.037.076.128.128,0,0,0-.039.075Zm90.067-.787-.037-.1a.156.156,0,0,0-.037-.076V61h-.357l3.546-1.707.037.056c.02.036.02.055.037.092l.075.169ZM37.99,60.525l-3.226-1.65.055-.131c.017-.038.056-.075.074-.117l.04-.09,3.226,1.67-.039.076c-.036.055-.056.111-.091.167Zm88.64-.767-.037-.1c-.019-.036-.039-.056-.058-.094l-.056-.131,3.19-1.727.076.149c.019.04.038.059.056.1l.058.092Zm-87.89-.676-3.17-1.745L35.755,57l3.173,1.762-.076.151c-.016.036-.035.056-.056.1Zm87.119-.751-.036-.075c-.017-.017-.039-.056-.056-.076-.019-.038-.019-.055-.037-.074l-.056-.1,3.151-1.818.04.091c.017.04.036.056.056.1l.094.149Zm-86.293-.656-3.133-1.861.056-.072c.017-.017.017-.056.036-.076.019-.037.037-.055.058-.092l.056-.076,3.117,1.859Zm85.469-.731-.094-.153a.218.218,0,0,0-.056-.074l-.039-.1,3.08-1.915.055.076a.722.722,0,0,0,.1.169l.055.074Zm-84.624-.66-3.06-1.951.189-.317.094.054L40.6,55.981Zm83.76-.711-.056-.076c-.019-.019-.037-.055-.056-.074a.152.152,0,0,1-.036-.076l-.076-.074,3.04-2.029.058.112a1.207,1.207,0,0,1,.094.131l.055.075Zm-82.877-.639-2.984-2.047.056-.074c.036-.055.074-.114.112-.169l.056-.076L41.5,54.634l-.039.072c-.039.058-.075.1-.111.149Zm81.957-.7-.226-.3,2.967-2.121.056.074a.454.454,0,0,0,.112.15l.058.1Zm-81-.636-2.928-2.14.092-.134a.533.533,0,0,1,.076-.111l.055-.056,2.91,2.138-.058.079a.409.409,0,0,1-.094.147Zm80.025-.675-.208-.283,2.872-2.216L125,50.5c.039.037.076.094.133.149l.058.078Zm-79.049-.62-2.852-2.235L40.429,50a.954.954,0,0,1,.115-.151l.054-.075,2.853,2.254-.056.075a.688.688,0,0,1-.112.13Zm78.055-.659-.058-.074c-.037-.039-.074-.1-.111-.134l-.058-.072L123.945,49v.169c.036.038.058.075.094.112l.075.076Zm-77.044-.6-2.777-2.329.058-.074a.6.6,0,0,0,.092-.112l.094-.114,2.779,2.346-.075.094a.724.724,0,0,1-.094.112Zm76.012-.637-.244-.283,2.72-2.346h.394l-.245.111c.021.021.039.037.039.058l.075.076Zm-74.941-.583-2.7-2.442.036-.035v-.17l.078.074h.019l.112-.15,2.7,2.441-.1.114c-.036.036-.055.072-.094.094Zm73.852-.62-.075-.075a.358.358,0,0,0-.076-.094l-.092-.114,2.645-2.477.074.075a.825.825,0,0,0,.133.133l.058.075Zm-72.708-.62-.111-.017-2.553-2.46.056-.055c.019-.04.056-.058.074-.1l.131-.13,2.609,2.533-.056.074c-.037.037-.092.076-.129.114Zm71.58-.561-.055-.076c-.039-.02-.058-.058-.1-.076l-.092-.112,2.57-2.572.261.281ZM47.543,47.48l-2.536-2.61.078-.055a.776.776,0,0,1,.13-.151l.056-.056,2.534,2.608Zm69.346-.6-.074-.055c-.02-.019-.04-.037-.058-.056a.154.154,0,0,1-.075-.076l-.058-.058,2.478-2.645.058.055a.289.289,0,0,0,.092.075l.134.131Zm-68.165-.525-2.459-2.685.04-.037v-.187l.092.094.15-.112,2.459,2.685-.114.094c-.036.036-.072.055-.111.094Zm66.963-.564-.13-.112-.075-.074-.075-.058,2.458-2.685.037.04a1.067,1.067,0,0,0,.131.111l.074.056Zm-65.742-.524L47.56,42.523l.076-.072a1.112,1.112,0,0,0,.149-.133l.076-.056,2.346,2.777-.056.059c-.056.036-.094.072-.15.111Zm64.506-.528-.134-.111c-.017-.037-.056-.059-.074-.076l-.058-.056,2.309-2.816.094.1c.036.039.075.056.112.094l.074.056ZM51.239,44.2l-.112-.038-2.289-2.835h.169a.468.468,0,0,1,.111-.1l.076-.055,2.271,2.836-.075.055c-.036.036-.094.075-.131.112Zm61.952-.487-.112-.1a.44.44,0,0,1-.094-.075l-.092-.056,2.232-2.89.076.074a.437.437,0,0,1,.092.076l.133.092Zm-60.733-.469-2.194-2.912.072-.055c.059-.036.114-.074.171-.112l.075-.056,2.177,2.91-.078.056a.242.242,0,0,0-.072.056.219.219,0,0,0-.075.056ZM111.9,42.73l-.133-.094a.443.443,0,0,0-.092-.075l-.075-.056,2.119-2.949.32.228Zm-58.125-.449-2.1-2.985.151-.1a.348.348,0,0,1,.092-.055l.075-.078,2.082,3L54,42.13a.385.385,0,0,0-.15.092Zm56.793-.49-.076-.058a.306.306,0,0,1-.092-.071l-.133-.078,2.028-3.022.074.055a.294.294,0,0,1,.076.059c.036.019.058.037.094.055l.075.058Zm-55.459-.43-1.989-3.042.075-.056a.771.771,0,0,0,.17-.094l.074-.056,1.973,3.041Zm54.108-.471-.1-.036c-.019-.02-.055-.039-.075-.058l-.15-.091,1.932-3.08.319.2Zm-52.739-.4-1.9-3.115.32-.189,1.9,3.1Zm51.349-.449-.319-.189,1.821-3.135.092.039a.422.422,0,0,0,.1.056.1.1,0,0,0,.074.036l.076.059Zm-49.961-.376L56.08,36.5l.32-.169,1.783,3.153Zm48.553-.431-.091-.037a.313.313,0,0,0-.076-.036c-.021-.019-.039-.019-.058-.039h-.133l.076-.131,1.672-3.116.092.037c.055.036.112.058.169.1l.075.036Zm-47.105-.32-.076-.111L57.6,35.672l.036-.02v-.319l.133.246a.139.139,0,0,1,.092-.037l.076-.059,1.672,3.231-.115.075c-.036.019-.074.039-.114.058Zm45.659-.431-.319-.169,1.616-3.246.075.036.11.055.153.078Zm-44.232-.34-1.6-3.263.13-.058a.409.409,0,0,0,.131-.075l.094-.039L61.055,38l-.074.039a.948.948,0,0,0-.134.058Zm42.772-.372-.1-.036a.129.129,0,0,0-.094-.039l-.167-.039,1.538-3.341.131.055a.988.988,0,0,1,.131.058l.076.056Zm-41.311-.3-1.481-3.322.092-.039a.71.71,0,0,1,.171-.076L61.074,34l1.462,3.321-.091.037a.5.5,0,0,0-.15.076Zm39.828-.358-.339-.149,1.388-3.362.092.058a.1.1,0,0,1,.076.036.3.3,0,0,1,.114.037l.076.038Zm-38.343-.281-1.37-3.361.169-.074c.036-.019.074-.019.114-.037l.072-.039L64.02,36.7l-.078.037c-.035,0-.054.02-.072.02-.036.017-.075.017-.1.039Zm36.821-.319-.075-.037a.573.573,0,0,0-.169-.076l-.092-.019,1.295-3.419.357.153Zm-35.244-.3-.1-.058-1.222-3.322.133-.055c.039-.019.1-.019.151-.037l.076-.039,1.238,3.416-.094.037c-.037,0-.058.021-.1.039Zm33.725-.283-.356-.112,1.181-3.455.1.037c.055.021.094.04.15.058l.114.037Zm-32.261-.224L65.6,32.258l.074-.02a.745.745,0,0,0,.1-.039c.036-.019.055-.019.094-.036l.094-.019L67.079,35.6l-.092.037a.5.5,0,0,0-.169.037Zm30.723-.283-.094-.017a.743.743,0,0,1-.1-.039c-.017,0-.056-.017-.074-.017l-.094-.021,1.143-3.472.282.1Zm-29.165-.206L67.248,31.73l.094-.019a1.793,1.793,0,0,0,.186-.055l.1-.019,1.011,3.491-.091.017c-.037,0-.058.019-.1.019-.019.019-.055.019-.094.039Zm27.606-.245-.356-.092.957-3.53.094.037c.017,0,.04.017.074.017.039.019.078.019.094.039l.1.019Zm-25.974-.2-.094-.078-.9-3.452h.114a.531.531,0,0,1,.169-.037l.075-.036.039.091.88,3.435Zm24.4-.206-.1-.021a.165.165,0,0,0-.092-.019l-.17-.036.827-3.548.375.1Zm-22.823-.19L71.4,34.3l-.77-3.452.074-.02c.039,0,.075-.019.112-.019L71,30.773l.77,3.548-.094.02a.785.785,0,0,1-.1.017Zm21.246-.169-.375-.074.731-3.566.075.019c.074.017.131.017.207.036l.092.019Zm-19.727-.149-.692-3.548.094-.037c.056,0,.111-.019.169-.019l.111-.037L73.366,34l-.094.017a.224.224,0,0,0-.094.017H73.1Zm18.131-.15-.17-.039c-.036,0-.074-.016-.111-.016l-.092-.019.6-3.587.1.019c.072.019.129.019.186.036l.094.019ZM74.626,33.87l-.039-.169-.545-3.51h.094a.752.752,0,0,1,.189-.039l.092-.017.546,3.586-.1.017a.4.4,0,0,1-.151.017Zm14.9-.225-.167-.017a.741.741,0,0,1-.1-.02v-.091h-.1L89.639,30h.092c.075.017.133.017.208.037h.092ZM76.2,33.552l-.434-3.6.374-.039.432,3.606Zm11.709-.1-.357-.055L88,29.8a.212.212,0,0,0,.1.019h.112l.1.019Zm-10.079-.074L77.5,29.76h.092a.346.346,0,0,1,.15-.02l.133-.017.319,3.622-.092.02h-.17Zm8.466-.078-.1-.017h-.169l-.094-.019v-.094l.245-3.53.375.037Zm-6.757-.055-.115-.094-.2-3.528h.1a.821.821,0,0,1,.206-.017l.092.09.189,3.532H79.71a.116.116,0,0,0-.074.017Zm5.142-.036L84.59,33.2h-.282l.225-3.625h.3Zm-3.528-.039-.094-.1-.1-3.528h.1c.074,0,.129-.019.186-.019l.1.1.092,3.528-.092.019Zm1.894-.019-.357-.092.112-3.531h.281Z" transform="translate(-29.461 -30.11)" fill="#6cb9ff"/>
        </g>
      </g>
    </g>
    <ellipse id="Elipse_13684" data-name="Elipse 13684" cx="39.017" cy="39.029" rx="39.017" ry="39.029" transform="translate(-11939.772 -11861.504)" fill="#344866"/>
    <g id="Grupo_1212921" data-name="Grupo 1212921" transform="translate(-11925.772 -11847.504)">
      <g id="Grupo_1212920" data-name="Grupo 1212920" clip-path="url(#clip-path-12)">
        <path id="Trazado_1278656" data-name="Trazado 1278656" d="M59.461,7.435a4.341,4.341,0,0,0-4.56.277,4.456,4.456,0,0,0-1.932,4,.887.887,0,0,1-.563.785,6.645,6.645,0,0,0,1.981,13.008l7.267-.013a.812.812,0,0,1,.783.73.8.8,0,0,1-.877.869L54.1,27.074a8.153,8.153,0,0,1-7.889-6.724,8.249,8.249,0,0,1,5.145-9.182,6.157,6.157,0,0,1,2.6-4.728,6.027,6.027,0,0,1,5.524-.756,9.258,9.258,0,0,1,17.665,5.13,8.236,8.236,0,0,1-1.557,16.278H68.121a.8.8,0,0,1-.874-.86.816.816,0,0,1,.911-.731l7.285-.007A6.629,6.629,0,0,0,76.311,12.3a1.477,1.477,0,0,1-.717-.28,1.267,1.267,0,0,1-.166-.9A7.661,7.661,0,0,0,60.646,7.11c-.15.49-.794.534-1.185.325" transform="translate(-39.339 0)" fill="#fff"/>
        <path id="Trazado_1278657" data-name="Trazado 1278657" d="M68.214,113.343a.864.864,0,0,1-.822.911.847.847,0,0,1-.793-.846l0-2.351-15.168,0a.875.875,0,0,0-.767.823l.017,1.545a.926.926,0,0,1-.678.825.863.863,0,0,1-.926-.716l.008-1.773a2.362,2.362,0,0,1,2.328-2.3l15.19-.006,0-10.442a3.191,3.191,0,0,1,.664-6.276A3.183,3.183,0,0,1,68.212,99l-.005,10.459,15.324.017a2.351,2.351,0,0,1,2.2,2.267l.016,1.808c0,.316-.512.712-.8.707a.858.858,0,0,1-.808-.847l.013-1.53a.875.875,0,0,0-.766-.825l-15.168,0ZM69,95.928a1.6,1.6,0,1,0-1.6,1.595A1.6,1.6,0,0,0,69,95.928" transform="translate(-41.903 -79.192)" fill="#fff"/>
        <path id="Trazado_1278658" data-name="Trazado 1278658" d="M255.906,256.563V263.1a2.354,2.354,0,0,1-2.338,2.331l-11.4-.007a2.317,2.317,0,0,1-2.176-2.174l-.015-9.81a2.259,2.259,0,0,1,2.052-2.29l5.122-.025a2.21,2.21,0,0,1,1.867,1.163l1.036,2.006,3.828.046a2.277,2.277,0,0,1,2.021,2.221m-1.6.033a.77.77,0,0,0-.7-.7l-4,.025a1.2,1.2,0,0,1-.771-.482l-1.412-2.725-5.252,0c-.365,0-.583.528-.582.872l0,9.5a.781.781,0,0,0,.735.738l11.1,0a.843.843,0,0,0,.882-.877Z" transform="translate(-204.907 -214.44)" fill="#fff"/>
        <path id="Trazado_1278659" data-name="Trazado 1278659" d="M135.919,256.569l.017,6.392a2.393,2.393,0,0,1-2.348,2.476H122.334A2.363,2.363,0,0,1,120,263.1l0-9.661a2.269,2.269,0,0,1,2.046-2.291l5.125-.026a2.216,2.216,0,0,1,1.868,1.161l1.04,2.015,3.68.023a2.285,2.285,0,0,1,2.161,2.246m-1.6.023a.762.762,0,0,0-.705-.7l-3.95.023a1.142,1.142,0,0,1-.769-.4l-1.454-2.8h-5.257c-.36,0-.583.534-.583.874l.006,9.5a.8.8,0,0,0,.732.741h11.245a.81.81,0,0,0,.738-.73Z" transform="translate(-102.461 -214.438)" fill="#fff"/>
        <path id="Trazado_1278660" data-name="Trazado 1278660" d="M15.923,256.635l-.012,6.678A2.334,2.334,0,0,1,13.6,265.5L2.343,265.5A2.362,2.362,0,0,1,0,263.166l0-9.659a2.269,2.269,0,0,1,2.045-2.292l5.266-.015a2.2,2.2,0,0,1,1.728,1.141l1.043,2.024,3.677.023a2.282,2.282,0,0,1,2.164,2.246m-1.6-.106a.911.911,0,0,0-.7-.563l-4,.013a1.216,1.216,0,0,1-.779-.468l-1.122-2.284a1.129,1.129,0,0,0-.686-.452l-4.714,0a.764.764,0,0,0-.717.74v9.638a.814.814,0,0,0,.734.743H13.584a.805.805,0,0,0,.738-.731Z" transform="translate(0 -214.504)" fill="#fff"/>
      </g>
    </g>
  </g>
</svg>
