<svg xmlns="http://www.w3.org/2000/svg" xmlns:xlink="http://www.w3.org/1999/xlink" width="84" height="84" viewBox="0 0 84 84">
  <defs>
    <clipPath id="clip-path">
      <rect id="Rectángulo_462504" data-name="Rectángulo 462504" width="64.541" height="64.5" fill="#344866"/>
    </clipPath>
  </defs>
  <g id="Grupo_1212407" data-name="Grupo 1212407" transform="translate(0.578 0.547)">
    <g id="Grupo_1119665" data-name="Grupo 1119665" transform="translate(-0.578 -0.547)">
      <rect id="Rectángulo_402006" data-name="Rectángulo 402006" width="84" height="84" rx="5" fill="#ffe79e"/>
    </g>
    <g id="Grupo_1212906" data-name="Grupo 1212906" transform="translate(9.422 9.453)">
      <g id="Grupo_1212905" data-name="Grupo 1212905" clip-path="url(#clip-path)">
        <path id="Trazado_1278629" data-name="Trazado 1278629" d="M47.8,64.485,16.841,64.5a4.919,4.919,0,0,1,.341-9.831l7.1.019.02-2.3-17.274,0A6.95,6.95,0,0,1,.011,45.457L0,7.008A6.894,6.894,0,0,1,6.677.016L57.68,0a6.926,6.926,0,0,1,6.861,7.015L64.53,45.463a6.829,6.829,0,0,1-6.649,6.872l-17.642.053.02,2.305,6.911-.036a4.99,4.99,0,0,1,5.209,4.624c.177,2.384-1.715,5.2-4.578,5.2M57.659,48.57A3.062,3.062,0,0,0,60.741,45.7l0-38.968A3.2,3.2,0,0,0,57.3,3.754L6.749,3.767A3.133,3.133,0,0,0,3.792,6.723L3.8,45.705A3.064,3.064,0,0,0,6.882,48.57Zm-21.2,3.811h-8.38V54.7h8.38ZM47.5,60.787c.786-.22,1.132-.709,1.082-1.325A1.228,1.228,0,0,0,47.5,58.428H17.043a1.177,1.177,0,0,0-1.1,1.185A1.285,1.285,0,0,0,17.1,60.787Z" transform="translate(0 0)" fill="#344866"/>
        <path id="Trazado_1278630" data-name="Trazado 1278630" d="M89.409,73.15h-7.22a1.969,1.969,0,0,1-1.942-2.1l.021-2.49-1.544-.632-1.846,1.861a1.953,1.953,0,0,1-2.828-.044l-5.07-5.091a1.89,1.89,0,0,1,.053-2.7l1.856-1.865L70.3,58.614,67.776,58.6a2,2,0,0,1-2.1-1.982V49.386a1.82,1.82,0,0,1,1.538-1.822l3.067-.06.619-1.521-1.953-1.989a1.866,1.866,0,0,1,.152-2.7l5.19-5.165a1.928,1.928,0,0,1,2.658.188l1.8,1.819,1.525-.634,0-2.75a1.828,1.828,0,0,1,1.559-1.8l7.937,0c1.007,0,1.588,1.151,1.582,1.977l-.019,2.569,1.527.635,1.805-1.824a1.932,1.932,0,0,1,2.658-.19l5.363,5.36a1.827,1.827,0,0,1-.009,2.493l-1.956,1.97.606,1.577,2.522-.024a1.915,1.915,0,0,1,2.08,1.9l0,7.221A1.968,1.968,0,0,1,104,58.585l-2.713.038-.581,1.461,1.939,1.976a1.876,1.876,0,0,1-.03,2.6l-5.174,5.18a1.91,1.91,0,0,1-2.621.044l-1.957-1.95-1.532.627-.006,2.679a1.92,1.92,0,0,1-1.921,1.907m-1.877-3.771.039-2.406a1.8,1.8,0,0,1,1.338-1.6,17.938,17.938,0,0,0,3.266-1.364,1.927,1.927,0,0,1,2.36.242l1.578,1.566,2.5-2.457-1.5-1.5a1.922,1.922,0,0,1-.315-2.5c1.438-2.542,1.117-4.566,3.15-4.581l2.176-.015v-3.5l-2.574-.034c-1.473-.02-1.481-2.28-2.712-4.452a1.959,1.959,0,0,1,.209-2.521l1.522-1.53-2.487-2.484-1.527,1.531a1.827,1.827,0,0,1-2.3.319A17.067,17.067,0,0,0,89,40.744a1.84,1.84,0,0,1-1.436-1.709l-.033-2.359-3.48,0-.009,2.176a1.885,1.885,0,0,1-1.459,1.893c-2.859.85-4.15,2.417-5.434,1.137l-1.637-1.632L73.03,42.735l1.519,1.531a1.959,1.959,0,0,1,.209,2.523c-1.4,2.467-1.059,4.487-3.1,4.479l-2.185-.008v3.505l2.356.038A1.862,1.862,0,0,1,73.5,56.216a15.134,15.134,0,0,0,1.306,3.175,1.864,1.864,0,0,1-.062,2.167L73,63.376l2.492,2.449,1.472-1.487a1.962,1.962,0,0,1,2.467-.322,17.987,17.987,0,0,0,3.261,1.354,1.814,1.814,0,0,1,1.335,1.6l.041,2.406Z" transform="translate(-53.527 -26.864)" fill="#344866"/>
        <path id="Trazado_1278631" data-name="Trazado 1278631" d="M147.386,106.485a7.959,7.959,0,1,1-7.959-7.959,7.959,7.959,0,0,1,7.959,7.959m-3.78-.007a4.18,4.18,0,1,0-4.18,4.18,4.18,4.18,0,0,0,4.18-4.18" transform="translate(-107.156 -80.306)" fill="#344866"/>
      </g>
    </g>
  </g>
</svg>
