<svg xmlns="http://www.w3.org/2000/svg" xmlns:xlink="http://www.w3.org/1999/xlink" width="96" height="96" viewBox="0 0 96 96">
  <defs>
    <clipPath id="clip-path">
      <rect id="Rectángulo_454829" data-name="Rectángulo 454829" width="96" height="96" fill="#1e535a"/>
    </clipPath>
    <clipPath id="clip-path-2">
      <rect id="Rectángulo_462484" data-name="Rectángulo 462484" width="32.536" height="32.535" fill="#1e535a"/>
    </clipPath>
  </defs>
  <g id="Grupo_1212391" data-name="Grupo 1212391" transform="translate(-1481 -8562.5)">
    <g id="Grupo_1177591" data-name="Grupo 1177591" transform="translate(1481 8562.5)">
      <g id="Grupo_1177589" data-name="Grupo 1177589" transform="translate(0 0)">
        <g id="Grupo_1177587" data-name="Grupo 1177587" clip-path="url(#clip-path)">
          <path id="Trazado_997422" data-name="Trazado 997422" d="M92.081,42.491a44.136,44.136,0,0,0-9.97-22.967,5.076,5.076,0,0,0-7.142-6.838A44.071,44.071,0,0,0,52.151,3.77a5.077,5.077,0,0,0-9.861.2A44.132,44.132,0,0,0,20.4,13.329a5.079,5.079,0,0,0-7.048,7.1A44.1,44.1,0,0,0,4.112,42.448,5.08,5.08,0,0,0,3.99,52.4a44.082,44.082,0,0,0,8.949,22.468,5.078,5.078,0,0,0,6.9,7.17,44.128,44.128,0,0,0,22.412,9.8,5.078,5.078,0,0,0,9.949.2,44.091,44.091,0,0,0,22.985-9.08,5.077,5.077,0,0,0,7.107-6.874A44.147,44.147,0,0,0,92.2,52.349a5.078,5.078,0,0,0-.119-9.858M77.74,22.024a5.05,5.05,0,0,0,2.812-.851,41.913,41.913,0,0,1,9.25,21.3,5.086,5.086,0,0,0-3.246,2.351l-12.98-4.867c.01-.142.02-.286.02-.433a5.079,5.079,0,0,0-2.151-4.15l5.678-13.4a5.5,5.5,0,0,0,.616.041M75,21.216,69.354,34.523a5.026,5.026,0,0,0-5.594,3.23L40.279,32.344a4.941,4.941,0,0,0-.106-1.011l33.322-11.6A5.1,5.1,0,0,0,75,21.216M47.246,10.165a5.083,5.083,0,0,0,4.989-4.122,41.844,41.844,0,0,1,21.158,8.275,5.054,5.054,0,0,0-.735,2.625,5.335,5.335,0,0,0,.048.671L39.217,29.273a5.1,5.1,0,0,0-.92-.92l8.784-18.2c.056,0,.109.008.165.008M42.3,6.243A5.083,5.083,0,0,0,44.86,9.569L36.248,27.4a5.1,5.1,0,0,0-1.049-.109,5.045,5.045,0,0,0-2.9.91L22.1,19.678A5.052,5.052,0,0,0,21.923,15,41.877,41.877,0,0,1,42.3,6.243M10.041,46.332,31.153,35.442a5.064,5.064,0,0,0,4.006,2.014l7.236,23.129a5.166,5.166,0,0,0-1.12,1.239l-31.3-13.04a5.048,5.048,0,0,0,.187-1.348,5.107,5.107,0,0,0-.124-1.1m4.986-24.391a5.079,5.079,0,0,0,5.673-.484l10.079,8.417a5.068,5.068,0,0,0-.56,3.512L9.07,44.29A5.081,5.081,0,0,0,6.38,42.526a41.859,41.859,0,0,1,8.647-20.585m2.1,50.717a5.067,5.067,0,0,0-2.523.674A41.822,41.822,0,0,1,6.263,52.374,5.087,5.087,0,0,0,8.9,50.783l31.609,13.17a5.45,5.45,0,0,0-.041.611,5.081,5.081,0,0,0,.3,1.718L21.657,75.44a5.081,5.081,0,0,0-4.528-2.782M42.349,89.575a41.919,41.919,0,0,1-20.912-9.149,5.029,5.029,0,0,0,.775-2.686l0-.058L42,68.2A5.082,5.082,0,0,0,43.8,69.329l1.186,17.043a5.082,5.082,0,0,0-2.632,3.2m2.105-29.97-7.081-22.64a5.089,5.089,0,0,0,2.415-2.415L63.459,40a5.052,5.052,0,0,0,.808,2.311L48.032,60.13a5.019,5.019,0,0,0-3.577-.524m7.74,30.167a5.081,5.081,0,0,0-4.948-3.937l-.038,0L46.081,69.62a5.073,5.073,0,0,0,3.106-1.507L72.853,78.551c0,.046-.008.086-.008.132a5.057,5.057,0,0,0,.752,2.65,41.841,41.841,0,0,1-21.4,8.439M73.423,76.334,50.373,66.165a5.052,5.052,0,0,0-.666-4.52L65.893,43.877a5.052,5.052,0,0,0,2.622.735,5.594,5.594,0,0,0,.623-.041l6.05,29.836a5.071,5.071,0,0,0-1.766,1.928m7.292-1.9a5.051,5.051,0,0,0-3.377-.8L71.285,43.788a5.1,5.1,0,0,0,1.6-1.672L85.858,46.98a4.506,4.506,0,0,0-.023.456,5.08,5.08,0,0,0,4.084,4.981,41.876,41.876,0,0,1-9.2,22.017" transform="translate(0 0.001)" fill="#1e535a"/>
        </g>
      </g>
    </g>
    <g id="Elipse_13614" data-name="Elipse 13614" transform="translate(1497.965 8579.469)" fill="#d5f4f8" stroke="#1e535a" stroke-width="3">
      <ellipse cx="31.232" cy="31.233" rx="31.232" ry="31.233" stroke="none"/>
      <ellipse cx="31.232" cy="31.233" rx="29.732" ry="29.733" fill="none"/>
    </g>
    <g id="Grupo_1212883" data-name="Grupo 1212883" transform="translate(1512.965 8593.469)">
      <g id="Grupo_1212882" data-name="Grupo 1212882" clip-path="url(#clip-path-2)">
        <path id="Trazado_1278569" data-name="Trazado 1278569" d="M83.848,98.54a1.222,1.222,0,0,1-1.372,1.244,10.65,10.65,0,0,0-7.194,2.057,1.228,1.228,0,0,1-1.494,0,10.634,10.634,0,0,0-7.194-2.057,1.218,1.218,0,0,1-1.37-1.194l0-10.33a1.423,1.423,0,0,1,.364-.962,1.634,1.634,0,0,1,1.114-.314,12.639,12.639,0,0,1,7.249,1.773l0,10.363a.587.587,0,1,0,1.172,0V88.773a12.443,12.443,0,0,1,7.25-1.79,1.749,1.749,0,0,1,1.056.263,1.358,1.358,0,0,1,.424,1.014ZM71.925,90.556a7.265,7.265,0,0,0-4.7-1.233c-.269.017-.606.051-.739.256a.77.77,0,0,0,0,.635c.429.692,2.373-.385,4.831,1.332a.58.58,0,1,0,.606-.989m10.749-.728c-.079-.394-.356-.479-.723-.5a7.348,7.348,0,0,0-4.773,1.211.586.586,0,1,0,.648.972c2.525-1.793,5.107-.394,4.848-1.679m-10.7,4.256a7.032,7.032,0,0,0-4.741-1.263,1.074,1.074,0,0,0-.711.2.678.678,0,0,0-.05.633c.424.727,2.333-.359,4.943,1.422.23.157.67-.1.763-.326a.656.656,0,0,0-.2-.668m10.71-.757a.649.649,0,0,0-.608-.522l-1.834.057c-1.12.035-3.819,1.117-3.3,1.958a.619.619,0,0,0,.8.224c2.7-1.871,5.089-.458,4.943-1.717m-11.29,5.216a.565.565,0,0,0,.807-.366.679.679,0,0,0-.328-.689,7.548,7.548,0,0,0-4.749-1.213c-.386.022-.709.179-.72.574a.635.635,0,0,0,.718.605,6.494,6.494,0,0,1,4.272,1.089M82.67,96.76c-.076-.336-.366-.464-.719-.485A7.578,7.578,0,0,0,77.2,97.488a.636.636,0,0,0-.3.77.592.592,0,0,0,.811.273c2.814-1.9,5.248-.457,4.951-1.772" transform="translate(-58.267 -77.698)" fill="#1e535a"/>
        <path id="Trazado_1278570" data-name="Trazado 1278570" d="M43.644,120.734a2.4,2.4,0,0,0,2.585-2.471l-.005-9.155h1.54a2.311,2.311,0,0,1,1.926,2.13l.007,12.989H21.811l.007-12.99a2.308,2.308,0,0,1,1.926-2.128l1.541,0-.006,9.158a2.4,2.4,0,0,0,2.541,2.466,9.314,9.314,0,0,1,6.471,1.818,2.375,2.375,0,0,0,2.8.075,9.39,9.39,0,0,1,6.555-1.89" transform="translate(-19.486 -97.477)" fill="#1e535a"/>
        <path id="Trazado_1278571" data-name="Trazado 1278571" d="M29.27,266.48,3.544,266.5A3.463,3.463,0,0,1,0,263.07a1.1,1.1,0,0,1,.986-1.183H31.551a1.093,1.093,0,0,1,.984,1.211,3.4,3.4,0,0,1-3.265,3.383" transform="translate(0 -233.969)" fill="#1e535a"/>
        <path id="Trazado_1278572" data-name="Trazado 1278572" d="M87.614,8.115a3.483,3.483,0,0,0-6.966,0l-4.666,0-.023-1.095a1.747,1.747,0,0,1,.4-.929,1.811,1.811,0,0,1,1.118-.315.943.943,0,0,0,.288-.714,1.569,1.569,0,0,1-.55-.95,1.334,1.334,0,0,1,.429-1.037l1.509-1.5a1.273,1.273,0,0,1,.993-.367,1.758,1.758,0,0,1,.976.606l.7-.278A1.625,1.625,0,0,1,82.063.4a1.288,1.288,0,0,1,.928-.4h2.277A1.265,1.265,0,0,1,86.2.4a1.651,1.651,0,0,1,.244,1.14l.692.274a1.8,1.8,0,0,1,.976-.606,1.313,1.313,0,0,1,1.055.417L90.8,3.3a1.186,1.186,0,0,1-.318,1.732,1.231,1.231,0,0,0,.292.773,1.243,1.243,0,0,1,1.509,1.135V8.115Z" transform="translate(-67.861 -0.001)" fill="#1e535a"/>
        <path id="Trazado_1278573" data-name="Trazado 1278573" d="M133.019,58.588l-2.091-1a2.125,2.125,0,0,1,.584-2.689,2.313,2.313,0,0,1,2.837-.1,2.247,2.247,0,0,1,.766,2.76Z" transform="translate(-116.725 -48.567)" fill="#1e535a"/>
      </g>
    </g>
  </g>
</svg>
