<svg xmlns="http://www.w3.org/2000/svg" xmlns:xlink="http://www.w3.org/1999/xlink" width="150" height="150" viewBox="0 0 150 150">
  <defs>
    <clipPath id="clip-path">
      <rect id="Rectángulo_454829" data-name="Rectángulo 454829" width="150" height="150" fill="#1e535a"/>
    </clipPath>
    <clipPath id="clip-path-2">
      <rect id="Rectángulo_462338" data-name="Rectángulo 462338" width="66.897" height="40" fill="#1e535a"/>
    </clipPath>
  </defs>
  <g id="Grupo_1212339" data-name="Grupo 1212339" transform="translate(-185.711 -4323.859)">
    <g id="Grupo_1177591" data-name="Grupo 1177591" transform="translate(185.711 4323.859)">
      <g id="Grupo_1177589" data-name="Grupo 1177589" transform="translate(0 0)">
        <g id="Grupo_1177587" data-name="Grupo 1177587" clip-path="url(#clip-path)">
          <path id="Trazado_997422" data-name="Trazado 997422" d="M143.876,66.392A68.963,68.963,0,0,0,128.3,30.506a7.931,7.931,0,0,0-11.16-10.685A68.861,68.861,0,0,0,81.486,5.891,7.933,7.933,0,0,0,66.079,6.2,68.956,68.956,0,0,0,31.872,20.827,7.935,7.935,0,0,0,20.859,31.915,68.9,68.9,0,0,0,6.425,66.324a7.938,7.938,0,0,0-.19,15.546,68.878,68.878,0,0,0,13.982,35.106A7.934,7.934,0,0,0,31,128.179,68.951,68.951,0,0,0,66.016,143.5a7.935,7.935,0,0,0,15.546.313,68.892,68.892,0,0,0,35.914-14.188,7.933,7.933,0,0,0,11.1-10.74A68.98,68.98,0,0,0,144.062,81.8a7.935,7.935,0,0,0-.186-15.4M121.469,34.413a7.89,7.89,0,0,0,4.394-1.33,65.489,65.489,0,0,1,14.453,33.289,7.946,7.946,0,0,0-5.071,3.674l-20.281-7.6c.016-.222.032-.447.032-.677a7.935,7.935,0,0,0-3.361-6.484l8.871-20.93a8.6,8.6,0,0,0,.962.063m-4.287-1.263-8.816,20.791a7.853,7.853,0,0,0-8.741,5.047L62.936,50.537a7.72,7.72,0,0,0-.166-1.58l52.065-18.131a7.961,7.961,0,0,0,2.348,2.324M73.822,15.882a7.941,7.941,0,0,0,7.795-6.441,65.381,65.381,0,0,1,33.059,12.929,7.9,7.9,0,0,0-1.148,4.1,8.337,8.337,0,0,0,.075,1.049L61.277,45.739A7.965,7.965,0,0,0,59.84,44.3L73.565,15.87c.087,0,.17.012.257.012M66.1,9.754a7.943,7.943,0,0,0,3.994,5.2L56.637,42.817A7.963,7.963,0,0,0,55,42.647a7.883,7.883,0,0,0-4.525,1.421L34.524,30.747a7.894,7.894,0,0,0-.269-7.308A65.433,65.433,0,0,1,66.1,9.754M15.688,72.393,48.676,55.378a7.912,7.912,0,0,0,6.259,3.147L66.241,94.665a8.071,8.071,0,0,0-1.75,1.936l-48.9-20.376a7.888,7.888,0,0,0,.293-2.106,7.98,7.98,0,0,0-.194-1.726m7.791-38.111a7.935,7.935,0,0,0,8.864-.756L48.091,46.677a7.919,7.919,0,0,0-.875,5.487L14.172,69.2a7.939,7.939,0,0,0-4.2-2.755A65.4,65.4,0,0,1,23.479,34.282m3.286,79.246a7.918,7.918,0,0,0-3.943,1.053A65.346,65.346,0,0,1,9.786,81.835a7.948,7.948,0,0,0,4.121-2.486L63.3,99.926a8.514,8.514,0,0,0-.063.954,7.939,7.939,0,0,0,.475,2.684L33.839,117.875a7.94,7.94,0,0,0-7.074-4.347M66.17,139.96a65.5,65.5,0,0,1-32.675-14.295,7.858,7.858,0,0,0,1.211-4.2l0-.091,30.926-14.821a7.941,7.941,0,0,0,2.8,1.77l1.853,26.63a7.941,7.941,0,0,0-4.113,5m3.29-46.828L58.4,57.758a7.952,7.952,0,0,0,3.773-3.773L99.154,62.5a7.894,7.894,0,0,0,1.263,3.61L75.049,93.952a7.843,7.843,0,0,0-5.59-.819m12.094,47.136a7.938,7.938,0,0,0-7.731-6.152l-.059,0L72,108.782a7.927,7.927,0,0,0,4.853-2.355l36.978,16.31c0,.071-.012.135-.012.206A7.9,7.9,0,0,0,115,127.083a65.377,65.377,0,0,1-33.443,13.186m33.17-21-36.016-15.89a7.894,7.894,0,0,0-1.041-7.062l25.292-27.762a7.894,7.894,0,0,0,4.1,1.148,8.74,8.74,0,0,0,.974-.063l9.453,46.618a7.923,7.923,0,0,0-2.759,3.013m11.393-2.969a7.893,7.893,0,0,0-5.277-1.247l-9.457-46.638a7.973,7.973,0,0,0,2.5-2.613l20.269,7.6a7.042,7.042,0,0,0-.036.713A7.938,7.938,0,0,0,140.5,81.9a65.431,65.431,0,0,1-14.382,34.4" transform="translate(0 0.002)" fill="#1e535a"/>
        </g>
      </g>
    </g>
    <g id="Elipse_13614" data-name="Elipse 13614" transform="translate(210.273 4348.213)" fill="#fff" stroke="#1e535a" stroke-width="3">
      <ellipse cx="50.732" cy="50.733" rx="50.732" ry="50.733" stroke="none"/>
      <ellipse cx="50.732" cy="50.733" rx="49.232" ry="49.233" fill="none"/>
    </g>
    <g id="Grupo_1212736" data-name="Grupo 1212736" transform="translate(227.71 4382.859)">
      <g id="Grupo_1212735" data-name="Grupo 1212735" clip-path="url(#clip-path-2)">
        <path id="Trazado_1277965" data-name="Trazado 1277965" d="M195.639,4.744c.212,0,.3.669.234.883l-5.63,18.047a1.088,1.088,0,0,1-.983.794l-2.382.012a1.063,1.063,0,0,1-1-.775L182.341,9.1l-3.5,14.551a1.036,1.036,0,0,1-.992.794h-2.363a1.058,1.058,0,0,1-1.01-.765L168.985,5.652a.962.962,0,0,1,.2-.911l2.717-.029a1.054,1.054,0,0,1,.989.8l3.814,14.933,3.535-14.891a1.083,1.083,0,0,1,.945-.834h2.381a.98.98,0,0,1,.932.716l3.607,15.222,3.919-15.1a1.1,1.1,0,0,1,1.067-.842Z" transform="translate(-148 -4.128)" fill="#1e535a"/>
        <path id="Trazado_1277966" data-name="Trazado 1277966" d="M59.754,215.593a1.118,1.118,0,0,1,1.186.564.98.98,0,0,1-.329,1.144c-8.144,5.994-19.616,8.782-29.62,8.314a48.968,48.968,0,0,1-30.8-12.658.811.811,0,0,1-.166-.713A.725.725,0,0,1,.844,212a66.829,66.829,0,0,0,35.439,8.862l3.892-.26a66.868,66.868,0,0,0,19.578-5.005" transform="translate(0 -185.665)" fill="#1e535a"/>
        <path id="Trazado_1277967" data-name="Trazado 1277967" d="M22.119,15.677a5.927,5.927,0,0,1,3.216-5.854c2.842-1.457,6.14-.935,9.181-.274.047-2.726.129-5.34-2.645-5.986-2.805-.587-5.037.135-7.581,1.127a1.083,1.083,0,0,1-.628,0,.718.718,0,0,1-.234-.494l0-1.48a1.186,1.186,0,0,1,.6-.9A14.122,14.122,0,0,1,33.817.723c2.947.782,4.337,3.393,4.345,6.335l.022,7.685c.009,3.067,1.865,4.024.778,4.762L37.48,20.511c-1.07.727-2.006-1.039-2.707-2.488a8.43,8.43,0,0,1-7.9,2.969,5.471,5.471,0,0,1-4.759-5.315M31.3,17.846c2.832-1.046,3.412-2.916,3.25-5.795a15,15,0,0,0-5.741-.362,3.214,3.214,0,0,0-2.806,3.561,2.8,2.8,0,0,0,2.48,2.88,7.292,7.292,0,0,0,2.816-.283" transform="translate(-19.366 -0.254)" fill="#1e535a"/>
        <path id="Trazado_1277968" data-name="Trazado 1277968" d="M410.683,19.617c-3.159,1.912-7.565,1.556-10.934.1-1.1-.477-1.057-1.525-.887-2.9.027-.224.628-.308.859-.2a12.625,12.625,0,0,0,6.957,1.2,4.346,4.346,0,0,0,2.154-.81,2.374,2.374,0,0,0,.215-3.618,4.853,4.853,0,0,0-1.7-.9l-4.4-1.425a5.7,5.7,0,0,1-2.974-2.23,5.2,5.2,0,0,1,.453-6.567c3.843-4.1,11.816-1.631,11.866-.33l.064,1.7c0,.124-.1.418-.21.429l-.614.066a10.34,10.34,0,0,0-6.966-.851,2.376,2.376,0,0,0-1.832,2c-.336,3.132,4.42,3.129,7.874,4.8a4.964,4.964,0,0,1,2.859,4.245,5.664,5.664,0,0,1-2.779,5.3" transform="translate(-349.323 0)" fill="#1e535a"/>
        <path id="Trazado_1277969" data-name="Trazado 1277969" d="M445.877,213.035c.9-2.237,2.7-6.561,2.049-8.309-.53-1.413-6.353-.734-8.614-.439-.2.026-.586-.084-.615-.238a.88.88,0,0,1,.231-.619c4.377-3.2,11.88-2.2,12.138-1.051.5,2.248-.591,5.529-1.675,7.666a11.492,11.492,0,0,1-2.784,3.473l-.552.058c-.146.015-.237-.4-.178-.542" transform="translate(-384.295 -176.315)" fill="#1e535a"/>
      </g>
    </g>
  </g>
</svg>
