<svg xmlns="http://www.w3.org/2000/svg" xmlns:xlink="http://www.w3.org/1999/xlink" width="128" height="128" viewBox="0 0 128 128">
  <defs>
    <clipPath id="clip-path">
      <rect id="Rectángulo_454829" data-name="Rectángulo 454829" width="128" height="128" fill="#1e535a"/>
    </clipPath>
    <clipPath id="clip-path-2">
      <rect id="Rectángulo_462306" data-name="Rectángulo 462306" width="45.701" height="50" fill="#1e535a"/>
    </clipPath>
  </defs>
  <g id="Grupo_1210200" data-name="Grupo 1210200" transform="translate(-0.395 -0.359)">
    <g id="Grupo_1177591" data-name="Grupo 1177591" transform="translate(0.395 0.359)">
      <g id="Grupo_1177589" data-name="Grupo 1177589" transform="translate(0 0)">
        <g id="Grupo_1177587" data-name="Grupo 1177587" clip-path="url(#clip-path)">
          <path id="Trazado_997422" data-name="Trazado 997422" d="M122.774,56.654a58.848,58.848,0,0,0-13.293-30.623,6.768,6.768,0,0,0-9.523-9.118A58.761,58.761,0,0,0,69.535,5.027a6.769,6.769,0,0,0-13.148.267A58.842,58.842,0,0,0,27.2,17.772a6.771,6.771,0,0,0-9.4,9.462A58.794,58.794,0,0,0,5.483,56.6a6.774,6.774,0,0,0-.162,13.266A58.776,58.776,0,0,0,17.252,99.82a6.771,6.771,0,0,0,9.2,9.56,58.838,58.838,0,0,0,29.883,13.07,6.771,6.771,0,0,0,13.266.267,58.788,58.788,0,0,0,30.646-12.107,6.769,6.769,0,0,0,9.476-9.165A58.863,58.863,0,0,0,122.933,69.8a6.771,6.771,0,0,0-.159-13.144m-19.12-27.288a6.733,6.733,0,0,0,3.75-1.135,55.884,55.884,0,0,1,12.333,28.407,6.781,6.781,0,0,0-4.327,3.135L98.1,53.283c.013-.189.027-.382.027-.578a6.772,6.772,0,0,0-2.868-5.533l7.57-17.86a7.335,7.335,0,0,0,.821.054M100,28.288,92.472,46.03a6.7,6.7,0,0,0-7.459,4.307L53.705,43.125a6.588,6.588,0,0,0-.142-1.348L97.992,26.305a6.793,6.793,0,0,0,2,1.983M63,13.553a6.777,6.777,0,0,0,6.651-5.5A55.792,55.792,0,0,1,97.857,19.09a6.739,6.739,0,0,0-.98,3.5,7.114,7.114,0,0,0,.064.9L52.29,39.031A6.8,6.8,0,0,0,51.064,37.8L62.775,13.543c.074,0,.145.01.22.01M56.4,8.324a6.778,6.778,0,0,0,3.409,4.435L48.331,36.538a6.8,6.8,0,0,0-1.4-.145,6.727,6.727,0,0,0-3.861,1.213L29.461,26.238A6.736,6.736,0,0,0,29.231,20,55.836,55.836,0,0,1,56.4,8.324M13.387,61.776l28.15-14.519a6.751,6.751,0,0,0,5.341,2.686l9.648,30.839a6.887,6.887,0,0,0-1.493,1.652L13.3,65.046a6.731,6.731,0,0,0,.25-1.8,6.81,6.81,0,0,0-.166-1.473m6.648-32.521a6.771,6.771,0,0,0,7.564-.645L41.037,39.831a6.758,6.758,0,0,0-.747,4.682l-28.2,14.539A6.774,6.774,0,0,0,8.506,56.7,55.812,55.812,0,0,1,20.036,29.254m2.8,67.623a6.756,6.756,0,0,0-3.365.9A55.762,55.762,0,0,1,8.351,69.832a6.783,6.783,0,0,0,3.517-2.121L54.013,85.27a7.266,7.266,0,0,0-.054.814,6.775,6.775,0,0,0,.405,2.29L28.876,100.587a6.775,6.775,0,0,0-6.037-3.709m33.626,22.556a55.892,55.892,0,0,1-27.883-12.2,6.705,6.705,0,0,0,1.034-3.581l0-.078L56,90.929a6.776,6.776,0,0,0,2.392,1.51l1.581,22.725a6.776,6.776,0,0,0-3.51,4.27m2.807-39.96L49.831,49.287a6.786,6.786,0,0,0,3.219-3.219l31.562,7.266a6.736,6.736,0,0,0,1.078,3.081L64.042,80.173a6.692,6.692,0,0,0-4.77-.7M69.592,119.7a6.774,6.774,0,0,0-6.6-5.25l-.051,0-1.5-21.623a6.764,6.764,0,0,0,4.142-2.01l31.555,13.918c0,.061-.01.115-.01.176a6.743,6.743,0,0,0,1,3.534A55.789,55.789,0,0,1,69.592,119.7M97.9,101.779,67.164,88.22a6.736,6.736,0,0,0-.888-6.027L87.858,58.5a6.736,6.736,0,0,0,3.5.98,7.46,7.46,0,0,0,.831-.054l8.067,39.781a6.761,6.761,0,0,0-2.355,2.571m9.722-2.534a6.735,6.735,0,0,0-4.5-1.064l-8.07-39.8a6.8,6.8,0,0,0,2.135-2.23l17.3,6.486a6.009,6.009,0,0,0-.03.608,6.774,6.774,0,0,0,5.445,6.641A55.835,55.835,0,0,1,107.62,99.246" transform="translate(0 0.001)" fill="#1e535a"/>
        </g>
      </g>
    </g>
    <g id="Elipse_13614" data-name="Elipse 13614" transform="translate(24.394 24.359)" fill="#fff" stroke="#1e535a" stroke-width="3">
      <ellipse cx="39.732" cy="39.733" rx="39.732" ry="39.733" stroke="none"/>
      <ellipse cx="39.732" cy="39.733" rx="38.232" ry="38.233" fill="none"/>
    </g>
    <g id="Grupo_1212715" data-name="Grupo 1212715" transform="translate(41.394 39.359)">
      <g id="Grupo_1212714" data-name="Grupo 1212714" clip-path="url(#clip-path-2)">
        <path id="Trazado_1277683" data-name="Trazado 1277683" d="M151.407,165.676a12.928,12.928,0,1,1-12.928-12.928,12.928,12.928,0,0,1,12.928,12.928m-9.482-6.3-2.571,9.529,1.726.466,2.571-9.529Zm-13.59,9.785,4.086,0,.017-1.73-2.2-.026c.638-.709,1.227-1.236,1.767-1.927a2.654,2.654,0,0,0-.268-3.289,2.623,2.623,0,0,0-3.225-.448,2.7,2.7,0,0,0-1.135,3.085l1.573-.039.023-.68a1.265,1.265,0,0,1,.508-.943,1.018,1.018,0,0,1,.986.16c.185.165.381.956.2,1.135l-3.064,3.093a1.108,1.108,0,0,0-.229,1.132,1.288,1.288,0,0,0,.952.475m9.278-1.706.866-.1,0-1.632-.863-.039,0-3.491a1,1,0,0,0-.579-.8,1.235,1.235,0,0,0-.945.288l-3.439,4.295a1.147,1.147,0,0,0-.149.929,1.168,1.168,0,0,0,.7.508l2.669.018.012,1.728h1.736Zm8.656,1.707,1.659-.005a12.358,12.358,0,0,1,.878-4.584l.831-2.067c.168-.417-.165-1.094-.618-1.1l-3.69-.013a.826.826,0,0,0-.809.791l.007,1.782,1.716,0,0-.893,1.315.03a12.709,12.709,0,0,0-1.293,6.052" transform="translate(-105.706 -128.604)" fill="#1e535a"/>
        <path id="Trazado_1277684" data-name="Trazado 1277684" d="M31.091,5.178H.037V0H31.091ZM3.488,1.719l-1.741,0,0,1.723,1.741,0Zm17.225,0V3.441h1.746V1.722Zm3.477,1.721h1.742V1.719H24.191Zm3.464-1.723,0,1.723,1.719,0,0-1.722Z" transform="translate(-0.031 0.001)" fill="#1e535a"/>
        <path id="Trazado_1277685" data-name="Trazado 1277685" d="M.012,65.677h31.06v5.187H.012Zm3.455,1.709H1.728v1.75H3.467Zm18.967,0H20.7v1.75h1.739Zm3.477,0H24.173v1.75h1.739Zm3.439,0H27.633v1.75h1.718Z" transform="translate(-0.01 -55.296)" fill="#1e535a"/>
        <path id="Trazado_1277686" data-name="Trazado 1277686" d="M31.1,132.715a14.452,14.452,0,0,0-7.731,3.335l-23.332,0v-5.2H31.082Zm-27.611-.148H1.745v1.749h1.74Zm18.968,0H20.713v1.75h1.739Z" transform="translate(-0.028 -110.171)" fill="#1e535a"/>
        <path id="Trazado_1277687" data-name="Trazado 1277687" d="M18.166,201.711l-18.144.011L0,196.587l19.424,0a14.7,14.7,0,0,0-1.258,5.127m-14.709-3.43H1.718V200H3.457Z" transform="translate(0 -165.512)" fill="#1e535a"/>
        <rect id="Rectángulo_462303" data-name="Rectángulo 462303" width="25.83" height="1.747" transform="translate(2.617 6.906)" fill="#1e535a"/>
        <rect id="Rectángulo_462304" data-name="Rectángulo 462304" width="25.83" height="1.724" transform="translate(2.617 17.242)" fill="#1e535a"/>
        <path id="Trazado_1277688" data-name="Trazado 1277688" d="M34.393,176.467l-17.7.006-.016-1.729H35.594Z" transform="translate(-14.044 -147.123)" fill="#1e535a"/>
        <rect id="Rectángulo_462305" data-name="Rectángulo 462305" width="3.481" height="1.724" transform="translate(3.453 37.922)" fill="#1e535a"/>
        <path id="Trazado_1277689" data-name="Trazado 1277689" d="M184.73,222.718l-1.581,1.9h1.616Z" transform="translate(-154.201 -187.515)" fill="#1e535a"/>
      </g>
    </g>
  </g>
</svg>
