<svg xmlns="http://www.w3.org/2000/svg" xmlns:xlink="http://www.w3.org/1999/xlink" width="128" height="128" viewBox="0 0 128 128">
  <defs>
    <clipPath id="clip-path">
      <rect id="Rectángulo_454829" data-name="Rectángulo 454829" width="128" height="128" fill="#1e535a"/>
    </clipPath>
    <clipPath id="clip-path-2">
      <rect id="Rectángulo_462307" data-name="Rectángulo 462307" width="50" height="49.944" fill="#1e535a"/>
    </clipPath>
  </defs>
  <g id="Grupo_1212242" data-name="Grupo 1212242" transform="translate(-0.402 -0.359)">
    <g id="Grupo_1177591" data-name="Grupo 1177591" transform="translate(0.402 0.359)">
      <g id="Grupo_1177589" data-name="Grupo 1177589" transform="translate(0 0)">
        <g id="Grupo_1177587" data-name="Grupo 1177587" clip-path="url(#clip-path)">
          <path id="Trazado_997422" data-name="Trazado 997422" d="M122.774,56.654a58.848,58.848,0,0,0-13.293-30.623,6.768,6.768,0,0,0-9.523-9.118A58.761,58.761,0,0,0,69.535,5.027a6.769,6.769,0,0,0-13.148.267A58.842,58.842,0,0,0,27.2,17.772a6.771,6.771,0,0,0-9.4,9.462A58.794,58.794,0,0,0,5.483,56.6a6.774,6.774,0,0,0-.162,13.266A58.776,58.776,0,0,0,17.252,99.82a6.771,6.771,0,0,0,9.2,9.56,58.838,58.838,0,0,0,29.883,13.07,6.771,6.771,0,0,0,13.266.267,58.788,58.788,0,0,0,30.646-12.107,6.769,6.769,0,0,0,9.476-9.165A58.863,58.863,0,0,0,122.933,69.8a6.771,6.771,0,0,0-.159-13.144m-19.12-27.288a6.733,6.733,0,0,0,3.75-1.135,55.884,55.884,0,0,1,12.333,28.407,6.781,6.781,0,0,0-4.327,3.135L98.1,53.283c.013-.189.027-.382.027-.578a6.772,6.772,0,0,0-2.868-5.533l7.57-17.86a7.335,7.335,0,0,0,.821.054M100,28.288,92.472,46.03a6.7,6.7,0,0,0-7.459,4.307L53.705,43.125a6.588,6.588,0,0,0-.142-1.348L97.992,26.305a6.793,6.793,0,0,0,2,1.983M63,13.553a6.777,6.777,0,0,0,6.651-5.5A55.792,55.792,0,0,1,97.857,19.09a6.739,6.739,0,0,0-.98,3.5,7.114,7.114,0,0,0,.064.9L52.29,39.031A6.8,6.8,0,0,0,51.064,37.8L62.775,13.543c.074,0,.145.01.22.01M56.4,8.324a6.778,6.778,0,0,0,3.409,4.435L48.331,36.538a6.8,6.8,0,0,0-1.4-.145,6.727,6.727,0,0,0-3.861,1.213L29.461,26.238A6.736,6.736,0,0,0,29.231,20,55.836,55.836,0,0,1,56.4,8.324M13.387,61.776l28.15-14.519a6.751,6.751,0,0,0,5.341,2.686l9.648,30.839a6.887,6.887,0,0,0-1.493,1.652L13.3,65.046a6.731,6.731,0,0,0,.25-1.8,6.81,6.81,0,0,0-.166-1.473m6.648-32.521a6.771,6.771,0,0,0,7.564-.645L41.037,39.831a6.758,6.758,0,0,0-.747,4.682l-28.2,14.539A6.774,6.774,0,0,0,8.506,56.7,55.812,55.812,0,0,1,20.036,29.254m2.8,67.623a6.756,6.756,0,0,0-3.365.9A55.762,55.762,0,0,1,8.351,69.832a6.783,6.783,0,0,0,3.517-2.121L54.013,85.27a7.266,7.266,0,0,0-.054.814,6.775,6.775,0,0,0,.405,2.29L28.876,100.587a6.775,6.775,0,0,0-6.037-3.709m33.626,22.556a55.892,55.892,0,0,1-27.883-12.2,6.705,6.705,0,0,0,1.034-3.581l0-.078L56,90.929a6.776,6.776,0,0,0,2.392,1.51l1.581,22.725a6.776,6.776,0,0,0-3.51,4.27m2.807-39.96L49.831,49.287a6.786,6.786,0,0,0,3.219-3.219l31.562,7.266a6.736,6.736,0,0,0,1.078,3.081L64.042,80.173a6.692,6.692,0,0,0-4.77-.7M69.592,119.7a6.774,6.774,0,0,0-6.6-5.25l-.051,0-1.5-21.623a6.764,6.764,0,0,0,4.142-2.01l31.555,13.918c0,.061-.01.115-.01.176a6.743,6.743,0,0,0,1,3.534A55.789,55.789,0,0,1,69.592,119.7M97.9,101.779,67.164,88.22a6.736,6.736,0,0,0-.888-6.027L87.858,58.5a6.736,6.736,0,0,0,3.5.98,7.46,7.46,0,0,0,.831-.054l8.067,39.781a6.761,6.761,0,0,0-2.355,2.571m9.722-2.534a6.735,6.735,0,0,0-4.5-1.064l-8.07-39.8a6.8,6.8,0,0,0,2.135-2.23l17.3,6.486a6.009,6.009,0,0,0-.03.608,6.774,6.774,0,0,0,5.445,6.641A55.835,55.835,0,0,1,107.62,99.246" transform="translate(0 0.001)" fill="#1e535a"/>
        </g>
      </g>
    </g>
    <g id="Elipse_13614" data-name="Elipse 13614" transform="translate(24.403 24.359)" fill="#fff" stroke="#1e535a" stroke-width="3">
      <ellipse cx="39.732" cy="39.733" rx="39.732" ry="39.733" stroke="none"/>
      <ellipse cx="39.732" cy="39.733" rx="38.232" ry="38.233" fill="none"/>
    </g>
    <g id="Grupo_1212717" data-name="Grupo 1212717" transform="translate(39.402 39.36)">
      <g id="Grupo_1212716" data-name="Grupo 1212716" clip-path="url(#clip-path-2)">
        <path id="Trazado_1277690" data-name="Trazado 1277690" d="M30.409,289.44H49.179c2.194,0-.1,7.83-5.806,7.833l-36.621.015A7,7,0,0,1,0,290.186a.724.724,0,0,1,.668-.743l18.713,0a1.145,1.145,0,0,1,.853.416l1.118,2.034,7.276,0,1.089-1.979a1.109,1.109,0,0,1,.692-.465" transform="translate(0 -247.345)" fill="#1e535a"/>
        <path id="Trazado_1277691" data-name="Trazado 1277691" d="M12.684,21.7a1.092,1.092,0,0,1-1.426.047,34.724,34.724,0,0,1-5.844-5.191c-1.641-1.882-3.3-4.443-3.305-6.9L2.1,4.979a.736.736,0,0,1,.759-.742A4.736,4.736,0,0,0,7.175.717.925.925,0,0,1,8.091,0l7.724,0a.879.879,0,0,1,.906.74,4.706,4.706,0,0,0,4.33,3.494c.356.009.807.283.807.653l-.009,4.883c0,2.328-1.7,4.9-3.282,6.719A35.182,35.182,0,0,1,12.684,21.7m-2.673-7.182a.828.828,0,0,0,1.021-.043l5.824-5.822a1.131,1.131,0,0,0,0-.981c-.138-.2-.816-.346-1-.163L10.5,12.853,7.906,10.261a.8.8,0,0,0-1.082.071A.822.822,0,0,0,6.9,11.417Z" transform="translate(-1.797 0.001)" fill="#1e535a"/>
        <path id="Trazado_1277692" data-name="Trazado 1277692" d="M203.969,124.7H192.711a2.213,2.213,0,0,1-2.125-2.03l-.035-8.265a2.335,2.335,0,0,1,2.287-2.457l.032-4.088a5.267,5.267,0,0,1,3.491-4.628,5.439,5.439,0,0,1,6.081,1.407,5.564,5.564,0,0,1,1.435,3.652l.039,3.658a2.307,2.307,0,0,1,2.245,2.2l.011,8.25a2.279,2.279,0,0,1-2.2,2.3m-1.582-12.757-.009-3.7a4.19,4.19,0,0,0-2.8-3.76,4.017,4.017,0,0,0-5.186,3.445c-.1,1.33-.03,2.63-.046,4.024Zm-3.281,7.552-.01-2.363a.863.863,0,0,0-.793-.7.877.877,0,0,0-.7.7l0,2.391a.824.824,0,0,0,.828.71.963.963,0,0,0,.674-.739" transform="translate(-162.839 -87.884)" fill="#1e535a"/>
        <path id="Trazado_1277693" data-name="Trazado 1277693" d="M19.745,58.534l1.532,1.514,0,19.432,41.168,0V50.129a1.27,1.27,0,0,0-1.324-1.23l-22.681.017a9.389,9.389,0,0,1-.007-1.568l22.836.014a2.822,2.822,0,0,1,2.7,2.669l.011,30.138a.808.808,0,0,1-.84.819H20.584a.8.8,0,0,1-.839-.816Z" transform="translate(-16.873 -40.461)" fill="#1e535a"/>
        <path id="Trazado_1277694" data-name="Trazado 1277694" d="M67.707,205.136l-15.714.008a.882.882,0,0,1-.891-.508c-.1-.338.035-1.036.493-1.036l15.928-.011a.816.816,0,0,1,.875.635c.057.3-.165.912-.692.912" transform="translate(-43.643 -173.981)" fill="#1e535a"/>
        <path id="Trazado_1277695" data-name="Trazado 1277695" d="M67.557,233.326H52.009a.9.9,0,0,1-.883-.531c-.116-.318.073-1,.522-1H67.906c.342,0,.572.621.517.867a.855.855,0,0,1-.866.661" transform="translate(-43.662 -198.086)" fill="#1e535a"/>
        <path id="Trazado_1277696" data-name="Trazado 1277696" d="M64.653,177.136l-12.814,0a.914.914,0,0,1-.787-.636c-.059-.3.132-.9.51-.9L65,175.6c.336,0,.557.643.5.891a.915.915,0,0,1-.848.64" transform="translate(-43.619 -150.064)" fill="#1e535a"/>
      </g>
    </g>
  </g>
</svg>
