<svg xmlns="http://www.w3.org/2000/svg" xmlns:xlink="http://www.w3.org/1999/xlink" width="188.289" height="133" viewBox="0 0 188.289 133">
  <defs>
    <clipPath id="clip-path">
      <rect id="Rectángulo_462285" data-name="Rectángulo 462285" width="188" height="132" transform="translate(1121.711 715)" fill="#ffe79e" stroke="#707070" stroke-width="1"/>
    </clipPath>
    <clipPath id="clip-path-2">
      <rect id="Rectángulo_459936" data-name="Rectángulo 459936" width="166.289" height="115.017" transform="translate(1141.711 717.037)" fill="#344866" stroke="#707070" stroke-width="1"/>
    </clipPath>
    <clipPath id="clip-path-3">
      <rect id="Rectángulo_462284" data-name="Rectángulo 462284" width="154.07" height="108.29" fill="#344866"/>
    </clipPath>
  </defs>
  <g id="Grupo_1212706" data-name="Grupo 1212706" transform="translate(-289.711 -714)">
    <rect id="Rectángulo_462286" data-name="Rectángulo 462286" width="188" height="133" transform="translate(289.711 714)" fill="#fff7df"/>
    <g id="Enmascarar_grupo_1180350" data-name="Enmascarar grupo 1180350" transform="translate(-831.711)" clip-path="url(#clip-path)">
      <g id="Enmascarar_grupo_1178547" data-name="Enmascarar grupo 1178547" transform="translate(-9.289 6.296)" clip-path="url(#clip-path-2)">
        <g id="Grupo_1212705" data-name="Grupo 1212705" transform="translate(1147.66 720.011)">
          <g id="Grupo_1212704" data-name="Grupo 1212704" clip-path="url(#clip-path-3)">
            <path id="Trazado_1277644" data-name="Trazado 1277644" d="M172.14,69.4,171.985,39.2l-40.2.03a2.281,2.281,0,0,0-.326.986,2.118,2.118,0,0,0,.3.978l26.486.229c7.6.066,12.743,7.2,12.786,13.831A14.21,14.21,0,0,1,158.921,69.38l-.149.024-42.124-.017-.165-.03c-6.4-1.152-10.877-6.145-10.884-12.145l.009-31.044h13.035l.022,11.328a14.355,14.355,0,0,1,12.277-11.314l.23-.014h70.172V39.207H184.98l-.114,30.2Zm-55.147-3.791,41.473.017a10.451,10.451,0,0,0,8.788-10.353c-.031-4.831-3.673-10.035-9.044-10.081l-26.674-.23c-2.6-.022-3.836-2.831-3.85-4.722a5.693,5.693,0,0,1,1.486-3.749,3.351,3.351,0,0,1,2.41-1.039l44.158-.033.156,30.209h5.21l.114-30.2h16.349v-5.49H131.291a10.473,10.473,0,0,0-9.115,10.6,10.125,10.125,0,0,0,9.718,9.9l26.382.183.089.009a3.261,3.261,0,0,1,2.254,1.311,5.71,5.71,0,0,1,1.139,3.894c-.233,1.752-1.61,4.22-3.944,4.22l-42.882,0-.056-30.115h-5.494l-.008,27.269c.006,4.791,3.8,7.656,7.619,8.4m1.681-22.639.025,13.309,38.9,0a2.453,2.453,0,0,0,.423-.943,2.42,2.42,0,0,0-.282-.946l-25.867-.18a13.862,13.862,0,0,1-13.193-11.238" transform="translate(-47.274 -11.715)" fill="#344866"/>
            <path id="Trazado_1277645" data-name="Trazado 1277645" d="M46.279,69.4H43.26l-.145-.023c-3.8-.6-6.234-2.963-8.4-5.334l-21.67-23.7,0,29.055H0V36.413L.052,36.2a13.085,13.085,0,0,1,10.8-10L11,26.169l2.788.014c3.946.491,6.6,2.873,8.668,5.138L44.286,55.188,44.264,26.17H57.3l.11,30.345a12.58,12.58,0,0,1-11,12.873ZM3.775,65.63H9.265l0-26.93a3.4,3.4,0,0,1,2.542-3.187,3.8,3.8,0,0,1,2.936,1.107L37.5,61.5c2.157,2.36,3.777,3.727,6.065,4.129h2.458a8.885,8.885,0,0,0,7.612-9.105l-.1-26.58h-5.5l.021,26.94a3.522,3.522,0,0,1-1.816,3,3.537,3.537,0,0,1-3.492-.776L19.671,33.869c-1.924-2.1-3.727-3.578-6.24-3.925H11.312a9.359,9.359,0,0,0-7.538,6.923Zm9.268-26.936v0Z" transform="translate(0 -11.715)" fill="#344866"/>
            <path id="Trazado_1277646" data-name="Trazado 1277646" d="M42.849,10.327a5.629,5.629,0,0,1,5.6-5.3h94.025a5.829,5.829,0,0,1,5.8,5.3h5.191A11.347,11.347,0,0,0,142.475,0H48.45A10.792,10.792,0,0,0,37.627,10.327Z" transform="translate(-16.845)" fill="#344866"/>
            <path id="Trazado_1277647" data-name="Trazado 1277647" d="M148.28,108.7v5.259H42.8V108.7H37.579v12.09a10.8,10.8,0,0,0,10.849,10.849H86.4l-5.023,10.045H72.939a7.635,7.635,0,0,0,0,15.269h45.2a7.463,7.463,0,0,0,7.434-7.635,7.591,7.591,0,0,0-7.434-7.634h-8.437l-5.023-10.045h37.972A10.8,10.8,0,0,0,153.5,120.786V108.7ZM118.143,146.5a2.791,2.791,0,0,1,2.411,2.612,2.631,2.631,0,0,1-2.411,2.611h-45.2a2.612,2.612,0,0,1,0-5.223ZM86.8,141.681l5.023-10.045h7.031l5.023,10.045Zm55.652-15.068H48.428a5.831,5.831,0,0,1-5.827-5.827v-1.808H148.079v1.808a5.542,5.542,0,0,1-5.626,5.827" transform="translate(-16.823 -48.66)" fill="#344866"/>
          </g>
        </g>
      </g>
    </g>
  </g>
</svg>
