<svg xmlns="http://www.w3.org/2000/svg" xmlns:xlink="http://www.w3.org/1999/xlink" width="396.66" height="310.905" viewBox="0 0 396.66 310.905">
  <defs>
    <clipPath id="clip-path">
      <rect id="Rectángulo_462333" data-name="Rectángulo 462333" width="396" height="272.343" fill="none"/>
    </clipPath>
  </defs>
  <g id="Grupo_1212332" data-name="Grupo 1212332" transform="translate(-913.34 -854.336)">
    <g id="Grupo_1211083" data-name="Grupo 1211083" transform="translate(913.34 854.336)">
      <path id="Trazado_1272217" data-name="Trazado 1272217" d="M198.33,3.779C321.535-98.11,396.66,66.122,396.66,143.026S381.635,280.764,198.33,282.274,0,219.93,0,143.026,75.125,105.667,198.33,3.779Z" transform="translate(0 28.605)" fill="#ffe79e"/>
      <g id="Grupo_1212728" data-name="Grupo 1212728" transform="translate(0.516 38.562)">
        <g id="Grupo_1212725" data-name="Grupo 1212725">
          <g id="Grupo_1212724" data-name="Grupo 1212724" clip-path="url(#clip-path)">
            <path id="Trazado_1277718" data-name="Trazado 1277718" d="M66.056,234.7a9.765,9.765,0,0,1-1.9-6.161c.042-1.584.558-5.224,2.551-5.313a3.107,3.107,0,0,1,1.353.345,28.021,28.021,0,0,1,6.706,4.3c1.021.856,2,1.763,2.962,2.7a23.245,23.245,0,0,0,2.828,2.832,86.316,86.316,0,0,1,4.841-7.386q2.574-3.9,5.115-7.818a1.676,1.676,0,0,1,.489-.555,1.52,1.52,0,0,1,1.426.176q1.944.963,3.807,2.1a69.305,69.305,0,0,1-5.088,9.19c-.927,1.409-2,2.716-2.808,4.2q-1.354,2.482-2.708,4.964c-.754,1.383-1.617,2.865-3.025,3.407a5.681,5.681,0,0,1-3.54-.158,46.838,46.838,0,0,1-7.254-2.706,14.913,14.913,0,0,1-5.752-4.117" transform="translate(-27.982 -86.358)" fill="#fc9"/>
            <path id="Trazado_1277719" data-name="Trazado 1277719" d="M89.685,254.754c-.267.1-.532-.247-.488-.547a1.233,1.233,0,0,1,.493-.715,9.361,9.361,0,0,1,6.957-2.206,5.776,5.776,0,0,1-2.979,3.554,5.185,5.185,0,0,1-4.462-.031" transform="translate(-38.906 -99.748)" fill="#c29e7a"/>
            <path id="Trazado_1277720" data-name="Trazado 1277720" d="M93.689,246.748a.7.7,0,0,0,.165.253.248.248,0,0,0,.272.051c.13-.068.15-.256.14-.411a5.976,5.976,0,0,0-.428-1.63c-.1-.265-.193-.531-.267-.8a5.483,5.483,0,0,0-.139-.63,3.86,3.86,0,0,0-.082,1.258,4.753,4.753,0,0,0,.341,1.913" transform="translate(-40.714 -96.706)" fill="#c29e7a"/>
            <path id="Trazado_1277721" data-name="Trazado 1277721" d="M92.878,431.975a6.546,6.546,0,0,1,.849-2.4,3.812,3.812,0,0,1,4.436-1.127,11.237,11.237,0,0,1,3.954,2.979,12.886,12.886,0,0,0,3.885,3.1c1.068.456,2.244.587,3.294,1.094a3.021,3.021,0,0,1,1.881,2.8c-.032.309-4.541.66-5.013.705q-2.587.248-5.187.26-2.563.012-5.121-.2-1.261-.108-2.516-.271c-.673-.087-1.715.06-1.788-.72a12.431,12.431,0,0,1,.649-3.039l.678-3.18" transform="translate(-39.932 -169.998)" fill="#13dcf2"/>
            <path id="Trazado_1277722" data-name="Trazado 1277722" d="M92.138,442.069c3.309.7,6.726.238,10.1.357,2.947.1,5.914.653,8.826.155" transform="translate(-40.191 -175.511)" fill="none" stroke="#351b6b" stroke-linecap="round" stroke-linejoin="round" stroke-width="0.5"/>
            <path id="Trazado_1277723" data-name="Trazado 1277723" d="M106.238,432.678a.78.78,0,0,0-.6.449.534.534,0,0,0,.24.681.7.7,0,0,0,.629-.188,9.729,9.729,0,0,1,1.993-1.483,1.074,1.074,0,0,1,.782-.054.61.61,0,0,1,.381.666.6.6,0,0,1-.5.424,1.639,1.639,0,0,1-.669-.079A8.846,8.846,0,0,0,106.238,432.678Z" transform="translate(-46.064 -171.526)" fill="none" stroke="#351b6b" stroke-linecap="round" stroke-linejoin="round" stroke-width="0.5"/>
            <path id="Trazado_1277724" data-name="Trazado 1277724" d="M108.949,435.283a4.1,4.1,0,0,1,2.785-.312" transform="translate(-47.524 -172.648)" fill="none" stroke="#351b6b" stroke-linecap="round" stroke-linejoin="round" stroke-width="0.5"/>
            <path id="Trazado_1277725" data-name="Trazado 1277725" d="M110.138,436.7a5.553,5.553,0,0,1,3.035-.279" transform="translate(-48.043 -173.232)" fill="none" stroke="#351b6b" stroke-linecap="round" stroke-linejoin="round" stroke-width="0.5"/>
            <path id="Trazado_1277726" data-name="Trazado 1277726" d="M111.743,437.809a3.9,3.9,0,0,1,2.419-.494" transform="translate(-48.743 -173.612)" fill="none" stroke="#351b6b" stroke-linecap="round" stroke-linejoin="round" stroke-width="0.5"/>
            <path id="Trazado_1277727" data-name="Trazado 1277727" d="M67.82,295.123c6.319,26.947,11.817,54.663,13.538,82.328-1.7-.162-3.58.25-5.236-.057-1.835-.339-2.156-1.93-2.92-3.63a108.777,108.777,0,0,1-5.586-14.591,46.313,46.313,0,0,1-1.746-19.079c.271-1.919.686-3.969-.074-5.731a9.426,9.426,0,0,0-2.7-3.122,45.726,45.726,0,0,1-11.522-16.057,48.583,48.583,0,0,1-3.071-9.8c-.339-1.7-.511-3.4-.737-5.113a26.225,26.225,0,0,0-1.341-4.179l.286.973" transform="translate(-20.25 -117.17)" fill="#281450"/>
            <path id="Trazado_1277728" data-name="Trazado 1277728" d="M60.142,299.3c2.534,10.6,5.3,21.664,12.243,29.7a14.442,14.442,0,0,1,2.791,3.864c.734,1.825.569,3.9.463,5.881a82.418,82.418,0,0,0,1.592,21.079c.657,3.175,1.887,6.058,2.614,9.15.788,3.351,1.516,6.719,2.221,10.091" transform="translate(-26.234 -118.83)" fill="none" stroke="#46248f" stroke-miterlimit="10" stroke-width="1"/>
            <path id="Trazado_1277729" data-name="Trazado 1277729" d="M34.1,432.06a6.518,6.518,0,0,1,.912-2.371,3.8,3.8,0,0,1,4.465-.991,11.307,11.307,0,0,1,3.873,3.1,12.935,12.935,0,0,0,3.8,3.215c1.056.49,2.228.656,3.263,1.194a3.037,3.037,0,0,1,1.806,2.861c-.041.308-4.558.52-5.03.551q-2.593.168-5.192.1-2.562-.066-5.114-.362-1.257-.146-2.508-.347c-.67-.108-1.715.007-1.767-.774a12.411,12.411,0,0,1,.73-3.019l.763-3.158" transform="translate(-14.222 -170.077)" fill="#13dcf2"/>
            <path id="Trazado_1277730" data-name="Trazado 1277730" d="M47.413,434.25a.742.742,0,0,0-.357.605.592.592,0,0,0,.66.5,1.735,1.735,0,0,0,.807-.4,8.508,8.508,0,0,1,2.234-1.254,1.89,1.89,0,0,1,.912-.12.917.917,0,0,1,.717.555.536.536,0,0,1-.083.556.67.67,0,0,1-.652.055c-.811-.219-1.62-.441-2.432-.656C48.689,433.948,47.853,433.78,47.413,434.25Z" transform="translate(-20.525 -172.133)" fill="none" stroke="#351b6b" stroke-linecap="round" stroke-linejoin="round" stroke-width="0.5"/>
            <path id="Trazado_1277731" data-name="Trazado 1277731" d="M51.448,437.195a2.7,2.7,0,0,1,1.31-.315,7.967,7.967,0,0,1,1.347.14" transform="translate(-22.442 -173.451)" fill="none" stroke="#351b6b" stroke-linecap="round" stroke-linejoin="round" stroke-width="0.5"/>
            <path id="Trazado_1277732" data-name="Trazado 1277732" d="M53.5,438.249a11.216,11.216,0,0,1,2.161-.194" transform="translate(-23.335 -173.917)" fill="none" stroke="#351b6b" stroke-linecap="round" stroke-linejoin="round" stroke-width="0.5"/>
            <path id="Trazado_1277733" data-name="Trazado 1277733" d="M55.353,439.478a6.131,6.131,0,0,1,1.827-.33" transform="translate(-24.145 -174.352)" fill="none" stroke="#351b6b" stroke-linecap="round" stroke-linejoin="round" stroke-width="0.5"/>
            <path id="Trazado_1277734" data-name="Trazado 1277734" d="M33.132,442.361a88.738,88.738,0,0,0,18.747,1.274" transform="translate(-14.452 -175.627)" fill="none" stroke="#351b6b" stroke-linecap="round" stroke-linejoin="round" stroke-width="0.5"/>
            <path id="Trazado_1277735" data-name="Trazado 1277735" d="M51,294.373q-.367,12.723-1.29,25.419c-.774,10.646-1.408,12.962-2.893,29.438-.019.209-.5,4.969-1.476,14.49-.166,1.626-.443,4.3-.957,7.83-.371,2.539-.738,4.648-1.014,6.143a20.03,20.03,0,0,0-4.795-.965c-1.176-.089-2.285.107-3.45-.046a141.381,141.381,0,0,1-1.337-20.854c.241-6.97,1.562-14.013,4.756-20.095a7.3,7.3,0,0,0,1.143-3.229,7.088,7.088,0,0,0-1.233-3.393,48.155,48.155,0,0,1-5.764-18.456,49.384,49.384,0,0,1-.046-9.785,27.142,27.142,0,0,1,2.11-7.848" transform="translate(-14.141 -116.336)" fill="#351b6b"/>
            <path id="Trazado_1277736" data-name="Trazado 1277736" d="M43.047,298.755a79.017,79.017,0,0,0,1.5,24.474,57.5,57.5,0,0,1,1.642,8.784c.268,4.3-.777,8.558-1.637,12.772-2.282,11.184-2.8,22.4-3.268,33.77" transform="translate(-18.008 -118.612)" fill="none" stroke="#46248f" stroke-miterlimit="10" stroke-width="1"/>
            <path id="Trazado_1277737" data-name="Trazado 1277737" d="M46.062,273.044a37,37,0,0,1-7.567-.763c-.909-.192-1.81-.477-2.7-.734-.939-.27-2.694-.337-2.944-1.558a4.87,4.87,0,0,1,.572-2.642c.31-.908.432-1.908.722-2.831a49.377,49.377,0,0,1,2.127-5.341c1.523-3.406,3.178-6.871,3.548-10.682.326-3.36-.376-6.724-.63-10.091s.025-7.016,1.993-9.659a14.222,14.222,0,0,1,5.759-4.146c2.166-.95,4.872-.033,6.936.91,6.243,2.85,7.819,10.093,6.952,16.683-.39,2.959-1.061,5.88-1.249,8.863-.419,6.638,1.567,13.15,3.528,19.463,0,0-2.6.5-2.809.556-1.3.323-2.6.62-3.916.879a56.042,56.042,0,0,1-8.1,1.038q-1.106.055-2.216.054" transform="translate(-14.307 -89.012)" fill="#13dcf2"/>
            <path id="Trazado_1277738" data-name="Trazado 1277738" d="M44.641,248.062a57.994,57.994,0,0,0,5.277,9.089c1.033,1.545,2.16,3.161,3.809,3.87,1.835.789,3.908.284,5.827-.229a17.244,17.244,0,0,0,4.312-1.579,1.308,1.308,0,0,0,.763-.931,1.44,1.44,0,0,0-.661-1.092L49.4,244.727c-2.122-1.814-4.364-3.79-5.4-6.561-.425-1.134-.7-1.16-1.077.078a9.014,9.014,0,0,0,0,4.175,24.887,24.887,0,0,0,1.722,5.643" transform="translate(-18.613 -94.22)" fill="#0ea5b5"/>
            <path id="Trazado_1277739" data-name="Trazado 1277739" d="M64.971,216.42c-.017.463-.031.782-.033.782a22.154,22.154,0,0,1-7.055-2.078,1.6,1.6,0,0,1-.851-.727,1.845,1.845,0,0,1-.069-.856c.206-2.675.417-5.349.618-8.024a10.808,10.808,0,0,0-.058-1.336,17.9,17.9,0,0,1,.136-1.907c.09-1.291.167-2.583.266-3.874a2.488,2.488,0,0,1,2.658-2.332c1.1.215,1.762,1.412,2.19,2.519A35.59,35.59,0,0,1,64.7,208.2q.238,2.421.369,4.852c.015.274-.052,2.244-.095,3.369" transform="translate(-24.84 -77.831)" fill="#fc9"/>
            <path id="Trazado_1277740" data-name="Trazado 1277740" d="M67.2,221.177a6.4,6.4,0,0,1-3.824-2.427,7.647,7.647,0,0,1-1.641-4.584l.051.07a4.934,4.934,0,0,0,2.238,1.673,4.727,4.727,0,0,0,1.352.288,4.4,4.4,0,0,0,.69-.011c.154-.014.458-.159.577-.037a.536.536,0,0,1,.114.255,14.306,14.306,0,0,1,.387,2.417c.058.786.01,1.571.056,2.356" transform="translate(-26.93 -85.029)" fill="#c29e7a"/>
            <path id="Trazado_1277741" data-name="Trazado 1277741" d="M72.89,199.564a6.567,6.567,0,0,1-.63,4.334,4.729,4.729,0,0,1-2.795,2.034,9.084,9.084,0,0,1-8.194-1.784q-.321-.3-.616-.63a12.911,12.911,0,0,1-2.976-8.794,12.333,12.333,0,0,1,1.9-6.592,7.591,7.591,0,0,1,5.444-3.481,5.846,5.846,0,0,1,4.846,1.939,11.708,11.708,0,0,1,1.969,4.633,35.966,35.966,0,0,1,1.055,8.34" transform="translate(-25.159 -73.302)" fill="#fc9"/>
            <path id="Trazado_1277742" data-name="Trazado 1277742" d="M30.048,173.323a8.066,8.066,0,0,0-2.891,5.05,26.967,26.967,0,0,0-.248,6.05,22.451,22.451,0,0,1-.385,6.035,11.947,11.947,0,0,1-1.682,3.782,8,8,0,0,1-1.289,1.608,7.206,7.206,0,0,0-1.232,1.024,13.039,13.039,0,0,1,4.72,3.419,12.02,12.02,0,0,1,1.582,2.534,11.89,11.89,0,0,1,.546,1.409c.051.163.456,1.294.347,1.4a16.9,16.9,0,0,0,4.674-11.476c.052-4.449-1.611-8.834-1.144-13.256a5.3,5.3,0,0,1,.991-2.852,2.229,2.229,0,0,1,2.194-.823c.739.195,1.285,1.12,2.056,1.1.62-.017,1.041-.775.961-1.433a2.91,2.91,0,0,0-.969-1.649c-1.842-1.807-3.744-3.343-6.412-2.738a5.037,5.037,0,0,0-1.821.813" transform="translate(-9.737 -68.437)" fill="#351b6b"/>
            <path id="Trazado_1277743" data-name="Trazado 1277743" d="M50.214,183.6a23.848,23.848,0,0,0-1.456-3.054c0,.027,0,.054,0,.081a2.283,2.283,0,0,1,.493-1.785,1.974,1.974,0,0,1,1.611-.7c.743.77,1.48,1.623,2.223,2.393" transform="translate(-21.256 -70.723)" fill="#13dcf2"/>
            <path id="Trazado_1277744" data-name="Trazado 1277744" d="M59.27,188.168c.019-.28.026-.561.034-.839a3.992,3.992,0,0,0-.1-.943c-.039-.186-.129-.863-.284-.967a11.935,11.935,0,0,0,4.584,1.814,11.616,11.616,0,0,0,2.483.153,4.616,4.616,0,0,0,2.207-.525c1.066-.692.669-2.713.3-3.693a7.1,7.1,0,0,0-2.414-3.149,11.867,11.867,0,0,0-5.678-1.991,14.423,14.423,0,0,0-5,.132,8.28,8.28,0,0,0-4.369,2.478,10.117,10.117,0,0,0-2.224,5.189,28.4,28.4,0,0,0-.2,5.209,10.8,10.8,0,0,0,.911,4.47,5.454,5.454,0,0,0,3.879,3.186,1.691,1.691,0,0,0,1.337-.265,2.212,2.212,0,0,0,.585-1.681c.021-.9-.089-1.8.014-2.687a3.005,3.005,0,0,1,1.2-2.255c.421-.259.923-.336,1.349-.586a2.841,2.841,0,0,0,1.186-1.734,6.656,6.656,0,0,0,.2-1.315" transform="translate(-21.191 -70.62)" fill="#351b6b"/>
            <path id="Trazado_1277745" data-name="Trazado 1277745" d="M71.11,201.781a1.016,1.016,0,0,1-.135.429.465.465,0,0,1-.352.229.553.553,0,0,1-.434-.25,2.092,2.092,0,0,1-.342-1.176,1.534,1.534,0,0,1,.038-.516.557.557,0,0,1,.312-.374c.7-.256.966,1.221.914,1.658" transform="translate(-30.465 -79.441)" fill="#351b6b"/>
            <path id="Trazado_1277746" data-name="Trazado 1277746" d="M70.483,197.018a1.518,1.518,0,0,0-1.518-.138,1.707,1.707,0,0,0-.917,1.3" transform="translate(-29.683 -78.109)" fill="none" stroke="#351b6b" stroke-linecap="round" stroke-linejoin="round" stroke-width="0.5"/>
            <path id="Trazado_1277747" data-name="Trazado 1277747" d="M80.653,200.1a1.016,1.016,0,0,1-.135.429.465.465,0,0,1-.352.229.555.555,0,0,1-.434-.25,2.092,2.092,0,0,1-.342-1.176,1.534,1.534,0,0,1,.038-.516.557.557,0,0,1,.312-.374c.7-.256.965,1.221.914,1.658" transform="translate(-34.628 -78.775)" fill="#351b6b"/>
            <path id="Trazado_1277748" data-name="Trazado 1277748" d="M77.451,195.864a1.628,1.628,0,0,1,1.124-.692,1.578,1.578,0,0,1,1.241.407" transform="translate(-33.784 -77.483)" fill="none" stroke="#351b6b" stroke-linecap="round" stroke-linejoin="round" stroke-width="0.5"/>
            <path id="Trazado_1277749" data-name="Trazado 1277749" d="M75.533,211.165a3.751,3.751,0,0,1-2.5-.02,4.039,4.039,0,0,1-1.992-1.622.876.876,0,0,1-.179-.669,4.265,4.265,0,0,0,4.084-.251,5.76,5.76,0,0,0,.591,2.563" transform="translate(-30.901 -82.82)" fill="#fff"/>
            <path id="Trazado_1277750" data-name="Trazado 1277750" d="M77.141,201.9a6.357,6.357,0,0,1,.877.746,1.305,1.305,0,0,1,.342,1.093,1.028,1.028,0,0,1-.5.658,1.424,1.424,0,0,1-1.693-.384,3.185,3.185,0,0,1-.7-1.8,12.64,12.64,0,0,1-.054-1.5,1.391,1.391,0,0,1,.054-.461c.069-.192.3-.4.5-.257.146.1.127.379.178.543a2.961,2.961,0,0,0,1.006,1.357" transform="translate(-32.893 -79.387)" fill="#f2862c"/>
            <path id="Trazado_1277751" data-name="Trazado 1277751" d="M57.848,198.978a2.071,2.071,0,0,0-2.345-1.026A2.726,2.726,0,0,0,54.081,200a5.029,5.029,0,0,0,.019,2.5,3.081,3.081,0,0,0,1.462,1.9,2.075,2.075,0,0,0,2.241-.19c1.256-1.029.805-4.012.045-5.23" transform="translate(-23.526 -78.554)" fill="#fc9"/>
            <path id="Trazado_1277752" data-name="Trazado 1277752" d="M58.237,200.916a.435.435,0,0,0-.236-.224c-.145-.036-.283.082-.375.207a1.918,1.918,0,0,0-.315,1.3,3.494,3.494,0,0,0,.422,1.292,1.14,1.14,0,0,0,.35.444.405.405,0,0,0,.51-.024.553.553,0,0,0-.019-.654c-.128-.194-.317-.334-.448-.525a1.413,1.413,0,0,1-.221-.613,2.446,2.446,0,0,1,0-.622.242.242,0,0,1,.08-.183c.072-.045.169.01.205.09a.567.567,0,0,1,.028.262c0,.13.01.376.177.393.12.013.138-.08.145-.192a1.819,1.819,0,0,0-.305-.95" transform="translate(-24.995 -79.677)" fill="#573c20"/>
            <path id="Trazado_1277753" data-name="Trazado 1277753" d="M135.584,248.652H105.921a.857.857,0,0,1,0-1.71h29.663a.857.857,0,0,1,0,1.71" transform="translate(-45.855 -98.042)" fill="#351b6b"/>
            <path id="Trazado_1277754" data-name="Trazado 1277754" d="M126.566,215.555H105.922a.829.829,0,0,0-.8.856v17.216a.829.829,0,0,0,.8.855h20.644a.829.829,0,0,0,.8-.855V216.411a.829.829,0,0,0-.8-.856" transform="translate(-45.855 -85.58)" fill="#46248f"/>
            <path id="Trazado_1277755" data-name="Trazado 1277755" d="M109.8,233.444V218.167a.61.61,0,0,1,.588-.629H127.8a.61.61,0,0,1,.588.629v15.277a.61.61,0,0,1-.588.63H110.389a.61.61,0,0,1-.588-.63" transform="translate(-47.896 -86.368)" fill="#fff"/>
            <path id="Trazado_1277756" data-name="Trazado 1277756" d="M127.809,221.132H113.627a.79.79,0,0,1-.762-.815v-.056a.79.79,0,0,1,.762-.816h14.182a.79.79,0,0,1,.762.816v.056a.79.79,0,0,1-.762.815" transform="translate(-49.232 -87.125)" fill="#46248f"/>
            <path id="Trazado_1277757" data-name="Trazado 1277757" d="M136.153,235.547h-2.514a.826.826,0,0,1-.8-.853v-8.351a.826.826,0,0,1,.8-.853h2.514a.827.827,0,0,1,.8.853v8.351a.827.827,0,0,1-.8.853" transform="translate(-57.946 -89.524)" fill="#13dcf2"/>
            <path id="Trazado_1277758" data-name="Trazado 1277758" d="M136.505,228.856h-1.464a.5.5,0,0,1,0-1h1.464a.5.5,0,0,1,0,1" transform="translate(-58.701 -90.462)" fill="#fff"/>
            <path id="Trazado_1277759" data-name="Trazado 1277759" d="M136.505,232.186h-1.464a.5.5,0,0,1,0-1h1.464a.5.5,0,0,1,0,1" transform="translate(-58.701 -91.784)" fill="#fff"/>
            <path id="Trazado_1277760" data-name="Trazado 1277760" d="M136.505,235.515h-1.464a.5.5,0,0,1,0-1h1.464a.5.5,0,0,1,0,1" transform="translate(-58.701 -93.106)" fill="#fff"/>
            <path id="Trazado_1277761" data-name="Trazado 1277761" d="M136.505,238.844h-1.464a.5.5,0,0,1,0-1h1.464a.5.5,0,0,1,0,1" transform="translate(-58.701 -94.428)" fill="#fff"/>
            <path id="Trazado_1277762" data-name="Trazado 1277762" d="M126.165,235.547H123.65a.826.826,0,0,1-.8-.853v-8.351a.826.826,0,0,1,.8-.853h2.515a.827.827,0,0,1,.8.853v8.351a.827.827,0,0,1-.8.853" transform="translate(-53.589 -89.524)" fill="#f2d06b"/>
            <path id="Trazado_1277763" data-name="Trazado 1277763" d="M126.517,228.856h-1.464a.5.5,0,0,1,0-1h1.464a.5.5,0,0,1,0,1" transform="translate(-54.344 -90.462)" fill="#fff"/>
            <path id="Trazado_1277764" data-name="Trazado 1277764" d="M126.517,232.186h-1.464a.5.5,0,0,1,0-1h1.464a.5.5,0,0,1,0,1" transform="translate(-54.344 -91.784)" fill="#fff"/>
            <path id="Trazado_1277765" data-name="Trazado 1277765" d="M126.517,235.515h-1.464a.5.5,0,0,1,0-1h1.464a.5.5,0,0,1,0,1" transform="translate(-54.344 -93.106)" fill="#fff"/>
            <path id="Trazado_1277766" data-name="Trazado 1277766" d="M126.517,238.844h-1.464a.5.5,0,0,1,0-1h1.464a.5.5,0,0,1,0,1" transform="translate(-54.344 -94.428)" fill="#fff"/>
            <path id="Trazado_1277767" data-name="Trazado 1277767" d="M116.177,235.547h-2.514a.827.827,0,0,1-.8-.853v-8.351a.826.826,0,0,1,.8-.853h2.514a.826.826,0,0,1,.8.853v8.351a.827.827,0,0,1-.8.853" transform="translate(-49.232 -89.524)" fill="#9a8df2"/>
            <path id="Trazado_1277768" data-name="Trazado 1277768" d="M116.529,228.856h-1.464a.5.5,0,0,1,0-1h1.464a.5.5,0,0,1,0,1" transform="translate(-49.987 -90.462)" fill="#fff"/>
            <path id="Trazado_1277769" data-name="Trazado 1277769" d="M116.529,232.186h-1.464a.5.5,0,0,1,0-1h1.464a.5.5,0,0,1,0,1" transform="translate(-49.987 -91.784)" fill="#fff"/>
            <path id="Trazado_1277770" data-name="Trazado 1277770" d="M116.529,235.515h-1.464a.5.5,0,0,1,0-1h1.464a.5.5,0,0,1,0,1" transform="translate(-49.987 -93.106)" fill="#fff"/>
            <path id="Trazado_1277771" data-name="Trazado 1277771" d="M116.529,238.844h-1.464a.5.5,0,0,1,0-1h1.464a.5.5,0,0,1,0,1" transform="translate(-49.987 -94.428)" fill="#fff"/>
            <path id="Trazado_1277772" data-name="Trazado 1277772" d="M43.3,238.631c.722,2.719,2.519,4.944,4.348,6.984a91.731,91.731,0,0,0,7.667,7.6c3.4,3,5.335,4.176,7.411,4.423,1.422.169,3.325,0,10.152-4.249a114.415,114.415,0,0,0,9.517-6.625q-.564-2-1.129-3.991L64.15,248.729c-2.405-3.11-4.831-6.206-7.2-9.347a29.663,29.663,0,0,0-7.174-7.113c-1.489-.971-4.019-1.858-5.361-.223a7.629,7.629,0,0,0-1.117,6.584" transform="translate(-18.764 -91.767)" fill="#fc9"/>
            <path id="Trazado_1277773" data-name="Trazado 1277773" d="M79.167,264.151c.014.209.074.465.266.509a.3.3,0,0,0,.3-.139.837.837,0,0,0,.122-.343c.222-1.275-.4-2.649.035-3.859a11.754,11.754,0,0,0-.576,1.665,8.1,8.1,0,0,0-.147,2.167" transform="translate(-34.525 -103.353)" fill="#c29e7a"/>
            <path id="Trazado_1277774" data-name="Trazado 1277774" d="M78.115,270.183a1.458,1.458,0,0,1,.826.514,1.159,1.159,0,0,1,.214.975,1.862,1.862,0,0,0-2.979-.57c-.012-.8,1.443-1.035,1.939-.919" transform="translate(-33.228 -107.258)" fill="#c29e7a"/>
            <path id="Trazado_1277775" data-name="Trazado 1277775" d="M112.137,249.786a18.044,18.044,0,0,1,2.393.356,13.23,13.23,0,0,0,4.493.064,9.79,9.79,0,0,1,2.015-.269,2.368,2.368,0,0,1,1.857.929,1.079,1.079,0,0,1,.24.868.576.576,0,0,1-.466.434,1.733,1.733,0,0,1-.592-.073,4.4,4.4,0,0,0-2.826.632,15.8,15.8,0,0,1-2.726,1.313,9.88,9.88,0,0,1-2.875.329l-1.658,0c-.171,0-1.368-.154-1.437,0a1.133,1.133,0,0,0-.2-1.069c-.209-.278-.482-.462-.674-.762a1.761,1.761,0,0,1,.393-2.282,3.022,3.022,0,0,1,2.058-.464" transform="translate(-47.732 -99.168)" fill="#fc9"/>
            <path id="Trazado_1277776" data-name="Trazado 1277776" d="M126.438,252.927a4.307,4.307,0,0,0-1.889.909.48.48,0,0,0-.152.145.178.178,0,0,0,.01.2c.074.077.2.019.283-.039a5.568,5.568,0,0,1,1.9-.8,5.5,5.5,0,0,1,1.031-.119,4.1,4.1,0,0,0,.828.013,5.814,5.814,0,0,0-2.017-.315" transform="translate(-54.251 -100.412)" fill="#c29e7a"/>
            <path id="Trazado_1277777" data-name="Trazado 1277777" d="M119.665,214.838a1.557,1.557,0,0,0,2.3.028,1.046,1.046,0,0,0,1.6-.018,2.588,2.588,0,0,0,1.095.382.918.918,0,0,0,.923-.6,1.2,1.2,0,0,0-.157-.881,2.417,2.417,0,0,0-1.3-1.131,2.237,2.237,0,0,0-1.673.077,1.615,1.615,0,0,0-2.177.037,1.132,1.132,0,0,0-.954-.328,1.181,1.181,0,0,0-.839.587,1.143,1.143,0,0,0-1.458-.127,1.862,1.862,0,0,0-.77,1.4,6.233,6.233,0,0,1,.956.031c.317.081.459.43.7.636a1.272,1.272,0,0,0,.912.3c.087-.005.931-.3.847-.395" transform="translate(-50.711 -84.284)" fill="#fc9"/>
            <path id="Trazado_1277778" data-name="Trazado 1277778" d="M121.058,214.237a1.872,1.872,0,0,1,.384,1.054,1.524,1.524,0,0,0-.171-1.246,1.361,1.361,0,0,0-.629-.519,1.311,1.311,0,0,0-.2-.061c-.052-.011-.121-.043-.1.034.018.056.12.115.161.151.062.056.123.113.183.171a3.329,3.329,0,0,1,.363.415" transform="translate(-52.495 -84.744)" fill="#c29e7a"/>
            <path id="Trazado_1277779" data-name="Trazado 1277779" d="M124.567,213.874a2.62,2.62,0,0,1,.522,1.34,1.641,1.641,0,0,0-.379-1.474,2.068,2.068,0,0,0-1.269-.681c.174.113.383.166.56.285a2.424,2.424,0,0,1,.565.531" transform="translate(-53.846 -84.589)" fill="#c29e7a"/>
            <path id="Trazado_1277780" data-name="Trazado 1277780" d="M128.081,213.965a1.983,1.983,0,0,1,.334,1.223,1.706,1.706,0,0,0-.125-1.374,1.42,1.42,0,0,0-1.042-.737,3.756,3.756,0,0,1,.832.888" transform="translate(-55.507 -84.596)" fill="#c29e7a"/>
            <line id="Línea_3336" data-name="Línea 3336" y1="31.898" transform="translate(192.944 105.675)" fill="none" stroke="#13dcf2" stroke-miterlimit="10" stroke-width="2"/>
            <path id="Trazado_1277781" data-name="Trazado 1277781" d="M333.542,181.958l4.894-6.7,4.293,6.7" transform="translate(-145.493 -69.58)" fill="none" stroke="#13dcf2" stroke-miterlimit="10" stroke-width="2"/>
            <line id="Línea_3337" data-name="Línea 3337" y2="30.987" transform="translate(205.136 106.586)" fill="none" stroke="#13dcf2" stroke-miterlimit="10" stroke-width="2"/>
            <path id="Trazado_1277782" data-name="Trazado 1277782" d="M365.422,217.038l-4.894,6.7-4.293-6.7" transform="translate(-155.391 -86.169)" fill="none" stroke="#13dcf2" stroke-miterlimit="10" stroke-width="2"/>
            <path id="Trazado_1277783" data-name="Trazado 1277783" d="M502.737,106.862h37.671a5.483,5.483,0,0,1,5.29,5.658v50.946" transform="translate(-219.296 -42.427)" fill="none" stroke="#13dcf2" stroke-miterlimit="10" stroke-width="2"/>
            <path id="Trazado_1277784" data-name="Trazado 1277784" d="M507.658,99.841l-4.921,4.234,4.921,4.388" transform="translate(-219.296 -39.639)" fill="none" stroke="#13dcf2" stroke-miterlimit="10" stroke-width="2"/>
            <path id="Trazado_1277785" data-name="Trazado 1277785" d="M557.142,165.3V97.839a5.484,5.484,0,0,0-5.29-5.658H505.533" transform="translate(-220.516 -36.598)" fill="none" stroke="#13dcf2" stroke-miterlimit="10" stroke-width="2"/>
            <path id="Trazado_1277786" data-name="Trazado 1277786" d="M597.857,204.714l-3.958,5.263-4.1-5.263" transform="translate(-257.272 -81.276)" fill="none" stroke="#13dcf2" stroke-miterlimit="10" stroke-width="2"/>
            <path id="Trazado_1277787" data-name="Trazado 1277787" d="M169.51,119.164H137.477a5.483,5.483,0,0,0-5.29,5.658v29.842" transform="translate(-57.661 -47.311)" fill="none" stroke="#13dcf2" stroke-miterlimit="10" stroke-width="2"/>
            <path id="Trazado_1277788" data-name="Trazado 1277788" d="M189.657,112.143l4.921,4.234-4.921,4.388" transform="translate(-82.729 -44.523)" fill="none" stroke="#13dcf2" stroke-miterlimit="10" stroke-width="2"/>
            <path id="Trazado_1277789" data-name="Trazado 1277789" d="M114.05,156.5V110.142a5.483,5.483,0,0,1,5.29-5.658H161.6" transform="translate(-49.749 -41.482)" fill="none" stroke="#13dcf2" stroke-miterlimit="10" stroke-width="2"/>
            <path id="Trazado_1277790" data-name="Trazado 1277790" d="M107.029,182.016l3.958,5.263,4.1-5.263" transform="translate(-46.687 -72.264)" fill="none" stroke="#13dcf2" stroke-miterlimit="10" stroke-width="2"/>
            <path id="Trazado_1277791" data-name="Trazado 1277791" d="M220.017,433.517a28.756,28.756,0,0,0-15.054-16.847,25.961,25.961,0,0,0-21.787.342c-1.568-5.514-7.488-8.738-12.84-8.059s-9.987,4.541-13.1,9.243-4.942,10.219-6.729,15.656" transform="translate(-65.65 -162.328)" fill="#f2d06b"/>
            <path id="Trazado_1277792" data-name="Trazado 1277792" d="M468.126,422.32c-.925-6.418-2.838-12.9-6.883-17.743s-10.581-7.693-16.373-5.742c-1.4-7.865-8.245-13.781-15.606-15.24s-15.012.91-21.534,4.839c-6.307,3.8-12.18,9.726-13.226,17.387a22.109,22.109,0,0,0-18.232.851,24.69,24.69,0,0,0-12.022,14.684" transform="translate(-158.888 -152.123)" fill="#f2d06b"/>
            <rect id="Rectángulo_462311" data-name="Rectángulo 462311" width="10.156" height="5.874" transform="translate(220.899 204.995)" fill="#9a8df2"/>
            <rect id="Rectángulo_462312" data-name="Rectángulo 462312" width="10.156" height="5.874" transform="translate(220.899 243.657)" fill="#9a8df2"/>
            <rect id="Rectángulo_462313" data-name="Rectángulo 462313" width="10.156" height="5.874" transform="translate(168.399 226.263)" fill="#9a8df2"/>
            <path id="Trazado_1277793" data-name="Trazado 1277793" d="M354.024,247.67H317.769a5.4,5.4,0,0,0-5.208,5.57V356.433a5.4,5.4,0,0,0,5.208,5.57h36.255a5.4,5.4,0,0,0,5.208-5.57V253.24a5.4,5.4,0,0,0-5.208-5.57" transform="translate(-136.341 -98.331)" fill="#6cb9ff"/>
            <rect id="Rectángulo_462314" data-name="Rectángulo 462314" width="5.617" height="5.283" transform="translate(181.428 263.673)" fill="#5d30bf"/>
            <rect id="Rectángulo_462315" data-name="Rectángulo 462315" width="5.617" height="5.283" transform="translate(212.19 263.673)" fill="#5d30bf"/>
            <path id="Trazado_1277794" data-name="Trazado 1277794" d="M354.379,277.358H322.966a2.963,2.963,0,0,1-2.859-3.058v-7.11a2.963,2.963,0,0,1,2.859-3.057h31.413a2.963,2.963,0,0,1,2.858,3.057v7.11a2.963,2.963,0,0,1-2.858,3.058" transform="translate(-139.632 -104.867)" fill="#fff"/>
            <path id="Trazado_1277795" data-name="Trazado 1277795" d="M377.558,273.378a2.451,2.451,0,1,1-2.445-2.615,2.535,2.535,0,0,1,2.445,2.615" transform="translate(-162.56 -107.499)" fill="#f2d06b"/>
            <rect id="Rectángulo_462316" data-name="Rectángulo 462316" width="23.656" height="1.386" transform="translate(184.112 163.264)" fill="#f2d06b"/>
            <rect id="Rectángulo_462317" data-name="Rectángulo 462317" width="23.656" height="1.386" transform="translate(184.112 166.356)" fill="#f2d06b"/>
            <path id="Trazado_1277796" data-name="Trazado 1277796" d="M354.379,312.4H322.966a2.963,2.963,0,0,1-2.859-3.058v-7.11a2.963,2.963,0,0,1,2.859-3.057h31.413a2.963,2.963,0,0,1,2.858,3.057v7.11a2.963,2.963,0,0,1-2.858,3.058" transform="translate(-139.632 -118.778)" fill="#fff"/>
            <path id="Trazado_1277797" data-name="Trazado 1277797" d="M377.558,308.415a2.451,2.451,0,1,1-2.445-2.615,2.535,2.535,0,0,1,2.445,2.615" transform="translate(-162.56 -121.409)" fill="#13dcf2"/>
            <rect id="Rectángulo_462318" data-name="Rectángulo 462318" width="23.656" height="1.386" transform="translate(184.112 184.39)" fill="#13dcf2"/>
            <rect id="Rectángulo_462319" data-name="Rectángulo 462319" width="23.656" height="1.386" transform="translate(184.112 187.483)" fill="#13dcf2"/>
            <path id="Trazado_1277798" data-name="Trazado 1277798" d="M354.379,347.433H322.966a2.964,2.964,0,0,1-2.859-3.058v-7.11a2.963,2.963,0,0,1,2.859-3.058h31.413a2.963,2.963,0,0,1,2.858,3.058v7.11a2.963,2.963,0,0,1-2.858,3.058" transform="translate(-139.632 -132.688)" fill="#fff"/>
            <path id="Trazado_1277799" data-name="Trazado 1277799" d="M377.558,344.414a2.451,2.451,0,1,1-2.445-2.615,2.535,2.535,0,0,1,2.445,2.615" transform="translate(-162.56 -135.702)" fill="#9a8df2"/>
            <rect id="Rectángulo_462320" data-name="Rectángulo 462320" width="23.656" height="1.386" transform="translate(184.112 206.098)" fill="#9a8df2"/>
            <rect id="Rectángulo_462321" data-name="Rectángulo 462321" width="23.656" height="1.386" transform="translate(184.112 209.19)" fill="#9a8df2"/>
            <path id="Trazado_1277800" data-name="Trazado 1277800" d="M354.379,382.47H322.966a2.963,2.963,0,0,1-2.859-3.057V372.3a2.963,2.963,0,0,1,2.859-3.058h31.413a2.963,2.963,0,0,1,2.858,3.058v7.11a2.963,2.963,0,0,1-2.858,3.057" transform="translate(-139.632 -146.599)" fill="#fff"/>
            <path id="Trazado_1277801" data-name="Trazado 1277801" d="M377.558,378.49a2.451,2.451,0,1,1-2.445-2.615,2.535,2.535,0,0,1,2.445,2.615" transform="translate(-162.56 -149.231)" fill="#f2d06b"/>
            <rect id="Rectángulo_462322" data-name="Rectángulo 462322" width="23.656" height="1.386" transform="translate(184.112 226.644)" fill="#f2d06b"/>
            <rect id="Rectángulo_462323" data-name="Rectángulo 462323" width="23.656" height="1.386" transform="translate(184.112 229.736)" fill="#f2d06b"/>
            <path id="Trazado_1277802" data-name="Trazado 1277802" d="M354.379,413.559H322.966a2.963,2.963,0,0,1-2.859-3.058v-7.11a2.963,2.963,0,0,1,2.859-3.057h31.413a2.963,2.963,0,0,1,2.858,3.057v7.11a2.963,2.963,0,0,1-2.858,3.058" transform="translate(-139.632 -158.942)" fill="#fff"/>
            <path id="Trazado_1277803" data-name="Trazado 1277803" d="M377.558,409.277a2.451,2.451,0,1,1-2.445-2.615,2.535,2.535,0,0,1,2.445,2.615" transform="translate(-162.56 -161.454)" fill="#9a8df2"/>
            <rect id="Rectángulo_462324" data-name="Rectángulo 462324" width="23.656" height="1.386" transform="translate(184.112 245.209)" fill="#9a8df2"/>
            <rect id="Rectángulo_462325" data-name="Rectángulo 462325" width="23.656" height="1.386" transform="translate(184.112 248.301)" fill="#9a8df2"/>
            <path id="Trazado_1277804" data-name="Trazado 1277804" d="M262.426,331.318H226.171a5.4,5.4,0,0,0-5.208,5.57v52.755a5.4,5.4,0,0,0,5.208,5.57h36.255a5.4,5.4,0,0,0,5.208-5.57V336.888a5.4,5.4,0,0,0-5.208-5.57" transform="translate(-96.385 -131.541)" fill="#46248f"/>
            <rect id="Rectángulo_462326" data-name="Rectángulo 462326" width="5.617" height="5.283" transform="translate(129.723 263.673)" fill="#46248f"/>
            <rect id="Rectángulo_462327" data-name="Rectángulo 462327" width="5.617" height="5.283" transform="translate(160.486 263.673)" fill="#46248f"/>
            <path id="Trazado_1277805" data-name="Trazado 1277805" d="M263.53,391.862H233.391a1.925,1.925,0,0,1-1.857-1.987V341.957a1.926,1.926,0,0,1,1.857-1.987H263.53a1.926,1.926,0,0,1,1.858,1.987v47.919a1.925,1.925,0,0,1-1.858,1.987" transform="translate(-100.996 -134.976)" fill="#fff"/>
            <rect id="Rectángulo_462328" data-name="Rectángulo 462328" width="35.922" height="1.229" transform="translate(129.724 210.868)" fill="#46248f"/>
            <path id="Trazado_1277806" data-name="Trazado 1277806" d="M261.655,351.309H251.278a2.592,2.592,0,0,1,0-5.172h10.377a2.592,2.592,0,0,1,0,5.172" transform="translate(-108.554 -137.424)" fill="#46248f"/>
            <rect id="Rectángulo_462329" data-name="Rectángulo 462329" width="35.922" height="1.228" transform="translate(129.724 230.508)" fill="#46248f"/>
            <path id="Trazado_1277807" data-name="Trazado 1277807" d="M261.655,384.184H251.278a2.592,2.592,0,0,1,0-5.172h10.377a2.592,2.592,0,0,1,0,5.172" transform="translate(-108.554 -150.476)" fill="#46248f"/>
            <rect id="Rectángulo_462330" data-name="Rectángulo 462330" width="35.922" height="1.229" transform="translate(129.724 248.378)" fill="#46248f"/>
            <path id="Trazado_1277808" data-name="Trazado 1277808" d="M261.655,413.823H251.278a2.592,2.592,0,0,1,0-5.172h10.377a2.592,2.592,0,0,1,0,5.172" transform="translate(-108.554 -162.244)" fill="#46248f"/>
            <path id="Trazado_1277809" data-name="Trazado 1277809" d="M244.224,365.736a1.822,1.822,0,1,1-1.818-1.945,1.885,1.885,0,0,1,1.818,1.945" transform="translate(-104.946 -144.433)" fill="#f2d06b"/>
            <path id="Trazado_1277810" data-name="Trazado 1277810" d="M253.267,365.736a1.822,1.822,0,1,1-1.818-1.945,1.885,1.885,0,0,1,1.818,1.945" transform="translate(-108.89 -144.433)" fill="#f2d06b"/>
            <path id="Trazado_1277811" data-name="Trazado 1277811" d="M270.986,365.736a1.822,1.822,0,1,1-1.818-1.945,1.885,1.885,0,0,1,1.818,1.945" transform="translate(-116.619 -144.433)" fill="#f2d06b"/>
            <path id="Trazado_1277812" data-name="Trazado 1277812" d="M280.493,365.736a1.822,1.822,0,1,1-1.818-1.945,1.885,1.885,0,0,1,1.818,1.945" transform="translate(-120.766 -144.433)" fill="#13dcf2"/>
            <path id="Trazado_1277813" data-name="Trazado 1277813" d="M262.312,365.736a1.822,1.822,0,1,1-1.818-1.945,1.885,1.885,0,0,1,1.818,1.945" transform="translate(-112.836 -144.433)" fill="#9a8df2"/>
            <path id="Trazado_1277814" data-name="Trazado 1277814" d="M244.224,397.316a1.822,1.822,0,1,1-1.818-1.945,1.885,1.885,0,0,1,1.818,1.945" transform="translate(-104.946 -156.971)" fill="#9a8df2"/>
            <path id="Trazado_1277815" data-name="Trazado 1277815" d="M253.267,397.316a1.822,1.822,0,1,1-1.818-1.945,1.885,1.885,0,0,1,1.818,1.945" transform="translate(-108.89 -156.971)" fill="#13dcf2"/>
            <path id="Trazado_1277816" data-name="Trazado 1277816" d="M270.986,397.316a1.822,1.822,0,1,1-1.818-1.945,1.885,1.885,0,0,1,1.818,1.945" transform="translate(-116.619 -156.971)" fill="#f2d06b"/>
            <path id="Trazado_1277817" data-name="Trazado 1277817" d="M280.493,397.316a1.822,1.822,0,1,1-1.818-1.945,1.885,1.885,0,0,1,1.818,1.945" transform="translate(-120.766 -156.971)" fill="#13dcf2"/>
            <path id="Trazado_1277818" data-name="Trazado 1277818" d="M262.312,397.316a1.822,1.822,0,1,1-1.818-1.945,1.885,1.885,0,0,1,1.818,1.945" transform="translate(-112.836 -156.971)" fill="#f2d06b"/>
            <path id="Trazado_1277819" data-name="Trazado 1277819" d="M446.649,292.073H410.394a5.4,5.4,0,0,0-5.208,5.57v76.42a5.4,5.4,0,0,0,5.208,5.57h36.255a5.4,5.4,0,0,0,5.208-5.57v-76.42a5.4,5.4,0,0,0-5.208-5.57" transform="translate(-176.744 -115.96)" fill="#46248f"/>
            <rect id="Rectángulo_462331" data-name="Rectángulo 462331" width="5.617" height="5.283" transform="translate(233.587 263.673)" fill="#46248f"/>
            <rect id="Rectángulo_462332" data-name="Rectángulo 462332" width="5.617" height="5.283" transform="translate(264.349 263.673)" fill="#46248f"/>
            <path id="Trazado_1277820" data-name="Trazado 1277820" d="M423.476,378.659h-4.291a2.715,2.715,0,0,1-2.619-2.8V308.6a2.715,2.715,0,0,1,2.619-2.8h4.291a2.715,2.715,0,0,1,2.619,2.8v67.256a2.715,2.715,0,0,1-2.619,2.8" transform="translate(-181.708 -121.409)" fill="#fff"/>
            <path id="Trazado_1277821" data-name="Trazado 1277821" d="M425.4,313.037a1.976,1.976,0,1,1-1.971-2.108,2.043,2.043,0,0,1,1.971,2.108" transform="translate(-183.843 -123.446)" fill="#13dcf2"/>
            <path id="Trazado_1277822" data-name="Trazado 1277822" d="M446.161,378.659H441.87a2.715,2.715,0,0,1-2.619-2.8V308.6a2.715,2.715,0,0,1,2.619-2.8h4.291a2.715,2.715,0,0,1,2.619,2.8v67.256a2.715,2.715,0,0,1-2.619,2.8" transform="translate(-191.603 -121.409)" fill="#fff"/>
            <path id="Trazado_1277823" data-name="Trazado 1277823" d="M448.149,313.037a1.976,1.976,0,1,1-1.971-2.108,2.043,2.043,0,0,1,1.971,2.108" transform="translate(-193.765 -123.446)" fill="#f2d06b"/>
            <path id="Trazado_1277824" data-name="Trazado 1277824" d="M468.846,378.659h-4.292a2.715,2.715,0,0,1-2.619-2.8V308.6a2.715,2.715,0,0,1,2.619-2.8h4.292a2.715,2.715,0,0,1,2.62,2.8v67.256a2.715,2.715,0,0,1-2.62,2.8" transform="translate(-201.498 -121.409)" fill="#fff"/>
            <path id="Trazado_1277825" data-name="Trazado 1277825" d="M471.575,313.037a1.976,1.976,0,1,1-1.971-2.108,2.043,2.043,0,0,1,1.971,2.108" transform="translate(-203.983 -123.446)" fill="#9a8df2"/>
            <path id="Trazado_1277826" data-name="Trazado 1277826" d="M394.417,449.433H1.584a1.7,1.7,0,0,1,0-3.387H394.417a1.7,1.7,0,0,1,0,3.387" transform="translate(0 -177.09)" fill="#9a8df2"/>
            <path id="Trazado_1277827" data-name="Trazado 1277827" d="M249.552,45.924H180.628a2.075,2.075,0,0,1-2-2.141V2.142a2.076,2.076,0,0,1,2-2.142h68.924a2.075,2.075,0,0,1,2,2.142V43.783a2.075,2.075,0,0,1-2,2.141" transform="translate(-77.917 0)" fill="#344866"/>
            <path id="Trazado_1277828" data-name="Trazado 1277828" d="M249.72,48.283H184.43a.692.692,0,0,1-.668-.714V14.2h66.625V47.57a.692.692,0,0,1-.668.714" transform="translate(-80.158 -5.64)" fill="#fff"/>
            <path id="Trazado_1277829" data-name="Trazado 1277829" d="M231.687,7.66h-46.6a1.369,1.369,0,0,1-1.32-1.412,1.369,1.369,0,0,1,1.32-1.413h46.6a1.369,1.369,0,0,1,1.32,1.413,1.369,1.369,0,0,1-1.32,1.412" transform="translate(-80.158 -1.92)" fill="#fff"/>
            <path id="Trazado_1277830" data-name="Trazado 1277830" d="M284.855,6.248a1.324,1.324,0,1,1-2.641,0,1.324,1.324,0,1,1,2.641,0" transform="translate(-123.103 -1.92)" fill="#13dcf2"/>
            <path id="Trazado_1277831" data-name="Trazado 1277831" d="M292.695,6.248a1.323,1.323,0,1,1-2.641,0,1.323,1.323,0,1,1,2.641,0" transform="translate(-126.523 -1.92)" fill="#f2d06b"/>
            <path id="Trazado_1277832" data-name="Trazado 1277832" d="M299.891,6.248a1.324,1.324,0,1,1-2.642,0,1.324,1.324,0,1,1,2.642,0" transform="translate(-129.661 -1.92)" fill="#9a8df2"/>
            <path id="Trazado_1277833" data-name="Trazado 1277833" d="M270.241,19.4h13.311a1.384,1.384,0,0,1,1.335,1.428V45.785a1.384,1.384,0,0,1-1.335,1.428H272.841a1.37,1.37,0,0,1-1.327-1.27l-2.6-24.958a1.4,1.4,0,0,1,1.327-1.586" transform="translate(-117.298 -7.702)" fill="#9a8df2"/>
            <path id="Trazado_1277834" data-name="Trazado 1277834" d="M273.108,24.658l.646,5.523a1.369,1.369,0,0,0,1.324,1.25h8.137A1.383,1.383,0,0,0,284.549,30V24.48a1.383,1.383,0,0,0-1.334-1.427h-8.783a1.4,1.4,0,0,0-1.324,1.6" transform="translate(-119.126 -9.153)" fill="#fff"/>
            <path id="Trazado_1277835" data-name="Trazado 1277835" d="M275.224,41.386l.974,10.63a1.373,1.373,0,0,0,1.328,1.289h6.954a1.384,1.384,0,0,0,1.335-1.428V41.246a1.384,1.384,0,0,0-1.335-1.427h-7.928a1.394,1.394,0,0,0-1.328,1.567" transform="translate(-120.051 -15.809)" fill="#fff"/>
            <path id="Trazado_1277836" data-name="Trazado 1277836" d="M206.539,38.966H190.918a1.492,1.492,0,0,0-1.439,1.539V53.363a1.491,1.491,0,0,0,1.439,1.539h15.622a1.491,1.491,0,0,0,1.439-1.539V40.5a1.492,1.492,0,0,0-1.439-1.539" transform="translate(-82.652 -15.47)" fill="#f2d06b"/>
            <path id="Trazado_1277837" data-name="Trazado 1277837" d="M199.541,54h-5.588a.746.746,0,0,1-.72-.769V43.358a.746.746,0,0,1,.72-.769h5.588a.745.745,0,0,1,.719.769v9.871a.745.745,0,0,1-.719.769" transform="translate(-84.289 -16.909)" fill="#fff"/>
            <path id="Trazado_1277838" data-name="Trazado 1277838" d="M213.26,47.625h-4.692a.745.745,0,0,1-.719-.769v-3.5a.746.746,0,0,1,.719-.77h4.692a.746.746,0,0,1,.719.77v3.5a.745.745,0,0,1-.719.769" transform="translate(-90.664 -16.908)" fill="#fff"/>
            <path id="Trazado_1277839" data-name="Trazado 1277839" d="M213.073,58.195H208.38a.745.745,0,0,1-.719-.769v-3.5a.746.746,0,0,1,.719-.77h4.692a.746.746,0,0,1,.719.77v3.5a.745.745,0,0,1-.719.769" transform="translate(-90.583 -21.105)" fill="#fff"/>
            <path id="Trazado_1277840" data-name="Trazado 1277840" d="M206.539,18.193H190.918a1.492,1.492,0,0,0-1.439,1.539v7.794a1.491,1.491,0,0,0,1.439,1.539h15.622a1.491,1.491,0,0,0,1.439-1.539V19.732a1.492,1.492,0,0,0-1.439-1.539" transform="translate(-82.652 -7.223)" fill="#9a8df2"/>
            <path id="Trazado_1277841" data-name="Trazado 1277841" d="M206.13,28.064h-11.3a1.383,1.383,0,0,1-1.335-1.427V24.48a1.383,1.383,0,0,1,1.335-1.427h11.3a1.383,1.383,0,0,1,1.335,1.427v2.157a1.383,1.383,0,0,1-1.335,1.427" transform="translate(-84.405 -9.153)" fill="#fff"/>
            <path id="Trazado_1277842" data-name="Trazado 1277842" d="M227.611,20.636,226.644,45.6a1.387,1.387,0,0,0,1.333,1.486h20.174a1.4,1.4,0,0,0,1.326-1.6l-2.77-24.959a1.37,1.37,0,0,0-1.325-1.259H228.945a1.379,1.379,0,0,0-1.334,1.368" transform="translate(-98.863 -7.65)" fill="#13dcf2"/>
            <path id="Trazado_1277843" data-name="Trazado 1277843" d="M232.917,24.439l-.56,20.334a1.387,1.387,0,0,0,1.335,1.47h3.68a1.384,1.384,0,0,0,1.335-1.428V24.481a1.384,1.384,0,0,0-1.335-1.428h-3.119a1.38,1.38,0,0,0-1.335,1.386" transform="translate(-101.355 -9.153)" fill="#fff"/>
            <path id="Trazado_1277844" data-name="Trazado 1277844" d="M247.581,24.48V44.814a1.384,1.384,0,0,0,1.335,1.428h5.747a1.4,1.4,0,0,0,1.325-1.6L253.709,24.31a1.37,1.37,0,0,0-1.326-1.257h-3.468a1.384,1.384,0,0,0-1.335,1.427" transform="translate(-107.996 -9.153)" fill="#fff"/>
            <path id="Trazado_1277845" data-name="Trazado 1277845" d="M223.092,108.593A31.658,31.658,0,0,1,224.43,73.78a26.9,26.9,0,0,1,32.311-9.2c2.9-15.991,17.416-28.626,32.645-28.421s29.441,13.226,31.967,29.291a27.15,27.15,0,0,1,27.394-8.253c14.2,4.1,18.893,19.014,19.79,21.875,4.742,15.127-1.964,28.009-3.079,30.07" transform="translate(-95.32 -14.354)" fill="#69d7e5"/>
          </g>
        </g>
        <text id="_.COM" data-name=".COM" transform="translate(167.797 69.706)" fill="#fff" font-size="19" font-family="OpenSans-Bold, Open Sans" font-weight="700"><tspan x="0" y="0">.COM</tspan></text>
        <g id="Grupo_1212727" data-name="Grupo 1212727">
          <g id="Grupo_1212726" data-name="Grupo 1212726" clip-path="url(#clip-path)">
            <path id="Trazado_1277846" data-name="Trazado 1277846" d="M467.563,186.8H398.639a2.075,2.075,0,0,1-2-2.141V143.018a2.076,2.076,0,0,1,2-2.142h68.925a2.075,2.075,0,0,1,2,2.142v41.641a2.075,2.075,0,0,1-2,2.141" transform="translate(-173.015 -55.931)" fill="#344866"/>
            <path id="Trazado_1277847" data-name="Trazado 1277847" d="M467.731,189.159h-65.29a.692.692,0,0,1-.668-.714V155.081H468.4v33.365a.692.692,0,0,1-.668.714" transform="translate(-175.256 -61.571)" fill="#fff"/>
            <path id="Trazado_1277848" data-name="Trazado 1277848" d="M449.7,148.537h-46.6a1.416,1.416,0,0,1,0-2.825h46.6a1.416,1.416,0,0,1,0,2.825" transform="translate(-175.256 -57.851)" fill="#fff"/>
            <path id="Trazado_1277849" data-name="Trazado 1277849" d="M503.489,147.124a1.324,1.324,0,1,1-1.32-1.412,1.369,1.369,0,0,1,1.32,1.412" transform="translate(-218.472 -57.851)" fill="#13dcf2"/>
            <path id="Trazado_1277850" data-name="Trazado 1277850" d="M510.687,147.124a1.323,1.323,0,1,1-1.32-1.412,1.369,1.369,0,0,1,1.32,1.412" transform="translate(-221.612 -57.851)" fill="#f2d06b"/>
            <path id="Trazado_1277851" data-name="Trazado 1277851" d="M517.883,147.124a1.324,1.324,0,1,1-1.321-1.412,1.369,1.369,0,0,1,1.321,1.412" transform="translate(-224.751 -57.851)" fill="#9a8df2"/>
            <path id="Trazado_1277852" data-name="Trazado 1277852" d="M457.447,177.1l-.75,13.352a.99.99,0,0,0,.949,1.078h24.313a1,1,0,0,0,.943-1.148l-1.62-13.352a.976.976,0,0,0-.943-.886H458.4a.981.981,0,0,0-.949.956" transform="translate(-199.213 -69.933)" fill="#13dcf2"/>
            <path id="Trazado_1277853" data-name="Trazado 1277853" d="M475.08,184.058v4.073a.611.611,0,0,0,.9.571l4.266-2.51a.669.669,0,0,0-.1-1.186l-4.266-1.564a.616.616,0,0,0-.806.616" transform="translate(-207.232 -72.816)" fill="#fff"/>
            <path id="Trazado_1277854" data-name="Trazado 1277854" d="M466.907,169.028l2.642,1.856,3.268-.9-2.642-1.856Z" transform="translate(-203.667 -66.752)" fill="#13dcf2"/>
            <path id="Trazado_1277855" data-name="Trazado 1277855" d="M472.7,167.542l2.642,1.855,3.268-.9-2.642-1.855Z" transform="translate(-206.195 -66.162)" fill="#fff"/>
            <path id="Trazado_1277856" data-name="Trazado 1277856" d="M457.829,171.506a1.278,1.278,0,0,0-.67,1.922,1.13,1.13,0,0,0,1.25.5l3.529-.968L459.3,171.1Z" transform="translate(-199.324 -67.932)" fill="#13dcf2"/>
            <path id="Trazado_1277857" data-name="Trazado 1277857" d="M461.111,170.514l2.642,1.855,3.268-.9-2.642-1.856Z" transform="translate(-201.139 -67.342)" fill="#fff"/>
            <path id="Trazado_1277858" data-name="Trazado 1277858" d="M493.976,161.922,490.3,162.93l2.642,1.855,1.612-.442a1.192,1.192,0,0,0,.775-.7,1.223,1.223,0,0,0-1.356-1.723" transform="translate(-213.872 -64.271)" fill="#13dcf2"/>
            <path id="Trazado_1277859" data-name="Trazado 1277859" d="M484.266,164.553l2.642,1.856,3.4-.933-2.642-1.856Z" transform="translate(-211.239 -64.961)" fill="#fff"/>
            <path id="Trazado_1277860" data-name="Trazado 1277860" d="M478.5,166.059l2.642,1.856,3.252-.892-2.642-1.856Z" transform="translate(-208.723 -65.575)" fill="#13dcf2"/>
            <path id="Trazado_1277861" data-name="Trazado 1277861" d="M423.192,164.155h-13.44a2.238,2.238,0,0,1,0-4.465h13.44a2.238,2.238,0,0,1,0,4.465" transform="translate(-177.826 -63.401)" fill="#f2d06b"/>
            <path id="Trazado_1277862" data-name="Trazado 1277862" d="M435.455,162.792a.854.854,0,1,1-.852-.911.883.883,0,0,1,.852.911" transform="translate(-189.204 -64.271)" fill="#fff"/>
            <path id="Trazado_1277863" data-name="Trazado 1277863" d="M423.192,176.017h-13.44a2.238,2.238,0,0,1,0-4.465h13.44a2.238,2.238,0,0,1,0,4.465" transform="translate(-177.826 -68.11)" fill="#f2d06b"/>
            <path id="Trazado_1277864" data-name="Trazado 1277864" d="M411.824,174.655a.854.854,0,1,1-.852-.911.883.883,0,0,1,.852.911" transform="translate(-178.896 -68.98)" fill="#fff"/>
            <path id="Trazado_1277865" data-name="Trazado 1277865" d="M417.6,174.655a.854.854,0,1,1-.852-.911.883.883,0,0,1,.852.911" transform="translate(-181.418 -68.98)" fill="#fff"/>
            <path id="Trazado_1277866" data-name="Trazado 1277866" d="M423.192,187.88h-13.44a2.238,2.238,0,0,1,0-4.465h13.44a2.238,2.238,0,0,1,0,4.465" transform="translate(-177.826 -72.82)" fill="#9a8df2"/>
            <path id="Trazado_1277867" data-name="Trazado 1277867" d="M411.824,186.517a.854.854,0,1,1-.852-.911.883.883,0,0,1,.852.911" transform="translate(-178.896 -73.69)" fill="#fff"/>
            <path id="Trazado_1277868" data-name="Trazado 1277868" d="M435.776,186.517a.854.854,0,1,1-.852-.911.883.883,0,0,1,.852.911" transform="translate(-189.344 -73.69)" fill="#fff"/>
            <path id="Trazado_1277869" data-name="Trazado 1277869" d="M423.192,199.742h-13.44a2.238,2.238,0,0,1,0-4.465h13.44a2.238,2.238,0,0,1,0,4.465" transform="translate(-177.826 -77.529)" fill="#13dcf2"/>
            <path id="Trazado_1277870" data-name="Trazado 1277870" d="M435.455,198.38a.854.854,0,1,1-.852-.911.883.883,0,0,1,.852.911" transform="translate(-189.204 -78.4)" fill="#fff"/>
            <path id="Trazado_1277871" data-name="Trazado 1277871" d="M423.8,198.38a.854.854,0,1,1-.852-.911.883.883,0,0,1,.852.911" transform="translate(-184.12 -78.4)" fill="#fff"/>
            <path id="Trazado_1277872" data-name="Trazado 1277872" d="M470.112,39.544H428.1a2.075,2.075,0,0,1-2-2.141V12.71a2.075,2.075,0,0,1,2-2.141h42.01a2.075,2.075,0,0,1,2,2.141V37.4a2.075,2.075,0,0,1-2,2.141" transform="translate(-185.867 -4.196)" fill="#344866"/>
            <path id="Trazado_1277873" data-name="Trazado 1277873" d="M469.85,41.213H433.159a1.384,1.384,0,0,1-1.334-1.428V23.215h39.361v16.57a1.384,1.384,0,0,1-1.334,1.428" transform="translate(-188.364 -9.217)" fill="#fff"/>
            <path id="Trazado_1277874" data-name="Trazado 1277874" d="M458.258,17.837H432.323a1.162,1.162,0,0,1,0-2.32h25.936a1.162,1.162,0,0,1,0,2.32" transform="translate(-188.108 -6.161)" fill="#fff"/>
            <path id="Trazado_1277875" data-name="Trazado 1277875" d="M487.9,16.63a1.106,1.106,0,1,1-1.1-1.18,1.143,1.143,0,0,1,1.1,1.18" transform="translate(-211.863 -6.134)" fill="#13dcf2"/>
            <path id="Trazado_1277876" data-name="Trazado 1277876" d="M494.453,16.63a1.106,1.106,0,1,1-1.1-1.18,1.143,1.143,0,0,1,1.1,1.18" transform="translate(-214.72 -6.134)" fill="#f2d06b"/>
            <path id="Trazado_1277877" data-name="Trazado 1277877" d="M500.466,16.63a1.106,1.106,0,1,1-1.1-1.18,1.143,1.143,0,0,1,1.1,1.18" transform="translate(-217.343 -6.134)" fill="#9a8df2"/>
            <path id="Trazado_1277878" data-name="Trazado 1277878" d="M441.765,34.368l1.679-5.9a5.6,5.6,0,0,0-1.679-.26,6.192,6.192,0,0,0-5.975,6.39,5.988,5.988,0,1,0,11.949,0c0-.077-.009-.152-.011-.228Z" transform="translate(-190.094 -11.198)" fill="#9a8df2"/>
            <path id="Trazado_1277879" data-name="Trazado 1277879" d="M465.665,33.935l5.518,1.8a6.786,6.786,0,0,0,.244-1.8,5.988,5.988,0,1,0-11.949,0,6.193,6.193,0,0,0,5.975,6.39c.072,0,.141-.009.213-.011Z" transform="translate(-200.426 -10.936)" fill="#13dcf2"/>
            <path id="Trazado_1277880" data-name="Trazado 1277880" d="M491.225,30.025h-4.441a.822.822,0,0,1,0-1.64h4.441a.822.822,0,0,1,0,1.64" transform="translate(-212.003 -11.269)" fill="#f2d06b"/>
            <path id="Trazado_1277881" data-name="Trazado 1277881" d="M491.225,34.937h-4.441a.822.822,0,0,1,0-1.64h4.441a.822.822,0,0,1,0,1.64" transform="translate(-212.003 -13.22)" fill="#13dcf2"/>
            <path id="Trazado_1277882" data-name="Trazado 1277882" d="M491.225,40.244h-4.441a.822.822,0,0,1,0-1.64h4.441a.822.822,0,0,1,0,1.64" transform="translate(-212.003 -15.327)" fill="#f2d06b"/>
            <path id="Trazado_1277883" data-name="Trazado 1277883" d="M491.225,45.552h-4.441a.822.822,0,0,1,0-1.64h4.441a.822.822,0,0,1,0,1.64" transform="translate(-212.003 -17.434)" fill="#9a8df2"/>
            <path id="Trazado_1277884" data-name="Trazado 1277884" d="M257.827,205.57H208.068a2.458,2.458,0,0,1-2.371-2.536V173.786a2.458,2.458,0,0,1,2.371-2.536h49.758a2.458,2.458,0,0,1,2.371,2.536v29.247a2.458,2.458,0,0,1-2.371,2.536" transform="translate(-89.726 -67.99)" fill="#344866"/>
            <path id="Trazado_1277885" data-name="Trazado 1277885" d="M257.659,208.406H212.243a1.748,1.748,0,0,1-1.686-1.8V185.247h48.788V206.6a1.748,1.748,0,0,1-1.686,1.8" transform="translate(-91.846 -73.547)" fill="#fff"/>
            <path id="Trazado_1277886" data-name="Trazado 1277886" d="M243.3,178.326H211.2a1.419,1.419,0,0,1-1.369-1.465v-.055a1.42,1.42,0,0,1,1.369-1.465h32.1a1.419,1.419,0,0,1,1.37,1.465v.055a1.419,1.419,0,0,1-1.37,1.465" transform="translate(-91.529 -69.614)" fill="#fff"/>
            <path id="Trazado_1277887" data-name="Trazado 1277887" d="M280.066,176.773a1.375,1.375,0,1,1-1.368-1.518,1.449,1.449,0,0,1,1.368,1.518" transform="translate(-120.973 -69.58)" fill="#13dcf2"/>
            <path id="Trazado_1277888" data-name="Trazado 1277888" d="M288.184,176.773a1.375,1.375,0,1,1-1.368-1.518,1.449,1.449,0,0,1,1.368,1.518" transform="translate(-124.514 -69.58)" fill="#f2d06b"/>
            <path id="Trazado_1277889" data-name="Trazado 1277889" d="M295.638,176.773a1.375,1.375,0,1,1-1.368-1.518,1.449,1.449,0,0,1,1.368,1.518" transform="translate(-127.766 -69.58)" fill="#9a8df2"/>
            <path id="Trazado_1277890" data-name="Trazado 1277890" d="M253.85,193.27v11.5a1.166,1.166,0,0,1-1.07,1.2l-7.8.378a1.156,1.156,0,0,1-1.171-1.181l-.157-11.875a1.163,1.163,0,0,1,1.121-1.216h7.96a1.162,1.162,0,0,1,1.121,1.2" transform="translate(-106.281 -76.256)" fill="#f2d06b"/>
            <path id="Trazado_1277891" data-name="Trazado 1277891" d="M250.865,199.439c.006.126,1.062.307,1.186.327a4.323,4.323,0,0,0,1.261.061,12.823,12.823,0,0,1-.195-1.986,28.131,28.131,0,0,1-3.71.2q.275,1.884.63,3.753a1.963,1.963,0,0,0-1.011-.332,1.166,1.166,0,0,0-.946.447,1.476,1.476,0,0,0-.028,1.51,1.84,1.84,0,0,0,1.855.984,1.928,1.928,0,0,0,1.521-1.5,3.639,3.639,0,0,0-.17-1.746,7.565,7.565,0,0,1-.394-1.72" transform="translate(-108.117 -78.548)" fill="#fff"/>
            <path id="Trazado_1277892" data-name="Trazado 1277892" d="M281.056,204.995V193.5a1.166,1.166,0,0,0-1.07-1.2l-7.8-.378a1.156,1.156,0,0,0-1.171,1.181l-.157,11.875a1.162,1.162,0,0,0,1.12,1.216h7.96a1.162,1.162,0,0,0,1.121-1.2" transform="translate(-118.148 -76.197)" fill="#9a8df2"/>
            <path id="Trazado_1277893" data-name="Trazado 1277893" d="M281.294,202.332a49.506,49.506,0,0,0-5.277,3.767q.2-3.193.3-6.391a46.753,46.753,0,0,0,4.977,2.624" transform="translate(-120.4 -79.289)" fill="#fff"/>
            <path id="Trazado_1277894" data-name="Trazado 1277894" d="M218.173,192.957V204.6a1.1,1.1,0,0,0,1,1.125l7.937.385a1.086,1.086,0,0,0,1.1-1.11l.158-12.023a1.092,1.092,0,0,0-1.053-1.142h-8.1a1.091,1.091,0,0,0-1.053,1.126" transform="translate(-95.168 -76.161)" fill="#13dcf2"/>
            <path id="Trazado_1277895" data-name="Trazado 1277895" d="M225.6,202.932a3.155,3.155,0,0,0,1.563-1.406,2.509,2.509,0,0,0,.1-2.14,1.709,1.709,0,0,0-1.691-1.043q.108-.781.215-1.56a10.087,10.087,0,0,1-2.062,1.4,7.46,7.46,0,0,0,1.142,2.215l.4-.955a1.279,1.279,0,0,1,.85,1.3,1.55,1.55,0,0,1-.926,1.3,1.773,1.773,0,0,1-1.557-.137c-.01.329-.022.659-.032.988-.011.376,0,.4.358.38a4.645,4.645,0,0,0,1.632-.349" transform="translate(-97.539 -78.127)" fill="#fff"/>
            <path id="Trazado_1277896" data-name="Trazado 1277896" d="M606.165,229.189a121,121,0,0,0-12.231,14.128l-3.8-6.276q-.273-.45-.553-.895c-.629-1-1.276-1.991-1.879-3.011a16.233,16.233,0,0,1-1.394-2.537c-.583-1.583-.493-3.54-1.624-4.855a1.736,1.736,0,0,0-1.51-.693c-.737.118-1.2.871-1.675,1.488a4.344,4.344,0,0,0-1.272,2.338,3.64,3.64,0,0,0,.565,1.723q.293.563.567,1.135c.992,2.069,1.633,4.243,2.453,6.376.571,1.483,1.164,2.957,1.768,4.425q1.911,4.643,4.208,9.089a3.987,3.987,0,0,0,2.007,2.213c1.028.317,2.082-.31,2.991-.913l14.744-9.777" transform="translate(-253.098 -89.344)" fill="#ad7840"/>
            <path id="Trazado_1277897" data-name="Trazado 1277897" d="M603.456,257.911a5.349,5.349,0,0,0-.193,2.474c.034.154.105.33.251.358.17.032.3-.159.368-.327a6.05,6.05,0,0,0,.4-2.551,7.485,7.485,0,0,0-.3-2.248,3.51,3.51,0,0,0-.15.8c-.1.507-.247,1-.377,1.5" transform="translate(-263.112 -101.486)" fill="#573c20"/>
            <path id="Trazado_1277898" data-name="Trazado 1277898" d="M602.141,268.4a1.13,1.13,0,0,1,.648,1.093,1.279,1.279,0,0,0-.933-.622,1.634,1.634,0,0,0-1.077.276,1.734,1.734,0,0,1,.391-.611,1,1,0,0,1,.971-.136" transform="translate(-262.062 -106.532)" fill="#573c20"/>
            <path id="Trazado_1277899" data-name="Trazado 1277899" d="M611.016,239.2l-.606.783a2.8,2.8,0,0,0-.424.674,1.409,1.409,0,0,0-.05.663,5.594,5.594,0,0,1-.043.7,8.44,8.44,0,0,0,.048,1.457,24.968,24.968,0,0,0,2.37,8.4.621.621,0,0,0,.306.355.579.579,0,0,0,.478-.143l5.11-3.412a2.221,2.221,0,0,0,.811-.775,2.544,2.544,0,0,0,.073-1.533q-.115-.737-.206-1.479a46.23,46.23,0,0,1-.33-7.455c.018-.463.143-.872.138-1.34q-.01-.938.02-1.875.064-1.874.3-3.734A44.99,44.99,0,0,0,615.2,234c-.951,1.021-1.811,2.133-2.67,3.243l-1.511,1.953" transform="translate(-266.032 -91.506)" fill="#cfe8ff"/>
            <path id="Trazado_1277900" data-name="Trazado 1277900" d="M617.868,254.63a11.962,11.962,0,0,1-2.4,1.579,49.192,49.192,0,0,1,3.81-15.219q-.719,7.091-1.439,14.183" transform="translate(-268.47 -95.679)" fill="#b59c50"/>
            <path id="Trazado_1277901" data-name="Trazado 1277901" d="M570.065,217.072l4.862-.549a.934.934,0,0,1,.934.528l5.127,10.207a1.074,1.074,0,0,1-.009.976l-.338.644a.961.961,0,0,1-.561.476l-5.468,1.7a.932.932,0,0,1-1.142-.59l-4.4-11.537a1.081,1.081,0,0,1,.028-.831l.216-.468a.951.951,0,0,1,.75-.559" transform="translate(-248.201 -85.962)" fill="#9a8df2"/>
            <path id="Trazado_1277902" data-name="Trazado 1277902" d="M570.43,216.151l5.311-1.052a.883.883,0,0,1,.977.539l4.745,10.917a.977.977,0,0,1-.562,1.325l-5.478,1.708a.882.882,0,0,1-1.077-.548l-4.578-11.572a.969.969,0,0,1,.662-1.317" transform="translate(-248.504 -85.393)" fill="#351b6b"/>
            <path id="Trazado_1277903" data-name="Trazado 1277903" d="M584.313,235.932a.4.4,0,1,1-.4-.428.415.415,0,0,1,.4.428" transform="translate(-254.531 -93.5)" fill="#fff"/>
            <path id="Trazado_1277904" data-name="Trazado 1277904" d="M571.334,217.005l5.04-1a.442.442,0,0,1,.488.27l4.214,9.7a.489.489,0,0,1-.281.663l-5.176,1.612a.441.441,0,0,1-.538-.273L571,217.664a.484.484,0,0,1,.331-.658" transform="translate(-249.058 -85.756)" fill="#fff"/>
            <path id="Trazado_1277905" data-name="Trazado 1277905" d="M572.415,218.494l.021.054a.452.452,0,0,0,.527.291l4-.983a.5.5,0,0,0,.313-.686.451.451,0,0,0-.512-.272l-4.018.929a.5.5,0,0,0-.328.666" transform="translate(-249.675 -86.109)" fill="#13dcf2"/>
            <path id="Trazado_1277906" data-name="Trazado 1277906" d="M578.058,229.233l.689,2.03a.525.525,0,0,0,.642.353l3.2-.952a.58.58,0,0,0,.332-.8l-.868-1.831a.52.52,0,0,0-.595-.3l-3.023.754a.575.575,0,0,0-.379.748" transform="translate(-252.138 -90.408)" fill="#f2d06b"/>
            <path id="Trazado_1277907" data-name="Trazado 1277907" d="M579.347,221.751l-1.832.552.864-1.433a2.38,2.38,0,0,0-.865-.216,2.072,2.072,0,0,0-2.283,1.849,2.109,2.109,0,0,0,2.087,2.1,2.073,2.073,0,0,0,2.283-1.85,1.824,1.824,0,0,0-.253-1" transform="translate(-250.917 -87.603)" fill="#9a8df2"/>
            <path id="Trazado_1277908" data-name="Trazado 1277908" d="M587.711,223.181a6.188,6.188,0,0,1,.776,2.58,8.366,8.366,0,0,1,.006,1.383,3.654,3.654,0,0,1-.158.637,4.09,4.09,0,0,0-.206.748c.007-.145-.234-.47-.3-.6l-.349-.7a7.854,7.854,0,0,1-.58-1.261,10.253,10.253,0,0,0-.586-1.917c-.366-.7-1.049-1.017-1.514-1.622a3.233,3.233,0,0,1-.6-1.62,3.169,3.169,0,0,1,.1-1.733c.08-.166.223-.338.4-.309.156.027.245.2.314.352a10.487,10.487,0,0,0,1.29,2.126,17.868,17.868,0,0,1,1.4,1.942" transform="translate(-254.803 -86.852)" fill="#ad7840"/>
            <path id="Trazado_1277909" data-name="Trazado 1277909" d="M571.25,223.764c.134-.233.28-.453.421-.653.188-.265.444-.539.754-.512a.712.712,0,0,1,.55.716,1.825,1.825,0,0,1-.3.945.634.634,0,0,1,.673.364,1.06,1.06,0,0,1,.074.782,3.435,3.435,0,0,1-.158.455c-.033.078-.111.329-.184.367a1.708,1.708,0,0,1,.434-.178.568.568,0,0,1,.449.075.738.738,0,0,1,.247.594,2.863,2.863,0,0,1-.37,1.248,1.148,1.148,0,0,1,.566-.253.424.424,0,0,1,.451.356.662.662,0,0,1-.2.443,7.144,7.144,0,0,0-.874,1.179,1.979,1.979,0,0,0-.213,1.448,2.077,2.077,0,0,1-.984-.626.61.61,0,0,1-.138-.383c-.007-.048-.055-.652,0-.639a1.106,1.106,0,0,1-.762-.642,1.24,1.24,0,0,1,.035-1.037c-.03.06-.345-.136-.379-.163a1.014,1.014,0,0,1-.274-.361,1.261,1.261,0,0,1,.16-1c-.071.123-.312-.136-.345-.184a1.057,1.057,0,0,1-.157-.518,3.276,3.276,0,0,1,.527-1.825" transform="translate(-248.95 -88.376)" fill="#ad7840"/>
            <path id="Trazado_1277910" data-name="Trazado 1277910" d="M575.168,231.455a1.057,1.057,0,0,0-1.05.388,1.613,1.613,0,0,0-.284.523,1.345,1.345,0,0,0-.1.572,4.012,4.012,0,0,1,.59-.886,2.786,2.786,0,0,1,.4-.345c.076-.054.348-.276.441-.251" transform="translate(-250.263 -91.882)" fill="#573c20"/>
            <path id="Trazado_1277911" data-name="Trazado 1277911" d="M572.561,230.015a3.511,3.511,0,0,1,1.349-1.492,1.5,1.5,0,0,0-.945.576,2.554,2.554,0,0,0-.471,1.066" transform="translate(-249.725 -90.729)" fill="#573c20"/>
            <path id="Trazado_1277912" data-name="Trazado 1277912" d="M572.988,225.269a1.51,1.51,0,0,0-1.1.8,3.128,3.128,0,0,0-.349,1.406c0-.038.1-.148.116-.2.028-.083.048-.169.077-.252a3.886,3.886,0,0,1,.208-.49,3.772,3.772,0,0,1,.6-.868,3.425,3.425,0,0,1,.439-.4" transform="translate(-249.31 -89.437)" fill="#573c20"/>
            <path id="Trazado_1277913" data-name="Trazado 1277913" d="M598.975,425.956a14.267,14.267,0,0,1-6.8,4.806,9.387,9.387,0,0,0-3.18,1.321c-1.289,1.041-1.773,2.843-2.179,4.516-.107.438-.185.98.134,1.277a1.1,1.1,0,0,0,.774.2l15.888.027a1.235,1.235,0,0,0,.777-.174,1.446,1.446,0,0,0,.4-1.017q.586-5.313.708-10.668" transform="translate(-255.933 -169.114)" fill="#f2d06b"/>
            <path id="Trazado_1277914" data-name="Trazado 1277914" d="M612.474,298.35c-3.4,22.753-5.713,55.282-6.929,78.286a29.732,29.732,0,0,1,8.451.521c.683-1.506.392-3.008.582-4.6a37.227,37.227,0,0,1,1.771-6.185q2-6.55,4-13.1a8.014,8.014,0,0,0,.455-4.622c-.411-1.33-1.5-2.343-1.833-3.7a7.256,7.256,0,0,1,.391-3.7l6.3-21.906c1.92-6.68,3.142-13.375,4.774-20.147" transform="translate(-264.142 -118.452)" fill="#281450"/>
            <path id="Trazado_1277915" data-name="Trazado 1277915" d="M615.4,383.7c1.87-7.758,2.58-15.739,5.213-23.338,1.473-4.43-.565-4.75-2.466-7.726,2.694-11.839,8.419-23.239,12.16-34.9" transform="translate(-268.442 -126.148)" fill="none" stroke="#46248f" stroke-miterlimit="10" stroke-width="1"/>
            <path id="Trazado_1277916" data-name="Trazado 1277916" d="M587,444.065q8.884.128,17.756-.542" transform="translate(-256.052 -176.089)" fill="none" stroke="#351b6b" stroke-linecap="round" stroke-linejoin="round" stroke-width="0.5"/>
            <path id="Trazado_1277917" data-name="Trazado 1277917" d="M600.55,428.074a.762.762,0,0,0-.479.117.624.624,0,0,0-.1.775.91.91,0,0,0,.677.413,2.781,2.781,0,0,0,.8-.052,6.086,6.086,0,0,1,2.753.046,2.783,2.783,0,0,1,1.931,1.94c.065.288.039.662-.21.791-.269.139-.566-.108-.775-.335l-2.284-2.48a4.383,4.383,0,0,0-.918-.918A3.032,3.032,0,0,0,600.55,428.074Z" transform="translate(-261.67 -169.955)" fill="none" stroke="#351b6b" stroke-linecap="round" stroke-linejoin="round" stroke-width="0.5"/>
            <path id="Trazado_1277918" data-name="Trazado 1277918" d="M600.781,431.391a7.127,7.127,0,0,1,2.605,1.335" transform="translate(-262.064 -171.272)" fill="none" stroke="#351b6b" stroke-linecap="round" stroke-linejoin="round" stroke-width="0.5"/>
            <path id="Trazado_1277919" data-name="Trazado 1277919" d="M598.143,432.592a13.4,13.4,0,0,1,2.608,1.437" transform="translate(-260.913 -171.749)" fill="none" stroke="#351b6b" stroke-linecap="round" stroke-linejoin="round" stroke-width="0.5"/>
            <path id="Trazado_1277920" data-name="Trazado 1277920" d="M595.521,433.089a18.048,18.048,0,0,1,2.454,1.822" transform="translate(-259.769 -171.946)" fill="none" stroke="#351b6b" stroke-linecap="round" stroke-linejoin="round" stroke-width="0.5"/>
            <path id="Trazado_1277921" data-name="Trazado 1277921" d="M657.16,427.4a4,4,0,0,1-1.112,1.74,7.754,7.754,0,0,1-1.671,1.153,16.729,16.729,0,0,1-3.15,1.311c-.466.14-.916.312-1.386.419a2.763,2.763,0,0,0-1.244.493c-1.254,1.09-1.677,2.909-2.027,4.6-.091.442-.152.986.178,1.271a1.1,1.1,0,0,0,.78.171q6.7-.249,13.4-.491a15.509,15.509,0,0,1,2.211-.079c.5.057,1.071.2,1.48-.248a1.845,1.845,0,0,0,.287-1.348,82.913,82.913,0,0,0-1.35-10.023" transform="translate(-282.006 -169.277)" fill="#f2d06b"/>
            <path id="Trazado_1277922" data-name="Trazado 1277922" d="M634.447,298.141c4.27,23.064,10.708,54.949,15.379,77.924a21.763,21.763,0,0,1,9.264-1.173c-.546-5.932-.885-11.885-1.183-17.837-.2-3.912.681-9.7-1.754-12.984-.641-.863-1.53-1.491-2.142-2.378-1-1.448-1.12-3.361-1.195-5.158q-.456-11.029-.364-22.073c.063-6.9.863-13.811.232-20.67" transform="translate(-276.749 -116.642)" fill="#351b6b"/>
            <path id="Trazado_1277923" data-name="Trazado 1277923" d="M660.681,308.817c.6,5.675.5,11.6.88,17.343q.613,9.266,1.437,18.516a12.856,12.856,0,0,0,1.355,5.55c.6.99,1.456,1.783,2,2.807a10.846,10.846,0,0,1,.905,4.507q.644,11.511,1.287,23.022" transform="translate(-288.192 -122.607)" fill="none" stroke="#46248f" stroke-miterlimit="10" stroke-width="1"/>
            <path id="Trazado_1277924" data-name="Trazado 1277924" d="M646.987,443.911a28.285,28.285,0,0,0,6.129.094l11.741-.67" transform="translate(-282.219 -176.014)" fill="none" stroke="#351b6b" stroke-linecap="round" stroke-linejoin="round" stroke-width="0.5"/>
            <path id="Trazado_1277925" data-name="Trazado 1277925" d="M658.946,430.274a.541.541,0,0,0-.546.079c-.173.2-.034.533.17.693a2.219,2.219,0,0,0,1.816.1,7.436,7.436,0,0,1,2.363-.066,2.447,2.447,0,0,1,1.38.542,1.051,1.051,0,0,1,.351.64.618.618,0,0,1-.31.627.807.807,0,0,1-.591-.043,5.859,5.859,0,0,1-2.207-1.4A5.2,5.2,0,0,0,658.946,430.274Z" transform="translate(-287.163 -170.814)" fill="none" stroke="#351b6b" stroke-linecap="round" stroke-linejoin="round" stroke-width="0.5"/>
            <path id="Trazado_1277926" data-name="Trazado 1277926" d="M657.758,432.886a10.416,10.416,0,0,1,2.586,1.056" transform="translate(-286.917 -171.865)" fill="none" stroke="#351b6b" stroke-linecap="round" stroke-linejoin="round" stroke-width="0.5"/>
            <path id="Trazado_1277927" data-name="Trazado 1277927" d="M653.556,434.639a4.749,4.749,0,0,1,2.687,1.314" transform="translate(-285.084 -172.561)" fill="none" stroke="#351b6b" stroke-linecap="round" stroke-linejoin="round" stroke-width="0.5"/>
            <path id="Trazado_1277928" data-name="Trazado 1277928" d="M656.319,433.879a10.979,10.979,0,0,1,2.289,1.342" transform="translate(-286.29 -172.26)" fill="none" stroke="#351b6b" stroke-linecap="round" stroke-linejoin="round" stroke-width="0.5"/>
            <path id="Trazado_1277929" data-name="Trazado 1277929" d="M645.1,252.043q.118,3.018.207,6.035.142,4.79.213,9.583.035,2.4.053,4.794c0,.311.038,4.17-.022,4.174q-.713.052-1.426.1-8.917.573-17.858.315-4.465-.127-8.922-.464c-1.206-.091-2.01-.083-1.939-1.577.075-1.591.183-3.18.287-4.768q.617-9.481,1.611-18.927.633-6.011,1.416-12c.4-3.023.192-7.38,1.878-9.915a4.693,4.693,0,0,1,1.775-1.435c5.283-2.874,12.08-3.98,17.479-.951,1.25.7,2.469,1.231,3.279,2.621a10.659,10.659,0,0,1,1.03,4.656q.591,8.874.938,17.763" transform="translate(-268.441 -89.409)" fill="#cfe8ff"/>
            <path id="Trazado_1277930" data-name="Trazado 1277930" d="M664.491,261.314q-.115-3.472-.23-6.944a.918.918,0,0,0-.124-.523.863.863,0,0,0-.69-.228,4.452,4.452,0,0,1-3.412-2.094,12.49,12.49,0,0,0,1.377,4.9,20.948,20.948,0,0,0,3.079,4.885" transform="translate(-287.91 -99.861)" fill="#b59c50"/>
            <path id="Trazado_1277931" data-name="Trazado 1277931" d="M639.072,266.186c-.9-1.445-1.852-2.905-2.624-4.433l2.9-2.047c-2.667-.823-5.3-1.495-7.962-2.317L629.7,265a15.588,15.588,0,0,0,3.5-2.2,26.649,26.649,0,0,0,3.045,5.652,24.871,24.871,0,0,1,2.831-2.271" transform="translate(-274.677 -102.189)" fill="#fff"/>
            <path id="Trazado_1277932" data-name="Trazado 1277932" d="M635.522,217.821a1.673,1.673,0,0,0,.2,1.265,1.344,1.344,0,0,0,1.041.35,13.679,13.679,0,0,0,5.61-1.07,2.591,2.591,0,0,0,1.43-1.123,3.186,3.186,0,0,0,.233-1.194c.266-4.183.532-8.374.392-12.564a7.034,7.034,0,0,0-.537-2.906,2.255,2.255,0,0,0-2.268-1.387c-1.01.2-1.615,1.294-2.007,2.308a22,22,0,0,0-1.46,7.171c-.031.9-.2,1.554-1.116,1.644-.878.086-.739.513-.842,1.44q-.337,3.034-.674,6.067" transform="translate(-277.204 -79.072)" fill="#ad7840"/>
            <path id="Trazado_1277933" data-name="Trazado 1277933" d="M635.974,222.909a6.209,6.209,0,0,0,3.655-2.224,7.008,7.008,0,0,0,1.5-4.2,4.42,4.42,0,0,1-4.345,1.8,4.124,4.124,0,0,0-.38.935q-.11.613-.193,1.231-.168,1.225-.24,2.461" transform="translate(-277.415 -85.949)" fill="#573c20"/>
            <path id="Trazado_1277934" data-name="Trazado 1277934" d="M625.314,200.871c-.717,8.359,7.376,6.6,11.553,4.565,3.11-4.469,7.218-15.087,1.427-18.879-8.55-5.17-11.933,2.1-12.98,14.313" transform="translate(-272.746 -73.398)" fill="#ad7840"/>
            <path id="Trazado_1277935" data-name="Trazado 1277935" d="M645.976,184.98a3.866,3.866,0,0,0,1-3.927,3.49,3.49,0,0,0-3.06-2.422,4.144,4.144,0,0,0-.943-3.852,3.833,3.833,0,0,0-4.568-.849,3.632,3.632,0,0,0-2.829-3.836,5.378,5.378,0,0,0-4.627,1.615,3.936,3.936,0,0,0-4.389-1.128,4.4,4.4,0,0,0-2.6,3.949,3.373,3.373,0,0,0-3.483,2.335A3.743,3.743,0,0,0,621.877,181a3.075,3.075,0,0,0-.311,3.767,2.649,2.649,0,0,0,2.218,1.094,2.266,2.266,0,0,0,1.183-.334c.2-.133.809-.859.567-1.159A3.03,3.03,0,0,0,628,185.631a1.983,1.983,0,0,0,1.81-1.936,2.243,2.243,0,0,0,1.872,1.928,2.366,2.366,0,0,0,2.119-1.452,1.752,1.752,0,0,0,.613,1.719,1.5,1.5,0,0,0,1.72.043A5.589,5.589,0,0,0,634.587,189a3.579,3.579,0,0,0,.562,2.58,2.16,2.16,0,0,0,2.008.935c.564-.126,1.129-1,1.332-1.531a3.852,3.852,0,0,1-.046,1.331,6.4,6.4,0,0,0,.019,1.125,3.593,3.593,0,0,1-.179,1.134c-.08.245-.478.728-.483.945q-.054,2.13-.107,4.26a3.393,3.393,0,0,0,1.495-2.8,2.677,2.677,0,0,0,2.821-.056,3.655,3.655,0,0,0,1.563-2.566,4.793,4.793,0,0,0-.625-3.027,2.533,2.533,0,0,0,2.562-.487,3.891,3.891,0,0,0,1.244-2.509,4.474,4.474,0,0,0-.775-3.35" transform="translate(-270.587 -67.498)" fill="#351b6b"/>
            <path id="Trazado_1277936" data-name="Trazado 1277936" d="M651.792,202.826a1.394,1.394,0,0,1,.906.3,2.916,2.916,0,0,1,1.081,2.121,4.917,4.917,0,0,1-.49,2.41,4.16,4.16,0,0,1-1.121,1.543,2.121,2.121,0,0,1-1.733.482.853.853,0,0,1-.578-.361,1.211,1.211,0,0,1-.127-.539,9.014,9.014,0,0,1,.9-5.117,1.627,1.627,0,0,1,1.164-.841" transform="translate(-283.4 -80.525)" fill="#ad7840"/>
            <path id="Trazado_1277937" data-name="Trazado 1277937" d="M651.594,207.822a1.51,1.51,0,0,0,.56,1.316.445.445,0,0,0,.635-.093.5.5,0,0,0-.018-.412c-.057-.128-.145-.239-.214-.361a1.448,1.448,0,0,1-.128-1.031,1.432,1.432,0,0,1,.218-.5c.112-.16.294-.24.4-.389.19-.257-.133-.413-.362-.4-.323.014-.6.368-.76.637a2.48,2.48,0,0,0-.336,1.231" transform="translate(-284.228 -81.768)" fill="#573c20"/>
            <path id="Trazado_1277938" data-name="Trazado 1277938" d="M637.109,204.625a.936.936,0,0,0,.124.393.426.426,0,0,0,.323.21.509.509,0,0,0,.4-.23,1.917,1.917,0,0,0,.313-1.077,1.4,1.4,0,0,0-.035-.473.51.51,0,0,0-.285-.343c-.639-.234-.885,1.119-.837,1.52" transform="translate(-277.908 -80.627)" fill="#351b6b"/>
            <path id="Trazado_1277939" data-name="Trazado 1277939" d="M636.862,200.261a1.387,1.387,0,0,1,1.39-.127,1.565,1.565,0,0,1,.841,1.19" transform="translate(-277.802 -79.406)" fill="none" stroke="#351b6b" stroke-linecap="round" stroke-linejoin="round" stroke-width="0.5"/>
            <path id="Trazado_1277940" data-name="Trazado 1277940" d="M628.365,203.088a.928.928,0,0,0,.124.393.426.426,0,0,0,.323.21.509.509,0,0,0,.4-.23,1.911,1.911,0,0,0,.313-1.077,1.394,1.394,0,0,0-.035-.473.511.511,0,0,0-.286-.343c-.638-.234-.885,1.119-.837,1.519" transform="translate(-274.093 -80.016)" fill="#351b6b"/>
            <path id="Trazado_1277941" data-name="Trazado 1277941" d="M630.526,199.2a1.494,1.494,0,0,0-1.031-.634,1.445,1.445,0,0,0-1.137.373" transform="translate(-274.093 -78.832)" fill="none" stroke="#351b6b" stroke-linecap="round" stroke-linejoin="round" stroke-width="0.5"/>
            <path id="Trazado_1277942" data-name="Trazado 1277942" d="M630.634,213.225a3.431,3.431,0,0,0,2.294-.019,3.7,3.7,0,0,0,1.826-1.486.8.8,0,0,0,.164-.613,3.909,3.909,0,0,1-3.743-.23,5.272,5.272,0,0,1-.541,2.349" transform="translate(-275.086 -83.723)" fill="#fff"/>
            <path id="Trazado_1277943" data-name="Trazado 1277943" d="M630.378,204.737a5.946,5.946,0,0,0-.8.683,1.2,1.2,0,0,0-.313,1,.941.941,0,0,0,.46.6,1.3,1.3,0,0,0,1.551-.352,2.916,2.916,0,0,0,.645-1.647,11.609,11.609,0,0,0,.05-1.372,1.261,1.261,0,0,0-.05-.422c-.063-.176-.273-.364-.454-.236-.134.1-.116.347-.163.5a2.715,2.715,0,0,1-.922,1.243" transform="translate(-274.478 -80.577)" fill="#ad5418"/>
            <path id="Trazado_1277944" data-name="Trazado 1277944" d="M678.49,245.67a6.434,6.434,0,0,1,2.172,2.829,5.814,5.814,0,0,1-.843,4.276c-3.044,5.59-8.73,8.855-12.8,13.642.237-.279-2.261-3.21-2.566-3.447-.224-.172,3.082-6.1,3.4-6.659,1.1-1.972,2.605-3.844,3.545-5.877l-5.823-3.123-2.911-1.562a5.14,5.14,0,0,1-2.062-1.478,5.4,5.4,0,0,1-.7-1.927c-.748-3.342-1.595-6.869.274-9.976A1.122,1.122,0,0,1,662.1,232c1.119.762,2.186,1.607,3.252,2.452,2.222,1.761,4.431,3.509,6.556,5.391l6.579,5.828" transform="translate(-287.477 -91.952)" fill="#ad7840"/>
            <path id="Trazado_1277945" data-name="Trazado 1277945" d="M682.926,262.013a1.65,1.65,0,0,1,1.168.56.522.522,0,0,1,.119.249.251.251,0,0,1-.1.247c-.107.066-.24,0-.349-.065a4.614,4.614,0,0,0-2.8-.474,2.969,2.969,0,0,1,1.96-.517" transform="translate(-297.041 -104.02)" fill="#573c20"/>
            <path id="Trazado_1277946" data-name="Trazado 1277946" d="M692.77,261.07a1.714,1.714,0,0,0,1.032,1.155,2.143,2.143,0,0,1-.583-1.358,4.444,4.444,0,0,1,.213-1.488,1.367,1.367,0,0,0-.612.579,1.853,1.853,0,0,0-.049,1.112" transform="translate(-302.163 -102.979)" fill="#573c20"/>
            <path id="Trazado_1277947" data-name="Trazado 1277947" d="M671.833,239.218a1.1,1.1,0,0,1,.3.364c.153.361-.081.764-.3,1.085a22.942,22.942,0,0,0-3.477,8.622,23.712,23.712,0,0,1-6.633-2.807,7.912,7.912,0,0,1-1.726-1.34c-1.393-1.519-1.73-3.795-1.877-5.918a16.819,16.819,0,0,1,.206-4.848,7.516,7.516,0,0,1,1.34-2.956c.22-.283.75-1.021,1.125-1.04.414-.022,1.2.811,1.541,1.063q3.147,2.343,6.163,4.879,1.689,1.419,3.334,2.895" transform="translate(-287.043 -91.467)" fill="#cfe8ff"/>
            <path id="Trazado_1277948" data-name="Trazado 1277948" d="M665.731,290.851a3.144,3.144,0,0,0,.183,1.569,3.017,3.017,0,0,0,.952,1,3.467,3.467,0,0,0,5.274.08c.28-.2.6-.511.5-.858-.09-.321-.481-.415-.792-.367a2.1,2.1,0,0,1-.929.083,1.144,1.144,0,0,0,.06-.78c-.1-.246-.45-.373-.6-.162a.762.762,0,0,0-.052-.788.648.648,0,0,0-.7-.238,15.138,15.138,0,0,0,.348-3.356,6.685,6.685,0,0,0-.854-3.217c-.249-.417-.693-1.02-1.219-.987-.471.03-.713.582-.864.989a22.361,22.361,0,0,0-1.019,4.411q-.2,1.3-.28,2.617" transform="translate(-290.387 -112.291)" fill="#ad7840"/>
            <path id="Trazado_1277949" data-name="Trazado 1277949" d="M671.725,297.4a1.617,1.617,0,0,0,1.261.262c.242-.09.469-.3.72-.246a1.972,1.972,0,0,0-1.174-.086.641.641,0,0,1-.281.031.2.2,0,0,1-.167-.21c.018-.124.159-.167.271-.2a1.2,1.2,0,0,0,.66-.537,1.147,1.147,0,0,0-.857.288,1.761,1.761,0,0,0,.072-1.366,3.824,3.824,0,0,1-.505,2.067" transform="translate(-293.01 -117.253)" fill="#573c20"/>
          </g>
        </g>
      </g>
    </g>
  </g>
</svg>
