<svg id="Grupo_1212238" data-name="Grupo 1212238" xmlns="http://www.w3.org/2000/svg" xmlns:xlink="http://www.w3.org/1999/xlink" width="128" height="128" viewBox="0 0 128 128">
  <defs>
    <clipPath id="clip-path">
      <rect id="Rectángulo_454829" data-name="Rectángulo 454829" width="128" height="128" fill="#1e535a"/>
    </clipPath>
    <clipPath id="clip-path-2">
      <rect id="Rectángulo_462288" data-name="Rectángulo 462288" width="50.759" height="56.504" fill="#1e535a"/>
    </clipPath>
  </defs>
  <g id="Grupo_1177591" data-name="Grupo 1177591">
    <g id="Grupo_1177589" data-name="Grupo 1177589" transform="translate(0 0)">
      <g id="Grupo_1177587" data-name="Grupo 1177587" clip-path="url(#clip-path)">
        <path id="Trazado_997422" data-name="Trazado 997422" d="M122.774,56.654a58.848,58.848,0,0,0-13.293-30.623,6.768,6.768,0,0,0-9.523-9.118A58.761,58.761,0,0,0,69.535,5.027a6.769,6.769,0,0,0-13.148.267A58.842,58.842,0,0,0,27.2,17.772a6.771,6.771,0,0,0-9.4,9.462A58.794,58.794,0,0,0,5.483,56.6a6.774,6.774,0,0,0-.162,13.266A58.776,58.776,0,0,0,17.252,99.82a6.771,6.771,0,0,0,9.2,9.56,58.838,58.838,0,0,0,29.883,13.07,6.771,6.771,0,0,0,13.266.267,58.788,58.788,0,0,0,30.646-12.107,6.769,6.769,0,0,0,9.476-9.165A58.863,58.863,0,0,0,122.933,69.8a6.771,6.771,0,0,0-.159-13.144m-19.12-27.288a6.733,6.733,0,0,0,3.75-1.135,55.884,55.884,0,0,1,12.333,28.407,6.781,6.781,0,0,0-4.327,3.135L98.1,53.283c.013-.189.027-.382.027-.578a6.772,6.772,0,0,0-2.868-5.533l7.57-17.86a7.335,7.335,0,0,0,.821.054M100,28.288,92.472,46.03a6.7,6.7,0,0,0-7.459,4.307L53.705,43.125a6.588,6.588,0,0,0-.142-1.348L97.992,26.305a6.793,6.793,0,0,0,2,1.983M63,13.553a6.777,6.777,0,0,0,6.651-5.5A55.792,55.792,0,0,1,97.857,19.09a6.739,6.739,0,0,0-.98,3.5,7.114,7.114,0,0,0,.064.9L52.29,39.031A6.8,6.8,0,0,0,51.064,37.8L62.775,13.543c.074,0,.145.01.22.01M56.4,8.324a6.778,6.778,0,0,0,3.409,4.435L48.331,36.538a6.8,6.8,0,0,0-1.4-.145,6.727,6.727,0,0,0-3.861,1.213L29.461,26.238A6.736,6.736,0,0,0,29.231,20,55.836,55.836,0,0,1,56.4,8.324M13.387,61.776l28.15-14.519a6.751,6.751,0,0,0,5.341,2.686l9.648,30.839a6.887,6.887,0,0,0-1.493,1.652L13.3,65.046a6.731,6.731,0,0,0,.25-1.8,6.81,6.81,0,0,0-.166-1.473m6.648-32.521a6.771,6.771,0,0,0,7.564-.645L41.037,39.831a6.758,6.758,0,0,0-.747,4.682l-28.2,14.539A6.774,6.774,0,0,0,8.506,56.7,55.812,55.812,0,0,1,20.036,29.254m2.8,67.623a6.756,6.756,0,0,0-3.365.9A55.762,55.762,0,0,1,8.351,69.832a6.783,6.783,0,0,0,3.517-2.121L54.013,85.27a7.266,7.266,0,0,0-.054.814,6.775,6.775,0,0,0,.405,2.29L28.876,100.587a6.775,6.775,0,0,0-6.037-3.709m33.626,22.556a55.892,55.892,0,0,1-27.883-12.2,6.705,6.705,0,0,0,1.034-3.581l0-.078L56,90.929a6.776,6.776,0,0,0,2.392,1.51l1.581,22.725a6.776,6.776,0,0,0-3.51,4.27m2.807-39.96L49.831,49.287a6.786,6.786,0,0,0,3.219-3.219l31.562,7.266a6.736,6.736,0,0,0,1.078,3.081L64.042,80.173a6.692,6.692,0,0,0-4.77-.7M69.592,119.7a6.774,6.774,0,0,0-6.6-5.25l-.051,0-1.5-21.623a6.764,6.764,0,0,0,4.142-2.01l31.555,13.918c0,.061-.01.115-.01.176a6.743,6.743,0,0,0,1,3.534A55.789,55.789,0,0,1,69.592,119.7M97.9,101.779,67.164,88.22a6.736,6.736,0,0,0-.888-6.027L87.858,58.5a6.736,6.736,0,0,0,3.5.98,7.46,7.46,0,0,0,.831-.054l8.067,39.781a6.761,6.761,0,0,0-2.355,2.571m9.722-2.534a6.735,6.735,0,0,0-4.5-1.064l-8.07-39.8a6.8,6.8,0,0,0,2.135-2.23l17.3,6.486a6.009,6.009,0,0,0-.03.608,6.774,6.774,0,0,0,5.445,6.641A55.835,55.835,0,0,1,107.62,99.246" transform="translate(0 0.001)" fill="#1e535a"/>
      </g>
    </g>
  </g>
  <g id="Elipse_13614" data-name="Elipse 13614" transform="translate(24 24.359)" fill="#fff" stroke="#1e535a" stroke-width="3">
    <ellipse cx="39.732" cy="39.733" rx="39.732" ry="39.733" stroke="none"/>
    <ellipse cx="39.732" cy="39.733" rx="38.232" ry="38.233" fill="none"/>
  </g>
  <g id="Grupo_1212708" data-name="Grupo 1212708" transform="translate(38 35.359)">
    <g id="Grupo_1212707" data-name="Grupo 1212707" clip-path="url(#clip-path-2)">
      <path id="Trazado_1277648" data-name="Trazado 1277648" d="M137.857,195.282l-13.351,3.583a16.527,16.527,0,0,0-2.936-2.959,49.848,49.848,0,0,1-4.843-4.388c-1.423-1.516-1.4-3.993-.1-4.523a2,2,0,0,1,1.862.263l4.41,3.281-3.31-12.448a1.794,1.794,0,0,1,1.249-1.933,1.775,1.775,0,0,1,2.17.984l2.432,8.907c.455-.981,1.03-1.6,1.938-1.581a2.073,2.073,0,0,1,1.818,1.469,1.788,1.788,0,0,1,1.818-1.718,1.949,1.949,0,0,1,1.833,1.732,1.916,1.916,0,0,1,1.648-1.77,1.791,1.791,0,0,1,1.936,1.343l.762,2.854a21.06,21.06,0,0,1,.668,6.908" transform="translate(-96.554 -147.002)" fill="#1e535a"/>
      <rect id="Rectángulo_462287" data-name="Rectángulo 462287" width="12.622" height="3.126" transform="matrix(0.966, -0.258, 0.258, 0.966, 28.707, 53.483)" fill="#1e535a"/>
      <path id="Trazado_1277649" data-name="Trazado 1277649" d="M112.7,5.33a11.976,11.976,0,0,0-17.171-.019c-.253.256-1.031-.018-1.158-.3A1.047,1.047,0,0,1,94.692,3.8a13.518,13.518,0,0,1,18.883.086,1.138,1.138,0,0,1,.31,1c-.047.3-.853.786-1.188.447" transform="translate(-78.714 0)" fill="#1e535a"/>
      <path id="Trazado_1277650" data-name="Trazado 1277650" d="M22.037,114.963l-.562,1.69-2.137-.095-3.1-4.177a2.56,2.56,0,1,1,1.343-1.014l2.653,3.575Z" transform="translate(-10.777 -89.65)" fill="#1e535a"/>
      <path id="Trazado_1277651" data-name="Trazado 1277651" d="M239.683,116.665l-.571-1.707,1.8.005,2.657-3.584a2.556,2.556,0,1,1,1.358,1.008l-3.113,4.181Z" transform="translate(-199.621 -89.663)" fill="#1e535a"/>
      <path id="Trazado_1277652" data-name="Trazado 1277652" d="M20.269,215.9l-2.67,3.584a2.554,2.554,0,0,1-3.58,3.524,2.529,2.529,0,0,1-.844-3.186,2.592,2.592,0,0,1,3.083-1.355l3.094-4.156,2.137-.082.565,1.7Z" transform="translate(-10.788 -178.847)" fill="#1e535a"/>
      <path id="Trazado_1277653" data-name="Trazado 1277653" d="M247.1,218.339a2.684,2.684,0,0,1,3.112,1.386,2.529,2.529,0,0,1-.847,3.184,2.549,2.549,0,0,1-3.571-3.524l-2.677-3.539a11.036,11.036,0,0,0-1.349-1.312c.018-.071.206-.426.277-.422l1.986.1Z" transform="translate(-201.842 -178.749)" fill="#1e535a"/>
      <path id="Trazado_1277654" data-name="Trazado 1277654" d="M10.111,175.034l.037,1.694-5.162.012a2.624,2.624,0,0,1-2.85,1.656A2.6,2.6,0,0,1,0,175.889a2.565,2.565,0,0,1,4.984-.859Z" transform="translate(0 -144.69)" fill="#1e535a"/>
      <path id="Trazado_1277655" data-name="Trazado 1277655" d="M245.933,176.765l-.039-1.688,5.2-.039a2.505,2.505,0,0,1,2.962-1.623,2.556,2.556,0,0,1,1.987,2.5,2.567,2.567,0,0,1-4.981.848Z" transform="translate(-205.283 -144.719)" fill="#1e535a"/>
      <path id="Trazado_1277656" data-name="Trazado 1277656" d="M203.791,155.707l-5.622.027a32.562,32.562,0,0,0-.686-5.535l4.767-.014a13.209,13.209,0,0,1,1.541,5.523" transform="translate(-164.867 -125.38)" fill="#1e535a"/>
      <path id="Trazado_1277657" data-name="Trazado 1277657" d="M77.352,155.75l-5.629.008a12.626,12.626,0,0,1,1.544-5.536l4.746,0a31.154,31.154,0,0,0-.661,5.526" transform="translate(-59.877 -125.412)" fill="#1e535a"/>
      <path id="Trazado_1277658" data-name="Trazado 1277658" d="M77.977,199.505l-4.733-.006a12.8,12.8,0,0,1-1.557-5.506l5.616-.007a35.9,35.9,0,0,0,.674,5.518" transform="translate(-59.847 -161.949)" fill="#1e535a"/>
      <path id="Trazado_1277659" data-name="Trazado 1277659" d="M122.409,24.835a8.584,8.584,0,0,0-12.217-.02.935.935,0,0,1-1.117-.072.987.987,0,0,1,.123-1.295,10.19,10.19,0,0,1,14.17,0,1.04,1.04,0,0,1,.206,1.2.872.872,0,0,1-1.165.185" transform="translate(-90.903 -17.184)" fill="#1e535a"/>
      <path id="Trazado_1277660" data-name="Trazado 1277660" d="M164.175,155.707l-3.25.032a3.732,3.732,0,0,0-2.171-2.811l.008-2.732,4.68.009a38.2,38.2,0,0,1,.733,5.5" transform="translate(-132.535 -125.39)" fill="#1e535a"/>
      <path id="Trazado_1277661" data-name="Trazado 1277661" d="M121.238,152.667a3.532,3.532,0,0,0-3.249,3.049l-2.152.011a35.448,35.448,0,0,1,.722-5.521l4.68-.005Z" transform="translate(-96.706 -125.394)" fill="#1e535a"/>
      <path id="Trazado_1277662" data-name="Trazado 1277662" d="M205.3,197.3a8.113,8.113,0,0,0-2.127.533,3.617,3.617,0,0,0-3.171-.14l.261-3.672,5.635,0a16.225,16.225,0,0,1-.6,3.281" transform="translate(-166.968 -161.972)" fill="#1e535a"/>
      <path id="Trazado_1277663" data-name="Trazado 1277663" d="M143.051,64.232a2.617,2.617,0,1,1-2.617-2.617,2.617,2.617,0,0,1,2.617,2.617m-1.678,0a.939.939,0,1,0-.939.939.939.939,0,0,0,.939-.939" transform="translate(-115.056 -51.439)" fill="#1e535a"/>
      <path id="Trazado_1277664" data-name="Trazado 1277664" d="M131.967,44.232a5.108,5.108,0,0,0-7.181,0,.882.882,0,0,1-1.266-.057.974.974,0,0,1,.164-1.219,6.777,6.777,0,0,1,9.385,0,.973.973,0,0,1,.165,1.219.88.88,0,0,1-1.267.057" transform="translate(-102.997 -34.286)" fill="#1e535a"/>
      <path id="Trazado_1277665" data-name="Trazado 1277665" d="M119.524,199.454l-3.037.032a41.757,41.757,0,0,1-.728-5.508l2.288-.018Z" transform="translate(-96.641 -161.927)" fill="#1e535a"/>
      <path id="Trazado_1277666" data-name="Trazado 1277666" d="M123.365,112.7a16.839,16.839,0,0,1,1.723-3.483,5.905,5.905,0,0,1,2.426-1.95l.022,5.434Z" transform="translate(-102.99 -89.554)" fill="#1e535a"/>
      <path id="Trazado_1277667" data-name="Trazado 1277667" d="M162.945,112.67l-4.167.036.009-5.461a5.959,5.959,0,0,1,2.434,1.955,18.922,18.922,0,0,1,1.724,3.47" transform="translate(-132.555 -89.533)" fill="#1e535a"/>
      <path id="Trazado_1277668" data-name="Trazado 1277668" d="M91.777,115.88l-4.155.013A13.1,13.1,0,0,1,94.07,111.1a19.45,19.45,0,0,0-2.293,4.781" transform="translate(-73.151 -92.75)" fill="#1e535a"/>
      <path id="Trazado_1277669" data-name="Trazado 1277669" d="M187.124,115.893l-4.1.045a22.62,22.62,0,0,0-2.349-4.814,13.185,13.185,0,0,1,6.446,4.77" transform="translate(-150.838 -92.77)" fill="#1e535a"/>
      <path id="Trazado_1277670" data-name="Trazado 1277670" d="M177.208,197.6l-1.458.12-.986-3.71,2.776-.019Z" transform="translate(-145.901 -161.949)" fill="#1e535a"/>
      <path id="Trazado_1277671" data-name="Trazado 1277671" d="M91.366,237.466a5.85,5.85,0,0,0-.933,2.806A11.879,11.879,0,0,1,87.7,237.5Z" transform="translate(-73.217 -198.247)" fill="#1e535a"/>
    </g>
  </g>
</svg>
