<svg xmlns="http://www.w3.org/2000/svg" xmlns:xlink="http://www.w3.org/1999/xlink" width="85" height="85" viewBox="0 0 85 85">
  <defs>
    <clipPath id="clip-path">
      <rect id="Rectángulo_462335" data-name="Rectángulo 462335" width="73.089" height="70" fill="#344866"/>
    </clipPath>
  </defs>
  <g id="Grupo_1212335" data-name="Grupo 1212335" transform="translate(-179.445 -5521.044)">
    <rect id="Rectángulo_402006" data-name="Rectángulo 402006" width="85" height="85" rx="5" transform="translate(179.445 5521.044)" fill="#69d7e5"/>
    <g id="Grupo_1212730" data-name="Grupo 1212730" transform="translate(185.446 5529.044)">
      <g id="Grupo_1212729" data-name="Grupo 1212729" clip-path="url(#clip-path)">
        <path id="Trazado_1277950" data-name="Trazado 1277950" d="M53.413,15.833A15.647,15.647,0,0,0,39.513,3.1C32.46,2.548,26.173,6.81,23.645,13.7a2.838,2.838,0,0,1-.389.744c-.159.174-.759.08-1.009,0a14.944,14.944,0,0,0-18.9,11.16C1.307,34.11,6.574,42.815,15,44.573a1.554,1.554,0,0,1,1.2,1.681c-.084.613-.793,1.458-1.554,1.315C4.788,45.711-1.58,35.809.342,25.706c1.913-10.057,11.379-16.683,21.2-14.544A18.245,18.245,0,0,1,41.46.289,18.837,18.837,0,0,1,56.582,17.2c8.353-1.062,15.713,5.369,16.447,13.887a15.25,15.25,0,0,1-14.167,16.8,1.529,1.529,0,0,1-1.643-1.368,1.557,1.557,0,0,1,1.264-1.658,12.255,12.255,0,0,0,11.646-13.4A12,12,0,0,0,56.577,20.242L54,20.459c-.2-1.7-.293-3.086-.591-4.626" transform="translate(0 0)" fill="#344866"/>
        <path id="Trazado_1277951" data-name="Trazado 1277951" d="M108.714,149.373a2.526,2.526,0,0,1-1.812.909l-19.128-.044a5.272,5.272,0,0,1-5.13-5.051l-.02-33.794a5.284,5.284,0,0,1,5.127-5.282l24.064,0a5.332,5.332,0,0,1,5.224,5.281l.028,28.735Zm-2.938-9.865a1.555,1.555,0,0,1,1.6-1.453l6.808-.009V111.87c0-1.2-.811-2.69-2.132-2.691l-24.32-.013a2.382,2.382,0,0,0-2.217,2.483V144.7a2.416,2.416,0,0,0,2.441,2.486l17.819,0Zm6.362,1.615-3.384-.031.052,3.746Z" transform="translate(-63.278 -80.282)" fill="#344866"/>
        <path id="Trazado_1277952" data-name="Trazado 1277952" d="M154.514,181.652l-8.048.006a1.661,1.661,0,0,1-1.453-1.063c-.188-.706.212-1.794,1-1.8l8.675-.017c.6,0,1.162.841,1.169,1.334a1.518,1.518,0,0,1-1.347,1.536" transform="translate(-111.023 -135.269)" fill="#344866"/>
        <path id="Trazado_1277953" data-name="Trazado 1277953" d="M154.489,211.85l-8.339.008c-.6,0-1.209-.8-1.263-1.317-.056-.53.462-1.508,1.063-1.509l8.648-.015c.6,0,1.158.769,1.191,1.293a1.47,1.47,0,0,1-1.3,1.54" transform="translate(-110.958 -158.145)" fill="#344866"/>
        <path id="Trazado_1277954" data-name="Trazado 1277954" d="M154.744,152.165l-8.822.009c-.552,0-1.035-.882-1.043-1.343-.008-.487.461-1.414,1.015-1.415l8.758-.013c.541,0,1.054.725,1.136,1.208.08.468-.371,1.553-1.044,1.554" transform="translate(-110.956 -113.04)" fill="#344866"/>
        <path id="Trazado_1277955" data-name="Trazado 1277955" d="M120.756,150.722a1.352,1.352,0,1,1-1.351-1.4,1.379,1.379,0,0,1,1.351,1.4" transform="translate(-90.411 -112.975)" fill="#344866"/>
        <path id="Trazado_1277956" data-name="Trazado 1277956" d="M120.522,211.282a1.226,1.226,0,1,1-1.226-1.274,1.25,1.25,0,0,1,1.226,1.274" transform="translate(-90.425 -158.895)" fill="#344866"/>
        <path id="Trazado_1277957" data-name="Trazado 1277957" d="M120.51,180.027a1.224,1.224,0,1,1-1.223-1.271,1.248,1.248,0,0,1,1.223,1.271" transform="translate(-90.419 -135.249)" fill="#344866"/>
      </g>
    </g>
  </g>
</svg>
