<svg xmlns="http://www.w3.org/2000/svg" xmlns:xlink="http://www.w3.org/1999/xlink" width="85" height="85" viewBox="0 0 85 85">
  <defs>
    <clipPath id="clip-path">
      <rect id="Rectángulo_462309" data-name="Rectángulo 462309" width="69" height="72.93" fill="#344866"/>
    </clipPath>
  </defs>
  <g id="Grupo_1208897" data-name="Grupo 1208897" transform="translate(-179.734 -5521.035)">
    <rect id="Rectángulo_402006" data-name="Rectángulo 402006" width="85" height="85" rx="5" transform="translate(179.734 5521.035)" fill="#69d7e5"/>
    <g id="Grupo_1212721" data-name="Grupo 1212721" transform="translate(187.734 5527.035)">
      <g id="Grupo_1212720" data-name="Grupo 1212720" clip-path="url(#clip-path)">
        <path id="Trazado_1277702" data-name="Trazado 1277702" d="M.006,23.993A1.081,1.081,0,0,1,1.07,22.945a1.156,1.156,0,0,1,1.082,1.123l0,23.347a1.028,1.028,0,0,0,.91,1.054l15.227,0,.02-19.448A3.093,3.093,0,0,1,21.065,26.2l23.112-.024a1.207,1.207,0,0,1,1.085.9c.088.452-.329,1.246-.929,1.246l-22.887.006a1.115,1.115,0,0,0-1.032.91l.011,3.575H59.457l.035-3.392a1.107,1.107,0,0,0-1.045-1.094l-9.376,0a1.361,1.361,0,0,1-.954-.885,1.349,1.349,0,0,1,.74-1.248l6.412-.026V11H2.165l-.018,7.977a1.16,1.16,0,0,1-1.075,1.1A1.122,1.122,0,0,1,0,18.966L.031,2.794A3.063,3.063,0,0,1,3.286,0L54.424.007a2.931,2.931,0,0,1,2.943,2.71l.035,23.51c2.18-.406,4.191.906,4.191,3.034L61.6,61.192A3.147,3.147,0,0,1,58.4,64.4H21.462a3.076,3.076,0,0,1-3.149-2.964l-.042-3.821a1.076,1.076,0,1,1,2.147,0l-.01,3.618A1.142,1.142,0,0,0,21.474,62.3l36.916,0a1.154,1.154,0,0,0,1.085-1.12V34.947H20.411l0,17.488a1.15,1.15,0,0,1-.984,1.17,1.1,1.1,0,0,1-1.15-1.132V50.61L3.051,50.6a3.07,3.07,0,0,1-3.04-3.022Zm55.265-21.9L2.152,2.1V8.866l53.119,0Z" transform="translate(0 0)" fill="#344866"/>
        <path id="Trazado_1277703" data-name="Trazado 1277703" d="M120.746,201.407l-7.809-.008a1.8,1.8,0,0,1-1.785-1.841l-.006-7.755a1.791,1.791,0,0,1,1.581-1.882l8.133.006a1.7,1.7,0,0,1,1.692,1.667l.012,7.965a1.824,1.824,0,0,1-1.818,1.846m-.292-9.363h-7.17v7.188h7.17Z" transform="translate(-87.923 -150.24)" fill="#344866"/>
        <path id="Trazado_1277704" data-name="Trazado 1277704" d="M196.5,240.618l-17.164,0a1.378,1.378,0,0,1-1.172-.932,1.148,1.148,0,0,1,1-1.243l17.576.005c.457,0,.871.676.869,1.039a1.2,1.2,0,0,1-1.105,1.129" transform="translate(-140.931 -188.624)" fill="#344866"/>
        <path id="Trazado_1277705" data-name="Trazado 1277705" d="M299.067,88.444l-3.809,3.744c-.268.264-1.2.061-1.408-.224a1.435,1.435,0,0,1,0-1.359l3.7-3.755-2.472-.054a1.5,1.5,0,0,1-.995-.766c-.138-.341.214-1.3.6-1.306l5.507-.059c.462-.005,1.117.44,1.117.941V90.96a1.217,1.217,0,0,1-1.056.953,1.265,1.265,0,0,1-1.057-.941Z" transform="translate(-232.316 -66.976)" fill="#344866"/>
        <path id="Trazado_1277706" data-name="Trazado 1277706" d="M196.407,192.059l-17.355-.007c-.467,0-.909-.61-.934-.961-.032-.465.368-1.155.94-1.155l17.547,0a1.173,1.173,0,0,1,.966,1.12,1.159,1.159,0,0,1-1.165,1" transform="translate(-140.902 -150.25)" fill="#344866"/>
        <path id="Trazado_1277707" data-name="Trazado 1277707" d="M301.327,318.647a1.141,1.141,0,0,1-1.146,1.165l-5.068-.013a1.229,1.229,0,0,1-1.046-.954c-.053-.47.341-1.137.807-1.143l2.83-.038-3.689-3.68a1.311,1.311,0,0,1-.192-1.419c.183-.321,1.071-.643,1.342-.378l3.963,3.88.065-2.555a1.2,1.2,0,0,1,1.054-1,1.137,1.137,0,0,1,1.083,1.212Z" transform="translate(-232.331 -246.882)" fill="#344866"/>
        <path id="Trazado_1277708" data-name="Trazado 1277708" d="M196.646,216.295l-17.351.008a1.121,1.121,0,0,1-1.132-1,1.08,1.08,0,0,1,1.153-1.114l17.294.005a1.175,1.175,0,0,1,1,.926,1.153,1.153,0,0,1-.961,1.176" transform="translate(-140.935 -169.436)" fill="#344866"/>
        <path id="Trazado_1277709" data-name="Trazado 1277709" d="M196.509,264.728l-17.205.006a1.172,1.172,0,0,1-1.145-.938,1.128,1.128,0,0,1,1.132-1.234l17.348.008c.444,0,.944.692.964,1.038a1.164,1.164,0,0,1-1.1,1.12" transform="translate(-140.931 -207.702)" fill="#344866"/>
        <path id="Trazado_1277710" data-name="Trazado 1277710" d="M53.311,92.3,49.4,88.463l-.046,2.4a1.161,1.161,0,0,1-.906,1.071,1.074,1.074,0,0,1-1.238-1.078l0-5.066a1.072,1.072,0,0,1,1.1-1.06l4.862-.008c.708,0,1.222.266,1.286.991a1.082,1.082,0,0,1-1.083,1.128l-2.391.052,3.658,3.7a1.652,1.652,0,0,1,.116,1.283c-.117.339-1.169.688-1.44.423" transform="translate(-37.342 -67.023)" fill="#344866"/>
        <path id="Trazado_1277711" data-name="Trazado 1277711" d="M48.16,319.969a1.223,1.223,0,0,1-1-1l.037-5.543c0-.372.818-.81,1.166-.747a1.41,1.41,0,0,1,.944,1.017l.061,2.564,3.822-3.795a1.173,1.173,0,0,1,1.242.036c.347.292.53,1.125.221,1.435l-3.871,3.9,2.352,0c.7,0,1.229.308,1.287.976a1.094,1.094,0,0,1-1.089,1.157Z" transform="translate(-37.305 -247.046)" fill="#344866"/>
        <path id="Trazado_1277712" data-name="Trazado 1277712" d="M206.666,22.136a1.109,1.109,0,1,1-1.109-1.109,1.109,1.109,0,0,1,1.109,1.109" transform="translate(-161.73 -16.634)" fill="#344866"/>
        <path id="Trazado_1277713" data-name="Trazado 1277713" d="M225.8,22.182a1.109,1.109,0,1,1-1.109-1.109,1.109,1.109,0,0,1,1.109,1.109" transform="translate(-176.865 -16.67)" fill="#344866"/>
        <path id="Trazado_1277714" data-name="Trazado 1277714" d="M244.916,22.185a1.11,1.11,0,1,1-1.11-1.11,1.11,1.11,0,0,1,1.11,1.11" transform="translate(-191.987 -16.672)" fill="#344866"/>
      </g>
    </g>
  </g>
</svg>
