<svg xmlns="http://www.w3.org/2000/svg" xmlns:xlink="http://www.w3.org/1999/xlink" width="85" height="85" viewBox="0 0 85 85">
  <defs>
    <clipPath id="clip-path">
      <rect id="Rectángulo_462392" data-name="Rectángulo 462392" width="73.471" height="73.333" fill="#344866"/>
    </clipPath>
  </defs>
  <g id="Grupo_1212351" data-name="Grupo 1212351" transform="translate(-179.445 -5521.238)">
    <rect id="Rectángulo_402006" data-name="Rectángulo 402006" width="85" height="85" rx="5" transform="translate(179.445 5521.238)" fill="#69d7e5"/>
    <g id="Grupo_1212770" data-name="Grupo 1212770" transform="translate(185.445 5526.238)">
      <g id="Grupo_1212769" data-name="Grupo 1212769" clip-path="url(#clip-path)">
        <path id="Trazado_1278202" data-name="Trazado 1278202" d="M69.874,73.33l-66.169,0A3.594,3.594,0,0,1,.092,70.158c.069-.966-.266-2.378.036-3.294L4.971,52.214,4.963,18.406a3.634,3.634,0,0,1,3.249-3.754l6.011-.025A9.78,9.78,0,0,1,25.019,8.7,12.234,12.234,0,0,1,48.439,8.69a9.785,9.785,0,0,1,10.8,5.936l6.02.027A3.644,3.644,0,0,1,68.5,18.407l-.008,33.807,4.837,14.65c.33,1-.039,2.44.025,3.5a3.6,3.6,0,0,1-3.483,2.965M50.419,25.613a7.23,7.23,0,0,0,6.936-8.751,7.359,7.359,0,0,0-9.564-5.491c-.748.242-1.355-.455-1.482-1.1a9.773,9.773,0,0,0-19.2.192,1.26,1.26,0,0,1-1.432.913,7.351,7.351,0,0,0-9.6,5.661,7.265,7.265,0,0,0,7.1,8.594Zm13.209-4.624-.006,26.758a1.238,1.238,0,0,1-1.267,1.148H11.112a1.253,1.253,0,0,1-1.271-1.371V20.863a1.263,1.263,0,0,1,1.209-1.335l2.51-.01-.01-2.432-4.967-.012A1.316,1.316,0,0,0,7.4,18.408l0,32.95H66.06V18.187c0-.583-.723-1.086-1.161-1.114l-4.985.013-.007,2.43,2.493.016c.743,0,1.228.564,1.227,1.458m-25.666,7.1.009,8.811A3.662,3.662,0,1,1,33.1,40.861a3.75,3.75,0,0,1,2.4-4L35.5,28.09H28.155v6.67l-3.991,4.006a3.672,3.672,0,1,1-6.335-.521A3.772,3.772,0,0,1,22.425,37l3.3-3.322L25.7,28.092c-5.387.411-9.289-1.33-11.491-6.1l-1.941.01,0,24.421,48.916,0V22.009L59.252,22a9.773,9.773,0,0,1-7.834,6c-1.237.136-2.476.094-3.667.123l-.009,5.561,3.35,3.344a3.659,3.659,0,0,1,4.12,5.914,3.676,3.676,0,0,1-5.91-4.172l-3.99-4.009V28.091ZM22.048,40.317a1.218,1.218,0,1,0-1.218,1.218,1.218,1.218,0,0,0,1.218-1.218m15.9,0a1.221,1.221,0,1,0-1.221,1.221,1.221,1.221,0,0,0,1.221-1.221m15.9,0a1.218,1.218,0,1,0-1.218,1.218,1.218,1.218,0,0,0,1.218-1.218M43.919,61.168a1.334,1.334,0,0,1,1.309.789L46.266,66l24.217-.006L66.426,53.823H7.04L2.983,65.993,27.2,66l1.04-4.049a1.365,1.365,0,0,1,1.184-.781Zm-.243,4.826-.557-2.431L30.395,63.55l-.614,2.444Zm27.261,2.437H2.529v2.445H70.937Z" transform="translate(0 0)" fill="#344866"/>
        <rect id="Rectángulo_462374" data-name="Rectángulo 462374" width="7.304" height="2.438" transform="translate(18.414 61.12)" fill="#344866"/>
        <rect id="Rectángulo_462375" data-name="Rectángulo 462375" width="7.304" height="2.438" transform="translate(47.748 61.12)" fill="#344866"/>
        <rect id="Rectángulo_462376" data-name="Rectángulo 462376" width="2.466" height="2.479" transform="translate(8.595 56.244)" fill="#344866"/>
        <rect id="Rectángulo_462377" data-name="Rectángulo 462377" width="2.474" height="2.455" transform="translate(13.52 58.722) rotate(-89.801)" fill="#344866"/>
        <rect id="Rectángulo_462378" data-name="Rectángulo 462378" width="2.445" height="2.478" transform="translate(28.15 56.248) rotate(-0.093)" fill="#344866"/>
        <rect id="Rectángulo_462379" data-name="Rectángulo 462379" width="2.466" height="2.475" transform="translate(33.034 56.248)" fill="#344866"/>
        <rect id="Rectángulo_462380" data-name="Rectángulo 462380" width="2.466" height="2.475" transform="translate(37.966 56.248)" fill="#344866"/>
        <rect id="Rectángulo_462381" data-name="Rectángulo 462381" width="2.44" height="2.479" transform="translate(42.87 56.244)" fill="#344866"/>
        <rect id="Rectángulo_462382" data-name="Rectángulo 462382" width="2.454" height="2.475" transform="translate(57.484 56.253) rotate(-0.135)" fill="#344866"/>
        <rect id="Rectángulo_462383" data-name="Rectángulo 462383" width="2.466" height="2.479" transform="translate(62.405 56.244)" fill="#344866"/>
        <rect id="Rectángulo_462384" data-name="Rectángulo 462384" width="2.44" height="2.477" transform="translate(18.414 56.246)" fill="#344866"/>
        <rect id="Rectángulo_462385" data-name="Rectángulo 462385" width="2.44" height="2.477" transform="translate(52.612 56.246)" fill="#344866"/>
        <rect id="Rectángulo_462386" data-name="Rectángulo 462386" width="2.429" height="2.477" transform="translate(23.289 56.246)" fill="#344866"/>
        <rect id="Rectángulo_462387" data-name="Rectángulo 462387" width="2.429" height="2.477" transform="translate(47.748 56.246)" fill="#344866"/>
        <rect id="Rectángulo_462388" data-name="Rectángulo 462388" width="2.466" height="2.44" transform="translate(8.595 61.119)" fill="#344866"/>
        <rect id="Rectángulo_462389" data-name="Rectángulo 462389" width="2.436" height="2.455" transform="matrix(0.004, -1, 1, 0.004, 13.52, 63.556)" fill="#344866"/>
        <rect id="Rectángulo_462390" data-name="Rectángulo 462390" width="2.449" height="2.438" transform="translate(57.49 61.12)" fill="#344866"/>
        <rect id="Rectángulo_462391" data-name="Rectángulo 462391" width="2.466" height="2.44" transform="translate(62.405 61.119)" fill="#344866"/>
      </g>
    </g>
  </g>
</svg>
