<svg xmlns="http://www.w3.org/2000/svg" xmlns:xlink="http://www.w3.org/1999/xlink" width="130" height="130" viewBox="0 0 130 130">
  <defs>
    <clipPath id="clip-path">
      <rect id="Rectángulo_454829" data-name="Rectángulo 454829" width="130" height="130" fill="#1e535a"/>
    </clipPath>
    <clipPath id="clip-path-2">
      <rect id="Rectángulo_462395" data-name="Rectángulo 462395" width="53.988" height="45.864" fill="#1e535a"/>
    </clipPath>
  </defs>
  <g id="Grupo_1212361" data-name="Grupo 1212361" transform="translate(-186 -4323.945)">
    <g id="Grupo_1177591" data-name="Grupo 1177591" transform="translate(186 4323.945)">
      <g id="Grupo_1177589" data-name="Grupo 1177589" transform="translate(0 0)">
        <g id="Grupo_1177587" data-name="Grupo 1177587" clip-path="url(#clip-path)">
          <path id="Trazado_997422" data-name="Trazado 997422" d="M124.692,57.54a59.768,59.768,0,0,0-13.5-31.1,6.874,6.874,0,0,0-9.672-9.26,59.68,59.68,0,0,0-30.9-12.073,6.875,6.875,0,0,0-13.353.271A59.762,59.762,0,0,0,27.622,18.05a6.877,6.877,0,0,0-9.545,9.61A59.712,59.712,0,0,0,5.568,57.481,6.88,6.88,0,0,0,5.4,70.954,59.7,59.7,0,0,0,17.522,101.38a6.876,6.876,0,0,0,9.342,9.709,59.757,59.757,0,0,0,30.35,13.274,6.877,6.877,0,0,0,13.473.271,59.706,59.706,0,0,0,31.125-12.3,6.875,6.875,0,0,0,9.624-9.308,59.783,59.783,0,0,0,13.418-32.141,6.877,6.877,0,0,0-.161-13.35M105.274,29.825a6.838,6.838,0,0,0,3.808-1.153,56.758,56.758,0,0,1,12.526,28.85,6.887,6.887,0,0,0-4.395,3.184L99.637,54.116c.014-.192.027-.388.027-.587a6.877,6.877,0,0,0-2.913-5.62L104.44,29.77a7.449,7.449,0,0,0,.834.055m-3.716-1.094L93.917,46.749a6.806,6.806,0,0,0-7.575,4.374L54.544,43.8A6.691,6.691,0,0,0,54.4,42.43L99.523,26.716a6.9,6.9,0,0,0,2.035,2.014M63.979,13.765a6.883,6.883,0,0,0,6.755-5.582A56.663,56.663,0,0,1,99.386,19.388a6.844,6.844,0,0,0-.995,3.554,7.226,7.226,0,0,0,.065.909L53.107,39.641A6.9,6.9,0,0,0,51.861,38.4L63.756,13.754c.075,0,.148.01.223.01M57.286,8.454a6.884,6.884,0,0,0,3.462,4.5L49.086,37.109a6.9,6.9,0,0,0-1.42-.148,6.832,6.832,0,0,0-3.922,1.232L29.921,26.648a6.842,6.842,0,0,0-.233-6.333,56.709,56.709,0,0,1,27.6-11.861M13.6,62.741l28.59-14.746a6.857,6.857,0,0,0,5.424,2.728l9.8,31.321a7,7,0,0,0-1.516,1.678L13.511,66.062a6.836,6.836,0,0,0,.254-1.825,6.916,6.916,0,0,0-.168-1.5m6.752-33.029a6.877,6.877,0,0,0,7.682-.655l13.648,11.4a6.863,6.863,0,0,0-.758,4.755L12.283,59.976a6.88,6.88,0,0,0-3.644-2.388,56.684,56.684,0,0,1,11.71-27.876M23.2,98.391a6.862,6.862,0,0,0-3.417.913,56.633,56.633,0,0,1-11.3-28.38,6.888,6.888,0,0,0,3.572-2.155L54.857,86.6a7.38,7.38,0,0,0-.055.827,6.881,6.881,0,0,0,.412,2.326l-25.886,12.4A6.881,6.881,0,0,0,23.2,98.391M57.347,121.3A56.765,56.765,0,0,1,29.029,108.91a6.81,6.81,0,0,0,1.05-3.637l0-.079,26.8-12.845a6.882,6.882,0,0,0,2.429,1.534l1.606,23.08a6.882,6.882,0,0,0-3.565,4.337M60.2,80.715,50.609,50.057a6.892,6.892,0,0,0,3.27-3.27l32.055,7.38A6.842,6.842,0,0,0,87.028,57.3L65.043,81.426a6.8,6.8,0,0,0-4.844-.71M70.68,121.567a6.88,6.88,0,0,0-6.7-5.332l-.051,0L62.4,94.278a6.87,6.87,0,0,0,4.206-2.041l32.048,14.135c0,.062-.01.117-.01.178a6.848,6.848,0,0,0,1.019,3.589A56.66,56.66,0,0,1,70.68,121.567m28.747-18.2L68.213,89.6a6.842,6.842,0,0,0-.9-6.121l21.92-24.061a6.841,6.841,0,0,0,3.551.995,7.576,7.576,0,0,0,.844-.055l8.193,40.4a6.867,6.867,0,0,0-2.391,2.611M109.3,100.8a6.84,6.84,0,0,0-4.573-1.081L96.532,59.3A6.91,6.91,0,0,0,98.7,57.032l17.566,6.587a6.1,6.1,0,0,0-.031.618,6.88,6.88,0,0,0,5.531,6.745A56.707,56.707,0,0,1,109.3,100.8" transform="translate(0 0.001)" fill="#1e535a"/>
        </g>
      </g>
    </g>
    <g id="Elipse_13614" data-name="Elipse 13614" transform="translate(210.273 4348.213)" fill="#fff" stroke="#1e535a" stroke-width="3">
      <ellipse cx="40.732" cy="40.733" rx="40.732" ry="40.733" stroke="none"/>
      <ellipse cx="40.732" cy="40.733" rx="39.232" ry="39.233" fill="none"/>
    </g>
    <g id="Grupo_1212776" data-name="Grupo 1212776" transform="translate(224.736 4366.014)">
      <g id="Grupo_1212775" data-name="Grupo 1212775" clip-path="url(#clip-path-2)">
        <path id="Trazado_1278209" data-name="Trazado 1278209" d="M101.6,146.922c-.006.3-.427.825-.68.82l-3.618-.071c-1.062-.893.322-2.8-1.369-4a2.057,2.057,0,0,0-2.555.068l-1.243,1.19a.875.875,0,0,1-1.174,0L88.7,142.672a1.037,1.037,0,0,1,.012-1.035l1.044-1.032a2.2,2.2,0,0,0,.557-2.29A2.068,2.068,0,0,0,88.6,136.9l-1.8-.029a.9.9,0,0,1-.808-.768,29.4,29.4,0,0,1,.084-3.515c.114-1.088,2.928.321,4.026-1.48a2.187,2.187,0,0,0-.349-2.741L88.7,127.328a1.039,1.039,0,0,1,0-1.03l2.332-2.337a.926.926,0,0,1,1-.008l1.328,1.28a2.044,2.044,0,0,0,2.458.139c1.832-1.166.395-3.185,1.467-4.06a37.961,37.961,0,0,1,3.947,0c.889,1.147-.374,2.935,1.376,4.055a2.089,2.089,0,0,0,2.55-.211l1.238-1.206a.92.92,0,0,1,1.005.007l2.33,2.335a1.03,1.03,0,0,1,.006,1.029l-1.049,1.042a2.168,2.168,0,0,0-.6,2.187,2.054,2.054,0,0,0,1.75,1.514l1.8.027a.966.966,0,0,1,.81.758l0,3.266a.965.965,0,0,1-.806.754l-1.658.005a2.146,2.146,0,0,0-1.455,3.547l1.142,1.155a1.041,1.041,0,0,1,.076,1.077l-2.272,2.277a.9.9,0,0,1-1.166,0l-1.157-1.133a2.05,2.05,0,0,0-2.233-.362,2.134,2.134,0,0,0-1.3,1.663Zm4.16-12.436a6.53,6.53,0,1,0-6.53,6.53,6.53,6.53,0,0,0,6.53-6.53" transform="translate(-72.237 -101.879)" fill="#1e535a"/>
        <path id="Trazado_1278210" data-name="Trazado 1278210" d="M15.452,118.767l.994.976c.159.156.059.836-.142.843l-1.53.053a2.482,2.482,0,0,0-2.489,1.607L.057,122.238c-.056-1.8-.082-3.387-.028-5.116a8.609,8.609,0,0,1,5.133-7.58,7.762,7.762,0,0,0,9.941.01,8.755,8.755,0,0,1,3.509,2.829,5.344,5.344,0,0,0-1.287.9l-1.842,1.837a2.459,2.459,0,0,0-.03,3.644" transform="translate(0 -92.031)" fill="#1e535a"/>
        <path id="Trazado_1278211" data-name="Trazado 1278211" d="M225.312,120.663l-1.806-.078c-.247-.011-.241-.738-.066-.9a12.233,12.233,0,0,0,1.32-1.393,2.4,2.4,0,0,0-.4-3.149l-2.106-2.087a4.755,4.755,0,0,0-1.041-.656,8.727,8.727,0,0,1,3.515-2.837,7.745,7.745,0,0,0,9.929-.008,8.717,8.717,0,0,1,5.181,8.22l-.063,4.474-12.237.01a2.33,2.33,0,0,0-2.225-1.591" transform="translate(-185.85 -92.037)" fill="#1e535a"/>
        <path id="Trazado_1278212" data-name="Trazado 1278212" d="M143.072,6.054A6.053,6.053,0,1,1,137.019,0a6.053,6.053,0,0,1,6.053,6.053" transform="translate(-110.03 -0.001)" fill="#1e535a"/>
        <path id="Trazado_1278213" data-name="Trazado 1278213" d="M37.635,41.141a6.052,6.052,0,1,1-6.052-6.052,6.051,6.051,0,0,1,6.052,6.052" transform="translate(-21.45 -29.48)" fill="#1e535a"/>
        <path id="Trazado_1278214" data-name="Trazado 1278214" d="M248.522,41.139a6.051,6.051,0,1,1-6.051-6.051,6.051,6.051,0,0,1,6.051,6.051" transform="translate(-198.626 -29.479)" fill="#1e535a"/>
        <path id="Trazado_1278215" data-name="Trazado 1278215" d="M122.178,82.732a2.414,2.414,0,0,0-2.458-2.366h-3.073a2.408,2.408,0,0,0-2.45,2.3l-.045,1.534c0,.134-.076.575-.2.566l-.653-.049a16.019,16.019,0,0,1-1.3-1.4,11.238,11.238,0,0,0-3.445-3.779,8.6,8.6,0,0,1,4.7-5,7.7,7.7,0,0,0,9.88,0,8.616,8.616,0,0,1,4.7,5,11.133,11.133,0,0,0-3.444,3.771,13.775,13.775,0,0,1-1.3,1.388l-.545.109c-.122.024-.308-.319-.311-.447Z" transform="translate(-91.195 -62.622)" fill="#1e535a"/>
      </g>
    </g>
  </g>
</svg>
