<svg xmlns="http://www.w3.org/2000/svg" xmlns:xlink="http://www.w3.org/1999/xlink" width="85" height="88" viewBox="0 0 85 88">
  <defs>
    <clipPath id="clip-path">
      <rect id="Rectángulo_462410" data-name="Rectángulo 462410" width="76.698" height="67.998" fill="#344866"/>
    </clipPath>
  </defs>
  <g id="Grupo_1212365" data-name="Grupo 1212365" transform="translate(0.867 34.519)">
    <g id="Grupo_1212368" data-name="Grupo 1212368" transform="translate(0 -31.14)">
      <path id="Sustracción_110" data-name="Sustracción 110" d="M0,0H85V88H0Z" transform="translate(-0.867 -3.378)" fill="#69d7e5"/>
      <g id="Grupo_1212782" data-name="Grupo 1212782" transform="translate(3.133 6.622)">
        <g id="Grupo_1212781" data-name="Grupo 1212781" clip-path="url(#clip-path)">
          <path id="Trazado_1278225" data-name="Trazado 1278225" d="M52.154,48.19a3.67,3.67,0,0,1,2.2,4.5l21.458,0a.945.945,0,0,1,.89.842,1.042,1.042,0,0,1-.9.778L54.223,54.3l-.6,5.3a1.042,1.042,0,0,1-.778.822.914.914,0,0,1-.851-1.039l.866-7.8a1.82,1.82,0,0,0-1.676-1.906l-25.233-.007a1.868,1.868,0,0,0-2.092,2.1L25.448,66.4l29.441,0a1.441,1.441,0,0,1,.532.772A1.478,1.478,0,0,1,54.9,68L22.215,68a.854.854,0,0,1-.936-.843.912.912,0,0,1,.834-.775l1.683-.013L22.484,54.3.9,54.31a1.018,1.018,0,0,1-.9-.775.916.916,0,0,1,.885-.845l21.458,0A3.63,3.63,0,0,1,24.5,48.226a13.74,13.74,0,0,1,2.276-4.168,5.1,5.1,0,0,1-.267-6.1,3.031,3.031,0,0,0,.5-1.707l-22.38-.025c-1.227,0-2.213.686-2.065,2.06L3.682,48.641a.943.943,0,0,1-.728,1.009.918.918,0,0,1-.9-.861L.941,38.687A3.637,3.637,0,0,1,3.233,34.7a9.884,9.884,0,0,1,8.687-7.283l.056-3.259a8.288,8.288,0,0,1-2.913-5.01A5.12,5.12,0,0,1,5.17,15.082c-1.249-6.1.957-12.076,7-14.316A15.155,15.155,0,0,1,19.407.172a4.339,4.339,0,0,1,4.05,3.474c5.117.711,6.011,7.574,4.651,12.165a4.622,4.622,0,0,1-3.373,3.21A7.838,7.838,0,0,1,21.6,24.274l.017,3.1A10.876,10.876,0,0,1,27,29.526c.151-2.049-.2-3.964.115-6a11.832,11.832,0,0,1,10.51-9.743A11.4,11.4,0,0,1,49.7,23.72c.227,1.935,0,3.66.121,5.673a11.343,11.343,0,0,1,5.242-2.025l-.011-3.237a7.871,7.871,0,0,1-2.845-4.952c-3.933-1.031-4.451-4.677-4.191-8.673A10.969,10.969,0,0,1,55.092.838a14.885,14.885,0,0,1,7.376-.67,4.4,4.4,0,0,1,4.105,3.443,4.756,4.756,0,0,1,3.775,2.6A11.939,11.939,0,0,1,71.01,16.3a4.369,4.369,0,0,1-3.139,2.685,8.1,8.1,0,0,1-3.129,5.267L64.727,27.4A9.922,9.922,0,0,1,73.421,34.7a3.677,3.677,0,0,1,2.316,4.15l-1.074,9.529a.9.9,0,0,1-.939.866c-.356-.01-.736-.551-.687-1l1.09-9.955c.15-1.373-.838-2.061-2.063-2.06l-22.223.021a2.566,2.566,0,0,0,.238,1.366,5.176,5.176,0,0,1-.108,6.527,13.133,13.133,0,0,1,2.183,4.051M24.731,11.434l.089,5.837A3.437,3.437,0,0,0,26.7,14.84c.977-4.04.028-9.648-4.021-9.6-1.271.014-.109-2.908-3.192-3.391a13.286,13.286,0,0,0-6.838.5C7.447,4.266,5.7,9.555,6.781,14.8a3.516,3.516,0,0,0,2.206,2.661l.06-6.01c5.2.151,6.063-4.488,7.089-4.2,1.049.29,2.765,4.281,8.6,4.188m43.149.053.052,5.764a3.326,3.326,0,0,0,1.807-2.185c1.049-4.137.179-9.826-4-9.846-1.217-.006-.049-2.84-3.195-3.373a12.523,12.523,0,0,0-7.9.992c-4.417,2.234-5.611,6.979-4.816,11.727a3.617,3.617,0,0,0,2.224,2.88l.071-5.989c5.13.2,6.326-4.708,7.078-4.229l.779.5a9.55,9.55,0,0,0,7.9,3.761M23.148,18.073l.019-5.119a10.443,10.443,0,0,1-7.037-3.506,7.5,7.5,0,0,1-5.509,3.517l0,5.3a6.329,6.329,0,0,0,6.43,5.946,6.245,6.245,0,0,0,6.1-6.141m43.072.134.022-5.25a10.564,10.564,0,0,1-7.013-3.493,7.5,7.5,0,0,1-5.477,3.487l-.007,4.682a6.272,6.272,0,0,0,5.923,6.574,6.194,6.194,0,0,0,6.553-6M37.713,21.583a.911.911,0,0,1,1.519.31,12.512,12.512,0,0,0,8.816,4.868,9.741,9.741,0,0,0-2.709-8.427,9.641,9.641,0,0,0-8.154-2.864,10.1,10.1,0,0,0-5.616,2.945A9.416,9.416,0,0,0,28.7,26.783a12.385,12.385,0,0,0,9.008-5.2M44.8,31.358l0-3.592a14.525,14.525,0,0,1-6.446-4.332,13.712,13.712,0,0,1-6.47,4.348,33.519,33.519,0,0,0,.067,4.057,6.386,6.386,0,0,0,6.587,5.713A6.465,6.465,0,0,0,44.8,31.358M19.973,27.665l.03-2.4a8.206,8.206,0,0,1-6.413-.127l.021,2.614a3.192,3.192,0,0,0,6.363-.083m43.118-.13,0-2.284a8.426,8.426,0,0,1-6.394-.069l.026,2.57a3.179,3.179,0,0,0,3.366,2.878,3.25,3.25,0,0,0,3.007-3.1M28.042,42.885a10.971,10.971,0,0,1,5.39-2.141l.014-3.2a7.854,7.854,0,0,1-3.136-5.857l-.064-3.457-1.625.18v8.342c0,1.988-2.679,3.407-.58,6.13M48.772,43c2.1-3.021-.6-4.252-.6-6.253l0-8.34-1.747-.2L46.347,31.9a7.247,7.247,0,0,1-3.076,5.552l-.04,3.3A10.482,10.482,0,0,1,48.772,43M27,31.759a8.564,8.564,0,0,0-5.623-2.721A4.9,4.9,0,0,1,12.169,29a8.4,8.4,0,0,0-7.164,5.544H27.011Zm44.67,2.783a8.343,8.343,0,0,0-7.2-5.517,4.809,4.809,0,0,1-4.753,3.218,4.979,4.979,0,0,1-4.472-3.235,8.772,8.772,0,0,0-5.468,2.661l.055,2.874ZM41.586,41.071l.018-2.508a8.94,8.94,0,0,1-6.514.015,21.412,21.412,0,0,0,.038,2.764,3.262,3.262,0,0,0,6.459-.271m1.434,1.33a5,5,0,0,1-4.866,3.272,5.147,5.147,0,0,1-4.541-3.284,8.346,8.346,0,0,0-7.223,5.65l23.957-.005A8.516,8.516,0,0,0,43.019,42.4" transform="translate(0 0)" fill="#344866"/>
          <path id="Trazado_1278226" data-name="Trazado 1278226" d="M164.107,249.606a4.088,4.088,0,1,1-4.088-4.088,4.088,4.088,0,0,1,4.088,4.088m-1.636-.008a2.45,2.45,0,1,0-2.45,2.45,2.45,2.45,0,0,0,2.45-2.45" transform="translate(-121.673 -191.579)" fill="#344866"/>
          <path id="Trazado_1278227" data-name="Trazado 1278227" d="M66.153,187.938a4.039,4.039,0,1,1-4.039-4.039,4.039,4.039,0,0,1,4.039,4.039m-1.646-.011a2.4,2.4,0,1,0-2.4,2.4,2.4,2.4,0,0,0,2.4-2.4" transform="translate(-45.316 -143.497)" fill="#344866"/>
          <path id="Trazado_1278228" data-name="Trazado 1278228" d="M262.326,187.936a4.039,4.039,0,1,1-4.039-4.039,4.039,4.039,0,0,1,4.039,4.039m-1.64-.011a2.4,2.4,0,1,0-2.4,2.4,2.4,2.4,0,0,0,2.4-2.4" transform="translate(-198.391 -143.495)" fill="#344866"/>
          <path id="Trazado_1278229" data-name="Trazado 1278229" d="M236.35,285.92a1.059,1.059,0,1,1-1.059-1.058,1.059,1.059,0,0,1,1.059,1.058" transform="translate(-182.773 -222.279)" fill="#344866"/>
        </g>
      </g>
    </g>
  </g>
</svg>
