<svg xmlns="http://www.w3.org/2000/svg" xmlns:xlink="http://www.w3.org/1999/xlink" width="187.711" height="121.729" viewBox="0 0 187.711 121.729">
  <defs>
    <clipPath id="clip-path">
      <rect id="Rectángulo_463151" data-name="Rectángulo 463151" width="113.609" height="98.956" fill="none"/>
    </clipPath>
  </defs>
  <g id="Grupo_1213445" data-name="Grupo 1213445" transform="translate(-289.711 -410)">
    <g id="Grupo_1211022" data-name="Grupo 1211022" transform="translate(0.434 -8458.039)">
      <g id="Grupo_1204518" data-name="Grupo 1204518" transform="translate(289.277 8868.039)">
        <rect id="Rectángulo_455283" data-name="Rectángulo 455283" width="187.711" height="121.729" rx="19" fill="#9ed1ff"/>
      </g>
    </g>
    <g id="Grupo_1213430" data-name="Grupo 1213430" transform="translate(320.769 421)">
      <g id="Grupo_1213429" data-name="Grupo 1213429" clip-path="url(#clip-path)">
        <path id="Trazado_1280192" data-name="Trazado 1280192" d="M97.325,24.181A26.69,26.69,0,0,0,50.887,8.867a23.613,23.613,0,0,0-9.06-1.8A23.861,23.861,0,0,0,19.035,23.877a19.968,19.968,0,0,0,.944,39.915H93.627a19.977,19.977,0,0,0,3.7-39.61" fill="#d1edfb"/>
        <path id="Trazado_1280193" data-name="Trazado 1280193" d="M50.7,20.48l-1.431-.59a15.209,15.209,0,0,0-20.3,9.568l-1.793,5.8-6.063.282a11.324,11.324,0,0,0,.536,22.635H50.7Z" transform="translate(-1.67 -3.035)" fill="#e8f4f9"/>
        <path id="Trazado_1280194" data-name="Trazado 1280194" d="M78.794,56.812h27.587a11.332,11.332,0,0,0,2.1-22.467l-6.4-1.2-.614-6.476A18.033,18.033,0,0,0,78.794,10.942Z" transform="translate(-12.754 -1.669)" fill="#94c4d6"/>
        <path id="Trazado_1280195" data-name="Trazado 1280195" d="M88.577,63.66H47.831a3.382,3.382,0,0,1-3.379-3.375v-27.2a3.382,3.382,0,0,1,3.379-3.377h1.9l1.037-1.478A5.633,5.633,0,0,1,55,26.036h8.684a5.626,5.626,0,0,1,4.227,2.2l1.041,1.478H88.577a3.38,3.38,0,0,1,3.377,3.377v27.2a3.38,3.38,0,0,1-3.377,3.375" transform="translate(-7.195 -4.214)" fill="#f99b1d"/>
        <path id="Trazado_1280196" data-name="Trazado 1280196" d="M88.559,63.736H47.743a3.385,3.385,0,0,1-3.384-3.384V33.111a3.386,3.386,0,0,1,3.384-3.386h1.906l1.039-1.479a5.644,5.644,0,0,1,4.238-2.2h8.7a5.634,5.634,0,0,1,4.234,2.2L68.9,29.725H88.559a3.387,3.387,0,0,1,3.384,3.386V60.352a3.385,3.385,0,0,1-3.384,3.384M47.743,32.612a.5.5,0,0,0-.5.5V60.352a.5.5,0,0,0,.5.5H88.559a.5.5,0,0,0,.5-.5V33.111a.5.5,0,0,0-.5-.5H67.4L65.5,29.9a2.8,2.8,0,0,0-1.876-.973h-8.7a2.79,2.79,0,0,0-1.876.973l-1.9,2.707Z" transform="translate(-7.18 -4.216)" fill="#db881a"/>
        <path id="Trazado_1280197" data-name="Trazado 1280197" d="M75.315,65.065h1.339V54.775H70.46V47.412H66.569v1.335H69.12v7.366h6.195Z" transform="translate(-10.775 -7.674)" fill="#db881a"/>
        <path id="Trazado_1280198" data-name="Trazado 1280198" d="M59.172,63.2h1.339V37.221h4.861V35.887h-6.2Z" transform="translate(-9.578 -5.809)" fill="#db881a"/>
        <path id="Trazado_1280199" data-name="Trazado 1280199" d="M88.175,50.593h7.316V49.254H89.513V45.782H80.019v-8.44H74.3V45.1h1.339V38.679h3.04v8.438h9.494Z" transform="translate(-12.027 -6.044)" fill="#db881a"/>
        <rect id="Rectángulo_463141" data-name="Rectángulo 463141" width="1.339" height="16.986" transform="translate(71.037 40.405)" fill="#db881a"/>
        <rect id="Rectángulo_463142" data-name="Rectángulo 463142" width="12.73" height="1.334" transform="translate(38.734 42.642)" fill="#db881a"/>
        <path id="Trazado_1280200" data-name="Trazado 1280200" d="M69.12,46.913h1.34v-6.7H66.569v1.339H69.12Z" transform="translate(-10.775 -6.508)" fill="#db881a"/>
        <rect id="Rectángulo_463143" data-name="Rectángulo 463143" width="9.187" height="1.339" transform="translate(67.323 31.297)" fill="#db881a"/>
        <path id="Trazado_1280201" data-name="Trazado 1280201" d="M64.974,36.425a1.336,1.336,0,1,0,1.334-1.339,1.336,1.336,0,0,0-1.334,1.339" transform="translate(-10.517 -5.679)" fill="#db881a"/>
        <path id="Trazado_1280202" data-name="Trazado 1280202" d="M64.977,40.75a1.336,1.336,0,1,0,1.334-1.339,1.336,1.336,0,0,0-1.334,1.339" transform="translate(-10.517 -6.379)" fill="#db881a"/>
        <path id="Trazado_1280203" data-name="Trazado 1280203" d="M64.977,47.949a1.336,1.336,0,1,0,1.334-1.337,1.335,1.335,0,0,0-1.334,1.337" transform="translate(-10.517 -7.545)" fill="#db881a"/>
        <path id="Trazado_1280204" data-name="Trazado 1280204" d="M73.507,46.354a1.336,1.336,0,1,0,1.336-1.339,1.335,1.335,0,0,0-1.336,1.339" transform="translate(-11.898 -7.286)" fill="#db881a"/>
        <path id="Trazado_1280205" data-name="Trazado 1280205" d="M73.507,50.507a1.336,1.336,0,1,0,1.336-1.338,1.335,1.335,0,0,0-1.336,1.338" transform="translate(-11.898 -7.959)" fill="#db881a"/>
        <path id="Trazado_1280206" data-name="Trazado 1280206" d="M89.692,37.881a1.337,1.337,0,1,0,1.336-1.336,1.335,1.335,0,0,0-1.336,1.336" transform="translate(-14.518 -5.915)" fill="#db881a"/>
        <path id="Trazado_1280207" data-name="Trazado 1280207" d="M83.956,47.949a1.336,1.336,0,1,0,1.337-1.337,1.338,1.338,0,0,0-1.337,1.337" transform="translate(-13.589 -7.545)" fill="#db881a"/>
        <path id="Trazado_1280208" data-name="Trazado 1280208" d="M58.376,51.415a1.336,1.336,0,1,0,1.336-1.339,1.336,1.336,0,0,0-1.336,1.339" transform="translate(-9.449 -8.105)" fill="#db881a"/>
        <rect id="Rectángulo_463144" data-name="Rectángulo 463144" width="1.339" height="5.491" transform="translate(62.276 42.548)" fill="#db881a"/>
        <path id="Trazado_1280209" data-name="Trazado 1280209" d="M64.977,61.931a1.336,1.336,0,1,0,1.334-1.34,1.336,1.336,0,0,0-1.334,1.34" transform="translate(-10.517 -9.807)" fill="#db881a"/>
        <rect id="Rectángulo_463145" data-name="Rectángulo 463145" width="1.338" height="5.397" transform="translate(55.127 52.124)" fill="#db881a"/>
        <path id="Trazado_1280210" data-name="Trazado 1280210" d="M54.264,60.721a1.337,1.337,0,1,0-1.336,1.338,1.338,1.338,0,0,0,1.336-1.338" transform="translate(-8.351 -9.612)" fill="#db881a"/>
        <rect id="Rectángulo_463146" data-name="Rectángulo 463146" width="1.337" height="7.896" transform="translate(43.907 43.213)" fill="#db881a"/>
        <path id="Trazado_1280211" data-name="Trazado 1280211" d="M81.722,53.55a1.336,1.336,0,1,0-1.339-1.336,1.335,1.335,0,0,0,1.339,1.336" transform="translate(-13.011 -8.235)" fill="#db881a"/>
        <rect id="Rectángulo_463147" data-name="Rectángulo 463147" width="3.085" height="1.339" transform="translate(68.71 43.309)" fill="#db881a"/>
        <path id="Trazado_1280212" data-name="Trazado 1280212" d="M92.067,59.8A1.335,1.335,0,1,0,93.4,61.13,1.335,1.335,0,0,0,92.067,59.8" transform="translate(-14.686 -9.679)" fill="#db881a"/>
        <rect id="Rectángulo_463148" data-name="Rectángulo 463148" width="5.492" height="1.34" transform="translate(71.889 50.784)" fill="#db881a"/>
        <path id="Trazado_1280213" data-name="Trazado 1280213" d="M52.926,44.986A1.336,1.336,0,1,0,51.59,43.65a1.339,1.339,0,0,0,1.336,1.336" transform="translate(-8.351 -6.849)" fill="#db881a"/>
        <rect id="Rectángulo_463149" data-name="Rectángulo 463149" width="6.089" height="1.339" transform="translate(44.575 36.131)" fill="#db881a"/>
        <path id="Trazado_1280214" data-name="Trazado 1280214" d="M71.407,61.931a1.336,1.336,0,1,0,1.334-1.34,1.336,1.336,0,0,0-1.334,1.34" transform="translate(-11.558 -9.807)" fill="#db881a"/>
        <rect id="Rectángulo_463150" data-name="Rectángulo 463150" width="1.339" height="5.397" transform="translate(60.516 52.124)" fill="#db881a"/>
        <path id="Trazado_1280215" data-name="Trazado 1280215" d="M66.062,62.665l.29.173H66.5l.29-.173a.726.726,0,0,0,.377-.619.741.741,0,1,0-1.483,0,.731.731,0,0,0,.377.619" transform="translate(-10.632 -9.923)" fill="#fff"/>
        <path id="Trazado_1280216" data-name="Trazado 1280216" d="M48.086,62.293H88.9A1.6,1.6,0,0,0,90.5,60.7V33.457a1.6,1.6,0,0,0-1.595-1.6H68.318l-1.577-2.24a3.869,3.869,0,0,0-2.773-1.44h-8.7a3.865,3.865,0,0,0-2.774,1.44l-1.576,2.24H48.086a1.6,1.6,0,0,0-1.6,1.6V60.7a1.6,1.6,0,0,0,1.6,1.595M90,60.7A1.093,1.093,0,0,1,88.9,61.791H79.3v-5.7h4.81l.174.292a.731.731,0,0,0,.619.375.739.739,0,1,0,0-1.478.731.731,0,0,0-.622.373l-.174.292H79.3V45.759l.291-.174a.686.686,0,0,0,.254-.255l.174-.293h4.247v3.476H90Zm-43-27.241a1.1,1.1,0,0,1,1.093-1.1H51.18l1.727-2.454a3.338,3.338,0,0,1,2.362-1.225h8.7a3.351,3.351,0,0,1,2.362,1.225l1.722,2.454H88.9A1.094,1.094,0,0,1,90,33.457v14.91H84.415V44.894H80.022l-.174-.293a.7.7,0,0,0-1.237,0l-.174.293H74.92V36.6h8.323l.175.293a.724.724,0,0,0,.617.374.741.741,0,1,0,0-1.483.726.726,0,0,0-.617.377l-.173.293H70.4v6.377l-.293.176a.73.73,0,0,0-.375.619.74.74,0,1,0,1.48,0,.726.726,0,0,0-.377-.619l-.29-.173V36.6h4.233v8.437h3.658l.173.293a.712.712,0,0,0,.259.255l.29.177v2.706H77.03l-.175-.291a.734.734,0,0,0-.619-.376.74.74,0,1,0,.622,1.1l.173-.29h2.126V61.791H72.807V52.258H70.543V47.9l.29-.173a.729.729,0,0,0,.377-.619.74.74,0,1,0-1.48,0,.733.733,0,0,0,.375.619l.293.175v4.354H66.613v-13.4h-2.5l-.173-.29a.723.723,0,0,0-.619-.377.741.741,0,0,0,0,1.483.728.728,0,0,0,.619-.377L64.112,39h2.354v5.89H64.112l-.171-.293a.742.742,0,1,0,0,.728l.173-.293h2.352V52.4h6.195v9.387H68.783V57.477l.29-.173a.726.726,0,0,0,.377-.619.74.74,0,1,0-1.48,0,.73.73,0,0,0,.377.62l.29.174v4.311H63.393V57.477l.29-.173a.726.726,0,0,0,.377-.619.741.741,0,1,0-1.483,0,.731.731,0,0,0,.377.619l.29.173v4.314H57.861V48.662l.29-.173a.692.692,0,0,0,.255-.254l.077-.127a.671.671,0,0,0,.045-.238.732.732,0,0,0-.078-.311l-.044-.056a.707.707,0,0,0-.255-.252l-.29-.173v-11.7h4.663l.173.29a.731.731,0,0,0,.619.377.741.741,0,1,0-.617-1.105l-.175.294H57.715v6.054H52.894L52.721,41a.742.742,0,1,0,0,.728l.173-.29h4.821v5.641l-.29.173a.741.741,0,0,0-.257.257L57,47.8h-10Zm0,14.487h5.036v6.934l-.294.173a.735.735,0,0,0-.375.619.741.741,0,1,0,1.482,0,.736.736,0,0,0-.377-.622l-.292-.173V47.944h4.821l.173.292a.746.746,0,0,0,.255.254l.293.173V61.791H48.086A1.093,1.093,0,0,1,46.994,60.7Z" transform="translate(-7.525 -4.561)" fill="#fff"/>
        <path id="Trazado_1280217" data-name="Trazado 1280217" d="M72.5,62.667l.29.173.146,0,.29-.174a.725.725,0,0,0,.377-.619.74.74,0,1,0-1.48,0,.734.734,0,0,0,.377.621" transform="translate(-11.673 -9.923)" fill="#fff"/>
        <path id="Trazado_1280218" data-name="Trazado 1280218" d="M45.9,114.268H26.206a2.378,2.378,0,0,1-2.375-2.378V98.753a2.38,2.38,0,0,1,2.375-2.379h.535l.277-.4A3.427,3.427,0,0,1,29.672,94.6h4.2a3.43,3.43,0,0,1,2.653,1.381l.277.4h9.1a2.382,2.382,0,0,1,2.378,2.379V111.89a2.38,2.38,0,0,1-2.378,2.378" transform="translate(-3.857 -15.312)" fill="#ffe79e"/>
        <path id="Trazado_1280219" data-name="Trazado 1280219" d="M27.269,111.943H45.947V99.81H35.862l-1.14-1.621a.737.737,0,0,0-.311-.156l-4.183,0a.72.72,0,0,0-.3.165L28.793,99.81H27.269Z" transform="translate(-4.414 -15.868)" fill="#ffb851"/>
        <path id="Trazado_1280220" data-name="Trazado 1280220" d="M80.284,114.268H60.593a2.378,2.378,0,0,1-2.375-2.378V98.753a2.38,2.38,0,0,1,2.375-2.379h.532l.281-.4A3.425,3.425,0,0,1,64.056,94.6h4.2a3.429,3.429,0,0,1,2.655,1.381l.276.4h9.1a2.38,2.38,0,0,1,2.375,2.379V111.89a2.378,2.378,0,0,1-2.375,2.378" transform="translate(-9.423 -15.312)" fill="#ffe79e"/>
        <path id="Trazado_1280221" data-name="Trazado 1280221" d="M61.654,111.943H80.333V99.81H70.248l-1.142-1.621a.718.718,0,0,0-.311-.156l-4.184,0a.686.686,0,0,0-.3.165L63.177,99.81H61.654Z" transform="translate(-9.98 -15.868)" fill="#ffb851"/>
        <path id="Trazado_1280222" data-name="Trazado 1280222" d="M113.428,114.265H93.737a2.378,2.378,0,0,1-2.375-2.378V98.75a2.38,2.38,0,0,1,2.375-2.379h.535l.28-.4A3.413,3.413,0,0,1,97.2,94.594h4.2a3.427,3.427,0,0,1,2.653,1.381l.278.4h9.1A2.379,2.379,0,0,1,115.8,98.75v13.137a2.378,2.378,0,0,1-2.374,2.378" transform="translate(-14.788 -15.311)" fill="#ffe79e"/>
        <path id="Trazado_1280223" data-name="Trazado 1280223" d="M94.8,111.94h18.682V99.807H103.391l-1.139-1.621a.812.812,0,0,0-.311-.156l-4.184,0a.772.772,0,0,0-.3.165l-1.131,1.609H94.8Z" transform="translate(-15.344 -15.868)" fill="#ffb851"/>
        <path id="Trazado_1280224" data-name="Trazado 1280224" d="M68.041,76.749V75.4a.982.982,0,1,0-1.937,0v1.345a1.137,1.137,0,0,1-1.14,1.138H38.608a1.14,1.14,0,0,0-1.14,1.14V87.6a.982.982,0,1,0,1.939,0V80.966a1.14,1.14,0,0,1,1.14-1.14H64.881a1.137,1.137,0,0,1,1.138,1.14V87.6a1.056,1.056,0,1,0,2.1,0V80.966a1.141,1.141,0,0,1,1.14-1.14H93.6a1.14,1.14,0,0,1,1.141,1.14V87.6a.981.981,0,1,0,1.937,0V79.027a1.139,1.139,0,0,0-1.139-1.14H69.179a1.138,1.138,0,0,1-1.138-1.138" transform="translate(-6.065 -12.02)" fill="#124c60"/>
        <path id="Trazado_1280225" data-name="Trazado 1280225" d="M43.974,107.1a.531.531,0,0,1-.531.532H30.718a.531.531,0,0,1,0-1.062H43.443a.532.532,0,0,1,.531.53" transform="translate(-4.886 -17.249)" fill="#fff"/>
        <path id="Trazado_1280226" data-name="Trazado 1280226" d="M77.738,107.1a.532.532,0,0,1-.529.532H64.484a.531.531,0,1,1,0-1.062H77.209a.532.532,0,0,1,.529.53" transform="translate(-10.351 -17.249)" fill="#fff"/>
        <path id="Trazado_1280227" data-name="Trazado 1280227" d="M111.5,107.1a.53.53,0,0,1-.531.532H98.25a.531.531,0,0,1,0-1.062h12.724a.531.531,0,0,1,.531.53" transform="translate(-15.817 -17.249)" fill="#fff"/>
      </g>
    </g>
  </g>
</svg>
