<svg id="Grupo_1211663" data-name="Grupo 1211663" xmlns="http://www.w3.org/2000/svg" xmlns:xlink="http://www.w3.org/1999/xlink" width="128" height="128" viewBox="0 0 128 128">
  <defs>
    <clipPath id="clip-path">
      <rect id="Rectángulo_454829" data-name="Rectángulo 454829" width="128" height="128" fill="#1e535a"/>
    </clipPath>
    <clipPath id="clip-path-2">
      <rect id="Rectángulo_463168" data-name="Rectángulo 463168" width="50" height="50" fill="#1e535a"/>
    </clipPath>
  </defs>
  <g id="Grupo_1177591" data-name="Grupo 1177591">
    <g id="Grupo_1177589" data-name="Grupo 1177589" transform="translate(0 0)">
      <g id="Grupo_1177587" data-name="Grupo 1177587" clip-path="url(#clip-path)">
        <path id="Trazado_997422" data-name="Trazado 997422" d="M122.774,56.654a58.848,58.848,0,0,0-13.293-30.623,6.768,6.768,0,0,0-9.523-9.118A58.761,58.761,0,0,0,69.535,5.027a6.769,6.769,0,0,0-13.148.267A58.842,58.842,0,0,0,27.2,17.772a6.771,6.771,0,0,0-9.4,9.462A58.794,58.794,0,0,0,5.483,56.6a6.774,6.774,0,0,0-.162,13.266A58.776,58.776,0,0,0,17.252,99.82a6.771,6.771,0,0,0,9.2,9.56,58.838,58.838,0,0,0,29.883,13.07,6.771,6.771,0,0,0,13.266.267,58.788,58.788,0,0,0,30.646-12.107,6.769,6.769,0,0,0,9.476-9.165A58.863,58.863,0,0,0,122.933,69.8a6.771,6.771,0,0,0-.159-13.144m-19.12-27.288a6.733,6.733,0,0,0,3.75-1.135,55.884,55.884,0,0,1,12.333,28.407,6.781,6.781,0,0,0-4.327,3.135L98.1,53.283c.013-.189.027-.382.027-.578a6.772,6.772,0,0,0-2.868-5.533l7.57-17.86a7.335,7.335,0,0,0,.821.054M100,28.288,92.472,46.03a6.7,6.7,0,0,0-7.459,4.307L53.705,43.125a6.588,6.588,0,0,0-.142-1.348L97.992,26.305a6.793,6.793,0,0,0,2,1.983M63,13.553a6.777,6.777,0,0,0,6.651-5.5A55.792,55.792,0,0,1,97.857,19.09a6.739,6.739,0,0,0-.98,3.5,7.114,7.114,0,0,0,.064.9L52.29,39.031A6.8,6.8,0,0,0,51.064,37.8L62.775,13.543c.074,0,.145.01.22.01M56.4,8.324a6.778,6.778,0,0,0,3.409,4.435L48.331,36.538a6.8,6.8,0,0,0-1.4-.145,6.727,6.727,0,0,0-3.861,1.213L29.461,26.238A6.736,6.736,0,0,0,29.231,20,55.836,55.836,0,0,1,56.4,8.324M13.387,61.776l28.15-14.519a6.751,6.751,0,0,0,5.341,2.686l9.648,30.839a6.887,6.887,0,0,0-1.493,1.652L13.3,65.046a6.731,6.731,0,0,0,.25-1.8,6.81,6.81,0,0,0-.166-1.473m6.648-32.521a6.771,6.771,0,0,0,7.564-.645L41.037,39.831a6.758,6.758,0,0,0-.747,4.682l-28.2,14.539A6.774,6.774,0,0,0,8.506,56.7,55.812,55.812,0,0,1,20.036,29.254m2.8,67.623a6.756,6.756,0,0,0-3.365.9A55.762,55.762,0,0,1,8.351,69.832a6.783,6.783,0,0,0,3.517-2.121L54.013,85.27a7.266,7.266,0,0,0-.054.814,6.775,6.775,0,0,0,.405,2.29L28.876,100.587a6.775,6.775,0,0,0-6.037-3.709m33.626,22.556a55.892,55.892,0,0,1-27.883-12.2,6.705,6.705,0,0,0,1.034-3.581l0-.078L56,90.929a6.776,6.776,0,0,0,2.392,1.51l1.581,22.725a6.776,6.776,0,0,0-3.51,4.27m2.807-39.96L49.831,49.287a6.786,6.786,0,0,0,3.219-3.219l31.562,7.266a6.736,6.736,0,0,0,1.078,3.081L64.042,80.173a6.692,6.692,0,0,0-4.77-.7M69.592,119.7a6.774,6.774,0,0,0-6.6-5.25l-.051,0-1.5-21.623a6.764,6.764,0,0,0,4.142-2.01l31.555,13.918c0,.061-.01.115-.01.176a6.743,6.743,0,0,0,1,3.534A55.789,55.789,0,0,1,69.592,119.7M97.9,101.779,67.164,88.22a6.736,6.736,0,0,0-.888-6.027L87.858,58.5a6.736,6.736,0,0,0,3.5.98,7.46,7.46,0,0,0,.831-.054l8.067,39.781a6.761,6.761,0,0,0-2.355,2.571m9.722-2.534a6.735,6.735,0,0,0-4.5-1.064l-8.07-39.8a6.8,6.8,0,0,0,2.135-2.23l17.3,6.486a6.009,6.009,0,0,0-.03.608,6.774,6.774,0,0,0,5.445,6.641A55.835,55.835,0,0,1,107.62,99.246" transform="translate(0 0.001)" fill="#1e535a"/>
      </g>
    </g>
  </g>
  <g id="Elipse_13614" data-name="Elipse 13614" transform="translate(24.287 24.359)" fill="#fff" stroke="#1e535a" stroke-width="3">
    <ellipse cx="39.732" cy="39.733" rx="39.732" ry="39.733" stroke="none"/>
    <ellipse cx="39.732" cy="39.733" rx="38.232" ry="38.233" fill="none"/>
  </g>
  <g id="Grupo_1213434" data-name="Grupo 1213434" transform="translate(38.288 40.359)">
    <g id="Grupo_1213433" data-name="Grupo 1213433" clip-path="url(#clip-path-2)">
      <path id="Trazado_1280236" data-name="Trazado 1280236" d="M19.646,144.531H0V137.1H19.646ZM7.133,140.818a2.719,2.719,0,0,0-2.669-2.766,2.767,2.767,0,0,0,0,5.531,2.719,2.719,0,0,0,2.669-2.766m3.581-1.867-1.784,0,0,1.859,1.784,0Zm3.564,0h-1.8v1.836h1.8Zm3.591,0H16.08v1.859h1.788Z" transform="translate(0 -116.745)" fill="#1e535a"/>
      <path id="Trazado_1280237" data-name="Trazado 1280237" d="M19.646,207.029H0v-7.436H19.646ZM7.132,203.286a2.718,2.718,0,0,0-2.668-2.765,2.767,2.767,0,0,0,0,5.53,2.718,2.718,0,0,0,2.668-2.765m3.582-1.873-1.784,0,0,1.9,1.784,0Zm3.564.007h-1.8v1.894h1.8Zm3.59-.006H16.08v1.9h1.787Z" transform="translate(0 -169.964)" fill="#1e535a"/>
      <path id="Trazado_1280238" data-name="Trazado 1280238" d="M19.646,82.2H0V74.759H19.646ZM7.139,78.475a2.721,2.721,0,0,0-2.672-2.768,2.77,2.77,0,0,0,0,5.537,2.721,2.721,0,0,0,2.672-2.769m3.574-1.863H8.932v1.873h1.782Zm3.565,0h-1.8v1.868h1.8Zm1.8,1.866h1.787v-1.87H16.08Z" transform="translate(0 -63.661)" fill="#1e535a"/>
      <path id="Trazado_1280239" data-name="Trazado 1280239" d="M295.571,282.464l.006,6.516-8.931,0,0-8.332,3.57-.005.008,1.81Z" transform="translate(-245.577 -238.98)" fill="#1e535a"/>
      <path id="Trazado_1280240" data-name="Trazado 1280240" d="M295.571,1.858l.006,6.492h-8.933l0-8.328L290.219,0V1.86Z" transform="translate(-245.578 0)" fill="#1e535a"/>
      <path id="Trazado_1280241" data-name="Trazado 1280241" d="M295.571,138.992l.006,6.462h-8.933l0-8.331,3.572-.009.006,1.869Z" transform="translate(-245.578 -116.759)" fill="#1e535a"/>
      <rect id="Rectángulo_463153" data-name="Rectángulo 463153" width="16.094" height="1.836" transform="translate(1.773 38.884)" fill="#1e535a"/>
      <path id="Trazado_1280242" data-name="Trazado 1280242" d="M221.714,151.576a1.783,1.783,0,1,1-1.782-1.847,1.815,1.815,0,0,1,1.782,1.847" transform="translate(-186.897 -127.502)" fill="#1e535a"/>
      <rect id="Rectángulo_463154" data-name="Rectángulo 463154" width="1.807" height="1.879" transform="translate(32.131 32.379)" fill="#1e535a"/>
      <rect id="Rectángulo_463155" data-name="Rectángulo 463155" width="1.798" height="1.901" transform="translate(35.717 43.478)" fill="#1e535a"/>
      <rect id="Rectángulo_463156" data-name="Rectángulo 463156" width="1.807" height="1.878" transform="translate(32.131 36.097)" fill="#1e535a"/>
      <rect id="Rectángulo_463157" data-name="Rectángulo 463157" width="1.807" height="1.864" transform="translate(32.131 28.69)" fill="#1e535a"/>
      <rect id="Rectángulo_463158" data-name="Rectángulo 463158" width="1.807" height="1.882" transform="translate(32.131 39.791)" fill="#1e535a"/>
      <rect id="Rectángulo_463159" data-name="Rectángulo 463159" width="1.809" height="1.905" transform="translate(32.128 43.476) rotate(-0.089)" fill="#1e535a"/>
      <path id="Trazado_1280243" data-name="Trazado 1280243" d="M163.749,157.71l-1.791-.018-.026-1.887,1.789.009Z" transform="translate(-138.733 -132.676)" fill="#1e535a"/>
      <rect id="Rectángulo_463160" data-name="Rectángulo 463160" width="1.807" height="1.873" transform="translate(32.131 2.769)" fill="#1e535a"/>
      <rect id="Rectángulo_463161" data-name="Rectángulo 463161" width="1.8" height="1.85" transform="translate(35.717 2.791)" fill="#1e535a"/>
      <rect id="Rectángulo_463162" data-name="Rectángulo 463162" width="1.811" height="1.855" transform="translate(32.127 6.495)" fill="#1e535a"/>
      <rect id="Rectángulo_463163" data-name="Rectángulo 463163" width="1.807" height="1.841" transform="translate(32.131 10.191)" fill="#1e535a"/>
      <rect id="Rectángulo_463164" data-name="Rectángulo 463164" width="1.795" height="1.902" transform="translate(36.613 23.135)" fill="#1e535a"/>
      <rect id="Rectángulo_463165" data-name="Rectángulo 463165" width="1.807" height="1.85" transform="translate(32.131 17.602)" fill="#1e535a"/>
      <rect id="Rectángulo_463166" data-name="Rectángulo 463166" width="1.808" height="1.865" transform="translate(32.13 13.883)" fill="#1e535a"/>
      <rect id="Rectángulo_463167" data-name="Rectángulo 463167" width="1.781" height="1.901" transform="translate(26.791 23.136)" fill="#1e535a"/>
      <path id="Trazado_1280244" data-name="Trazado 1280244" d="M26.752,156.866a.883.883,0,1,1-.883-.915.9.9,0,0,1,.883.915" transform="translate(-21.407 -132.801)" fill="#1e535a"/>
      <path id="Trazado_1280245" data-name="Trazado 1280245" d="M26.78,219.242a.884.884,0,1,1-.884-.916.9.9,0,0,1,.884.916" transform="translate(-21.429 -185.916)" fill="#1e535a"/>
      <path id="Trazado_1280246" data-name="Trazado 1280246" d="M26.746,94.572a.882.882,0,1,1-.882-.914.9.9,0,0,1,.882.914" transform="translate(-21.404 -79.755)" fill="#1e535a"/>
    </g>
  </g>
</svg>
