<svg id="Grupo_1211664" data-name="Grupo 1211664" xmlns="http://www.w3.org/2000/svg" xmlns:xlink="http://www.w3.org/1999/xlink" width="128" height="128" viewBox="0 0 128 128">
  <defs>
    <clipPath id="clip-path">
      <rect id="Rectángulo_454829" data-name="Rectángulo 454829" width="128" height="128" fill="#1e535a"/>
    </clipPath>
    <clipPath id="clip-path-2">
      <rect id="Rectángulo_463152" data-name="Rectángulo 463152" width="50.971" height="51.019" fill="#1e535a"/>
    </clipPath>
  </defs>
  <g id="Grupo_1177591" data-name="Grupo 1177591">
    <g id="Grupo_1177589" data-name="Grupo 1177589" transform="translate(0 0)">
      <g id="Grupo_1177587" data-name="Grupo 1177587" clip-path="url(#clip-path)">
        <path id="Trazado_997422" data-name="Trazado 997422" d="M122.774,56.654a58.848,58.848,0,0,0-13.293-30.623,6.768,6.768,0,0,0-9.523-9.118A58.761,58.761,0,0,0,69.535,5.027a6.769,6.769,0,0,0-13.148.267A58.842,58.842,0,0,0,27.2,17.772a6.771,6.771,0,0,0-9.4,9.462A58.794,58.794,0,0,0,5.483,56.6a6.774,6.774,0,0,0-.162,13.266A58.776,58.776,0,0,0,17.252,99.82a6.771,6.771,0,0,0,9.2,9.56,58.838,58.838,0,0,0,29.883,13.07,6.771,6.771,0,0,0,13.266.267,58.788,58.788,0,0,0,30.646-12.107,6.769,6.769,0,0,0,9.476-9.165A58.863,58.863,0,0,0,122.933,69.8a6.771,6.771,0,0,0-.159-13.144m-19.12-27.288a6.733,6.733,0,0,0,3.75-1.135,55.884,55.884,0,0,1,12.333,28.407,6.781,6.781,0,0,0-4.327,3.135L98.1,53.283c.013-.189.027-.382.027-.578a6.772,6.772,0,0,0-2.868-5.533l7.57-17.86a7.335,7.335,0,0,0,.821.054M100,28.288,92.472,46.03a6.7,6.7,0,0,0-7.459,4.307L53.705,43.125a6.588,6.588,0,0,0-.142-1.348L97.992,26.305a6.793,6.793,0,0,0,2,1.983M63,13.553a6.777,6.777,0,0,0,6.651-5.5A55.792,55.792,0,0,1,97.857,19.09a6.739,6.739,0,0,0-.98,3.5,7.114,7.114,0,0,0,.064.9L52.29,39.031A6.8,6.8,0,0,0,51.064,37.8L62.775,13.543c.074,0,.145.01.22.01M56.4,8.324a6.778,6.778,0,0,0,3.409,4.435L48.331,36.538a6.8,6.8,0,0,0-1.4-.145,6.727,6.727,0,0,0-3.861,1.213L29.461,26.238A6.736,6.736,0,0,0,29.231,20,55.836,55.836,0,0,1,56.4,8.324M13.387,61.776l28.15-14.519a6.751,6.751,0,0,0,5.341,2.686l9.648,30.839a6.887,6.887,0,0,0-1.493,1.652L13.3,65.046a6.731,6.731,0,0,0,.25-1.8,6.81,6.81,0,0,0-.166-1.473m6.648-32.521a6.771,6.771,0,0,0,7.564-.645L41.037,39.831a6.758,6.758,0,0,0-.747,4.682l-28.2,14.539A6.774,6.774,0,0,0,8.506,56.7,55.812,55.812,0,0,1,20.036,29.254m2.8,67.623a6.756,6.756,0,0,0-3.365.9A55.762,55.762,0,0,1,8.351,69.832a6.783,6.783,0,0,0,3.517-2.121L54.013,85.27a7.266,7.266,0,0,0-.054.814,6.775,6.775,0,0,0,.405,2.29L28.876,100.587a6.775,6.775,0,0,0-6.037-3.709m33.626,22.556a55.892,55.892,0,0,1-27.883-12.2,6.705,6.705,0,0,0,1.034-3.581l0-.078L56,90.929a6.776,6.776,0,0,0,2.392,1.51l1.581,22.725a6.776,6.776,0,0,0-3.51,4.27m2.807-39.96L49.831,49.287a6.786,6.786,0,0,0,3.219-3.219l31.562,7.266a6.736,6.736,0,0,0,1.078,3.081L64.042,80.173a6.692,6.692,0,0,0-4.77-.7M69.592,119.7a6.774,6.774,0,0,0-6.6-5.25l-.051,0-1.5-21.623a6.764,6.764,0,0,0,4.142-2.01l31.555,13.918c0,.061-.01.115-.01.176a6.743,6.743,0,0,0,1,3.534A55.789,55.789,0,0,1,69.592,119.7M97.9,101.779,67.164,88.22a6.736,6.736,0,0,0-.888-6.027L87.858,58.5a6.736,6.736,0,0,0,3.5.98,7.46,7.46,0,0,0,.831-.054l8.067,39.781a6.761,6.761,0,0,0-2.355,2.571m9.722-2.534a6.735,6.735,0,0,0-4.5-1.064l-8.07-39.8a6.8,6.8,0,0,0,2.135-2.23l17.3,6.486a6.009,6.009,0,0,0-.03.608,6.774,6.774,0,0,0,5.445,6.641A55.835,55.835,0,0,1,107.62,99.246" transform="translate(0 0.001)" fill="#1e535a"/>
      </g>
    </g>
  </g>
  <g id="Elipse_13614" data-name="Elipse 13614" transform="translate(24.056 24.359)" fill="#fff" stroke="#1e535a" stroke-width="3">
    <ellipse cx="39.732" cy="39.733" rx="39.732" ry="39.733" stroke="none"/>
    <ellipse cx="39.732" cy="39.733" rx="38.232" ry="38.233" fill="none"/>
  </g>
  <g id="Grupo_1213432" data-name="Grupo 1213432" transform="translate(38.057 38.36)">
    <g id="Grupo_1213431" data-name="Grupo 1213431" clip-path="url(#clip-path-2)">
      <path id="Trazado_1280228" data-name="Trazado 1280228" d="M124.713,21.462a.833.833,0,0,1-.806,1l-16.245,0a.974.974,0,0,1-.8-.628V.635A.743.743,0,0,1,107.5,0h11.945l.005,3.878A1.3,1.3,0,0,0,120.82,5.27l3.892-.006Zm-7.6-16.3a.9.9,0,0,0,.8-.894.889.889,0,0,0-.821-.807h-6.329a.917.917,0,0,0-.831.807.921.921,0,0,0,.807.9Zm3.773,4.611c.5,0,.819-.7.749-1a1.024,1.024,0,0,0-.805-.709l-10.085,0a.933.933,0,0,0-.818.852.979.979,0,0,0,.822.862Zm-.032,4.619a.921.921,0,0,0,.783-.974.911.911,0,0,0-.961-.731L110.6,12.7c-.441,0-.731.663-.658.992a1.051,1.051,0,0,0,.831.7Zm-.1,4.574a.838.838,0,0,0,.879-.909.922.922,0,0,0-.832-.8H110.775a.881.881,0,0,0-.831.948.866.866,0,0,0,.953.76Z" transform="translate(-90.292)" fill="#1e535a"/>
      <path id="Trazado_1280229" data-name="Trazado 1280229" d="M22.453,252.883a1.8,1.8,0,0,1-1.8,1.934l-18.739,0a1.784,1.784,0,0,1-1.833-1.734L.072,241.2l20.588.062a1.738,1.738,0,0,1,1.784,1.768ZM10.511,247.2a.81.81,0,0,0,.75-1,.9.9,0,0,0-.961-.581l-6.368.013a1.058,1.058,0,0,0-.421.961,1.055,1.055,0,0,0,.725.607Zm5.042,3.283a.885.885,0,0,0,.8-.723c.043-.33-.215-.88-.634-.879l-11.642.009c-.418,0-.663.7-.559.97a1,1,0,0,0,.868.629Z" transform="translate(-0.061 -203.801)" fill="#1e535a"/>
      <path id="Trazado_1280230" data-name="Trazado 1280230" d="M206.827,253.019a1.785,1.785,0,0,1-1.839,1.8H186.249a1.8,1.8,0,0,1-1.793-1.872l.007-11.749,20.525.061a1.738,1.738,0,0,1,1.829,1.656Zm-11.853-5.83c.471,0,.76-.684.672-.976a.955.955,0,0,0-1.025-.6l-6.225.032c-.358,0-.6.708-.5,1.006a1,1,0,0,0,.806.557Zm4.965,3.292a.85.85,0,0,0,.787-.869c-.019-.28-.326-.733-.682-.732l-11.633.011c-.384,0-.612.743-.516,1.022a1,1,0,0,0,.821.575Z" transform="translate(-155.856 -203.799)" fill="#1e535a"/>
      <path id="Trazado_1280231" data-name="Trazado 1280231" d="M28.124,76.889l-1.39,2.339c-.15.252-.863.245-1.113.1l-2.073-1.211a.87.87,0,0,1-.326-1.256c.3-.438.866-.456,1.455-.08a20.646,20.646,0,0,1,8.037-20.3.892.892,0,0,1,1.175.2.913.913,0,0,1-.316,1.287,18.906,18.906,0,0,0-7.247,18.35l.764-.682c.2-.174.793.039.956.229a1.008,1.008,0,0,1,.078,1.019" transform="translate(-19.494 -47.606)" fill="#1e535a"/>
      <path id="Trazado_1280232" data-name="Trazado 1280232" d="M234.291,55.283c.013.607-.148,1.085-.619,1.253a.913.913,0,0,1-1.072-.605l-.665-2.515a1.015,1.015,0,0,1,.488-.946l2.779-.718c.449-.116.919.513.886.856-.052.539-.442.83-1.139.939a20.708,20.708,0,0,1,6.563,20.535.91.91,0,0,1-.96.654.883.883,0,0,1-.687-1.061,18.876,18.876,0,0,0-5.574-18.391" transform="translate(-195.964 -43.715)" fill="#1e535a"/>
      <path id="Trazado_1280233" data-name="Trazado 1280233" d="M8.4,215.278l1.1,1.876-9.437.011c-.25-1.084.278-2.477,1.467-2.488l5.3-.048a2.142,2.142,0,0,1,1.568.649" transform="translate(0 -181.351)" fill="#1e535a"/>
      <path id="Trazado_1280234" data-name="Trazado 1280234" d="M192.834,215.277l1.1,1.9-9.386.017a2.529,2.529,0,0,1,.268-1.814,1.985,1.985,0,0,1,1.586-.721l5,.006a2.07,2.07,0,0,1,1.43.613" transform="translate(-155.884 -181.376)" fill="#1e535a"/>
      <path id="Trazado_1280235" data-name="Trazado 1280235" d="M201.6,8.282l-2.685.039.028-2.7Z" transform="translate(-168.07 -4.746)" fill="#1e535a"/>
    </g>
  </g>
</svg>
