<svg xmlns="http://www.w3.org/2000/svg" xmlns:xlink="http://www.w3.org/1999/xlink" width="128" height="128" viewBox="0 0 128 128">
  <defs>
    <clipPath id="clip-path">
      <rect id="Rectángulo_454829" data-name="Rectángulo 454829" width="128" height="128" fill="#1e535a"/>
    </clipPath>
    <clipPath id="clip-path-2">
      <rect id="Rectángulo_463170" data-name="Rectángulo 463170" width="47.943" height="49.68" fill="#1e535a"/>
    </clipPath>
  </defs>
  <g id="Grupo_1211662" data-name="Grupo 1211662" transform="translate(0.274 -0.359)">
    <g id="Grupo_1177591" data-name="Grupo 1177591" transform="translate(-0.274 0.359)">
      <g id="Grupo_1177589" data-name="Grupo 1177589" transform="translate(0 0)">
        <g id="Grupo_1177587" data-name="Grupo 1177587" clip-path="url(#clip-path)">
          <path id="Trazado_997422" data-name="Trazado 997422" d="M122.774,56.654a58.848,58.848,0,0,0-13.293-30.623,6.768,6.768,0,0,0-9.523-9.118A58.761,58.761,0,0,0,69.535,5.027a6.769,6.769,0,0,0-13.148.267A58.842,58.842,0,0,0,27.2,17.772a6.771,6.771,0,0,0-9.4,9.462A58.794,58.794,0,0,0,5.483,56.6a6.774,6.774,0,0,0-.162,13.266A58.776,58.776,0,0,0,17.252,99.82a6.771,6.771,0,0,0,9.2,9.56,58.838,58.838,0,0,0,29.883,13.07,6.771,6.771,0,0,0,13.266.267,58.788,58.788,0,0,0,30.646-12.107,6.769,6.769,0,0,0,9.476-9.165A58.863,58.863,0,0,0,122.933,69.8a6.771,6.771,0,0,0-.159-13.144m-19.12-27.288a6.733,6.733,0,0,0,3.75-1.135,55.884,55.884,0,0,1,12.333,28.407,6.781,6.781,0,0,0-4.327,3.135L98.1,53.283c.013-.189.027-.382.027-.578a6.772,6.772,0,0,0-2.868-5.533l7.57-17.86a7.335,7.335,0,0,0,.821.054M100,28.288,92.472,46.03a6.7,6.7,0,0,0-7.459,4.307L53.705,43.125a6.588,6.588,0,0,0-.142-1.348L97.992,26.305a6.793,6.793,0,0,0,2,1.983M63,13.553a6.777,6.777,0,0,0,6.651-5.5A55.792,55.792,0,0,1,97.857,19.09a6.739,6.739,0,0,0-.98,3.5,7.114,7.114,0,0,0,.064.9L52.29,39.031A6.8,6.8,0,0,0,51.064,37.8L62.775,13.543c.074,0,.145.01.22.01M56.4,8.324a6.778,6.778,0,0,0,3.409,4.435L48.331,36.538a6.8,6.8,0,0,0-1.4-.145,6.727,6.727,0,0,0-3.861,1.213L29.461,26.238A6.736,6.736,0,0,0,29.231,20,55.836,55.836,0,0,1,56.4,8.324M13.387,61.776l28.15-14.519a6.751,6.751,0,0,0,5.341,2.686l9.648,30.839a6.887,6.887,0,0,0-1.493,1.652L13.3,65.046a6.731,6.731,0,0,0,.25-1.8,6.81,6.81,0,0,0-.166-1.473m6.648-32.521a6.771,6.771,0,0,0,7.564-.645L41.037,39.831a6.758,6.758,0,0,0-.747,4.682l-28.2,14.539A6.774,6.774,0,0,0,8.506,56.7,55.812,55.812,0,0,1,20.036,29.254m2.8,67.623a6.756,6.756,0,0,0-3.365.9A55.762,55.762,0,0,1,8.351,69.832a6.783,6.783,0,0,0,3.517-2.121L54.013,85.27a7.266,7.266,0,0,0-.054.814,6.775,6.775,0,0,0,.405,2.29L28.876,100.587a6.775,6.775,0,0,0-6.037-3.709m33.626,22.556a55.892,55.892,0,0,1-27.883-12.2,6.705,6.705,0,0,0,1.034-3.581l0-.078L56,90.929a6.776,6.776,0,0,0,2.392,1.51l1.581,22.725a6.776,6.776,0,0,0-3.51,4.27m2.807-39.96L49.831,49.287a6.786,6.786,0,0,0,3.219-3.219l31.562,7.266a6.736,6.736,0,0,0,1.078,3.081L64.042,80.173a6.692,6.692,0,0,0-4.77-.7M69.592,119.7a6.774,6.774,0,0,0-6.6-5.25l-.051,0-1.5-21.623a6.764,6.764,0,0,0,4.142-2.01l31.555,13.918c0,.061-.01.115-.01.176a6.743,6.743,0,0,0,1,3.534A55.789,55.789,0,0,1,69.592,119.7M97.9,101.779,67.164,88.22a6.736,6.736,0,0,0-.888-6.027L87.858,58.5a6.736,6.736,0,0,0,3.5.98,7.46,7.46,0,0,0,.831-.054l8.067,39.781a6.761,6.761,0,0,0-2.355,2.571m9.722-2.534a6.735,6.735,0,0,0-4.5-1.064l-8.07-39.8a6.8,6.8,0,0,0,2.135-2.23l17.3,6.486a6.009,6.009,0,0,0-.03.608,6.774,6.774,0,0,0,5.445,6.641A55.835,55.835,0,0,1,107.62,99.246" transform="translate(0 0.001)" fill="#1e535a"/>
        </g>
      </g>
    </g>
    <g id="Elipse_13614" data-name="Elipse 13614" transform="translate(23.975 24.359)" fill="#fff" stroke="#1e535a" stroke-width="3">
      <ellipse cx="39.732" cy="39.733" rx="39.732" ry="39.733" stroke="none"/>
      <ellipse cx="39.732" cy="39.733" rx="38.232" ry="38.233" fill="none"/>
    </g>
    <g id="Grupo_1213436" data-name="Grupo 1213436" transform="translate(39.974 39.36)">
      <g id="Grupo_1213435" data-name="Grupo 1213435" clip-path="url(#clip-path-2)">
        <path id="Trazado_1280247" data-name="Trazado 1280247" d="M24.616,17.088l0-3.565a.88.88,0,0,0-.51-.66.731.731,0,0,0-.777.558l0,3.64-1.746.015.007-3.559a.849.849,0,0,0-.578-.668.713.713,0,0,0-.7.683l.009,3.572-1.757-.028-.016-3.648c0-.236-.411-.588-.632-.587s-.627.354-.628.579l-.016,3.665a2.721,2.721,0,0,0-2.258,2.232l-3.663.025c-.238,0-.59.434-.571.661a.737.737,0,0,0,.666.591l3.546-.006L15,22.4l-3.548-.008a.762.762,0,0,0-.677.536c-.03.223.307.712.538.713L15,23.655l0,1.751-3.622.009a.8.8,0,0,0-.6.612c0,.222.339.652.577.652l3.631.007L15,28.443l-6.925-.057A8.714,8.714,0,0,1,8.144,11c.271-.02.719-.4.62-.707A7.828,7.828,0,0,1,23.191,4.32c.418.257.87-.062,1.2-.362a8.807,8.807,0,0,1,9.665-1.512,8.89,8.89,0,0,1,5.235,7.839.783.783,0,0,0,.651.725,8.713,8.713,0,0,1,.056,17.364c-2.382.173-4.666.013-7.041.06l0-1.748,3.587-.008a.858.858,0,0,0,.636-.652.863.863,0,0,0-.633-.616l-3.585,0-.008-1.757,3.521-.008a1.061,1.061,0,0,0,.679-.455c.1-.206-.152-.775-.4-.778l-3.8-.038,0-1.786,3.658-.008c.216,0,.558-.394.562-.591a.848.848,0,0,0-.618-.652l-3.625-.026a2.76,2.76,0,0,0-2.266-2.232l0-3.553a.8.8,0,0,0-.512-.673.693.693,0,0,0-.756.664l0,3.548-1.763-.011L27.6,13.288c0-.224-.51-.481-.7-.438a.9.9,0,0,0-.546.666l.011,3.548Z" transform="translate(0 0)" fill="#1e535a"/>
        <path id="Trazado_1280248" data-name="Trazado 1280248" d="M118.907,133.759l-12.552,0a1.41,1.41,0,0,1-1.416-1.44l.008-12.716a1.385,1.385,0,0,1,1.4-1.252h12.557a1.381,1.381,0,0,1,1.435,1.412v12.557a1.431,1.431,0,0,1-1.434,1.444M117.465,121.2h-9.653v9.659h9.653Z" transform="translate(-88.669 -99.997)" fill="#1e535a"/>
        <path id="Trazado_1280249" data-name="Trazado 1280249" d="M57.911,238.52l-4.448,0a3.119,3.119,0,0,1-3.334,2.47,3.164,3.164,0,0,1-2.835-3.021,3.122,3.122,0,0,1,6.178-.718l3.765.011,0-10.816,1.272-.015,0,11.426c0,.2-.394.66-.6.66" transform="translate(-39.96 -191.326)" fill="#1e535a"/>
        <path id="Trazado_1280250" data-name="Trazado 1280250" d="M194.6,237.327a3.149,3.149,0,0,1,3.343-2.495,3.106,3.106,0,0,1,2.858,3.051,3.125,3.125,0,0,1-6.184.691l-4.374.009a.9.9,0,0,1-.666-.611l.007-11.457,1.262-.011,0,10.8Z" transform="translate(-160.185 -191.385)" fill="#1e535a"/>
        <path id="Trazado_1280251" data-name="Trazado 1280251" d="M216.517,204.2l-3.541,0,.005-1.3h3.544c.227,0,.586.412.6.634a.864.864,0,0,1-.613.663" transform="translate(-179.955 -171.444)" fill="#1e535a"/>
        <path id="Trazado_1280252" data-name="Trazado 1280252" d="M73.661,204.19l-3.456,0a.79.79,0,0,1-.673-.679.744.744,0,0,1,.733-.627l3.383,0Z" transform="translate(-58.751 -171.426)" fill="#1e535a"/>
        <path id="Trazado_1280253" data-name="Trazado 1280253" d="M151.721,229.878a.65.65,0,1,1-1.3-.025l.009-3.374,1.281-.039Z" transform="translate(-127.1 -191.331)" fill="#1e535a"/>
        <path id="Trazado_1280254" data-name="Trazado 1280254" d="M132.247,229.661a.978.978,0,0,1-.422.853c-.213.08-.846-.111-.847-.375l-.025-3.683,1.275-.014Z" transform="translate(-110.649 -191.333)" fill="#1e535a"/>
        <path id="Trazado_1280255" data-name="Trazado 1280255" d="M171.254,230.156c0,.222-.514.471-.7.43s-.545-.338-.545-.567l-.012-3.536,1.267,0Z" transform="translate(-143.638 -191.368)" fill="#1e535a"/>
        <rect id="Rectángulo_463169" data-name="Rectángulo 463169" width="7.122" height="7.11" transform="translate(20.413 22.485)" fill="#1e535a"/>
      </g>
    </g>
  </g>
</svg>
