<svg xmlns="http://www.w3.org/2000/svg" xmlns:xlink="http://www.w3.org/1999/xlink" width="96" height="96" viewBox="0 0 96 96">
  <defs>
    <clipPath id="clip-path">
      <rect id="Rectángulo_454829" data-name="Rectángulo 454829" width="96" height="96" fill="#1e535a"/>
    </clipPath>
    <clipPath id="clip-path-2">
      <rect id="Rectángulo_463134" data-name="Rectángulo 463134" width="36.195" height="36.198" fill="#1e535a"/>
    </clipPath>
  </defs>
  <g id="Grupo_1211068" data-name="Grupo 1211068" transform="translate(-1481 -8562.5)">
    <g id="Grupo_1177591" data-name="Grupo 1177591" transform="translate(1481 8562.5)">
      <g id="Grupo_1177589" data-name="Grupo 1177589" transform="translate(0 0)">
        <g id="Grupo_1177587" data-name="Grupo 1177587" clip-path="url(#clip-path)">
          <path id="Trazado_997422" data-name="Trazado 997422" d="M92.081,42.491a44.136,44.136,0,0,0-9.97-22.967,5.076,5.076,0,0,0-7.142-6.838A44.071,44.071,0,0,0,52.151,3.77a5.077,5.077,0,0,0-9.861.2A44.132,44.132,0,0,0,20.4,13.329a5.079,5.079,0,0,0-7.048,7.1A44.1,44.1,0,0,0,4.112,42.448,5.08,5.08,0,0,0,3.99,52.4a44.082,44.082,0,0,0,8.949,22.468,5.078,5.078,0,0,0,6.9,7.17,44.128,44.128,0,0,0,22.412,9.8,5.078,5.078,0,0,0,9.949.2,44.091,44.091,0,0,0,22.985-9.08,5.077,5.077,0,0,0,7.107-6.874A44.147,44.147,0,0,0,92.2,52.349a5.078,5.078,0,0,0-.119-9.858M77.74,22.024a5.05,5.05,0,0,0,2.812-.851,41.913,41.913,0,0,1,9.25,21.3,5.086,5.086,0,0,0-3.246,2.351l-12.98-4.867c.01-.142.02-.286.02-.433a5.079,5.079,0,0,0-2.151-4.15l5.678-13.4a5.5,5.5,0,0,0,.616.041M75,21.216,69.354,34.523a5.026,5.026,0,0,0-5.594,3.23L40.279,32.344a4.941,4.941,0,0,0-.106-1.011l33.322-11.6A5.1,5.1,0,0,0,75,21.216M47.246,10.165a5.083,5.083,0,0,0,4.989-4.122,41.844,41.844,0,0,1,21.158,8.275,5.054,5.054,0,0,0-.735,2.625,5.335,5.335,0,0,0,.048.671L39.217,29.273a5.1,5.1,0,0,0-.92-.92l8.784-18.2c.056,0,.109.008.165.008M42.3,6.243A5.083,5.083,0,0,0,44.86,9.569L36.248,27.4a5.1,5.1,0,0,0-1.049-.109,5.045,5.045,0,0,0-2.9.91L22.1,19.678A5.052,5.052,0,0,0,21.923,15,41.877,41.877,0,0,1,42.3,6.243M10.041,46.332,31.153,35.442a5.064,5.064,0,0,0,4.006,2.014l7.236,23.129a5.166,5.166,0,0,0-1.12,1.239l-31.3-13.04a5.048,5.048,0,0,0,.187-1.348,5.107,5.107,0,0,0-.124-1.1m4.986-24.391a5.079,5.079,0,0,0,5.673-.484l10.079,8.417a5.068,5.068,0,0,0-.56,3.512L9.07,44.29A5.081,5.081,0,0,0,6.38,42.526a41.859,41.859,0,0,1,8.647-20.585m2.1,50.717a5.067,5.067,0,0,0-2.523.674A41.822,41.822,0,0,1,6.263,52.374,5.087,5.087,0,0,0,8.9,50.783l31.609,13.17a5.45,5.45,0,0,0-.041.611,5.081,5.081,0,0,0,.3,1.718L21.657,75.44a5.081,5.081,0,0,0-4.528-2.782M42.349,89.575a41.919,41.919,0,0,1-20.912-9.149,5.029,5.029,0,0,0,.775-2.686l0-.058L42,68.2A5.082,5.082,0,0,0,43.8,69.329l1.186,17.043a5.082,5.082,0,0,0-2.632,3.2m2.105-29.97-7.081-22.64a5.089,5.089,0,0,0,2.415-2.415L63.459,40a5.052,5.052,0,0,0,.808,2.311L48.032,60.13a5.019,5.019,0,0,0-3.577-.524m7.74,30.167a5.081,5.081,0,0,0-4.948-3.937l-.038,0L46.081,69.62a5.073,5.073,0,0,0,3.106-1.507L72.853,78.551c0,.046-.008.086-.008.132a5.057,5.057,0,0,0,.752,2.65,41.841,41.841,0,0,1-21.4,8.439M73.423,76.334,50.373,66.165a5.052,5.052,0,0,0-.666-4.52L65.893,43.877a5.052,5.052,0,0,0,2.622.735,5.594,5.594,0,0,0,.623-.041l6.05,29.836a5.071,5.071,0,0,0-1.766,1.928m7.292-1.9a5.051,5.051,0,0,0-3.377-.8L71.285,43.788a5.1,5.1,0,0,0,1.6-1.672L85.858,46.98a4.506,4.506,0,0,0-.023.456,5.08,5.08,0,0,0,4.084,4.981,41.876,41.876,0,0,1-9.2,22.017" transform="translate(0 0.001)" fill="#1e535a"/>
        </g>
      </g>
    </g>
    <g id="Elipse_13614" data-name="Elipse 13614" transform="translate(1497.965 8578.952)" fill="#d5f4f8" stroke="#1e535a" stroke-width="3">
      <ellipse cx="31.232" cy="31.233" rx="31.232" ry="31.233" stroke="none"/>
      <ellipse cx="31.232" cy="31.233" rx="29.732" ry="29.733" fill="none"/>
    </g>
    <g id="Grupo_1213426" data-name="Grupo 1213426" transform="translate(1511.254 8593.254)">
      <g id="Grupo_1213425" data-name="Grupo 1213425" transform="translate(-0.289 -1.302)" clip-path="url(#clip-path-2)">
        <path id="Trazado_1280173" data-name="Trazado 1280173" d="M18.813,18.037l-1.346.675a1.057,1.057,0,0,0-.53,1.214,1.138,1.138,0,0,0,1.1.811l0,2.186-1.769,0a4.938,4.938,0,0,0-1.225.183l-.01-4.134a1.008,1.008,0,0,0-1.335-.884c-1.154.428-2.062.868-1.849,1.845a1.127,1.127,0,0,0,1.084.805l.022,3.91a3.173,3.173,0,0,0-.768,4.862l2.081,2.265a3.179,3.179,0,0,0,4.158.606,3.3,3.3,0,0,0,4.495-.56c.237-.262.916-.183,1.23-.087a7.813,7.813,0,0,0,3.923,2.925,1.394,1.394,0,0,1-.136,1.088,1.178,1.178,0,0,1-1,.455H1.157A1.078,1.078,0,0,1,0,35.136V1.056A1.042,1.042,0,0,1,.953.008L19.806,0l.01,6.94c0,.558.638.922,1.129.911h7.177l.005,2.207,1.957-.007a1.1,1.1,0,0,0,1.094-1.048l0-4.289A2.475,2.475,0,1,1,34.625,1.84,2.454,2.454,0,0,1,33.29,4.707l0,4.214a3.173,3.173,0,0,1-3.218,3.235l-1.95-.007v2.069l3.36-.007a2.454,2.454,0,0,1,2.786-1.354,2.473,2.473,0,1,1-2.79,3.468H28.128v3.549A7.824,7.824,0,0,0,24.12,22.92l-3.984.006V19.078a1.071,1.071,0,0,0-1.323-1.042M9.6,7.052a1.051,1.051,0,0,0,.927-1.142,1.078,1.078,0,0,0-1.191-.949L4.77,4.983a1.028,1.028,0,0,0-.879,1.078,1.044,1.044,0,0,0,.979,1ZM5.033,15.244a1.039,1.039,0,0,0,1.131.935,1.083,1.083,0,0,0,.977-.958l.016-5.168A1.216,1.216,0,0,0,6.7,9.181a1.174,1.174,0,0,0-1.047-.12l-1.193.594a1.077,1.077,0,0,0-.532,1.265A1.2,1.2,0,0,0,5,11.693ZM15.01,12.5a3.013,3.013,0,0,0-3.036-3.508,3.051,3.051,0,0,0-2.964,3.56,3.06,3.06,0,1,0,6-.052m3.048,2.792a1,1,0,0,0,1.07.89,1.03,1.03,0,0,0,1-.93l.008-5.3a1.105,1.105,0,0,0-.452-.786,1.244,1.244,0,0,0-.967-.119l-1.324.677a1.035,1.035,0,0,0-.428,1.251,1.093,1.093,0,0,0,1.069.7Zm-8.134,6.23a3,3,0,0,0-3.135-3.469,3.063,3.063,0,0,0-2.873,3.626,3.059,3.059,0,1,0,6.008-.157" transform="translate(0 -0.001)" fill="#1e535a"/>
        <path id="Trazado_1280174" data-name="Trazado 1280174" d="M134.147,217.41a1.063,1.063,0,0,1-1.523.153l-2.3-2.464a1.036,1.036,0,0,1,.174-1.5l1.558-1.269.625-.283h9.268a5.662,5.662,0,1,1,.007,4.55l-2.748,0a1.452,1.452,0,0,0-.7.327l-.716.644c-1.209,1.088-1.813-.46-2.6-.591a1.17,1.17,0,0,0-1.044.433m15.657-3.087a1.057,1.057,0,1,0-1.057,1.057,1.057,1.057,0,0,0,1.057-1.057" transform="translate(-116.585 -187.036)" fill="#1e535a"/>
        <path id="Trazado_1280175" data-name="Trazado 1280175" d="M216.7,10.857l-5.534.03.012-5.122Z" transform="translate(-189.268 -5.168)" fill="#1e535a"/>
        <path id="Trazado_1280176" data-name="Trazado 1280176" d="M59.931,196.336a.911.911,0,0,1-1.817.064l.018-1.431c.006-.467.555-.742.943-.714a.908.908,0,0,1,.851.821Z" transform="translate(-52.088 -174.108)" fill="#1e535a"/>
        <path id="Trazado_1280177" data-name="Trazado 1280177" d="M108.849,109.182a.914.914,0,0,1-1.825-.047L107.018,108a.923.923,0,1,1,1.845.011Z" transform="translate(-95.919 -95.97)" fill="#1e535a"/>
      </g>
    </g>
  </g>
</svg>
