<svg xmlns="http://www.w3.org/2000/svg" xmlns:xlink="http://www.w3.org/1999/xlink" width="96" height="96" viewBox="0 0 96 96">
  <defs>
    <clipPath id="clip-path">
      <rect id="Rectángulo_454829" data-name="Rectángulo 454829" width="96" height="96" fill="#1e535a"/>
    </clipPath>
    <clipPath id="clip-path-2">
      <rect id="Rectángulo_463133" data-name="Rectángulo 463133" width="40.592" height="40.574" fill="#1e535a"/>
    </clipPath>
  </defs>
  <g id="Grupo_1211069" data-name="Grupo 1211069" transform="translate(-1481 -8562.5)">
    <g id="Grupo_1177591" data-name="Grupo 1177591" transform="translate(1481 8562.5)">
      <g id="Grupo_1177589" data-name="Grupo 1177589" transform="translate(0 0)">
        <g id="Grupo_1177587" data-name="Grupo 1177587" clip-path="url(#clip-path)">
          <path id="Trazado_997422" data-name="Trazado 997422" d="M92.081,42.491a44.136,44.136,0,0,0-9.97-22.967,5.076,5.076,0,0,0-7.142-6.838A44.071,44.071,0,0,0,52.151,3.77a5.077,5.077,0,0,0-9.861.2A44.132,44.132,0,0,0,20.4,13.329a5.079,5.079,0,0,0-7.048,7.1A44.1,44.1,0,0,0,4.112,42.448,5.08,5.08,0,0,0,3.99,52.4a44.082,44.082,0,0,0,8.949,22.468,5.078,5.078,0,0,0,6.9,7.17,44.128,44.128,0,0,0,22.412,9.8,5.078,5.078,0,0,0,9.949.2,44.091,44.091,0,0,0,22.985-9.08,5.077,5.077,0,0,0,7.107-6.874A44.147,44.147,0,0,0,92.2,52.349a5.078,5.078,0,0,0-.119-9.858M77.74,22.024a5.05,5.05,0,0,0,2.812-.851,41.913,41.913,0,0,1,9.25,21.3,5.086,5.086,0,0,0-3.246,2.351l-12.98-4.867c.01-.142.02-.286.02-.433a5.079,5.079,0,0,0-2.151-4.15l5.678-13.4a5.5,5.5,0,0,0,.616.041M75,21.216,69.354,34.523a5.026,5.026,0,0,0-5.594,3.23L40.279,32.344a4.941,4.941,0,0,0-.106-1.011l33.322-11.6A5.1,5.1,0,0,0,75,21.216M47.246,10.165a5.083,5.083,0,0,0,4.989-4.122,41.844,41.844,0,0,1,21.158,8.275,5.054,5.054,0,0,0-.735,2.625,5.335,5.335,0,0,0,.048.671L39.217,29.273a5.1,5.1,0,0,0-.92-.92l8.784-18.2c.056,0,.109.008.165.008M42.3,6.243A5.083,5.083,0,0,0,44.86,9.569L36.248,27.4a5.1,5.1,0,0,0-1.049-.109,5.045,5.045,0,0,0-2.9.91L22.1,19.678A5.052,5.052,0,0,0,21.923,15,41.877,41.877,0,0,1,42.3,6.243M10.041,46.332,31.153,35.442a5.064,5.064,0,0,0,4.006,2.014l7.236,23.129a5.166,5.166,0,0,0-1.12,1.239l-31.3-13.04a5.048,5.048,0,0,0,.187-1.348,5.107,5.107,0,0,0-.124-1.1m4.986-24.391a5.079,5.079,0,0,0,5.673-.484l10.079,8.417a5.068,5.068,0,0,0-.56,3.512L9.07,44.29A5.081,5.081,0,0,0,6.38,42.526a41.859,41.859,0,0,1,8.647-20.585m2.1,50.717a5.067,5.067,0,0,0-2.523.674A41.822,41.822,0,0,1,6.263,52.374,5.087,5.087,0,0,0,8.9,50.783l31.609,13.17a5.45,5.45,0,0,0-.041.611,5.081,5.081,0,0,0,.3,1.718L21.657,75.44a5.081,5.081,0,0,0-4.528-2.782M42.349,89.575a41.919,41.919,0,0,1-20.912-9.149,5.029,5.029,0,0,0,.775-2.686l0-.058L42,68.2A5.082,5.082,0,0,0,43.8,69.329l1.186,17.043a5.082,5.082,0,0,0-2.632,3.2m2.105-29.97-7.081-22.64a5.089,5.089,0,0,0,2.415-2.415L63.459,40a5.052,5.052,0,0,0,.808,2.311L48.032,60.13a5.019,5.019,0,0,0-3.577-.524m7.74,30.167a5.081,5.081,0,0,0-4.948-3.937l-.038,0L46.081,69.62a5.073,5.073,0,0,0,3.106-1.507L72.853,78.551c0,.046-.008.086-.008.132a5.057,5.057,0,0,0,.752,2.65,41.841,41.841,0,0,1-21.4,8.439M73.423,76.334,50.373,66.165a5.052,5.052,0,0,0-.666-4.52L65.893,43.877a5.052,5.052,0,0,0,2.622.735,5.594,5.594,0,0,0,.623-.041l6.05,29.836a5.071,5.071,0,0,0-1.766,1.928m7.292-1.9a5.051,5.051,0,0,0-3.377-.8L71.285,43.788a5.1,5.1,0,0,0,1.6-1.672L85.858,46.98a4.506,4.506,0,0,0-.023.456,5.08,5.08,0,0,0,4.084,4.981,41.876,41.876,0,0,1-9.2,22.017" transform="translate(0 0.001)" fill="#1e535a"/>
        </g>
      </g>
    </g>
    <g id="Elipse_13614" data-name="Elipse 13614" transform="translate(1497.965 8578.952)" fill="#d5f4f8" stroke="#1e535a" stroke-width="3">
      <ellipse cx="31.232" cy="31.233" rx="31.232" ry="31.233" stroke="none"/>
      <ellipse cx="31.232" cy="31.233" rx="29.732" ry="29.733" fill="none"/>
    </g>
    <g id="Grupo_1213424" data-name="Grupo 1213424" transform="translate(1508.965 8589.952)">
      <g id="Grupo_1213423" data-name="Grupo 1213423" clip-path="url(#clip-path-2)">
        <path id="Trazado_1280171" data-name="Trazado 1280171" d="M26.695,40.573l-12.99-.009A5.2,5.2,0,0,1,10.195,38.9L1.481,30.177A5.078,5.078,0,0,1,.01,26.74L0,13.958a5.4,5.4,0,0,1,1.673-3.787l8.45-8.447A5.283,5.283,0,0,1,13.707.007L26.754,0a5.216,5.216,0,0,1,3.583,1.592l8.581,8.58a5.408,5.408,0,0,1,1.674,3.788V26.6a5.41,5.41,0,0,1-1.675,3.787L30.4,38.9a5.3,5.3,0,0,1-3.707,1.671m-2.55-5.757a5.612,5.612,0,0,0,5.182-3.511l1.582-3.486a16.664,16.664,0,0,0,1.7-6.938l-.01-5.323a2.882,2.882,0,0,0-1.6-2.364,3.137,3.137,0,0,0-3.021.086l-.022-1.591a3.016,3.016,0,0,0-1.512-2.458,3.3,3.3,0,0,0-3.125-.006,3.086,3.086,0,0,0-2.7-3.437,3.049,3.049,0,0,0-3.344,2.426,10.368,10.368,0,0,0-.1,1.511,2.886,2.886,0,0,0-2.923.145,2.842,2.842,0,0,0-1.258,2.36l-.006,6.839a3.356,3.356,0,0,0-3.4-.026,3.127,3.127,0,0,0-1.594,2.5c-.023,1.353-.05,2.643,0,4a9.711,9.711,0,0,0,4.85,7.9A6.646,6.646,0,0,0,16.156,34.8Z" transform="translate(0 0.001)" fill="#1e535a"/>
        <path id="Trazado_1280172" data-name="Trazado 1280172" d="M72.3,76.872a7.926,7.926,0,0,1-1.543-3.951,43.851,43.851,0,0,1-.017-4.409,1.74,1.74,0,0,1,1.909-1.486A1.807,1.807,0,0,1,74.27,68.81l0,3.726a.825.825,0,0,0,.716.751l2.537.034a3.557,3.557,0,0,1,3.371,3.53.8.8,0,0,0,.7.8.748.748,0,0,0,.756-.745,5.046,5.046,0,0,0-4.826-5.05l-1.8-.029V59.209a1.353,1.353,0,0,1,1.322-1.371,1.317,1.317,0,0,1,1.415,1.232l.027,8.467c0,.219.495.535.711.54.249.005.717-.289.718-.621l.008-11.708a1.6,1.6,0,0,1,1.644-1.559,1.625,1.625,0,0,1,1.567,1.687l0,11.8c0,.319.473.678.72.679a.814.814,0,0,0,.735-.759l0-8.776a1.571,1.571,0,0,1,1.527-1.576A1.6,1.6,0,0,1,87.8,58.8l.005,7.969a.794.794,0,0,0,.609.768c.3.065.817-.225.818-.6l.01-4.008a1.579,1.579,0,0,1,1.4-1.636,1.535,1.535,0,0,1,1.763,1.245c.153,3.063.2,7.756-.957,10.326l-2.194,4.872a4.033,4.033,0,0,1-3.527,2.577l-7.81.034a4.647,4.647,0,0,1-2.58-.862,10.218,10.218,0,0,1-3.04-2.613" transform="translate(-61.281 -46.974)" fill="#1e535a"/>
      </g>
    </g>
  </g>
</svg>
