<svg xmlns="http://www.w3.org/2000/svg" xmlns:xlink="http://www.w3.org/1999/xlink" width="96" height="96" viewBox="0 0 96 96">
  <defs>
    <clipPath id="clip-path">
      <rect id="Rectángulo_454829" data-name="Rectángulo 454829" width="96" height="96" fill="#1e535a"/>
    </clipPath>
    <clipPath id="clip-path-2">
      <rect id="Rectángulo_460209" data-name="Rectángulo 460209" width="36" height="32.519" fill="#1e535a"/>
    </clipPath>
  </defs>
  <g id="Grupo_1210232" data-name="Grupo 1210232" transform="translate(-1481 -8562.5)">
    <g id="Grupo_1177591" data-name="Grupo 1177591" transform="translate(1481 8562.5)">
      <g id="Grupo_1177589" data-name="Grupo 1177589" transform="translate(0 0)">
        <g id="Grupo_1177587" data-name="Grupo 1177587" clip-path="url(#clip-path)">
          <path id="Trazado_997422" data-name="Trazado 997422" d="M92.081,42.491a44.136,44.136,0,0,0-9.97-22.967,5.076,5.076,0,0,0-7.142-6.838A44.071,44.071,0,0,0,52.151,3.77a5.077,5.077,0,0,0-9.861.2A44.132,44.132,0,0,0,20.4,13.329a5.079,5.079,0,0,0-7.048,7.1A44.1,44.1,0,0,0,4.112,42.448,5.08,5.08,0,0,0,3.99,52.4a44.082,44.082,0,0,0,8.949,22.468,5.078,5.078,0,0,0,6.9,7.17,44.128,44.128,0,0,0,22.412,9.8,5.078,5.078,0,0,0,9.949.2,44.091,44.091,0,0,0,22.985-9.08,5.077,5.077,0,0,0,7.107-6.874A44.147,44.147,0,0,0,92.2,52.349a5.078,5.078,0,0,0-.119-9.858M77.74,22.024a5.05,5.05,0,0,0,2.812-.851,41.913,41.913,0,0,1,9.25,21.3,5.086,5.086,0,0,0-3.246,2.351l-12.98-4.867c.01-.142.02-.286.02-.433a5.079,5.079,0,0,0-2.151-4.15l5.678-13.4a5.5,5.5,0,0,0,.616.041M75,21.216,69.354,34.523a5.026,5.026,0,0,0-5.594,3.23L40.279,32.344a4.941,4.941,0,0,0-.106-1.011l33.322-11.6A5.1,5.1,0,0,0,75,21.216M47.246,10.165a5.083,5.083,0,0,0,4.989-4.122,41.844,41.844,0,0,1,21.158,8.275,5.054,5.054,0,0,0-.735,2.625,5.335,5.335,0,0,0,.048.671L39.217,29.273a5.1,5.1,0,0,0-.92-.92l8.784-18.2c.056,0,.109.008.165.008M42.3,6.243A5.083,5.083,0,0,0,44.86,9.569L36.248,27.4a5.1,5.1,0,0,0-1.049-.109,5.045,5.045,0,0,0-2.9.91L22.1,19.678A5.052,5.052,0,0,0,21.923,15,41.877,41.877,0,0,1,42.3,6.243M10.041,46.332,31.153,35.442a5.064,5.064,0,0,0,4.006,2.014l7.236,23.129a5.166,5.166,0,0,0-1.12,1.239l-31.3-13.04a5.048,5.048,0,0,0,.187-1.348,5.107,5.107,0,0,0-.124-1.1m4.986-24.391a5.079,5.079,0,0,0,5.673-.484l10.079,8.417a5.068,5.068,0,0,0-.56,3.512L9.07,44.29A5.081,5.081,0,0,0,6.38,42.526a41.859,41.859,0,0,1,8.647-20.585m2.1,50.717a5.067,5.067,0,0,0-2.523.674A41.822,41.822,0,0,1,6.263,52.374,5.087,5.087,0,0,0,8.9,50.783l31.609,13.17a5.45,5.45,0,0,0-.041.611,5.081,5.081,0,0,0,.3,1.718L21.657,75.44a5.081,5.081,0,0,0-4.528-2.782M42.349,89.575a41.919,41.919,0,0,1-20.912-9.149,5.029,5.029,0,0,0,.775-2.686l0-.058L42,68.2A5.082,5.082,0,0,0,43.8,69.329l1.186,17.043a5.082,5.082,0,0,0-2.632,3.2m2.105-29.97-7.081-22.64a5.089,5.089,0,0,0,2.415-2.415L63.459,40a5.052,5.052,0,0,0,.808,2.311L48.032,60.13a5.019,5.019,0,0,0-3.577-.524m7.74,30.167a5.081,5.081,0,0,0-4.948-3.937l-.038,0L46.081,69.62a5.073,5.073,0,0,0,3.106-1.507L72.853,78.551c0,.046-.008.086-.008.132a5.057,5.057,0,0,0,.752,2.65,41.841,41.841,0,0,1-21.4,8.439M73.423,76.334,50.373,66.165a5.052,5.052,0,0,0-.666-4.52L65.893,43.877a5.052,5.052,0,0,0,2.622.735,5.594,5.594,0,0,0,.623-.041l6.05,29.836a5.071,5.071,0,0,0-1.766,1.928m7.292-1.9a5.051,5.051,0,0,0-3.377-.8L71.285,43.788a5.1,5.1,0,0,0,1.6-1.672L85.858,46.98a4.506,4.506,0,0,0-.023.456,5.08,5.08,0,0,0,4.084,4.981,41.876,41.876,0,0,1-9.2,22.017" transform="translate(0 0.001)" fill="#1e535a"/>
        </g>
      </g>
    </g>
    <g id="Elipse_13614" data-name="Elipse 13614" transform="translate(1497.965 8579)" fill="#d5f4f8" stroke="#1e535a" stroke-width="3">
      <ellipse cx="31.232" cy="31.233" rx="31.232" ry="31.233" stroke="none"/>
      <ellipse cx="31.232" cy="31.233" rx="29.732" ry="29.733" fill="none"/>
    </g>
    <g id="Grupo_1210255" data-name="Grupo 1210255" transform="translate(1510.965 8594)">
      <g id="Grupo_1210254" data-name="Grupo 1210254" clip-path="url(#clip-path-2)">
        <path id="Trazado_1272111" data-name="Trazado 1272111" d="M36.038,22.05c-.254.068-.182-.066-.246-.138A8.109,8.109,0,0,0,33.177,19.7a7.594,7.594,0,0,0-9.872,3H.2l-.161-.161V1.9A2.117,2.117,0,0,1,1.414.159C12.162-.159,22.963.118,33.732.019a2.244,2.244,0,0,1,2.006,1,3.98,3.98,0,0,1,.3.882ZM19.383,3.784H16.7l-.064,1.3a8.335,8.335,0,0,0-2.266.938c-.4-.046-.757-1.022-1.165-.742a17.788,17.788,0,0,0-1.655,1.687l.837,1.042-.967,2.314-1.275.014v2.686l1.3.063a6.785,6.785,0,0,0,.94,2.266c-.062.418-1.024.76-.744,1.167a17.787,17.787,0,0,0,1.687,1.655l1.041-.837a7.429,7.429,0,0,0,2.315.966l.014,1.275h2.686L19.4,18.3a7.426,7.426,0,0,0,2.315-.966l1.041.837a17.775,17.775,0,0,0,1.687-1.655c.28-.407-.682-.749-.744-1.167a6.783,6.783,0,0,0,.94-2.266l1.3-.063V10.338l-1.3-.064A7.7,7.7,0,0,0,23.7,8.01c.062-.418,1.024-.76.744-1.167a17.773,17.773,0,0,0-1.687-1.654l-1.042.837L19.4,5.058Z" transform="translate(-0.037 -0.001)" fill="#1e535a"/>
        <path id="Trazado_1272112" data-name="Trazado 1272112" d="M226.295,188.189c8.391-.826,9.107,12.262.613,12.265-7.756,0-8.273-11.511-.613-12.265m-2.05,5.266a.918.918,0,0,0-1.426,1.048c.554.55,1.8,2.644,2.445,2.827a.843.843,0,0,0,.843-.2,53.439,53.439,0,0,0,4.4-4.41.874.874,0,0,0-1.115-1.329l-3.774,3.744c-.2,0-1.135-1.493-1.374-1.684" transform="translate(-197.086 -167.935)" fill="#1e535a"/>
        <path id="Trazado_1272113" data-name="Trazado 1272113" d="M22.784,223.209a6.069,6.069,0,0,0-.429,2.364l-20.474,0C.559,225.59-.059,224.4.005,223.209Z" transform="translate(-0.001 -199.225)" fill="#1e535a"/>
        <path id="Trazado_1272114" data-name="Trazado 1272114" d="M96.085,261.335H81.042l1.709-2.939,11.977-.055.126.088a7.427,7.427,0,0,0,1.231,2.906" transform="translate(-72.334 -230.581)" fill="#1e535a"/>
        <path id="Trazado_1272115" data-name="Trazado 1272115" d="M133.1,70.142c5.423-.675,6.366,7.619,1.036,8.234-5.47.631-6.393-7.568-1.036-8.234" transform="translate(-115.603 -62.57)" fill="#1e535a"/>
      </g>
    </g>
  </g>
</svg>
