<svg id="Grupo_1212451" data-name="Grupo 1212451" xmlns="http://www.w3.org/2000/svg" xmlns:xlink="http://www.w3.org/1999/xlink" width="396" height="282.999" viewBox="0 0 396 282.999">
  <defs>
    <clipPath id="clip-path">
      <rect id="Rectángulo_463050" data-name="Rectángulo 463050" width="312" height="278.834" fill="none"/>
    </clipPath>
    <clipPath id="clip-path-3">
      <rect id="Rectángulo_463003" data-name="Rectángulo 463003" width="264.877" height="264.877" fill="none"/>
    </clipPath>
    <clipPath id="clip-path-5">
      <rect id="Rectángulo_463005" data-name="Rectángulo 463005" width="312" height="44.021" fill="none"/>
    </clipPath>
    <clipPath id="clip-path-6">
      <rect id="Rectángulo_463006" data-name="Rectángulo 463006" width="57.937" height="100.928" fill="none"/>
    </clipPath>
    <clipPath id="clip-path-7">
      <rect id="Rectángulo_463007" data-name="Rectángulo 463007" width="43.244" height="60.271" fill="none"/>
    </clipPath>
    <clipPath id="clip-path-8">
      <rect id="Rectángulo_463008" data-name="Rectángulo 463008" width="5.385" height="14.289" fill="none"/>
    </clipPath>
    <clipPath id="clip-path-9">
      <rect id="Rectángulo_463009" data-name="Rectángulo 463009" width="30.506" height="5.536" fill="none"/>
    </clipPath>
    <clipPath id="clip-path-10">
      <rect id="Rectángulo_463010" data-name="Rectángulo 463010" width="3.926" height="9.246" fill="none"/>
    </clipPath>
    <clipPath id="clip-path-11">
      <rect id="Rectángulo_463011" data-name="Rectángulo 463011" width="128.16" height="82.948" fill="none"/>
    </clipPath>
    <clipPath id="clip-path-12">
      <rect id="Rectángulo_463012" data-name="Rectángulo 463012" width="10.639" height="5.863" fill="none"/>
    </clipPath>
    <clipPath id="clip-path-13">
      <rect id="Rectángulo_463013" data-name="Rectángulo 463013" width="11.866" height="7.002" fill="none"/>
    </clipPath>
    <clipPath id="clip-path-14">
      <rect id="Rectángulo_463014" data-name="Rectángulo 463014" width="10.658" height="5.895" fill="none"/>
    </clipPath>
    <clipPath id="clip-path-15">
      <rect id="Rectángulo_463015" data-name="Rectángulo 463015" width="9.334" height="13.046" fill="none"/>
    </clipPath>
    <clipPath id="clip-path-16">
      <rect id="Rectángulo_463016" data-name="Rectángulo 463016" width="2.451" height="2.49" fill="none"/>
    </clipPath>
    <clipPath id="clip-path-17">
      <rect id="Rectángulo_463017" data-name="Rectángulo 463017" width="2.028" height="4.818" fill="none"/>
    </clipPath>
    <clipPath id="clip-path-18">
      <rect id="Rectángulo_463018" data-name="Rectángulo 463018" width="6.717" height="7.18" fill="none"/>
    </clipPath>
    <clipPath id="clip-path-19">
      <rect id="Rectángulo_463019" data-name="Rectángulo 463019" width="3.733" height="21.775" fill="none"/>
    </clipPath>
    <clipPath id="clip-path-20">
      <rect id="Rectángulo_463020" data-name="Rectángulo 463020" width="1.926" height="12.082" fill="none"/>
    </clipPath>
    <clipPath id="clip-path-21">
      <rect id="Rectángulo_463021" data-name="Rectángulo 463021" width="20.463" height="4.018" fill="none"/>
    </clipPath>
    <clipPath id="clip-path-22">
      <rect id="Rectángulo_463022" data-name="Rectángulo 463022" width="28.731" height="10.889" fill="none"/>
    </clipPath>
    <clipPath id="clip-path-23">
      <rect id="Rectángulo_463023" data-name="Rectángulo 463023" width="22.577" height="11.385" fill="none"/>
    </clipPath>
    <clipPath id="clip-path-24">
      <rect id="Rectángulo_463024" data-name="Rectángulo 463024" width="15.523" height="1.64" fill="none"/>
    </clipPath>
    <clipPath id="clip-path-25">
      <rect id="Rectángulo_463025" data-name="Rectángulo 463025" width="6.83" height="26.432" fill="none"/>
    </clipPath>
    <clipPath id="clip-path-26">
      <rect id="Rectángulo_463026" data-name="Rectángulo 463026" width="0.706" height="2.963" fill="none"/>
    </clipPath>
    <clipPath id="clip-path-27">
      <rect id="Rectángulo_463027" data-name="Rectángulo 463027" width="39.025" height="46.857" fill="none"/>
    </clipPath>
    <clipPath id="clip-path-28">
      <rect id="Rectángulo_463043" data-name="Rectángulo 463043" width="90.172" height="56.007" fill="none"/>
    </clipPath>
  </defs>
  <path id="Trazado_1272217" data-name="Trazado 1272217" d="M198-.931C321-88,396,52.346,396,118.066s-15,117.707-198,119S0,183.787,0,118.066,75,86.14,198-.931Z" transform="translate(0 45.913)" fill="#ffe79e"/>
  <g id="Grupo_1213317" data-name="Grupo 1213317" transform="translate(42 0)">
    <g id="Grupo_1213316" data-name="Grupo 1213316" clip-path="url(#clip-path)">
      <g id="Grupo_1213241" data-name="Grupo 1213241">
        <g id="Grupo_1213240" data-name="Grupo 1213240" clip-path="url(#clip-path)">
          <g id="Grupo_1213239" data-name="Grupo 1213239" transform="translate(23.561 3.749)" opacity="0.37">
            <g id="Grupo_1213238" data-name="Grupo 1213238">
              <g id="Grupo_1213237" data-name="Grupo 1213237" clip-path="url(#clip-path-3)">
                <path id="Trazado_1279655" data-name="Trazado 1279655" d="M162.846,4.838A132.439,132.439,0,1,1,30.407,137.277,132.438,132.438,0,0,1,162.846,4.838" transform="translate(-30.407 -4.838)" fill="#fff"/>
              </g>
            </g>
          </g>
        </g>
      </g>
      <g id="Grupo_1213315" data-name="Grupo 1213315">
        <g id="Grupo_1213314" data-name="Grupo 1213314" clip-path="url(#clip-path)">
          <path id="Trazado_1279656" data-name="Trazado 1279656" d="M22.011,338.061H289.99a22.011,22.011,0,0,0,0-44.022H22.011a22.011,22.011,0,1,0,0,44.022" transform="translate(0 -66.198)" fill="#4343a8"/>
          <g id="Grupo_1213244" data-name="Grupo 1213244" transform="translate(0 227.841)" opacity="0.38" style="mix-blend-mode: multiply;isolation: isolate">
            <g id="Grupo_1213243" data-name="Grupo 1213243">
              <g id="Grupo_1213242" data-name="Grupo 1213242" clip-path="url(#clip-path-5)">
                <path id="Trazado_1279657" data-name="Trazado 1279657" d="M22.011,338.061H289.99a22.011,22.011,0,0,0,0-44.022H154.073a22.01,22.01,0,0,1-22.01,22.011H0a22.011,22.011,0,0,0,22.011,22.011" transform="translate(0 -294.039)" fill="#4343a8"/>
              </g>
            </g>
          </g>
          <path id="Trazado_1279658" data-name="Trazado 1279658" d="M333.355,178.113c6.414,15.808-4.488,33.752-18.7,41.018-13.04,6.666-30.207,6.359-41.248-4.015a46.482,46.482,0,0,1-9.847-14.247c-4.221-8.951-3.389-17.55-1.388-26.98q3.467-16.342,6.935-32.683c1.288-6.069,2.829-12.581,7.508-16.655,3.926-3.415,9.251-4.379,14.28-4.789,5.385-.439,10.991-.677,16.213.983a17.767,17.767,0,0,1,4.9,2.318c4.548,3.21,6.509,8.975,7.4,14.468.641,3.94.876,7.947,1.744,11.85a80.1,80.1,0,0,0,3.318,10.458c2.379,6.345,6.329,11.994,8.877,18.274" transform="translate(-225.111 -26.89)" fill="#221f4c"/>
          <g id="Grupo_1213247" data-name="Grupo 1213247" transform="translate(46.256 92.217)" style="mix-blend-mode: multiply;isolation: isolate">
            <g id="Grupo_1213246" data-name="Grupo 1213246">
              <g id="Grupo_1213245" data-name="Grupo 1213245" clip-path="url(#clip-path-6)">
                <path id="Trazado_1279659" data-name="Trazado 1279659" d="M325.717,178.744c1.575,9.184-1.561,18.98-7.6,26.149-6.571,7.806-16.236,12.64-26.264,14.525a18.356,18.356,0,0,1-8.337.06,15.92,15.92,0,0,1-6.63-4.182,29.151,29.151,0,0,1-8.622-19.217c-.489-10.2,4.421-20.035,4.255-30.245a13.756,13.756,0,0,0-.8-4.848c-.566-1.434-1.5-2.695-2.125-4.1a21.279,21.279,0,0,1-1.35-7.587,12.885,12.885,0,0,1,.368-4.929,4.39,4.39,0,0,1,3.525-3.107,26.561,26.561,0,0,0,6.683,9.971,9.414,9.414,0,0,0,3.643,2.329,4.175,4.175,0,0,0,4.079-.816,5.8,5.8,0,0,0,1.347-3.329,28.945,28.945,0,0,0-.942-12.833c-.846-2.752-2.108-5.395-2.539-8.241-.514-3.4.463-7.711,4.031-8.729,4.462-1.273,11.149-.342,15.48,1.034a17.767,17.767,0,0,1,4.9,2.318c10.47,7.391,6.364,26.47,9.913,37.36,1.781,5.467,4.951,10.43,6.441,15.984q.324,1.208.534,2.435" transform="translate(-268.184 -119.01)" fill="#221f4c"/>
              </g>
            </g>
          </g>
          <path id="Trazado_1279660" data-name="Trazado 1279660" d="M299.8,168.384a1.445,1.445,0,0,0-.2-.807,1.525,1.525,0,0,0-.768-.441c-4.916-1.706-8.681-6.71-8.328-11.9a3.131,3.131,0,0,1-3.669,1.6,6.369,6.369,0,0,1-3.391-2.621,13.932,13.932,0,0,1-2.515-9.907c.247-1.874,1.093-3.813,3.063-4.386a3.42,3.42,0,0,1,3.689,1.886c-.6-1.1-.319-3.351-.352-4.559a20.452,20.452,0,0,1,.635-5.972,13.169,13.169,0,0,1,7.715-8.785,27.472,27.472,0,0,1,11.439-1.69,24.58,24.58,0,0,1,9.809,2.115,14.774,14.774,0,0,1,7.081,8.533c1.324,4.2.631,8.768,1.473,13.086.538,2.758,1.69,5.355,2.4,8.072,1.632,6.2-.8,11.478-6.757,13.985a44.086,44.086,0,0,1-9.73,2.335.915.915,0,0,0-.574.248.858.858,0,0,0-.151.422c-.5,3.236-.622,7.159.811,10.192a18.8,18.8,0,0,1-12.115.472c2.31-2.031.561-9.157.43-11.872" transform="translate(-233.978 -27.189)" fill="#c25b42"/>
          <g id="Grupo_1213250" data-name="Grupo 1213250" transform="translate(46.837 93.578)" opacity="0.32" style="mix-blend-mode: multiply;isolation: isolate">
            <g id="Grupo_1213249" data-name="Grupo 1213249">
              <g id="Grupo_1213248" data-name="Grupo 1213248" clip-path="url(#clip-path-7)">
                <path id="Trazado_1279661" data-name="Trazado 1279661" d="M305.383,168.384a1.444,1.444,0,0,0-.2-.807,1.525,1.525,0,0,0-.768-.441c-4.916-1.706-8.681-6.71-8.327-11.9a3.131,3.131,0,0,1-3.669,1.6,6.369,6.369,0,0,1-3.391-2.621,13.932,13.932,0,0,1-2.515-9.907c.247-1.874,1.093-3.813,3.063-4.386a3.42,3.42,0,0,1,3.689,1.886c-.6-1.1-.319-3.351-.352-4.559a20.452,20.452,0,0,1,.635-5.972,13.169,13.169,0,0,1,7.715-8.785A27.472,27.472,0,0,1,312.7,120.8a24.58,24.58,0,0,1,9.809,2.115c3.962,1.916,5.017,5.213,7.13,8.617-.429-1.887-2.447-3-4.363-3.271s-3.873.057-5.8-.15-3.986-1.161-4.6-3c-.914,2.153-1.827,4.306-2.827,6.42a14.989,14.989,0,0,1-3.557,5.223c-1.427,1.2-3.011,1.251-3.2,3.426-.813,9.31-.893,23.8,10.429,26.331,4.156.93,8.5.177,12.6-.972-1.612.451-3.045,1.736-4.781,2.19-2.153.562-4.376.814-6.565,1.192a.915.915,0,0,0-.574.248.858.858,0,0,0-.151.422c-.5,3.236-.622,7.159.811,10.192a18.8,18.8,0,0,1-12.115.472c2.31-2.031.561-9.157.43-11.872" transform="translate(-286.396 -120.767)" fill="#c25b42"/>
              </g>
            </g>
          </g>
          <g id="Grupo_1213253" data-name="Grupo 1213253" transform="translate(81.074 109.259)" style="mix-blend-mode: multiply;isolation: isolate">
            <g id="Grupo_1213252" data-name="Grupo 1213252">
              <g id="Grupo_1213251" data-name="Grupo 1213251" clip-path="url(#clip-path-8)">
                <path id="Trazado_1279662" data-name="Trazado 1279662" d="M292.4,141a17.725,17.725,0,0,0-1.192,4.366,8.939,8.939,0,0,0-.1,2.366,4.937,4.937,0,0,0,.938,2.37,4.5,4.5,0,0,0,.958.9,9.466,9.466,0,0,0,1.031.594,8.916,8.916,0,0,1,.909.5,2.3,2.3,0,0,1,.318.242.245.245,0,0,1,.1.159,1.36,1.36,0,0,1-.225.77,3.893,3.893,0,0,1-2.324,2.02,3.573,3.573,0,0,0,2.23-.663,4.714,4.714,0,0,0,.865-.861,2.224,2.224,0,0,0,.546-1.287,1.394,1.394,0,0,0-.271-.869,2.789,2.789,0,0,0-.511-.5,10.08,10.08,0,0,0-.989-.669,4.48,4.48,0,0,1-1.528-1.191,5.744,5.744,0,0,1-.862-3.793Z" transform="translate(-291.071 -141.004)" fill="#c25b42"/>
              </g>
            </g>
          </g>
          <path id="Trazado_1279663" data-name="Trazado 1279663" d="M288.886,162.441a10.006,10.006,0,0,0,5.536,5.148,6.793,6.793,0,0,0,3.531.42c2.817-.5,4.925-3.609,6.27-5.915-5.163.671-10.15,1.2-15.337.347" transform="translate(-216.071 -36.493)" fill="#fff"/>
          <path id="Trazado_1279664" data-name="Trazado 1279664" d="M288.886,162.441a10.006,10.006,0,0,0,5.536,5.148,6.793,6.793,0,0,0,3.531.42c2.817-.5,4.925-3.609,6.27-5.915C299.06,162.765,294.073,163.29,288.886,162.441Z" transform="translate(-216.071 -36.493)" fill="none" stroke="#631c13" stroke-miterlimit="10" stroke-width="0.903"/>
          <path id="Trazado_1279665" data-name="Trazado 1279665" d="M314.233,149.844c-.06-1.113-.45-2.514-1.733-2.693a2.119,2.119,0,0,0-2.145,1.363,4.179,4.179,0,0,0-.236,1.793c.057,1.152.659,2.733,2.07,2.658,1.462-.077,2.108-1.9,2.043-3.121" transform="translate(-242.533 -33.125)"/>
          <path id="Trazado_1279666" data-name="Trazado 1279666" d="M290.758,150.495a4.132,4.132,0,0,0,.141-2.575,1.971,1.971,0,0,0-1.4-1.548,1.624,1.624,0,0,0-1.6.933c-.541,1.061-.447,3.062.514,3.865a1.468,1.468,0,0,0,2.346-.675" transform="translate(-201.868 -32.95)"/>
          <path id="Trazado_1279667" data-name="Trazado 1279667" d="M318.264,138.2A4.037,4.037,0,0,0,317,135.145a4.517,4.517,0,0,0-5.245-.779,4.428,4.428,0,0,0-.769.5,3.663,3.663,0,0,0-.674.659,3.273,3.273,0,0,0-.571,3.325,5.691,5.691,0,0,1,2.038-1.685,4.234,4.234,0,0,1,.489-.191c.181-.048.343-.129.515-.157a4.194,4.194,0,0,1,.963-.157,5.075,5.075,0,0,1,2.022.3,13.243,13.243,0,0,1,2.5,1.241" transform="translate(-246.089 -30.135)" fill="#221f4c"/>
          <path id="Trazado_1279668" data-name="Trazado 1279668" d="M285.215,137.884a5.148,5.148,0,0,1,1.932-.552,4.784,4.784,0,0,1,1.275.054,4.947,4.947,0,0,1,1.216.378,5.2,5.2,0,0,1,1.639,1.165,2.476,2.476,0,0,0,0-2.633,3.4,3.4,0,0,0-5.178-.89,2.481,2.481,0,0,0-.883,2.478" transform="translate(-200.6 -30.298)" fill="#221f4c"/>
          <g id="Grupo_1213256" data-name="Grupo 1213256" transform="translate(62.545 120.59)" opacity="0.36" style="mix-blend-mode: multiply;isolation: isolate">
            <g id="Grupo_1213255" data-name="Grupo 1213255">
              <g id="Grupo_1213254" data-name="Grupo 1213254" clip-path="url(#clip-path-9)">
                <path id="Trazado_1279669" data-name="Trazado 1279669" d="M313.686,161.185c-1.54.169-5.169.258-5.555-1.926-.425-2.414,3.867-3.1,5.457-3.181,1.558-.077,4.079.263,5.03,1.681a1.521,1.521,0,0,1-.095,1.654,2.694,2.694,0,0,1-.928.667,11.6,11.6,0,0,1-3.909,1.1" transform="translate(-308.101 -155.726)" fill="#fb7a48"/>
                <path id="Trazado_1279670" data-name="Trazado 1279670" d="M287.478,155.889a2.711,2.711,0,0,1,1.3,1.243,1.734,1.734,0,0,1,.163,1.45,2.227,2.227,0,0,1-1.715,1.138c-1.408.3-5.233.339-4.593-2.1a2.327,2.327,0,0,1,.851-1.206,4.289,4.289,0,0,1,3.455-.685,2.687,2.687,0,0,1,.536.164" transform="translate(-258.533 -155.627)" fill="#fb7a48"/>
              </g>
            </g>
          </g>
          <g id="Grupo_1213259" data-name="Grupo 1213259" transform="translate(49.937 116.194)" style="mix-blend-mode: multiply;isolation: isolate">
            <g id="Grupo_1213258" data-name="Grupo 1213258">
              <g id="Grupo_1213257" data-name="Grupo 1213257" clip-path="url(#clip-path-10)">
                <path id="Trazado_1279671" data-name="Trazado 1279671" d="M333.226,150.831a.509.509,0,0,1,.53-.69,1.06,1.06,0,0,1,.787.594,17.769,17.769,0,0,1,.989,2.015,9.547,9.547,0,0,1,.818,4.287,3.8,3.8,0,0,1-.218,1.02,1.945,1.945,0,0,1-.2.418.219.219,0,0,1-.058.057c.005,0,.018.01-.033-.01a2.49,2.49,0,0,1-1.048-1.643,3.121,3.121,0,0,1,.025-2.074.9.9,0,0,1,.811-.5,2.049,2.049,0,0,1,1,.436,1.887,1.887,0,0,0-.984-.621,1.166,1.166,0,0,0-1.116.494,2.105,2.105,0,0,0-.36,1.188,6.051,6.051,0,0,0,.085,1.189,2.938,2.938,0,0,0,1.287,2.125.7.7,0,0,0,.52.061.814.814,0,0,0,.394-.278,2.443,2.443,0,0,0,.315-.6,4.47,4.47,0,0,0,.275-1.2,8.98,8.98,0,0,0-1.018-4.572,13.371,13.371,0,0,0-1.206-1.988,1.313,1.313,0,0,0-1.067-.58c-.451-.01-.786.545-.528.875" transform="translate(-333.136 -149.954)" fill="#c25b42"/>
              </g>
            </g>
          </g>
          <path id="Trazado_1279672" data-name="Trazado 1279672" d="M323.781,127.708c-1.867-1.625-4.48-1.974-6.9-2.5s-5.035-1.5-6.118-3.731a5.611,5.611,0,0,1-5.246,3.158,1.636,1.636,0,0,0-.593.031,1.4,1.4,0,0,0-.582.464c-1.707,1.984-3.072,4.239-4.825,6.185a10.435,10.435,0,0,1-6.687,3.694c-.287,2.74.28,5.278.362,8.028a28.045,28.045,0,0,1-1.256,9.188c.49-1.564-.242-4.321-.68-5.847a19.527,19.527,0,0,0-1.983-4.924,4,4,0,0,0-1.612-1.716c-.3-.128-2.548-.259-2.47.269-.7-4.8-1.328-10.034,1.119-14.226,2.18-3.733,6.378-5.819,10.543-6.976,7.946-2.207,17.6-2.275,24.65,2.41a12.946,12.946,0,0,1,3.936,3.871c2.3,3.737,2.184,9.294,1.314,13.448-.163-3.61.026-8.217-2.972-10.825" transform="translate(-235.828 -26.419)" fill="#221f4c"/>
          <path id="Trazado_1279673" data-name="Trazado 1279673" d="M252.31,222.023c.642,3.607,3.072,6.317,2.248,10.167a8.815,8.815,0,0,1-6.307,6.747,129.3,129.3,0,0,0,7.112,31H199.822c.324-1.807.569-3.629.719-5.459q.063-.764.105-1.527c-2.636-.036-6.345-2.439-8.44-3.959a5.815,5.815,0,0,1-2.016-2.1,6.079,6.079,0,0,1-.239-3.188q1.705-16.171,4.5-32.2c.931-5.337,1.921-10.672,3.064-15.968.875-4.053,2.721-5.371,6.835-6.341l11.193-2.64a6.1,6.1,0,0,1-2.444-1.348c3.19-.782,2.459-3.94,3.5-6.258a2.92,2.92,0,0,1,3.031-1.91,8.68,8.68,0,0,1,2.091,1.214,5.733,5.733,0,0,0,3.064.56,12.778,12.778,0,0,0,3.8-.764,11.577,11.577,0,0,1,2.986-.929c2.464-.194,3.537,1.975,3.585,4.061.018.8,1.01,5.579,2.963,4.027a3.016,3.016,0,0,1-2.42.591q3.629.912,7.311,1.592c1.971.363,4.772.232,6.516,1.19a13.479,13.479,0,0,1,3.722,3.5,207.361,207.361,0,0,0,19.128,20.461c7.728,7.181,15.422,14.412,23.563,21.128,2.975,2.455,6.212,4.639,9.335,6.9,4.645,3.361,9.077,7.027,13.755,10.258a30.371,30.371,0,0,1-9.58,8.181,2.478,2.478,0,0,1-1.136.385A2.573,2.573,0,0,1,307,268.89c-8.137-5.052-15.911-10.544-23.5-16.35-7.026-5.378-12.769-11.508-19.037-17.645-4.113-4.03-8.927-8.078-12.148-12.871" transform="translate(-154.142 -42.098)" fill="#fff"/>
          <g id="Grupo_1213262" data-name="Grupo 1213262" transform="translate(35.714 144.893)" opacity="0.67">
            <g id="Grupo_1213261" data-name="Grupo 1213261">
              <g id="Grupo_1213260" data-name="Grupo 1213260" clip-path="url(#clip-path-11)">
                <path id="Trazado_1279674" data-name="Trazado 1279674" d="M253.618,222.023c.642,3.607,3.072,6.317,2.248,10.167a8.815,8.815,0,0,1-6.307,6.747,15.186,15.186,0,0,1,.173,4.6,32.157,32.157,0,0,0-5.451-4.831c-1.973,2.958-5.225,5.21-6.627,8.565-1.547,3.7.645,8.173,4.053,10.292s7.663,2.346,11.658,1.974c-.138.013,2.041,6.668,2.218,7.207q.527,1.6,1.087,3.193H201.13c.324-1.807.569-3.629.719-5.459q.063-.764.105-1.527c-2.636-.036-6.345-2.439-8.44-3.959a5.815,5.815,0,0,1-2.016-2.1,6.079,6.079,0,0,1-.239-3.188q1.705-16.171,4.5-32.2c.931-5.337,1.921-10.672,3.064-15.968.875-4.053,2.721-5.371,6.835-6.341l11.193-2.64a6.1,6.1,0,0,1-2.444-1.348c3.19-.782,2.459-3.94,3.5-6.258a2.92,2.92,0,0,1,3.031-1.91c1.024.237,1.729,1.146,2.736,1.485a7.658,7.658,0,0,0,3.3.237,22.5,22.5,0,0,0,4.139-1.224,4.438,4.438,0,0,1,3.331-.1,13.457,13.457,0,0,0-4.414,1.657c-2.416,1.41-5.6,2.215-5.065,5.752a1.033,1.033,0,0,0,.184.5,1.082,1.082,0,0,0,.518.3,10.051,10.051,0,0,0,3.058.4,33.007,33.007,0,0,0,7.078-.687c.628-.131,1.41-.49,1.327-1.127.463.591.981,1.381,1.87,1.285l-1.557.167a5.368,5.368,0,0,0,2.183.861,12.158,12.158,0,0,1-5.842,3.529,12.812,12.812,0,0,0,6.819.1c-1.711,1.986-3.961,2.8-6.3,3.733a9.8,9.8,0,0,1-7.911.108,39.98,39.98,0,0,0,16.944,7.58,23.524,23.524,0,0,1-27.022-.762c-.36,4.707-.381,9.561,1.217,14s5.09,8.442,9.685,9.528,10.081-1.54,11.191-6.13c1.738,2.222,3.55,4.507,6.041,5.833s5.861,1.431,7.9-.519c2.388-2.286,2-6.187,1.014-9.342-1.289-4.13-3.28-8.012-4.607-12.13s-1.958-8.666-.479-12.733q.6,2.47,1.2,4.939a12.4,12.4,0,0,1,1.073-3.672l3.764,13.021a8.272,8.272,0,0,1,.312-3.43,2.826,2.826,0,0,1,2.6-1.935q.432,5.451,1.357,10.847a4.889,4.889,0,0,1,1.545-2.962c.033,4.894,4.183,8.637,7.991,11.711,13.126,10.594,26.281,21.209,40.413,30.418a10.024,10.024,0,0,0,3.793,1.759c2.365.371,8.73-1.361,6.535,2.556-1.495,2.667-5.516,5-8.113,6.411a2.478,2.478,0,0,1-1.136.385,2.573,2.573,0,0,1-1.315-.508c-8.137-5.052-15.911-10.544-23.5-16.35-7.026-5.378-12.769-11.508-19.037-17.645-4.113-4.03-8.927-8.078-12.148-12.871" transform="translate(-191.164 -186.991)" fill="#d8e8ef"/>
              </g>
            </g>
          </g>
          <path id="Trazado_1279675" data-name="Trazado 1279675" d="M194.225,291.318c.9-.006,2.3-.087,1.931-.541l-2.19-2.719a12.566,12.566,0,0,0-1.886-2.019c-2.368-1.888-6.135-2.249-9.02-3.035a7.512,7.512,0,0,0-3.707-.367c-1.98.481-12.1,5.365-8.52,8.578,1.1.972,6.576.238,8.092.255q5.008.057,10.016-.063c1.52-.036,3.053-.124,4.566-.1.007,0,.313.012.718.009" transform="translate(-16 -63.605)" fill="#c25b42"/>
          <g id="Grupo_1213265" data-name="Grupo 1213265" transform="translate(162.946 221.54)" style="mix-blend-mode: multiply;isolation: isolate">
            <g id="Grupo_1213264" data-name="Grupo 1213264">
              <g id="Grupo_1213263" data-name="Grupo 1213263" clip-path="url(#clip-path-12)">
                <path id="Trazado_1279676" data-name="Trazado 1279676" d="M189.27,291.77a9.564,9.564,0,0,0-1.971-2.449,8.919,8.919,0,0,0-2.744-1.618,20.865,20.865,0,0,0-3.024-.812,12.207,12.207,0,0,1-2.9-.985,7.468,7.468,0,0,0,2.75,1.509c1,.335,1.985.568,2.925.941a11.371,11.371,0,0,1,2.655,1.391,19.431,19.431,0,0,1,2.309,2.022" transform="translate(-178.631 -285.907)" fill="#c25b42"/>
              </g>
            </g>
          </g>
          <g id="Grupo_1213268" data-name="Grupo 1213268" transform="translate(165.482 220.414)" style="mix-blend-mode: multiply;isolation: isolate">
            <g id="Grupo_1213267" data-name="Grupo 1213267">
              <g id="Grupo_1213266" data-name="Grupo 1213266" clip-path="url(#clip-path-13)">
                <path id="Trazado_1279677" data-name="Trazado 1279677" d="M185.64,291.456q-.923-1.556-1.952-3.031a5.739,5.739,0,0,0-1.25-1.395,7.983,7.983,0,0,0-1.609-.955,16.685,16.685,0,0,0-3.5-1.027c-1.182-.239-2.367-.382-3.554-.593,2.233.941,4.645,1.31,6.77,2.259a6.516,6.516,0,0,1,2.71,2.04q1.14,1.391,2.386,2.7" transform="translate(-173.774 -284.454)" fill="#c25b42"/>
              </g>
            </g>
          </g>
          <path id="Trazado_1279678" data-name="Trazado 1279678" d="M287.1,262.811c7.669,5.567,17.988,6.84,27.12,8.482a145.33,145.33,0,0,0,23.367,2.464c-1.3-.021,2.418-8.25,2.806-8.855-13.555-4.135-26.249-10.781-39.848-14.767a160.087,160.087,0,0,0,5.894-30.1c.326-3.214.537-6.524-.387-9.618-.981-3.282-3.493-6.553-7.107-6.469-3.551.084-5.767,1.85-6.535,5.409-1.143,5.3-2.132,10.63-3.063,15.967q-2.793,16.019-4.5,32.2a6.064,6.064,0,0,0,.239,3.188,5.81,5.81,0,0,0,2.015,2.1" transform="translate(-249.036 -45.915)" fill="#fff"/>
          <path id="Trazado_1279679" data-name="Trazado 1279679" d="M278.947,290.548c-1.33-.09-2.656-.3-3.99-.351a64.824,64.824,0,0,0-7.647.566c-1.582.126-4.983.632-6.335-.506-.752-.635-.539-1.825-.257-2.769l.668-2.244c.3-1,.774-2.173,1.8-2.363,1-.185,2.136.422,3.161.449a15.048,15.048,0,0,0,3.5-.471,13.966,13.966,0,0,1,3.611-.544,10.938,10.938,0,0,1,4.146,1.375,73.562,73.562,0,0,1,7.5,3.875.9.9,0,0,1,.432.448.829.829,0,0,1-.3.746,6.8,6.8,0,0,1-4.911,1.827c-.46.009-.92-.009-1.378-.04" transform="translate(-175.372 -63.558)" fill="#c25b42"/>
          <g id="Grupo_1213271" data-name="Grupo 1213271" transform="translate(43.54 204.001)" opacity="0.56" style="mix-blend-mode: multiply;isolation: isolate">
            <g id="Grupo_1213270" data-name="Grupo 1213270">
              <g id="Grupo_1213269" data-name="Grupo 1213269" clip-path="url(#clip-path-14)">
                <path id="Trazado_1279680" data-name="Trazado 1279680" d="M343.363,264.326a7.048,7.048,0,0,0-10.658,4.841,8.282,8.282,0,0,1,10.658-4.841" transform="translate(-332.706 -263.272)" fill="#a8a3e7"/>
              </g>
            </g>
          </g>
          <g id="Grupo_1213274" data-name="Grupo 1213274" transform="translate(54.521 211.215)" opacity="0.56" style="mix-blend-mode: multiply;isolation: isolate">
            <g id="Grupo_1213273" data-name="Grupo 1213273">
              <g id="Grupo_1213272" data-name="Grupo 1213272" clip-path="url(#clip-path-15)">
                <path id="Trazado_1279681" data-name="Trazado 1279681" d="M329.576,285.629a21.2,21.2,0,0,1-9.334-13.046,15.276,15.276,0,0,0,9.334,13.046" transform="translate(-320.242 -272.583)" fill="#a8a3e7"/>
              </g>
            </g>
          </g>
          <g id="Grupo_1213277" data-name="Grupo 1213277" transform="translate(61.588 216.458)" opacity="0.56" style="mix-blend-mode: multiply;isolation: isolate">
            <g id="Grupo_1213276" data-name="Grupo 1213276">
              <g id="Grupo_1213275" data-name="Grupo 1213275" clip-path="url(#clip-path-16)">
                <path id="Trazado_1279682" data-name="Trazado 1279682" d="M320.005,279.349a3.619,3.619,0,0,0,2.451,2.49,5.437,5.437,0,0,0-1.048-1.42,5.521,5.521,0,0,0-1.4-1.07" transform="translate(-320.005 -279.349)" fill="#a8a3e7"/>
              </g>
            </g>
          </g>
          <g id="Grupo_1213280" data-name="Grupo 1213280" transform="translate(81.9 220.695)" opacity="0.56" style="mix-blend-mode: multiply;isolation: isolate">
            <g id="Grupo_1213279" data-name="Grupo 1213279">
              <g id="Grupo_1213278" data-name="Grupo 1213278" clip-path="url(#clip-path-17)">
                <path id="Trazado_1279683" data-name="Trazado 1279683" d="M296.365,284.817a3.858,3.858,0,0,0-1.737,4.818,13.72,13.72,0,0,1,.611-2.5,13.461,13.461,0,0,1,1.126-2.317" transform="translate(-294.338 -284.817)" fill="#a8a3e7"/>
              </g>
            </g>
          </g>
          <g id="Grupo_1213283" data-name="Grupo 1213283" transform="translate(49.591 160.552)" opacity="0.56" style="mix-blend-mode: multiply;isolation: isolate">
            <g id="Grupo_1213282" data-name="Grupo 1213282">
              <g id="Grupo_1213281" data-name="Grupo 1213281" clip-path="url(#clip-path-18)">
                <path id="Trazado_1279684" data-name="Trazado 1279684" d="M336.7,214.38a8,8,0,0,0-6.717-7.18,12.7,12.7,0,0,1,6.717,7.18" transform="translate(-329.981 -207.2)" fill="#a8a3e7"/>
              </g>
            </g>
          </g>
          <g id="Grupo_1213286" data-name="Grupo 1213286" transform="translate(55.379 157.973)" opacity="0.56" style="mix-blend-mode: multiply;isolation: isolate">
            <g id="Grupo_1213285" data-name="Grupo 1213285">
              <g id="Grupo_1213284" data-name="Grupo 1213284" clip-path="url(#clip-path-19)">
                <path id="Trazado_1279685" data-name="Trazado 1279685" d="M326.363,203.871a14.482,14.482,0,0,1,2.233,5.085,32.331,32.331,0,0,1,.748,5.521,43.833,43.833,0,0,1-.026,5.59c-.055.933-.155,1.864-.284,2.791-.106.933-.272,1.857-.429,2.787a28.026,28.026,0,0,0,1.25-5.526,30.55,30.55,0,0,0,.188-5.684,24.67,24.67,0,0,0-.929-5.621,15.7,15.7,0,0,0-1.078-2.648,10.764,10.764,0,0,0-1.672-2.3" transform="translate(-326.363 -203.871)" fill="#a8a3e7"/>
              </g>
            </g>
          </g>
          <g id="Grupo_1213289" data-name="Grupo 1213289" transform="translate(99.537 166.518)" opacity="0.56" style="mix-blend-mode: multiply;isolation: isolate">
            <g id="Grupo_1213288" data-name="Grupo 1213288">
              <g id="Grupo_1213287" data-name="Grupo 1213287" clip-path="url(#clip-path-20)">
                <path id="Trazado_1279686" data-name="Trazado 1279686" d="M273.633,214.9a12.563,12.563,0,0,0-.707,12.083,21.826,21.826,0,0,1,.707-12.083" transform="translate(-271.707 -214.899)" fill="#a8a3e7"/>
              </g>
            </g>
          </g>
          <g id="Grupo_1213292" data-name="Grupo 1213292" transform="translate(62.045 155.443)" opacity="0.56" style="mix-blend-mode: multiply;isolation: isolate">
            <g id="Grupo_1213291" data-name="Grupo 1213291">
              <g id="Grupo_1213290" data-name="Grupo 1213290" clip-path="url(#clip-path-21)">
                <path id="Trazado_1279687" data-name="Trazado 1279687" d="M316.633,203.95a47.194,47.194,0,0,1-5.249.126,41.527,41.527,0,0,1-10.278-1.681,47.31,47.31,0,0,1-4.936-1.79,25.034,25.034,0,0,0,4.767,2.3,28.437,28.437,0,0,0,10.444,1.705,25.1,25.1,0,0,0,5.251-.663" transform="translate(-296.17 -200.606)" fill="#a8a3e7"/>
              </g>
            </g>
          </g>
          <g id="Grupo_1213295" data-name="Grupo 1213295" transform="translate(58.04 157.949)" opacity="0.56" style="mix-blend-mode: multiply;isolation: isolate">
            <g id="Grupo_1213294" data-name="Grupo 1213294">
              <g id="Grupo_1213293" data-name="Grupo 1213293" clip-path="url(#clip-path-22)">
                <path id="Trazado_1279688" data-name="Trazado 1279688" d="M290.668,203.841a36.421,36.421,0,0,0,6.2,4.831,40.158,40.158,0,0,0,14.685,5.543,36.4,36.4,0,0,0,7.846.467,52.641,52.641,0,0,1-7.748-1,50.054,50.054,0,0,1-14.509-5.474,52.554,52.554,0,0,1-6.474-4.371" transform="translate(-290.668 -203.841)" fill="#a8a3e7"/>
              </g>
            </g>
          </g>
          <g id="Grupo_1213298" data-name="Grupo 1213298" transform="translate(59.146 187.666)" opacity="0.56" style="mix-blend-mode: multiply;isolation: isolate">
            <g id="Grupo_1213297" data-name="Grupo 1213297">
              <g id="Grupo_1213296" data-name="Grupo 1213296" clip-path="url(#clip-path-23)">
                <path id="Trazado_1279689" data-name="Trazado 1279689" d="M319.76,242.191a15.616,15.616,0,0,1-3.485,6.025,14.606,14.606,0,0,1-12.517,4.656,15.624,15.624,0,0,1-6.576-2.281,13.692,13.692,0,0,0,6.506,2.814,13.961,13.961,0,0,0,12.988-4.834,13.7,13.7,0,0,0,3.084-6.381" transform="translate(-297.183 -242.191)" fill="#a8a3e7"/>
              </g>
            </g>
          </g>
          <g id="Grupo_1213301" data-name="Grupo 1213301" transform="translate(65.184 154.002)" opacity="0.56" style="mix-blend-mode: multiply;isolation: isolate">
            <g id="Grupo_1213300" data-name="Grupo 1213300">
              <g id="Grupo_1213299" data-name="Grupo 1213299" clip-path="url(#clip-path-24)">
                <path id="Trazado_1279690" data-name="Trazado 1279690" d="M314.017,198.747a69.067,69.067,0,0,1-7.736.9,69.877,69.877,0,0,1-7.787-.06,26.16,26.16,0,0,0,15.523-.844" transform="translate(-298.494 -198.747)" fill="#a8a3e7"/>
              </g>
            </g>
          </g>
          <g id="Grupo_1213304" data-name="Grupo 1213304" transform="translate(92.406 156.707)" opacity="0.56" style="mix-blend-mode: multiply;isolation: isolate">
            <g id="Grupo_1213303" data-name="Grupo 1213303">
              <g id="Grupo_1213302" data-name="Grupo 1213302" clip-path="url(#clip-path-25)">
                <path id="Trazado_1279691" data-name="Trazado 1279691" d="M281.411,228.669c-.74-2.176-1.567-4.316-2.351-6.467s-1.569-4.3-2.192-6.491a48.131,48.131,0,0,1-1.552-6.648,42.4,42.4,0,0,1-.524-6.827,28.91,28.91,0,0,0-.009,6.9,41.605,41.605,0,0,0,1.415,6.774q1.031,3.3,2.363,6.488t2.85,6.271" transform="translate(-274.581 -202.237)" fill="#a8a3e7"/>
              </g>
            </g>
          </g>
          <g id="Grupo_1213307" data-name="Grupo 1213307" transform="translate(93.827 158.512)" opacity="0.56" style="mix-blend-mode: multiply;isolation: isolate">
            <g id="Grupo_1213306" data-name="Grupo 1213306">
              <g id="Grupo_1213305" data-name="Grupo 1213305" clip-path="url(#clip-path-26)">
                <path id="Trazado_1279692" data-name="Trazado 1279692" d="M281.169,204.566a2.575,2.575,0,0,0-.515,1.458,2.541,2.541,0,0,0,.35,1.506,3.808,3.808,0,0,0,.348-1.467,3.87,3.87,0,0,0-.184-1.5" transform="translate(-280.652 -204.567)" fill="#a8a3e7"/>
              </g>
            </g>
          </g>
          <path id="Trazado_1279693" data-name="Trazado 1279693" d="M287.492,233.568l-4.485,46.857H200.476v-3.369h33.756l2.305-43.488Z" transform="translate(-130.833 -52.584)" fill="#221f4c"/>
          <g id="Grupo_1213310" data-name="Grupo 1213310" transform="translate(69.642 180.984)" opacity="0.5">
            <g id="Grupo_1213309" data-name="Grupo 1213309">
              <g id="Grupo_1213308" data-name="Grupo 1213308" clip-path="url(#clip-path-27)">
                <path id="Trazado_1279694" data-name="Trazado 1279694" d="M298.472,233.568h2.963l-2.754,46.857H262.411v-3.369h33.756Z" transform="translate(-262.41 -233.568)" fill="#4343a8"/>
              </g>
            </g>
          </g>
          <path id="Trazado_1279695" data-name="Trazado 1279695" d="M225.44,244.885a2.693,2.693,0,1,0,2.693-2.693,2.693,2.693,0,0,0-2.693,2.693" transform="translate(-93.512 -54.526)" fill="#fff"/>
          <path id="Trazado_1279696" data-name="Trazado 1279696" d="M186.155,250.725c2.721-.219,6.574-.658,6.968,1.769.363,2.237.43,4.648.577,6.909,1.535,23.543,3.476,68.865-.525,70.9-4.828,2.458-30.1,3.568-43.852,4.042-12.024.414-24.059.079-36.085-.256l-80.349-2.239c-2.435-.067-5.268-.347-6.583-2.4a7.575,7.575,0,0,1-.876-3.589c-1.025-13.841-.15-27.609.312-41.472" transform="translate(97.119 -56.407)" fill="none" stroke="#221f4c" stroke-linecap="round" stroke-miterlimit="10" stroke-width="1.806"/>
          <path id="Trazado_1279697" data-name="Trazado 1279697" d="M178.988,262.513c4.816-.25,7.949-.035,8.265,3.253.28,2.926,3.446,48.056-.142,59.371-.689,2.173-3.92,2.219-6.183,2.5-9.281,1.137-18.66,1.154-28.011,1.144q-54.238-.055-108.467-1.217c-3.364-.072-7.194-.368-9.27-3.016-3.2-4.073-1.145-12.645-1-17.4q.311-10.119.725-20.233" transform="translate(97.309 -59.084)" fill="none" stroke="#221f4c" stroke-linecap="round" stroke-miterlimit="10" stroke-width="1.806"/>
          <path id="Trazado_1279698" data-name="Trazado 1279698" d="M229.444,294q-.172,8.348-.345,16.7c-.056,2.71-.183,5.632-1.857,7.766-2.285,2.913-6.495,3.25-10.2,3.344" transform="translate(-85.625 -66.189)" fill="none" stroke="#221f4c" stroke-linecap="round" stroke-miterlimit="10" stroke-width="1.806"/>
          <path id="Trazado_1279699" data-name="Trazado 1279699" d="M40.828,291.3c-.91,9.082-.716,18.161-.735,27.286a7.088,7.088,0,0,0,.725,3.849c.938,1.482,2.8,2.044,4.521,2.378a75.307,75.307,0,0,0,10.14,1.058c37.8,2.132,75.715,1.134,113.521-.893,2.769-.149,7.735-.483,10.334-1.454a4.7,4.7,0,0,0,1.978-1.221,4.553,4.553,0,0,0,1.009-2.477c1.5-13.9.793-25.784.548-38.878-.084-4.492-2.7-5.791-5.057-5.6" transform="translate(97.688 -61.988)" fill="none" stroke="#221f4c" stroke-linecap="round" stroke-miterlimit="10" stroke-width="1.806"/>
          <path id="Trazado_1279700" data-name="Trazado 1279700" d="M231,296.637h.983a2.8,2.8,0,0,0,0-5.6H231a2.8,2.8,0,0,0,0,5.6" transform="translate(-99.615 -65.522)" fill="#373782"/>
          <path id="Trazado_1279701" data-name="Trazado 1279701" d="M243.343,296.335h.741A1.914,1.914,0,0,0,246,294.421V291.6a1.914,1.914,0,0,0-1.914-1.914h-.741a1.914,1.914,0,0,0-1.914,1.914v2.816a1.914,1.914,0,0,0,1.914,1.914" transform="translate(-121.073 -65.219)" fill="#373782"/>
          <path id="Trazado_1279702" data-name="Trazado 1279702" d="M216.083,297.255h0a2.222,2.222,0,0,0,2.222-2.222v-4h-4.445v4a2.222,2.222,0,0,0,2.222,2.222" transform="translate(-72.019 -65.522)" fill="#373782"/>
          <path id="Trazado_1279703" data-name="Trazado 1279703" d="M222.9,297.964h0a2.449,2.449,0,0,0,2.449-2.449v-4.479h-4.9v4.479a2.449,2.449,0,0,0,2.449,2.449" transform="translate(-84.163 -65.522)" fill="#373782"/>
          <path id="Trazado_1279704" data-name="Trazado 1279704" d="M49.563,258.033H46.075v6.977h3.488a3.488,3.488,0,0,0,0-6.977" transform="translate(223.246 -58.092)" fill="#373782"/>
          <path id="Trazado_1279705" data-name="Trazado 1279705" d="M49.585,248.127H37.072v4.445H49.585a1.441,1.441,0,0,0,1.44-1.441v-1.564a1.44,1.44,0,0,0-1.44-1.44" transform="translate(232.249 -55.862)" fill="#373782"/>
          <path id="Trazado_1279706" data-name="Trazado 1279706" d="M51.025,270.648H47.218v7.3h3.807a2.284,2.284,0,0,0,2.284-2.284v-2.734a2.284,2.284,0,0,0-2.284-2.284" transform="translate(222.103 -60.932)" fill="#373782"/>
          <path id="Rectángulo_463028" data-name="Rectángulo 463028" d="M7.807,0H60.248a7.808,7.808,0,0,1,7.808,7.808v98.644a7.807,7.807,0,0,1-7.807,7.807H7.807A7.807,7.807,0,0,1,0,106.452V7.807A7.807,7.807,0,0,1,7.807,0Z" transform="translate(201.306 113.535)" fill="#4343a6"/>
          <path id="Rectángulo_463029" data-name="Rectángulo 463029" d="M7.807,0H60.248a7.808,7.808,0,0,1,7.808,7.808v98.644a7.807,7.807,0,0,1-7.807,7.807H7.807A7.807,7.807,0,0,1,0,106.452V7.807A7.807,7.807,0,0,1,7.807,0Z" transform="translate(166.404 113.535)" fill="#221f4c"/>
          <path id="Rectángulo_463030" data-name="Rectángulo 463030" d="M7.807,0H60.248a7.808,7.808,0,0,1,7.808,7.808v98.644a7.807,7.807,0,0,1-7.807,7.807H7.807A7.807,7.807,0,0,1,0,106.452V7.807A7.807,7.807,0,0,1,7.807,0Z" transform="translate(162.665 113.535)" fill="#a6a1e5"/>
          <path id="Trazado_1279707" data-name="Trazado 1279707" d="M118.5,162.937a3,3,0,0,0-2.992,2.992v21.127a3,3,0,0,0,2.992,2.992h10.72a3,3,0,0,0,2.992-2.992V184a3,3,0,0,1,2.992-2.992H147.42A3,3,0,0,1,150.412,184v3.054a3,3,0,0,0,2.992,2.992h10.72a3,3,0,0,0,2.992-2.992V165.929a3,3,0,0,0-2.992-2.992Z" transform="translate(55.381 -36.683)" fill="#4343a6"/>
          <path id="Trazado_1279708" data-name="Trazado 1279708" d="M164.123,162.937H118.5a3,3,0,0,0-2.992,2.992v2.991a3,3,0,0,1,2.992-2.991h45.621a3,3,0,0,1,2.992,2.991v-2.991a3,3,0,0,0-2.992-2.992" transform="translate(55.381 -36.683)" fill="#221f4c"/>
          <rect id="Rectángulo_463031" data-name="Rectángulo 463031" width="7.646" height="4.486" rx="1.468" transform="translate(175.794 134.897)" fill="#f8cb53"/>
          <rect id="Rectángulo_463032" data-name="Rectángulo 463032" width="7.646" height="4.486" rx="1.468" transform="translate(187.178 134.897)" fill="#f8cb53"/>
          <rect id="Rectángulo_463033" data-name="Rectángulo 463033" width="7.646" height="4.486" rx="1.468" transform="translate(198.562 134.897)" fill="#f8cb53"/>
          <rect id="Rectángulo_463034" data-name="Rectángulo 463034" width="7.646" height="4.486" rx="1.468" transform="translate(209.946 134.897)" fill="#f8cb53"/>
          <rect id="Rectángulo_463035" data-name="Rectángulo 463035" width="68.056" height="2.742" transform="translate(162.665 158.85)" fill="#92d7f5"/>
          <rect id="Rectángulo_463036" data-name="Rectángulo 463036" width="68.056" height="2.742" transform="translate(162.665 159.909)" fill="#221f4c"/>
          <path id="Trazado_1279709" data-name="Trazado 1279709" d="M118.5,220.25a3,3,0,0,0-2.992,2.992v21.127a3,3,0,0,0,2.992,2.992h10.72a3,3,0,0,0,2.992-2.992v-3.054a3,3,0,0,1,2.992-2.992H147.42a3,3,0,0,1,2.992,2.992v3.054a3,3,0,0,0,2.992,2.992h10.72a3,3,0,0,0,2.992-2.992V223.242a3,3,0,0,0-2.992-2.992Z" transform="translate(55.381 -49.586)" fill="#4343a6"/>
          <path id="Trazado_1279710" data-name="Trazado 1279710" d="M164.123,220.25H118.5a3,3,0,0,0-2.992,2.992v2.991a3,3,0,0,1,2.992-2.991h45.621a3,3,0,0,1,2.992,2.991v-2.991a3,3,0,0,0-2.992-2.992" transform="translate(55.381 -49.586)" fill="#221f4c"/>
          <rect id="Rectángulo_463037" data-name="Rectángulo 463037" width="7.646" height="4.486" rx="1.468" transform="translate(175.794 179.307)" fill="#f8cb53"/>
          <rect id="Rectángulo_463038" data-name="Rectángulo 463038" width="7.646" height="4.486" rx="1.468" transform="translate(187.178 179.307)" fill="#f8cb53"/>
          <rect id="Rectángulo_463039" data-name="Rectángulo 463039" width="7.646" height="4.486" rx="1.468" transform="translate(198.562 179.307)" fill="#f8cb53"/>
          <rect id="Rectángulo_463040" data-name="Rectángulo 463040" width="7.646" height="4.486" rx="1.468" transform="translate(209.946 179.307)" fill="#f8cb53"/>
          <rect id="Rectángulo_463041" data-name="Rectángulo 463041" width="68.056" height="2.742" transform="translate(162.665 203.26)" fill="#92d7f5"/>
          <rect id="Rectángulo_463042" data-name="Rectángulo 463042" width="68.056" height="2.742" transform="translate(162.665 204.319)" fill="#221f4c"/>
          <path id="Trazado_1279711" data-name="Trazado 1279711" d="M174.274,280.271a1.994,1.994,0,0,1-1.994,1.995H160.563a1.995,1.995,0,1,1,0-3.989H172.28a1.994,1.994,0,0,1,1.994,1.995" transform="translate(14.857 -62.649)" fill="#221f4c"/>
          <path id="Trazado_1279712" data-name="Trazado 1279712" d="M160.562,279.19h11.717a1.992,1.992,0,0,1,1.937,1.537,1.978,1.978,0,0,0-1.937-2.451H160.562a1.978,1.978,0,0,0-1.937,2.451,1.992,1.992,0,0,1,1.937-1.537" transform="translate(14.859 -62.649)" fill="#92d7f5"/>
          <path id="Trazado_1279713" data-name="Trazado 1279713" d="M173.184,280.735a.4.4,0,0,1-.4.394H160.947a.394.394,0,1,1,0-.789h11.842a.4.4,0,0,1,.4.394" transform="translate(14.411 -63.114)" fill="#d6e2ee"/>
          <path id="Trazado_1279714" data-name="Trazado 1279714" d="M134.488,280.271a1.994,1.994,0,0,1-1.995,1.995H120.776a1.995,1.995,0,0,1,0-3.989h11.717a1.994,1.994,0,0,1,1.995,1.995" transform="translate(85.472 -62.649)" fill="#221f4c"/>
          <path id="Trazado_1279715" data-name="Trazado 1279715" d="M120.776,279.19h11.718a1.993,1.993,0,0,1,1.938,1.537,2.055,2.055,0,0,0,.056-.456,1.993,1.993,0,0,0-1.994-1.995H120.776a2,2,0,0,0-1.994,1.995,1.928,1.928,0,0,0,.059.456,1.99,1.99,0,0,1,1.935-1.537" transform="translate(85.473 -62.649)" fill="#92d7f5"/>
          <path id="Trazado_1279716" data-name="Trazado 1279716" d="M133.4,280.735a.4.4,0,0,1-.394.394H121.159a.394.394,0,0,1,0-.789H133a.4.4,0,0,1,.394.394" transform="translate(85.027 -63.114)" fill="#d6e2ee"/>
          <path id="Trazado_1279717" data-name="Trazado 1279717" d="M149.9,33.029a14.334,14.334,0,0,0-1.9.62c2.56-1.038,1.055-8.931.576-11.031A26.219,26.219,0,0,0,141.4,9.8c-6.148-5.641-16.564-6.423-23.735-2.59a21.084,21.084,0,0,0-8.83,8.725c-1.218,2.332-3.88,9.147-2.037,11.68-3.178-4.367-9.78-7.3-14.5-3.359-2.982,2.489-4.108,6.7-3.656,10.561-4.035-3.666-9.959,1.547-11.8,5.044-4.576,8.672-1.372,20.112,9.535,20.394q17.624.454,35.256.428c10.878-.016,22.2.589,33-.428,12.361-1.164,14.57-21.695,3.734-26.6a12.966,12.966,0,0,0-8.465-.626" transform="translate(88.694 -1.089)" fill="#d5f4f8"/>
          <g id="Grupo_1213313" data-name="Grupo 1213313" transform="translate(163.508 3.75)" opacity="0.2">
            <g id="Grupo_1213312" data-name="Grupo 1213312">
              <g id="Grupo_1213311" data-name="Grupo 1213311" clip-path="url(#clip-path-28)">
                <path id="Trazado_1279718" data-name="Trazado 1279718" d="M165.437,46.83c-1.382,3.825-5.147,6.39-9.083,7.414s-8.076.754-12.134.476c-14.831-.884-29.409-.449-44.308-.464-2.9,0-7.243-.525-7.451-4.276a5.152,5.152,0,0,1,3.746-4.96,6.968,6.968,0,0,1,6.262,1.513,20.012,20.012,0,0,1-2.3-6.865c-.192-2.42.673-5.079,2.736-6.358,2.311-1.432,5.394-.741,7.715.676s4.194,3.466,6.461,4.968c-.367-5.363-.645-10.815.552-16.055,1.382-6.051,9.467-18.709,17.373-17.565-5.663-.82-11.727-.891-16.9,1.874a21.075,21.075,0,0,0-8.83,8.725c-1.219,2.332-3.88,9.147-2.037,11.68-3.178-4.368-9.78-7.3-14.5-3.36-2.982,2.489-4.108,6.7-3.657,10.562-4.035-3.666-9.959,1.547-11.8,5.044-4.576,8.672-1.372,20.113,9.534,20.394q17.625.454,35.256.429c10.878-.016,22.2.589,33-.428,7.062-.666,10.113-7.152,10.358-13.424" transform="translate(-75.266 -4.839)" fill="#a8a3e7"/>
              </g>
            </g>
          </g>
          <path id="Trazado_1279719" data-name="Trazado 1279719" d="M153.981,113.837H142.33l.16-33.869-9.265-.122,14.229-31.258,16.54,31.775L153.606,80.1Z" transform="translate(44.774 -10.939)" fill="#c25b42"/>
          <path id="Trazado_1279720" data-name="Trazado 1279720" d="M157.974,115.3H151.5l.16-33.869-9.265-.122L154.333,55.08l11.726,26.562-8.265-.211Z" transform="translate(35.605 -12.4)" fill="#ff6854"/>
          <path id="Trazado_1279721" data-name="Trazado 1279721" d="M94.911,48.587h11.651l-.16,33.869,9.265.122-14.229,31.258L84.9,82.062l10.389.266Z" transform="translate(130.549 -10.939)" fill="#0092e5"/>
          <path id="Trazado_1279722" data-name="Trazado 1279722" d="M92.981,48.587h6.476L99.3,82.457l9.265.122L96.623,108.806,84.9,82.244l8.265.211Z" transform="translate(137.653 -10.939)" fill="#94d9f7"/>
          <path id="Trazado_1279723" data-name="Trazado 1279723" d="M294.319,23.922h5.3V12.105a6.81,6.81,0,0,1,6.8-6.8h.263a6.809,6.809,0,0,1,6.8,6.8V23.922h5.3V12.105A12.119,12.119,0,0,0,306.687,0h-.263a12.119,12.119,0,0,0-12.1,12.1Z" transform="translate(-234.85 0)" fill="#f67d48"/>
          <path id="Rectángulo_463044" data-name="Rectángulo 463044" d="M4.442,0h24a4.442,4.442,0,0,1,4.442,4.442V22.231a4.441,4.441,0,0,1-4.441,4.441h-24A4.442,4.442,0,0,1,0,22.23V4.442A4.442,4.442,0,0,1,4.442,0Z" transform="translate(55.262 23.332)" fill="#ccd1e3"/>
          <rect id="Rectángulo_463045" data-name="Rectángulo 463045" width="32.886" height="26.672" rx="4.442" transform="translate(55.262 17.203)" fill="#ffd453"/>
          <path id="Trazado_1279724" data-name="Trazado 1279724" d="M303.449,35.274a5.162,5.162,0,1,1,7.839,4.394l.764,6.205h-6.883l.762-6.205a5.141,5.141,0,0,1-2.483-4.394" transform="translate(-236.905 -6.779)" fill="#4343a6"/>
          <path id="Trazado_1279725" data-name="Trazado 1279725" d="M308.61,32.358a5.159,5.159,0,0,0-5.03,4.032,5.163,5.163,0,1,1,10.06,0,5.159,5.159,0,0,0-5.03-4.032" transform="translate(-236.905 -6.779)" fill="#221f4c"/>
          <rect id="Rectángulo_463046" data-name="Rectángulo 463046" width="90.466" height="14.161" rx="3" transform="translate(50.906 62.808)" fill="#fff"/>
          <path id="Trazado_1279726" data-name="Trazado 1279726" d="M225.767,82.965a1.4,1.4,0,0,0,1.383,2.125h37.968a1.4,1.4,0,0,0,1.383-2.125l-3.154-7.124a3.89,3.89,0,0,0-3.265-2.126h-27.9a3.891,3.891,0,0,0-3.266,2.126Z" transform="translate(-129.482 -16.596)" fill="#fff"/>
          <rect id="Rectángulo_463047" data-name="Rectángulo 463047" width="83.104" height="8.698" transform="translate(54.586 65.54)" fill="#a6a1e5"/>
          <rect id="Rectángulo_463048" data-name="Rectángulo 463048" width="83.104" height="1.582" transform="translate(54.586 65.54)" fill="#4343a6"/>
          <path id="Trazado_1279727" data-name="Trazado 1279727" d="M269.566,77.511l-.411-.411a.533.533,0,0,1,.753-.754l.411.411.411-.411a.533.533,0,0,1,.753.754l-.411.411.411.411a.533.533,0,0,1-.753.754l-.411-.411-.411.411a.533.533,0,0,1-.753-.754Z" transform="translate(-168.079 -17.153)" fill="#a6a1e5"/>
          <path id="Trazado_1279728" data-name="Trazado 1279728" d="M231.848,88l1.43,1.71v.026l-2.138-.427v1.347l2.15-.36v.026l-1.443,1.658,1.176.68L233.8,90.6h.027l.761,2.057,1.15-.68-1.43-1.671.012-.026,2.1.373V89.306l-2.086.427v-.026l1.4-1.7-1.19-.7-.734,2.073h-.027l-.774-2.073Z" transform="translate(-103.521 -19.657)" fill="#4343a8"/>
          <path id="Trazado_1279729" data-name="Trazado 1279729" d="M243.751,88l1.43,1.71v.026l-2.138-.427v1.347l2.15-.36v.026l-1.443,1.658,1.176.68L245.7,90.6h.027l.761,2.057,1.15-.68-1.43-1.671.012-.026,2.1.373V89.306l-2.086.427v-.026l1.4-1.7-1.19-.7-.734,2.073h-.027l-.774-2.073Z" transform="translate(-124.647 -19.657)" fill="#4343a8"/>
          <path id="Trazado_1279730" data-name="Trazado 1279730" d="M255.655,88l1.43,1.71v.026l-2.138-.427v1.347l2.15-.36v.026l-1.443,1.658,1.176.68.774-2.057h.027l.761,2.057,1.15-.68-1.43-1.671.012-.026,2.1.373V89.306l-2.085.427v-.026l1.4-1.7-1.19-.7-.734,2.073h-.027l-.774-2.073Z" transform="translate(-145.774 -19.657)" fill="#4343a8"/>
          <path id="Trazado_1279731" data-name="Trazado 1279731" d="M267.558,88l1.43,1.71v.026l-2.138-.427v1.347l2.15-.36v.026l-1.443,1.658,1.176.68.774-2.057h.027l.761,2.057,1.15-.68-1.43-1.671.013-.026,2.1.373V89.306l-2.085.427v-.026l1.4-1.7-1.19-.7-.734,2.073h-.027l-.775-2.073Z" transform="translate(-166.9 -19.657)" fill="#4343a8"/>
          <path id="Trazado_1279732" data-name="Trazado 1279732" d="M279.461,88l1.43,1.71v.026l-2.139-.427v1.347l2.15-.36v.026l-1.442,1.658,1.176.68.773-2.057h.027l.761,2.057,1.151-.68-1.43-1.671.013-.026,2.1.373V89.306l-2.086.427v-.026l1.4-1.7-1.191-.7-.733,2.073H281.4l-.775-2.073Z" transform="translate(-188.026 -19.657)" fill="#4343a8"/>
          <path id="Trazado_1279733" data-name="Trazado 1279733" d="M291.364,88l1.43,1.71v.026l-2.139-.427v1.347l2.15-.36v.026l-1.442,1.658,1.176.68.773-2.057h.027l.761,2.057,1.151-.68-1.43-1.671.013-.026,2.1.373V89.306l-2.085.427v-.026l1.4-1.7-1.192-.7-.732,2.073H293.3l-.775-2.073Z" transform="translate(-209.152 -19.657)" fill="#4343a8"/>
        </g>
      </g>
    </g>
  </g>
</svg>
