<svg xmlns="http://www.w3.org/2000/svg" xmlns:xlink="http://www.w3.org/1999/xlink" width="80" height="80" viewBox="0 0 80 80">
  <defs>
    <clipPath id="clip-path">
      <rect id="Rectángulo_462701" data-name="Rectángulo 462701" width="58.074" height="60.594" transform="translate(0 0)" fill="#344866"/>
    </clipPath>
  </defs>
  <g id="Grupo_1212439" data-name="Grupo 1212439" transform="translate(-709.711 -1680.75)">
    <g id="Grupo_1119665" data-name="Grupo 1119665" transform="translate(533.822 -3840.25)">
      <rect id="Rectángulo_402006" data-name="Rectángulo 402006" width="80" height="80" rx="5" transform="translate(175.889 5521)" fill="#ffe79e"/>
    </g>
    <g id="Grupo_1212995" data-name="Grupo 1212995" transform="translate(721.711 1690.75)">
      <g id="Grupo_1212994" data-name="Grupo 1212994" clip-path="url(#clip-path)">
        <path id="Trazado_1279269" data-name="Trazado 1279269" d="M52.63,6.351H42.95V4.94A4.947,4.947,0,0,0,38.011,0H20.064a4.948,4.948,0,0,0-4.94,4.94V6.351H5.445A5.422,5.422,0,0,0,0,11.8V42.547a5.422,5.422,0,0,0,5.445,5.444H24.5l-2.52,5.041H17.745a3.829,3.829,0,0,0-3.831,3.831,3.745,3.745,0,0,0,3.831,3.731H40.43a3.722,3.722,0,0,0,3.73-3.731,3.809,3.809,0,0,0-3.73-3.831H36.195L33.574,47.89H52.63a5.421,5.421,0,0,0,5.444-5.444V11.695A5.535,5.535,0,0,0,52.63,6.351M17.745,4.94a2.455,2.455,0,0,1,2.42-2.42H38.011A2.454,2.454,0,0,1,40.43,4.94V31.557H17.745ZM5.445,8.872h9.679V31.557h-1.31a1.311,1.311,0,1,0,0,2.622H44.06a1.311,1.311,0,0,0,0-2.622H42.749V8.872h9.679A2.926,2.926,0,0,1,55.352,11.8V39.119H2.622V11.695A2.757,2.757,0,0,1,5.445,8.872M41.64,56.763a1.226,1.226,0,0,1-1.21,1.21H17.745a1.32,1.32,0,0,1-1.31-1.21,1.334,1.334,0,0,1,1.31-1.311H40.43a1.32,1.32,0,0,1,1.21,1.311m-8.368-3.831H24.7l2.521-5.042h3.528ZM52.63,45.37H5.445a2.926,2.926,0,0,1-2.924-2.924v-.907H55.452v.907A2.78,2.78,0,0,1,52.63,45.37" fill="#344866"/>
        <rect id="Rectángulo_462696" data-name="Rectángulo 462696" width="5.041" height="2.52" transform="translate(5.143 16.434)" fill="#344866"/>
        <rect id="Rectángulo_462697" data-name="Rectángulo 462697" width="5.041" height="2.52" transform="translate(5.143 20.164)" fill="#344866"/>
        <rect id="Rectángulo_462698" data-name="Rectángulo 462698" width="7.561" height="2.52" transform="translate(5.143 23.996)" fill="#344866"/>
        <rect id="Rectángulo_462699" data-name="Rectángulo 462699" width="2.52" height="2.52" transform="translate(20.266 3.831)" fill="#344866"/>
        <rect id="Rectángulo_462700" data-name="Rectángulo 462700" width="2.521" height="2.52" transform="translate(23.996 3.831)" fill="#344866"/>
        <path id="Trazado_1279270" data-name="Trazado 1279270" d="M37.909,7.561H20.265a1.32,1.32,0,0,0-1.31,1.21,1.334,1.334,0,0,0,1.31,1.311H37.909A1.335,1.335,0,0,0,39.22,8.771a1.5,1.5,0,0,0-1.311-1.21" fill="#344866"/>
        <path id="Trazado_1279271" data-name="Trazado 1279271" d="M26.517,11.393H20.266a1.32,1.32,0,0,0-1.311,1.21v5.041a1.334,1.334,0,0,0,1.311,1.31h6.251a1.249,1.249,0,0,0,1.21-1.31V12.6a1.165,1.165,0,0,0-1.21-1.21m-1.21,5.041H21.476v-2.52h3.73v2.52Z" fill="#344866"/>
        <path id="Trazado_1279272" data-name="Trazado 1279272" d="M37.909,11.393H31.558a1.32,1.32,0,0,0-1.311,1.21v5.041a1.334,1.334,0,0,0,1.311,1.31h6.351a1.334,1.334,0,0,0,1.311-1.31V12.6a1.392,1.392,0,0,0-1.311-1.21M36.6,16.434H32.768V13.913H36.6Z" fill="#344866"/>
        <path id="Trazado_1279273" data-name="Trazado 1279273" d="M26.517,20.164H20.266a1.335,1.335,0,0,0-1.311,1.311v5.041a1.25,1.25,0,0,0,1.311,1.21h6.251a1.226,1.226,0,0,0,1.21-1.21V21.475a1.25,1.25,0,0,0-1.21-1.311M25.307,25.2H21.476v-2.52h3.73V25.2Z" fill="#344866"/>
        <path id="Trazado_1279274" data-name="Trazado 1279274" d="M37.909,20.164H31.558a1.335,1.335,0,0,0-1.311,1.311v5.042a1.251,1.251,0,0,0,1.311,1.21h6.351a1.321,1.321,0,0,0,1.311-1.21V21.475a1.5,1.5,0,0,0-1.311-1.311M36.6,25.2H32.768V22.684H36.6Z" fill="#344866"/>
        <path id="Trazado_1279275" data-name="Trazado 1279275" d="M5.747,51.722a3.125,3.125,0,1,0,3.126,3.126,3.141,3.141,0,0,0-3.126-3.126m0,3.73a.605.605,0,0,1,0-1.21.6.6,0,1,1,0,1.21" fill="#344866"/>
        <path id="Trazado_1279276" data-name="Trazado 1279276" d="M51.722,50.411a3.829,3.829,0,0,0-3.831,3.831,3.745,3.745,0,0,0,3.831,3.731,3.781,3.781,0,1,0,0-7.562m0,5.041a1.311,1.311,0,1,1,1.312-1.311,1.335,1.335,0,0,1-1.312,1.311" fill="#344866"/>
      </g>
    </g>
  </g>
</svg>
