<svg xmlns="http://www.w3.org/2000/svg" xmlns:xlink="http://www.w3.org/1999/xlink" width="69" height="69" viewBox="0 0 69 69">
  <defs>
    <clipPath id="clip-path">
      <rect id="Rectángulo_462711" data-name="Rectángulo 462711" width="39.326" height="46.338" fill="#fff"/>
    </clipPath>
  </defs>
  <g id="Grupo_1212447" data-name="Grupo 1212447" transform="translate(-617.314 -749.862)">
    <circle id="Elipse_13676" data-name="Elipse 13676" cx="34.5" cy="34.5" r="34.5" transform="translate(617.314 749.862)" fill="#1e535a"/>
    <g id="Grupo_1213007" data-name="Grupo 1213007" transform="translate(632.314 760.862)">
      <g id="Grupo_1213006" data-name="Grupo 1213006" clip-path="url(#clip-path)">
        <path id="Trazado_1279422" data-name="Trazado 1279422" d="M44.144,62.179,44.127,34.8l4.617-1.248.741,2.576-1.141.073a2.721,2.721,0,0,0-2.489,2.972c.009.7.3,1.722,1.217,1.722h10.71c.884,0,1.212-1.038,1.194-1.714a3.076,3.076,0,0,0-.856-2.273,3.2,3.2,0,0,0-2.364-.76,2.409,2.409,0,0,0,1.482-2.773l-1.4-5.312h9v5.608a.785.785,0,0,0,.627.626l5.613.009,0,20.533L68.8,54.9a8.932,8.932,0,0,1-3.881,1.688,1.76,1.76,0,0,0-1.362,1.874L63.55,62.18Zm21.114-18.23a.727.727,0,0,0,.668-.759.76.76,0,0,0-.719-.589H49.941a.676.676,0,1,0,.091,1.348Zm.051,4.959a.713.713,0,0,0,.622-.785.8.8,0,0,0-.813-.56l-15.086,0a.712.712,0,0,0-.742.684.7.7,0,0,0,.744.664Zm.149,4.97a.846.846,0,0,0,.471-.8.82.82,0,0,0-.67-.531H49.768a.782.782,0,0,0-.471.782.769.769,0,0,0,.731.552Z" transform="translate(-37.902 -24.101)" fill="#fff"/>
        <path id="Trazado_1279423" data-name="Trazado 1279423" d="M203.614,235.344c-.01,2.622-3.357,5.915-6.157,6.6-3-.9-6.166-3.952-6.161-7.017l.008-5.445a9.922,9.922,0,0,0,4.324-1.753l3.651.009a10.65,10.65,0,0,0,4.359,1.731Zm-7.289.675c.167.15.567.374.749.318a1.889,1.889,0,0,0,.568-.37l2.692-2.573c.192-.184,0-.827-.225-.932a.894.894,0,0,0-.948.2l-2.2,2.086-1.513-1.262c-.2-.169-.852.153-.895.418a1.057,1.057,0,0,0,.277.775Z" transform="translate(-164.312 -195.603)" fill="#fff"/>
        <rect id="Rectángulo_462710" data-name="Rectángulo 462710" width="5.6" height="5.198" transform="translate(10.792 4.076) rotate(-15.024)" fill="#fff"/>
        <path id="Trazado_1279424" data-name="Trazado 1279424" d="M10.5,42.83,1.549,45.224a1.271,1.271,0,0,1-1.515-.947,1.247,1.247,0,0,1,.9-1.509l8.914-2.391Z" transform="translate(0 -34.682)" fill="#fff"/>
        <path id="Trazado_1279425" data-name="Trazado 1279425" d="M76.42,97.312H66.162c-.245-.867.152-2.024,1.115-2.024H75.3c.915,0,1.357,1.033,1.119,2.024" transform="translate(-56.768 -81.846)" fill="#fff"/>
        <path id="Trazado_1279426" data-name="Trazado 1279426" d="M204.818,37.325l-4.2.027.032-4.19Z" transform="translate(-172.322 -28.483)" fill="#fff"/>
        <path id="Trazado_1279427" data-name="Trazado 1279427" d="M93.438,65.15l-3.335.889a1.249,1.249,0,0,1-1.026-.24,3.381,3.381,0,0,1-.39-1.073l5.334-1.416a2.782,2.782,0,0,1,.174,1.165,1.2,1.2,0,0,1-.757.675" transform="translate(-76.178 -54.379)" fill="#fff"/>
        <path id="Trazado_1279428" data-name="Trazado 1279428" d="M73.068,2.774c-.283-.484-.382-1.478.214-1.682A35.151,35.151,0,0,1,77.24.016c.67-.145,1.172.74,1.1,1.345Z" transform="translate(-62.569 0)" fill="#fff"/>
        <path id="Trazado_1279429" data-name="Trazado 1279429" d="M47.424,28.357l-3.264.87a1.661,1.661,0,0,1,.186-1.261l2.7-.053c.076,0,.224.173.376.444" transform="translate(-37.891 -23.976)" fill="#fff"/>
      </g>
    </g>
  </g>
</svg>
