<svg xmlns="http://www.w3.org/2000/svg" xmlns:xlink="http://www.w3.org/1999/xlink" width="69" height="69" viewBox="0 0 69 69">
  <defs>
    <clipPath id="clip-path">
      <rect id="Rectángulo_462709" data-name="Rectángulo 462709" width="44.208" height="44.234" fill="#fff"/>
    </clipPath>
  </defs>
  <g id="Grupo_1212448" data-name="Grupo 1212448" transform="translate(-616.567 -749.862)">
    <circle id="Elipse_13676" data-name="Elipse 13676" cx="34.5" cy="34.5" r="34.5" transform="translate(616.567 749.862)" fill="#1e535a"/>
    <g id="Grupo_1213005" data-name="Grupo 1213005" transform="translate(628.963 762.245)">
      <g id="Grupo_1213004" data-name="Grupo 1213004" clip-path="url(#clip-path)">
        <path id="Trazado_1279414" data-name="Trazado 1279414" d="M11.111,27.643A13.633,13.633,0,0,1,0,14.807L0,4.757,11.094,0,22.172,4.743l-.005,10.31A13.651,13.651,0,0,1,11.111,27.643m5.548-4.01a2.176,2.176,0,0,0,2.1-2.232l0-8.733a2.3,2.3,0,0,0-1.786-2.27,5.9,5.9,0,1,0-11.76,0,2.325,2.325,0,0,0-1.8,2.147l.005,8.976a2.205,2.205,0,0,0,2.064,2.114Z" fill="#fff"/>
        <path id="Trazado_1279415" data-name="Trazado 1279415" d="M142.14,31.815l7.415,0a.87.87,0,0,0,.686-.6c.059-.3-.19-.837-.563-.837l-7.3-.007.06-1.938,7.257-.008c.327,0,.573-.494.562-.759-.01-.236-.3-.672-.61-.672l-7.213-.009v-1.92l7.111,0a.891.891,0,0,0,.7-.585c.06-.23-.152-.839-.457-.84l-7.355-.017,0-4.359a1.423,1.423,0,0,0-.837-1.285L138.9,16.748l13.3-.013a.7.7,0,0,1,.725.658l0,19.212L146.95,40.5H136.906a26.615,26.615,0,0,0,1.905-1.93l10.61-.007a.894.894,0,0,0,.785-.487.8.8,0,0,0-.43-.954h-9.813l1.043-1.934,8.41-.007a.738.738,0,0,0,.834-.782c-.015-.4-.38-.669-.861-.669l-7.758,0Z" transform="translate(-118.805 -14.522)" fill="#fff"/>
        <path id="Trazado_1279416" data-name="Trazado 1279416" d="M63.906,210.245c.211,1.4,1.307,1.536,2.626,1.882l-16.584.032a.743.743,0,0,0-.8.66.726.726,0,0,0,.8.791l16.515,0v4.327H47.307a.779.779,0,0,1-.814-.822l0-10.314a15.359,15.359,0,0,0,4.9,1.764,13.939,13.939,0,0,0,4.854-1.71h9.963l-1.231.854a3.436,3.436,0,0,0-1.07,1.073l-14.1,0a.785.785,0,0,0-.686.729.821.821,0,0,0,.7.729Z" transform="translate(-40.346 -179.459)" fill="#fff"/>
        <path id="Trazado_1279417" data-name="Trazado 1279417" d="M207.8,185.345H189.146a1.258,1.258,0,0,1-.2-1.314l9.5-6.2L207.907,184a1.273,1.273,0,0,1-.109,1.345" transform="translate(-163.884 -154.324)" fill="#fff"/>
        <path id="Trazado_1279418" data-name="Trazado 1279418" d="M207.616,320.956l-19.312-.006.942-2.064,17.429,0a9.005,9.005,0,0,1,.941,2.073" transform="translate(-163.408 -276.722)" fill="#fff"/>
        <rect id="Rectángulo_462706" data-name="Rectángulo 462706" width="2.749" height="8.253" transform="translate(27.566 32.451)" fill="#fff"/>
        <rect id="Rectángulo_462707" data-name="Rectángulo 462707" width="2.727" height="8.253" transform="translate(33.309 32.451)" fill="#fff"/>
        <rect id="Rectángulo_462708" data-name="Rectángulo 462708" width="2.758" height="8.253" transform="translate(38.81 32.451)" fill="#fff"/>
        <path id="Trazado_1279419" data-name="Trazado 1279419" d="M48.311,99.807h-10.9A.819.819,0,0,1,36.626,99V90.3a.851.851,0,0,1,.915-.856H48.383a.826.826,0,0,1,.719.708l0,8.862a.789.789,0,0,1-.787.794M43.7,96.872l.02-2.438a1.573,1.573,0,0,0,.269-2.458,1.55,1.55,0,0,0-2.278.06,1.582,1.582,0,0,0,.315,2.387l.02,2.474a.875.875,0,0,0,.845.859.832.832,0,0,0,.809-.885" transform="translate(-31.784 -77.617)" fill="#fff"/>
        <path id="Trazado_1279420" data-name="Trazado 1279420" d="M57.27,46.006a2.474,2.474,0,0,0-2.378-2.877,2.428,2.428,0,0,0-2.382,2.862l-2.042.031a4.554,4.554,0,0,1,1.35-3.7,4.351,4.351,0,0,1,3.838-1.186,4.567,4.567,0,0,1,3.657,4.88Z" transform="translate(-43.781 -35.633)" fill="#fff"/>
        <path id="Trazado_1279421" data-name="Trazado 1279421" d="M78.769,69.068l-1.873.053a1.376,1.376,0,0,1,.161-1.107.958.958,0,0,1,1.169-.233c.361.19.517.535.543,1.287" transform="translate(-66.688 -58.728)" fill="#fff"/>
      </g>
    </g>
  </g>
</svg>
