<svg xmlns="http://www.w3.org/2000/svg" xmlns:xlink="http://www.w3.org/1999/xlink" width="96" height="96" viewBox="0 0 96 96">
  <defs>
    <clipPath id="clip-path">
      <rect id="Rectángulo_454829" data-name="Rectángulo 454829" width="96" height="96" fill="#1e535a"/>
    </clipPath>
    <clipPath id="clip-path-2">
      <rect id="Rectángulo_463052" data-name="Rectángulo 463052" width="37.93" height="37.909" fill="#1e535a"/>
    </clipPath>
  </defs>
  <g id="Grupo_1212454" data-name="Grupo 1212454" transform="translate(-1481 -8562.5)">
    <g id="Grupo_1177591" data-name="Grupo 1177591" transform="translate(1481 8562.5)">
      <g id="Grupo_1177589" data-name="Grupo 1177589" transform="translate(0 0)">
        <g id="Grupo_1177587" data-name="Grupo 1177587" clip-path="url(#clip-path)">
          <path id="Trazado_997422" data-name="Trazado 997422" d="M92.081,42.491a44.136,44.136,0,0,0-9.97-22.967,5.076,5.076,0,0,0-7.142-6.838A44.071,44.071,0,0,0,52.151,3.77a5.077,5.077,0,0,0-9.861.2A44.132,44.132,0,0,0,20.4,13.329a5.079,5.079,0,0,0-7.048,7.1A44.1,44.1,0,0,0,4.112,42.448,5.08,5.08,0,0,0,3.99,52.4a44.082,44.082,0,0,0,8.949,22.468,5.078,5.078,0,0,0,6.9,7.17,44.128,44.128,0,0,0,22.412,9.8,5.078,5.078,0,0,0,9.949.2,44.091,44.091,0,0,0,22.985-9.08,5.077,5.077,0,0,0,7.107-6.874A44.147,44.147,0,0,0,92.2,52.349a5.078,5.078,0,0,0-.119-9.858M77.74,22.024a5.05,5.05,0,0,0,2.812-.851,41.913,41.913,0,0,1,9.25,21.3,5.086,5.086,0,0,0-3.246,2.351l-12.98-4.867c.01-.142.02-.286.02-.433a5.079,5.079,0,0,0-2.151-4.15l5.678-13.4a5.5,5.5,0,0,0,.616.041M75,21.216,69.354,34.523a5.026,5.026,0,0,0-5.594,3.23L40.279,32.344a4.941,4.941,0,0,0-.106-1.011l33.322-11.6A5.1,5.1,0,0,0,75,21.216M47.246,10.165a5.083,5.083,0,0,0,4.989-4.122,41.844,41.844,0,0,1,21.158,8.275,5.054,5.054,0,0,0-.735,2.625,5.335,5.335,0,0,0,.048.671L39.217,29.273a5.1,5.1,0,0,0-.92-.92l8.784-18.2c.056,0,.109.008.165.008M42.3,6.243A5.083,5.083,0,0,0,44.86,9.569L36.248,27.4a5.1,5.1,0,0,0-1.049-.109,5.045,5.045,0,0,0-2.9.91L22.1,19.678A5.052,5.052,0,0,0,21.923,15,41.877,41.877,0,0,1,42.3,6.243M10.041,46.332,31.153,35.442a5.064,5.064,0,0,0,4.006,2.014l7.236,23.129a5.166,5.166,0,0,0-1.12,1.239l-31.3-13.04a5.048,5.048,0,0,0,.187-1.348,5.107,5.107,0,0,0-.124-1.1m4.986-24.391a5.079,5.079,0,0,0,5.673-.484l10.079,8.417a5.068,5.068,0,0,0-.56,3.512L9.07,44.29A5.081,5.081,0,0,0,6.38,42.526a41.859,41.859,0,0,1,8.647-20.585m2.1,50.717a5.067,5.067,0,0,0-2.523.674A41.822,41.822,0,0,1,6.263,52.374,5.087,5.087,0,0,0,8.9,50.783l31.609,13.17a5.45,5.45,0,0,0-.041.611,5.081,5.081,0,0,0,.3,1.718L21.657,75.44a5.081,5.081,0,0,0-4.528-2.782M42.349,89.575a41.919,41.919,0,0,1-20.912-9.149,5.029,5.029,0,0,0,.775-2.686l0-.058L42,68.2A5.082,5.082,0,0,0,43.8,69.329l1.186,17.043a5.082,5.082,0,0,0-2.632,3.2m2.105-29.97-7.081-22.64a5.089,5.089,0,0,0,2.415-2.415L63.459,40a5.052,5.052,0,0,0,.808,2.311L48.032,60.13a5.019,5.019,0,0,0-3.577-.524m7.74,30.167a5.081,5.081,0,0,0-4.948-3.937l-.038,0L46.081,69.62a5.073,5.073,0,0,0,3.106-1.507L72.853,78.551c0,.046-.008.086-.008.132a5.057,5.057,0,0,0,.752,2.65,41.841,41.841,0,0,1-21.4,8.439M73.423,76.334,50.373,66.165a5.052,5.052,0,0,0-.666-4.52L65.893,43.877a5.052,5.052,0,0,0,2.622.735,5.594,5.594,0,0,0,.623-.041l6.05,29.836a5.071,5.071,0,0,0-1.766,1.928m7.292-1.9a5.051,5.051,0,0,0-3.377-.8L71.285,43.788a5.1,5.1,0,0,0,1.6-1.672L85.858,46.98a4.506,4.506,0,0,0-.023.456,5.08,5.08,0,0,0,4.084,4.981,41.876,41.876,0,0,1-9.2,22.017" transform="translate(0 0.001)" fill="#1e535a"/>
        </g>
      </g>
    </g>
    <g id="Elipse_13614" data-name="Elipse 13614" transform="translate(1497.965 8579.125)" fill="#d5f4f8" stroke="#1e535a" stroke-width="3">
      <ellipse cx="31.232" cy="31.233" rx="31.232" ry="31.233" stroke="none"/>
      <ellipse cx="31.232" cy="31.233" rx="29.732" ry="29.733" fill="none"/>
    </g>
    <g id="Grupo_1213321" data-name="Grupo 1213321" transform="translate(1509.965 8591.125)">
      <g id="Grupo_1213320" data-name="Grupo 1213320" clip-path="url(#clip-path-2)">
        <path id="Trazado_1279740" data-name="Trazado 1279740" d="M31.909.006a6.88,6.88,0,0,1,6,6.682l.022,14.262a.641.641,0,0,1-.645.72.686.686,0,0,1-.621-.6l-.016-10.108A6.96,6.96,0,0,1,24.277,5.04l-21.493,0A1.867,1.867,0,0,0,1.262,6.7l-.01,19.828,18.209,0c.462,0,.754.218.756.644a.712.712,0,0,1-.644.631H1.26l.02,2.091a1.917,1.917,0,0,0,2.094,1.716H19.467c.438,0,.719.142.741.605l.23,5a.673.673,0,0,1-.616.693h-7.19a.713.713,0,0,1-.535-.264,2.656,2.656,0,0,1-.091-.554l2.115-4.235L2.993,32.831A3.063,3.063,0,0,1,0,29.887V6.687A2.986,2.986,0,0,1,2.77,3.8l22-.027A7.041,7.041,0,0,1,30.049,0Zm1.172,7.536L31.61,6.576l0-2.781a.7.7,0,0,0-.608-.694.678.678,0,0,0-.661.669l.018,3.485,2.263,1.5c.29.192.8-.126.858-.408a.782.782,0,0,0-.4-.8" fill="#1e535a"/>
        <path id="Trazado_1279741" data-name="Trazado 1279741" d="M201.52,183.1l.021,11.538a1.906,1.906,0,0,1-1.986,1.99l-12.751-.018a1.867,1.867,0,0,1-1.713-1.85l0-11.369a1.915,1.915,0,0,1,1.825-1.941l1.977-.026,0-1.187a.643.643,0,1,1,1.283,0l0,1.2,6.3,0,.008-1.162a.654.654,0,0,1,.592-.714.629.629,0,0,1,.679.689l-.009,1.173,2.065.042a1.81,1.81,0,0,1,1.716,1.639m-1.806,12.253a.635.635,0,0,0,.551-.6v-8.227h-13.92l0,8.212a.668.668,0,0,0,.684.612Z" transform="translate(-163.612 -158.717)" fill="#1e535a"/>
        <path id="Trazado_1279742" data-name="Trazado 1279742" d="M85.407,129.769l-3.151,0a.615.615,0,0,1-.6-.583v-8.941a.6.6,0,0,1,.6-.572l3.272,0a.678.678,0,0,1,.567.688v8.7a.681.681,0,0,1-.685.706" transform="translate(-72.185 -105.786)" fill="#1e535a"/>
        <path id="Trazado_1279743" data-name="Trazado 1279743" d="M134.491,143.991l-3.155,0a.63.63,0,0,1-.581-.584v-6.968a.663.663,0,0,1,.7-.678l3.03,0a.684.684,0,0,1,.692.68l0,6.845a.679.679,0,0,1-.686.7" transform="translate(-115.584 -120.006)" fill="#1e535a"/>
        <path id="Trazado_1279744" data-name="Trazado 1279744" d="M36.312,158.745l-3.161,0a.638.638,0,0,1-.606-.574V153.04a.594.594,0,0,1,.6-.592h3.17a.655.655,0,0,1,.665.6l0,5.093a.72.72,0,0,1-.671.6" transform="translate(-28.768 -134.761)" fill="#1e535a"/>
        <path id="Trazado_1279745" data-name="Trazado 1279745" d="M40.711,82.834l-7.575,0a.807.807,0,0,1-.624-.519c-.057-.2.129-.745.386-.745l8,0c.253,0,.481.438.466.636a.709.709,0,0,1-.651.629" transform="translate(-28.731 -72.104)" fill="#1e535a"/>
        <path id="Trazado_1279746" data-name="Trazado 1279746" d="M40.807,60.892,33.12,60.9a.79.79,0,0,1-.615-.535c-.052-.2.139-.725.413-.726l7.751-.018a.717.717,0,0,1,.684.527c.047.217-.19.743-.545.743" transform="translate(-28.726 -52.705)" fill="#1e535a"/>
        <path id="Trazado_1279747" data-name="Trazado 1279747" d="M36.42,104.605l-3.345-.007a.671.671,0,0,1-.6-.565c-.023-.257.2-.657.482-.658l3.3-.013a.724.724,0,0,1,.643.468.75.75,0,0,1-.478.775" transform="translate(-28.704 -91.37)" fill="#1e535a"/>
        <path id="Trazado_1279748" data-name="Trazado 1279748" d="M210,254.326h-2.473a.692.692,0,0,1-.679-.631v-2.565a.686.686,0,0,1,.679-.583H210a.691.691,0,0,1,.678.584V253.7a.7.7,0,0,1-.678.631" transform="translate(-182.846 -221.478)" fill="#1e535a"/>
      </g>
    </g>
  </g>
</svg>
