<svg xmlns="http://www.w3.org/2000/svg" xmlns:xlink="http://www.w3.org/1999/xlink" width="96" height="96" viewBox="0 0 96 96">
  <defs>
    <clipPath id="clip-path">
      <rect id="Rectángulo_454829" data-name="Rectángulo 454829" width="96" height="96" fill="#1e535a"/>
    </clipPath>
    <clipPath id="clip-path-2">
      <rect id="Rectángulo_463051" data-name="Rectángulo 463051" width="39.34" height="40.277" fill="#1e535a"/>
    </clipPath>
  </defs>
  <g id="Grupo_1212453" data-name="Grupo 1212453" transform="translate(-1481 -8562.5)">
    <g id="Grupo_1177591" data-name="Grupo 1177591" transform="translate(1481 8562.5)">
      <g id="Grupo_1177589" data-name="Grupo 1177589" transform="translate(0 0)">
        <g id="Grupo_1177587" data-name="Grupo 1177587" clip-path="url(#clip-path)">
          <path id="Trazado_997422" data-name="Trazado 997422" d="M92.081,42.491a44.136,44.136,0,0,0-9.97-22.967,5.076,5.076,0,0,0-7.142-6.838A44.071,44.071,0,0,0,52.151,3.77a5.077,5.077,0,0,0-9.861.2A44.132,44.132,0,0,0,20.4,13.329a5.079,5.079,0,0,0-7.048,7.1A44.1,44.1,0,0,0,4.112,42.448,5.08,5.08,0,0,0,3.99,52.4a44.082,44.082,0,0,0,8.949,22.468,5.078,5.078,0,0,0,6.9,7.17,44.128,44.128,0,0,0,22.412,9.8,5.078,5.078,0,0,0,9.949.2,44.091,44.091,0,0,0,22.985-9.08,5.077,5.077,0,0,0,7.107-6.874A44.147,44.147,0,0,0,92.2,52.349a5.078,5.078,0,0,0-.119-9.858M77.74,22.024a5.05,5.05,0,0,0,2.812-.851,41.913,41.913,0,0,1,9.25,21.3,5.086,5.086,0,0,0-3.246,2.351l-12.98-4.867c.01-.142.02-.286.02-.433a5.079,5.079,0,0,0-2.151-4.15l5.678-13.4a5.5,5.5,0,0,0,.616.041M75,21.216,69.354,34.523a5.026,5.026,0,0,0-5.594,3.23L40.279,32.344a4.941,4.941,0,0,0-.106-1.011l33.322-11.6A5.1,5.1,0,0,0,75,21.216M47.246,10.165a5.083,5.083,0,0,0,4.989-4.122,41.844,41.844,0,0,1,21.158,8.275,5.054,5.054,0,0,0-.735,2.625,5.335,5.335,0,0,0,.048.671L39.217,29.273a5.1,5.1,0,0,0-.92-.92l8.784-18.2c.056,0,.109.008.165.008M42.3,6.243A5.083,5.083,0,0,0,44.86,9.569L36.248,27.4a5.1,5.1,0,0,0-1.049-.109,5.045,5.045,0,0,0-2.9.91L22.1,19.678A5.052,5.052,0,0,0,21.923,15,41.877,41.877,0,0,1,42.3,6.243M10.041,46.332,31.153,35.442a5.064,5.064,0,0,0,4.006,2.014l7.236,23.129a5.166,5.166,0,0,0-1.12,1.239l-31.3-13.04a5.048,5.048,0,0,0,.187-1.348,5.107,5.107,0,0,0-.124-1.1m4.986-24.391a5.079,5.079,0,0,0,5.673-.484l10.079,8.417a5.068,5.068,0,0,0-.56,3.512L9.07,44.29A5.081,5.081,0,0,0,6.38,42.526a41.859,41.859,0,0,1,8.647-20.585m2.1,50.717a5.067,5.067,0,0,0-2.523.674A41.822,41.822,0,0,1,6.263,52.374,5.087,5.087,0,0,0,8.9,50.783l31.609,13.17a5.45,5.45,0,0,0-.041.611,5.081,5.081,0,0,0,.3,1.718L21.657,75.44a5.081,5.081,0,0,0-4.528-2.782M42.349,89.575a41.919,41.919,0,0,1-20.912-9.149,5.029,5.029,0,0,0,.775-2.686l0-.058L42,68.2A5.082,5.082,0,0,0,43.8,69.329l1.186,17.043a5.082,5.082,0,0,0-2.632,3.2m2.105-29.97-7.081-22.64a5.089,5.089,0,0,0,2.415-2.415L63.459,40a5.052,5.052,0,0,0,.808,2.311L48.032,60.13a5.019,5.019,0,0,0-3.577-.524m7.74,30.167a5.081,5.081,0,0,0-4.948-3.937l-.038,0L46.081,69.62a5.073,5.073,0,0,0,3.106-1.507L72.853,78.551c0,.046-.008.086-.008.132a5.057,5.057,0,0,0,.752,2.65,41.841,41.841,0,0,1-21.4,8.439M73.423,76.334,50.373,66.165a5.052,5.052,0,0,0-.666-4.52L65.893,43.877a5.052,5.052,0,0,0,2.622.735,5.594,5.594,0,0,0,.623-.041l6.05,29.836a5.071,5.071,0,0,0-1.766,1.928m7.292-1.9a5.051,5.051,0,0,0-3.377-.8L71.285,43.788a5.1,5.1,0,0,0,1.6-1.672L85.858,46.98a4.506,4.506,0,0,0-.023.456,5.08,5.08,0,0,0,4.084,4.981,41.876,41.876,0,0,1-9.2,22.017" transform="translate(0 0.001)" fill="#1e535a"/>
        </g>
      </g>
    </g>
    <g id="Elipse_13614" data-name="Elipse 13614" transform="translate(1497.965 8579.125)" fill="#d5f4f8" stroke="#1e535a" stroke-width="3">
      <ellipse cx="31.232" cy="31.233" rx="31.232" ry="31.233" stroke="none"/>
      <ellipse cx="31.232" cy="31.233" rx="29.732" ry="29.733" fill="none"/>
    </g>
    <g id="Grupo_1213319" data-name="Grupo 1213319" transform="translate(1509.965 8590.125)">
      <g id="Grupo_1213318" data-name="Grupo 1213318" clip-path="url(#clip-path-2)">
        <path id="Trazado_1279734" data-name="Trazado 1279734" d="M52.417,19.215a2.629,2.629,0,0,1-2.269-.479c-1.452-.84-2.815-1.692-4.319-2.4A4.787,4.787,0,0,0,40.08,17.5l-8.272.007a2.525,2.525,0,0,0-2.086-2.086l-2.214-.49a4.3,4.3,0,0,0-1.211-.017L26.3.768c0-.565.516-.768.99-.768H50.364V5.635a2.544,2.544,0,0,0,2.6,2.7h5.749l0,6.468-2.724.566a2.909,2.909,0,0,0-1.807,1,2.529,2.529,0,0,0-.372,2.319ZM38.48,10.641a3.127,3.127,0,0,0-3.113-2.1,1.386,1.386,0,0,1-1.437-1.3,1.351,1.351,0,0,1,.717-1.044c.921-.44,1.638-.039,2.46.646a.819.819,0,0,0,1.01-.106.911.911,0,0,0,.052-1.117A3.647,3.647,0,0,0,36.363,4.51a1.236,1.236,0,0,1-.133-.475.826.826,0,0,0-.822-.969.8.8,0,0,0-.789,1.025.548.548,0,0,1-.329.478,2.824,2.824,0,0,0-1.86,3.618,3.318,3.318,0,0,0,3.228,2.048,1.256,1.256,0,0,1,1.233,1.586,1.514,1.514,0,0,1-1.26.9c-1.272.189-1.83-1.521-2.734-.669a.87.87,0,0,0-.067,1.126,6.053,6.053,0,0,0,1.764,1.176c.027.433.106,1,.5,1.157a.847.847,0,0,0,1.108-.368l.151-.9a2.851,2.851,0,0,0,2.128-3.6m9.9-3.86a.824.824,0,0,0,.065-1.637H42.075c-.482,0-.736.549-.7.893a.84.84,0,0,0,.945.753Zm-.015,3.253a.836.836,0,0,0-.055-1.671h-6.1a.824.824,0,0,0-.84.879.858.858,0,0,0,.837.8Zm-.129,3.285a.859.859,0,0,0,.91-.888.837.837,0,0,0-.823-.8H42.2a.825.825,0,0,0-.823.906.89.89,0,0,0,.962.784Z" transform="translate(-23.081)" fill="#1e535a"/>
        <path id="Trazado_1279735" data-name="Trazado 1279735" d="M64.311,168.727l6.109,6.105a1.261,1.261,0,1,1-1.78,1.78l-6.29-6.3a.859.859,0,0,0-1.085-.1.787.787,0,0,0-.2,1.147l4.812,4.836a1.273,1.273,0,0,1,.028,1.7,1.231,1.231,0,0,1-1.667.188l-5.326-5.3a.84.84,0,0,0-1.191.008.865.865,0,0,0,.051,1.244l2.207,2.2a1.3,1.3,0,0,1,.2,1.828,1.273,1.273,0,0,1-1.871.066l-9.579-9.456,2.548-11.179,6.867.007-1.782,2.126c-.928,1.053-1.853,2.02-2.889,2.986a1.112,1.112,0,0,0-.375.745,1.877,1.877,0,0,0,.434.718,4.7,4.7,0,0,0,5.394,1.4,14.129,14.129,0,0,0,3.137-1.74,2.642,2.642,0,0,1,3.448.255l7.694,7.691a1.289,1.289,0,0,1,0,1.768,1.273,1.273,0,0,1-1.795.022l-6.051-6.038a.821.821,0,0,0-1.081.146.857.857,0,0,0,.035,1.15" transform="translate(-42.767 -138.225)" fill="#1e535a"/>
        <path id="Trazado_1279736" data-name="Trazado 1279736" d="M112.978,151.037a4.414,4.414,0,0,0-5.862-.32c-1.8,1.345-4.056,2.391-5.682.841,2.194-2.119,4.079-4.911,6.208-6.784a3.227,3.227,0,0,1,3.651-.32l4.359,2.474a4.287,4.287,0,0,0,4.456-.114l2.5,10.887-2.055.9Z" transform="translate(-89.027 -126.422)" fill="#1e535a"/>
        <path id="Trazado_1279737" data-name="Trazado 1279737" d="M267.777,151.427a.81.81,0,0,1-1.055-.655l-3.068-13.4a.769.769,0,0,1,.616-.878l2.516-.561a.769.769,0,0,1,.861.622l3.079,13.436a.822.822,0,0,1-.523.867Z" transform="translate(-231.389 -119.29)" fill="#1e535a"/>
        <path id="Trazado_1279738" data-name="Trazado 1279738" d="M4.019,150.735c-.11.48-.459.84-.912.735l-2.582-.6A.827.827,0,0,1,0,150l3.078-13.435a.764.764,0,0,1,.861-.62l2.518.557a.772.772,0,0,1,.615.879Z" transform="translate(0 -119.307)" fill="#1e535a"/>
        <path id="Trazado_1279739" data-name="Trazado 1279739" d="M237.632,6.83a.962.962,0,0,1-.991-.735l.027-5.909L243.284,6.8Z" transform="translate(-207.695 -0.163)" fill="#1e535a"/>
      </g>
    </g>
  </g>
</svg>
