<svg xmlns="http://www.w3.org/2000/svg" xmlns:xlink="http://www.w3.org/1999/xlink" width="151.457" height="151.466" viewBox="0 0 151.457 151.466">
  <defs>
    <radialGradient id="radial-gradient" cx="0.5" cy="0.5" r="0.5" gradientUnits="objectBoundingBox">
      <stop offset="0" stop-color="#fff"/>
      <stop offset="0.866" stop-color="#fff" stop-opacity="0.078"/>
      <stop offset="1" stop-color="#fff" stop-opacity="0"/>
    </radialGradient>
    <clipPath id="clip-path">
      <rect id="Rectángulo_454829" data-name="Rectángulo 454829" width="96.667" height="96.667" fill="none"/>
    </clipPath>
    <clipPath id="clip-path-2">
      <rect id="Rectángulo_454808" data-name="Rectángulo 454808" width="151.457" height="151.466" fill="none"/>
    </clipPath>
    <clipPath id="clip-path-3">
      <rect id="Rectángulo_461876" data-name="Rectángulo 461876" width="32.831" height="35" fill="#6cb9ff"/>
    </clipPath>
  </defs>
  <g id="Grupo_1212222" data-name="Grupo 1212222" transform="translate(13073 12011)">
    <circle id="Elipse_13694" data-name="Elipse 13694" cx="71" cy="71" r="71" transform="translate(-13068 -12006)" fill="url(#radial-gradient)"/>
    <g id="Grupo_1184530" data-name="Grupo 1184530" transform="translate(-14255.376 -12499.983)">
      <g id="Grupo_1177593" data-name="Grupo 1177593" transform="translate(297.438 346.529)">
        <g id="Grupo_1177591" data-name="Grupo 1177591">
          <g id="Grupo_1177589" data-name="Grupo 1177589" transform="translate(912.333 169.854)">
            <g id="Grupo_1177587" data-name="Grupo 1177587" transform="translate(0 0)" clip-path="url(#clip-path)">
              <path id="Trazado_997422" data-name="Trazado 997422" d="M92.72,42.786A44.443,44.443,0,0,0,82.681,19.659a5.111,5.111,0,0,0-7.192-6.886A44.377,44.377,0,0,0,52.514,3.8a5.112,5.112,0,0,0-9.929.2A44.438,44.438,0,0,0,20.54,13.422a5.114,5.114,0,0,0-7.1,7.146,44.4,44.4,0,0,0-9.3,22.175,5.116,5.116,0,0,0-.122,10.019,44.388,44.388,0,0,0,9.011,22.624,5.113,5.113,0,0,0,6.947,7.22,44.435,44.435,0,0,0,22.568,9.871,5.114,5.114,0,0,0,10.019.2,44.4,44.4,0,0,0,23.144-9.143,5.112,5.112,0,0,0,7.156-6.921,44.454,44.454,0,0,0,9.978-23.9,5.114,5.114,0,0,0-.12-9.927M78.281,22.177a5.085,5.085,0,0,0,2.832-.857,42.2,42.2,0,0,1,9.314,21.453,5.121,5.121,0,0,0-3.268,2.367l-13.07-4.9c.01-.143.02-.288.02-.436a5.114,5.114,0,0,0-2.166-4.179l5.717-13.488a5.54,5.54,0,0,0,.62.041m-2.763-.814-5.681,13.4A5.061,5.061,0,0,0,64.2,38.015L40.559,32.568a4.975,4.975,0,0,0-.107-1.018L74,19.866a5.13,5.13,0,0,0,1.513,1.5M47.575,10.235A5.118,5.118,0,0,0,52.6,6.085a42.135,42.135,0,0,1,21.3,8.332,5.089,5.089,0,0,0-.74,2.643,5.372,5.372,0,0,0,.048.676L39.49,29.476a5.133,5.133,0,0,0-.926-.926l8.845-18.323c.056,0,.11.008.166.008M42.6,6.286a5.119,5.119,0,0,0,2.574,3.35L36.5,27.594a5.132,5.132,0,0,0-1.056-.11,5.08,5.08,0,0,0-2.916.916L22.249,19.815a5.087,5.087,0,0,0-.173-4.709A42.168,42.168,0,0,1,42.6,6.286M10.11,46.654,31.369,35.689A5.1,5.1,0,0,0,35.4,37.717l7.286,23.29a5.2,5.2,0,0,0-1.128,1.248L10.047,49.123a5.083,5.083,0,0,0,.189-1.357,5.143,5.143,0,0,0-.125-1.112m5.021-24.56a5.114,5.114,0,0,0,5.712-.487l10.149,8.475a5.1,5.1,0,0,0-.564,3.536L9.133,44.6a5.116,5.116,0,0,0-2.709-1.776,42.149,42.149,0,0,1,8.707-20.728m2.117,51.07a5.1,5.1,0,0,0-2.541.679,42.112,42.112,0,0,1-8.4-21.1,5.122,5.122,0,0,0,2.656-1.6L40.791,64.4a5.487,5.487,0,0,0-.041.615,5.117,5.117,0,0,0,.306,1.73L21.808,75.964a5.117,5.117,0,0,0-4.559-2.8M42.643,90.2a42.21,42.21,0,0,1-21.057-9.212,5.064,5.064,0,0,0,.781-2.7l0-.059,19.93-9.552a5.118,5.118,0,0,0,1.806,1.14l1.194,17.162A5.117,5.117,0,0,0,42.643,90.2m2.12-30.178-7.131-22.8a5.125,5.125,0,0,0,2.431-2.431L63.9,40.278a5.087,5.087,0,0,0,.814,2.327L48.365,60.547a5.054,5.054,0,0,0-3.6-.528M52.557,90.4a5.116,5.116,0,0,0-4.982-3.965l-.038,0L46.4,70.1a5.108,5.108,0,0,0,3.128-1.518L73.359,79.1c0,.046-.008.087-.008.133a5.092,5.092,0,0,0,.758,2.669,42.132,42.132,0,0,1-21.552,8.5M73.933,76.865,50.723,66.624a5.087,5.087,0,0,0-.671-4.551l16.3-17.891a5.087,5.087,0,0,0,2.64.74,5.635,5.635,0,0,0,.628-.041l6.092,30.043a5.106,5.106,0,0,0-1.778,1.941m7.342-1.913a5.087,5.087,0,0,0-3.4-.8L71.78,44.092a5.138,5.138,0,0,0,1.612-1.684l13.062,4.9a4.535,4.535,0,0,0-.023.459,5.116,5.116,0,0,0,4.113,5.016,42.167,42.167,0,0,1-9.268,22.17" transform="translate(0 0.001)" fill="#fff"/>
            </g>
          </g>
        </g>
      </g>
      <circle id="Elipse_13615" data-name="Elipse 13615" cx="28" cy="28" r="28" transform="translate(1229.651 536.983)" fill="#fff"/>
      <g id="Grupo_1212229" data-name="Grupo 1212229" transform="translate(1241.651 547.983)">
        <g id="Grupo_1212228" data-name="Grupo 1212228" clip-path="url(#clip-path-3)">
          <path id="Trazado_1277304" data-name="Trazado 1277304" d="M33.464,58.664H12.677a.978.978,0,0,1-1.046-.934l0-16.284H34.47l-.047,16.187a.978.978,0,0,1-.959,1.031M22.312,49.139l2.506-5.184a.556.556,0,0,0-.362-.747.6.6,0,0,0-.66.339l-2.522,5.245c-.121.252.155.615.357.671a.587.587,0,0,0,.68-.325m-.95-2.069-1.05-.732.985-.665a.672.672,0,0,0,.121-.744c-.089-.151-.512-.31-.66-.209L19.013,45.91a.561.561,0,0,0-.026.846l1.754,1.2c.173.118.536-.039.651-.187s.126-.589-.029-.7m4.184.775,1.567-1.092a.579.579,0,0,0-.078-.889l-1.684-1.137c-.191-.129-.644.084-.708.273a.742.742,0,0,0,.159.675l.993.669-.953.641a.561.561,0,0,0-.116.813.6.6,0,0,0,.821.045m-7.371,4.5a.628.628,0,0,0,.547-.626.62.62,0,0,0-.575-.474l-4.249,0a.57.57,0,0,0-.541.562.651.651,0,0,0,.574.541Zm13.935.007a.624.624,0,0,0,.638-.545.559.559,0,0,0-.553-.56H20.738a.553.553,0,0,0-.6.563.635.635,0,0,0,.616.544Zm-13.866,2.66c.222,0,.479-.35.488-.52s-.2-.551-.379-.551L13.9,53.93a.574.574,0,0,0-.541.561c0,.184.268.524.494.524Zm6,0a.6.6,0,0,0,.5-.593.591.591,0,0,0-.583-.489l-3.638.018c-.214,0-.421.438-.37.621a.76.76,0,0,0,.519.453Zm8.051,0c.287,0,.5-.433.462-.614a.6.6,0,0,0-.545-.464l-5.686.006c-.253,0-.437.349-.431.556.005.189.233.523.478.522ZM18.216,57.68c.249,0,.5-.331.513-.508s-.194-.559-.375-.559l-4.573-.005c-.233,0-.443.374-.425.572a.591.591,0,0,0,.531.5Zm14.03,0a.55.55,0,0,0,.5-.6c-.017-.163-.215-.475-.44-.475l-11.77,0c-.218,0-.417.392-.4.562s.254.506.489.506Z" transform="translate(-6.639 -23.664)" fill="#6cb9ff"/>
          <path id="Trazado_1277305" data-name="Trazado 1277305" d="M28.921,14.528a1.952,1.952,0,0,0-1.815-1.947H5.723A1.945,1.945,0,0,0,3.91,14.492l-.023,5.4A5.9,5.9,0,0,1,5.617,8.445a.608.608,0,0,0,.62-.516A8.59,8.59,0,0,1,21.8,3.61a.952.952,0,0,0,.705.346,5.921,5.921,0,0,1,5.1,4.313,1.527,1.527,0,0,0,.7.336,5.909,5.909,0,0,1,.622,11.309ZM14.535,2.15a.564.564,0,0,0,.458-.659.648.648,0,0,0-.594-.426A7.5,7.5,0,0,0,7.334,7.611a.589.589,0,0,0,.5.623A.6.6,0,0,0,8.4,7.818,6.454,6.454,0,0,1,14.535,2.15" transform="translate(0 0)" fill="#6cb9ff"/>
          <path id="Trazado_1277306" data-name="Trazado 1277306" d="M34.477,34.865H11.64l0-2.156a.9.9,0,0,1,.948-.907H33.53a.93.93,0,0,1,.959.907Z" transform="translate(-6.646 -18.158)" fill="#6cb9ff"/>
        </g>
      </g>
    </g>
  </g>
</svg>
