<svg xmlns="http://www.w3.org/2000/svg" xmlns:xlink="http://www.w3.org/1999/xlink" width="396" height="253.854" viewBox="0 0 396 253.854">
  <defs>
    <clipPath id="clip-path">
      <rect id="Rectángulo_462695" data-name="Rectángulo 462695" width="369.344" height="242.052" fill="none"/>
    </clipPath>
    <clipPath id="clip-path-3">
      <path id="Trazado_1279201" data-name="Trazado 1279201" d="M193.015,0c-16.422,0-29.733,14.346-29.733,32.042,0,.188.01.376.012.566-4.89-8.868-13.864-14.814-24.13-14.814A27.314,27.314,0,0,0,117.219,29.2c-5.985-10.121-16.484-16.841-28.446-16.841-18.621,0-33.715,16.265-33.715,36.331A38.46,38.46,0,0,0,58.61,64.915c-6.124.969-10.83,6.637-10.83,13.5,0,.112.012.221.016.333-8.891,2.376-15.478,11.03-15.478,21.345a23.519,23.519,0,0,0,1.022,6.872,22.881,22.881,0,0,0-2.738-.17c-13.509,0-24.457,11.8-24.457,26.357a27.6,27.6,0,0,0,4.788,15.664A35.841,35.841,0,0,0,0,174.874c0,19.042,14.228,34.494,31.85,34.7,3.525,13.458,15,23.323,28.611,23.323H307.208c21.921,0,39.692-19.15,39.692-42.774a46.05,46.05,0,0,0-1.112-10.043c13.656-4.647,23.556-18.4,23.556-34.651,0-20.066-15.094-36.333-33.713-36.333a31.552,31.552,0,0,0-13.171,2.879,22.116,22.116,0,0,0-14.8-16.706,44.238,44.238,0,0,0,12.6-31.247c0-23.621-17.769-42.771-39.688-42.771-12.612,0-23.84,6.345-31.11,16.224A27.524,27.524,0,0,0,227.973,26.87a26.622,26.622,0,0,0-5.533.584C220.376,11.931,207.991,0,193.015,0Z" fill="#fff7df"/>
    </clipPath>
    <clipPath id="clip-path-5">
      <path id="Rectángulo_462682" data-name="Rectángulo 462682" d="M2.221,0H220.979A2.221,2.221,0,0,1,223.2,2.221v114.9a2.221,2.221,0,0,1-2.221,2.221H2.222A2.222,2.222,0,0,1,0,117.124V2.221A2.221,2.221,0,0,1,2.221,0Z" fill="none"/>
    </clipPath>
    <linearGradient id="linear-gradient" x1="-0.212" y1="1.042" x2="-0.204" y2="1.042" gradientUnits="objectBoundingBox">
      <stop offset="0" stop-color="#e4abff"/>
      <stop offset="1" stop-color="#00b0ff"/>
    </linearGradient>
    <clipPath id="clip-path-7">
      <rect id="Rectángulo_462683" data-name="Rectángulo 462683" width="117.725" height="68.424" fill="none"/>
    </clipPath>
    <clipPath id="clip-path-8">
      <rect id="Rectángulo_462684" data-name="Rectángulo 462684" width="223.199" height="119.344" fill="none"/>
    </clipPath>
    <clipPath id="clip-path-9">
      <path id="Trazado_1279213" data-name="Trazado 1279213" d="M104.27,76.181a5.377,5.377,0,0,0,0,10.754h56.691V76.181Z" transform="translate(-98.896 -76.181)" fill="none"/>
    </clipPath>
    <linearGradient id="linear-gradient-2" x1="-3.256" y1="8.033" x2="-3.223" y2="8.033" gradientUnits="objectBoundingBox">
      <stop offset="0" stop-color="#3b2b5a"/>
      <stop offset="0.114" stop-color="#404f82"/>
      <stop offset="0.241" stop-color="#4571a8"/>
      <stop offset="0.373" stop-color="#4a8cc7"/>
      <stop offset="0.51" stop-color="#4da2e0"/>
      <stop offset="0.655" stop-color="#50b1f1"/>
      <stop offset="0.811" stop-color="#51bbfb"/>
      <stop offset="1" stop-color="#52beff"/>
    </linearGradient>
    <clipPath id="clip-path-11">
      <path id="Trazado_1279216" data-name="Trazado 1279216" d="M126.41,81.559a5.376,5.376,0,1,0,5.376-5.378,5.378,5.378,0,0,0-5.376,5.378" transform="translate(-126.41 -76.181)" fill="none"/>
    </clipPath>
    <linearGradient id="linear-gradient-3" x1="-24.023" y1="8.033" x2="-23.833" y2="8.033" gradientUnits="objectBoundingBox">
      <stop offset="0" stop-color="#ff80f3"/>
      <stop offset="1" stop-color="#d41e39"/>
    </linearGradient>
    <clipPath id="clip-path-13">
      <rect id="Rectángulo_462691" data-name="Rectángulo 462691" width="16.596" height="16.595" fill="none"/>
    </clipPath>
    <clipPath id="clip-path-14">
      <rect id="Rectángulo_462692" data-name="Rectángulo 462692" width="14.915" height="15" fill="none"/>
    </clipPath>
    <clipPath id="clip-path-15">
      <rect id="Rectángulo_462693" data-name="Rectángulo 462693" width="298.69" height="191.771" fill="none"/>
    </clipPath>
  </defs>
  <g id="Grupo_1211953" data-name="Grupo 1211953" transform="translate(-1015.422 -3335.146)">
    <path id="Trazado_1273937" data-name="Trazado 1273937" d="M0,0H396V253.854H0Z" transform="translate(1015.422 3335.146)" fill="none"/>
    <g id="Grupo_1212993" data-name="Grupo 1212993" transform="translate(1027.455 3338.48)">
      <g id="Grupo_1212992" data-name="Grupo 1212992" clip-path="url(#clip-path)">
        <g id="Grupo_1212960" data-name="Grupo 1212960" transform="translate(0 0)">
          <g id="Grupo_1212959" data-name="Grupo 1212959" clip-path="url(#clip-path)">
            <path id="Trazado_1279199" data-name="Trazado 1279199" d="M160.42,86.811q.524.53,1.071,1.028l-2.5,4.8a33.81,33.81,0,0,0,3.513,2.581l3.831-3.821a28.644,28.644,0,0,0,2.634,1.357l-.895,5.345a33.565,33.565,0,0,0,4.14,1.361l2.466-4.824a28.967,28.967,0,0,0,2.92.478l.8,5.352a34.126,34.126,0,0,0,4.36.02l.852-5.343a28.432,28.432,0,0,0,2.926-.45l2.417,4.851a34.137,34.137,0,0,0,4.152-1.322l-.84-5.354a28.36,28.36,0,0,0,2.646-1.332l3.792,3.86a33.69,33.69,0,0,0,3.539-2.546L199.8,88.025c.368-.327.727-.664,1.079-1.016s.7-.7,1.028-1.069l4.8,2.5a34.055,34.055,0,0,0,2.583-3.513L205.459,81.1a28.892,28.892,0,0,0,1.357-2.634l5.345.893a33.894,33.894,0,0,0,1.363-4.138L208.7,72.751a28.917,28.917,0,0,0,.478-2.922l5.352-.8a34.122,34.122,0,0,0,.02-4.361l-5.343-.854a28.393,28.393,0,0,0-.45-2.924l4.851-2.419a34.367,34.367,0,0,0-1.322-4.152l-5.354.842a28.111,28.111,0,0,0-1.332-2.646l3.86-3.795a33.447,33.447,0,0,0-2.546-3.537l-4.822,2.45c-.329-.366-.666-.725-1.018-1.079s-.7-.695-1.069-1.026l2.5-4.8a34.029,34.029,0,0,0-3.513-2.581l-3.831,3.823a28.167,28.167,0,0,0-2.634-1.359l.893-5.343a33.785,33.785,0,0,0-4.138-1.363l-2.466,4.826a28.352,28.352,0,0,0-2.922-.478l-.8-5.352a33.751,33.751,0,0,0-4.361-.02l-.852,5.343a28.987,28.987,0,0,0-2.926.447l-2.419-4.849a33.66,33.66,0,0,0-4.152,1.322l.842,5.354a28.1,28.1,0,0,0-2.646,1.33l-3.794-3.86a33.982,33.982,0,0,0-3.537,2.548l2.45,4.822q-.549.49-1.079,1.016t-1.026,1.071l-4.8-2.5a33.805,33.805,0,0,0-2.581,3.513l3.823,3.831a27.655,27.655,0,0,0-1.357,2.634l-5.345-.895a33.815,33.815,0,0,0-1.363,4.14l4.826,2.466a28.416,28.416,0,0,0-.478,2.92l-5.352.8a34.5,34.5,0,0,0-.023,4.361l5.345.852a28.994,28.994,0,0,0,.447,2.926l-4.849,2.417a33.788,33.788,0,0,0,1.322,4.152l5.354-.84a28.339,28.339,0,0,0,1.33,2.646l-3.858,3.792a33.685,33.685,0,0,0,2.546,3.539l4.822-2.452c.327.366.666.727,1.016,1.079m4.34-36.272a22.72,22.72,0,1,1-.157,32.132,22.722,22.722,0,0,1,.157-32.132" transform="translate(153.254 34.245)" fill="#ffd453"/>
            <path id="Trazado_1279200" data-name="Trazado 1279200" d="M23.34,52.293c.2.2.407.4.615.591l-1.436,2.761a19.4,19.4,0,0,0,2.021,1.483l2.2-2.2a16.608,16.608,0,0,0,1.516.781l-.515,3.073a19.18,19.18,0,0,0,2.381.783l1.418-2.775a16.817,16.817,0,0,0,1.68.276l.462,3.077a19.739,19.739,0,0,0,2.507.012l.49-3.073a16.269,16.269,0,0,0,1.684-.26l1.389,2.791a19.537,19.537,0,0,0,2.389-.762l-.484-3.077a16.569,16.569,0,0,0,1.522-.766l2.182,2.219A19.579,19.579,0,0,0,47.4,55.767l-1.41-2.775c.21-.188.417-.384.621-.584s.4-.407.591-.615l2.761,1.436a19.7,19.7,0,0,0,1.483-2.021l-2.2-2.2a16.346,16.346,0,0,0,.781-1.516L53.1,48a19.414,19.414,0,0,0,.783-2.381l-2.775-1.418a16.157,16.157,0,0,0,.274-1.68l3.079-.46a19.776,19.776,0,0,0,.012-2.509l-3.073-.49a16.712,16.712,0,0,0-.259-1.682l2.789-1.392a19.181,19.181,0,0,0-.76-2.389l-3.079.484a16.549,16.549,0,0,0-.764-1.522l2.219-2.182a19.6,19.6,0,0,0-1.465-2.035l-2.775,1.41c-.188-.21-.382-.417-.582-.621s-.407-.4-.615-.591l1.436-2.759A19.422,19.422,0,0,0,45.524,24.3l-2.2,2.2a16.608,16.608,0,0,0-1.516-.781l.515-3.073a19.193,19.193,0,0,0-2.381-.785l-1.418,2.775a16.757,16.757,0,0,0-1.682-.274l-.46-3.079a19.368,19.368,0,0,0-2.507-.01l-.49,3.073a16.264,16.264,0,0,0-1.684.257L30.31,21.817a19.183,19.183,0,0,0-2.389.76l.484,3.079a15.828,15.828,0,0,0-1.522.766L24.7,24.2a19.6,19.6,0,0,0-2.035,1.465l1.41,2.775c-.21.188-.419.382-.621.584s-.4.4-.591.615L20.1,28.2a19.378,19.378,0,0,0-1.483,2.019l2.2,2.2a16.313,16.313,0,0,0-.781,1.514l-3.075-.515a19.558,19.558,0,0,0-.783,2.383l2.775,1.418a16.156,16.156,0,0,0-.274,1.68l-3.079.46a19.741,19.741,0,0,0-.012,2.507l3.073.49a16.75,16.75,0,0,0,.26,1.684L16.133,45.44a19.153,19.153,0,0,0,.76,2.387l3.079-.484a16.331,16.331,0,0,0,.764,1.524l-2.219,2.18a19.172,19.172,0,0,0,1.465,2.035l2.773-1.41c.19.21.384.419.584.621m2.5-20.863a13.068,13.068,0,1,1-.09,18.48,13.069,13.069,0,0,1,.09-18.48" transform="translate(16.23 22.16)" fill="#ffd453"/>
          </g>
        </g>
        <g id="Grupo_1212962" data-name="Grupo 1212962">
          <g id="Grupo_1212961" data-name="Grupo 1212961" clip-path="url(#clip-path-3)">
            <path id="Trazado_1279268" data-name="Trazado 1279268" d="M0,0H374.769V241.6H0Z" transform="translate(-5.527 0.131) rotate(-1.36)" fill="#fff7df"/>
          </g>
        </g>
        <g id="Grupo_1212964" data-name="Grupo 1212964" transform="translate(0 0)">
          <g id="Grupo_1212963" data-name="Grupo 1212963" clip-path="url(#clip-path)">
            <path id="Trazado_1279202" data-name="Trazado 1279202" d="M254.558,161.759H40.435a9.208,9.208,0,0,1-9.209-9.209V42.28a9.208,9.208,0,0,1,9.209-9.209H254.558a9.21,9.21,0,0,1,9.209,9.209V152.55a9.21,9.21,0,0,1-9.209,9.209" transform="translate(32.58 34.505)" fill="#3b2b5a"/>
          </g>
        </g>
        <g id="Grupo_1212966" data-name="Grupo 1212966" transform="translate(68.477 72.247)">
          <g id="Grupo_1212965" data-name="Grupo 1212965" clip-path="url(#clip-path-5)">
            <rect id="Rectángulo_462681" data-name="Rectángulo 462681" width="252.776" height="203.068" transform="translate(-46.002 21.664) rotate(-25.218)" fill="url(#linear-gradient)"/>
          </g>
        </g>
        <g id="Grupo_1212974" data-name="Grupo 1212974" transform="translate(0 0)">
          <g id="Grupo_1212973" data-name="Grupo 1212973" clip-path="url(#clip-path)">
            <g id="Grupo_1212969" data-name="Grupo 1212969" transform="translate(119.621 94.458)" opacity="0.92">
              <g id="Grupo_1212968" data-name="Grupo 1212968">
                <g id="Grupo_1212967" data-name="Grupo 1212967" clip-path="url(#clip-path-7)">
                  <path id="Trazado_1279203" data-name="Trazado 1279203" d="M83.877,79.864a7.095,7.095,0,1,0,7.095-7.095,7.1,7.1,0,0,0-7.095,7.095" transform="translate(-32.108 -18.534)" fill="#fff"/>
                  <path id="Trazado_1279204" data-name="Trazado 1279204" d="M120.524,89.156a4.925,4.925,0,0,1-4.734-3.582,16.217,16.217,0,0,0-31.114-.282,4.924,4.924,0,0,1-9.424-2.857,26.065,26.065,0,0,1,50.013.454,4.929,4.929,0,0,1-4.741,6.267" transform="translate(-41.329 -27.741)" fill="#fff"/>
                  <path id="Trazado_1279205" data-name="Trazado 1279205" d="M145.5,91.39a4.926,4.926,0,0,1-4.657-3.329,34.079,34.079,0,0,0-64.317-.407,4.924,4.924,0,0,1-9.273-3.314,43.925,43.925,0,0,1,82.9.527A4.926,4.926,0,0,1,145.5,91.39" transform="translate(-49.752 -36.857)" fill="#fff"/>
                  <path id="Trazado_1279206" data-name="Trazado 1279206" d="M63.465,93.919a4.926,4.926,0,0,1-4.63-6.6,62.285,62.285,0,0,1,117.137,0,4.924,4.924,0,1,1-9.26,3.349,52.437,52.437,0,0,0-98.616,0,4.924,4.924,0,0,1-4.63,3.251" transform="translate(-58.542 -46.227)" fill="#fff"/>
                </g>
              </g>
            </g>
            <g id="Grupo_1212972" data-name="Grupo 1212972" transform="translate(68.478 72.248)" opacity="0.35" style="mix-blend-mode: overlay;isolation: isolate">
              <g id="Grupo_1212971" data-name="Grupo 1212971">
                <g id="Grupo_1212970" data-name="Grupo 1212970" clip-path="url(#clip-path-8)">
                  <path id="Trazado_1279207" data-name="Trazado 1279207" d="M80.044,154.7h57.719L64.468,35.358H38.047A4.54,4.54,0,0,0,33.513,39.9v32.97Z" transform="translate(-33.512 -35.357)" fill="#fff"/>
                  <path id="Trazado_1279208" data-name="Trazado 1279208" d="M158.627,35.358H123.171l39.995,38.309V39.9a4.543,4.543,0,0,0-4.538-4.538" transform="translate(60.033 -35.357)" fill="#fff"/>
                  <path id="Trazado_1279209" data-name="Trazado 1279209" d="M106.631,35.358h-21.4L171.087,154.7H190.7Z" transform="translate(20.448 -35.358)" fill="#fff"/>
                  <path id="Trazado_1279210" data-name="Trazado 1279210" d="M89.988,35.358H66.632L145.465,154.7h28.674Z" transform="translate(1.043 -35.358)" fill="#fff"/>
                </g>
              </g>
            </g>
            <rect id="Rectángulo_462685" data-name="Rectángulo 462685" width="52.982" height="17.747" transform="translate(153.587 196.264)" fill="#3b2b5a"/>
            <path id="Trazado_1279211" data-name="Trazado 1279211" d="M285.747,118.662c0,5.3-57.894,9.606-129.312,9.606s-129.31-4.3-129.31-9.606,57.894-9.606,129.31-9.606,129.312,4.3,129.312,9.606" transform="translate(28.302 113.784)" fill="#2b69be"/>
            <path id="Trazado_1279212" data-name="Trazado 1279212" d="M197.761,122.393H52.611v-6.929a10.726,10.726,0,0,1,10.728-10.728H187.031a10.728,10.728,0,0,1,10.73,10.728Z" transform="translate(54.892 109.277)" fill="#3b2b5a"/>
          </g>
        </g>
        <g id="Grupo_1212976" data-name="Grupo 1212976" transform="translate(202.08 155.665)">
          <g id="Grupo_1212975" data-name="Grupo 1212975" clip-path="url(#clip-path-9)">
            <rect id="Rectángulo_462687" data-name="Rectángulo 462687" width="62.065" height="10.754" transform="translate(0 0)" fill="url(#linear-gradient-2)"/>
          </g>
        </g>
        <g id="Grupo_1212978" data-name="Grupo 1212978" transform="translate(0 0)">
          <g id="Grupo_1212977" data-name="Grupo 1212977" clip-path="url(#clip-path)">
            <path id="Trazado_1279214" data-name="Trazado 1279214" d="M131.053,86.934a5.376,5.376,0,1,1,5.376-5.376,5.376,5.376,0,0,1-5.376,5.376" transform="translate(131.126 79.485)" fill="#8ff0ff"/>
            <path id="Trazado_1279215" data-name="Trazado 1279215" d="M171.064,76.928a4.629,4.629,0,0,1,0,9.258H104.271a4.629,4.629,0,0,1,0-9.258Zm0-.746H104.271a5.376,5.376,0,1,0,0,10.752h66.793a5.376,5.376,0,1,0,0-10.752" transform="translate(103.182 79.485)" fill="#3b2b5a"/>
          </g>
        </g>
        <g id="Grupo_1212980" data-name="Grupo 1212980" transform="translate(258.3 155.665)">
          <g id="Grupo_1212979" data-name="Grupo 1212979" clip-path="url(#clip-path-11)">
            <rect id="Rectángulo_462689" data-name="Rectángulo 462689" width="10.752" height="10.754" transform="translate(0 0)" fill="url(#linear-gradient-3)"/>
          </g>
        </g>
        <g id="Grupo_1212991" data-name="Grupo 1212991" transform="translate(0 0)">
          <g id="Grupo_1212990" data-name="Grupo 1212990" clip-path="url(#clip-path)">
            <path id="Trazado_1279217" data-name="Trazado 1279217" d="M116.038,70.531a3.763,3.763,0,0,0-4.038.145,6.05,6.05,0,0,0-1.537,2.2q-1.943,3.908-3.882,7.816a7.378,7.378,0,0,0-.962,2.871c-.051,1.063.358,2.125.186,3.173a10.775,10.775,0,0,0-.593,2.528A1.959,1.959,0,0,0,107.137,91c1.206-.029,2.08-1.159,2.579-2.256a7.79,7.79,0,0,1,1.806-3.09c.437-.347.967-.562,1.418-.891,1.718-1.259,1.849-3.75,2.942-5.578.525-.877,1.275-1.6,1.866-2.432,1.631-2.307.717-4.882-1.71-6.218" transform="translate(109.767 73.051)"/>
            <path id="Trazado_1279218" data-name="Trazado 1279218" d="M118.089,75.977c-.482.905-1.359,2.542-.68,3.175s2.707,1.071,3.382,1.573,5.783,5.65,6.823,5.746a112.811,112.811,0,0,0,11.941-1.112c.517-.28,1.794-1.373,2.722-1.142a1.9,1.9,0,0,1,1.494,1.481c.153.652-.448,2.293-1.234,2.319s-2.885.141-3.929.309-12.144,3.437-12.681,3.061-7.526-4.957-8.053-5.07-3.4,3.576-3.762,3.98c-1,1.12-1.739,2.949-1.586,3.6s9.855,15.558,10.012,16.341S105.269,131.58,105.3,132.367s-.531,3.7.139,4.066,3.613,1.98,3.233,2.387-4.8-.983-5.162-1.138c-2.035-.87-2.822-3.713-2.329-4.649s12.039-21.5,11.766-21.88-10.732-9.888-10.6-13.833c.192-5.926,6.9-18.809,7.936-19.369s2.991-.891,4.009-1.845,2.115-3.486,2.761-3.772,1.8,2.231,1.044,3.643" transform="translate(105.413 75.446)" fill="#ffd6bd"/>
            <path id="Trazado_1279219" data-name="Trazado 1279219" d="M104.8,82.036c-1.89.043-4.234,3.463-3.367,6.857.913,3.58,9.346,8.415,13.919,11.588s6.541,5.229,6.921,6.091,10.654,21.018,11.114,21.629,8.274,1.048,8.212.558c-.1-.8-6.833-3.795-5.366-3.177.807.341-8.235-23.143-8.7-24s-18.1-19.645-22.732-19.543" transform="translate(105.637 85.592)" fill="#ffd6bd"/>
            <path id="Trazado_1279220" data-name="Trazado 1279220" d="M119.688,78.412c-.556-.415-2.029-.783-2.912-1.255a2.371,2.371,0,0,0-.427.182,7.379,7.379,0,0,0-1.78,1.982.563.563,0,0,1-.217.182c-.362.137-.552-.419-.562-.805a6.323,6.323,0,0,0-1.416-3.784,4.545,4.545,0,0,0-.356-.388c-.983.448-2.135.725-2.846,1.112-.817.443-5.2,8.627-7.084,14.953a11.98,11.98,0,0,0,4.352,1.42,20.306,20.306,0,0,0,5.162-.061,2.18,2.18,0,0,1-.18-.364c-.153-.652.591-2.479,1.584-3.6.36-.4,3.233-4.095,3.762-3.98a31.184,31.184,0,0,1,3.09,1.839c.349-.464.721-.915,1.112-1.347a25.751,25.751,0,0,1,2.746-2.381c-1.725-1.53-3.633-3.41-4.027-3.7" transform="translate(106.515 77.757)" fill="#d41e39"/>
            <path id="Trazado_1279221" data-name="Trazado 1279221" d="M96.642,81.224a.811.811,0,0,1-.01-1.622l60.965-.877a.811.811,0,1,1,.022,1.622l-60.966.877h-.012" transform="translate(99.986 82.138)" fill="#fff"/>
            <path id="Trazado_1279222" data-name="Trazado 1279222" d="M110.587,75.074c1.659.127,2.732,1.933,1.837,3.978s-4.89,5.364-4.706,5.619,6.459-.57,6.894-.672,2.734-2.019,3.345-2.039,3.018,1.165,2.62,2.34a2.569,2.569,0,0,1-2.752,1.43,11.072,11.072,0,0,0-3.145.282c-.431.19-12.34,2.783-12.885,2.188-.885-1.2,3.139-7.685,4.215-9.473s2.6-3.8,4.577-3.654" transform="translate(106.076 78.32)" fill="#ffd6bd"/>
            <path id="Trazado_1279223" data-name="Trazado 1279223" d="M109.018,74.265c1.2-2.517,1.794-3.288,3.394-3.006s2.554,2.732,1.806,4.434a5.593,5.593,0,0,1-2.918,2.985c-.6.086-2.5-1.279-2.953-1.98s.388-1.841.67-2.434" transform="translate(112.909 74.291)" fill="#ffd6bd"/>
            <path id="Trazado_1279224" data-name="Trazado 1279224" d="M108.524,83.266a15.917,15.917,0,0,0,2.761-4.211c.893-2.045-.178-3.852-1.837-3.978-1.976-.153-3.9,1.3-4.984,3.085-.325.539-1.058,1.8-1.7,2.922,1.606.564,4.126,1.723,5.764,2.182" transform="translate(107.215 78.32)" fill="#ff80f3"/>
            <path id="Trazado_1279225" data-name="Trazado 1279225" d="M101.19,88.812a14.136,14.136,0,0,0,3.347,6.21c1.533,1.819,3.263,3.474,4.659,5.4a1.647,1.647,0,0,0,.494.513,1.551,1.551,0,0,0,.64.147c6.265.523,12.726.523,18.639-1.6a75.954,75.954,0,0,0-15.491-15.644,3.289,3.289,0,0,0-.832-.5,3.6,3.6,0,0,0-1.457-.092,21.759,21.759,0,0,1-4.375-.172c-.991-.139-2.9-1.011-3.78-.6-1.939.909-2.18,4.61-1.845,6.338" transform="translate(105.446 85.934)" fill="#3b2b5a"/>
            <path id="Trazado_1279226" data-name="Trazado 1279226" d="M113.868,74.138a12.12,12.12,0,0,1-4.89,2.908,1.753,1.753,0,0,1-1.234.045,1.231,1.231,0,0,1-.625-1.175,3,3,0,0,1,.454-1.322A11.477,11.477,0,0,1,109,72.585a5.03,5.03,0,0,1,1.631-1.3,4.71,4.71,0,0,1,1.663-.358c.922-.051,2.528.053,3.034,1.007s-.883,1.641-1.461,2.207" transform="translate(111.761 73.987)"/>
            <path id="Trazado_1279227" data-name="Trazado 1279227" d="M105.434,106.81c-.2-.11-.288-.441-.319-.875-.037-.018-.078-.033-.114-.053a3.332,3.332,0,0,1-1.15-1.138,5.972,5.972,0,0,1-1.175-4.04c-.832,1.5-1.4,2.511-1.5,2.7-.494.936.292,3.78,2.329,4.651.362.153,4.779,1.545,5.161,1.138s-2.564-2.015-3.235-2.387" transform="translate(105.414 105.07)" fill="#3b2b5a"/>
            <path id="Trazado_1279228" data-name="Trazado 1279228" d="M125.794,106.5c-.08-.625-4.213-2.593-5.309-3.126q-1.251.233-2.515.354a7.405,7.405,0,0,1-1.577.016c.66,1.261,1.1,2.082,1.189,2.2.46.613,8.276,1.048,8.212.558" transform="translate(121.439 107.854)" fill="#3b2b5a"/>
            <path id="Trazado_1279229" data-name="Trazado 1279229" d="M131.837,87.574a5.813,5.813,0,0,1-.877-11.559.437.437,0,1,1,.133.864,4.938,4.938,0,0,0,1.494,9.763.437.437,0,0,1,.133.864,5.879,5.879,0,0,1-.883.067" transform="translate(131.49 79.303)" fill="#fff"/>
            <path id="Trazado_1279230" data-name="Trazado 1279230" d="M53.435,21.732a5.2,5.2,0,0,0,.415,3.214c.535.721,2.734,2.027,3.257,2.665s5.654,4.828,6.371,4.912,9.365-3.329,9.581-3.709,1.326-2.025,1.835-2.18,1.3.476,1.653.494.682,1.263.39,1.741-1.812,1.655-2.356,1.539S64.238,37.72,63.521,37.636,57.759,35.38,57.434,35.6s.893,5.533,1.2,5.846,19.342,9.677,19.559,10,12.55,25.436,13,25.466,6.138,1.061,6.3,1.657-7.485,1.5-8.114,1.4S74.768,59.851,73.019,57.851C72.5,57.262,62.5,51.6,62.5,51.6s8.108,9.2,8.079,10.35S54.876,79.964,54.921,80.311a8.194,8.194,0,0,0,.846,2.45c.294.227,2.675.889,2.556,1.347s-4.622.421-5.014.119a28.7,28.7,0,0,1-2.487-5.591c-.09-.695,10.713-15.417,10.364-16.077S49.271,50.95,48.507,49.814s-2.3-13.878-2.43-15.538-1.449-7.125.917-8.443c1.03-.574,3.261-1.4,3.171-2.09s-.239-5.264.353-6.134,2.951,3.623,2.916,4.123" transform="translate(47.572 18.256)" fill="#ffd6bd"/>
            <path id="Trazado_1279231" data-name="Trazado 1279231" d="M55.656,55.275c-.116.456-4.622.421-5.014.119A28.7,28.7,0,0,1,48.153,49.8a33.6,33.6,0,0,1,2.961-4.673c.174.053.347.1.519.151,1.657.437,3.331.823,5.018,1.13-2.5,2.793-4.414,4.947-4.4,5.068a8.194,8.194,0,0,0,.846,2.45c.294.227,2.673.891,2.556,1.347" transform="translate(50.24 47.087)"/>
            <path id="Trazado_1279232" data-name="Trazado 1279232" d="M65.042,44.821c1.091-.482,2.19-.991,3.312-1.406a67.353,67.353,0,0,0,3.474,6.457c.445.031,6.138,1.061,6.3,1.657s-7.485,1.5-8.114,1.4c-.262-.039-2.83-3.523-5.866-7.722.3-.129.595-.257.891-.388" transform="translate(66.932 45.297)"/>
            <path id="Trazado_1279233" data-name="Trazado 1279233" d="M60.451,50.6c-.349-.66-11.915-11.608-12.679-12.744-.386-.576-.973-4.126-1.473-7.708a9.441,9.441,0,0,1,1.052-.163c3.431-.38,5.922-.654,9.352-1.032.106.343,1.136.476,1.193.533.307.315,19.342,9.677,19.561,10,.176.262,8.18,16.543,11.543,22.931-1.183.511-2.344,1.05-3.478,1.643-4.4-5.967-11.98-16.731-13.239-18.17-.515-.588-10.515-6.255-10.515-6.255s8.108,9.2,8.079,10.35c-.02.915-9.923,11.749-13.968,16.339l-3.488-1.575q-.46-.205-.92-.415c2.883-4.352,9.248-13.227,8.978-13.735" transform="translate(48.306 30.211)" fill="#3b2b5a"/>
            <path id="Trazado_1279234" data-name="Trazado 1279234" d="M73.446,28.347c-2.979,1.737-9.361,5.907-9.923,5.84-.717-.084-5.764-2.254-6.089-2.035-.282.19.6,4.242,1.04,5.493a26.511,26.511,0,0,1-11.345,1.69c-.529-3.7-.987-7.634-1.052-8.506-.127-1.659-1.449-7.125.917-8.443a19.222,19.222,0,0,0,2.9-1.584c1.285.172,2.566.411,3.856.533a1.5,1.5,0,0,0,.106.163c.533.723,2.732,2.027,3.257,2.665s5.654,4.828,6.369,4.912c.6.072,6.839-2.34,8.917-3.329.3.744.687,1.714,1.05,2.6" transform="translate(47.572 21.703)" fill="#d41e39"/>
            <rect id="Rectángulo_462690" data-name="Rectángulo 462690" width="6.921" height="2.589" transform="translate(122.378 41.726) rotate(-44.488)" fill="#3696c6"/>
            <g id="Grupo_1212983" data-name="Grupo 1212983" transform="translate(126.81 22.734)" opacity="0.54">
              <g id="Grupo_1212982" data-name="Grupo 1212982">
                <g id="Grupo_1212981" data-name="Grupo 1212981" clip-path="url(#clip-path-13)">
                  <path id="Trazado_1279235" data-name="Trazado 1279235" d="M64.439,25.24a8.3,8.3,0,1,0,.1-11.735,8.3,8.3,0,0,0-.1,11.735" transform="translate(-62.06 -11.127)" fill="#fff"/>
                </g>
              </g>
            </g>
            <path id="Trazado_1279236" data-name="Trazado 1279236" d="M53.957,35.653a3.61,3.61,0,0,0,5.325-.192l10.35-12.174a.864.864,0,0,0-.043-1.167L67.76,20.258a.862.862,0,0,0-1.165-.061L54.241,30.332a3.61,3.61,0,0,0-.284,5.321" transform="translate(55.216 20.866)" fill="#52beff"/>
            <g id="Grupo_1212986" data-name="Grupo 1212986" transform="translate(128.492 22.734)" opacity="0.22">
              <g id="Grupo_1212985" data-name="Grupo 1212985">
                <g id="Grupo_1212984" data-name="Grupo 1212984" clip-path="url(#clip-path-14)">
                  <path id="Trazado_1279237" data-name="Trazado 1279237" d="M73.638,15.358a8.3,8.3,0,0,0-10.756-.928,8.493,8.493,0,0,1,.8-.926A8.3,8.3,0,0,1,75.316,25.342a8.466,8.466,0,0,1-.94.785,8.3,8.3,0,0,0-.738-10.768" transform="translate(-62.884 -11.126)" fill="#52beff"/>
                </g>
              </g>
            </g>
            <path id="Trazado_1279238" data-name="Trazado 1279238" d="M63.971,28.042a10.61,10.61,0,1,0,.131-15,10.607,10.607,0,0,0-.131,15m1.751-13.355a8.3,8.3,0,1,1-.1,11.735,8.3,8.3,0,0,1,.1-11.735" transform="translate(63.569 10.427)" fill="#52beff"/>
            <path id="Trazado_1279239" data-name="Trazado 1279239" d="M48.348,21.548c1.291.245,6.643,9.379,6.986,9.265s7.346-4.675,7.773-4.822,1.624-1.647,2.662-1.819,2.759.439,2.922,1.367-3.2,1.729-3.533,1.931-8.66,9.044-10.245,9-7.863-7.1-8.564-8.173-2.193-7.544,2-6.745" transform="translate(47.481 22.411)" fill="#ffd6bd"/>
            <path id="Trazado_1279240" data-name="Trazado 1279240" d="M52.206,23.653c-.554.2-1.7.723-2.262.292s-2.113-2.458-2.137-3.748-.108-3.895,2.718-4.26a3.082,3.082,0,0,1,3.22,3.492c-.1,1.067-.509,3.86-1.539,4.224" transform="translate(49.874 16.607)" fill="#ffd6bd"/>
            <path id="Trazado_1279241" data-name="Trazado 1279241" d="M46.349,28.293c-.7-1.071-2.193-7.542,2-6.745,1.291.247,6.643,9.381,6.984,9.265s7.348-4.673,7.775-4.82a1.018,1.018,0,0,0,.249-.155,4.161,4.161,0,0,0,.486,1.081,5.462,5.462,0,0,0,.887.956c-1.776,1.761-8.419,8.633-9.816,8.592-1.584-.047-7.865-7.1-8.566-8.173" transform="translate(47.482 22.411)" fill="#ff80f3"/>
            <path id="Trazado_1279242" data-name="Trazado 1279242" d="M60.576,25.459c-1.432-.354-1.387-1.063-1.551-1.782s3.249-1.7,3.32-1.371a19.583,19.583,0,0,1-1.77,3.153" transform="translate(61.578 23.206)" fill="#ffd6bd"/>
            <path id="Trazado_1279243" data-name="Trazado 1279243" d="M48.994,16.218a4.232,4.232,0,0,1,1.718-.967,6.3,6.3,0,0,1,4.354.307c.3.131.625.343.635.668.014.382-.407.613-.76.764a.624.624,0,0,0-.266.178c-.19.255.084.6.366.752s.638.27.721.576a.625.625,0,0,1-.433.689,1.84,1.84,0,0,1-.883.02c-.049.347.255.629.466.911s.286.779-.041.907a.606.606,0,0,1-.384-.016A14.078,14.078,0,0,1,52.005,19.7a2.519,2.519,0,0,0-2.66-.035c-.756.609-1.488,1.62-1.563,0a4.6,4.6,0,0,1,1.212-3.447" transform="translate(49.848 15.648)"/>
            <path id="Trazado_1279244" data-name="Trazado 1279244" d="M52.024,20.474a.274.274,0,0,1,.157.008c.092.045.1.172.1.276l-.067,2.483a.371.371,0,0,1-.043.194c-.1.151-.333.082-.49-.008a17.964,17.964,0,0,1-1.539-.979A.315.315,0,0,0,50,22.38c-.137-.014-.217.141-.274.268a1.382,1.382,0,0,1-1.318.889,10.393,10.393,0,0,1-.331-2.609c0-.215.039-.478.241-.556a.519.519,0,0,1,.349.029c.519.174,1.046.7,1.6.672.572-.027,1.161-.507,1.753-.6" transform="translate(50.164 21.233)" fill="#3b2b5a"/>
            <g id="Grupo_1212989" data-name="Grupo 1212989" transform="translate(32.19 25.552)" opacity="0.56">
              <g id="Grupo_1212988" data-name="Grupo 1212988">
                <g id="Grupo_1212987" data-name="Grupo 1212987" clip-path="url(#clip-path-15)">
                  <path id="Trazado_1279245" data-name="Trazado 1279245" d="M151.894,105.712a2.983,2.983,0,1,0,2.983-2.983,2.984,2.984,0,0,0-2.983,2.983" transform="translate(126.289 81.631)" fill="#fff"/>
                  <path id="Trazado_1279246" data-name="Trazado 1279246" d="M159.01,60.9a2.983,2.983,0,1,0,2.983-2.983A2.983,2.983,0,0,0,159.01,60.9" transform="translate(133.714 34.872)" fill="#fff"/>
                  <path id="Trazado_1279247" data-name="Trazado 1279247" d="M101.3,15.489a2.983,2.983,0,1,0,2.983-2.983,2.984,2.984,0,0,0-2.983,2.983" transform="translate(73.502 -12.504)" fill="#fff"/>
                  <path id="Trazado_1279248" data-name="Trazado 1279248" d="M15.753,81.806a2.983,2.983,0,1,0,2.983-2.983,2.983,2.983,0,0,0-2.983,2.983" transform="translate(-15.754 56.688)" fill="#fff"/>
                  <path id="Trazado_1279249" data-name="Trazado 1279249" d="M159.073,81.808A2.078,2.078,0,1,1,157,83.886a2.081,2.081,0,0,1,2.078-2.078m0-.905a2.983,2.983,0,1,0,2.983,2.983,2.984,2.984,0,0,0-2.983-2.983" transform="translate(130.667 58.858)" fill="#fff"/>
                  <path id="Trazado_1279250" data-name="Trazado 1279250" d="M38.586,21.077a2.078,2.078,0,1,1-2.078,2.078,2.08,2.08,0,0,1,2.078-2.078m0-.905a2.983,2.983,0,1,0,2.983,2.983,2.983,2.983,0,0,0-2.983-2.983" transform="translate(4.957 -4.506)" fill="#fff"/>
                  <path id="Trazado_1279251" data-name="Trazado 1279251" d="M104.433,28.4a2.078,2.078,0,1,1-2.078,2.078,2.081,2.081,0,0,1,2.078-2.078m0-.905a2.983,2.983,0,1,0,2.983,2.983,2.983,2.983,0,0,0-2.983-2.983" transform="translate(73.658 3.135)" fill="#fff"/>
                  <path id="Trazado_1279252" data-name="Trazado 1279252" d="M78.147,23.881a2.078,2.078,0,1,1-2.078,2.078,2.08,2.08,0,0,1,2.078-2.078m0-.905a2.983,2.983,0,1,0,2.983,2.983,2.983,2.983,0,0,0-2.983-2.983" transform="translate(46.233 -1.58)" fill="#fff"/>
                  <path id="Trazado_1279253" data-name="Trazado 1279253" d="M38.586,104.341a2.078,2.078,0,1,1-2.078,2.078,2.08,2.08,0,0,1,2.078-2.078m0-.905a2.983,2.983,0,1,0,2.983,2.983,2.983,2.983,0,0,0-2.983-2.983" transform="translate(4.957 82.368)" fill="#fff"/>
                  <path id="Trazado_1279254" data-name="Trazado 1279254" d="M24.577,59.661A2.078,2.078,0,1,1,22.5,61.739a2.081,2.081,0,0,1,2.078-2.078m0-.905a2.983,2.983,0,1,0,2.983,2.983,2.983,2.983,0,0,0-2.983-2.983" transform="translate(-9.66 35.751)" fill="#fff"/>
                </g>
              </g>
            </g>
            <path id="Trazado_1279255" data-name="Trazado 1279255" d="M120.644,24.477l.274-1.326a.782.782,0,0,1,1.33-.384c1.4,1.463,4.136,3.79,4.132,4.434a12.679,12.679,0,0,1-1.577,1.937Z" transform="translate(125.874 23.503)"/>
            <path id="Trazado_1279256" data-name="Trazado 1279256" d="M133.517,16.892a1.742,1.742,0,0,1,1.653-.437,14.838,14.838,0,0,0,1.514.541c1.839.423,2.023.078,3.31.247,1.04.137,1.24.819,1.3,1.739.082,1.169.192,2.111,1.445,2.6.987.384,1.528.4,2.507.826a2.163,2.163,0,0,1,1.361,2c.178,1.5,1.757,1.676,2.374,2.7,1.381,2.287-.445,2.477,1.089,3.768a3.966,3.966,0,0,1,1.671,2.922,2.915,2.915,0,0,1-1.136,2.272c-2.409,2.783-4.683,2.889-8.312,3.494A16.716,16.716,0,0,1,130.7,37.6a6.261,6.261,0,0,1-2.955-3.549,5.686,5.686,0,0,1,.325-3.314,5.96,5.96,0,0,1,1.4-2.262c.7-.672,1.708-1.251,1.751-2.221.022-.525-.264-1.065-.084-1.559a2.361,2.361,0,0,1,.68-.8,3.146,3.146,0,0,0,.83-3.374,3.318,3.318,0,0,1,.866-3.621" transform="translate(133.155 17.093)"/>
            <path id="Trazado_1279257" data-name="Trazado 1279257" d="M162.954,48.087c1.755.384,4.2,1.048,4.254.823.084-.313-4.158-3.02-4.722-3.756s-3.457-9.371-4.943-12.027-3.367-6.766-4.385-7.366-5.059-1.6-5.566-2.229-.713-3.367-1.1-3.8-2.336.076-1.992,1.359a5.3,5.3,0,0,1-.478,2.944c-.4.756-2.624.4-3.425,1.537S135.5,33.8,134.8,34.2s-8.157-3.045-8.772-3.355a25.045,25.045,0,0,1-2.309-1.643c-.6.382.429,1.361-.286,1.218s-1.866-3.441-2.654-2.867c-.729.531.09,2.436,1.434,3.727a9.81,9.81,0,0,0,2.942,1.757c.278.188,9.9,5.4,10.578,5.078s7.082-5.783,7.082-5.783a15.027,15.027,0,0,1,1.731,4.3c.325,2.029-.117,4.311-.492,4.465S131.16,44.1,128.07,45.57c-2.54,1.212-2.037,5.137-1.657,6.244s5.864,17.65,6.193,19.921.781,4.064.478,4.573-3.355,3.9-3.253,4.6,6.537-2.4,6.841-3.241-.184-16.835-.87-19.532-2.479-6.106-2.141-6.437a90.8,90.8,0,0,1,10.229-3.429c.392.1-4.04,10.417-3.839,11.9s4.632,21.531,4.743,22.064-2.309,5.6-1.6,6.126,5.1-5.043,5.225-5.848.321-14.369.11-16.655c-.237-2.585-1.067-5.654-.723-6.318s6.886-10.241,7.152-12.859-2.526-14.34-2.526-14.34,7.348,12.274,7.638,12.771c.21.36.272,2.646,1.557,3.506a4.9,4.9,0,0,0,1.058.648c.423.149,1.334.437.787-.1-.074-.074-.633-.707-.691-.795s-.045-.235.053-.272a.234.234,0,0,1,.125-.006" transform="translate(125.735 20.423)" fill="#ffd6bd"/>
            <path id="Trazado_1279258" data-name="Trazado 1279258" d="M132.933,17.529c-1.819.292-2.354,2.215-2.188,3.772a6.164,6.164,0,0,0,1.663,3.641c.525.282,3.38-.537,3.886-1.144s-.729-6.692-3.361-6.269" transform="translate(136.383 18.267)" fill="#ffd6bd"/>
            <path id="Trazado_1279259" data-name="Trazado 1279259" d="M136.974,49.584a15.729,15.729,0,0,1-1.782,2.007,4.8,4.8,0,0,1-2.515,1.253c-.627,1.68-1.453,3.87-1,4.2.7.519,5.1-5.043,5.227-5.848.022-.149.049-.74.074-1.614" transform="translate(137.248 51.734)" fill="#3b2b5a"/>
            <path id="Trazado_1279260" data-name="Trazado 1279260" d="M128.278,48.566a2.62,2.62,0,0,1-.664-.2c-.989,1.212-2.618,3.179-2.542,3.692.1.7,6.537-2.4,6.843-3.243A8.96,8.96,0,0,0,132,47.23a4.617,4.617,0,0,1-3.725,1.336" transform="translate(130.492 49.278)" fill="#3b2b5a"/>
            <path id="Trazado_1279261" data-name="Trazado 1279261" d="M155.006,30.805c-1.486-2.656-3.367-6.766-4.385-7.368-.734-.435-3.043-1.075-4.463-1.635a5.849,5.849,0,0,1-1.075,1.639,2.372,2.372,0,0,1-2.239.715A2.311,2.311,0,0,1,141.49,22.9c-.116-.227-.19-.6-.307-.922-.746.407-2.444.3-3.124,1.263-.8,1.132-5.094,8.231-5.789,8.637-.648.378-7.176-2.983-8.772-3.355a10.466,10.466,0,0,1-.558,2.358c1.68.856,9.653,5.206,10.262,4.912.674-.329,7.082-5.783,7.082-5.783a15.021,15.021,0,0,1,1.733,4.3c.2,1.263-.5,2.366-.035,3.257.014.02.509.764.525.783.268.331-.1-.127.56.323a6.494,6.494,0,0,0,5.38.924c.895-.249,2.043-.1,2.965-.556.123-.061.292-.445.4-.529.513-1.958-1.923-8.5-1.923-8.5s7.348,12.274,7.638,12.769a2,2,0,0,1,.129.472q1-.493,2.037-.913c-.909-2.017-3.361-9.162-4.689-11.537" transform="translate(128.27 22.747)" fill="#52beff"/>
            <path id="Trazado_1279262" data-name="Trazado 1279262" d="M151.042,30.462a16.33,16.33,0,0,1-7.828-.415c-.662-.168-1.349-.313-2-.527-.121.672-.3,1.142-.46,1.208-.374.153-13.261,2.83-16.349,4.3a2.972,2.972,0,0,0-.721.484,47.684,47.684,0,0,0,21.5,12.971c1.512-2.352,6.232-9.908,6.463-12.187a15.643,15.643,0,0,0-.6-5.838" transform="translate(129.043 30.8)" fill="#3b2b5a"/>
            <path id="Trazado_1279263" data-name="Trazado 1279263" d="M131.268,22.308a.5.5,0,0,0-.035.556.6.6,0,0,0,.231.155,3.381,3.381,0,0,0,.881.245,3.029,3.029,0,0,0-.556.662.513.513,0,0,0-.082.515.45.45,0,0,0,.231.163,1.253,1.253,0,0,0,1.21-.19,1.573,1.573,0,0,0-.094,1.273.819.819,0,0,0,1.083.437,2.278,2.278,0,0,0,.478-.5c.161-.176.384-.419.239-.609a.957.957,0,0,0,.582.83.456.456,0,0,0,.227.039.512.512,0,0,0,.229-.112,1.191,1.191,0,0,0,.431-.56.7.7,0,0,0-.121-.674,2.3,2.3,0,0,0,.687.27.769.769,0,0,0,.682-.2c.3-.329.112-.866-.18-1.2a.91.91,0,1,0-.018-1.739.356.356,0,0,0-.131.072.443.443,0,0,0-.084.174,2.393,2.393,0,0,1-2.286,1.627,2.453,2.453,0,0,1-1.96-1.2c-.17-.257-.272-.447-.595-.494a1.108,1.108,0,0,0-1.05.46" transform="translate(136.848 22.57)" fill="#b5e2ff"/>
            <path id="Trazado_1279264" data-name="Trazado 1279264" d="M131.077,21.076a.835.835,0,0,0,.472.033c.331-.061.558-.307.868-.415a.786.786,0,0,1,.638.029c.3.17.433.595.772.666.356.076.668-.3,1.034-.292s.6.378.913.552a.973.973,0,0,0,1.33-.48,1.64,1.64,0,0,0-.215-1.492,6.657,6.657,0,0,0-1.061-1.152,6.255,6.255,0,0,0-1.555-1.281,2.724,2.724,0,0,0-2.434.106,2.844,2.844,0,0,0-1.463,1.831c-.074.588.072,1.651.7,1.9" transform="translate(136.012 17.742)"/>
            <path id="Trazado_1279265" data-name="Trazado 1279265" d="M125.031,25.659a.283.283,0,0,1-.284-.284,2.589,2.589,0,0,0-.752-1.919,2.774,2.774,0,0,0-2.037-.738.278.278,0,0,1-.294-.274.282.282,0,0,1,.274-.294,3.35,3.35,0,0,1,2.454.9,3.145,3.145,0,0,1,.924,2.327.283.283,0,0,1-.284.284" transform="translate(126.937 23.108)" fill="#52beff"/>
            <path id="Trazado_1279266" data-name="Trazado 1279266" d="M127.753,27.249a.287.287,0,0,1-.284-.264c-.266-3.625-2.123-5.4-5.679-5.421a.284.284,0,1,1,0-.568c3.856.025,5.956,2.025,6.244,5.948a.285.285,0,0,1-.264.3h-.02" transform="translate(126.774 21.906)" fill="#52beff"/>
            <path id="Trazado_1279267" data-name="Trazado 1279267" d="M130.638,29.266a.284.284,0,0,1-.284-.28c-.11-5.817-3.1-8.65-9.038-8.609a.286.286,0,0,1-.286-.284c0-.184.178-.286.36-.286,6.212,0,9.418,3.085,9.532,9.169a.282.282,0,0,1-.278.29Z" transform="translate(126.277 20.666)" fill="#52beff"/>
          </g>
        </g>
      </g>
    </g>
  </g>
</svg>
