<svg xmlns="http://www.w3.org/2000/svg" xmlns:xlink="http://www.w3.org/1999/xlink" width="84" height="84" viewBox="0 0 84 84">
  <defs>
    <clipPath id="clip-path">
      <rect id="Rectángulo_462479" data-name="Rectángulo 462479" width="70.928" height="70.932" fill="#344866"/>
    </clipPath>
  </defs>
  <g id="Grupo_1212383" data-name="Grupo 1212383" transform="translate(0.578 0.547)">
    <g id="Grupo_1119665" data-name="Grupo 1119665" transform="translate(-0.578 -0.547)">
      <rect id="Rectángulo_402006" data-name="Rectángulo 402006" width="84" height="84" rx="5" fill="#a4e7f0"/>
    </g>
    <g id="Grupo_1212875" data-name="Grupo 1212875" transform="translate(6.422 6.453)">
      <g id="Grupo_1212874" data-name="Grupo 1212874" clip-path="url(#clip-path)">
        <path id="Trazado_1278547" data-name="Trazado 1278547" d="M62.913,38.894l.005,11.421,8.01.008V70.927H52.621V50.321l8.017,0,.009-9.153-4.676.035c-.619,3.547-3.548,6.76-7.408,6.773L23.2,48.06a8.085,8.085,0,0,1-8.315-8.016h-2.3V50.327l6.746-.014a3.479,3.479,0,0,1,3.545,3.41l.016,10.313,2.268.033.02,3.187a3.523,3.523,0,0,1-3.637,3.675l-18.07-.012a3.434,3.434,0,0,1-3.45-3.442L0,64.08l2.313-.044-.006-10.2a3.422,3.422,0,0,1,3.4-3.5l4.59-.034,0-12.539,4.891,0,1.1-2.268-8.24.027-.029-5.752L3.242,29.71A3.359,3.359,0,0,1,.021,26.4L.013,3.463A3.422,3.422,0,0,1,3.459.011l11.59.018a3.394,3.394,0,0,1,3.265,3.43L18.306,26.4a3.416,3.416,0,0,1-3.431,3.343l-4.57.009V33.2l8.554-.043,2.353-.982A9.2,9.2,0,0,1,33.473,27.1a9.146,9.146,0,0,1,16.851,5.232A11.581,11.581,0,0,1,53.6,34.267l4.751.066,0-11.461-5.724.015-.022-2.279,2.313-.026-.013-2.251-3.5-.042a3.442,3.442,0,0,1-3.362-3.5l0-11.282A3.457,3.457,0,0,1,51.625,0L67.667.026a3.392,3.392,0,0,1,3.256,3.411l0,11.407a3.4,3.4,0,0,1-3.245,3.429l-3.607.051-.005,2.248,2.292.036,0,2.27-5.711,0,0,13.726-5.334-.005.673,2.283ZM15.9,4.566c.291-.607.174-2.014-.595-2.216l-12.135,0c-.893,0-1.075,1.591-.746,2.211ZM68.63,11.434V3.476a1.249,1.249,0,0,0-1.2-1.179H51.458a1.23,1.23,0,0,0-1.13,1.136l.006,8.011ZM2.306,18.314h13.71V6.853H2.306ZM67.86,15.949c.826,0,.924-1.551.7-2.217l-18-.007c-.529.416-.278,2.22.585,2.22ZM61.772,18.3l-4.573.006,0,2.293,4.573-.006ZM14.934,27.469c.564-.132,1.083-.6,1.083-1.064L16.008,20.6H2.318l-.013,5.585a1.238,1.238,0,0,0,1.166,1.285Zm8.14,18.3,24.882-.007a5.74,5.74,0,0,0,5.783-6,5.928,5.928,0,0,0-6-5.524,6.913,6.913,0,1,0-13.27-3.854,7.16,7.16,0,0,0-7.2-1.309,7.389,7.389,0,0,0-4.31,5.125c-3.116.314-5.769,2.522-5.768,5.765a5.768,5.768,0,0,0,5.886,5.806M20.61,64.054l0-10.225a1.32,1.32,0,0,0-1.1-1.208l-13.813,0a1.223,1.223,0,0,0-1.116,1.214l0,10.224ZM68.628,52.61H54.923v6.9H68.628Zm0,9.15H54.923v6.856H68.628Zm-46.382,6.85a2.315,2.315,0,0,0,.6-2.262l-20.471.006c-.251.779-.049,2.228.8,2.229Z" transform="translate(0 0)" fill="#344866"/>
        <rect id="Rectángulo_462474" data-name="Rectángulo 462474" width="4.595" height="2.312" transform="translate(6.866 22.871)" fill="#344866"/>
        <rect id="Rectángulo_462475" data-name="Rectángulo 462475" width="4.587" height="2.29" transform="translate(61.773 54.904)" fill="#344866"/>
        <rect id="Rectángulo_462476" data-name="Rectángulo 462476" width="2.278" height="2.281" transform="translate(57.201 54.91)" fill="#344866"/>
        <rect id="Rectángulo_462477" data-name="Rectángulo 462477" width="4.574" height="2.293" transform="translate(57.201 64.054)" fill="#344866"/>
        <rect id="Rectángulo_462478" data-name="Rectángulo 462478" width="2.29" height="2.296" transform="matrix(1, -0.002, 0.002, 1, 64.069, 64.057)" fill="#344866"/>
      </g>
    </g>
  </g>
</svg>
