<svg xmlns="http://www.w3.org/2000/svg" xmlns:xlink="http://www.w3.org/1999/xlink" width="157" height="108" viewBox="0 0 157 108">
  <defs>
    <clipPath id="clip-path">
      <rect id="Rectángulo_460206" data-name="Rectángulo 460206" width="157" height="108" transform="translate(1141.422 717.339)" fill="#fff" stroke="#707070" stroke-width="1"/>
    </clipPath>
    <clipPath id="clip-path-2">
      <rect id="Rectángulo_462407" data-name="Rectángulo 462407" width="105.885" height="98.912" fill="none"/>
    </clipPath>
  </defs>
  <g id="Enmascarar_grupo_1178552" data-name="Enmascarar grupo 1178552" transform="translate(-1141.422 -717.339)" clip-path="url(#clip-path)">
    <rect id="Rectángulo_462408" data-name="Rectángulo 462408" width="103" height="62" rx="8" transform="translate(1168.422 723.339)" fill="#d5f4f8"/>
    <circle id="Elipse_13760" data-name="Elipse 13760" cx="17" cy="17" r="17" transform="translate(1203.422 755.339)" fill="#ffd453"/>
    <rect id="Rectángulo_462409" data-name="Rectángulo 462409" width="103" height="13" transform="translate(1168.422 783.339)" fill="#9ed1ff"/>
    <path id="Trazado_1278224" data-name="Trazado 1278224" d="M1216.622,796.339l-6.6,11.6h21l-5.2-11.6Z" fill="#9ed1ff" stroke="#707070" stroke-width="1"/>
    <g id="Grupo_1212780" data-name="Grupo 1212780" transform="translate(1167.422 722.338)">
      <g id="Grupo_1212779" data-name="Grupo 1212779" transform="translate(0 0)" clip-path="url(#clip-path-2)">
        <path id="Trazado_1278218" data-name="Trazado 1278218" d="M95.792,0H9.909A9.869,9.869,0,0,0,0,9.911V65.88a9.868,9.868,0,0,0,9.909,9.909H44.593L40,84.964H32.3a6.975,6.975,0,0,0,0,13.95h41.29a6.816,6.816,0,0,0,6.789-6.975,6.935,6.935,0,0,0-6.789-6.975H65.88l-4.587-9.175H95.976a9.868,9.868,0,0,0,9.909-9.909V9.911A10.4,10.4,0,0,0,95.792,0M9.909,4.589H95.792a5.325,5.325,0,0,1,5.322,5.322V59.64H83.681a32.036,32.036,0,0,0-7.89-31.747l-.368-.366a32.01,32.01,0,0,0-44.961,0l-.366.366a31.933,31.933,0,0,0-7.89,31.747H4.772V9.911A5.17,5.17,0,0,1,9.909,4.589M70.651,29.546,65.7,34.5a19.766,19.766,0,0,0-10.642-4.4V23.123a26.431,26.431,0,0,1,15.6,6.423m9.543,18.716H73.221a20.377,20.377,0,0,0-4.4-10.642l4.954-4.954a26.907,26.907,0,0,1,6.423,15.6M50.465,29.912a20.365,20.365,0,0,0-10.642,4.4l-4.956-4.954a27.1,27.1,0,0,1,15.415-6.423ZM31.931,32.666l4.954,4.954a19.77,19.77,0,0,0-4.4,10.642H25.507a26.919,26.919,0,0,1,6.423-15.6M25.507,52.851h6.975A18.98,18.98,0,0,0,34.5,59.824H26.976a23.711,23.711,0,0,1-1.469-6.973m14.13,6.789a14.978,14.978,0,0,1-2.752-6.605,16.075,16.075,0,1,1,31.931-2.752,15.192,15.192,0,0,1-2.936,9.175H39.637ZM73.4,52.851h6.973a31.561,31.561,0,0,1-1.467,6.973H71.386A26.962,26.962,0,0,0,73.4,52.851m2.386,38.9a2.4,2.4,0,0,1-2.2,2.388H32.3a2.387,2.387,0,0,1,0-4.774h41.29a2.553,2.553,0,0,1,2.2,2.386M60.56,84.964h-15.6l4.589-9.175h6.423ZM95.792,71.2H9.909a5.325,5.325,0,0,1-5.32-5.322V64.229H100.93V65.88A5.062,5.062,0,0,1,95.792,71.2" transform="translate(0 -0.001)"/>
        <path id="Trazado_1278219" data-name="Trazado 1278219" d="M30.112,22.685a2.43,2.43,0,0,0-2.386,2.386V36.449a2.386,2.386,0,0,0,4.772,0V25.071a2.43,2.43,0,0,0-2.386-2.386" transform="translate(22.739 18.604)"/>
        <rect id="Rectángulo_462397" data-name="Rectángulo 462397" width="4.587" height="4.587" transform="translate(27.71 16.148)"/>
        <path id="Trazado_1278220" data-name="Trazado 1278220" d="M46.546,44.16a2.386,2.386,0,1,0,2.386,2.386,2.555,2.555,0,0,0-2.386-2.386" transform="translate(36.217 36.217)"/>
        <path id="Trazado_1278221" data-name="Trazado 1278221" d="M13.779,44.16a2.386,2.386,0,1,0,2.386,2.386,2.555,2.555,0,0,0-2.386-2.386" transform="translate(9.344 36.217)"/>
        <rect id="Rectángulo_462398" data-name="Rectángulo 462398" width="4.589" height="4.589" transform="translate(39.087 9.175)"/>
        <rect id="Rectángulo_462399" data-name="Rectángulo 462399" width="27.526" height="4.589" transform="translate(9.359 9.175)"/>
        <rect id="Rectángulo_462400" data-name="Rectángulo 462400" width="13.762" height="4.589" transform="translate(9.359 22.939)"/>
        <rect id="Rectángulo_462401" data-name="Rectángulo 462401" width="9.175" height="4.587" transform="translate(9.359 29.912)"/>
        <rect id="Rectángulo_462402" data-name="Rectángulo 462402" width="15.964" height="4.587" transform="translate(9.359 16.148)"/>
        <rect id="Rectángulo_462403" data-name="Rectángulo 462403" width="4.589" height="4.589" transform="translate(94.141 9.175)"/>
        <rect id="Rectángulo_462404" data-name="Rectángulo 462404" width="13.762" height="4.587" transform="translate(75.791 16.148)"/>
        <rect id="Rectángulo_462405" data-name="Rectángulo 462405" width="13.764" height="4.589" transform="translate(82.764 22.939)"/>
        <rect id="Rectángulo_462406" data-name="Rectángulo 462406" width="16.148" height="4.589" transform="translate(75.791 9.175)"/>
        <path id="Trazado_1278222" data-name="Trazado 1278222" d="M9.521,45.37a5.689,5.689,0,1,0,5.69,5.69,5.719,5.719,0,0,0-5.69-5.69m0,6.975a1.1,1.1,0,0,1,0-2.2,1.183,1.183,0,0,1,1.1,1.1c.184.55-.368,1.1-1.1,1.1" transform="translate(3.142 37.209)"/>
        <path id="Trazado_1278223" data-name="Trazado 1278223" d="M56.174,46.68a6.974,6.974,0,1,0,6.973,6.975,7.218,7.218,0,0,0-6.973-6.975m0,9.177a2.386,2.386,0,1,1,2.386-2.388,2.723,2.723,0,0,1-2.386,2.388" transform="translate(40.352 38.284)"/>
      </g>
    </g>
  </g>
</svg>
