<svg xmlns="http://www.w3.org/2000/svg" xmlns:xlink="http://www.w3.org/1999/xlink" width="129" height="129" viewBox="0 0 129 129">
  <defs>
    <clipPath id="clip-path">
      <rect id="Rectángulo_454829" data-name="Rectángulo 454829" width="129" height="129" fill="#1e535a"/>
    </clipPath>
    <clipPath id="clip-path-2">
      <rect id="Rectángulo_463125" data-name="Rectángulo 463125" width="53" height="52.988" fill="#1e535a"/>
    </clipPath>
  </defs>
  <g id="Grupo_1212575" data-name="Grupo 1212575" transform="translate(-186 -4323.945)">
    <g id="Grupo_1177591" data-name="Grupo 1177591" transform="translate(186 4323.945)">
      <g id="Grupo_1177589" data-name="Grupo 1177589" transform="translate(0 0)">
        <g id="Grupo_1177587" data-name="Grupo 1177587" clip-path="url(#clip-path)">
          <path id="Trazado_997422" data-name="Trazado 997422" d="M123.733,57.1a59.308,59.308,0,0,0-13.4-30.862,6.821,6.821,0,0,0-9.6-9.189A59.221,59.221,0,0,0,70.078,5.066a6.822,6.822,0,0,0-13.25.269A59.3,59.3,0,0,0,27.41,17.911a6.824,6.824,0,0,0-9.471,9.536A59.253,59.253,0,0,0,5.526,57.039a6.827,6.827,0,0,0-.163,13.369A59.236,59.236,0,0,0,17.387,100.6a6.823,6.823,0,0,0,9.27,9.635,59.3,59.3,0,0,0,30.116,13.172,6.824,6.824,0,0,0,13.369.269,59.247,59.247,0,0,0,30.886-12.2,6.822,6.822,0,0,0,9.55-9.236,59.323,59.323,0,0,0,13.315-31.893,6.824,6.824,0,0,0-.16-13.247M104.464,29.6a6.785,6.785,0,0,0,3.779-1.144,56.321,56.321,0,0,1,12.43,28.628,6.834,6.834,0,0,0-4.361,3.159L98.87,53.7c.014-.191.027-.385.027-.582a6.825,6.825,0,0,0-2.89-5.577l7.629-18a7.392,7.392,0,0,0,.827.054m-3.687-1.086L93.195,46.39a6.754,6.754,0,0,0-7.517,4.341L54.125,43.462a6.639,6.639,0,0,0-.143-1.358L98.758,26.511a6.846,6.846,0,0,0,2.019,2m-37.29-14.85a6.83,6.83,0,0,0,6.7-5.539A56.228,56.228,0,0,1,98.622,19.239a6.792,6.792,0,0,0-.987,3.527,7.17,7.17,0,0,0,.065.9l-45,15.668A6.85,6.85,0,0,0,51.462,38.1l11.8-24.451c.075,0,.146.01.221.01m-6.642-5.27a6.831,6.831,0,0,0,3.435,4.47L48.708,36.823a6.848,6.848,0,0,0-1.409-.146A6.78,6.78,0,0,0,43.407,37.9L29.691,26.443a6.789,6.789,0,0,0-.232-6.285A56.272,56.272,0,0,1,56.845,8.389M13.492,62.258l28.37-14.633a6.8,6.8,0,0,0,5.383,2.707l9.723,31.08a6.941,6.941,0,0,0-1.5,1.665L13.407,65.554a6.784,6.784,0,0,0,.252-1.811,6.863,6.863,0,0,0-.167-1.484m6.7-32.775a6.824,6.824,0,0,0,7.623-.65l13.543,11.31a6.81,6.81,0,0,0-.752,4.719L12.188,59.514a6.827,6.827,0,0,0-3.616-2.37,56.248,56.248,0,0,1,11.62-27.662m2.826,68.151a6.809,6.809,0,0,0-3.391.906A56.2,56.2,0,0,1,8.416,70.378,6.835,6.835,0,0,0,11.96,68.24l42.475,17.7a7.323,7.323,0,0,0-.054.82,6.828,6.828,0,0,0,.409,2.308L29.1,101.373a6.828,6.828,0,0,0-6.084-3.738m33.888,22.732a56.328,56.328,0,0,1-28.1-12.294,6.758,6.758,0,0,0,1.042-3.609l0-.078,26.6-12.746a6.829,6.829,0,0,0,2.41,1.522l1.593,22.9a6.829,6.829,0,0,0-3.537,4.3m2.829-40.272L50.22,49.672a6.839,6.839,0,0,0,3.244-3.244L85.273,53.75a6.789,6.789,0,0,0,1.086,3.1L64.543,80.8a6.745,6.745,0,0,0-4.807-.7m10.4,40.537a6.827,6.827,0,0,0-6.649-5.291l-.051,0L61.921,93.552a6.817,6.817,0,0,0,4.174-2.026l31.8,14.027c0,.061-.01.116-.01.177a6.8,6.8,0,0,0,1.011,3.561,56.224,56.224,0,0,1-28.761,11.34m28.526-18.058L67.688,88.909a6.789,6.789,0,0,0-.9-6.074L88.544,58.959a6.789,6.789,0,0,0,3.524.987,7.517,7.517,0,0,0,.838-.054l8.13,40.091a6.814,6.814,0,0,0-2.373,2.591m9.8-2.553a6.788,6.788,0,0,0-4.538-1.072L95.789,58.84a6.857,6.857,0,0,0,2.152-2.247l17.431,6.537a6.057,6.057,0,0,0-.031.613,6.827,6.827,0,0,0,5.488,6.693,56.271,56.271,0,0,1-12.369,29.585" transform="translate(0 0.001)" fill="#1e535a"/>
        </g>
      </g>
    </g>
    <g id="Elipse_13614" data-name="Elipse 13614" transform="translate(210.273 4348.213)" fill="#d5f4f8" stroke="#1e535a" stroke-width="3">
      <ellipse cx="40.232" cy="40.233" rx="40.232" ry="40.233" stroke="none"/>
      <ellipse cx="40.232" cy="40.233" rx="38.732" ry="38.733" fill="none"/>
    </g>
    <g id="Grupo_1213412" data-name="Grupo 1213412" transform="translate(224 4361.945)">
      <g id="Grupo_1213411" data-name="Grupo 1213411" clip-path="url(#clip-path-2)">
        <path id="Trazado_1280082" data-name="Trazado 1280082" d="M139.648,227.572l.008-1.8-7.338.005.011-3.652,7.319-.012.009-1.821-7.336.006v-3.672l11.337,0a9.5,9.5,0,0,0,1.156,7.87l5.866,8.556-14.682,0-.015-5.48Z" transform="translate(-112.227 -183.735)" fill="#1e535a"/>
        <path id="Trazado_1280083" data-name="Trazado 1280083" d="M11,253.906l-.01,5.459H.043l0-12.417L3.7,243.322l.019,6.9,18.243,0,.009,3.691Z" transform="translate(-0.036 -206.377)" fill="#1e535a"/>
        <path id="Trazado_1280084" data-name="Trazado 1280084" d="M225.58,201.9c-.3.429-1.05.6-1.346.177l-6.264-9.066a8.021,8.021,0,0,1-.121-8.758,8.267,8.267,0,0,1,14.236.445,8.025,8.025,0,0,1-.4,8.363Zm4.74-13.265a5.478,5.478,0,1,0-5.478,5.478,5.478,5.478,0,0,0,5.478-5.478" transform="translate(-183.72 -153.02)" fill="#1e535a"/>
        <path id="Trazado_1280085" data-name="Trazado 1280085" d="M112.152,1.813H94.09a1.842,1.842,0,0,0-1.94,1.717l-.01,27.548-1.8-.049V2.741A2.68,2.68,0,0,1,93.036,0l20.318.011a2.656,2.656,0,0,1,2.555,2.725v23l-1.806.5,0-22.567a1.851,1.851,0,0,0-1.947-1.851" transform="translate(-76.619)" fill="#1e535a"/>
        <path id="Trazado_1280086" data-name="Trazado 1280086" d="M114.4,72.078h18.265v5.491H114.4Zm3.641,1.844H116.22v1.817h1.818Zm3.655,0h-1.8v1.816h1.8Zm1.841,1.816h1.835v-1.82h-1.835Z" transform="translate(-97.028 -61.134)" fill="#1e535a"/>
        <path id="Trazado_1280087" data-name="Trazado 1280087" d="M114.4,24.117h18.265v5.462H114.4Zm9.131,1.792h-1.835v1.835h1.835Zm3.645,0h-1.8v1.835h1.8Zm3.669,0h-1.818v1.835h1.818Z" transform="translate(-97.028 -20.455)" fill="#1e535a"/>
        <path id="Trazado_1280088" data-name="Trazado 1280088" d="M132.676,125.742H114.414v-5.49h18.262Zm-9.133-3.68h-1.836v1.852h1.836Zm3.644,0h-1.8v1.852h1.8Zm3.669,0h-1.818v1.852h1.818Z" transform="translate(-97.042 -101.993)" fill="#1e535a"/>
        <path id="Trazado_1280089" data-name="Trazado 1280089" d="M124.482,326.688l.031,1.826H84.349l0-3.661,9.112,0,.033,1.836Z" transform="translate(-71.54 -275.526)" fill="#1e535a"/>
        <path id="Trazado_1280090" data-name="Trazado 1280090" d="M48.853,225.755l-12.813.006.006-6.933,2.193-2.211,10.612-.011Zm-2.762-6.425h-7.28v3.681h7.28Z" transform="translate(-30.568 -183.717)" fill="#1e535a"/>
        <path id="Trazado_1280091" data-name="Trazado 1280091" d="M132.688,169.959a9.643,9.643,0,0,0-3.512,3.88l-14.754,0v-5.529h18.24Zm-14.629.2h-1.818v1.81h1.818Zm3.655,0h-1.8v1.809h1.8Zm3.676,0h-1.834v1.811h1.834Z" transform="translate(-97.049 -142.757)" fill="#1e535a"/>
        <path id="Trazado_1280092" data-name="Trazado 1280092" d="M297.641,233.165l-9.2-.007,5.829-8.5a9.616,9.616,0,0,0,1.2-7.91h2.177Z" transform="translate(-244.641 -183.839)" fill="#1e535a"/>
        <path id="Trazado_1280093" data-name="Trazado 1280093" d="M20.009,57.271a4.62,4.62,0,0,0-6.5.017L12.2,56a6.45,6.45,0,0,1,9.079-.021Z" transform="translate(-10.346 -45.9)" fill="#1e535a"/>
        <path id="Trazado_1280094" data-name="Trazado 1280094" d="M290.865,57.3a4.6,4.6,0,0,0-6.493-.021l-1.3-1.289a6.449,6.449,0,0,1,9.046-.02Z" transform="translate(-240.094 -45.908)" fill="#1e535a"/>
        <path id="Trazado_1280095" data-name="Trazado 1280095" d="M5.062,216.593l-5.04,5.059L0,216.543Z" transform="translate(0 -183.664)" fill="#1e535a"/>
        <path id="Trazado_1280096" data-name="Trazado 1280096" d="M31.888,80.175a1.33,1.33,0,0,0-1.387.007l-1.268-1.258a2.764,2.764,0,0,1,3.91-.009Z" transform="translate(-24.794 -66.249)" fill="#1e535a"/>
        <path id="Trazado_1280097" data-name="Trazado 1280097" d="M302.785,80.186a1.279,1.279,0,0,0-1.377,0l-1.279-1.259a2.739,2.739,0,0,1,3.885-.019Z" transform="translate(-254.558 -66.252)" fill="#1e535a"/>
        <path id="Trazado_1280098" data-name="Trazado 1280098" d="M308.757,103.114a.912.912,0,1,1-.912-.912.912.912,0,0,1,.912.912" transform="translate(-260.329 -86.684)" fill="#1e535a"/>
        <path id="Trazado_1280099" data-name="Trazado 1280099" d="M37.984,103.105a.912.912,0,1,1-.912-.912.912.912,0,0,1,.912.912" transform="translate(-30.67 -86.676)" fill="#1e535a"/>
        <path id="Trazado_1280100" data-name="Trazado 1280100" d="M308.771,127.218a.907.907,0,1,1-.907-.907.907.907,0,0,1,.907.907" transform="translate(-260.351 -107.132)" fill="#1e535a"/>
        <path id="Trazado_1280101" data-name="Trazado 1280101" d="M38.015,127.228a.907.907,0,1,1-.907-.907.907.907,0,0,1,.907.907" transform="translate(-30.704 -107.141)" fill="#1e535a"/>
      </g>
    </g>
  </g>
</svg>
