<svg xmlns="http://www.w3.org/2000/svg" xmlns:xlink="http://www.w3.org/1999/xlink" width="85" height="85" viewBox="0 0 85 85">
  <defs>
    <clipPath id="clip-path">
      <rect id="Rectángulo_463175" data-name="Rectángulo 463175" width="71.713" height="71.741" fill="#344866"/>
    </clipPath>
  </defs>
  <g id="Grupo_1212675" data-name="Grupo 1212675" transform="translate(0.578 0.031)">
    <path id="Sustracción_110" data-name="Sustracción 110" d="M0,0H85V85H0Z" transform="translate(-0.578 -0.031)" fill="#69d7e5"/>
    <g id="Grupo_1213442" data-name="Grupo 1213442" transform="translate(6.422 6.969)">
      <g id="Grupo_1213441" data-name="Grupo 1213441" clip-path="url(#clip-path)">
        <path id="Trazado_1280261" data-name="Trazado 1280261" d="M66.059,71.741H5.655A5.523,5.523,0,0,1,4.6,60.773l0-32.485a5.04,5.04,0,0,1,4.588-5.133c1.2-.11,2.4-.068,3.837-.072l.044-19.16A4.211,4.211,0,0,1,17.205,0H58.661l.023,23.037,3.451.06a5.122,5.122,0,0,1,4.979,5.194l0,32.48a5.523,5.523,0,0,1-1.053,10.967M22.386,41.6a13.948,13.948,0,0,1-3.2-.159c-1.548-.409-2.1-2.05-2.081-3.4a3.072,3.072,0,0,1,2.128-3.122,16.989,16.989,0,0,1,3.177-.148l0-33.016L16.7,1.807c-1.047.011-1.864,1.394-2,2.384l-.007,36.831a2.736,2.736,0,0,0,2.738,2.985l4.987,0Zm1.763,0v2.419l32.87,0,0-42.275H24.072V34.77l30.5.017.019,6.787ZM62.908,28.436l-.007,28.9a1.027,1.027,0,0,1-.939.813l-52.2,0a.95.95,0,0,1-.952-.984l0-29.083c0-.333.577-.782.876-.781l3.357.009L13.01,24.8,9.7,24.873a3.151,3.151,0,0,0-3.38,3.184v32.6H65.4v-32.6a3.145,3.145,0,0,0-3.376-3.184L58.7,24.808l-.042,2.5,3.389,0c.45,0,.855.459.855,1.135M58.617,45.651l-41.66-.016a4.173,4.173,0,0,1-3.879-3.822L13.03,29.024l-2.523.02V56.471h50.7V29.04l-2.524-.006ZM52.9,39.928l-.024-3.486-33.412.009a2.327,2.327,0,0,0,.133,3.465Zm-4.438,23.9a3.21,3.21,0,0,1-3.334,3.279l-19.235-.106c-2.164-.012-3.035-2.665-2.541-4.658l-18.042.028a3.749,3.749,0,0,0-3.626,3.629c-.088,1.688,1.089,4.007,3.252,4.007l61.844,0c2.257,0,3.429-2.47,3.237-4.21a3.83,3.83,0,0,0-3.957-3.474H48.475ZM46.12,65.41a3.683,3.683,0,0,0,.559-3.085H24.995l.04,2.2c.007.394.842.9,1.3.9Z" transform="translate(0)" fill="#344866"/>
        <path id="Trazado_1280262" data-name="Trazado 1280262" d="M108.977,41.713a1.282,1.282,0,0,1-.6-.838c.056-1.042,3.151-.805,4.988-3.459A10.558,10.558,0,0,1,111.9,22.8c5.434-7.158,17.4-7.2,22.955-.122a10.571,10.571,0,0,1-.122,13.42,14.628,14.628,0,0,1-14.137,4.843,14.013,14.013,0,0,1-11.614.776m12.156-2.378A13.515,13.515,0,0,0,133.068,35.4a8.846,8.846,0,0,0,.13-12.047c-5.161-5.937-15.783-5.759-20.305.926a8.849,8.849,0,0,0,1.815,12.092c1.61,1.285-.559,2.609-2.583,4.405,4.314,1.022,6.917-1.736,9.008-1.437" transform="translate(-82.267 -13.204)" fill="#344866"/>
        <path id="Trazado_1280263" data-name="Trazado 1280263" d="M22.889,272.6c-1.249.6-3.2.389-3.327-.524-.036-.255.419-.837.681-.838l2.417-.006c.332,0,.588,1.194.228,1.367" transform="translate(-14.847 -205.885)" fill="#344866"/>
        <path id="Trazado_1280264" data-name="Trazado 1280264" d="M43.023,272.536l-2.439.025c-.266,0-.728-.5-.751-.75-.083-.9,1.467-1.182,3.221-.761.345.083.3,1.066-.032,1.486" transform="translate(-30.234 -205.598)" fill="#344866"/>
        <rect id="Rectángulo_463173" data-name="Rectángulo 463173" width="19.472" height="1.732" transform="translate(31.36 17.104)" fill="#344866"/>
        <rect id="Rectángulo_463174" data-name="Rectángulo 463174" width="19.47" height="1.736" transform="translate(31.362 13.719)" fill="#344866"/>
        <path id="Trazado_1280265" data-name="Trazado 1280265" d="M158.467,44.888l-9.235,0a1.5,1.5,0,0,1-.917-.581c-.124-.249.186-1.083.473-1.083l9.742,0c.246.008.711.7.575.866Z" transform="translate(-112.559 -32.813)" fill="#344866"/>
        <path id="Trazado_1280266" data-name="Trazado 1280266" d="M158.352,86.481l-9.152.01a.919.919,0,0,1-.931-.946c.02-.354.534-.745,1-.745h8.867a1.322,1.322,0,0,1,.907.6c.142.3-.262,1.087-.693,1.087" transform="translate(-112.544 -64.367)" fill="#344866"/>
      </g>
    </g>
  </g>
</svg>
