<svg xmlns="http://www.w3.org/2000/svg" xmlns:xlink="http://www.w3.org/1999/xlink" width="69" height="69" viewBox="0 0 69 69">
  <defs>
    <clipPath id="clip-path">
      <rect id="Rectángulo_462446" data-name="Rectángulo 462446" width="42.438" height="43.197" fill="#fff"/>
    </clipPath>
  </defs>
  <g id="Grupo_1213450" data-name="Grupo 1213450" transform="translate(-1225.711 -1867)">
    <g id="Grupo_1212373" data-name="Grupo 1212373" transform="translate(608.144 1117.138)">
      <circle id="Elipse_13676" data-name="Elipse 13676" cx="34.5" cy="34.5" r="34.5" transform="translate(617.567 749.862)" fill="#1e535a"/>
    </g>
    <g id="Grupo_1212839" data-name="Grupo 1212839" transform="translate(1238.711 1880)">
      <g id="Grupo_1212838" data-name="Grupo 1212838" clip-path="url(#clip-path)">
        <path id="Trazado_1278332" data-name="Trazado 1278332" d="M21.223,204.324v11.838L0,216.165V204.327Zm-8.747,8.957,1.2-1.2a.758.758,0,0,0,.037-1.063L12.124,209.4a1.927,1.927,0,0,0,.651-.874c.049-.2-.21-.712-.424-.756l-4.226-.852a.986.986,0,0,0-.678.246,1.1,1.1,0,0,0-.14.618l.789,3.964a1.033,1.033,0,0,0,.451.6,1,1,0,0,0,.754-.13l.535-.489,1.5,1.527a.758.758,0,0,0,1.135.024" transform="translate(0 -176.644)" fill="#fff"/>
        <path id="Trazado_1278333" data-name="Trazado 1278333" d="M171.8,174.482a.834.834,0,0,1-.889-.618c-.062-.306.174-.856.562-.857l8.124-.021a4.579,4.579,0,0,0,4.56-4.588l.009-8a.8.8,0,0,1,.776-.7.816.816,0,0,1,.7.722l-.017,8.09a6.1,6.1,0,0,1-5.4,5.958Z" transform="translate(-147.75 -138.065)" fill="#fff"/>
        <path id="Trazado_1278334" data-name="Trazado 1278334" d="M35.215,67.4,35.14,75.95c0,.351-.537.652-.8.619a.806.806,0,0,1-.659-.8l.024-8.147a5.91,5.91,0,0,1,5.838-5.8l8.013-.024a.77.77,0,0,1,.85.615.754.754,0,0,1-.726.874l-8.282.039A4.328,4.328,0,0,0,35.215,67.4" transform="translate(-29.118 -53.428)" fill="#fff"/>
        <path id="Trazado_1278335" data-name="Trazado 1278335" d="M180.863,31.286l.915.065a16.829,16.829,0,0,0,.762,4.2l-2.051.8a9.128,9.128,0,0,1-.027-11.519l2.072.74a18.988,18.988,0,0,0-.763,4.243l-.868.041a.95.95,0,0,0-.642.612.779.779,0,0,0,.6.824" transform="translate(-154.256 -21.463)" fill="#fff"/>
        <path id="Trazado_1278336" data-name="Trazado 1278336" d="M251.261,77.949a17.221,17.221,0,0,1,4.125.632,1.134,1.134,0,0,0,.888-.081.894.894,0,0,0,.19-.911,1.531,1.531,0,0,0-.887-.481,20.406,20.406,0,0,0,.779-4.28h3.3a9.171,9.171,0,0,1-8.38,8.365Z" transform="translate(-217.222 -62.961)" fill="#fff"/>
        <path id="Trazado_1278337" data-name="Trazado 1278337" d="M132.788,111.732a9.159,9.159,0,0,0-9.205-9.25.814.814,0,0,1-.685-.738.778.778,0,0,1,.828-.735,10.587,10.587,0,0,1,10.518,10.64.85.85,0,0,1-.585.7c-.247.072-.871-.155-.87-.622" transform="translate(-106.248 -87.326)" fill="#fff"/>
        <path id="Trazado_1278338" data-name="Trazado 1278338" d="M49.62,299.787l-8.793,0a.865.865,0,0,1-.816-.618.771.771,0,0,1,.665-.868l3.213-.01L43.9,296.8h2.6l0,1.5h3.133a.737.737,0,0,1,.73.746.745.745,0,0,1-.747.74" transform="translate(-34.583 -256.594)" fill="#fff"/>
        <path id="Trazado_1278339" data-name="Trazado 1278339" d="M270.008,7.094c.358-.087.8-.3.893-.557.119-.312-.03-.883-.426-.964a3.062,3.062,0,0,0-1.029.116l-1.518-2.222a9.17,9.17,0,0,1,6.139,7.9l-3.292.005a22.991,22.991,0,0,0-.767-4.279" transform="translate(-231.631 -2.997)" fill="#fff"/>
        <path id="Trazado_1278340" data-name="Trazado 1278340" d="M129.659,131.467a6.057,6.057,0,0,0-6.08-6.022.822.822,0,0,1-.7-.739.811.811,0,0,1,.7-.732,7.484,7.484,0,0,1,7.55,7.557.8.8,0,0,1-.714.683.763.763,0,0,1-.751-.747" transform="translate(-106.228 -107.179)" fill="#fff"/>
        <path id="Trazado_1278341" data-name="Trazado 1278341" d="M254.9,36.734l-3.608.012V33.127l2.856-.318a15.833,15.833,0,0,1,.752,3.925" transform="translate(-217.252 -28.364)" fill="#fff"/>
        <path id="Trazado_1278342" data-name="Trazado 1278342" d="M254.186,76.693l-2.893-.286V72.795l3.609-.008a19.144,19.144,0,0,1-.715,3.906" transform="translate(-217.249 -62.926)" fill="#fff"/>
        <path id="Trazado_1278343" data-name="Trazado 1278343" d="M217.529,36.722l-3.593.008a17.524,17.524,0,0,1,.729-3.937l2.854.319Z" transform="translate(-184.954 -28.35)" fill="#fff"/>
        <path id="Trazado_1278344" data-name="Trazado 1278344" d="M217.544,76.37l-2.843.362a16.161,16.161,0,0,1-.751-3.929l3.584-.01Z" transform="translate(-184.966 -62.931)" fill="#fff"/>
        <path id="Trazado_1278345" data-name="Trazado 1278345" d="M206.951,3.257a17.2,17.2,0,0,1-5.25-1.023A8.892,8.892,0,0,1,206.938,0Z" transform="translate(-174.376)" fill="#fff"/>
        <path id="Trazado_1278346" data-name="Trazado 1278346" d="M126.562,151.3a2.917,2.917,0,0,0-2.852-2.913.876.876,0,0,1-.811-.622.784.784,0,0,1,.69-.863,4.4,4.4,0,0,1,4.442,4.322.816.816,0,0,1-.608.8.739.739,0,0,1-.861-.719" transform="translate(-106.242 -127.003)" fill="#fff"/>
        <path id="Trazado_1278347" data-name="Trazado 1278347" d="M122.734,172.556a1.054,1.054,0,1,1-1.054-1.054,1.054,1.054,0,0,1,1.054,1.054" transform="translate(-104.285 -148.268)" fill="#fff"/>
        <path id="Trazado_1278348" data-name="Trazado 1278348" d="M253.533,8.416l-2.2.293,0-2.453a4.282,4.282,0,0,1,2.2,2.161" transform="translate(-217.283 -5.408)" fill="#fff"/>
        <path id="Trazado_1278349" data-name="Trazado 1278349" d="M226.471,112.758a4.385,4.385,0,0,1-2.163-2.163l2.19-.259Z" transform="translate(-193.921 -95.389)" fill="#fff"/>
        <path id="Trazado_1278350" data-name="Trazado 1278350" d="M204.846,116.709a9.15,9.15,0,0,1-3.032-1.75l1.5-.518a22.937,22.937,0,0,0,1.534,2.268" transform="translate(-174.474 -98.938)" fill="#fff"/>
      </g>
    </g>
  </g>
</svg>
