<svg xmlns="http://www.w3.org/2000/svg" xmlns:xlink="http://www.w3.org/1999/xlink" width="129" height="129" viewBox="0 0 129 129">
  <defs>
    <clipPath id="clip-path">
      <rect id="Rectángulo_454829" data-name="Rectángulo 454829" width="129" height="129" fill="#1e535a"/>
    </clipPath>
    <clipPath id="clip-path-2">
      <rect id="Rectángulo_463120" data-name="Rectángulo 463120" width="48.97" height="49" fill="#1e535a"/>
    </clipPath>
  </defs>
  <g id="Grupo_1184516" data-name="Grupo 1184516" transform="translate(-186 -4323.945)">
    <g id="Grupo_1177591" data-name="Grupo 1177591" transform="translate(186 4323.945)">
      <g id="Grupo_1177589" data-name="Grupo 1177589" transform="translate(0 0)">
        <g id="Grupo_1177587" data-name="Grupo 1177587" clip-path="url(#clip-path)">
          <path id="Trazado_997422" data-name="Trazado 997422" d="M123.733,57.1a59.308,59.308,0,0,0-13.4-30.862,6.821,6.821,0,0,0-9.6-9.189A59.221,59.221,0,0,0,70.078,5.066a6.822,6.822,0,0,0-13.25.269A59.3,59.3,0,0,0,27.41,17.911a6.824,6.824,0,0,0-9.471,9.536A59.253,59.253,0,0,0,5.526,57.039a6.827,6.827,0,0,0-.163,13.369A59.236,59.236,0,0,0,17.387,100.6a6.823,6.823,0,0,0,9.27,9.635,59.3,59.3,0,0,0,30.116,13.172,6.824,6.824,0,0,0,13.369.269,59.247,59.247,0,0,0,30.886-12.2,6.822,6.822,0,0,0,9.55-9.236,59.323,59.323,0,0,0,13.315-31.893,6.824,6.824,0,0,0-.16-13.247M104.464,29.6a6.785,6.785,0,0,0,3.779-1.144,56.321,56.321,0,0,1,12.43,28.628,6.834,6.834,0,0,0-4.361,3.159L98.87,53.7c.014-.191.027-.385.027-.582a6.825,6.825,0,0,0-2.89-5.577l7.629-18a7.392,7.392,0,0,0,.827.054m-3.687-1.086L93.195,46.39a6.754,6.754,0,0,0-7.517,4.341L54.125,43.462a6.639,6.639,0,0,0-.143-1.358L98.758,26.511a6.846,6.846,0,0,0,2.019,2m-37.29-14.85a6.83,6.83,0,0,0,6.7-5.539A56.228,56.228,0,0,1,98.622,19.239a6.792,6.792,0,0,0-.987,3.527,7.17,7.17,0,0,0,.065.9l-45,15.668A6.85,6.85,0,0,0,51.462,38.1l11.8-24.451c.075,0,.146.01.221.01m-6.642-5.27a6.831,6.831,0,0,0,3.435,4.47L48.708,36.823a6.848,6.848,0,0,0-1.409-.146A6.78,6.78,0,0,0,43.407,37.9L29.691,26.443a6.789,6.789,0,0,0-.232-6.285A56.272,56.272,0,0,1,56.845,8.389M13.492,62.258l28.37-14.633a6.8,6.8,0,0,0,5.383,2.707l9.723,31.08a6.941,6.941,0,0,0-1.5,1.665L13.407,65.554a6.784,6.784,0,0,0,.252-1.811,6.863,6.863,0,0,0-.167-1.484m6.7-32.775a6.824,6.824,0,0,0,7.623-.65l13.543,11.31a6.81,6.81,0,0,0-.752,4.719L12.188,59.514a6.827,6.827,0,0,0-3.616-2.37,56.248,56.248,0,0,1,11.62-27.662m2.826,68.151a6.809,6.809,0,0,0-3.391.906A56.2,56.2,0,0,1,8.416,70.378,6.835,6.835,0,0,0,11.96,68.24l42.475,17.7a7.323,7.323,0,0,0-.054.82,6.828,6.828,0,0,0,.409,2.308L29.1,101.373a6.828,6.828,0,0,0-6.084-3.738m33.888,22.732a56.328,56.328,0,0,1-28.1-12.294,6.758,6.758,0,0,0,1.042-3.609l0-.078,26.6-12.746a6.829,6.829,0,0,0,2.41,1.522l1.593,22.9a6.829,6.829,0,0,0-3.537,4.3m2.829-40.272L50.22,49.672a6.839,6.839,0,0,0,3.244-3.244L85.273,53.75a6.789,6.789,0,0,0,1.086,3.1L64.543,80.8a6.745,6.745,0,0,0-4.807-.7m10.4,40.537a6.827,6.827,0,0,0-6.649-5.291l-.051,0L61.921,93.552a6.817,6.817,0,0,0,4.174-2.026l31.8,14.027c0,.061-.01.116-.01.177a6.8,6.8,0,0,0,1.011,3.561,56.224,56.224,0,0,1-28.761,11.34m28.526-18.058L67.688,88.909a6.789,6.789,0,0,0-.9-6.074L88.544,58.959a6.789,6.789,0,0,0,3.524.987,7.517,7.517,0,0,0,.838-.054l8.13,40.091a6.814,6.814,0,0,0-2.373,2.591m9.8-2.553a6.788,6.788,0,0,0-4.538-1.072L95.789,58.84a6.857,6.857,0,0,0,2.152-2.247l17.431,6.537a6.057,6.057,0,0,0-.031.613,6.827,6.827,0,0,0,5.488,6.693,56.271,56.271,0,0,1-12.369,29.585" transform="translate(0 0.001)" fill="#1e535a"/>
        </g>
      </g>
    </g>
    <g id="Elipse_13614" data-name="Elipse 13614" transform="translate(210.273 4348.213)" fill="#d5f4f8" stroke="#1e535a" stroke-width="3">
      <ellipse cx="40.232" cy="40.233" rx="40.232" ry="40.233" stroke="none"/>
      <ellipse cx="40.232" cy="40.233" rx="38.732" ry="38.733" fill="none"/>
    </g>
    <g id="Grupo_1213404" data-name="Grupo 1213404" transform="translate(226 4363.945)">
      <g id="Grupo_1213403" data-name="Grupo 1213403" clip-path="url(#clip-path-2)">
        <path id="Trazado_1280055" data-name="Trazado 1280055" d="M139.478,43.912l-30.408,0V2.488A2.577,2.577,0,0,1,111.814,0H136.7a2.6,2.6,0,0,1,2.777,2.474ZM112.434,1.684h-1.682V3.371h1.682Zm1.682,0V3.371l1.71,0,0-1.685Zm3.405,1.686h1.706V1.684h-1.706Zm10.112,1.7h1.687V1.684h-1.687Zm3.365,0h1.7V1.684H131Zm5.1-3.387h-1.706l0,3.387H136.1Zm-.015,40.528a1.715,1.715,0,0,0,1.717-1.734V8.493a1.725,1.725,0,0,0-1.868-1.724l-23.5.005a1.641,1.641,0,0,0-1.675,1.591l0,32.1a1.721,1.721,0,0,0,1.833,1.749Z" transform="translate(-92.188 0.001)" fill="#1e535a"/>
        <path id="Trazado_1280056" data-name="Trazado 1280056" d="M131.962,298.126H98.241l-.048-2.633a.8.8,0,0,1,.873-.746h32a.823.823,0,0,1,.9.781Z" transform="translate(-82.995 -249.127)" fill="#1e535a"/>
        <path id="Trazado_1280057" data-name="Trazado 1280057" d="M1.783,114.156a1.632,1.632,0,0,1-1.719-1.591l-.006-1.818A1.715,1.715,0,0,1,1.878,109.1H15.256l0,5.055Z" transform="translate(-0.05 -92.214)" fill="#1e535a"/>
        <path id="Trazado_1280058" data-name="Trazado 1280058" d="M13.677,266.866l-12.006,0A1.751,1.751,0,0,1,.02,265.308L0,263.451a1.691,1.691,0,0,1,1.662-1.687l13.549,0-.014,3.478a3.016,3.016,0,0,0-1.522,1.627" transform="translate(0 -221.245)" fill="#1e535a"/>
        <path id="Trazado_1280059" data-name="Trazado 1280059" d="M1.62,190.7a1.713,1.713,0,0,1-1.56-1.632l0-1.822a1.648,1.648,0,0,1,1.346-1.581H15.262l-.009,5.036Z" transform="translate(-0.051 -156.927)" fill="#1e535a"/>
        <path id="Trazado_1280060" data-name="Trazado 1280060" d="M29.137,156.168l-11.052-.018a1.709,1.709,0,0,1-1.6-1.763,1.686,1.686,0,0,1,1.741-1.63H29.137Z" transform="translate(-13.929 -129.114)" fill="#1e535a"/>
        <path id="Trazado_1280061" data-name="Trazado 1280061" d="M29.122,232.429l-10.921,0a1.686,1.686,0,1,1,.019-3.37h10.9Z" transform="translate(-13.912 -193.607)" fill="#1e535a"/>
        <path id="Trazado_1280062" data-name="Trazado 1280062" d="M154.475,86.748H130.811V54.7h23.664Zm-3.938-21.942a2.542,2.542,0,0,0,2.232-2.514l0-3.45a2.443,2.443,0,0,0-2.174-2.426L134.677,56.4a2.5,2.5,0,0,0-2.146,2.344c-.054,1.239-.053,2.422,0,3.7a2.477,2.477,0,0,0,2.283,2.352Zm-.172,10.142a2.542,2.542,0,0,0,2.409-2.573l-.016-3.439a2.512,2.512,0,0,0-2.332-2.446l-15.141-.01A2.621,2.621,0,0,0,132.5,69.1v3.253a2.616,2.616,0,0,0,2.635,2.61Zm-.138,10.109a2.49,2.49,0,0,0,2.538-2.49l.006-3.453a2.447,2.447,0,0,0-2.167-2.437l-16.08-.017a2.573,2.573,0,0,0-2,2.356c-.049,1.241-.05,2.426,0,3.7a2.459,2.459,0,0,0,2.285,2.332Z" transform="translate(-110.564 -46.232)" fill="#1e535a"/>
        <path id="Trazado_1280063" data-name="Trazado 1280063" d="M168.695,146.866l-15.062,0a.952.952,0,0,1-.941-.923v-3.279a.967.967,0,0,1,.8-.9l15.286,0a.891.891,0,0,1,.79.889l0,3.3a.915.915,0,0,1-.87.918m-12.6-3.415h-1.7v1.711h1.7Zm3.367,0h-1.682v1.711h1.682Zm3.358,0h-1.675v1.711h1.675Z" transform="translate(-129.057 -119.817)" fill="#1e535a"/>
        <path id="Trazado_1280064" data-name="Trazado 1280064" d="M168.792,81.634H153.629a.878.878,0,0,1-.926-.832l0-3.429a.854.854,0,0,1,.779-.766l15.161,0c.519,0,.928.234.928.791l0,3.415a.862.862,0,0,1-.779.826m-7.638-3.364h-1.683v1.722h1.683Zm3.358,0h-1.681v1.722h1.681Zm1.681,1.722h1.687V78.269h-1.687Z" transform="translate(-129.064 -64.746)" fill="#1e535a"/>
        <path id="Trazado_1280065" data-name="Trazado 1280065" d="M168.781,212.528l-15.317,0a.9.9,0,0,1-.778-.788l0-3.452c0-.246.329-.771.623-.771l15.321-.008c.529,0,.929.235.929.807l0,3.414a.833.833,0,0,1-.776.8m-7.641-3.373h-1.683v1.69h1.683Zm3.358,0h-1.681v1.688H164.5Zm3.367,0h-1.683v1.687h1.683Z" transform="translate(-129.05 -175.39)" fill="#1e535a"/>
      </g>
    </g>
  </g>
</svg>
