<svg id="Grupo_1210281" data-name="Grupo 1210281" xmlns="http://www.w3.org/2000/svg" xmlns:xlink="http://www.w3.org/1999/xlink" width="128" height="128" viewBox="0 0 128 128">
  <defs>
    <clipPath id="clip-path">
      <rect id="Rectángulo_454829" data-name="Rectángulo 454829" width="128" height="128" fill="#1e535a"/>
    </clipPath>
    <clipPath id="clip-path-2">
      <rect id="Rectángulo_463084" data-name="Rectángulo 463084" width="45.971" height="45.972" fill="#1e535a"/>
    </clipPath>
  </defs>
  <g id="Grupo_1177591" data-name="Grupo 1177591">
    <g id="Grupo_1177589" data-name="Grupo 1177589" transform="translate(0 0)">
      <g id="Grupo_1177587" data-name="Grupo 1177587" clip-path="url(#clip-path)">
        <path id="Trazado_997422" data-name="Trazado 997422" d="M122.774,56.654a58.848,58.848,0,0,0-13.293-30.623,6.768,6.768,0,0,0-9.523-9.118A58.761,58.761,0,0,0,69.535,5.027a6.769,6.769,0,0,0-13.148.267A58.842,58.842,0,0,0,27.2,17.772a6.771,6.771,0,0,0-9.4,9.462A58.794,58.794,0,0,0,5.483,56.6a6.774,6.774,0,0,0-.162,13.266A58.776,58.776,0,0,0,17.252,99.82a6.771,6.771,0,0,0,9.2,9.56,58.838,58.838,0,0,0,29.883,13.07,6.771,6.771,0,0,0,13.266.267,58.788,58.788,0,0,0,30.646-12.107,6.769,6.769,0,0,0,9.476-9.165A58.863,58.863,0,0,0,122.933,69.8a6.771,6.771,0,0,0-.159-13.144m-19.12-27.288a6.733,6.733,0,0,0,3.75-1.135,55.884,55.884,0,0,1,12.333,28.407,6.781,6.781,0,0,0-4.327,3.135L98.1,53.283c.013-.189.027-.382.027-.578a6.772,6.772,0,0,0-2.868-5.533l7.57-17.86a7.335,7.335,0,0,0,.821.054M100,28.288,92.472,46.03a6.7,6.7,0,0,0-7.459,4.307L53.705,43.125a6.588,6.588,0,0,0-.142-1.348L97.992,26.305a6.793,6.793,0,0,0,2,1.983M63,13.553a6.777,6.777,0,0,0,6.651-5.5A55.792,55.792,0,0,1,97.857,19.09a6.739,6.739,0,0,0-.98,3.5,7.114,7.114,0,0,0,.064.9L52.29,39.031A6.8,6.8,0,0,0,51.064,37.8L62.775,13.543c.074,0,.145.01.22.01M56.4,8.324a6.778,6.778,0,0,0,3.409,4.435L48.331,36.538a6.8,6.8,0,0,0-1.4-.145,6.727,6.727,0,0,0-3.861,1.213L29.461,26.238A6.736,6.736,0,0,0,29.231,20,55.836,55.836,0,0,1,56.4,8.324M13.387,61.776l28.15-14.519a6.751,6.751,0,0,0,5.341,2.686l9.648,30.839a6.887,6.887,0,0,0-1.493,1.652L13.3,65.046a6.731,6.731,0,0,0,.25-1.8,6.81,6.81,0,0,0-.166-1.473m6.648-32.521a6.771,6.771,0,0,0,7.564-.645L41.037,39.831a6.758,6.758,0,0,0-.747,4.682l-28.2,14.539A6.774,6.774,0,0,0,8.506,56.7,55.812,55.812,0,0,1,20.036,29.254m2.8,67.623a6.756,6.756,0,0,0-3.365.9A55.762,55.762,0,0,1,8.351,69.832a6.783,6.783,0,0,0,3.517-2.121L54.013,85.27a7.266,7.266,0,0,0-.054.814,6.775,6.775,0,0,0,.405,2.29L28.876,100.587a6.775,6.775,0,0,0-6.037-3.709m33.626,22.556a55.892,55.892,0,0,1-27.883-12.2,6.705,6.705,0,0,0,1.034-3.581l0-.078L56,90.929a6.776,6.776,0,0,0,2.392,1.51l1.581,22.725a6.776,6.776,0,0,0-3.51,4.27m2.807-39.96L49.831,49.287a6.786,6.786,0,0,0,3.219-3.219l31.562,7.266a6.736,6.736,0,0,0,1.078,3.081L64.042,80.173a6.692,6.692,0,0,0-4.77-.7M69.592,119.7a6.774,6.774,0,0,0-6.6-5.25l-.051,0-1.5-21.623a6.764,6.764,0,0,0,4.142-2.01l31.555,13.918c0,.061-.01.115-.01.176a6.743,6.743,0,0,0,1,3.534A55.789,55.789,0,0,1,69.592,119.7M97.9,101.779,67.164,88.22a6.736,6.736,0,0,0-.888-6.027L87.858,58.5a6.736,6.736,0,0,0,3.5.98,7.46,7.46,0,0,0,.831-.054l8.067,39.781a6.761,6.761,0,0,0-2.355,2.571m9.722-2.534a6.735,6.735,0,0,0-4.5-1.064l-8.07-39.8a6.8,6.8,0,0,0,2.135-2.23l17.3,6.486a6.009,6.009,0,0,0-.03.608,6.774,6.774,0,0,0,5.445,6.641A55.835,55.835,0,0,1,107.62,99.246" transform="translate(0 0.001)" fill="#1e535a"/>
      </g>
    </g>
  </g>
  <g id="Elipse_13614" data-name="Elipse 13614" transform="translate(24.16 23.773)" fill="#fff" stroke="#1e535a" stroke-width="3">
    <ellipse cx="39.732" cy="39.733" rx="39.732" ry="39.733" stroke="none"/>
    <ellipse cx="39.732" cy="39.733" rx="38.232" ry="38.233" fill="none"/>
  </g>
  <g id="Grupo_1213332" data-name="Grupo 1213332" transform="translate(41.16 38.066)">
    <g id="Grupo_1213331" data-name="Grupo 1213331" clip-path="url(#clip-path-2)">
      <path id="Trazado_1279870" data-name="Trazado 1279870" d="M42.73,110.9H3.312A3.279,3.279,0,0,1,0,107.588v-32.8H45.967v32.8A3.271,3.271,0,0,1,42.73,110.9m-23.42-15.62a2.453,2.453,0,0,0,2.015-2.3l0-10.142A2.345,2.345,0,0,0,19.378,80.6a20.706,20.706,0,0,0-2.442-.058l-.929-1.852a2.486,2.486,0,0,0-2.235-1.45l-2.922,0A2.46,2.46,0,0,0,8.67,78.6L7.687,80.53c-.814.01-1.586-.018-2.438.072A2.365,2.365,0,0,0,3.3,82.834l-.017,9.9A2.418,2.418,0,0,0,5.4,95.255ZM29.869,83.771a1.562,1.562,0,0,0,1.293-1.333v-3.8a1.634,1.634,0,0,0-1.668-1.417l-3.353.022a1.59,1.59,0,0,0-1.486,1.372l-.024,3.567a1.647,1.647,0,0,0,1.7,1.625Zm7.81-4.056a.853.853,0,0,0,.9-.773c.028-.3-.236-.854-.626-.854l-4.372-.008a.8.8,0,0,0-.744.848.855.855,0,0,0,.875.787Zm4.259,3.271A.84.84,0,0,0,42.676,82a.863.863,0,0,0-.916-.633l-8.419.028c-.353,0-.574.69-.494.944a.939.939,0,0,0,.868.661ZM29.682,92.031a1.656,1.656,0,0,0,1.484-1.443L31.2,87.2a1.685,1.685,0,0,0-1.819-1.751l-3.314.037a1.571,1.571,0,0,0-1.42,1.435l-.005,3.573a1.607,1.607,0,0,0,1.592,1.528Zm8-4.115a.829.829,0,1,0,0-1.654l-4.1.013a.865.865,0,0,0-.746.847.835.835,0,0,0,.875.793ZM41.953,91.2a.884.884,0,0,0,.735-.909.852.852,0,0,0-.805-.73l-8.164,0a.823.823,0,0,0-.879.865.835.835,0,0,0,.877.777Zm-12.234,9.05a1.679,1.679,0,0,0,1.455-1.5l.011-3.52a1.645,1.645,0,0,0-1.445-1.584l-3.518.009a1.681,1.681,0,0,0-1.6,1.429l.026,3.7a1.636,1.636,0,0,0,1.544,1.448Zm8.264-4.137a.845.845,0,0,0-.185-1.651l-4.2,0a.893.893,0,0,0-.768.817.85.85,0,0,0,.762.822ZM20.577,99.433a.875.875,0,0,0,.753-.971.853.853,0,0,0-.933-.691l-16.39.007a.8.8,0,0,0-.719.926.923.923,0,0,0,.815.727Zm21.356,0a.962.962,0,0,0,.759-.86.832.832,0,0,0-.712-.8l-8.373,0a.84.84,0,0,0-.775.813.917.917,0,0,0,.778.837Zm-33.546,8.98a1.605,1.605,0,0,0,1.458-1.6l.005-3.3a1.642,1.642,0,0,0-1.6-1.647l-3.33,0a1.616,1.616,0,0,0-1.624,1.512l0,3.585a1.6,1.6,0,0,0,1.43,1.452Zm21.479-.014a1.577,1.577,0,0,0,1.3-1.332l0-3.8a1.588,1.588,0,0,0-1.567-1.4l-3.446.012a1.578,1.578,0,0,0-1.513,1.492l.006,3.576a1.612,1.612,0,0,0,1.546,1.485ZM16.34,104.321a.812.812,0,1,0,.006-1.615l-3.97.007a.809.809,0,0,0-.889.866.834.834,0,0,0,.887.739ZM38,104.3c.361,0,.608-.592.585-.842s-.306-.741-.627-.742l-4.248-.01a.809.809,0,0,0-.131,1.614Zm-17.451,3.308a.825.825,0,0,0,.8-.869.846.846,0,0,0-.785-.769l-8.18,0a.848.848,0,0,0-.892.791.859.859,0,0,0,.763.85Zm21.4,0a.843.843,0,0,0,.746-.861.867.867,0,0,0-.8-.773l-8.176,0a.812.812,0,0,0-.877.884.835.835,0,0,0,.876.761Z" transform="translate(-0.001 -64.933)" fill="#1e535a"/>
      <path id="Trazado_1279871" data-name="Trazado 1279871" d="M45.983,8.209l-45.96,0V3.287A3.253,3.253,0,0,1,3.2,0H42.542a3.275,3.275,0,0,1,3.448,3.152ZM6.585,4.1A2.462,2.462,0,1,0,4.124,6.562,2.462,2.462,0,0,0,6.585,4.1m6.57,0a2.463,2.463,0,1,0-2.463,2.463A2.463,2.463,0,0,0,13.155,4.1m6.562,0a2.461,2.461,0,1,0-2.461,2.461A2.461,2.461,0,0,0,19.717,4.1M42.083,6.538a2.389,2.389,0,0,0,2.258-2.5A2.426,2.426,0,0,0,41.98,1.646l-8.449,0a2.434,2.434,0,0,0-2.314,2.495,2.421,2.421,0,0,0,2.276,2.4Z" transform="translate(-0.02 -0.001)" fill="#1e535a"/>
      <path id="Trazado_1279872" data-name="Trazado 1279872" d="M51.438,179.935l.73-.108-.01,4.292a.825.825,0,0,1-.861.741H38.267a.828.828,0,0,1-.875-.825v-4.2l.986.106,3.138.018a1.583,1.583,0,0,0,1.491,1.615c1.19.032,2.359.032,3.549,0a1.606,1.606,0,0,0,1.5-1.619Z" transform="translate(-32.467 -156.141)" fill="#1e535a"/>
      <path id="Trazado_1279873" data-name="Trazado 1279873" d="M46.285,134.27l-3.172.012A1.583,1.583,0,0,0,41.5,135.9l-3.259.007a.837.837,0,0,1-.864-.84v-3.275c0-.264.3-.783.627-.783l13.41,0a.814.814,0,0,1,.733.714l0,3.438a.829.829,0,0,1-.718.74l-3.367.02a1.676,1.676,0,0,0-1.78-1.648" transform="translate(-32.451 -113.75)" fill="#1e535a"/>
      <path id="Trazado_1279874" data-name="Trazado 1279874" d="M77.487,106.348l.591,1.231-5.533-.006.582-1.247a1.037,1.037,0,0,1,.654-.4l3.03,0a1.067,1.067,0,0,1,.677.426" transform="translate(-62.99 -91.97)" fill="#1e535a"/>
      <rect id="Rectángulo_463078" data-name="Rectángulo 463078" width="3.305" height="1.688" transform="translate(10.655 22.137)" fill="#1e535a"/>
      <rect id="Rectángulo_463079" data-name="Rectángulo 463079" width="3.272" height="3.328" transform="translate(26.269 30.363)" fill="#1e535a"/>
      <rect id="Rectángulo_463080" data-name="Rectángulo 463080" width="3.272" height="3.322" transform="translate(26.269 22.136)" fill="#1e535a"/>
      <rect id="Rectángulo_463081" data-name="Rectángulo 463081" width="3.272" height="3.305" transform="translate(26.269 13.952)" fill="#1e535a"/>
      <rect id="Rectángulo_463082" data-name="Rectángulo 463082" width="3.287" height="3.31" transform="translate(4.925 38.567)" fill="#1e535a"/>
      <rect id="Rectángulo_463083" data-name="Rectángulo 463083" width="3.272" height="3.31" transform="translate(26.269 38.567)" fill="#1e535a"/>
      <path id="Trazado_1279875" data-name="Trazado 1279875" d="M258.4,26.558l-8.24.01a.826.826,0,0,1-.878-.781.815.815,0,0,1,.752-.858l8.3,0a.866.866,0,0,1,.8.744.84.84,0,0,1-.734.888" transform="translate(-216.445 -21.643)" fill="#1e535a"/>
      <path id="Trazado_1279876" data-name="Trazado 1279876" d="M76.432,25.688a.818.818,0,1,1-.818-.818.818.818,0,0,1,.818.818" transform="translate(-64.943 -21.594)" fill="#1e535a"/>
      <path id="Trazado_1279877" data-name="Trazado 1279877" d="M26.577,25.723a.819.819,0,1,1-.819-.819.819.819,0,0,1,.819.819" transform="translate(-21.654 -21.624)" fill="#1e535a"/>
      <path id="Trazado_1279878" data-name="Trazado 1279878" d="M126.31,25.736a.816.816,0,1,1-.816-.816.816.816,0,0,1,.816.816" transform="translate(-108.256 -21.638)" fill="#1e535a"/>
    </g>
  </g>
</svg>
