<svg id="Grupo_1212930" data-name="Grupo 1212930" xmlns="http://www.w3.org/2000/svg" xmlns:xlink="http://www.w3.org/1999/xlink" width="231.346" height="431.023" viewBox="0 0 231.346 431.023">
  <defs>
    <clipPath id="clip-path">
      <rect id="Rectángulo_462545" data-name="Rectángulo 462545" width="231.346" height="431.023" fill="none"/>
    </clipPath>
  </defs>
  <rect id="Rectángulo_462515" data-name="Rectángulo 462515" width="1.679" height="26.129" transform="translate(10.495 124.079)" fill="#504f56"/>
  <rect id="Rectángulo_462516" data-name="Rectángulo 462516" width="1.679" height="48.121" transform="translate(10.495 69.481)" fill="#504f56"/>
  <g id="Grupo_1212929" data-name="Grupo 1212929">
    <g id="Grupo_1212928" data-name="Grupo 1212928" clip-path="url(#clip-path)">
      <path id="Trazado_1278678" data-name="Trazado 1278678" d="M199.078,22.323v337.77a22.364,22.364,0,0,1-12.95,20.232,21.99,21.99,0,0,1-9.374,2.082H35.063a22.065,22.065,0,0,1-9.556-2.156A22.371,22.371,0,0,1,12.74,360.093V22.323A22.107,22.107,0,0,1,17.931,8.061a.273.273,0,0,0,.046-.073c.064-.064.118-.138.183-.211a1.782,1.782,0,0,1,.156-.156A22.216,22.216,0,0,1,35.063,0H176.754a22.272,22.272,0,0,1,16.362,7.182c.01.018.028.028.036.046a.286.286,0,0,0,.046.055,22.176,22.176,0,0,1,5.879,15.041" transform="translate(-0.567 0)" fill="#dddce2"/>
      <path id="Trazado_1278679" data-name="Trazado 1278679" d="M138.613,13.476a.979.979,0,1,1-.978.978.977.977,0,0,1,.978-.978" transform="translate(-6.121 -0.599)" fill="#e4def9"/>
      <path id="Trazado_1278680" data-name="Trazado 1278680" d="M136.315,10.855a1.18,1.18,0,1,1-1.18,1.18,1.178,1.178,0,0,1,1.18-1.18" transform="translate(-6.01 -0.483)" fill="#e4def9"/>
      <path id="Trazado_1278681" data-name="Trazado 1278681" d="M137.485,9.087a3.881,3.881,0,1,1-3.877,3.886,3.882,3.882,0,0,1,3.877-3.886m1.929,5.172a.979.979,0,1,0-.979.978.977.977,0,0,0,.979-.978m-1.987-2.3a1.18,1.18,0,1,0-1.18,1.18,1.179,1.179,0,0,0,1.18-1.18" transform="translate(-5.942 -0.404)" fill="#8365c4"/>
      <path id="Trazado_1278682" data-name="Trazado 1278682" d="M156.293,10.293a2.394,2.394,0,1,1-2.389,2.389,2.4,2.4,0,0,1,2.389-2.389" transform="translate(-6.845 -0.458)" fill="#fff1c5"/>
      <path id="Trazado_1278683" data-name="Trazado 1278683" d="M193.807,371.046v9.731a15.77,15.77,0,0,1-15.72,15.729H33.231a15.745,15.745,0,0,1-13.437-7.594,15.563,15.563,0,0,1-2.284-8.135v-9.731h1.7a7.887,7.887,0,0,0,7.86,7.86h157.64a7.887,7.887,0,0,0,7.86-7.86Z" transform="translate(-0.779 -16.502)" fill="#1e535a"/>
      <path id="Trazado_1278684" data-name="Trazado 1278684" d="M156.729,12.527a2.395,2.395,0,1,0-2.4,2.4,2.4,2.4,0,0,0,2.4-2.4m-16.419.346a3.881,3.881,0,1,0-3.886,3.877,3.881,3.881,0,0,0,3.886-3.877m55.132-1.133a14.827,14.827,0,0,0-1.137-1.559,16.08,16.08,0,0,0-3.577-3.2h-.009c-.816-.009-49.426-.385-58.231,0-8.886.386-9.823,2.541-11.565,4.541-2.164,2.394-5.081,7.245-11.162,7.245v2.761h79.049a7.879,7.879,0,0,1,7.86,7.851v325.47h1.238V20.168a15.574,15.574,0,0,0-2.467-8.429" transform="translate(-4.882 -0.303)" fill="#1e535a"/>
      <path id="Trazado_1278685" data-name="Trazado 1278685" d="M178.423,4.338a15.57,15.57,0,0,1,8.52,2.533c-.815-.01-49.417-.384-58.226,0-8.885.383-9.826,2.543-11.562,4.539-2.169,2.389-5.086,7.245-11.169,7.245s-6.679-2.591-13.156-7.591-11.9-4.136-11.9-4.136H24.952a15.52,15.52,0,0,1,8.607-2.59Zm-68.944,8.05a3.589,3.589,0,1,0-3.589,3.589,3.583,3.583,0,0,0,3.589-3.589" transform="translate(-1.11 -0.193)" fill="#232535"/>
      <path id="Trazado_1278686" data-name="Trazado 1278686" d="M109.49,9.007A3.589,3.589,0,1,1,105.9,12.6a3.583,3.583,0,0,1,3.589-3.589" transform="translate(-4.71 -0.401)" fill="#393b44"/>
      <path id="Trazado_1278687" data-name="Trazado 1278687" d="M192.647,30.062v325.47a7.887,7.887,0,0,1-7.86,7.86H27.147a7.887,7.887,0,0,1-7.86-7.86V30.062a7.879,7.879,0,0,1,7.86-7.851h157.64a7.879,7.879,0,0,1,7.86,7.851" transform="translate(-0.858 -0.988)" fill="#fff7df"/>
      <path id="Trazado_1278688" data-name="Trazado 1278688" d="M105.658,18.773v2.761H27.067a7.88,7.88,0,0,0-7.86,7.851V354.855h-1.7V20.176c0-.542.027-1.073.073-1.605a15.654,15.654,0,0,1,2.742-7.337c.165-.238.331-.467.5-.688a16.063,16.063,0,0,1,2.394-2.467c.441-.357.9-.706,1.386-1.027H80.6s5.429-.871,11.9,4.127,7.08,7.595,13.161,7.595" transform="translate(-0.779 -0.311)" fill="#1e535a"/>
      <path id="Trazado_1278689" data-name="Trazado 1278689" d="M175.335,51.193a1.779,1.779,0,1,1-1.779-1.779,1.78,1.78,0,0,1,1.779,1.779" transform="translate(-7.64 -2.198)"/>
      <path id="Trazado_1278690" data-name="Trazado 1278690" d="M183.16,51.193a1.779,1.779,0,1,1-1.779-1.779,1.78,1.78,0,0,1,1.779,1.779" transform="translate(-7.988 -2.198)"/>
      <path id="Trazado_1278691" data-name="Trazado 1278691" d="M190.984,51.193a1.779,1.779,0,1,1-1.779-1.779,1.78,1.78,0,0,1,1.779,1.779" transform="translate(-8.336 -2.198)"/>
      <path id="Trazado_1278692" data-name="Trazado 1278692" d="M198.809,51.193a1.779,1.779,0,1,1-1.779-1.779,1.78,1.78,0,0,1,1.779,1.779" transform="translate(-8.684 -2.198)"/>
      <path id="Trazado_1278693" data-name="Trazado 1278693" d="M206.633,51.193a1.779,1.779,0,1,1-1.779-1.779,1.78,1.78,0,0,1,1.779,1.779" transform="translate(-9.032 -2.198)"/>
      <path id="Trazado_1278694" data-name="Trazado 1278694" d="M175.335,59.131a1.779,1.779,0,1,1-1.779-1.779,1.78,1.78,0,0,1,1.779,1.779" transform="translate(-7.64 -2.551)"/>
      <path id="Trazado_1278695" data-name="Trazado 1278695" d="M183.16,59.131a1.779,1.779,0,1,1-1.779-1.779,1.78,1.78,0,0,1,1.779,1.779" transform="translate(-7.988 -2.551)"/>
      <path id="Trazado_1278696" data-name="Trazado 1278696" d="M190.984,59.131a1.779,1.779,0,1,1-1.779-1.779,1.78,1.78,0,0,1,1.779,1.779" transform="translate(-8.336 -2.551)"/>
      <path id="Trazado_1278697" data-name="Trazado 1278697" d="M198.809,59.131a1.779,1.779,0,1,1-1.779-1.779,1.78,1.78,0,0,1,1.779,1.779" transform="translate(-8.684 -2.551)"/>
      <path id="Trazado_1278698" data-name="Trazado 1278698" d="M206.633,59.131a1.779,1.779,0,1,1-1.779-1.779,1.78,1.78,0,0,1,1.779,1.779" transform="translate(-9.032 -2.551)"/>
      <path id="Trazado_1278699" data-name="Trazado 1278699" d="M175.335,28.159a1.779,1.779,0,1,1-1.779-1.779,1.78,1.78,0,0,1,1.779,1.779" transform="translate(-7.64 -1.173)"/>
      <path id="Trazado_1278700" data-name="Trazado 1278700" d="M183.16,28.159a1.779,1.779,0,1,1-1.779-1.779,1.78,1.78,0,0,1,1.779,1.779" transform="translate(-7.988 -1.173)"/>
      <path id="Trazado_1278701" data-name="Trazado 1278701" d="M190.984,28.159a1.779,1.779,0,1,1-1.779-1.779,1.78,1.78,0,0,1,1.779,1.779" transform="translate(-8.336 -1.173)"/>
      <path id="Trazado_1278702" data-name="Trazado 1278702" d="M198.809,28.159a1.779,1.779,0,1,1-1.779-1.779,1.78,1.78,0,0,1,1.779,1.779" transform="translate(-8.684 -1.173)"/>
      <path id="Trazado_1278703" data-name="Trazado 1278703" d="M206.633,28.159a1.779,1.779,0,1,1-1.779-1.779,1.78,1.78,0,0,1,1.779,1.779" transform="translate(-9.032 -1.173)"/>
      <path id="Trazado_1278704" data-name="Trazado 1278704" d="M175.335,36.1a1.779,1.779,0,1,1-1.779-1.779,1.78,1.78,0,0,1,1.779,1.779" transform="translate(-7.64 -1.526)"/>
      <path id="Trazado_1278705" data-name="Trazado 1278705" d="M183.16,36.1a1.779,1.779,0,1,1-1.779-1.779A1.78,1.78,0,0,1,183.16,36.1" transform="translate(-7.988 -1.526)"/>
      <path id="Trazado_1278706" data-name="Trazado 1278706" d="M190.984,36.1a1.779,1.779,0,1,1-1.779-1.779,1.78,1.78,0,0,1,1.779,1.779" transform="translate(-8.336 -1.526)"/>
      <path id="Trazado_1278707" data-name="Trazado 1278707" d="M198.809,36.1a1.779,1.779,0,1,1-1.779-1.779,1.78,1.78,0,0,1,1.779,1.779" transform="translate(-8.684 -1.526)"/>
      <path id="Trazado_1278708" data-name="Trazado 1278708" d="M206.633,36.1a1.779,1.779,0,1,1-1.779-1.779,1.78,1.78,0,0,1,1.779,1.779" transform="translate(-9.032 -1.526)"/>
      <path id="Trazado_1278709" data-name="Trazado 1278709" d="M175.335,44.036a1.779,1.779,0,1,1-1.779-1.779,1.78,1.78,0,0,1,1.779,1.779" transform="translate(-7.64 -1.879)"/>
      <path id="Trazado_1278710" data-name="Trazado 1278710" d="M183.16,44.036a1.779,1.779,0,1,1-1.779-1.779,1.78,1.78,0,0,1,1.779,1.779" transform="translate(-7.988 -1.879)"/>
      <path id="Trazado_1278711" data-name="Trazado 1278711" d="M190.984,44.036a1.779,1.779,0,1,1-1.779-1.779,1.78,1.78,0,0,1,1.779,1.779" transform="translate(-8.336 -1.879)"/>
      <path id="Trazado_1278712" data-name="Trazado 1278712" d="M198.809,44.036a1.779,1.779,0,1,1-1.779-1.779,1.78,1.78,0,0,1,1.779,1.779" transform="translate(-8.684 -1.879)"/>
      <path id="Trazado_1278713" data-name="Trazado 1278713" d="M206.633,44.036a1.779,1.779,0,1,1-1.779-1.779,1.78,1.78,0,0,1,1.779,1.779" transform="translate(-9.032 -1.879)"/>
      <path id="Trazado_1278714" data-name="Trazado 1278714" d="M154.624,12.127V37.67a6.8,6.8,0,0,1-6.779,6.779H113.035L94.842,55.6l3.306-11.152h-2.52a6.8,6.8,0,0,1-6.779-6.779V12.127a6.8,6.8,0,0,1,6.779-6.779h52.216a6.8,6.8,0,0,1,6.779,6.779" transform="translate(-3.951 -0.238)" fill="#fdffff"/>
      <path id="Trazado_1278715" data-name="Trazado 1278715" d="M153.441,10.944V36.486a6.8,6.8,0,0,1-6.779,6.78H111.852L93.659,54.418l3.306-11.152H94.446a6.8,6.8,0,0,1-6.78-6.78V10.944a6.8,6.8,0,0,1,6.78-6.779h52.215A6.8,6.8,0,0,1,153.441,10.944Z" transform="translate(-3.899 -0.185)" fill="none" stroke="#000" stroke-miterlimit="10" stroke-width="1"/>
      <path id="Trazado_1278716" data-name="Trazado 1278716" d="M144.794,16.765H97a1.955,1.955,0,1,1,0-3.909h47.793a1.955,1.955,0,1,1,0,3.909" transform="translate(-4.227 -0.572)" fill="#4cccd3"/>
      <path id="Trazado_1278717" data-name="Trazado 1278717" d="M144.794,26.192H97a1.955,1.955,0,1,1,0-3.909h47.793a1.955,1.955,0,1,1,0,3.909" transform="translate(-4.227 -0.991)" fill="#4cccd3"/>
      <path id="Trazado_1278718" data-name="Trazado 1278718" d="M126.825,34.545H97.067a2.042,2.042,0,0,1-2.037-2.036V32.5a2.042,2.042,0,0,1,2.037-2.036h29.758a2.042,2.042,0,0,1,2.036,2.036v.011a2.042,2.042,0,0,1-2.036,2.036" transform="translate(-4.226 -1.355)" fill="#4cccd3"/>
      <rect id="Rectángulo_462517" data-name="Rectángulo 462517" width="56.621" height="56.621" transform="translate(27.147 39.93)" fill="#6cb9ff"/>
      <path id="Trazado_1278719" data-name="Trazado 1278719" d="M50.405,50.2V78.267h-6.5V55.412H38.3V50.2Z" transform="translate(-1.703 -2.233)" fill="#fdffff"/>
      <path id="Trazado_1278720" data-name="Trazado 1278720" d="M76.742,69.686c0,4.732-3.648,9.061-11.628,9.061a19.3,19.3,0,0,1-10.7-3.007l2.526-4.972A13.623,13.623,0,0,0,64.954,73.3c3.247,0,5.253-1.323,5.253-3.609,0-2.125-1.564-3.448-5.253-3.448H61.987v-4.29l5.773-6.536H55.813V50.2H75.458v4.21l-6.335,7.217c5.053.8,7.618,3.929,7.618,8.059" transform="translate(-2.42 -2.233)" fill="#fdffff"/>
      <path id="Trazado_1278721" data-name="Trazado 1278721" d="M45.29,91.145l.99-1.188a1.768,1.768,0,0,0,1.43.847c.715,0,1.088-.429,1.088-1.276V85.864H46.093V84.435H50.57v4.994c0,1.9-.957,2.838-2.772,2.838a3.1,3.1,0,0,1-2.508-1.122" transform="translate(-2.014 -3.755)" fill="#fdffff"/>
      <path id="Trazado_1278722" data-name="Trazado 1278722" d="M52.591,88.747V84.435h1.782v4.246c0,1.463.638,2.068,1.716,2.068s1.716-.6,1.716-2.068V84.435h1.76v4.312a3.189,3.189,0,0,1-3.487,3.52,3.189,3.189,0,0,1-3.488-3.52" transform="translate(-2.339 -3.755)" fill="#fdffff"/>
      <path id="Trazado_1278723" data-name="Trazado 1278723" d="M68.8,84.435v7.7H67.336L63.5,87.46v4.674h-1.76v-7.7h1.474l3.828,4.674V84.435Z" transform="translate(-2.746 -3.755)" fill="#fdffff"/>
      <rect id="Rectángulo_462518" data-name="Rectángulo 462518" width="66.76" height="3.009" transform="translate(88.083 93.541)" fill="#837af9"/>
      <rect id="Rectángulo_462519" data-name="Rectángulo 462519" width="97.12" height="3.009" transform="translate(88.083 86.072)" fill="#837af9"/>
      <rect id="Rectángulo_462520" data-name="Rectángulo 462520" width="97.12" height="3.009" transform="translate(88.083 78.746)" fill="#837af9"/>
      <rect id="Rectángulo_462521" data-name="Rectángulo 462521" width="97.12" height="3.009" transform="translate(88.083 71.276)" fill="#837af9"/>
      <rect id="Rectángulo_462522" data-name="Rectángulo 462522" width="97.12" height="3.009" transform="translate(88.083 64.222)" fill="#837af9"/>
      <path id="Trazado_1278724" data-name="Trazado 1278724" d="M3.558,204.463a1.779,1.779,0,1,1-1.779-1.779,1.78,1.78,0,0,1,1.779,1.779" transform="translate(0 -9.014)"/>
      <path id="Trazado_1278725" data-name="Trazado 1278725" d="M11.382,204.463A1.779,1.779,0,1,1,9.6,202.684a1.78,1.78,0,0,1,1.779,1.779" transform="translate(-0.348 -9.014)"/>
      <path id="Trazado_1278726" data-name="Trazado 1278726" d="M19.206,204.463a1.779,1.779,0,1,1-1.779-1.779,1.78,1.78,0,0,1,1.779,1.779" transform="translate(-0.696 -9.014)"/>
      <path id="Trazado_1278727" data-name="Trazado 1278727" d="M27.031,204.463a1.779,1.779,0,1,1-1.779-1.779,1.78,1.78,0,0,1,1.779,1.779" transform="translate(-1.044 -9.014)"/>
      <path id="Trazado_1278728" data-name="Trazado 1278728" d="M34.855,204.463a1.779,1.779,0,1,1-1.779-1.779,1.78,1.78,0,0,1,1.779,1.779" transform="translate(-1.392 -9.014)"/>
      <path id="Trazado_1278729" data-name="Trazado 1278729" d="M3.558,212.4a1.779,1.779,0,1,1-1.779-1.779A1.78,1.78,0,0,1,3.558,212.4" transform="translate(0 -9.367)"/>
      <path id="Trazado_1278730" data-name="Trazado 1278730" d="M11.382,212.4A1.779,1.779,0,1,1,9.6,210.623a1.78,1.78,0,0,1,1.779,1.779" transform="translate(-0.348 -9.367)"/>
      <path id="Trazado_1278731" data-name="Trazado 1278731" d="M19.206,212.4a1.779,1.779,0,1,1-1.779-1.779,1.78,1.78,0,0,1,1.779,1.779" transform="translate(-0.696 -9.367)"/>
      <path id="Trazado_1278732" data-name="Trazado 1278732" d="M27.031,212.4a1.779,1.779,0,1,1-1.779-1.779,1.78,1.78,0,0,1,1.779,1.779" transform="translate(-1.044 -9.367)"/>
      <path id="Trazado_1278733" data-name="Trazado 1278733" d="M34.855,212.4a1.779,1.779,0,1,1-1.779-1.779,1.78,1.78,0,0,1,1.779,1.779" transform="translate(-1.392 -9.367)"/>
      <path id="Trazado_1278734" data-name="Trazado 1278734" d="M3.558,181.429a1.779,1.779,0,1,1-1.779-1.779,1.78,1.78,0,0,1,1.779,1.779" transform="translate(0 -7.99)"/>
      <path id="Trazado_1278735" data-name="Trazado 1278735" d="M11.382,181.429A1.779,1.779,0,1,1,9.6,179.65a1.78,1.78,0,0,1,1.779,1.779" transform="translate(-0.348 -7.99)"/>
      <path id="Trazado_1278736" data-name="Trazado 1278736" d="M19.206,181.429a1.779,1.779,0,1,1-1.779-1.779,1.78,1.78,0,0,1,1.779,1.779" transform="translate(-0.696 -7.99)"/>
      <path id="Trazado_1278737" data-name="Trazado 1278737" d="M27.031,181.429a1.779,1.779,0,1,1-1.779-1.779,1.78,1.78,0,0,1,1.779,1.779" transform="translate(-1.044 -7.99)"/>
      <path id="Trazado_1278738" data-name="Trazado 1278738" d="M34.855,181.429a1.779,1.779,0,1,1-1.779-1.779,1.78,1.78,0,0,1,1.779,1.779" transform="translate(-1.392 -7.99)"/>
      <path id="Trazado_1278739" data-name="Trazado 1278739" d="M3.558,189.368a1.779,1.779,0,1,1-1.779-1.779,1.78,1.78,0,0,1,1.779,1.779" transform="translate(0 -8.343)"/>
      <path id="Trazado_1278740" data-name="Trazado 1278740" d="M11.382,189.368A1.779,1.779,0,1,1,9.6,187.589a1.78,1.78,0,0,1,1.779,1.779" transform="translate(-0.348 -8.343)"/>
      <path id="Trazado_1278741" data-name="Trazado 1278741" d="M19.206,189.368a1.779,1.779,0,1,1-1.779-1.779,1.78,1.78,0,0,1,1.779,1.779" transform="translate(-0.696 -8.343)"/>
      <path id="Trazado_1278742" data-name="Trazado 1278742" d="M27.031,189.368a1.779,1.779,0,1,1-1.779-1.779,1.78,1.78,0,0,1,1.779,1.779" transform="translate(-1.044 -8.343)"/>
      <path id="Trazado_1278743" data-name="Trazado 1278743" d="M34.855,189.368a1.779,1.779,0,1,1-1.779-1.779,1.78,1.78,0,0,1,1.779,1.779" transform="translate(-1.392 -8.343)"/>
      <path id="Trazado_1278744" data-name="Trazado 1278744" d="M3.558,197.306a1.779,1.779,0,1,1-1.779-1.779,1.78,1.78,0,0,1,1.779,1.779" transform="translate(0 -8.696)"/>
      <path id="Trazado_1278745" data-name="Trazado 1278745" d="M11.382,197.306A1.779,1.779,0,1,1,9.6,195.527a1.78,1.78,0,0,1,1.779,1.779" transform="translate(-0.348 -8.696)"/>
      <path id="Trazado_1278746" data-name="Trazado 1278746" d="M19.206,197.306a1.779,1.779,0,1,1-1.779-1.779,1.78,1.78,0,0,1,1.779,1.779" transform="translate(-0.696 -8.696)"/>
      <path id="Trazado_1278747" data-name="Trazado 1278747" d="M27.031,197.306a1.779,1.779,0,1,1-1.779-1.779,1.78,1.78,0,0,1,1.779,1.779" transform="translate(-1.044 -8.696)"/>
      <path id="Trazado_1278748" data-name="Trazado 1278748" d="M34.855,197.306a1.779,1.779,0,1,1-1.779-1.779,1.78,1.78,0,0,1,1.779,1.779" transform="translate(-1.392 -8.696)"/>
      <line id="Línea_3375" data-name="Línea 3375" x2="156.661" transform="translate(25.987 234.467)" fill="none" stroke="#000" stroke-miterlimit="10" stroke-width="1"/>
      <path id="Trazado_1278749" data-name="Trazado 1278749" d="M170.988,285.912H39.977a13.807,13.807,0,0,1,0-27.614h131.01a13.807,13.807,0,0,1,0,27.614" transform="translate(-1.164 -11.488)" fill="#4cccd3"/>
      <path id="Trazado_1278750" data-name="Trazado 1278750" d="M170.988,317.606H39.977a13.807,13.807,0,0,1,0-27.614h131.01a13.807,13.807,0,0,1,0,27.614" transform="translate(-1.164 -12.897)" fill="#ffd453"/>
      <path id="Trazado_1278751" data-name="Trazado 1278751" d="M170.988,350.6H39.977a13.807,13.807,0,0,1,0-27.614h131.01a13.807,13.807,0,0,1,0,27.614" transform="translate(-1.164 -14.364)" fill="#344866"/>
      <path id="Trazado_1278752" data-name="Trazado 1278752" d="M42.288,283.615a11.4,11.4,0,1,1,11.4-11.4,11.411,11.411,0,0,1-11.4,11.4m0-20.423a9.025,9.025,0,1,0,9.026,9.026,9.036,9.036,0,0,0-9.026-9.026" transform="translate(-1.374 -11.6)" fill="#fdffff"/>
      <path id="Trazado_1278753" data-name="Trazado 1278753" d="M41.577,273.9V265.83h2.372v5.152l3.956-.818.481,2.323Z" transform="translate(-1.849 -11.823)" fill="#fdffff"/>
      <path id="Trazado_1278754" data-name="Trazado 1278754" d="M42.288,315.1a11.4,11.4,0,1,1,11.4-11.4,11.411,11.411,0,0,1-11.4,11.4m0-20.423a9.025,9.025,0,1,0,9.026,9.026,9.036,9.036,0,0,0-9.026-9.026" transform="translate(-1.374 -13)" fill="#fdffff"/>
      <path id="Trazado_1278755" data-name="Trazado 1278755" d="M40.453,308.272l-1.8-1.542,2.795-3.262v-6.517h2.372v7.395Z" transform="translate(-1.719 -13.207)" fill="#fdffff"/>
      <path id="Trazado_1278756" data-name="Trazado 1278756" d="M41.047,348.3a11.4,11.4,0,1,1,11.4-11.4,11.411,11.411,0,0,1-11.4,11.4m0-20.423a9.025,9.025,0,1,0,9.026,9.026,9.036,9.036,0,0,0-9.026-9.026" transform="translate(-1.319 -14.477)" fill="#fdffff"/>
      <path id="Trazado_1278757" data-name="Trazado 1278757" d="M40.108,341.788l-2.071-1.156,1.834-3.287-3.922-4.23,1.739-1.612L42.782,337Z" transform="translate(-1.599 -14.743)" fill="#fdffff"/>
      <rect id="Rectángulo_462523" data-name="Rectángulo 462523" width="24.995" height="23.072" transform="translate(24.249 111.701)" fill="#837af9"/>
      <rect id="Rectángulo_462524" data-name="Rectángulo 462524" width="24.995" height="23.072" transform="translate(54.157 111.701)" fill="#e1fffe"/>
      <rect id="Rectángulo_462525" data-name="Rectángulo 462525" width="24.995" height="23.072" transform="translate(84.288 111.701)" fill="#4cccd3"/>
      <rect id="Rectángulo_462526" data-name="Rectángulo 462526" width="24.995" height="23.072" transform="translate(114.196 111.701)" fill="#e1fffe"/>
      <rect id="Rectángulo_462527" data-name="Rectángulo 462527" width="24.995" height="23.072" transform="translate(23.842 141.142)" fill="#837af9"/>
      <rect id="Rectángulo_462528" data-name="Rectángulo 462528" width="24.995" height="23.072" transform="translate(53.751 141.142)" fill="#e1fffe"/>
      <rect id="Rectángulo_462529" data-name="Rectángulo 462529" width="24.995" height="23.072" transform="translate(83.882 141.142)" fill="#e1fffe"/>
      <rect id="Rectángulo_462530" data-name="Rectángulo 462530" width="24.995" height="23.072" transform="translate(24.7 170.583)" fill="#4cccd3"/>
      <rect id="Rectángulo_462531" data-name="Rectángulo 462531" width="24.995" height="23.072" transform="translate(54.608 170.583)" fill="#e1fffe"/>
      <rect id="Rectángulo_462532" data-name="Rectángulo 462532" width="24.995" height="23.072" transform="translate(84.739 170.583)" fill="#4cccd3"/>
      <rect id="Rectángulo_462533" data-name="Rectángulo 462533" width="24.995" height="23.072" transform="translate(114.647 170.583)" fill="#e1fffe"/>
      <rect id="Rectángulo_462534" data-name="Rectángulo 462534" width="24.995" height="23.072" transform="translate(24.7 200.024)" fill="#e1fffe"/>
      <rect id="Rectángulo_462535" data-name="Rectángulo 462535" width="24.995" height="23.072" transform="translate(54.608 200.024)" fill="#e1fffe"/>
      <rect id="Rectángulo_462536" data-name="Rectángulo 462536" width="24.995" height="23.072" transform="translate(84.739 200.024)" fill="#e1fffe"/>
      <rect id="Rectángulo_462537" data-name="Rectángulo 462537" width="24.995" height="23.072" transform="translate(114.647 200.024)" fill="#e1fffe"/>
      <path id="Trazado_1278758" data-name="Trazado 1278758" d="M74.9,137.705H58.068A4.513,4.513,0,0,1,53.56,133.2V118.29a4.513,4.513,0,0,1,4.508-4.508H74.9a4.513,4.513,0,0,1,4.508,4.508V133.2a4.513,4.513,0,0,1-4.508,4.508m-16.83-23.072a3.661,3.661,0,0,0-3.658,3.657V133.2a3.661,3.661,0,0,0,3.658,3.657H74.9a3.661,3.661,0,0,0,3.657-3.657V118.29a3.661,3.661,0,0,0-3.657-3.657Z" transform="translate(-2.382 -5.06)" fill="#837af9"/>
      <path id="Trazado_1278759" data-name="Trazado 1278759" d="M106.006,168.516H89.174a4.512,4.512,0,0,1-4.507-4.507V149.1a4.512,4.512,0,0,1,4.507-4.508h16.832a4.512,4.512,0,0,1,4.507,4.508v14.908a4.512,4.512,0,0,1-4.507,4.507M89.174,145.444a3.661,3.661,0,0,0-3.657,3.657v14.908a3.66,3.66,0,0,0,3.657,3.656h16.832a3.66,3.66,0,0,0,3.656-3.656V149.1a3.66,3.66,0,0,0-3.656-3.657Z" transform="translate(-3.765 -6.431)" fill="#837af9"/>
      <path id="Trazado_1278760" data-name="Trazado 1278760" d="M75.37,230.139H58.539a4.512,4.512,0,0,1-4.507-4.507V210.724a4.512,4.512,0,0,1,4.507-4.508H75.37a4.513,4.513,0,0,1,4.508,4.508v14.908a4.513,4.513,0,0,1-4.508,4.507M58.539,207.067a3.661,3.661,0,0,0-3.657,3.657v14.908a3.66,3.66,0,0,0,3.657,3.656H75.37a3.66,3.66,0,0,0,3.657-3.656V210.724a3.661,3.661,0,0,0-3.657-3.657Z" transform="translate(-2.403 -9.171)" fill="#837af9"/>
      <path id="Trazado_1278761" data-name="Trazado 1278761" d="M67.667,167.123l-9.232-9.413,3.038-2.98,5.932,6.048,8.582-10.334,3.275,2.719Z" transform="translate(-2.599 -6.691)" fill="#837af9"/>
      <path id="Trazado_1278762" data-name="Trazado 1278762" d="M101.806,229.359l-9.232-9.413,3.038-2.98,5.932,6.048,8.582-10.334L113.4,215.4Z" transform="translate(-4.117 -9.459)" fill="#837af9"/>
      <rect id="Rectángulo_462538" data-name="Rectángulo 462538" width="24.995" height="23.072" transform="translate(142.347 111.701)" fill="#837af9"/>
      <rect id="Rectángulo_462539" data-name="Rectángulo 462539" width="24.995" height="23.072" transform="translate(172.255 111.701)" fill="#e1fffe"/>
      <rect id="Rectángulo_462540" data-name="Rectángulo 462540" width="52.287" height="52.514" transform="translate(114.647 141.142)" fill="#ffb3b3"/>
      <rect id="Rectángulo_462541" data-name="Rectángulo 462541" width="24.995" height="23.072" transform="translate(171.848 141.142)" fill="#e1fffe"/>
      <rect id="Rectángulo_462542" data-name="Rectángulo 462542" width="24.995" height="23.072" transform="translate(172.706 170.583)" fill="#e1fffe"/>
      <rect id="Rectángulo_462543" data-name="Rectángulo 462543" width="24.995" height="23.072" transform="translate(142.797 200.024)" fill="#e1fffe"/>
      <rect id="Rectángulo_462544" data-name="Rectángulo 462544" width="24.995" height="23.072" transform="translate(172.706 200.024)" fill="#e1fffe"/>
      <path id="Trazado_1278763" data-name="Trazado 1278763" d="M198.492,137.705H181.661a4.512,4.512,0,0,1-4.507-4.508V118.29a4.512,4.512,0,0,1,4.507-4.508h16.831A4.513,4.513,0,0,1,203,118.29V133.2a4.513,4.513,0,0,1-4.508,4.508m-16.831-23.072A3.661,3.661,0,0,0,178,118.29V133.2a3.661,3.661,0,0,0,3.657,3.657h16.831a3.661,3.661,0,0,0,3.657-3.657V118.29a3.661,3.661,0,0,0-3.657-3.657Z" transform="translate(-7.879 -5.06)" fill="#837af9"/>
      <path id="Trazado_1278764" data-name="Trazado 1278764" d="M198.964,230.139H182.133a4.512,4.512,0,0,1-4.507-4.507V210.724a4.512,4.512,0,0,1,4.507-4.508h16.831a4.513,4.513,0,0,1,4.508,4.508v14.908a4.513,4.513,0,0,1-4.508,4.507m-16.831-23.072a3.661,3.661,0,0,0-3.657,3.657v14.908a3.66,3.66,0,0,0,3.657,3.656h16.831a3.66,3.66,0,0,0,3.657-3.656V210.724a3.661,3.661,0,0,0-3.657-3.657Z" transform="translate(-7.9 -9.171)" fill="#837af9"/>
      <path id="Trazado_1278765" data-name="Trazado 1278765" d="M191.261,167.123l-9.232-9.413,3.038-2.98L191,160.778l8.582-10.334,3.275,2.719Z" transform="translate(-8.096 -6.691)" fill="#837af9"/>
      <path id="Trazado_1278766" data-name="Trazado 1278766" d="M162.744,184.542a3.163,3.163,0,0,1-3.164,3.155H134.927a3.159,3.159,0,1,1,0-6.319h1.083V171.171a11.039,11.039,0,0,1,11.006-11.007h.431a11.039,11.039,0,0,1,11.006,11.007v10.208h1.128a3.17,3.17,0,0,1,3.164,3.164" transform="translate(-5.86 -7.123)" fill="#e1fffe"/>
      <path id="Trazado_1278767" data-name="Trazado 1278767" d="M154.713,190.58a8.153,8.153,0,0,1-6.909,3.968h-.322a8.134,8.134,0,0,1-6.9-3.968Z" transform="translate(-6.252 -8.476)" fill="#e1fffe"/>
      <path id="Trazado_1278768" data-name="Trazado 1278768" d="M150.414,156.111a2.558,2.558,0,1,1-2.559-2.559,2.558,2.558,0,0,1,2.559,2.559" transform="translate(-6.462 -6.829)" fill="#e1fffe"/>
      <path id="Trazado_1278769" data-name="Trazado 1278769" d="M137.388,156.721a14.079,14.079,0,0,0-6.829,12.322c.014.591.927.508.913-.08a13.17,13.17,0,0,1,6.446-11.494c.508-.3-.023-1.045-.529-.748" transform="translate(-5.806 -6.967)" fill="#e1fffe"/>
      <path id="Trazado_1278770" data-name="Trazado 1278770" d="M130.418,156.559a10.957,10.957,0,0,0-3.942,6.741.459.459,0,0,0,.9.165,10,10,0,0,1,3.57-6.158c.458-.368-.069-1.12-.53-.748" transform="translate(-5.625 -6.958)" fill="#e1fffe"/>
      <path id="Trazado_1278771" data-name="Trazado 1278771" d="M158.4,156.473c-.507-.3-.9.529-.392.829,4.03,2.4,5.285,7.271,5.514,11.654.031.59.944.508.913-.08-.248-4.75-1.7-9.822-6.036-12.4" transform="translate(-7.017 -6.956)" fill="#e1fffe"/>
      <path id="Trazado_1278772" data-name="Trazado 1278772" d="M164.3,156.6c-.436-.4-1.023.3-.59.7a7.047,7.047,0,0,1,2.241,4.676.459.459,0,0,0,.913-.08,8,8,0,0,0-2.565-5.3" transform="translate(-7.274 -6.959)" fill="#e1fffe"/>
      <path id="Trazado_1278773" data-name="Trazado 1278773" d="M134.181,195.88c-1.565-.452-2.17-2.256-2.641-3.626-.191-.557-1.051-.239-.859.32a10.078,10.078,0,0,0,1.2,2.632,4,4,0,0,0,2.134,1.577.461.461,0,0,0,.533-.368.468.468,0,0,0-.368-.534" transform="translate(-5.811 -8.537)" fill="#e1fffe"/>
      <path id="Trazado_1278774" data-name="Trazado 1278774" d="M130.678,197.41c-.123-.059-.243-.124-.359-.195l-.014-.008-.012-.009-.076-.053c-.056-.039-.111-.08-.164-.122q-.153-.12-.3-.255c-.045-.044-.088-.089-.132-.134l-.02-.022c-.025-.028-.049-.056-.073-.085a4.032,4.032,0,0,1-.443-.654l-.01-.017-.04-.084c-.032-.067-.061-.135-.089-.2a3.92,3.92,0,0,1-.131-.387.461.461,0,0,0-.59-.27.47.47,0,0,0-.269.591,4.419,4.419,0,0,0,2.327,2.738.459.459,0,1,0,.392-.829" transform="translate(-5.69 -8.667)" fill="#e1fffe"/>
      <path id="Trazado_1278775" data-name="Trazado 1278775" d="M161.363,191.664a12.623,12.623,0,0,1-3.377,4.013c-.464.361.063,1.113.53.749a13.709,13.709,0,0,0,3.675-4.371c.279-.522-.552-.912-.828-.392" transform="translate(-7.018 -8.513)" fill="#e1fffe"/>
      <path id="Trazado_1278776" data-name="Trazado 1278776" d="M164.251,194.409a.469.469,0,0,0-.611.219c-.053.1-.106.193-.162.288-.028.048-.056.095-.085.142-.013.02-.027.041-.039.062l0,0,0,.007c-.122.183-.249.364-.384.538a8.206,8.206,0,0,1-.894.973.458.458,0,0,0-.106.334.459.459,0,0,0,.808.255,8.5,8.5,0,0,0,1.7-2.21.463.463,0,0,0-.219-.611" transform="translate(-7.203 -8.644)" fill="#e1fffe"/>
      <path id="Trazado_1278777" data-name="Trazado 1278777" d="M142.3,81.058c.724,4.705-1.953,9.41-5.264,12.895-2.11,2.22-4.523,4.174-6.439,6.567l-9.813,4.2.871-3.953c6.631-.468,14.812-11.474,14.812-11.474-5.447,3.807-9.96,5.8-13.675,6.328-8.373,1.211-12.757-4.888-15.013-13.977-2.486-10.061.339-20.352,1.788-24.607a14.117,14.117,0,0,0,1.11.981c.742.587,1.925,1.045,2.5.312a1.609,1.609,0,0,0,.266-.742,5.736,5.736,0,0,0-.256-2.89,15.593,15.593,0,0,0,8.282,7.044,2.234,2.234,0,0,0,2.018.009,2.181,2.181,0,0,0,.715-1.532,13.468,13.468,0,0,0,.074-3.595,22.054,22.054,0,0,0,4.934,4.31,9.142,9.142,0,0,0,5.558,1.339c1.091,2.367,3.54,5.43,9.089,7.136,0,0,2.485-3.632,5.6-1.532,3.036,2.046-.367,13.409-7.163,13.18" transform="translate(-4.749 -2.433)" fill="#ffb3b3"/>
      <path id="Trazado_1278778" data-name="Trazado 1278778" d="M74.664,102.5l-16.05-.908H53.945l.147-10.575V73.166l20.1,1.019V87.612Z" transform="translate(-2.399 -3.254)" fill="#837af9"/>
      <path id="Trazado_1278779" data-name="Trazado 1278779" d="M58.1,103.58l-6.264,2.467-14.408,6.979-4.622-9.548-7.7-15.9L47.16,78.964l5.5,12.372,4.669,10.511Z" transform="translate(-1.116 -3.512)" fill="#4cccd3"/>
      <path id="Trazado_1278780" data-name="Trazado 1278780" d="M212.3,398.931l-5.659,2.6-9.695-13.2,6.631-.826,25.817-3.21,4.394-.55,1.532,4.586-6.566,3.026Z" transform="translate(-8.759 -17.067)" fill="#b0e2e0"/>
      <path id="Trazado_1278781" data-name="Trazado 1278781" d="M130.046,417.395l-7.823.633-1.99-10.7,4.494-1.22,24.772-6.7,5.916-1.6v17.554l-7.658.614Z" transform="translate(-5.347 -17.692)" fill="#b0e2e0"/>
      <path id="Trazado_1278782" data-name="Trazado 1278782" d="M124.181,82.294s2.293,5.108-3.063,6.787-6.759-3.66-6.759-3.66Z" transform="translate(-5.086 -3.66)" fill="#fff"/>
      <path id="Trazado_1278783" data-name="Trazado 1278783" d="M125.051,68.626c1.128,0,2.036,1.2,2.036,2.678s-.908,2.677-2.036,2.677-2.036-1.2-2.036-2.677.908-2.678,2.036-2.678" transform="translate(-5.471 -3.052)"/>
      <path id="Trazado_1278784" data-name="Trazado 1278784" d="M111.374,67.186c1.128,0,2.045,1.2,2.045,2.679s-.916,2.677-2.045,2.677-2.036-1.2-2.036-2.677.908-2.679,2.036-2.679" transform="translate(-4.863 -2.988)"/>
      <path id="Trazado_1278785" data-name="Trazado 1278785" d="M132.427,74.232a3.614,3.614,0,1,1-3.614,3.614,3.615,3.615,0,0,1,3.614-3.614" transform="translate(-5.729 -3.301)" fill="#ef7b7b"/>
      <path id="Trazado_1278786" data-name="Trazado 1278786" d="M116.477,70.987l1.018,7.622s-6.438.559-7.181-1.082,5.182-3.925,6.163-6.541" transform="translate(-4.903 -3.157)" fill="#ef7b7b"/>
      <path id="Trazado_1278787" data-name="Trazado 1278787" d="M137.156,90.9s-8.181,11.006-14.812,11.474l1.137-5.146c3.714-.532,8.227-2.523,13.675-6.328" transform="translate(-5.441 -4.043)"/>
      <path id="Trazado_1278788" data-name="Trazado 1278788" d="M168.153,186.994A107.032,107.032,0,0,1,179.131,200.3q-32.44,4.981-65.109,8.273c0-2.825,0-5.539.01-8.108q27.061-6.741,54.121-13.473" transform="translate(-5.071 -8.316)" fill="#ffe79e"/>
      <path id="Trazado_1278789" data-name="Trazado 1278789" d="M164.425,164.793c-1.458,5.677-2.632,10.584-3.191,12.941q-23.539,2.752-47.087,5.485c.019-1.8.037-3.439.065-4.916q25.257-6.2,50.214-13.509" transform="translate(-5.077 -7.329)" fill="#ffe79e"/>
      <path id="Trazado_1278790" data-name="Trazado 1278790" d="M171.076,137.082a38.154,38.154,0,0,1-1.522,6.365c-.89,2.678-1.807,5.724-2.706,8.86q-30.28,4.445-60.642,8.347l-.4.321a56.452,56.452,0,0,1-5.64-8.713l7.915,6.687,9.108-9.777q26.771-6.782,53.892-12.088" transform="translate(-4.455 -6.097)" fill="#ffe79e"/>
      <path id="Trazado_1278791" data-name="Trazado 1278791" d="M174.348,130.444c-3.164.018-6.339.036-9.5.064a12.321,12.321,0,0,0,4.044-3.247,18.166,18.166,0,0,0,3.3-8.07l.239.046a32.471,32.471,0,0,1,1.918,11.207" transform="translate(-7.331 -5.301)"/>
      <path id="Trazado_1278792" data-name="Trazado 1278792" d="M144.423,129.345l-55.892.247-.944.66-.844-1.064s2.485-2.632,5.86-6.017q18.477-3.178,37.08-5.595a10.1,10.1,0,0,0,1.294,1.045,14.478,14.478,0,0,0,6.576,2.339,7.874,7.874,0,0,0,1.935,4.705,15.424,15.424,0,0,0,4.42,3.4c.165.092.34.183.514.275" transform="translate(-3.858 -5.229)" fill="#ffe79e"/>
      <path id="Trazado_1278793" data-name="Trazado 1278793" d="M117.185,149.526l-9.108,9.777-7.916-6.686c1.954-1.138,3.192-1.954,3.192-1.954l3.137,3.971,14.838-9.556Z" transform="translate(-4.455 -6.452)" fill="#644602"/>
      <path id="Trazado_1278794" data-name="Trazado 1278794" d="M229.464,391.719,217.294,406.65l-4.284-7.364Z" transform="translate(-9.473 -17.421)"/>
      <path id="Trazado_1278795" data-name="Trazado 1278795" d="M148.213,416.819,130.5,425.375V418.24Z" transform="translate(-5.804 -18.538)"/>
      <path id="Trazado_1278796" data-name="Trazado 1278796" d="M176.1,248.2l-17.921,19.1,1.861-10.172Z" transform="translate(-7.035 -11.039)"/>
      <path id="Trazado_1278797" data-name="Trazado 1278797" d="M229.664,391.719l6.566,19.5s-8.63.468-13.473,4.485l-5.264-9.053Z" transform="translate(-9.673 -17.421)" fill="#ffb3b3"/>
      <path id="Trazado_1278798" data-name="Trazado 1278798" d="M148.213,427.8s.734,6.319-5.98,6.145a19.6,19.6,0,0,1-11.731-4.613v-3.953l17.711-8.557Z" transform="translate(-5.804 -18.538)" fill="#ffb3b3"/>
      <path id="Trazado_1278799" data-name="Trazado 1278799" d="M74.853,88.044v-5.1c5.017-.394,13.216,1.532,13.216,1.532L92.83,95.95l12.262,13.555a127.92,127.92,0,0,0-11.18,10.034l-5.164-11.776C77.614,104.571,76.339,96.2,76.339,96.2a17.979,17.979,0,0,1-1.468-1.1v-.009c-3.568-2.981-7.8-8.448-5.5-8.741,1.1-.146,3.3.688,5.485,1.7" transform="translate(-3.056 -3.687)" fill="#ffb3b3"/>
      <path id="Trazado_1278800" data-name="Trazado 1278800" d="M85.027,129.452l15.17,19.187s-1.238.816-3.191,1.953c-4.715,2.742-13.584,7.328-19.114,6.6-7.813-1.018-28.294-30-28.294-30s-15.472-3.779-18.508-5.439-.917-6.971-.917-6.971c-2.256-3.054.046-6.456.046-6.456-.468-2.844,2.77-3.935,2.77-3.935l4.622,9.548,8.584-4.356c-2-7.016-2.5-12.556-.082-8.814a35.874,35.874,0,0,0,5.906,6.191c2.082,1.861,4.109,3.577,5.228,4.851,2.33,2.678,1.358,8.466,1.358,8.466l18.013,14.564Z" transform="translate(-1.298 -4.428)" fill="#ffb3b3"/>
      <path id="Trazado_1278801" data-name="Trazado 1278801" d="M235.482,412.125s5.485,9.6,4.715,16.151c-1.523-9.015-15.042-5.017-17.848,2.21s-9.685,14.61-9.685,14.61h-11.73c-2.21-15.16,11.052-13.427,11.052-13.427l10.024-15.059c4.843-4.017,13.473-4.485,13.473-4.485" transform="translate(-8.925 -18.329)"/>
      <path id="Trazado_1278802" data-name="Trazado 1278802" d="M240.755,428.786c-.762,6.54-9.346,16.821-9.346,16.821H213.222s6.887-7.393,9.684-14.611,16.326-11.226,17.848-2.21" transform="translate(-9.483 -18.839)" fill="#4cccd3"/>
      <path id="Trazado_1278803" data-name="Trazado 1278803" d="M156.2,265.391l-11.638,63.495s7.649,29.12,4.659,61.945l-24.772,6.7c-8.356-50.838-10.19-127.641-10.41-177.4h.3s40.465,4.549,67.3-15.216h.01c8.309,13.244,14.812,31.028,9.566,50.8l13.766,62.21s17.72,33.017,20.655,57.872l.064.55-25.817,3.21Zm.01-.018,17.921-19.1-16.06,8.924Z" transform="translate(-5.072 -9.113)" fill="#6cb9ff"/>
      <path id="Trazado_1278804" data-name="Trazado 1278804" d="M181.653,204.736h-.01c-26.836,19.765-67.3,15.216-67.3,15.216h-.3c-.009-3.751-.018-7.347-.018-10.758q32.66-3.3,65.109-8.273c.853,1.229,1.7,2.495,2.523,3.815" transform="translate(-5.071 -8.936)" fill="#ffb851"/>
      <path id="Trazado_1278805" data-name="Trazado 1278805" d="M109.473,56.1A15.921,15.921,0,0,1,105.2,41.089a7.749,7.749,0,0,1,1.789-3.531,7.093,7.093,0,0,1,4.522-1.889,24.714,24.714,0,0,1,5,.312,40.305,40.305,0,0,0,14.757-.569c2.972-.762,5.943-2.054,8.988-1.66a9.591,9.591,0,0,1,5.971,3.375,13.391,13.391,0,0,1,2.77,5.888,10.141,10.141,0,0,1,11.06,4.962c2.954,5.576.074,12.592,1.816,18.655,1.137,3.953,4.109,7.09,7.208,9.8s6.448,5.21,8.786,8.594c3.99,5.787,4.366,13.7,1.5,20.113a18.655,18.655,0,0,1-6.246,7.8,14.6,14.6,0,0,1-3.476,1.761c-.046.229-.082.467-.128.7a18.156,18.156,0,0,1-3.3,8.071,12.321,12.321,0,0,1-4.044,3.247,15.124,15.124,0,0,1-6.256,1.6,21.419,21.419,0,0,1-10.693-2.688c-.175-.092-.349-.183-.514-.275a15.391,15.391,0,0,1-4.42-3.4,7.876,7.876,0,0,1-1.936-4.705,14.485,14.485,0,0,1-6.576-2.338,10.026,10.026,0,0,1-1.293-1.045,9.472,9.472,0,0,1-3.018-5.824c-.312-3.055,1.119-6.045,3.036-8.438s4.329-4.348,6.438-6.566c3.311-3.486,5.989-8.191,5.265-12.9,6.8.229,10.2-11.134,7.163-13.18-3.118-2.1-5.6,1.532-5.6,1.532-5.549-1.706-8-4.769-9.089-7.135A9.147,9.147,0,0,1,129.118,60a22.053,22.053,0,0,1-4.934-4.31,13.477,13.477,0,0,1-.074,3.6,2.182,2.182,0,0,1-.716,1.532,2.232,2.232,0,0,1-2.017-.01,15.587,15.587,0,0,1-8.282-7.044,5.726,5.726,0,0,1,.257,2.89,1.6,1.6,0,0,1-.266.742c-.578.734-1.761.275-2.5-.312a14.08,14.08,0,0,1-1.109-.981" transform="translate(-4.658 -1.498)"/>
      <path id="Trazado_1278806" data-name="Trazado 1278806" d="M170.913,130.92a37.956,37.956,0,0,1-.4,5.842q-27.1,5.31-53.891,12.088l4.145-4.448-14.839,9.556-3.136-3.971L87.627,130.8l.944-.66,55.891-.247a21.424,21.424,0,0,0,10.694,2.687,15.117,15.117,0,0,0,6.256-1.6c3.163-.028,6.338-.046,9.5-.064" transform="translate(-3.897 -5.777)" fill="#ffb851"/>
      <path id="Trazado_1278807" data-name="Trazado 1278807" d="M168.153,186.609q-27.06,6.741-54.121,13.473c.028-6.273.064-11.758.11-16.261q23.552-2.723,47.086-5.485c-.22.954-.349,1.486-.349,1.486a83.245,83.245,0,0,1,7.273,6.787" transform="translate(-5.071 -7.931)" fill="#ffb851"/>
      <path id="Trazado_1278808" data-name="Trazado 1278808" d="M167.111,153.016c-1.073,3.76-2.118,7.667-3.045,11.253q-24.942,7.32-50.214,13.51c.074-5.705.138-8.9.138-8.9a27.967,27.967,0,0,1-7.924-7.2l.4-.32q30.363-3.907,60.642-8.347" transform="translate(-4.717 -6.805)" fill="#ffb851"/>
      <path id="Trazado_1278809" data-name="Trazado 1278809" d="M147.184,428.3l2.348,21.764H127.943l-20.563-10.2c1.789-12.07,14.105-11.813,16.977-11.731a10.233,10.233,0,0,1,5.117,1.7,19.6,19.6,0,0,0,11.731,4.613c6.714.174,5.98-6.145,5.98-6.145" transform="translate(-4.776 -19.04)"/>
      <path id="Trazado_1278810" data-name="Trazado 1278810" d="M120.162,106.853l9.813-4.2c-1.917,2.394-3.347,5.383-3.036,8.437a9.472,9.472,0,0,0,3.018,5.824q-18.6,2.408-37.08,5.6c.669-.679,1.375-1.376,2.109-2.092a128.218,128.218,0,0,1,11.181-10.034c.339-.266.669-.5.99-.724,6.952-4.843,13.006-2.806,13.006-2.806" transform="translate(-4.131 -4.565)" fill="#ffb851"/>
      <path id="Trazado_1278811" data-name="Trazado 1278811" d="M113.91,63.017a1.4,1.4,0,0,0-1.491-1.251,20.529,20.529,0,0,0-3.816.767,1.376,1.376,0,0,0-.109,2.534,1.513,1.513,0,0,0,1.068.046c.37-.111.744-.205,1.12-.294a18.693,18.693,0,0,1,1.977-.312,1.429,1.429,0,0,0,.935-.486,1.4,1.4,0,0,0,.316-1" transform="translate(-4.79 -2.747)"/>
      <path id="Trazado_1278812" data-name="Trazado 1278812" d="M128.971,64.067a1.333,1.333,0,0,0-.7-.763,15.323,15.323,0,0,0-5.355-.853,1.383,1.383,0,0,0-1.251,1.491,1.408,1.408,0,0,0,1.491,1.251c.256-.006.511,0,.767.01a13.519,13.519,0,0,1,3.17.59h0a1.5,1.5,0,0,0,1.068.046,1.408,1.408,0,0,0,.763-.7,1.387,1.387,0,0,0,.046-1.068" transform="translate(-5.41 -2.777)"/>
      <path id="Trazado_1278813" data-name="Trazado 1278813" d="M148.7,70.091a5.284,5.284,0,0,0-2.057,1.43,8.061,8.061,0,0,0-2.216,4.157c-.251,1.3-.246,3.32,1.326,3.784,1.662.49,3.122-1.281,3.588-2.668.257-.765.426-1.949-.537-2.3-.907-.329-1.8.769-2.164,1.456-.281.521.55.911.828.392a2.343,2.343,0,0,1,.727-.837c.128-.088.244-.2.376-.086s.059.437.033.586a3.725,3.725,0,0,1-.865,1.777c-.412.475-1.158,1.06-1.827.766a1.5,1.5,0,0,1-.691-1.332,6.45,6.45,0,0,1,.987-3.665,7.143,7.143,0,0,1,1.18-1.485,6.682,6.682,0,0,1,.784-.647c.138-.1.277-.192.422-.277A1.927,1.927,0,0,1,148.87,71a.223.223,0,0,0,.094-.011c-.157.455.578.765.862.3.452-.741-.452-1.377-1.13-1.193" transform="translate(-6.418 -3.116)" fill="#ef7b7b"/>
      <path id="Trazado_1278814" data-name="Trazado 1278814" d="M80.92,90.143l-5.058-2.505a.459.459,0,0,0-.393.828l5.059,2.506a.459.459,0,0,0,.392-.829" transform="translate(-3.345 -3.895)"/>
      <path id="Trazado_1278815" data-name="Trazado 1278815" d="M47.383,109.941a.46.46,0,0,0-.59-.27.474.474,0,0,0-.27.591c.1.4.183.854.247,1.3q.1.688.134,1.384a.461.461,0,0,0,.5.417.469.469,0,0,0,.418-.5,15.877,15.877,0,0,0-.435-2.921" transform="translate(-2.068 -4.876)"/>
      <path id="Trazado_1278816" data-name="Trazado 1278816" d="M78.825,136.32l2.553,2.808,3.062-6.409Z" transform="translate(-3.506 -5.903)"/>
      <path id="Trazado_1278817" data-name="Trazado 1278817" d="M121.893,328.043c-1.3-22.544-1.747-45.129-1.883-67.707-.076-12.71-.055-25.422-.033-38.133,0-.591-.913-.506-.913.08-.04,22.7-.076,45.4.443,68.1.516,22.551,1.582,45.1,3.747,67.561,1.217,12.63,2.786,25.228,4.788,37.759.093.58,1.007.5.914-.079a674.8,674.8,0,0,1-7.062-67.581" transform="translate(-5.294 -9.864)" fill="#b0e2e0"/>
      <path id="Trazado_1278818" data-name="Trazado 1278818" d="M205.426,380.651q-4.049-11.233-8.118-22.459-4.088-11.28-8.195-22.553-4.086-11.218-8.193-22.431-4.125-11.266-8.27-22.526-4.124-11.205-8.267-22.4-.519-1.4-1.037-2.8a.459.459,0,0,0-.86.32q4.146,11.2,8.273,22.4,4.147,11.258,8.275,22.524,4.108,11.213,8.2,22.43,4.109,11.273,8.2,22.551,4.071,11.225,8.122,22.457.507,1.4,1.013,2.808a.459.459,0,0,0,.86-.32" transform="translate(-7.225 -11.794)" fill="#b0e2e0"/>
    </g>
  </g>
</svg>
