<svg xmlns="http://www.w3.org/2000/svg" xmlns:xlink="http://www.w3.org/1999/xlink" width="96" height="96" viewBox="0 0 96 96">
  <defs>
    <clipPath id="clip-path">
      <rect id="Rectángulo_454829" data-name="Rectángulo 454829" width="96" height="96" fill="#1e535a"/>
    </clipPath>
    <clipPath id="clip-path-2">
      <rect id="Rectángulo_460814" data-name="Rectángulo 460814" width="34" height="38" transform="translate(0.167 0)" fill="#1e535a"/>
    </clipPath>
  </defs>
  <g id="Grupo_1212595" data-name="Grupo 1212595" transform="translate(-1481 -8562.5)">
    <g id="Grupo_1177591" data-name="Grupo 1177591" transform="translate(1481 8562.5)">
      <g id="Grupo_1177589" data-name="Grupo 1177589" transform="translate(0 0)">
        <g id="Grupo_1177587" data-name="Grupo 1177587" clip-path="url(#clip-path)">
          <path id="Trazado_997422" data-name="Trazado 997422" d="M92.081,42.491a44.136,44.136,0,0,0-9.97-22.967,5.076,5.076,0,0,0-7.142-6.838A44.071,44.071,0,0,0,52.151,3.77a5.077,5.077,0,0,0-9.861.2A44.132,44.132,0,0,0,20.4,13.329a5.079,5.079,0,0,0-7.048,7.1A44.1,44.1,0,0,0,4.112,42.448,5.08,5.08,0,0,0,3.99,52.4a44.082,44.082,0,0,0,8.949,22.468,5.078,5.078,0,0,0,6.9,7.17,44.128,44.128,0,0,0,22.412,9.8,5.078,5.078,0,0,0,9.949.2,44.091,44.091,0,0,0,22.985-9.08,5.077,5.077,0,0,0,7.107-6.874A44.147,44.147,0,0,0,92.2,52.349a5.078,5.078,0,0,0-.119-9.858M77.74,22.024a5.05,5.05,0,0,0,2.812-.851,41.913,41.913,0,0,1,9.25,21.3,5.086,5.086,0,0,0-3.246,2.351l-12.98-4.867c.01-.142.02-.286.02-.433a5.079,5.079,0,0,0-2.151-4.15l5.678-13.4a5.5,5.5,0,0,0,.616.041M75,21.216,69.354,34.523a5.026,5.026,0,0,0-5.594,3.23L40.279,32.344a4.941,4.941,0,0,0-.106-1.011l33.322-11.6A5.1,5.1,0,0,0,75,21.216M47.246,10.165a5.083,5.083,0,0,0,4.989-4.122,41.844,41.844,0,0,1,21.158,8.275,5.054,5.054,0,0,0-.735,2.625,5.335,5.335,0,0,0,.048.671L39.217,29.273a5.1,5.1,0,0,0-.92-.92l8.784-18.2c.056,0,.109.008.165.008M42.3,6.243A5.083,5.083,0,0,0,44.86,9.569L36.248,27.4a5.1,5.1,0,0,0-1.049-.109,5.045,5.045,0,0,0-2.9.91L22.1,19.678A5.052,5.052,0,0,0,21.923,15,41.877,41.877,0,0,1,42.3,6.243M10.041,46.332,31.153,35.442a5.064,5.064,0,0,0,4.006,2.014l7.236,23.129a5.166,5.166,0,0,0-1.12,1.239l-31.3-13.04a5.048,5.048,0,0,0,.187-1.348,5.107,5.107,0,0,0-.124-1.1m4.986-24.391a5.079,5.079,0,0,0,5.673-.484l10.079,8.417a5.068,5.068,0,0,0-.56,3.512L9.07,44.29A5.081,5.081,0,0,0,6.38,42.526a41.859,41.859,0,0,1,8.647-20.585m2.1,50.717a5.067,5.067,0,0,0-2.523.674A41.822,41.822,0,0,1,6.263,52.374,5.087,5.087,0,0,0,8.9,50.783l31.609,13.17a5.45,5.45,0,0,0-.041.611,5.081,5.081,0,0,0,.3,1.718L21.657,75.44a5.081,5.081,0,0,0-4.528-2.782M42.349,89.575a41.919,41.919,0,0,1-20.912-9.149,5.029,5.029,0,0,0,.775-2.686l0-.058L42,68.2A5.082,5.082,0,0,0,43.8,69.329l1.186,17.043a5.082,5.082,0,0,0-2.632,3.2m2.105-29.97-7.081-22.64a5.089,5.089,0,0,0,2.415-2.415L63.459,40a5.052,5.052,0,0,0,.808,2.311L48.032,60.13a5.019,5.019,0,0,0-3.577-.524m7.74,30.167a5.081,5.081,0,0,0-4.948-3.937l-.038,0L46.081,69.62a5.073,5.073,0,0,0,3.106-1.507L72.853,78.551c0,.046-.008.086-.008.132a5.057,5.057,0,0,0,.752,2.65,41.841,41.841,0,0,1-21.4,8.439M73.423,76.334,50.373,66.165a5.052,5.052,0,0,0-.666-4.52L65.893,43.877a5.052,5.052,0,0,0,2.622.735,5.594,5.594,0,0,0,.623-.041l6.05,29.836a5.071,5.071,0,0,0-1.766,1.928m7.292-1.9a5.051,5.051,0,0,0-3.377-.8L71.285,43.788a5.1,5.1,0,0,0,1.6-1.672L85.858,46.98a4.506,4.506,0,0,0-.023.456,5.08,5.08,0,0,0,4.084,4.981,41.876,41.876,0,0,1-9.2,22.017" transform="translate(0 0.001)" fill="#1e535a"/>
        </g>
      </g>
    </g>
    <g id="Elipse_13614" data-name="Elipse 13614" transform="translate(1497.965 8579)" fill="#d5f4f8" stroke="#1e535a" stroke-width="3">
      <ellipse cx="31.232" cy="31.233" rx="31.232" ry="31.233" stroke="none"/>
      <ellipse cx="31.232" cy="31.233" rx="29.732" ry="29.733" fill="none"/>
    </g>
    <g id="Grupo_1211082" data-name="Grupo 1211082" transform="translate(1512.246 8590.666)">
      <g id="Grupo_1211081" data-name="Grupo 1211081" transform="translate(-0.448 0.333)" clip-path="url(#clip-path-2)">
        <path id="Trazado_1273631" data-name="Trazado 1273631" d="M50.073,41V56.252l-.182.182H42.6c-.329-.728-.487-1.436-.891-2.147a6.65,6.65,0,0,0-9.922-1.86,8.539,8.539,0,0,0-2.556,4.007H22.182L22,56.252V41ZM23.7,42.7a3.883,3.883,0,0,0-.127.663,44.655,44.655,0,0,0,0,5.968c.044.453.055.6.548.667a47.084,47.084,0,0,0,6.7,0c.161-.022.541-.156.541-.31V42.884l-.182-.182Zm9.054.729-.31.54a.749.749,0,0,0,.31.432H48.19c.307,0,.437-.972.122-.972Zm.149,2.336a.54.54,0,0,0-.281.957l15.33.115c.83-.1.717-1.112-.125-1.1Zm0,2.431c-.707.153-.663.968.214,1.069,2.408.278,5.322-.216,7.786,0,.557-.048.821-.6.367-.988Zm-2.548,3.284a1.12,1.12,0,0,0-.634-.156,39.074,39.074,0,0,0-5.6,0,.557.557,0,0,0-.431.176l-.117.494c.052.337.386.4.673.432a37.012,37.012,0,0,0,5.473,0c.413-.049.728-.2.756-.654a.6.6,0,0,0-.12-.291m11.362,0a.567.567,0,0,0-.1.576.986.986,0,0,0,.733.369,37.1,37.1,0,0,0,5.474,0c.287-.033.621-.1.673-.432.031-.442-.123-.614-.548-.67a39.073,39.073,0,0,0-5.6,0,1.115,1.115,0,0,0-.633.156m-17.835,2.28c-.463.4-.49.878.175,1.04a27.7,27.7,0,0,0,4.631,0,.568.568,0,0,0,.176-1.039Zm19.28.139c-.362.582.256.9.773.955a22.49,22.49,0,0,0,4.354-.141.526.526,0,0,0-.226-.949c-.648.069-4.718-.159-4.9.135" transform="translate(-18.953 -36.295)" fill="#1e535a"/>
        <path id="Trazado_1273632" data-name="Trazado 1273632" d="M78.837,244.393H60v-1.519c0-4.613,4.67-8.817,9.169-8.938,4.7-.126,9.668,4.122,9.668,8.938Z" transform="translate(-52.335 -205.782)" fill="#1e535a"/>
        <path id="Trazado_1273633" data-name="Trazado 1273633" d="M95.44,131.738c8.319-1.125,8.7,11.29,1.056,11.4-6.983.1-7.714-10.5-1.056-11.4" transform="translate(-79.419 -115.942)" fill="#1e535a"/>
        <path id="Trazado_1273634" data-name="Trazado 1273634" d="M50.073,3.889H22V0H50.073ZM24.153,1.12a.947.947,0,0,0-.094,1.742.947.947,0,1,0,.094-1.742m3.4,0a.919.919,0,0,0-.093,1.741.937.937,0,1,0,.093-1.741m3.281,0a.955.955,0,1,0,.856,1.706c.944-.407.453-2.1-.856-1.706m13.343.34H34.214c-.385,0-.385,1.094,0,1.094h9.844c.441,0,.6-.959.122-1.094m4.77.151a8.791,8.791,0,0,0-3.321-.039.521.521,0,0,0,0,.869,9.775,9.775,0,0,0,3.269,0,.633.633,0,0,0,.052-.831" transform="translate(-18.953 -0.278)" fill="#1e535a"/>
        <path id="Trazado_1273635" data-name="Trazado 1273635" d="M200.33,21V41.781H190l.242-1.945,8.141-.062a1.085,1.085,0,0,0,.245-.241V21Z" transform="translate(-166.536 -18.726)" fill="#1e535a"/>
        <path id="Trazado_1273636" data-name="Trazado 1273636" d="M1.7,21V39.533a1.085,1.085,0,0,0,.245.241l7.82.08c.372.122.1,1.516.321,1.927H0V21Z" transform="translate(0.373 -18.726)" fill="#1e535a"/>
        <path id="Trazado_1273637" data-name="Trazado 1273637" d="M48.833,68.226H43V63.182L43.182,63h5.469l.182.182Z" transform="translate(-37.401 -55.622)" fill="#1e535a"/>
      </g>
    </g>
  </g>
</svg>
