<svg xmlns="http://www.w3.org/2000/svg" xmlns:xlink="http://www.w3.org/1999/xlink" width="69" height="69" viewBox="0 0 69 69">
  <defs>
    <clipPath id="clip-path">
      <rect id="Rectángulo_462705" data-name="Rectángulo 462705" width="39.313" height="35.762" fill="#fff"/>
    </clipPath>
  </defs>
  <g id="Grupo_1212446" data-name="Grupo 1212446" transform="translate(-616.314 -749.862)">
    <circle id="Elipse_13676" data-name="Elipse 13676" cx="34.5" cy="34.5" r="34.5" transform="translate(616.314 749.862)" fill="#1e535a"/>
    <g id="Grupo_1213003" data-name="Grupo 1213003" transform="translate(631.314 766.862)">
      <g id="Grupo_1213002" data-name="Grupo 1213002" clip-path="url(#clip-path)">
        <path id="Trazado_1279410" data-name="Trazado 1279410" d="M39.3,2.8l.015,18.964H0l.007-18.9A2.87,2.87,0,0,1,3.057,0h33.2A2.849,2.849,0,0,1,39.3,2.8m-9.882,9.475a13.96,13.96,0,0,0-3.392-4.744l1.966-1.968L26.348,3.927,24.109,6.159a9.821,9.821,0,0,0-3.267-1.09l0-2.847H18.495l-.007,2.842a10.358,10.358,0,0,0-3.271,1.1L13,3.945,11.358,5.588,13.3,7.539a14.267,14.267,0,0,0-3.4,4.733c1.847,4,5.4,7.332,9.92,7.243,4.374-.086,7.817-3.338,9.591-7.243" transform="translate(0 0.001)" fill="#fff"/>
        <path id="Trazado_1279411" data-name="Trazado 1279411" d="M28.787,225.526h-18.2l-.017-2.306,2.225.013.441-3.06L2.784,220.15A2.844,2.844,0,0,1,.032,217.3v-3.444H39.338l-.012,3.554a2.806,2.806,0,0,1-2.737,2.738l-10.449.024.43,3.049,2.233,0Zm-7.481-9.7H18.064V218.2h3.242Z" transform="translate(-0.028 -189.766)" fill="#fff"/>
        <path id="Trazado_1279412" data-name="Trazado 1279412" d="M122.366,73.583a6.763,6.763,0,0,1-8.253-.081,11.113,11.113,0,0,1-2.965-3.488,11.218,11.218,0,0,1,3.041-3.521,6.753,6.753,0,0,1,8.14-.059,11.162,11.162,0,0,1,3.112,3.582,10.948,10.948,0,0,1-3.076,3.567m-.439-3.559a3.632,3.632,0,1,0-3.632,3.632,3.632,3.632,0,0,0,3.632-3.632" transform="translate(-98.627 -57.765)" fill="#fff"/>
        <path id="Trazado_1279413" data-name="Trazado 1279413" d="M165.613,98.507a1.3,1.3,0,1,1-1.3-1.3,1.3,1.3,0,0,1,1.3,1.3" transform="translate(-144.64 -86.252)" fill="#fff"/>
      </g>
    </g>
  </g>
</svg>
