<svg xmlns="http://www.w3.org/2000/svg" xmlns:xlink="http://www.w3.org/1999/xlink" width="91" height="91" viewBox="0 0 91 91">
  <defs>
    <clipPath id="clip-path">
      <rect id="Rectángulo_462558" data-name="Rectángulo 462558" width="43.001" height="65" fill="none"/>
    </clipPath>
  </defs>
  <g id="Grupo_1212024" data-name="Grupo 1212024" transform="translate(-751.711 -2638.394)">
    <circle id="Elipse_13734" data-name="Elipse 13734" cx="45.5" cy="45.5" r="45.5" transform="translate(751.711 2638.394)" fill="#fff"/>
    <g id="Grupo_1212936" data-name="Grupo 1212936" transform="translate(775.711 2651.393)">
      <g id="Grupo_1212935" data-name="Grupo 1212935" clip-path="url(#clip-path)">
        <path id="Trazado_1278861" data-name="Trazado 1278861" d="M42.059,54.047a.943.943,0,0,1-.995-.965l-.022-3.973a6.94,6.94,0,0,0-5.329-6.6L30.66,41.289A17.684,17.684,0,0,1,30,43.469l1.677.054a3.785,3.785,0,0,1,3.567,3.78l.037,12.209a2,2,0,0,1,2.291,1.95l.04,1.643,3.454-.037-.006-5.529c0-.666.586-.824.945-.957a1.1,1.1,0,0,1,1,1.142l0,6.153A1.052,1.052,0,0,1,41.859,65H1.143A1.052,1.052,0,0,1,0,63.877l0-6.153A1.127,1.127,0,0,1,1.021,56.56c.337.181.928.32.927.978L1.937,63.1l3.461,0,.035-1.644a1.964,1.964,0,0,1,2.281-1.934L7.8,47.119c.017-2.591,2.6-4.012,5.129-3.6l-.585-2.237-5.2,1.275a6.841,6.841,0,0,0-5.185,6.483l-.026,4.042a.949.949,0,0,1-.981.973.951.951,0,0,1-.937-.991l.006-3.727a8.931,8.931,0,0,1,6.9-8.7l9.364-2.228.019-2.957A10.876,10.876,0,0,1,10.678,26.5,4.283,4.283,0,0,1,5.75,23.757,4.072,4.072,0,0,1,8.1,18.714l.034-6.644A10.2,10.2,0,0,1,9.647,6.683c.2-.323.936-.2,1.182-.156,1.065,1.1-.809,2.532-.815,5.764l-.009,6.145a3.758,3.758,0,0,0,1.543,0l15.809-5.045a.929.929,0,0,1,.949.2l3.479,4.735c.2.278.825.235,1.222.1l-.047-7.979a5.164,5.164,0,0,0-5.48-4.966c-.822.016-2.964-4.546-8.646-3.4A10.489,10.489,0,0,0,13.89,4.4a1.245,1.245,0,0,1-1.617.216A1.047,1.047,0,0,1,12.419,3.1c4.5-3.9,11.643-4.529,15.568.469a7.128,7.128,0,0,1,6.9,7.1l.008,8.043a4.065,4.065,0,0,1,2.351,5.041,4.262,4.262,0,0,1-4.927,2.75,10.878,10.878,0,0,1-5.62,8.954l-.018,2.935,9.4,2.247a8.844,8.844,0,0,1,6.883,8.516l.017,3.91a.939.939,0,0,1-.925.983M30.409,26.2,30.4,19.732,27.3,15.4,12.614,20.116v6.156a8.8,8.8,0,0,0,8.884,8.6A8.918,8.918,0,0,0,30.409,26.2M10.693,24.557l-.012-4.148a4.085,4.085,0,0,0-1.89.126,2.126,2.126,0,0,0,.026,3.947,4.361,4.361,0,0,0,1.877.075m23.551-.105a2.119,2.119,0,0,0-.168-3.964,4.208,4.208,0,0,0-1.761-.074l.014,4.156a4.225,4.225,0,0,0,1.915-.118M24.736,39.963l.028-3.676a10.794,10.794,0,0,1-6.526,0l.033,3.749A3.1,3.1,0,0,0,21.5,42.946a3.113,3.113,0,0,0,3.236-2.983m-6.778,3.494a5.4,5.4,0,0,1-1.6-3.052,6.733,6.733,0,0,0-2.116.538,4.721,4.721,0,0,0,.973,2.452,12.431,12.431,0,0,0,2.74.063m9.9.011a7.052,7.052,0,0,0,.892-2.552,7.892,7.892,0,0,0-2.109-.512,5.259,5.259,0,0,1-1.609,3.044ZM33.384,59.5l0-12.009a2.177,2.177,0,0,0-2.308-2.113l-19.154,0a2.2,2.2,0,0,0-2.314,2.3l.011,11.841ZM7.311,61.4v1.718l28.381.014V61.409Z" transform="translate(0 0)" fill="#050505"/>
        <path id="Trazado_1278862" data-name="Trazado 1278862" d="M54.555,14.786A6.351,6.351,0,0,1,56,12.879a1.245,1.245,0,0,0,1.617-.215,10.489,10.489,0,0,1,4.945-2.331c5.682-1.145,7.825,3.417,8.646,3.4a5.164,5.164,0,0,1,5.48,4.966l.047,7.979c-.4.137-1.018.18-1.222-.1l-3.479-4.735a.929.929,0,0,0-.949-.2l-15.81,5.045a3.758,3.758,0,0,1-1.543,0l.01-6.145c.005-3.233,1.88-4.66.815-5.764" transform="translate(-43.726 -8.259)" fill="#644602"/>
        <path id="Trazado_1278863" data-name="Trazado 1278863" d="M85.536,93.511a8.918,8.918,0,0,1-8.912,8.677,8.8,8.8,0,0,1-8.884-8.6V87.428l14.691-4.713,3.1,4.33Z" transform="translate(-55.127 -67.313)" fill="#fcd0a3"/>
        <path id="Trazado_1278864" data-name="Trazado 1278864" d="M104.446,198.551a3.246,3.246,0,0,1-6.464.075l-.033-3.749a10.793,10.793,0,0,0,6.526,0Z" transform="translate(-79.71 -158.588)" fill="#fcd0a3"/>
        <path id="Trazado_1278865" data-name="Trazado 1278865" d="M43.332,113.532a4.362,4.362,0,0,1-1.877-.075,2.126,2.126,0,0,1-.026-3.947,4.086,4.086,0,0,1,1.891-.125Z" transform="translate(-32.638 -88.975)" fill="#fcd0a3"/>
        <path id="Trazado_1278866" data-name="Trazado 1278866" d="M175.475,113.418a4.222,4.222,0,0,1-1.915.118l-.014-4.156a4.211,4.211,0,0,1,1.761.074,2.119,2.119,0,0,1,.168,3.964" transform="translate(-141.231 -88.967)" fill="#fcd0a3"/>
        <path id="Trazado_1278867" data-name="Trazado 1278867" d="M173.162,234.495l-.057,2.535c-.36.133-.946.292-.945.958l.006,5.529-3.454.037-.039-1.643a2,2,0,0,0-2.291-1.95l-.037-12.209a3.785,3.785,0,0,0-3.567-3.78l-1.676-.054a17.73,17.73,0,0,0,.663-2.181l5.053,1.222a6.94,6.94,0,0,1,5.329,6.6l.022,3.973a.943.943,0,0,0,.995.965" transform="translate(-131.103 -180.449)" fill="#69d7e5"/>
        <path id="Trazado_1278868" data-name="Trazado 1278868" d="M5.191,236.984l-.067-2.5a.949.949,0,0,0,.981-.973l.026-4.042a6.841,6.841,0,0,1,5.184-6.483l5.2-1.275.585,2.237c-2.529-.413-5.112,1.008-5.13,3.6l-.082,12.41A1.964,1.964,0,0,0,9.6,241.887l-.035,1.644-3.461,0,.011-5.565c0-.657-.589-.8-.926-.978" transform="translate(-4.17 -180.424)" fill="#69d7e5"/>
        <rect id="Rectángulo_462557" data-name="Rectángulo 462557" width="28.381" height="1.718" transform="translate(7.31 61.402)" fill="#9b9b9b"/>
        <path id="Trazado_1278869" data-name="Trazado 1278869" d="M80.213,220.041a12.442,12.442,0,0,1-2.74-.063,4.722,4.722,0,0,1-.973-2.452,6.732,6.732,0,0,1,2.116-.538,5.4,5.4,0,0,0,1.6,3.052" transform="translate(-62.255 -176.585)" fill="#f5f5f5"/>
        <path id="Trazado_1278870" data-name="Trazado 1278870" d="M137.263,220.052l-2.826-.019a5.259,5.259,0,0,0,1.609-3.044,7.894,7.894,0,0,1,2.109.512,7.051,7.051,0,0,1-.892,2.552" transform="translate(-109.404 -176.584)" fill="#f5f5f5"/>
        <path id="Trazado_1278871" data-name="Trazado 1278871" d="M75.384,257.777l-23.764.019-.011-11.841a2.2,2.2,0,0,1,2.314-2.3l19.154,0a2.177,2.177,0,0,1,2.308,2.113Zm-13.411-5.82-1.653-1.228,1.807-1.394a.95.95,0,0,0,.049-1.305.981.981,0,0,0-1.295-.137l-2.8,2.041a.95.95,0,0,0-.01,1.548l2.687,1.972a1,1,0,0,0,1.426-.071.98.98,0,0,0-.206-1.426m4.219,1.528,2.743-2a.958.958,0,0,0-.009-1.555l-2.8-2.036a.969.969,0,0,0-1.3.131.936.936,0,0,0,.053,1.3l1.805,1.4L64.982,252a.958.958,0,1,0,1.21,1.484" transform="translate(-42 -198.281)" fill="#9b9b9b"/>
        <path id="Trazado_1278872" data-name="Trazado 1278872" d="M122.916,271.216a.958.958,0,1,1-1.21-1.484l1.7-1.269-1.805-1.4a.936.936,0,0,1-.053-1.3.969.969,0,0,1,1.3-.131l2.8,2.036a.958.958,0,0,1,.009,1.555Z" transform="translate(-98.724 -216.013)" fill="#050505"/>
        <path id="Trazado_1278873" data-name="Trazado 1278873" d="M88.468,269.7a.98.98,0,0,1,.206,1.426,1,1,0,0,1-1.426.072l-2.687-1.972a.95.95,0,0,1,.01-1.548l2.8-2.041a.981.981,0,0,1,1.295.137.95.95,0,0,1-.049,1.306l-1.806,1.394Z" transform="translate(-68.495 -216.021)" fill="#050505"/>
      </g>
    </g>
  </g>
</svg>
