<svg xmlns="http://www.w3.org/2000/svg" xmlns:xlink="http://www.w3.org/1999/xlink" width="133" height="133" viewBox="0 0 133 133">
  <defs>
    <clipPath id="clip-path">
      <rect id="Rectángulo_454829" data-name="Rectángulo 454829" width="133" height="133" fill="#1e535a"/>
    </clipPath>
    <clipPath id="clip-path-2">
      <rect id="Rectángulo_462337" data-name="Rectángulo 462337" width="62.696" height="50" fill="#1e535a"/>
    </clipPath>
  </defs>
  <g id="Grupo_1212338" data-name="Grupo 1212338" transform="translate(-185.711 -4323.859)">
    <g id="Grupo_1177591" data-name="Grupo 1177591" transform="translate(185.711 4323.859)">
      <g id="Grupo_1177589" data-name="Grupo 1177589" transform="translate(0 0)">
        <g id="Grupo_1177587" data-name="Grupo 1177587" clip-path="url(#clip-path)">
          <path id="Trazado_997422" data-name="Trazado 997422" d="M127.57,58.867a61.147,61.147,0,0,0-13.812-31.819,7.032,7.032,0,0,0-9.895-9.474A61.057,61.057,0,0,0,72.251,5.223,7.034,7.034,0,0,0,58.59,5.5,61.141,61.141,0,0,0,28.26,18.466,7.036,7.036,0,0,0,18.495,28.3,61.09,61.09,0,0,0,5.7,58.808a7.038,7.038,0,0,0-.168,13.784,61.072,61.072,0,0,0,12.4,31.127,7.035,7.035,0,0,0,9.558,9.933,61.136,61.136,0,0,0,31.05,13.58,7.036,7.036,0,0,0,13.784.277,61.084,61.084,0,0,0,31.843-12.58,7.034,7.034,0,0,0,9.846-9.523,61.162,61.162,0,0,0,13.728-32.882,7.036,7.036,0,0,0-.165-13.658M107.7,30.513a7,7,0,0,0,3.9-1.179A58.067,58.067,0,0,1,124.414,58.85a7.046,7.046,0,0,0-4.5,3.257l-17.982-6.743c.014-.2.028-.4.028-.6a7.036,7.036,0,0,0-2.98-5.749l7.866-18.558a7.621,7.621,0,0,0,.853.056m-3.8-1.12L96.085,47.828a6.963,6.963,0,0,0-7.75,4.475L55.8,44.809a6.845,6.845,0,0,0-.147-1.4L101.82,27.333a7.058,7.058,0,0,0,2.081,2.06M65.456,14.082a7.041,7.041,0,0,0,6.911-5.711A57.971,57.971,0,0,1,101.68,19.835a7,7,0,0,0-1.018,3.636,7.392,7.392,0,0,0,.067.93l-46.4,16.153a7.062,7.062,0,0,0-1.274-1.274L65.228,14.072c.077,0,.151.011.228.011M58.608,8.649a7.042,7.042,0,0,0,3.542,4.609L50.219,37.965a7.061,7.061,0,0,0-1.453-.151,6.99,6.99,0,0,0-4.012,1.26L30.611,27.263a7,7,0,0,0-.239-6.48A58.017,58.017,0,0,1,58.608,8.649m-44.7,55.54L43.16,49.1a7.015,7.015,0,0,0,5.549,2.791L58.734,83.936a7.157,7.157,0,0,0-1.551,1.716L13.823,67.586a6.994,6.994,0,0,0,.26-1.867,7.075,7.075,0,0,0-.172-1.53M20.818,30.4a7.036,7.036,0,0,0,7.859-.67L42.64,41.387a7.022,7.022,0,0,0-.776,4.865l-29.3,15.107a7.039,7.039,0,0,0-3.728-2.443A57.992,57.992,0,0,1,20.818,30.4m2.913,70.264a7.02,7.02,0,0,0-3.5.934A57.94,57.94,0,0,1,8.677,72.56a7.047,7.047,0,0,0,3.654-2.2L56.122,88.6a7.549,7.549,0,0,0-.056.846,7.039,7.039,0,0,0,.421,2.38L30,104.516a7.04,7.04,0,0,0-6.272-3.854M58.671,124.1A58.075,58.075,0,0,1,29.7,111.423a6.967,6.967,0,0,0,1.074-3.721l0-.081L58.19,94.48a7.041,7.041,0,0,0,2.485,1.569l1.643,23.612a7.041,7.041,0,0,0-3.647,4.437m2.917-41.521L51.777,51.212a7.051,7.051,0,0,0,3.345-3.345l32.795,7.55a7,7,0,0,0,1.12,3.2L66.544,83.3a6.954,6.954,0,0,0-4.956-.727m10.723,41.794a7.039,7.039,0,0,0-6.855-5.455l-.053,0L63.841,96.453a7.029,7.029,0,0,0,4.3-2.088l32.788,14.461c0,.063-.011.119-.011.183a7.006,7.006,0,0,0,1.042,3.672,57.968,57.968,0,0,1-29.653,11.692m29.411-18.617L69.787,91.665a7,7,0,0,0-.923-6.262L91.29,60.787a7,7,0,0,0,3.633,1.018,7.75,7.75,0,0,0,.863-.056l8.382,41.334a7.025,7.025,0,0,0-2.447,2.671m10.1-2.633a7,7,0,0,0-4.679-1.106L98.759,60.664a7.069,7.069,0,0,0,2.218-2.317l17.972,6.739a6.245,6.245,0,0,0-.032.632,7.039,7.039,0,0,0,5.658,6.9,58.016,58.016,0,0,1-12.752,30.5" transform="translate(0 0.001)" fill="#1e535a"/>
        </g>
      </g>
    </g>
    <g id="Elipse_13614" data-name="Elipse 13614" transform="translate(210.273 4348.213)" fill="#fff" stroke="#1e535a" stroke-width="3">
      <ellipse cx="42.232" cy="42.233" rx="42.232" ry="42.233" stroke="none"/>
      <ellipse cx="42.232" cy="42.233" rx="40.732" ry="40.733" fill="none"/>
    </g>
    <g id="Grupo_1212734" data-name="Grupo 1212734" transform="translate(221.949 4363.699)">
      <g id="Grupo_1212733" data-name="Grupo 1212733" clip-path="url(#clip-path-2)">
        <path id="Trazado_1277961" data-name="Trazado 1277961" d="M214.669,88.727V78.22l13.328,0a6.824,6.824,0,1,0-.106-13.647,13.115,13.115,0,0,0-4.833-11.514l7.406-7.44A23.8,23.8,0,0,1,237.586,57a17.284,17.284,0,0,1-9.308,31.707Z" transform="translate(-182.658 -38.819)" fill="#1e535a"/>
        <path id="Trazado_1277962" data-name="Trazado 1277962" d="M94.363,6.135l-7.38,7.24a13.014,13.014,0,0,0-17.949,1.2,17.074,17.074,0,0,0-12.842,2.25A23.329,23.329,0,0,1,94.363,6.135" transform="translate(-47.813 0)" fill="#1e535a"/>
        <path id="Trazado_1277963" data-name="Trazado 1277963" d="M20.549,102.162a16.937,16.937,0,0,1,10.1,6.465l-7.508,7.5a6.683,6.683,0,1,0-8.868,8.784l-7.471,7.507a17.019,17.019,0,0,1,13.743-30.253" transform="translate(0 -86.621)" fill="#1e535a"/>
        <path id="Trazado_1277964" data-name="Trazado 1277964" d="M74.053,262.371v10.348l-13.473,0a16.418,16.418,0,0,1-9.944-3.459l7.471-7.507a7.833,7.833,0,0,0,3.281.621Z" transform="translate(-43.086 -222.719)" fill="#1e535a"/>
      </g>
    </g>
  </g>
</svg>
