<svg xmlns="http://www.w3.org/2000/svg" xmlns:xlink="http://www.w3.org/1999/xlink" width="150" height="150" viewBox="0 0 150 150">
  <defs>
    <clipPath id="clip-path">
      <rect id="Rectángulo_454829" data-name="Rectángulo 454829" width="150" height="150" fill="#1e535a"/>
    </clipPath>
    <clipPath id="clip-path-2">
      <rect id="Rectángulo_462487" data-name="Rectángulo 462487" width="65.977" height="52.89" fill="#1e535a"/>
    </clipPath>
  </defs>
  <g id="Grupo_1184511" data-name="Grupo 1184511" transform="translate(-186 -4323.945)">
    <g id="Grupo_1177591" data-name="Grupo 1177591" transform="translate(186 4323.945)">
      <g id="Grupo_1177589" data-name="Grupo 1177589" transform="translate(0 0)">
        <g id="Grupo_1177587" data-name="Grupo 1177587" clip-path="url(#clip-path)">
          <path id="Trazado_997422" data-name="Trazado 997422" d="M143.876,66.392A68.963,68.963,0,0,0,128.3,30.506a7.931,7.931,0,0,0-11.16-10.685A68.861,68.861,0,0,0,81.486,5.891,7.933,7.933,0,0,0,66.079,6.2,68.956,68.956,0,0,0,31.872,20.827,7.935,7.935,0,0,0,20.859,31.915,68.9,68.9,0,0,0,6.425,66.324a7.938,7.938,0,0,0-.19,15.546,68.878,68.878,0,0,0,13.982,35.106A7.934,7.934,0,0,0,31,128.179,68.951,68.951,0,0,0,66.016,143.5a7.935,7.935,0,0,0,15.546.313,68.892,68.892,0,0,0,35.914-14.188,7.933,7.933,0,0,0,11.1-10.74A68.98,68.98,0,0,0,144.062,81.8a7.935,7.935,0,0,0-.186-15.4M121.469,34.413a7.89,7.89,0,0,0,4.394-1.33,65.489,65.489,0,0,1,14.453,33.289,7.946,7.946,0,0,0-5.071,3.674l-20.281-7.6c.016-.222.032-.447.032-.677a7.935,7.935,0,0,0-3.361-6.484l8.871-20.93a8.6,8.6,0,0,0,.962.063m-4.287-1.263-8.816,20.791a7.853,7.853,0,0,0-8.741,5.047L62.936,50.537a7.72,7.72,0,0,0-.166-1.58l52.065-18.131a7.961,7.961,0,0,0,2.348,2.324M73.822,15.882a7.941,7.941,0,0,0,7.795-6.441,65.381,65.381,0,0,1,33.059,12.929,7.9,7.9,0,0,0-1.148,4.1,8.337,8.337,0,0,0,.075,1.049L61.277,45.739A7.965,7.965,0,0,0,59.84,44.3L73.565,15.87c.087,0,.17.012.257.012M66.1,9.754a7.943,7.943,0,0,0,3.994,5.2L56.637,42.817A7.963,7.963,0,0,0,55,42.647a7.883,7.883,0,0,0-4.525,1.421L34.524,30.747a7.894,7.894,0,0,0-.269-7.308A65.433,65.433,0,0,1,66.1,9.754M15.688,72.393,48.676,55.378a7.912,7.912,0,0,0,6.259,3.147L66.241,94.665a8.071,8.071,0,0,0-1.75,1.936l-48.9-20.376a7.888,7.888,0,0,0,.293-2.106,7.98,7.98,0,0,0-.194-1.726m7.791-38.111a7.935,7.935,0,0,0,8.864-.756L48.091,46.677a7.919,7.919,0,0,0-.875,5.487L14.172,69.2a7.939,7.939,0,0,0-4.2-2.755A65.4,65.4,0,0,1,23.479,34.282m3.286,79.246a7.918,7.918,0,0,0-3.943,1.053A65.346,65.346,0,0,1,9.786,81.835a7.948,7.948,0,0,0,4.121-2.486L63.3,99.926a8.514,8.514,0,0,0-.063.954,7.939,7.939,0,0,0,.475,2.684L33.839,117.875a7.94,7.94,0,0,0-7.074-4.347M66.17,139.96a65.5,65.5,0,0,1-32.675-14.295,7.858,7.858,0,0,0,1.211-4.2l0-.091,30.926-14.821a7.941,7.941,0,0,0,2.8,1.77l1.853,26.63a7.941,7.941,0,0,0-4.113,5m3.29-46.828L58.4,57.758a7.952,7.952,0,0,0,3.773-3.773L99.154,62.5a7.894,7.894,0,0,0,1.263,3.61L75.049,93.952a7.843,7.843,0,0,0-5.59-.819m12.094,47.136a7.938,7.938,0,0,0-7.731-6.152l-.059,0L72,108.782a7.927,7.927,0,0,0,4.853-2.355l36.978,16.31c0,.071-.012.135-.012.206A7.9,7.9,0,0,0,115,127.083a65.377,65.377,0,0,1-33.443,13.186m33.17-21-36.016-15.89a7.894,7.894,0,0,0-1.041-7.062l25.292-27.762a7.894,7.894,0,0,0,4.1,1.148,8.74,8.74,0,0,0,.974-.063l9.453,46.618a7.923,7.923,0,0,0-2.759,3.013m11.393-2.969a7.893,7.893,0,0,0-5.277-1.247l-9.457-46.638a7.973,7.973,0,0,0,2.5-2.613l20.269,7.6a7.042,7.042,0,0,0-.036.713A7.938,7.938,0,0,0,140.5,81.9a65.431,65.431,0,0,1-14.382,34.4" transform="translate(0 0.002)" fill="#1e535a"/>
        </g>
      </g>
    </g>
    <g id="Elipse_13614" data-name="Elipse 13614" transform="translate(210.711 4347.945)" fill="#fff" stroke="#1e535a" stroke-width="3">
      <ellipse cx="50.732" cy="50.733" rx="50.732" ry="50.733" stroke="none"/>
      <ellipse cx="50.732" cy="50.733" rx="49.232" ry="49.233" fill="none"/>
    </g>
    <g id="Grupo_1212889" data-name="Grupo 1212889" transform="translate(228.455 4372.233)">
      <g id="Grupo_1212888" data-name="Grupo 1212888" clip-path="url(#clip-path-2)">
        <path id="Trazado_1278601" data-name="Trazado 1278601" d="M191.132,9.666l-3.11-8.325A1.61,1.61,0,0,0,186.01.032c-.582-.088-1.589.012-1.815.694l-2.96,8.931a24.771,24.771,0,0,1,9.9.009" transform="translate(-153.203 0)" fill="#1e535a"/>
        <path id="Trazado_1278602" data-name="Trazado 1278602" d="M174.877,154.144l-2.232,2.148c.041.035.081.072.121.108a8.261,8.261,0,0,0-11.647,11.683l-.039-.042-2.209,2.1a11.329,11.329,0,1,0,16.007-16m.328,6.149-.012-.042.012.042m-.275-.806-.006-.015.006.015m-.11-.261-.012-.027.012.027m-.22-.458-.033-.064.033.064m-.135-.251-.071-.124c.024.041.048.082.071.124m-.166-.283q-.08-.13-.165-.257.085.127.165.257m-.242-.369c-.044-.064-.089-.127-.135-.189q.069.094.135.189m-.206-.285c-.069-.092-.14-.183-.213-.272.073.089.144.18.213.272m-.233-.295q-.1-.126-.215-.248.11.122.215.248m-.278-.318q-.1-.109-.206-.215.1.106.206.215m-.251-.262q-.125-.125-.256-.244.131.119.256.244m-5.8,1.7a4.129,4.129,0,1,1-4.129,4.129,4.129,4.129,0,0,1,4.129-4.129m4.155,11.277-.129.074.129-.074m-.773.4-.065.029.065-.029m-.3.13h0m-.8.277-.039.011.039-.011m-5.769-.428-.023-.011.023.011m-.241-.116-.084-.043.084.043m-.4-.215-.132-.076c.043.026.088.051.132.076m-1.785-1.373q-.1-.1-.189-.2.093.1.189.2m.063.063c.084.084.17.166.258.246q-.131-.12-.258-.246m1.443,1.143-.161-.1.161.1m-.284-.185q-.135-.092-.267-.19c.088.065.177.128.267.19m-.332-.24q-.112-.085-.221-.174.109.089.221.174m-.3-.24q-.118-.1-.233-.2.115.1.233.2m4.918,1.91c.115.005.23.008.346.009-.116,0-.231,0-.346-.009m-2.327-.445.012,0-.012,0m.777.226.084.02-.084-.02m.436.092.162.029-.162-.029m.331.054q.112.016.225.029-.113-.013-.225-.029m.345.042q.177.017.355.027c-.119-.007-.237-.015-.355-.027m.825.04c.128,0,.255,0,.381-.01q-.191.009-.381.01m1.515-.143-.143.026.143-.026m-.328.055q-.16.023-.321.041c.108-.011.215-.025.321-.041m-.427.051q-.145.013-.291.022c.1-.006.194-.013.291-.022m3.57-1.2q.111-.069.22-.141-.109.072-.22.141m.356-.234q.1-.067.191-.136-.094.069-.191.136m.3-.214q.111-.084.219-.172-.108.088-.219.172m.272-.215c.089-.073.176-.149.261-.226-.086.077-.172.153-.261.226m.332-.291q.1-.1.2-.194-.1.1-.2.194m.262-.252q.123-.124.241-.252-.118.129-.241.252m2.175-3.9.018-.078c0,.016-.007.033-.011.049s0,.019-.007.029m-1.88,3.587q.092-.1.18-.208-.088.105-.18.208m.251-.293q.1-.121.194-.246c-.063.084-.128.165-.194.246m.258-.334q.075-.1.147-.207-.072.1-.147.207m.234-.336c.035-.052.068-.105.1-.159-.034.053-.067.106-.1.159m.246-.4c.029-.049.058-.1.086-.149-.028.05-.057.1-.086.149m.186-.337.05-.1-.05.1m.363-.8.016-.041-.016.041m.109-.293,0,0,0,0m.33-1.262c.008-.047.017-.094.025-.141-.008.047-.017.094-.025.141m.05-.312c.01-.071.019-.143.027-.215-.008.072-.017.144-.027.215m.042-.347c.011-.118.021-.237.027-.356q-.01.178-.027.356m.03-.423q.008-.168.008-.339,0,.169-.008.339m.009-.4q0-.192-.01-.381.009.19.01.381m-.19-1.742,0,.017,0-.017m.046.227c.01.05.018.1.027.151-.008-.05-.017-.1-.027-.151m.056.329c.016.106.029.213.041.32q-.017-.161-.041-.32m.052.437q.014.147.022.295c-.006-.1-.013-.2-.022-.295" transform="translate(-134.297 -130.302)" fill="#1e535a"/>
        <path id="Trazado_1278603" data-name="Trazado 1278603" d="M100.346,75.077a20.639,20.639,0,1,0,20.639,20.639,20.639,20.639,0,0,0-20.639-20.639m0,35.29a14.673,14.673,0,1,1,14.673-14.673,14.673,14.673,0,0,1-14.673,14.673" transform="translate(-67.378 -63.465)" fill="#1e535a"/>
        <path id="Trazado_1278604" data-name="Trazado 1278604" d="M373.675,182.149a1.469,1.469,0,0,0-1.028-1.187l-8.64-2.727a25.538,25.538,0,0,1,.269,8.615l7.967.006a1.6,1.6,0,0,0,1.438-1.2Z" transform="translate(-307.705 -150.667)" fill="#1e535a"/>
        <path id="Trazado_1278605" data-name="Trazado 1278605" d="M.892,181.594A1.519,1.519,0,0,0,0,183.078v2.951a1.446,1.446,0,0,0,1.5,1.442l7.9-.009a24.948,24.948,0,0,1,.267-8.5Z" transform="translate(0 -151.281)" fill="#1e535a"/>
      </g>
    </g>
  </g>
</svg>
