<svg xmlns="http://www.w3.org/2000/svg" xmlns:xlink="http://www.w3.org/1999/xlink" width="133" height="133" viewBox="0 0 133 133">
  <defs>
    <clipPath id="clip-path">
      <rect id="Rectángulo_454829" data-name="Rectángulo 454829" width="133" height="133" fill="#1e535a"/>
    </clipPath>
    <clipPath id="clip-path-2">
      <rect id="Rectángulo_462508" data-name="Rectángulo 462508" width="51.499" height="50.786" fill="#1e535a"/>
    </clipPath>
  </defs>
  <g id="Grupo_1212415" data-name="Grupo 1212415" transform="translate(-186 -4323.945)">
    <g id="Grupo_1177591" data-name="Grupo 1177591" transform="translate(186 4323.945)">
      <g id="Grupo_1177589" data-name="Grupo 1177589" transform="translate(0 0)">
        <g id="Grupo_1177587" data-name="Grupo 1177587" clip-path="url(#clip-path)">
          <path id="Trazado_997422" data-name="Trazado 997422" d="M127.57,58.867a61.147,61.147,0,0,0-13.812-31.819,7.032,7.032,0,0,0-9.895-9.474A61.057,61.057,0,0,0,72.251,5.223,7.034,7.034,0,0,0,58.59,5.5,61.141,61.141,0,0,0,28.26,18.467,7.036,7.036,0,0,0,18.495,28.3,61.09,61.09,0,0,0,5.7,58.808a7.039,7.039,0,0,0-.168,13.784,61.072,61.072,0,0,0,12.4,31.127,7.035,7.035,0,0,0,9.558,9.934,61.136,61.136,0,0,0,31.05,13.58,7.036,7.036,0,0,0,13.784.277,61.084,61.084,0,0,0,31.843-12.58,7.034,7.034,0,0,0,9.846-9.523,61.162,61.162,0,0,0,13.728-32.882,7.036,7.036,0,0,0-.165-13.658M107.7,30.513a7,7,0,0,0,3.9-1.179A58.067,58.067,0,0,1,124.414,58.85a7.046,7.046,0,0,0-4.5,3.257l-17.982-6.743c.014-.2.028-.4.028-.6a7.036,7.036,0,0,0-2.98-5.749l7.866-18.558a7.621,7.621,0,0,0,.853.056m-3.8-1.12L96.085,47.828a6.963,6.963,0,0,0-7.75,4.475L55.8,44.81a6.845,6.845,0,0,0-.147-1.4L101.82,27.333a7.058,7.058,0,0,0,2.081,2.06M65.456,14.082a7.041,7.041,0,0,0,6.911-5.711A57.971,57.971,0,0,1,101.68,19.835a7,7,0,0,0-1.018,3.636,7.392,7.392,0,0,0,.067.93l-46.4,16.153a7.062,7.062,0,0,0-1.274-1.274L65.228,14.072c.077,0,.151.011.228.011M58.608,8.649a7.043,7.043,0,0,0,3.542,4.609L50.219,37.965a7.061,7.061,0,0,0-1.453-.151,6.99,6.99,0,0,0-4.012,1.26L30.611,27.263a7,7,0,0,0-.239-6.48A58.017,58.017,0,0,1,58.608,8.649m-44.7,55.54L43.16,49.1a7.015,7.015,0,0,0,5.549,2.791L58.734,83.936a7.157,7.157,0,0,0-1.551,1.716L13.823,67.586a6.994,6.994,0,0,0,.26-1.867,7.076,7.076,0,0,0-.172-1.53M20.818,30.4a7.036,7.036,0,0,0,7.859-.67L42.64,41.387a7.022,7.022,0,0,0-.776,4.865L12.566,61.36a7.039,7.039,0,0,0-3.728-2.443A57.992,57.992,0,0,1,20.818,30.4m2.913,70.265a7.02,7.02,0,0,0-3.5.934A57.94,57.94,0,0,1,8.677,72.56a7.047,7.047,0,0,0,3.654-2.2L56.122,88.6a7.55,7.55,0,0,0-.056.846,7.04,7.04,0,0,0,.421,2.38L30,104.516a7.04,7.04,0,0,0-6.272-3.854M58.671,124.1A58.075,58.075,0,0,1,29.7,111.424a6.967,6.967,0,0,0,1.074-3.721l0-.081L58.19,94.481a7.041,7.041,0,0,0,2.485,1.569l1.643,23.612a7.041,7.041,0,0,0-3.647,4.437m2.917-41.521L51.777,51.212a7.051,7.051,0,0,0,3.345-3.345l32.795,7.55a7,7,0,0,0,1.12,3.2L66.544,83.3a6.954,6.954,0,0,0-4.956-.727m10.723,41.794a7.039,7.039,0,0,0-6.855-5.455l-.053,0L63.841,96.453a7.028,7.028,0,0,0,4.3-2.088l32.788,14.462c0,.063-.011.119-.011.183a7.006,7.006,0,0,0,1.042,3.672,57.968,57.968,0,0,1-29.653,11.692m29.411-18.617L69.787,91.666a7,7,0,0,0-.923-6.262L91.29,60.787a7,7,0,0,0,3.633,1.018,7.75,7.75,0,0,0,.863-.056l8.382,41.335a7.025,7.025,0,0,0-2.447,2.671m10.1-2.633a7,7,0,0,0-4.679-1.106L98.759,60.665a7.069,7.069,0,0,0,2.218-2.317l17.972,6.739a6.245,6.245,0,0,0-.032.632,7.039,7.039,0,0,0,5.658,6.9,58.016,58.016,0,0,1-12.752,30.5" transform="translate(0 0.001)" fill="#1e535a"/>
        </g>
      </g>
    </g>
    <g id="Elipse_13614" data-name="Elipse 13614" transform="translate(210.059 4348.445)" fill="#fff" stroke="#1e535a" stroke-width="3">
      <ellipse cx="42.232" cy="42.233" rx="42.232" ry="42.233" stroke="none"/>
      <ellipse cx="42.232" cy="42.233" rx="40.732" ry="40.733" fill="none"/>
    </g>
    <g id="Grupo_1212914" data-name="Grupo 1212914" transform="translate(227.059 4365.445)">
      <g id="Grupo_1212913" data-name="Grupo 1212913" clip-path="url(#clip-path-2)">
        <path id="Trazado_1278644" data-name="Trazado 1278644" d="M36.433,232.466l12.022-7.995a1.791,1.791,0,0,1,1.78,3.106l-16.161,10.77a8.946,8.946,0,0,1-8.592,1L13.806,233.94l-9.42,4.1L0,228.826l9.865-4.882a13.865,13.865,0,0,1,4.262-1.678c3.815-.562,6.194,1.271,8.5,4.106l4.273,1.385,7.243.185a1.791,1.791,0,0,1,1.764,1.565c.115.778-.487,1.964-1.482,1.945l-13.444-.247a1.015,1.015,0,0,0-.917.791.952.952,0,0,0,.862,1.022l13.358.287a3.811,3.811,0,0,0,2.152-.84" transform="translate(0 -189.238)" fill="#1e535a"/>
        <path id="Trazado_1278645" data-name="Trazado 1278645" d="M79.425,23.309l-.87,3.776-3.41-.019-.88-3.744-2.506-1.047-3.265,2.035L66.07,21.891l1.808-2.871a1.324,1.324,0,0,0-.053-1.129l-.793-1.78-3.7-.867,0-3.418,3.717-.86,1.063-2.522L66.081,5.2,68.49,2.762l3.288,2.051,2.51-1.1.841-3.7L78.567,0l.7,3.17a1.31,1.31,0,0,0,.873.894l1.837.727,3.194-2.013L87.612,5.2,85.739,8.2c-.194.311.155,1.049.3,1.35l.689,1.437,3.632.839.011,3.4-3.548.866c-.313.122-.537.9-.682,1.234-.156.359-.559,1.1-.451,1.454l1.919,3.1L85.187,24.3l-3.216-2.014Zm2.952-9.775a5.526,5.526,0,1,0-5.526,5.526,5.526,5.526,0,0,0,5.526-5.526" transform="translate(-53.941)" fill="#1e535a"/>
        <path id="Trazado_1278646" data-name="Trazado 1278646" d="M257.939,105.62l-1.38.036a6.588,6.588,0,0,0-.529-1.849,2.378,2.378,0,0,0-1.666-.734,4.373,4.373,0,0,0-1.745.941l-.97-.916.966-1.635a2.876,2.876,0,0,0-.708-1.785,3.984,3.984,0,0,0-1.814-.531,2.7,2.7,0,0,1-.023-1.4,5.4,5.4,0,0,0,1.8-.538,3.314,3.314,0,0,0,.782-1.76l-1.008-1.686.912-.91,1.674.987a3.16,3.16,0,0,0,1.748-.737,5.462,5.462,0,0,0,.583-1.928l1.347.028a5.3,5.3,0,0,0,.511,1.836,3.006,3.006,0,0,0,1.806.8l1.67-.981.91.878-.9,1.612a2.138,2.138,0,0,0,.7,1.875,5.289,5.289,0,0,0,1.816.516l.022,1.38a4.684,4.684,0,0,0-1.9.551,2.857,2.857,0,0,0-.7,1.814l.947,1.612-.911.9-1.674-.988a3.3,3.3,0,0,0-1.771.759,4.357,4.357,0,0,0-.491,1.849m2.017-7.193a2.732,2.732,0,1,0-2.732,2.732,2.732,2.732,0,0,0,2.732-2.732" transform="translate(-212.939 -77.664)" fill="#1e535a"/>
        <path id="Trazado_1278647" data-name="Trazado 1278647" d="M252.017,217.614l-8.984,5.983a3.884,3.884,0,0,0-2.026-2.945l7.719-5.113a1.815,1.815,0,0,1,2.4.708Z" transform="translate(-205.287 -183.396)" fill="#1e535a"/>
        <path id="Trazado_1278648" data-name="Trazado 1278648" d="M194.012,207.107l-6.339,4.232-6.149-.17,9.1-6.084a1.771,1.771,0,0,1,2.37.521Z" transform="translate(-154.619 -174.467)" fill="#1e535a"/>
      </g>
    </g>
  </g>
</svg>
