<svg xmlns="http://www.w3.org/2000/svg" xmlns:xlink="http://www.w3.org/1999/xlink" width="84" height="84" viewBox="0 0 84 84">
  <defs>
    <clipPath id="clip-path">
      <rect id="Rectángulo_462310" data-name="Rectángulo 462310" width="77.516" height="77.524" fill="#1e535a"/>
    </clipPath>
  </defs>
  <g id="Grupo_1212330" data-name="Grupo 1212330" transform="translate(0.434)">
    <g id="Grupo_1119665" data-name="Grupo 1119665" transform="translate(-0.434)">
      <rect id="Rectángulo_402006" data-name="Rectángulo 402006" width="84" height="84" rx="5" fill="#a4e7f0"/>
    </g>
    <g id="Grupo_1212723" data-name="Grupo 1212723" transform="translate(2.567 3)">
      <g id="Grupo_1212722" data-name="Grupo 1212722" clip-path="url(#clip-path)">
        <path id="Trazado_1277715" data-name="Trazado 1277715" d="M63.323,73.429A3.914,3.914,0,0,1,59.5,77.523H20.671a3.841,3.841,0,0,1-3.858-3.793L16.8,45.239a34.454,34.454,0,0,1-4.588-.159,14.2,14.2,0,0,1,3.48-28.18,19.351,19.351,0,0,1,38.326-.458A15.508,15.508,0,1,1,65.99,44.722a30.45,30.45,0,0,1-7.838.524l.02,5.233c2.559-.544,5.123,1.037,5.126,3.718ZM35.392,36.288c1.81.01,2.32,2.25,2,3.749l16.951.028a3.746,3.746,0,0,1,3.531,2.542l4.075.028A12.92,12.92,0,1,0,53.636,19.87a1.738,1.738,0,0,1-1.4.04,1.617,1.617,0,0,1-.6-1.094,16.764,16.764,0,0,0-33.479-.61,1.838,1.838,0,0,1-.525,1.179,2.286,2.286,0,0,1-1.423.184,11.614,11.614,0,1,0-3.1,23c1.265.115,2.46.058,3.7.056L16.8,38.852A2.522,2.522,0,0,1,19.329,36.2Zm17.556,11.36.064,2.762,2.5-.026L55.5,43.736a1.286,1.286,0,0,0-1.308-1.1H36.914a3.024,3.024,0,0,1-1.971-3.818l-15.6.006.007,34.852a1.361,1.361,0,0,0,1.416,1.252A1.47,1.47,0,0,0,21.982,73.7l.029-19.724A3.753,3.753,0,0,1,25.8,50.392l.033-2.457c.015-1.14.724-2.65,2.161-2.649l22.846.007a2.443,2.443,0,0,1,2.111,2.355m-2.572.129H28.394v2.631H50.376ZM60.7,52.987l-36.277,0,0,21.938,36.277,0Z" transform="translate(0 0)" fill="#1e535a"/>
        <path id="Trazado_1277716" data-name="Trazado 1277716" d="M185.577,89.706a1.362,1.362,0,0,1-1.16,1.512,1.3,1.3,0,0,1-1.436-1.167l-.012-9.825c-.617.629-1.364.89-2.011.424a1.322,1.322,0,0,1-.206-1.928l2.456-2.5c.353-.36,1.409-.641,1.808-.244l2.818,2.806a1.3,1.3,0,0,1-.293,1.91c-.6.36-1.221.2-1.96-.458Z" transform="translate(-140.348 -58.948)" fill="#1e535a"/>
        <path id="Trazado_1277717" data-name="Trazado 1277717" d="M115.63,89.905a1.3,1.3,0,1,1-2.6-.1l0-9.594c-.637.557-1.251.8-1.768.568a1.233,1.233,0,0,1-.553-1.9l2.532-2.6a1.4,1.4,0,0,1,2.059-.1l2.734,2.834c.446.462-.087,1.582-.613,1.774a1.713,1.713,0,0,1-1.773-.559Z" transform="translate(-85.902 -58.939)" fill="#1e535a"/>
      </g>
    </g>
  </g>
</svg>
