<svg xmlns="http://www.w3.org/2000/svg" xmlns:xlink="http://www.w3.org/1999/xlink" width="133" height="133" viewBox="0 0 133 133">
  <defs>
    <clipPath id="clip-path">
      <rect id="Rectángulo_454829" data-name="Rectángulo 454829" width="133" height="133" fill="#1e535a"/>
    </clipPath>
    <clipPath id="clip-path-2">
      <rect id="Rectángulo_462338" data-name="Rectángulo 462338" width="66.897" height="40" fill="#1e535a"/>
    </clipPath>
  </defs>
  <g id="Grupo_1212339" data-name="Grupo 1212339" transform="translate(-185.711 -4323.859)">
    <g id="Grupo_1177591" data-name="Grupo 1177591" transform="translate(185.711 4323.859)">
      <g id="Grupo_1177589" data-name="Grupo 1177589" transform="translate(0 0)">
        <g id="Grupo_1177587" data-name="Grupo 1177587" clip-path="url(#clip-path)">
          <path id="Trazado_997422" data-name="Trazado 997422" d="M127.57,58.867a61.147,61.147,0,0,0-13.812-31.819,7.032,7.032,0,0,0-9.895-9.474A61.057,61.057,0,0,0,72.251,5.223,7.034,7.034,0,0,0,58.59,5.5,61.141,61.141,0,0,0,28.26,18.466,7.036,7.036,0,0,0,18.495,28.3,61.09,61.09,0,0,0,5.7,58.808a7.038,7.038,0,0,0-.168,13.784,61.072,61.072,0,0,0,12.4,31.127,7.035,7.035,0,0,0,9.558,9.933,61.136,61.136,0,0,0,31.05,13.58,7.036,7.036,0,0,0,13.784.277,61.084,61.084,0,0,0,31.843-12.58,7.034,7.034,0,0,0,9.846-9.523,61.162,61.162,0,0,0,13.728-32.882,7.036,7.036,0,0,0-.165-13.658M107.7,30.513a7,7,0,0,0,3.9-1.179A58.067,58.067,0,0,1,124.414,58.85a7.046,7.046,0,0,0-4.5,3.257l-17.982-6.743c.014-.2.028-.4.028-.6a7.036,7.036,0,0,0-2.98-5.749l7.866-18.558a7.621,7.621,0,0,0,.853.056m-3.8-1.12L96.085,47.828a6.963,6.963,0,0,0-7.75,4.475L55.8,44.809a6.845,6.845,0,0,0-.147-1.4L101.82,27.333a7.058,7.058,0,0,0,2.081,2.06M65.456,14.082a7.041,7.041,0,0,0,6.911-5.711A57.971,57.971,0,0,1,101.68,19.835a7,7,0,0,0-1.018,3.636,7.392,7.392,0,0,0,.067.93l-46.4,16.153a7.062,7.062,0,0,0-1.274-1.274L65.228,14.072c.077,0,.151.011.228.011M58.608,8.649a7.042,7.042,0,0,0,3.542,4.609L50.219,37.965a7.061,7.061,0,0,0-1.453-.151,6.99,6.99,0,0,0-4.012,1.26L30.611,27.263a7,7,0,0,0-.239-6.48A58.017,58.017,0,0,1,58.608,8.649m-44.7,55.54L43.16,49.1a7.015,7.015,0,0,0,5.549,2.791L58.734,83.936a7.157,7.157,0,0,0-1.551,1.716L13.823,67.586a6.994,6.994,0,0,0,.26-1.867,7.075,7.075,0,0,0-.172-1.53M20.818,30.4a7.036,7.036,0,0,0,7.859-.67L42.64,41.387a7.022,7.022,0,0,0-.776,4.865l-29.3,15.107a7.039,7.039,0,0,0-3.728-2.443A57.992,57.992,0,0,1,20.818,30.4m2.913,70.264a7.02,7.02,0,0,0-3.5.934A57.94,57.94,0,0,1,8.677,72.56a7.047,7.047,0,0,0,3.654-2.2L56.122,88.6a7.549,7.549,0,0,0-.056.846,7.039,7.039,0,0,0,.421,2.38L30,104.516a7.04,7.04,0,0,0-6.272-3.854M58.671,124.1A58.075,58.075,0,0,1,29.7,111.423a6.967,6.967,0,0,0,1.074-3.721l0-.081L58.19,94.48a7.041,7.041,0,0,0,2.485,1.569l1.643,23.612a7.041,7.041,0,0,0-3.647,4.437m2.917-41.521L51.777,51.212a7.051,7.051,0,0,0,3.345-3.345l32.795,7.55a7,7,0,0,0,1.12,3.2L66.544,83.3a6.954,6.954,0,0,0-4.956-.727m10.723,41.794a7.039,7.039,0,0,0-6.855-5.455l-.053,0L63.841,96.453a7.029,7.029,0,0,0,4.3-2.088l32.788,14.461c0,.063-.011.119-.011.183a7.006,7.006,0,0,0,1.042,3.672,57.968,57.968,0,0,1-29.653,11.692m29.411-18.617L69.787,91.665a7,7,0,0,0-.923-6.262L91.29,60.787a7,7,0,0,0,3.633,1.018,7.75,7.75,0,0,0,.863-.056l8.382,41.334a7.025,7.025,0,0,0-2.447,2.671m10.1-2.633a7,7,0,0,0-4.679-1.106L98.759,60.664a7.069,7.069,0,0,0,2.218-2.317l17.972,6.739a6.245,6.245,0,0,0-.032.632,7.039,7.039,0,0,0,5.658,6.9,58.016,58.016,0,0,1-12.752,30.5" transform="translate(0 0.001)" fill="#1e535a"/>
        </g>
      </g>
    </g>
    <g id="Elipse_13614" data-name="Elipse 13614" transform="translate(210.273 4348.213)" fill="#fff" stroke="#1e535a" stroke-width="3">
      <ellipse cx="42.232" cy="42.233" rx="42.232" ry="42.233" stroke="none"/>
      <ellipse cx="42.232" cy="42.233" rx="40.732" ry="40.733" fill="none"/>
    </g>
    <g id="Grupo_1212736" data-name="Grupo 1212736" transform="translate(219.119 4373.741)">
      <g id="Grupo_1212735" data-name="Grupo 1212735" clip-path="url(#clip-path-2)">
        <path id="Trazado_1277965" data-name="Trazado 1277965" d="M195.639,4.744c.212,0,.3.669.234.883l-5.63,18.047a1.088,1.088,0,0,1-.983.794l-2.382.012a1.063,1.063,0,0,1-1-.775L182.341,9.1l-3.5,14.551a1.036,1.036,0,0,1-.992.794h-2.363a1.058,1.058,0,0,1-1.01-.765L168.985,5.652a.962.962,0,0,1,.2-.911l2.717-.029a1.054,1.054,0,0,1,.989.8l3.814,14.933,3.535-14.891a1.083,1.083,0,0,1,.945-.834h2.381a.98.98,0,0,1,.932.716l3.607,15.222,3.919-15.1a1.1,1.1,0,0,1,1.067-.842Z" transform="translate(-148 -4.128)" fill="#1e535a"/>
        <path id="Trazado_1277966" data-name="Trazado 1277966" d="M59.754,215.593a1.118,1.118,0,0,1,1.186.564.98.98,0,0,1-.329,1.144c-8.144,5.994-19.616,8.782-29.62,8.314a48.968,48.968,0,0,1-30.8-12.658.811.811,0,0,1-.166-.713A.725.725,0,0,1,.844,212a66.829,66.829,0,0,0,35.439,8.862l3.892-.26a66.868,66.868,0,0,0,19.578-5.005" transform="translate(0 -185.665)" fill="#1e535a"/>
        <path id="Trazado_1277967" data-name="Trazado 1277967" d="M22.119,15.677a5.927,5.927,0,0,1,3.216-5.854c2.842-1.457,6.14-.935,9.181-.274.047-2.726.129-5.34-2.645-5.986-2.805-.587-5.037.135-7.581,1.127a1.083,1.083,0,0,1-.628,0,.718.718,0,0,1-.234-.494l0-1.48a1.186,1.186,0,0,1,.6-.9A14.122,14.122,0,0,1,33.817.723c2.947.782,4.337,3.393,4.345,6.335l.022,7.685c.009,3.067,1.865,4.024.778,4.762L37.48,20.511c-1.07.727-2.006-1.039-2.707-2.488a8.43,8.43,0,0,1-7.9,2.969,5.471,5.471,0,0,1-4.759-5.315M31.3,17.846c2.832-1.046,3.412-2.916,3.25-5.795a15,15,0,0,0-5.741-.362,3.214,3.214,0,0,0-2.806,3.561,2.8,2.8,0,0,0,2.48,2.88,7.292,7.292,0,0,0,2.816-.283" transform="translate(-19.366 -0.254)" fill="#1e535a"/>
        <path id="Trazado_1277968" data-name="Trazado 1277968" d="M410.683,19.617c-3.159,1.912-7.565,1.556-10.934.1-1.1-.477-1.057-1.525-.887-2.9.027-.224.628-.308.859-.2a12.625,12.625,0,0,0,6.957,1.2,4.346,4.346,0,0,0,2.154-.81,2.374,2.374,0,0,0,.215-3.618,4.853,4.853,0,0,0-1.7-.9l-4.4-1.425a5.7,5.7,0,0,1-2.974-2.23,5.2,5.2,0,0,1,.453-6.567c3.843-4.1,11.816-1.631,11.866-.33l.064,1.7c0,.124-.1.418-.21.429l-.614.066a10.34,10.34,0,0,0-6.966-.851,2.376,2.376,0,0,0-1.832,2c-.336,3.132,4.42,3.129,7.874,4.8a4.964,4.964,0,0,1,2.859,4.245,5.664,5.664,0,0,1-2.779,5.3" transform="translate(-349.323 0)" fill="#1e535a"/>
        <path id="Trazado_1277969" data-name="Trazado 1277969" d="M445.877,213.035c.9-2.237,2.7-6.561,2.049-8.309-.53-1.413-6.353-.734-8.614-.439-.2.026-.586-.084-.615-.238a.88.88,0,0,1,.231-.619c4.377-3.2,11.88-2.2,12.138-1.051.5,2.248-.591,5.529-1.675,7.666a11.492,11.492,0,0,1-2.784,3.473l-.552.058c-.146.015-.237-.4-.178-.542" transform="translate(-384.295 -176.315)" fill="#1e535a"/>
      </g>
    </g>
  </g>
</svg>
