<svg xmlns="http://www.w3.org/2000/svg" xmlns:xlink="http://www.w3.org/1999/xlink" width="128" height="128" viewBox="0 0 128 128">
  <defs>
    <clipPath id="clip-path">
      <rect id="Rectángulo_454829" data-name="Rectángulo 454829" width="128" height="128" fill="#1e535a"/>
    </clipPath>
    <clipPath id="clip-path-2">
      <rect id="Rectángulo_463091" data-name="Rectángulo 463091" width="47.697" height="49.333" fill="#1e535a"/>
    </clipPath>
  </defs>
  <g id="Grupo_1212464" data-name="Grupo 1212464" transform="translate(0.346 0.227)">
    <g id="Grupo_1177591" data-name="Grupo 1177591" transform="translate(-0.346 -0.227)">
      <g id="Grupo_1177589" data-name="Grupo 1177589" transform="translate(0 0)">
        <g id="Grupo_1177587" data-name="Grupo 1177587" clip-path="url(#clip-path)">
          <path id="Trazado_997422" data-name="Trazado 997422" d="M122.774,56.654a58.848,58.848,0,0,0-13.293-30.623,6.768,6.768,0,0,0-9.523-9.118A58.761,58.761,0,0,0,69.535,5.027a6.769,6.769,0,0,0-13.148.267A58.842,58.842,0,0,0,27.2,17.772a6.771,6.771,0,0,0-9.4,9.462A58.794,58.794,0,0,0,5.483,56.6a6.774,6.774,0,0,0-.162,13.266A58.776,58.776,0,0,0,17.252,99.82a6.771,6.771,0,0,0,9.2,9.56,58.838,58.838,0,0,0,29.883,13.07,6.771,6.771,0,0,0,13.266.267,58.788,58.788,0,0,0,30.646-12.107,6.769,6.769,0,0,0,9.476-9.165A58.863,58.863,0,0,0,122.933,69.8a6.771,6.771,0,0,0-.159-13.144m-19.12-27.288a6.733,6.733,0,0,0,3.75-1.135,55.884,55.884,0,0,1,12.333,28.407,6.781,6.781,0,0,0-4.327,3.135L98.1,53.283c.013-.189.027-.382.027-.578a6.772,6.772,0,0,0-2.868-5.533l7.57-17.86a7.335,7.335,0,0,0,.821.054M100,28.288,92.472,46.03a6.7,6.7,0,0,0-7.459,4.307L53.705,43.125a6.588,6.588,0,0,0-.142-1.348L97.992,26.305a6.793,6.793,0,0,0,2,1.983M63,13.553a6.777,6.777,0,0,0,6.651-5.5A55.792,55.792,0,0,1,97.857,19.09a6.739,6.739,0,0,0-.98,3.5,7.114,7.114,0,0,0,.064.9L52.29,39.031A6.8,6.8,0,0,0,51.064,37.8L62.775,13.543c.074,0,.145.01.22.01M56.4,8.324a6.778,6.778,0,0,0,3.409,4.435L48.331,36.538a6.8,6.8,0,0,0-1.4-.145,6.727,6.727,0,0,0-3.861,1.213L29.461,26.238A6.736,6.736,0,0,0,29.231,20,55.836,55.836,0,0,1,56.4,8.324M13.387,61.776l28.15-14.519a6.751,6.751,0,0,0,5.341,2.686l9.648,30.839a6.887,6.887,0,0,0-1.493,1.652L13.3,65.046a6.731,6.731,0,0,0,.25-1.8,6.81,6.81,0,0,0-.166-1.473m6.648-32.521a6.771,6.771,0,0,0,7.564-.645L41.037,39.831a6.758,6.758,0,0,0-.747,4.682l-28.2,14.539A6.774,6.774,0,0,0,8.506,56.7,55.812,55.812,0,0,1,20.036,29.254m2.8,67.623a6.756,6.756,0,0,0-3.365.9A55.762,55.762,0,0,1,8.351,69.832a6.783,6.783,0,0,0,3.517-2.121L54.013,85.27a7.266,7.266,0,0,0-.054.814,6.775,6.775,0,0,0,.405,2.29L28.876,100.587a6.775,6.775,0,0,0-6.037-3.709m33.626,22.556a55.892,55.892,0,0,1-27.883-12.2,6.705,6.705,0,0,0,1.034-3.581l0-.078L56,90.929a6.776,6.776,0,0,0,2.392,1.51l1.581,22.725a6.776,6.776,0,0,0-3.51,4.27m2.807-39.96L49.831,49.287a6.786,6.786,0,0,0,3.219-3.219l31.562,7.266a6.736,6.736,0,0,0,1.078,3.081L64.042,80.173a6.692,6.692,0,0,0-4.77-.7M69.592,119.7a6.774,6.774,0,0,0-6.6-5.25l-.051,0-1.5-21.623a6.764,6.764,0,0,0,4.142-2.01l31.555,13.918c0,.061-.01.115-.01.176a6.743,6.743,0,0,0,1,3.534A55.789,55.789,0,0,1,69.592,119.7M97.9,101.779,67.164,88.22a6.736,6.736,0,0,0-.888-6.027L87.858,58.5a6.736,6.736,0,0,0,3.5.98,7.46,7.46,0,0,0,.831-.054l8.067,39.781a6.761,6.761,0,0,0-2.355,2.571m9.722-2.534a6.735,6.735,0,0,0-4.5-1.064l-8.07-39.8a6.8,6.8,0,0,0,2.135-2.23l17.3,6.486a6.009,6.009,0,0,0-.03.608,6.774,6.774,0,0,0,5.445,6.641A55.835,55.835,0,0,1,107.62,99.246" transform="translate(0 0.001)" fill="#1e535a"/>
        </g>
      </g>
    </g>
    <g id="Elipse_13614" data-name="Elipse 13614" transform="translate(23.745 24.773)" fill="#fff" stroke="#1e535a" stroke-width="3">
      <ellipse cx="39.732" cy="39.733" rx="39.732" ry="39.733" stroke="none"/>
      <ellipse cx="39.732" cy="39.733" rx="38.232" ry="38.233" fill="none"/>
    </g>
    <g id="Grupo_1213345" data-name="Grupo 1213345" transform="translate(39.654 39.773)">
      <path id="Trazado_1279908" data-name="Trazado 1279908" d="M56.225,125.623l-4.33,4.319,1.038,2.1-.755,1.818-2.218.739,0,4.71-3.3,0V116.292l9.866-.012,0,7.392,4.34.015-.738,2.226-1.821.762Z" transform="translate(-40.063 -99.845)" fill="#1e535a"/>
      <path id="Trazado_1279909" data-name="Trazado 1279909" d="M198.351,132.055l1.039-2.105-4.316-4.317-2.1,1.046-1.827-.762-.732-2.222,4.337-.015.009-7.39,9.862,0V139.3l-3.292.029-.01-4.726-2.217-.737Z" transform="translate(-163.505 -99.852)" fill="#1e535a"/>
      <g id="Grupo_1213344" data-name="Grupo 1213344">
        <g id="Grupo_1213343" data-name="Grupo 1213343" clip-path="url(#clip-path-2)">
          <path id="Trazado_1279910" data-name="Trazado 1279910" d="M62.805,96.461a1.661,1.661,0,0,0-1.737-1.822l-1.537.009V92.992l2.557-.005a2.492,2.492,0,0,1,2.371,2.421V122.6H23.343l0-27.2a2.509,2.509,0,0,1,2.236-2.412H28.27l0,1.657a19.046,19.046,0,0,0-1.95.047A1.582,1.582,0,0,0,25,96.389l0,22.874a1.615,1.615,0,0,0,1.5,1.689l34.682,0a1.621,1.621,0,0,0,1.621-1.7Z" transform="translate(-20.041 -79.844)" fill="#1e535a"/>
          <path id="Trazado_1279911" data-name="Trazado 1279911" d="M44.42,315.654l-4.931,0v3.266l-1.666-.009v-3.26h-4.91v3.269l-28.755,0A4.142,4.142,0,0,1,0,314.957a.88.88,0,0,1,.9-.987l16.406,0c-.282,1.443.512,3.178,2.1,3.23,2.989.1,5.911.1,8.9,0,1.585-.052,2.381-1.789,2.1-3.229l16.411-.006c.378,0,.864.323.874.7a4.079,4.079,0,0,1-3.268,4.154Z" transform="translate(0 -269.591)" fill="#1e535a"/>
          <path id="Trazado_1279912" data-name="Trazado 1279912" d="M101.829,194.26a8.223,8.223,0,1,0-16.117,0l-4.287.019-.014-3.523,1.945-.638a13.208,13.208,0,0,1,1.282-3.062l-.906-1.867,2.614-2.615,1.826.911a16.664,16.664,0,0,1,3.1-1.286l.625-1.9,3.709-.015.691,1.951a14.527,14.527,0,0,1,3.068,1.251l1.825-.9,2.608,2.609-.909,1.864a13.191,13.191,0,0,1,1.285,3.069l1.939.633,0,3.52Z" transform="translate(-69.904 -154.795)" fill="#1e535a"/>
          <path id="Trazado_1279913" data-name="Trazado 1279913" d="M54.725,22.163l-1.62.03,0-9.047H44.882l-.011-4.91-4.128-.006,0-8.226,9.884,0V8.23l-4.134.007,0,3.274H54.72Zm-7.4-18.9H44.033V4.949h3.294Z" transform="translate(-34.983 -0.004)" fill="#1e535a"/>
          <path id="Trazado_1279914" data-name="Trazado 1279914" d="M199.545,22.168l-1.617.014,0-10.676,8.215,0,.024-3.276-4.14-.007V0l9.883,0V8.225l-4.128.01-.011,4.909-8.219,0Zm9.071-18.907h-3.294V4.945h3.294Z" transform="translate(-169.949)" fill="#1e535a"/>
          <path id="Trazado_1279915" data-name="Trazado 1279915" d="M139.725,22.161l-1.654.029,0-13.946-4.093-.011V.011h9.845V8.235l-4.09,0Zm.809-18.89h-3.273V4.955h3.273Z" transform="translate(-115.038 -0.009)" fill="#1e535a"/>
          <path id="Trazado_1279916" data-name="Trazado 1279916" d="M151.666,249.255l-5.7.011a3.231,3.231,0,0,1,.7-4.154,3.3,3.3,0,0,1,4.994,4.142" transform="translate(-124.941 -209.794)" fill="#1e535a"/>
          <path id="Trazado_1279917" data-name="Trazado 1279917" d="M143.07,315.675h-8.12c-.221-.025-.739-.248-.8-.457a3.765,3.765,0,0,1-.056-1.23h9.77c.134.95.046,1.524-.8,1.687" transform="translate(-115.122 -269.608)" fill="#1e535a"/>
        </g>
      </g>
    </g>
  </g>
</svg>
