<svg xmlns="http://www.w3.org/2000/svg" xmlns:xlink="http://www.w3.org/1999/xlink" width="150" height="150" viewBox="0 0 150 150">
  <defs>
    <clipPath id="clip-path">
      <rect id="Rectángulo_454829" data-name="Rectángulo 454829" width="150" height="150" fill="#1e535a"/>
    </clipPath>
    <clipPath id="clip-path-2">
      <rect id="Rectángulo_462336" data-name="Rectángulo 462336" width="53.844" height="50" transform="translate(0 0)" fill="#1e535a"/>
    </clipPath>
  </defs>
  <g id="Grupo_1212337" data-name="Grupo 1212337" transform="translate(-185.711 -4323.859)">
    <g id="Grupo_1177591" data-name="Grupo 1177591" transform="translate(185.711 4323.859)">
      <g id="Grupo_1177589" data-name="Grupo 1177589" transform="translate(0 0)">
        <g id="Grupo_1177587" data-name="Grupo 1177587" clip-path="url(#clip-path)">
          <path id="Trazado_997422" data-name="Trazado 997422" d="M143.876,66.392A68.963,68.963,0,0,0,128.3,30.506a7.931,7.931,0,0,0-11.16-10.685A68.861,68.861,0,0,0,81.486,5.891,7.933,7.933,0,0,0,66.079,6.2,68.956,68.956,0,0,0,31.872,20.827,7.935,7.935,0,0,0,20.859,31.915,68.9,68.9,0,0,0,6.425,66.324a7.938,7.938,0,0,0-.19,15.546,68.878,68.878,0,0,0,13.982,35.106A7.934,7.934,0,0,0,31,128.179,68.951,68.951,0,0,0,66.016,143.5a7.935,7.935,0,0,0,15.546.313,68.892,68.892,0,0,0,35.914-14.188,7.933,7.933,0,0,0,11.1-10.74A68.98,68.98,0,0,0,144.062,81.8a7.935,7.935,0,0,0-.186-15.4M121.469,34.413a7.89,7.89,0,0,0,4.394-1.33,65.489,65.489,0,0,1,14.453,33.289,7.946,7.946,0,0,0-5.071,3.674l-20.281-7.6c.016-.222.032-.447.032-.677a7.935,7.935,0,0,0-3.361-6.484l8.871-20.93a8.6,8.6,0,0,0,.962.063m-4.287-1.263-8.816,20.791a7.853,7.853,0,0,0-8.741,5.047L62.936,50.537a7.72,7.72,0,0,0-.166-1.58l52.065-18.131a7.961,7.961,0,0,0,2.348,2.324M73.822,15.882a7.941,7.941,0,0,0,7.795-6.441,65.381,65.381,0,0,1,33.059,12.929,7.9,7.9,0,0,0-1.148,4.1,8.337,8.337,0,0,0,.075,1.049L61.277,45.739A7.965,7.965,0,0,0,59.84,44.3L73.565,15.87c.087,0,.17.012.257.012M66.1,9.754a7.943,7.943,0,0,0,3.994,5.2L56.637,42.817A7.963,7.963,0,0,0,55,42.647a7.883,7.883,0,0,0-4.525,1.421L34.524,30.747a7.894,7.894,0,0,0-.269-7.308A65.433,65.433,0,0,1,66.1,9.754M15.688,72.393,48.676,55.378a7.912,7.912,0,0,0,6.259,3.147L66.241,94.665a8.071,8.071,0,0,0-1.75,1.936l-48.9-20.376a7.888,7.888,0,0,0,.293-2.106,7.98,7.98,0,0,0-.194-1.726m7.791-38.111a7.935,7.935,0,0,0,8.864-.756L48.091,46.677a7.919,7.919,0,0,0-.875,5.487L14.172,69.2a7.939,7.939,0,0,0-4.2-2.755A65.4,65.4,0,0,1,23.479,34.282m3.286,79.246a7.918,7.918,0,0,0-3.943,1.053A65.346,65.346,0,0,1,9.786,81.835a7.948,7.948,0,0,0,4.121-2.486L63.3,99.926a8.514,8.514,0,0,0-.063.954,7.939,7.939,0,0,0,.475,2.684L33.839,117.875a7.94,7.94,0,0,0-7.074-4.347M66.17,139.96a65.5,65.5,0,0,1-32.675-14.295,7.858,7.858,0,0,0,1.211-4.2l0-.091,30.926-14.821a7.941,7.941,0,0,0,2.8,1.77l1.853,26.63a7.941,7.941,0,0,0-4.113,5m3.29-46.828L58.4,57.758a7.952,7.952,0,0,0,3.773-3.773L99.154,62.5a7.894,7.894,0,0,0,1.263,3.61L75.049,93.952a7.843,7.843,0,0,0-5.59-.819m12.094,47.136a7.938,7.938,0,0,0-7.731-6.152l-.059,0L72,108.782a7.927,7.927,0,0,0,4.853-2.355l36.978,16.31c0,.071-.012.135-.012.206A7.9,7.9,0,0,0,115,127.083a65.377,65.377,0,0,1-33.443,13.186m33.17-21-36.016-15.89a7.894,7.894,0,0,0-1.041-7.062l25.292-27.762a7.894,7.894,0,0,0,4.1,1.148,8.74,8.74,0,0,0,.974-.063l9.453,46.618a7.923,7.923,0,0,0-2.759,3.013m11.393-2.969a7.893,7.893,0,0,0-5.277-1.247l-9.457-46.638a7.973,7.973,0,0,0,2.5-2.613l20.269,7.6a7.042,7.042,0,0,0-.036.713A7.938,7.938,0,0,0,140.5,81.9a65.431,65.431,0,0,1-14.382,34.4" transform="translate(0 0.002)" fill="#1e535a"/>
        </g>
      </g>
    </g>
    <g id="Elipse_13614" data-name="Elipse 13614" transform="translate(210.273 4348.213)" fill="#fff" stroke="#1e535a" stroke-width="3">
      <ellipse cx="50.732" cy="50.733" rx="50.732" ry="50.733" stroke="none"/>
      <ellipse cx="50.732" cy="50.733" rx="49.232" ry="49.233" fill="none"/>
    </g>
    <g id="Grupo_1212732" data-name="Grupo 1212732" transform="translate(234.711 4373.86)">
      <g id="Grupo_1212731" data-name="Grupo 1212731" transform="translate(0 -0.001)" clip-path="url(#clip-path-2)">
        <path id="Trazado_1277958" data-name="Trazado 1277958" d="M185.456,47.119l-3.939-11.775-4.529-13.413-.994-2.947L170.31,2.071A2.448,2.448,0,0,0,168.077.144L150.583.153a2.527,2.527,0,0,1,2.172,1.78l4.506,13.386,1.621,4.774.2.716,3.978,11.676,4.879,14.49a2.407,2.407,0,0,1-1.264,2.829c-.207.1-.323.107-.4.3l7.515.022,9.271-.012a2.437,2.437,0,0,0,2.4-2.993" transform="translate(-131.716 -0.126)" fill="#1e535a"/>
        <path id="Trazado_1277959" data-name="Trazado 1277959" d="M15.582,31.3l7.221.122,1.991-5.942c.1-.285.042-.607.306-.823L26.3,21a.477.477,0,0,1,.309-.314l-.2-.716-1.621-4.774L20.288,1.806A2.526,2.526,0,0,0,18.116.026a2.491,2.491,0,0,0-2.75,1.539L.133,46.669a2.451,2.451,0,0,0,2.155,3.283L14.739,50a2.452,2.452,0,0,0,2.336-1.642l2.883-8.463-5.675-5.439a1.832,1.832,0,0,1,1.3-3.154" transform="translate(-0.001 0)" fill="#1e535a"/>
        <path id="Trazado_1277960" data-name="Trazado 1277960" d="M137.578,268.615l-4.879-14.49-4.293,0-9.865-.167a1.492,1.492,0,0,0-1.057,2.568l4.541,4.352-.02.031,10.177,9.472c1.6,1.49,1.619,1.349,3.735,1.355.075-.192.191-.2.4-.3a2.407,2.407,0,0,0,1.264-2.829" transform="translate(-102.359 -222.142)" fill="#1e535a"/>
      </g>
    </g>
  </g>
</svg>
