<svg xmlns="http://www.w3.org/2000/svg" xmlns:xlink="http://www.w3.org/1999/xlink" width="129" height="129" viewBox="0 0 129 129">
  <defs>
    <clipPath id="clip-path">
      <rect id="Rectángulo_454829" data-name="Rectángulo 454829" width="129" height="129" fill="#1e535a"/>
    </clipPath>
    <clipPath id="clip-path-2">
      <rect id="Rectángulo_463122" data-name="Rectángulo 463122" width="52.638" height="46.24" fill="#1e535a"/>
    </clipPath>
  </defs>
  <g id="Grupo_1184515" data-name="Grupo 1184515" transform="translate(-186 -4323.945)">
    <g id="Grupo_1177591" data-name="Grupo 1177591" transform="translate(186 4323.945)">
      <g id="Grupo_1177589" data-name="Grupo 1177589" transform="translate(0 0)">
        <g id="Grupo_1177587" data-name="Grupo 1177587" clip-path="url(#clip-path)">
          <path id="Trazado_997422" data-name="Trazado 997422" d="M123.733,57.1a59.308,59.308,0,0,0-13.4-30.862,6.821,6.821,0,0,0-9.6-9.189A59.221,59.221,0,0,0,70.078,5.066a6.822,6.822,0,0,0-13.25.269A59.3,59.3,0,0,0,27.41,17.911a6.824,6.824,0,0,0-9.471,9.536A59.253,59.253,0,0,0,5.526,57.039a6.827,6.827,0,0,0-.163,13.369A59.236,59.236,0,0,0,17.387,100.6a6.823,6.823,0,0,0,9.27,9.635,59.3,59.3,0,0,0,30.116,13.172,6.824,6.824,0,0,0,13.369.269,59.247,59.247,0,0,0,30.886-12.2,6.822,6.822,0,0,0,9.55-9.236,59.323,59.323,0,0,0,13.315-31.893,6.824,6.824,0,0,0-.16-13.247M104.464,29.6a6.785,6.785,0,0,0,3.779-1.144,56.321,56.321,0,0,1,12.43,28.628,6.834,6.834,0,0,0-4.361,3.159L98.87,53.7c.014-.191.027-.385.027-.582a6.825,6.825,0,0,0-2.89-5.577l7.629-18a7.392,7.392,0,0,0,.827.054m-3.687-1.086L93.195,46.39a6.754,6.754,0,0,0-7.517,4.341L54.125,43.462a6.639,6.639,0,0,0-.143-1.358L98.758,26.511a6.846,6.846,0,0,0,2.019,2m-37.29-14.85a6.83,6.83,0,0,0,6.7-5.539A56.228,56.228,0,0,1,98.622,19.239a6.792,6.792,0,0,0-.987,3.527,7.17,7.17,0,0,0,.065.9l-45,15.668A6.85,6.85,0,0,0,51.462,38.1l11.8-24.451c.075,0,.146.01.221.01m-6.642-5.27a6.831,6.831,0,0,0,3.435,4.47L48.708,36.823a6.848,6.848,0,0,0-1.409-.146A6.78,6.78,0,0,0,43.407,37.9L29.691,26.443a6.789,6.789,0,0,0-.232-6.285A56.272,56.272,0,0,1,56.845,8.389M13.492,62.258l28.37-14.633a6.8,6.8,0,0,0,5.383,2.707l9.723,31.08a6.941,6.941,0,0,0-1.5,1.665L13.407,65.554a6.784,6.784,0,0,0,.252-1.811,6.863,6.863,0,0,0-.167-1.484m6.7-32.775a6.824,6.824,0,0,0,7.623-.65l13.543,11.31a6.81,6.81,0,0,0-.752,4.719L12.188,59.514a6.827,6.827,0,0,0-3.616-2.37,56.248,56.248,0,0,1,11.62-27.662m2.826,68.151a6.809,6.809,0,0,0-3.391.906A56.2,56.2,0,0,1,8.416,70.378,6.835,6.835,0,0,0,11.96,68.24l42.475,17.7a7.323,7.323,0,0,0-.054.82,6.828,6.828,0,0,0,.409,2.308L29.1,101.373a6.828,6.828,0,0,0-6.084-3.738m33.888,22.732a56.328,56.328,0,0,1-28.1-12.294,6.758,6.758,0,0,0,1.042-3.609l0-.078,26.6-12.746a6.829,6.829,0,0,0,2.41,1.522l1.593,22.9a6.829,6.829,0,0,0-3.537,4.3m2.829-40.272L50.22,49.672a6.839,6.839,0,0,0,3.244-3.244L85.273,53.75a6.789,6.789,0,0,0,1.086,3.1L64.543,80.8a6.745,6.745,0,0,0-4.807-.7m10.4,40.537a6.827,6.827,0,0,0-6.649-5.291l-.051,0L61.921,93.552a6.817,6.817,0,0,0,4.174-2.026l31.8,14.027c0,.061-.01.116-.01.177a6.8,6.8,0,0,0,1.011,3.561,56.224,56.224,0,0,1-28.761,11.34m28.526-18.058L67.688,88.909a6.789,6.789,0,0,0-.9-6.074L88.544,58.959a6.789,6.789,0,0,0,3.524.987,7.517,7.517,0,0,0,.838-.054l8.13,40.091a6.814,6.814,0,0,0-2.373,2.591m9.8-2.553a6.788,6.788,0,0,0-4.538-1.072L95.789,58.84a6.857,6.857,0,0,0,2.152-2.247l17.431,6.537a6.057,6.057,0,0,0-.031.613,6.827,6.827,0,0,0,5.488,6.693,56.271,56.271,0,0,1-12.369,29.585" transform="translate(0 0.001)" fill="#1e535a"/>
        </g>
      </g>
    </g>
    <g id="Elipse_13614" data-name="Elipse 13614" transform="translate(210 4347.945)" fill="#d5f4f8" stroke="#1e535a" stroke-width="3">
      <ellipse cx="40.232" cy="40.233" rx="40.232" ry="40.233" stroke="none"/>
      <ellipse cx="40.232" cy="40.233" rx="38.732" ry="38.733" fill="none"/>
    </g>
    <g id="Grupo_1213408" data-name="Grupo 1213408" transform="translate(224 4364.945)">
      <g id="Grupo_1213407" data-name="Grupo 1213407" clip-path="url(#clip-path-2)">
        <path id="Trazado_1280067" data-name="Trazado 1280067" d="M49.3,46.24l-45.9-.015A3.545,3.545,0,0,1,0,42.682V3.518A3.5,3.5,0,0,1,3.4,0H49.226a3.516,3.516,0,0,1,3.411,3.516V42.668A3.573,3.573,0,0,1,49.3,46.24m-.17-1.184a2.34,2.34,0,0,0,2.323-2.4l0-39.135a2.271,2.271,0,0,0-2.247-2.362l-45.636,0A2.3,2.3,0,0,0,1.185,3.529V42.668a2.328,2.328,0,0,0,2.394,2.387Z" fill="#1e535a"/>
        <path id="Trazado_1280068" data-name="Trazado 1280068" d="M175.827,98.509a1.74,1.74,0,0,1-1.863-1.76l0-7.513a1.612,1.612,0,0,1,1.566-1.618l7.632-.027c.423-.464.984-1.1,1.555-1.1l3.6,0a1.676,1.676,0,0,1,1.529,1.417l0,9a1.676,1.676,0,0,1-1.594,1.586Zm6.162-5.446c.249,0,.587-.5.513-.7a.913.913,0,0,0-.639-.447h-4.2a.733.733,0,0,0-.672.586c0,.242.4.579.653.579Zm-1.935,2.7a.845.845,0,0,0,.6-.6.793.793,0,0,0-.612-.589l-2.388-.007c-.277,0-.669.326-.67.575,0,.2.34.607.543.609Z" transform="translate(-144.953 -72.066)" fill="#1e535a"/>
        <path id="Trazado_1280069" data-name="Trazado 1280069" d="M48.261,188.978a1.79,1.79,0,0,1-1.886-1.527l0-8a1.659,1.659,0,0,1,1.544-1.406l7.73-.037c.288-.385.848-1.029,1.21-1.032l3.853-.036a1.627,1.627,0,0,1,1.53,1.67l0,8.7a1.678,1.678,0,0,1-1.562,1.655Zm6.062-5.472c.279,0,.64-.419.6-.618a.876.876,0,0,0-.6-.539l-4.425,0c-.242,0-.562.456-.515.671a.885.885,0,0,0,.607.486Zm-1.8,2.694c.224,0,.58-.462.537-.665a.889.889,0,0,0-.685-.5l-2.416,0a.74.74,0,0,0-.584.638.856.856,0,0,0,.631.529Z" transform="translate(-38.639 -147.429)" fill="#1e535a"/>
        <path id="Trazado_1280070" data-name="Trazado 1280070" d="M47.978,98.405a1.677,1.677,0,0,1-1.65-1.415l-.008-8.022a1.7,1.7,0,0,1,1.345-1.431l7.93-.047c.329-.384.9-1.067,1.3-1.072l3.561-.041A1.715,1.715,0,0,1,62.2,88.146l0,8.511a1.716,1.716,0,0,1-1.778,1.757Zm6.33-5.439a.778.778,0,0,0,.555-.567c0-.194-.341-.572-.54-.572l-4.363-.013a.777.777,0,0,0-.637.586.785.785,0,0,0,.637.583Zm-1.763,2.67c.219,0,.544-.555.452-.724a1.064,1.064,0,0,0-.647-.439l-2.394,0a.819.819,0,0,0-.636.589.847.847,0,0,0,.655.61Z" transform="translate(-38.595 -71.973)" fill="#1e535a"/>
        <path id="Trazado_1280071" data-name="Trazado 1280071" d="M175.569,189a1.683,1.683,0,0,1-1.641-1.66l-.017-7.364a1.75,1.75,0,0,1,1.632-1.9l7.708-.036c.3-.407.835-1.035,1.223-1.037l3.857-.023a1.666,1.666,0,0,1,1.486,1.663l-.018,8.844a1.786,1.786,0,0,1-1.809,1.525Zm6.4-5.465c.266,0,.555-.521.465-.734a.92.92,0,0,0-.639-.42l-4.29.01a.73.73,0,0,0-.563.688.879.879,0,0,0,.647.475Zm-1.928,2.711c.228,0,.572-.409.561-.649a.777.777,0,0,0-.583-.512l-2.42-.013a.692.692,0,0,0-.666.666.862.862,0,0,0,.653.506Z" transform="translate(-144.908 -147.463)" fill="#1e535a"/>
        <path id="Trazado_1280072" data-name="Trazado 1280072" d="M145.053,20.909l-25.361.009a2.1,2.1,0,0,1,.151-4.2l25.147.006a2.025,2.025,0,0,1,1.93,1.964,2.084,2.084,0,0,1-1.867,2.222" transform="translate(-98.1 -13.928)" fill="#1e535a"/>
        <path id="Trazado_1280073" data-name="Trazado 1280073" d="M52.411,18.847a2.092,2.092,0,1,1-2.092-2.092,2.092,2.092,0,0,1,2.092,2.092" transform="translate(-40.184 -13.961)" fill="#1e535a"/>
        <path id="Trazado_1280074" data-name="Trazado 1280074" d="M20.858,18.8A2.092,2.092,0,1,1,18.766,16.7,2.092,2.092,0,0,1,20.858,18.8" transform="translate(-13.894 -13.919)" fill="#1e535a"/>
        <path id="Trazado_1280075" data-name="Trazado 1280075" d="M84,18.817a2.091,2.091,0,1,1-2.091-2.091A2.091,2.091,0,0,1,84,18.817" transform="translate(-66.509 -13.937)" fill="#1e535a"/>
      </g>
    </g>
  </g>
</svg>
