<svg xmlns="http://www.w3.org/2000/svg" xmlns:xlink="http://www.w3.org/1999/xlink" width="85" height="85" viewBox="0 0 85 85">
  <defs>
    <clipPath id="clip-path">
      <rect id="Rectángulo_462283" data-name="Rectángulo 462283" width="73" height="76" transform="translate(-0.282 -0.333)" fill="#344866"/>
    </clipPath>
  </defs>
  <g id="Grupo_1212683" data-name="Grupo 1212683" transform="translate(-179.734 -5520.929)">
    <rect id="Rectángulo_402006" data-name="Rectángulo 402006" width="85" height="85" rx="5" transform="translate(179.734 5520.929)" fill="#69d7e5"/>
    <g id="Grupo_1212703" data-name="Grupo 1212703" transform="translate(186.016 5524.262)">
      <g id="Grupo_1212702" data-name="Grupo 1212702" transform="translate(0 2)" clip-path="url(#clip-path)">
        <path id="Trazado_1277622" data-name="Trazado 1277622" d="M34.48,52.626a1.214,1.214,0,0,1,1.293,1.1l.012,9.32a1.444,1.444,0,0,1-.9,1.186c-.393.138-1.348-.321-1.352-.749L33.5,59.53A22.2,22.2,0,0,1,12.06,37.658a22.19,22.19,0,0,1,21.45-21.87L33.5,2.183l-3.742.025-.081,7.036c-.015,1.377-1.545,2.028-2.655,2.324-.809.215-1.425.162-1.8-.593a1.167,1.167,0,0,1,.906-1.507l1.3-.356V2.572A2.527,2.527,0,0,1,29.961.025L34.66,0a1.215,1.215,0,0,1,1.117,1.093V21.57a1.214,1.214,0,0,1-1.148,1.118A15.293,15.293,0,0,0,19.4,35.27a1.137,1.137,0,1,1-2.231-.44A17.515,17.515,0,0,1,33.491,20.514l.013-2.508a19.935,19.935,0,0,0-19.17,19.652A19.971,19.971,0,0,0,33.5,57.329l-.012-2.509A17.563,17.563,0,0,1,17.167,40.485a1.2,1.2,0,0,1,.79-1.324,1.142,1.142,0,0,1,1.44.887A15.282,15.282,0,0,0,34.48,52.626" transform="translate(4.151 0)" fill="#344866"/>
        <path id="Trazado_1277623" data-name="Trazado 1277623" d="M37.642,59.312a1.236,1.236,0,0,1,1.067-1.282c.418-.051,1.211.479,1.212.971l.011,6.119a1.36,1.36,0,0,1-1.113,1.06l-4.7-.027a2.543,2.543,0,0,1-2.527-2.564l-.013-6.562a32.505,32.505,0,0,1-8.462-3.388l-4.964,4.766a2.628,2.628,0,0,1-3.4.031L8.18,52.064A2.48,2.48,0,0,1,8,48.548l4.913-4.833a29.545,29.545,0,0,1-3.5-8.208L2.785,35.5A2.611,2.611,0,0,1,0,32.84l.013-1.82a1.2,1.2,0,0,1,1.112-1.071,1.263,1.263,0,0,1,1.144,1.028l.114,2.315,7.3.064c.979.008,1.782,1.093,2,1.9a29.107,29.107,0,0,0,2.985,7.049,2.444,2.444,0,0,1-.311,3.171L9.539,50.206l6.9,6.706,4.871-4.7A2.716,2.716,0,0,1,24.713,52a35.059,35.059,0,0,0,7.416,2.931,2.539,2.539,0,0,1,1.753,2.58l.007,6.445,3.776.04Z" transform="translate(0 9.153)" fill="#344866"/>
        <path id="Trazado_1277624" data-name="Trazado 1277624" d="M11.724,29.128a2.7,2.7,0,0,1-2.714,2.109l-6.679.009-.056,2.284a1.293,1.293,0,0,1-1.152,1.018A1.182,1.182,0,0,1,.008,33.473V31.456a2.545,2.545,0,0,1,2.559-2.444l6.842-.025a29.479,29.479,0,0,1,3.5-8.21L8.1,16.065a2.551,2.551,0,0,1-.134-3.434l6.78-6.548a2.668,2.668,0,0,1,3.624.188l4.7,4.572,1.89-.97a1.359,1.359,0,0,1,1.5.32,1.179,1.179,0,0,1-.4,1.631l-1.62.841a2.765,2.765,0,0,1-3.367-.584l-4.629-4.5L9.533,14.292l4.834,4.725a2.439,2.439,0,0,1,.466,2.9,28.442,28.442,0,0,0-3.109,7.21" transform="translate(0.002 1.668)" fill="#344866"/>
        <path id="Trazado_1277625" data-name="Trazado 1277625" d="M54.566,34.732l-6.187,0a1.876,1.876,0,0,1-1.8-1.871l.019-5.989A1.832,1.832,0,0,1,48.369,25.2H54.66A1.8,1.8,0,0,1,56.4,26.953v6.014a1.818,1.818,0,0,1-1.836,1.765M54.119,27.4h-5.26V32.52h5.26Z" transform="translate(16.034 7.703)" fill="#344866"/>
        <path id="Trazado_1277626" data-name="Trazado 1277626" d="M39.506,34.739H33.561a1.96,1.96,0,0,1-1.975-2.067V27.247A1.915,1.915,0,0,1,33.512,25.2l6.1,0a1.792,1.792,0,0,1,1.8,1.663l.028,6.183a1.985,1.985,0,0,1-1.936,1.687M39.149,27.4H33.894V32.52h5.255Z" transform="translate(10.872 7.702)" fill="#344866"/>
        <path id="Trazado_1277627" data-name="Trazado 1277627" d="M39.6,19.745l-6.127-.005A1.9,1.9,0,0,1,31.6,17.834l-.009-5.646a1.846,1.846,0,0,1,1.879-1.96l6-.012a1.913,1.913,0,0,1,1.968,1.6l-.016,6.215A1.923,1.923,0,0,1,39.6,19.745M39.149,12.4H33.894v5.16h5.255Z" transform="translate(10.872 3.123)" fill="#344866"/>
        <path id="Trazado_1277628" data-name="Trazado 1277628" d="M47,42.215l-5.913.017a1.969,1.969,0,0,1-2.011-1.941l0-5.834a1.8,1.8,0,0,1,1.8-1.74h6.237A1.753,1.753,0,0,1,48.9,34.447l-.007,6.072a1.854,1.854,0,0,1-1.89,1.7M46.647,34.9h-5.3v5.152h5.3Z" transform="translate(13.451 9.999)" fill="#344866"/>
        <path id="Trazado_1277629" data-name="Trazado 1277629" d="M39.6,49.753l-6.14-.021a1.925,1.925,0,0,1-1.871-2l.005-5.638a1.917,1.917,0,0,1,1.886-1.919h5.99A1.938,1.938,0,0,1,41.438,42.1l-.016,5.822A1.936,1.936,0,0,1,39.6,49.753M39.148,42.4H33.891l0,5.115h5.256Z" transform="translate(10.873 12.279)" fill="#344866"/>
        <path id="Trazado_1277630" data-name="Trazado 1277630" d="M47.226,27.217l-6.346.009a1.856,1.856,0,0,1-1.8-1.767V19.621A1.935,1.935,0,0,1,41.094,17.7l6.01.014a1.816,1.816,0,0,1,1.79,1.671l.007,6.091a1.789,1.789,0,0,1-1.675,1.74m-5.884-2.2h5.3V19.876h-5.3Z" transform="translate(13.451 5.41)" fill="#344866"/>
        <path id="Trazado_1277631" data-name="Trazado 1277631" d="M45.6,32.765H41.509a1.24,1.24,0,0,1-1.161-1.085V27.49a1.159,1.159,0,0,1,1.163-1.059l4.09,0a1.224,1.224,0,0,1,1.21,1.115l0,4.083A1.3,1.3,0,0,1,45.6,32.765m-1.062-4.138H42.626V30.54h1.916Z" transform="translate(13.888 8.078)" fill="#344866"/>
        <path id="Trazado_1277632" data-name="Trazado 1277632" d="M45.726,47.739,41.36,47.73a1.337,1.337,0,0,1-1.012-.982l0-4.211a1.172,1.172,0,0,1,1.169-1.1l4.322.014a1.328,1.328,0,0,1,.973.936l.009,4.3a1.322,1.322,0,0,1-1.093,1.052m-3.1-2.231h1.916V43.613H42.627Z" transform="translate(13.887 12.665)" fill="#344866"/>
        <path id="Trazado_1277633" data-name="Trazado 1277633" d="M45.963,17.7l-4.443.025a1.2,1.2,0,0,1-1.176-1.111l.008-4.205a1.213,1.213,0,0,1,.968-.953l4.475,0a1.2,1.2,0,0,1,1.02,1.034V16.7c0,.321-.551,1-.851,1m-1.419-4.059H42.628v1.9h1.916Z" transform="translate(13.887 3.501)" fill="#344866"/>
        <path id="Trazado_1277634" data-name="Trazado 1277634" d="M38.463,10.2l-4.6.027a1.288,1.288,0,0,1-1.02-1.039V5.02a1.11,1.11,0,0,1,1.05-1.044h4.5a1.179,1.179,0,0,1,.89.816l.027,4.4c0,.3-.454,1.005-.847,1.008M37.039,6.124l-1.946,0,0,1.924,1.946,0Z" transform="translate(11.305 1.215)" fill="#344866"/>
        <path id="Trazado_1277635" data-name="Trazado 1277635" d="M38.339,55.2l-4.47,0a1.182,1.182,0,0,1-1.027-1.065l0-4.165a1.185,1.185,0,0,1,1.027-1.017l4.5.013a1.107,1.107,0,0,1,.925.995l-.015,4.4c0,.3-.614.842-.949.842m-1.3-4.068H35.1v1.9h1.942Z" transform="translate(11.305 14.959)" fill="#344866"/>
        <path id="Trazado_1277636" data-name="Trazado 1277636" d="M30.629,25.249l-3.933.03a1.346,1.346,0,0,1-1.358-1.255l.022-4.183c0-.44.671-.875,1.085-.873l4.343.005c.419,0,1.026.458,1.028.9l.028,4.161a1.278,1.278,0,0,1-1.215,1.218m-1.085-4.1H27.587v1.935h1.957Z" transform="translate(8.722 5.797)" fill="#344866"/>
        <path id="Trazado_1277637" data-name="Trazado 1277637" d="M53.327,25.244l-4.349.017a1.3,1.3,0,0,1-1.143-1.225l.008-3.968a1.067,1.067,0,0,1,1.091-1.1l4.323,0c.409,0,1.044.461,1.048.9l.044,4.17c0,.373-.539,1.2-1.024,1.2m-1.254-4.1H50.128v1.884h1.945Z" transform="translate(16.466 5.798)" fill="#344866"/>
        <path id="Trazado_1277638" data-name="Trazado 1277638" d="M30.662,32.773l-4.2-.016a1.327,1.327,0,0,1-1.11-1.081l0-4.195a1.183,1.183,0,0,1,1.129-1.042l4.053-.012a1.241,1.241,0,0,1,1.307,1.3l0,3.717a1.354,1.354,0,0,1-1.175,1.328m-1.12-4.149H27.585v1.917h1.957Z" transform="translate(8.724 8.077)" fill="#344866"/>
        <path id="Trazado_1277639" data-name="Trazado 1277639" d="M30.934,40.229l-4.482.012A1.221,1.221,0,0,1,25.341,39.1l0-3.953A1.279,1.279,0,0,1,26.7,33.906l4.014.029a1.232,1.232,0,0,1,1.128,1.206l-.024,4.121c0,.311-.567.966-.883.967M29.543,36.12H27.586v1.9h1.957Z" transform="translate(8.723 10.363)" fill="#344866"/>
        <path id="Trazado_1277640" data-name="Trazado 1277640" d="M53.177,40.242l-4.25-.013A1.165,1.165,0,0,1,47.841,39.1l0-3.972a1.224,1.224,0,0,1,1.148-1.2H53.2a1.321,1.321,0,0,1,1.147,1.193l-.032,4.173c0,.4-.683.957-1.135.954m-1.1-4.123H50.127v1.9h1.945Z" transform="translate(16.466 10.367)" fill="#344866"/>
        <path id="Trazado_1277641" data-name="Trazado 1277641" d="M38.294,25.249l-4.163.021a1.294,1.294,0,0,1-1.293-1.264l.019-4.132a1.147,1.147,0,0,1,1.007-.9h4.32A1.086,1.086,0,0,1,39.3,20.064l.012,3.973c0,.419-.476,1.209-1.015,1.212m-3.194-4.1,0,1.935,1.944,0,0-1.935Z" transform="translate(11.303 5.798)" fill="#344866"/>
        <path id="Trazado_1277642" data-name="Trazado 1277642" d="M38.333,40.248l-4.486-.018a1.376,1.376,0,0,1-1.007-.943l.011-4.354c0-.428.616-.953,1.061-1.02l4.25.009A1.222,1.222,0,0,1,39.3,35.129v3.977a1.335,1.335,0,0,1-.969,1.142M35.1,38.02h1.944v-1.9H35.1Z" transform="translate(11.304 10.365)" fill="#344866"/>
        <path id="Trazado_1277643" data-name="Trazado 1277643" d="M24.6,32.773l-4.443-.018a1.314,1.314,0,0,1-1.066-1.081L19.1,27.49a1.214,1.214,0,0,1,1.067-1.056l4.3,0a1.2,1.2,0,0,1,1.077,1.052l0,4.19a1.511,1.511,0,0,1-.946,1.094m-3.245-2.234h1.963V28.627H21.359Z" transform="translate(6.573 8.079)" fill="#344866"/>
      </g>
    </g>
  </g>
</svg>
