<svg id="Grupo_1212647" data-name="Grupo 1212647" xmlns="http://www.w3.org/2000/svg" xmlns:xlink="http://www.w3.org/1999/xlink" width="128" height="128" viewBox="0 0 128 128">
  <defs>
    <clipPath id="clip-path">
      <rect id="Rectángulo_454829" data-name="Rectángulo 454829" width="128" height="128" fill="#1e535a"/>
    </clipPath>
    <clipPath id="clip-path-2">
      <rect id="Rectángulo_463171" data-name="Rectángulo 463171" width="50" height="50" fill="#1e535a"/>
    </clipPath>
  </defs>
  <g id="Grupo_1177591" data-name="Grupo 1177591">
    <g id="Grupo_1177589" data-name="Grupo 1177589" transform="translate(0 0)">
      <g id="Grupo_1177587" data-name="Grupo 1177587" clip-path="url(#clip-path)">
        <path id="Trazado_997422" data-name="Trazado 997422" d="M122.774,56.654a58.848,58.848,0,0,0-13.293-30.623,6.768,6.768,0,0,0-9.523-9.118A58.761,58.761,0,0,0,69.535,5.027a6.769,6.769,0,0,0-13.148.267A58.842,58.842,0,0,0,27.2,17.772a6.771,6.771,0,0,0-9.4,9.462A58.794,58.794,0,0,0,5.483,56.6a6.774,6.774,0,0,0-.162,13.266A58.776,58.776,0,0,0,17.252,99.82a6.771,6.771,0,0,0,9.2,9.56,58.838,58.838,0,0,0,29.883,13.07,6.771,6.771,0,0,0,13.266.267,58.788,58.788,0,0,0,30.646-12.107,6.769,6.769,0,0,0,9.476-9.165A58.863,58.863,0,0,0,122.933,69.8a6.771,6.771,0,0,0-.159-13.144m-19.12-27.288a6.733,6.733,0,0,0,3.75-1.135,55.884,55.884,0,0,1,12.333,28.407,6.781,6.781,0,0,0-4.327,3.135L98.1,53.283c.013-.189.027-.382.027-.578a6.772,6.772,0,0,0-2.868-5.533l7.57-17.86a7.335,7.335,0,0,0,.821.054M100,28.288,92.472,46.03a6.7,6.7,0,0,0-7.459,4.307L53.705,43.125a6.588,6.588,0,0,0-.142-1.348L97.992,26.305a6.793,6.793,0,0,0,2,1.983M63,13.553a6.777,6.777,0,0,0,6.651-5.5A55.792,55.792,0,0,1,97.857,19.09a6.739,6.739,0,0,0-.98,3.5,7.114,7.114,0,0,0,.064.9L52.29,39.031A6.8,6.8,0,0,0,51.064,37.8L62.775,13.543c.074,0,.145.01.22.01M56.4,8.324a6.778,6.778,0,0,0,3.409,4.435L48.331,36.538a6.8,6.8,0,0,0-1.4-.145,6.727,6.727,0,0,0-3.861,1.213L29.461,26.238A6.736,6.736,0,0,0,29.231,20,55.836,55.836,0,0,1,56.4,8.324M13.387,61.776l28.15-14.519a6.751,6.751,0,0,0,5.341,2.686l9.648,30.839a6.887,6.887,0,0,0-1.493,1.652L13.3,65.046a6.731,6.731,0,0,0,.25-1.8,6.81,6.81,0,0,0-.166-1.473m6.648-32.521a6.771,6.771,0,0,0,7.564-.645L41.037,39.831a6.758,6.758,0,0,0-.747,4.682l-28.2,14.539A6.774,6.774,0,0,0,8.506,56.7,55.812,55.812,0,0,1,20.036,29.254m2.8,67.623a6.756,6.756,0,0,0-3.365.9A55.762,55.762,0,0,1,8.351,69.832a6.783,6.783,0,0,0,3.517-2.121L54.013,85.27a7.266,7.266,0,0,0-.054.814,6.775,6.775,0,0,0,.405,2.29L28.876,100.587a6.775,6.775,0,0,0-6.037-3.709m33.626,22.556a55.892,55.892,0,0,1-27.883-12.2,6.705,6.705,0,0,0,1.034-3.581l0-.078L56,90.929a6.776,6.776,0,0,0,2.392,1.51l1.581,22.725a6.776,6.776,0,0,0-3.51,4.27m2.807-39.96L49.831,49.287a6.786,6.786,0,0,0,3.219-3.219l31.562,7.266a6.736,6.736,0,0,0,1.078,3.081L64.042,80.173a6.692,6.692,0,0,0-4.77-.7M69.592,119.7a6.774,6.774,0,0,0-6.6-5.25l-.051,0-1.5-21.623a6.764,6.764,0,0,0,4.142-2.01l31.555,13.918c0,.061-.01.115-.01.176a6.743,6.743,0,0,0,1,3.534A55.789,55.789,0,0,1,69.592,119.7M97.9,101.779,67.164,88.22a6.736,6.736,0,0,0-.888-6.027L87.858,58.5a6.736,6.736,0,0,0,3.5.98,7.46,7.46,0,0,0,.831-.054l8.067,39.781a6.761,6.761,0,0,0-2.355,2.571m9.722-2.534a6.735,6.735,0,0,0-4.5-1.064l-8.07-39.8a6.8,6.8,0,0,0,2.135-2.23l17.3,6.486a6.009,6.009,0,0,0-.03.608,6.774,6.774,0,0,0,5.445,6.641A55.835,55.835,0,0,1,107.62,99.246" transform="translate(0 0.001)" fill="#1e535a"/>
      </g>
    </g>
  </g>
  <g id="Elipse_13614" data-name="Elipse 13614" transform="translate(24.287 24.359)" fill="#fff" stroke="#1e535a" stroke-width="3">
    <ellipse cx="39.732" cy="39.733" rx="39.732" ry="39.733" stroke="none"/>
    <ellipse cx="39.732" cy="39.733" rx="38.232" ry="38.233" fill="none"/>
  </g>
  <g id="Grupo_1213438" data-name="Grupo 1213438" transform="translate(38.287 39.36)">
    <g id="Grupo_1213437" data-name="Grupo 1213437" clip-path="url(#clip-path-2)">
      <path id="Trazado_1280256" data-name="Trazado 1280256" d="M205.264,18.354a14.519,14.519,0,0,0-11.09-13.975c.571.753,1.041,1.318.841,2.157A1.813,1.813,0,0,1,193.852,7.7c-.494.148-1.411.135-1.706-.344l-2.965-4.814a2.156,2.156,0,0,1,.257-1.853A2.136,2.136,0,0,1,191.087,0a17.911,17.911,0,0,1,17.822,18.514,1.925,1.925,0,0,1-1.836,1.667,1.8,1.8,0,0,1-1.809-1.828" transform="translate(-158.93 0)" fill="#1e535a"/>
      <path id="Trazado_1280257" data-name="Trazado 1280257" d="M16.949,204.7l2.559,4.546a2.341,2.341,0,0,1-.052,1.626,1.637,1.637,0,0,1-1.264.763,17.968,17.968,0,0,1-18.19-18,1.769,1.769,0,0,1,1.824-1.72,1.7,1.7,0,0,1,1.864,1.706,14.527,14.527,0,0,0,11.1,14.107,4.167,4.167,0,0,1-.886-2.147,1.6,1.6,0,0,1,1.151-1.384,1.682,1.682,0,0,1,1.9.5" transform="translate(0 -161.636)" fill="#1e535a"/>
      <path id="Trazado_1280258" data-name="Trazado 1280258" d="M93.569,95.357c-.085,0-.169,0-.253.007a8.434,8.434,0,0,0-.77-1.929,6.873,6.873,0,0,0-5.317-3.6c-.727-4.661-3.815-7.789-8.684-7.7a8.925,8.925,0,0,0-8.031,5.17,9.186,9.186,0,0,0,.012,6.639,5.087,5.087,0,0,0-4.157,2.513,5.461,5.461,0,0,0,.824,6.437,5.381,5.381,0,0,0,3.079,1.355l16.331-.032a6.588,6.588,0,0,0,1.232-.119h4.189a4.587,4.587,0,0,0,1.545.267,4.507,4.507,0,1,0,0-9.013" transform="translate(-55.208 -69.18)" fill="#1e535a"/>
    </g>
  </g>
</svg>
