<svg xmlns="http://www.w3.org/2000/svg" xmlns:xlink="http://www.w3.org/1999/xlink" width="69" height="69" viewBox="0 0 69 69">
  <defs>
    <clipPath id="clip-path">
      <rect id="Rectángulo_462704" data-name="Rectángulo 462704" width="42" height="41.997" fill="#fff"/>
    </clipPath>
  </defs>
  <g id="Grupo_1212449" data-name="Grupo 1212449" transform="translate(-273.459 -1370)">
    <circle id="Elipse_13700" data-name="Elipse 13700" cx="34.5" cy="34.5" r="34.5" transform="translate(273.459 1370)" fill="#1e535a"/>
    <g id="Grupo_1213001" data-name="Grupo 1213001" transform="translate(287.459 1384)">
      <g id="Grupo_1213000" data-name="Grupo 1213000" clip-path="url(#clip-path)">
        <path id="Trazado_1279407" data-name="Trazado 1279407" d="M19.116,24.565l2.132,8.55L19.482,32.4l-1.744,1.466a1.2,1.2,0,0,1-1.483-.054L14.619,32.4l-1.818.759a1.257,1.257,0,0,1-1.661-.394L9.979,30.9l-2.062.159a1.23,1.23,0,0,1-1.3-.751l-.592-2.281L3.989,27.54A1.332,1.332,0,0,1,3.019,26l.167-1.906L1.4,23.011a1.256,1.256,0,0,1-.54-1.549l.828-1.992L.357,17.936a1.294,1.294,0,0,1,.014-1.8L1.684,14.6l-.83-2a1.208,1.208,0,0,1,.43-1.439L3.2,9.976,3.012,7.934a1.257,1.257,0,0,1,.9-1.366l2.134-.527L6.5,4.107A1.3,1.3,0,0,1,7.941,3.015l2.033.193,1.132-1.851a1.223,1.223,0,0,1,1.5-.5l2,.825L16.138.374A1.275,1.275,0,0,1,17.863.305l1.612,1.387L21.363.9a1.3,1.3,0,0,1,1.7.582l1.026,1.711,1.905-.166a1.322,1.322,0,0,1,1.546.962L28.03,6.04l2.1.523a1.242,1.242,0,0,1,.93,1.371L30.9,9.981l1.88,1.167a1.2,1.2,0,0,1,.476,1.394L32.4,14.609,33.8,16.254a1.211,1.211,0,0,1,.014,1.557L32.4,19.464l.708,1.785L23.661,18.9,26.82,14.9a1.287,1.287,0,0,0,.117-1.211,1.4,1.4,0,0,0-.918-.726l-5-1.382L18.09,7.166a1.426,1.426,0,0,0-.953-.579,1.3,1.3,0,0,0-1.113.531l-2.951,4.45-5.126,1.44a1.335,1.335,0,0,0-.827.723,1.378,1.378,0,0,0,.173,1.216l3.322,4.188-.225,5.5a1.323,1.323,0,0,0,.586.941,1.546,1.546,0,0,0,1.161.058L17.057,23.8Z" transform="translate(0 0)" fill="#fff"/>
        <path id="Trazado_1279408" data-name="Trazado 1279408" d="M196.349,192.346l-4.052,4.066a1.3,1.3,0,0,1-1.676-.063l-5.678-5.672-3.108,3.1a1.293,1.293,0,0,1-1.125.3,1.252,1.252,0,0,1-.9-.885l-3.969-15.869a1.493,1.493,0,0,1,.3-1.1,1.384,1.384,0,0,1,1.167-.359l15.675,3.913a1.4,1.4,0,0,1,1.018.766,1.252,1.252,0,0,1-.238,1.314l-3.1,3.107,5.674,5.681a1.251,1.251,0,0,1,.021,1.7" transform="translate(-154.672 -154.692)" fill="#fff"/>
        <path id="Trazado_1279409" data-name="Trazado 1279409" d="M93.389,94.765a1.79,1.79,0,0,0-.929.02l-3.621,1.341.141-3.821a1.973,1.973,0,0,0-.238-.906l-2.455-3.093L90,87.277a1.894,1.894,0,0,0,.768-.534l2.173-3.271,2.259,3.4.669.4L99.6,88.3l-2.314,2.912a1.921,1.921,0,0,0-.409,1.152,3.743,3.743,0,0,0-2.237,2.85Z" transform="translate(-75.9 -73.425)" fill="#fff"/>
      </g>
    </g>
  </g>
</svg>
