<svg xmlns="http://www.w3.org/2000/svg" xmlns:xlink="http://www.w3.org/1999/xlink" width="150" height="150" viewBox="0 0 150 150">
  <defs>
    <clipPath id="clip-path">
      <rect id="Rectángulo_454829" data-name="Rectángulo 454829" width="150" height="150" fill="#1e535a"/>
    </clipPath>
    <clipPath id="clip-path-2">
      <rect id="Rectángulo_462488" data-name="Rectángulo 462488" width="60.538" height="60.333" fill="#1e535a"/>
    </clipPath>
  </defs>
  <g id="Grupo_1184512" data-name="Grupo 1184512" transform="translate(-186 -4323.945)">
    <g id="Grupo_1177591" data-name="Grupo 1177591" transform="translate(186 4323.945)">
      <g id="Grupo_1177589" data-name="Grupo 1177589" transform="translate(0 0)">
        <g id="Grupo_1177587" data-name="Grupo 1177587" clip-path="url(#clip-path)">
          <path id="Trazado_997422" data-name="Trazado 997422" d="M143.876,66.392A68.963,68.963,0,0,0,128.3,30.506a7.931,7.931,0,0,0-11.16-10.685A68.861,68.861,0,0,0,81.486,5.891,7.933,7.933,0,0,0,66.079,6.2,68.956,68.956,0,0,0,31.872,20.827,7.935,7.935,0,0,0,20.859,31.915,68.9,68.9,0,0,0,6.425,66.324a7.938,7.938,0,0,0-.19,15.546,68.878,68.878,0,0,0,13.982,35.106A7.934,7.934,0,0,0,31,128.179,68.951,68.951,0,0,0,66.016,143.5a7.935,7.935,0,0,0,15.546.313,68.892,68.892,0,0,0,35.914-14.188,7.933,7.933,0,0,0,11.1-10.74A68.98,68.98,0,0,0,144.062,81.8a7.935,7.935,0,0,0-.186-15.4M121.469,34.413a7.89,7.89,0,0,0,4.394-1.33,65.489,65.489,0,0,1,14.453,33.289,7.946,7.946,0,0,0-5.071,3.674l-20.281-7.6c.016-.222.032-.447.032-.677a7.935,7.935,0,0,0-3.361-6.484l8.871-20.93a8.6,8.6,0,0,0,.962.063m-4.287-1.263-8.816,20.791a7.853,7.853,0,0,0-8.741,5.047L62.936,50.537a7.72,7.72,0,0,0-.166-1.58l52.065-18.131a7.961,7.961,0,0,0,2.348,2.324M73.822,15.882a7.941,7.941,0,0,0,7.795-6.441,65.381,65.381,0,0,1,33.059,12.929,7.9,7.9,0,0,0-1.148,4.1,8.337,8.337,0,0,0,.075,1.049L61.277,45.739A7.965,7.965,0,0,0,59.84,44.3L73.565,15.87c.087,0,.17.012.257.012M66.1,9.754a7.943,7.943,0,0,0,3.994,5.2L56.637,42.817A7.963,7.963,0,0,0,55,42.647a7.883,7.883,0,0,0-4.525,1.421L34.524,30.747a7.894,7.894,0,0,0-.269-7.308A65.433,65.433,0,0,1,66.1,9.754M15.688,72.393,48.676,55.378a7.912,7.912,0,0,0,6.259,3.147L66.241,94.665a8.071,8.071,0,0,0-1.75,1.936l-48.9-20.376a7.888,7.888,0,0,0,.293-2.106,7.98,7.98,0,0,0-.194-1.726m7.791-38.111a7.935,7.935,0,0,0,8.864-.756L48.091,46.677a7.919,7.919,0,0,0-.875,5.487L14.172,69.2a7.939,7.939,0,0,0-4.2-2.755A65.4,65.4,0,0,1,23.479,34.282m3.286,79.246a7.918,7.918,0,0,0-3.943,1.053A65.346,65.346,0,0,1,9.786,81.835a7.948,7.948,0,0,0,4.121-2.486L63.3,99.926a8.514,8.514,0,0,0-.063.954,7.939,7.939,0,0,0,.475,2.684L33.839,117.875a7.94,7.94,0,0,0-7.074-4.347M66.17,139.96a65.5,65.5,0,0,1-32.675-14.295,7.858,7.858,0,0,0,1.211-4.2l0-.091,30.926-14.821a7.941,7.941,0,0,0,2.8,1.77l1.853,26.63a7.941,7.941,0,0,0-4.113,5m3.29-46.828L58.4,57.758a7.952,7.952,0,0,0,3.773-3.773L99.154,62.5a7.894,7.894,0,0,0,1.263,3.61L75.049,93.952a7.843,7.843,0,0,0-5.59-.819m12.094,47.136a7.938,7.938,0,0,0-7.731-6.152l-.059,0L72,108.782a7.927,7.927,0,0,0,4.853-2.355l36.978,16.31c0,.071-.012.135-.012.206A7.9,7.9,0,0,0,115,127.083a65.377,65.377,0,0,1-33.443,13.186m33.17-21-36.016-15.89a7.894,7.894,0,0,0-1.041-7.062l25.292-27.762a7.894,7.894,0,0,0,4.1,1.148,8.74,8.74,0,0,0,.974-.063l9.453,46.618a7.923,7.923,0,0,0-2.759,3.013m11.393-2.969a7.893,7.893,0,0,0-5.277-1.247l-9.457-46.638a7.973,7.973,0,0,0,2.5-2.613l20.269,7.6a7.042,7.042,0,0,0-.036.713A7.938,7.938,0,0,0,140.5,81.9a65.431,65.431,0,0,1-14.382,34.4" transform="translate(0 0.002)" fill="#1e535a"/>
        </g>
      </g>
    </g>
    <g id="Elipse_13614" data-name="Elipse 13614" transform="translate(210.711 4347.945)" fill="#fff" stroke="#1e535a" stroke-width="3">
      <ellipse cx="50.732" cy="50.733" rx="50.732" ry="50.733" stroke="none"/>
      <ellipse cx="50.732" cy="50.733" rx="49.232" ry="49.233" fill="none"/>
    </g>
    <g id="Grupo_1212891" data-name="Grupo 1212891" transform="translate(230.711 4368.945)">
      <g id="Grupo_1212890" data-name="Grupo 1212890" clip-path="url(#clip-path-2)">
        <path id="Trazado_1278606" data-name="Trazado 1278606" d="M113.733,275.45a30.247,30.247,0,0,1-40.023,1.624,13.121,13.121,0,0,1-.089-4.259,32.54,32.54,0,0,1,2.064-9.522,10.177,10.177,0,0,0,4.222-.688,49.149,49.149,0,0,0,11.13,7.558c-.033,3.164,1.7,5.868,4.736,6.554a5.9,5.9,0,0,0,6.36-2.584,59.318,59.318,0,0,0,11.6,1.317" transform="translate(-62.554 -223.527)" fill="#1e535a"/>
        <path id="Trazado_1278607" data-name="Trazado 1278607" d="M63.715,39.341a8.664,8.664,0,0,0-4.961.359,24.907,24.907,0,0,1-2.271-7.679c-.116-1.478-.04-2.927-.043-4.41a2.35,2.35,0,0,1,.84-1.562,30.865,30.865,0,0,1,7.687-5.381A62.506,62.506,0,0,0,71.146,28.8a19.169,19.169,0,0,1,1.893,2.217,55.576,55.576,0,0,0-9.324,8.327" transform="translate(-48.023 -17.593)" fill="#1e535a"/>
        <path id="Trazado_1278608" data-name="Trazado 1278608" d="M163.472,6.679a33.735,33.735,0,0,0-13.656,4,39.91,39.91,0,0,1-2.981-3.089L143.581,4l-2.146-2.559a30.259,30.259,0,0,1,28.277,5.288,7.555,7.555,0,0,1-1.924-.036,21.642,21.642,0,0,0-4.316-.015" transform="translate(-120.388 0)" fill="#1e535a"/>
        <path id="Trazado_1278609" data-name="Trazado 1278609" d="M176.217,156.111a33.676,33.676,0,0,1-12.606-1.3,5.916,5.916,0,0,0-5.238-4.7,6.389,6.389,0,0,0-3.867.926,57.509,57.509,0,0,1-9.8-6.721,9.479,9.479,0,0,0,1.357-6.091,10.02,10.02,0,0,0-.973-3.009,63.821,63.821,0,0,1,8.932-7.463c3.757,3.468,7.535,6.634,11.569,9.727a6.489,6.489,0,0,0,10.256,7.567l6.028,4.152a27.016,27.016,0,0,1-3.331,6.536,6.359,6.359,0,0,1-2.322.382" transform="translate(-123.169 -108.738)" fill="#1e535a"/>
        <path id="Trazado_1278610" data-name="Trazado 1278610" d="M255.4,96.656a6.523,6.523,0,0,0-9.636-5.944c-.626-.163-.924-.72-1.378-1.082-.815-.649-1.492-1.36-2.254-2.066l-1.7-1.577c-1.606-1.487-3.141-2.929-4.766-4.663a42.326,42.326,0,0,1,14.241-4.839,17.547,17.547,0,0,1,4.663-.206,29.971,29.971,0,0,1,5.562,26.422l-5.113-3.946Z" transform="translate(-200.597 -64.858)" fill="#1e535a"/>
        <path id="Trazado_1278611" data-name="Trazado 1278611" d="M7.207,114.139a58.3,58.3,0,0,0-1.445,6.871,16.147,16.147,0,0,1-.461,3.366A30.118,30.118,0,0,1,5,90.684a2.09,2.09,0,0,1-.03,1.577A20.328,20.328,0,0,0,6.533,102.34a9.073,9.073,0,0,0,.674,11.8" transform="translate(0 -77.189)" fill="#1e535a"/>
      </g>
    </g>
  </g>
</svg>
