<svg xmlns="http://www.w3.org/2000/svg" xmlns:xlink="http://www.w3.org/1999/xlink" width="500" height="284.241" viewBox="0 0 500 284.241">
  <defs>
    <clipPath id="clip-path">
      <rect id="Rectángulo_462441" data-name="Rectángulo 462441" width="323.096" height="284.241" fill="none"/>
    </clipPath>
    <clipPath id="clip-path-3">
      <rect id="Rectángulo_462433" data-name="Rectángulo 462433" width="86.263" height="79.434" fill="none"/>
    </clipPath>
    <clipPath id="clip-path-4">
      <rect id="Rectángulo_462427" data-name="Rectángulo 462427" width="72.787" height="5.908" fill="none"/>
    </clipPath>
    <clipPath id="clip-path-5">
      <rect id="Rectángulo_462428" data-name="Rectángulo 462428" width="75.488" height="6.671" fill="none"/>
    </clipPath>
    <clipPath id="clip-path-6">
      <rect id="Rectángulo_462429" data-name="Rectángulo 462429" width="78.19" height="6.671" fill="none"/>
    </clipPath>
    <clipPath id="clip-path-7">
      <rect id="Rectángulo_462430" data-name="Rectángulo 462430" width="80.891" height="6.663" fill="none"/>
    </clipPath>
    <clipPath id="clip-path-8">
      <rect id="Rectángulo_462431" data-name="Rectángulo 462431" width="83.592" height="6.663" fill="none"/>
    </clipPath>
    <clipPath id="clip-path-9">
      <rect id="Rectángulo_462432" data-name="Rectángulo 462432" width="86.263" height="6.535" fill="none"/>
    </clipPath>
    <clipPath id="clip-path-10">
      <rect id="Rectángulo_462436" data-name="Rectángulo 462436" width="42.792" height="41.245" fill="none"/>
    </clipPath>
    <clipPath id="clip-path-11">
      <rect id="Rectángulo_462434" data-name="Rectángulo 462434" width="37.374" height="28.696" fill="none"/>
    </clipPath>
    <clipPath id="clip-path-12">
      <rect id="Rectángulo_462435" data-name="Rectángulo 462435" width="22.396" height="25.761" fill="none"/>
    </clipPath>
    <clipPath id="clip-path-13">
      <rect id="Rectángulo_462439" data-name="Rectángulo 462439" width="42.793" height="41.245" fill="none"/>
    </clipPath>
    <clipPath id="clip-path-14">
      <rect id="Rectángulo_462437" data-name="Rectángulo 462437" width="37.375" height="28.696" fill="none"/>
    </clipPath>
  </defs>
  <g id="Grupo_1212370" data-name="Grupo 1212370" transform="translate(-1017.422 -1845.76)">
    <path id="Trazado_1272217" data-name="Trazado 1272217" d="M250,.976C94.7-92.1,0,57.925,0,128.174s18.939,125.819,250,127.2,250-56.948,250-127.2S405.3,94.048,250,.976Z" transform="translate(1017.422 1874.366)" fill="#ffe79e"/>
    <g id="Grupo_1212831" data-name="Grupo 1212831" transform="translate(1106.422 1845.76)">
      <g id="Grupo_1212830" data-name="Grupo 1212830" clip-path="url(#clip-path)">
        <g id="Grupo_1212829" data-name="Grupo 1212829">
          <g id="Grupo_1212828" data-name="Grupo 1212828" clip-path="url(#clip-path)">
            <path id="Trazado_1278238" data-name="Trazado 1278238" d="M323.1,317.471c0,13.638-72.328,24.693-161.548,24.693S0,331.108,0,317.471s72.328-24.693,161.549-24.693S323.1,303.833,323.1,317.471" transform="translate(0 -57.923)" fill="#ffd453"/>
            <rect id="Rectángulo_462414" data-name="Rectángulo 462414" width="43.532" height="52.572" transform="translate(219.013 10.08)" fill="#6cb9ff"/>
            <rect id="Rectángulo_462415" data-name="Rectángulo 462415" width="43.532" height="52.572" transform="translate(219.013 10.08)" fill="none" stroke="#fff" stroke-miterlimit="10" stroke-width="2"/>
            <rect id="Rectángulo_462416" data-name="Rectángulo 462416" width="55.664" height="16.652" transform="translate(212.947 0.802)" fill="#6cb9ff"/>
            <rect id="Rectángulo_462417" data-name="Rectángulo 462417" width="55.664" height="16.652" transform="translate(212.947 0.802)" fill="none" stroke="#fff" stroke-miterlimit="10" stroke-width="2"/>
            <rect id="Rectángulo_462418" data-name="Rectángulo 462418" width="253.107" height="179.289" transform="translate(34.994 78.947)" fill="#6cb9ff"/>
            <rect id="Rectángulo_462419" data-name="Rectángulo 462419" width="253.107" height="179.289" transform="translate(34.994 78.947)" fill="none" stroke="#fff" stroke-miterlimit="10" stroke-width="2"/>
            <path id="Trazado_1278239" data-name="Trazado 1278239" d="M165.159,1.742,18.25,79.291H312.067Z" transform="translate(-3.611 -0.345)" fill="#6cb9ff"/>
            <path id="Trazado_1278240" data-name="Trazado 1278240" d="M165.159,1.742,18.25,79.291H312.067Z" transform="translate(-3.611 -0.345)" fill="none" stroke="#fff" stroke-miterlimit="10" stroke-width="2"/>
            <rect id="Rectángulo_462420" data-name="Rectángulo 462420" width="49.518" height="41.208" transform="translate(55.85 94.304)" fill="#5961d7"/>
            <rect id="Rectángulo_462421" data-name="Rectángulo 462421" width="41.946" height="34.907" transform="translate(59.636 97.454)" fill="#abb3ff"/>
            <path id="Trazado_1278241" data-name="Trazado 1278241" d="M66.658,315.521H92.181L95.7,285.849H63.136Z" transform="translate(-12.491 -56.552)" fill="#1e535a"/>
            <rect id="Rectángulo_462422" data-name="Rectángulo 462422" width="39.353" height="6.254" transform="translate(47.252 226.402)" fill="#1e535a"/>
            <path id="Trazado_1278242" data-name="Trazado 1278242" d="M79.084,274.539s3.557-37.96-21.734-54.3" transform="translate(-11.346 -43.572)" fill="none" stroke="#fb7774" stroke-linecap="round" stroke-linejoin="round" stroke-width="1"/>
            <path id="Trazado_1278243" data-name="Trazado 1278243" d="M50.464,230.8a25.541,25.541,0,0,1-7.119-3.892,20.373,20.373,0,0,0-7.253-3.592,10.818,10.818,0,0,0-5.749.44,1.741,1.741,0,0,1-2.249-2,21.788,21.788,0,0,1,21.63-17.833,13.046,13.046,0,0,1,5.58,1.13A13.257,13.257,0,0,1,60.942,211c2.259,4.28,1.567,9.072-3.81,10.36,2.524,6.044-.953,11.082-6.668,9.439" transform="translate(-5.552 -40.343)" fill="#1e535a"/>
            <path id="Trazado_1278244" data-name="Trazado 1278244" d="M78.1,276.146c-.847-7.152-1.685-14.607.066-21.694.835-3.38,2.277-6.956,4.758-9.474a9.519,9.519,0,0,1,9.745-2.147,11.768,11.768,0,0,1,7.4,6.991c.179.48.955.273.774-.213a12.572,12.572,0,0,0-6.449-6.96,10.891,10.891,0,0,0-10.219.291c-3.092,1.933-4.922,5.554-6.076,8.9a35.648,35.648,0,0,0-1.737,11.148,100.4,100.4,0,0,0,.935,13.163c.06.506.863.513.8,0" transform="translate(-15.107 -47.782)" fill="#fb7774"/>
            <path id="Trazado_1278245" data-name="Trazado 1278245" d="M100.982,245.39a6.648,6.648,0,0,0-9.829,6.063c.211,6.177,8.441,9.61,9.009,15.763.052.564.116,1.261.64,1.477a1.383,1.383,0,0,0,1.113-.2,19.5,19.5,0,0,0,10.073-13.144,13.042,13.042,0,0,0-.824-8.6,7.988,7.988,0,0,0-7.034-4.5c-1.855.062-3.842,1.191-4.165,3.019" transform="translate(-18.033 -47.924)" fill="#1e535a"/>
            <path id="Trazado_1278246" data-name="Trazado 1278246" d="M49.409,256.786a13.038,13.038,0,0,1,3.418-7.939A7.986,7.986,0,0,1,60.9,246.71a4.32,4.32,0,0,1,3.047,3.861,6.632,6.632,0,0,1,6.488,8.88c-2.091,5.816-10.977,6.566-13.4,12.25-.222.521-.5,1.165-1.061,1.21a1.379,1.379,0,0,1-1-.528,19.5,19.5,0,0,1-5.567-15.6" transform="translate(-9.756 -48.734)" fill="#1e535a"/>
            <path id="Trazado_1278247" data-name="Trazado 1278247" d="M77.627,277.31a36.326,36.326,0,0,0,.359-6.712c-.035-2.463-.171-4.924-.343-7.381a31.842,31.842,0,0,0-1.021-7.054,10.284,10.284,0,0,0-4.35-6.117,4.742,4.742,0,0,0-4.183-.433,7.864,7.864,0,0,0-3.118,2.908c-.3.42.394.821.693.405a6.916,6.916,0,0,1,2.778-2.6,4.062,4.062,0,0,1,3.636.535,9.847,9.847,0,0,1,3.878,5.885,33.1,33.1,0,0,1,.894,6.6c.154,2.214.277,4.431.324,6.651a37.186,37.186,0,0,1-.32,7.1c-.087.505.685.722.773.213" transform="translate(-12.839 -49.322)" fill="#fb7774"/>
            <rect id="Rectángulo_462423" data-name="Rectángulo 462423" width="59.729" height="52.474" transform="translate(237.894 206.494)" fill="#644602"/>
            <rect id="Rectángulo_462424" data-name="Rectángulo 462424" width="65.654" height="7.41" transform="translate(234.932 201.297)" fill="#5a3932"/>
            <rect id="Rectángulo_462425" data-name="Rectángulo 462425" width="46.881" height="16.931" transform="translate(243.853 213.738)" fill="none" stroke="#fff" stroke-miterlimit="10" stroke-width="1"/>
            <circle id="Elipse_13761" data-name="Elipse 13761" cx="3.978" cy="3.978" r="3.978" transform="translate(263.316 218.226)" fill="none" stroke="#fff" stroke-miterlimit="10" stroke-width="1"/>
            <rect id="Rectángulo_462426" data-name="Rectángulo 462426" width="46.881" height="16.931" transform="translate(243.853 234.793)" fill="none" stroke="#fff" stroke-miterlimit="10" stroke-width="1"/>
            <circle id="Elipse_13762" data-name="Elipse 13762" cx="3.978" cy="3.978" r="3.978" transform="translate(263.316 239.281)" fill="none" stroke="#fff" stroke-miterlimit="10" stroke-width="1"/>
            <path id="Trazado_1278248" data-name="Trazado 1278248" d="M233.885,246.973H147.622l.6-6.534.74-8.067.611-6.663.74-8.067.611-6.664.739-8.067.611-6.67.74-8.059.611-6.67.74-8.067.543-5.909h71.7l.544,5.909.74,8.067.611,6.67.739,8.059.611,6.67.74,8.067.611,6.664.74,8.067.611,6.663.74,8.067Z" transform="translate(-29.206 -33.146)" fill="#5961d7"/>
            <g id="Grupo_1212809" data-name="Grupo 1212809" transform="translate(118.416 134.393)" opacity="0.5">
              <g id="Grupo_1212808" data-name="Grupo 1212808">
                <g id="Grupo_1212807" data-name="Grupo 1212807" clip-path="url(#clip-path-3)">
                  <g id="Grupo_1212791" data-name="Grupo 1212791" transform="translate(6.738)" style="mix-blend-mode: multiply;isolation: isolate">
                    <g id="Grupo_1212790" data-name="Grupo 1212790">
                      <g id="Grupo_1212789" data-name="Grupo 1212789" clip-path="url(#clip-path-4)">
                        <path id="Trazado_1278249" data-name="Trazado 1278249" d="M228.809,173.447H156.022l.544-5.909h71.7Z" transform="translate(-156.022 -167.539)" fill="#5961d7"/>
                      </g>
                    </g>
                  </g>
                  <g id="Grupo_1212794" data-name="Grupo 1212794" transform="translate(5.387 13.974)" style="mix-blend-mode: multiply;isolation: isolate">
                    <g id="Grupo_1212793" data-name="Grupo 1212793">
                      <g id="Grupo_1212792" data-name="Grupo 1212792" clip-path="url(#clip-path-5)">
                        <path id="Trazado_1278250" data-name="Trazado 1278250" d="M229.826,191.63H154.338l.611-6.671h74.266Z" transform="translate(-154.338 -184.96)" fill="#5961d7"/>
                      </g>
                    </g>
                  </g>
                  <g id="Grupo_1212797" data-name="Grupo 1212797" transform="translate(4.036 28.704)" style="mix-blend-mode: multiply;isolation: isolate">
                    <g id="Grupo_1212796" data-name="Grupo 1212796">
                      <g id="Grupo_1212795" data-name="Grupo 1212795" clip-path="url(#clip-path-6)">
                        <path id="Trazado_1278251" data-name="Trazado 1278251" d="M230.844,209.993h-78.19l.611-6.671h76.967Z" transform="translate(-152.654 -203.322)" fill="#5961d7"/>
                      </g>
                    </g>
                  </g>
                  <g id="Grupo_1212800" data-name="Grupo 1212800" transform="translate(2.686 43.441)" style="mix-blend-mode: multiply;isolation: isolate">
                    <g id="Grupo_1212799" data-name="Grupo 1212799">
                      <g id="Grupo_1212798" data-name="Grupo 1212798" clip-path="url(#clip-path-7)">
                        <path id="Trazado_1278252" data-name="Trazado 1278252" d="M231.861,228.357H150.97l.611-6.663H231.25Z" transform="translate(-150.97 -221.694)" fill="#5961d7"/>
                      </g>
                    </g>
                  </g>
                  <g id="Grupo_1212803" data-name="Grupo 1212803" transform="translate(1.336 58.17)" style="mix-blend-mode: multiply;isolation: isolate">
                    <g id="Grupo_1212802" data-name="Grupo 1212802">
                      <g id="Grupo_1212801" data-name="Grupo 1212801" clip-path="url(#clip-path-8)">
                        <path id="Trazado_1278253" data-name="Trazado 1278253" d="M232.879,246.719H149.287l.611-6.663h82.37Z" transform="translate(-149.287 -240.056)" fill="#5961d7"/>
                      </g>
                    </g>
                  </g>
                  <g id="Grupo_1212806" data-name="Grupo 1212806" transform="translate(0 72.9)" style="mix-blend-mode: multiply;isolation: isolate">
                    <g id="Grupo_1212805" data-name="Grupo 1212805">
                      <g id="Grupo_1212804" data-name="Grupo 1212804" clip-path="url(#clip-path-9)">
                        <path id="Trazado_1278254" data-name="Trazado 1278254" d="M233.885,264.953H147.622l.6-6.534h85.071Z" transform="translate(-147.622 -258.418)" fill="#5961d7"/>
                      </g>
                    </g>
                  </g>
                </g>
              </g>
            </g>
            <path id="Trazado_1278255" data-name="Trazado 1278255" d="M201.023,167.538H185.148s.717,10.506,13.029,10.506,13.029-10.506,13.029-10.506Z" transform="translate(-36.63 -33.146)" fill="#ffcdcc"/>
            <path id="Trazado_1278256" data-name="Trazado 1278256" d="M295.814,280.35c0,26.131-31.564,30.855-113,30.855H148.633l-.37-18.7,41.675-14.382-37.08-13.59L225.495,247.1s70.319,7.116,70.319,33.247" transform="translate(-29.332 -48.887)" fill="#cfe8ff"/>
            <path id="Trazado_1278257" data-name="Trazado 1278257" d="M156.368,296.814l5.763,26.912H149.645l-1.382-23.975Z" transform="translate(-29.332 -58.722)" fill="#d0bfe8"/>
            <path id="Trazado_1278258" data-name="Trazado 1278258" d="M165.165,313.553s.7-.048,2-.144" transform="translate(-32.676 -62.005)" fill="none" stroke="#6b5c7c" stroke-linecap="round" stroke-linejoin="round" stroke-width="1"/>
            <path id="Trazado_1278259" data-name="Trazado 1278259" d="M177.879,302.16c25.546-2.209,90.326-9.008,91.511-21.236,1.08-11.143-16.472-18.085-25.984-21.012" transform="translate(-35.192 -51.421)" fill="none" stroke="#6b5c7c" stroke-linecap="round" stroke-linejoin="round" stroke-width="1" stroke-dasharray="5.131 10.261"/>
            <path id="Trazado_1278260" data-name="Trazado 1278260" d="M254.15,258.387c-1.224-.32-1.944-.48-1.944-.48" transform="translate(-49.896 -51.024)" fill="none" stroke="#6b5c7c" stroke-linecap="round" stroke-linejoin="round" stroke-width="1"/>
            <path id="Trazado_1278261" data-name="Trazado 1278261" d="M118.814,332.632a2.408,2.408,0,0,0,1.139.2c4.414-.227,11.364-10.459,11.364-10.459H143.9l-.528-7.916-.724-10.919-12.164,4.2-.875.3s-10.1,11.907-10.791,24.592" transform="translate(-23.506 -60.051)" fill="#fb7774"/>
            <path id="Trazado_1278262" data-name="Trazado 1278262" d="M120.234,335.521c4.414-.226,11.364-10.459,11.364-10.459h12.579l-.529-7.916-13.763,2.325s-8.444,8.481-9.651,16.05" transform="translate(-23.787 -62.744)" fill="#fff"/>
            <path id="Trazado_1278263" data-name="Trazado 1278263" d="M118.814,333.668a2.408,2.408,0,0,0,1.139.2c.551-9.349,7.953-21.219,10.527-25.09l-.875.3s-10.1,11.907-10.791,24.592" transform="translate(-23.506 -61.088)" fill="#fff"/>
            <path id="Trazado_1278264" data-name="Trazado 1278264" d="M142.818,266.516,140.9,247.1s-70.319,7.118-70.319,33.248,31.563,30.856,113,30.856h32.916l1.256-18.831Z" transform="translate(-13.963 -48.886)" fill="#cfe8ff"/>
            <path id="Trazado_1278265" data-name="Trazado 1278265" d="M243.608,313.553s-.7-.048-2-.144" transform="translate(-47.8 -62.005)" fill="none" stroke="#d0bfe8" stroke-linecap="round" stroke-linejoin="round" stroke-width="1"/>
            <path id="Trazado_1278266" data-name="Trazado 1278266" d="M208.8,302.16c-25.546-2.209-90.326-9.008-91.511-21.236-1.08-11.143,16.472-18.085,25.984-21.012" transform="translate(-23.196 -51.421)" fill="none" stroke="#d0bfe8" stroke-linecap="round" stroke-linejoin="round" stroke-width="1" stroke-dasharray="5.131 10.261"/>
            <path id="Trazado_1278267" data-name="Trazado 1278267" d="M154.635,258.387c1.224-.32,1.944-.48,1.944-.48" transform="translate(-30.593 -51.024)" fill="none" stroke="#d0bfe8" stroke-linecap="round" stroke-linejoin="round" stroke-width="1"/>
            <path id="Trazado_1278268" data-name="Trazado 1278268" d="M277.564,332.632a2.409,2.409,0,0,1-1.14.2c-4.414-.227-11.363-10.459-11.363-10.459H252.482l.528-7.916.724-10.919,12.164,4.2.875.3s10.1,11.907,10.791,24.592" transform="translate(-49.951 -60.051)" fill="#fb7774"/>
            <path id="Trazado_1278269" data-name="Trazado 1278269" d="M276.424,335.521c-4.414-.226-11.364-10.459-11.364-10.459H252.481l.529-7.916,13.763,2.325s8.444,8.481,9.651,16.05" transform="translate(-49.951 -62.744)" fill="#fff"/>
            <path id="Trazado_1278270" data-name="Trazado 1278270" d="M280.873,333.668a2.409,2.409,0,0,1-1.14.2c-.55-9.349-7.953-21.219-10.526-25.09l.875.3s10.1,11.907,10.791,24.592" transform="translate(-53.26 -61.088)" fill="#fff"/>
            <path id="Trazado_1278271" data-name="Trazado 1278271" d="M145.732,205.978l-5.69,3.856-7.365,4.988-4.5,3.056L94.232,206.989a55.26,55.26,0,0,1,8.436-11.145,99.878,99.878,0,0,1,10.911-9.719c3.154-2.453,6.376-4.709,9.486-6.746,3.38-2.2,6.632-4.158,9.522-5.8,6.753-3.841,11.568-6.036,11.568-6.036l.906,22.026.4,9.772Z" transform="translate(-18.643 -33.146)" fill="#5961d7"/>
            <g id="Grupo_1212818" data-name="Grupo 1212818" transform="translate(84.025 140.43)" opacity="0.5">
              <g id="Grupo_1212817" data-name="Grupo 1212817">
                <g id="Grupo_1212816" data-name="Grupo 1212816" clip-path="url(#clip-path-10)">
                  <g id="Grupo_1212812" data-name="Grupo 1212812" transform="translate(0 12.549)" style="mix-blend-mode: multiply;isolation: isolate">
                    <g id="Grupo_1212811" data-name="Grupo 1212811">
                      <g id="Grupo_1212810" data-name="Grupo 1212810" clip-path="url(#clip-path-11)">
                        <path id="Trazado_1278272" data-name="Trazado 1278272" d="M115.66,190.709l26.463,23.709-7.365,4.988-30.01-18.977a99.885,99.885,0,0,1,10.911-9.719" transform="translate(-104.749 -190.709)" fill="#5961d7"/>
                      </g>
                    </g>
                  </g>
                  <g id="Grupo_1212815" data-name="Grupo 1212815" transform="translate(20.397)" style="mix-blend-mode: multiply;isolation: isolate">
                    <g id="Grupo_1212814" data-name="Grupo 1212814">
                      <g id="Grupo_1212813" data-name="Grupo 1212813" clip-path="url(#clip-path-12)">
                        <path id="Trazado_1278273" data-name="Trazado 1278273" d="M152.571,200.826l-22.4-19.959c3.381-2.2,6.633-4.158,9.523-5.8l12.473,15.989Z" transform="translate(-130.176 -175.065)" fill="#5961d7"/>
                      </g>
                    </g>
                  </g>
                </g>
              </g>
            </g>
            <path id="Trazado_1278274" data-name="Trazado 1278274" d="M172.21,242.385l-48.262-15.868-30.632-9.8c-3.777,6.81-5.078,14.109-2.045,21.564,12.992,31.935,81.876,11.367,81.876,11.367Z" transform="translate(-17.724 -42.875)" fill="#ffcdcc"/>
            <path id="Trazado_1278275" data-name="Trazado 1278275" d="M244.349,205.978l5.69,3.856,7.365,4.988,4.5,3.056,33.941-10.889a55.262,55.262,0,0,0-8.436-11.145,99.806,99.806,0,0,0-10.911-9.719c-3.154-2.453-6.376-4.709-9.486-6.746-3.38-2.2-6.632-4.158-9.522-5.8-6.753-3.841-11.568-6.036-11.568-6.036l-.906,22.026-.4,9.772Z" transform="translate(-48.342 -33.146)" fill="#5961d7"/>
            <g id="Grupo_1212827" data-name="Grupo 1212827" transform="translate(196.278 140.43)" opacity="0.5">
              <g id="Grupo_1212826" data-name="Grupo 1212826">
                <g id="Grupo_1212825" data-name="Grupo 1212825" clip-path="url(#clip-path-13)">
                  <g id="Grupo_1212821" data-name="Grupo 1212821" transform="translate(5.418 12.549)" style="mix-blend-mode: multiply;isolation: isolate">
                    <g id="Grupo_1212820" data-name="Grupo 1212820">
                      <g id="Grupo_1212819" data-name="Grupo 1212819" clip-path="url(#clip-path-14)">
                        <path id="Trazado_1278276" data-name="Trazado 1278276" d="M277.9,190.709l-26.463,23.709,7.365,4.988,30.01-18.977a99.889,99.889,0,0,0-10.911-9.719" transform="translate(-251.441 -190.709)" fill="#5961d7"/>
                      </g>
                    </g>
                  </g>
                  <g id="Grupo_1212824" data-name="Grupo 1212824" style="mix-blend-mode: multiply;isolation: isolate">
                    <g id="Grupo_1212823" data-name="Grupo 1212823">
                      <g id="Grupo_1212822" data-name="Grupo 1212822" clip-path="url(#clip-path-12)">
                        <path id="Trazado_1278277" data-name="Trazado 1278277" d="M244.687,200.826l22.4-19.959c-3.381-2.2-6.633-4.158-9.523-5.8l-12.473,15.989Z" transform="translate(-244.687 -175.065)" fill="#5961d7"/>
                      </g>
                    </g>
                  </g>
                </g>
              </g>
            </g>
            <path id="Trazado_1278278" data-name="Trazado 1278278" d="M209.965,242.385l48.262-15.868,30.632-9.8c3.777,6.81,5.078,14.109,2.045,21.564-12.992,31.935-81.876,11.367-81.876,11.367Z" transform="translate(-41.354 -42.875)" fill="#ffcdcc"/>
            <path id="Trazado_1278279" data-name="Trazado 1278279" d="M209.443,120.027a19.053,19.053,0,0,0,5-2.874,7.985,7.985,0,0,0,2.862-4.881,2.848,2.848,0,0,0-.728-2.556,3.365,3.365,0,0,0-3.161-.2,18.271,18.271,0,0,0-4.836,2.333,10.723,10.723,0,0,0,2.767-7.192,5.434,5.434,0,0,0-1.227-3.736,4.774,4.774,0,0,0-4.875-.974,11.563,11.563,0,0,0-4.314,2.9,43.233,43.233,0,0,0-7.514,9.571c-.163-1.515-.43-3.2-1.644-4.122a3.742,3.742,0,0,0-4.458.356,8.439,8.439,0,0,0-2.447,4.075,24.219,24.219,0,0,0-1.152,6.064" transform="translate(-36.346 -19.721)" fill="#5a3932"/>
            <path id="Trazado_1278280" data-name="Trazado 1278280" d="M205.113,155.434H194.407v7.649c3.569-.432,7.138-.927,10.706-1.389Z" transform="translate(-38.461 -30.751)" fill="#5a3932"/>
            <path id="Trazado_1278281" data-name="Trazado 1278281" d="M194.407,164.627v4h10.706v-5.39c-3.569.462-7.138.957-10.706,1.389" transform="translate(-38.461 -32.295)" fill="#ffcdcc"/>
            <path id="Trazado_1278282" data-name="Trazado 1278282" d="M209.631,122.259H185.9s-7.977,29.273,11.868,29.884c19.845-.61,11.868-29.884,11.868-29.884" transform="translate(-36.464 -24.188)" fill="#ffcdcc"/>
            <path id="Trazado_1278283" data-name="Trazado 1278283" d="M183.619,138.9s5.368-2.8,4.153-17.624H184.1s-6.028,6.736-.483,17.624" transform="translate(-35.863 -23.993)" fill="#5a3932"/>
            <path id="Trazado_1278284" data-name="Trazado 1278284" d="M216.9,138.9s-5.368-2.8-4.153-17.624h3.67s6.028,6.736.483,17.624" transform="translate(-42.054 -23.993)" fill="#5a3932"/>
            <path id="Trazado_1278285" data-name="Trazado 1278285" d="M179.126,136.379c-4.336.9-1.084,10.255,5.421,8.832l-.723-3.992s-.362-5.743-4.7-4.84" transform="translate(-35.048 -26.962)" fill="#ffcdcc"/>
            <path id="Trazado_1278286" data-name="Trazado 1278286" d="M221.211,136.379c-4.336-.9-4.7,4.84-4.7,4.84l-.723,3.992c6.5,1.423,9.757-7.929,5.42-8.832" transform="translate(-42.692 -26.962)" fill="#ffcdcc"/>
            <path id="Trazado_1278287" data-name="Trazado 1278287" d="M194.806,140.7c0,.943-.518,1.708-1.158,1.708s-1.158-.764-1.158-1.708.518-1.708,1.158-1.708,1.158.764,1.158,1.708" transform="translate(-38.082 -27.498)" fill="#5a3932"/>
            <path id="Trazado_1278288" data-name="Trazado 1278288" d="M209.1,140.7c0,.943-.518,1.708-1.158,1.708s-1.158-.764-1.158-1.708.519-1.708,1.158-1.708,1.158.764,1.158,1.708" transform="translate(-40.91 -27.498)" fill="#5a3932"/>
            <path id="Trazado_1278289" data-name="Trazado 1278289" d="M200.748,136.283a1.292,1.292,0,0,0-1.292,1.292v7.115h2.585v-7.115a1.292,1.292,0,0,0-1.292-1.292" transform="translate(-39.46 -26.962)" fill="#fb7774"/>
            <path id="Trazado_1278290" data-name="Trazado 1278290" d="M195.614,135.285c-.13,1.091-2.369,1.163-3.26,1.087a2.2,2.2,0,0,1-1.786-.866,1.575,1.575,0,0,1,.148-1.673c1.547-2.131,5.188-.988,4.9,1.453" transform="translate(-37.667 -26.256)" fill="#5a3932"/>
            <path id="Trazado_1278291" data-name="Trazado 1278291" d="M205.256,135.285c.13,1.091,2.369,1.163,3.26,1.087a2.2,2.2,0,0,0,1.786-.866,1.575,1.575,0,0,0-.148-1.673c-1.547-2.131-5.188-.988-4.9,1.453" transform="translate(-40.605 -26.256)" fill="#5a3932"/>
            <path id="Trazado_1278292" data-name="Trazado 1278292" d="M199.456,148.7c.143,0,8.195-2.422,8.195-2.422s-.748,3.522-3.556,4.109a5,5,0,0,1-4.639-1.688" transform="translate(-39.46 -28.939)" fill="#fff"/>
            <path id="Trazado_1278293" data-name="Trazado 1278293" d="M183.967,142.916a10.135,10.135,0,0,0-3.8-4.658.567.567,0,0,0-.769.2.573.573,0,0,0,.2.77,8.9,8.9,0,0,1,2.244,2.183,3.2,3.2,0,0,0-1.161,1.288.605.605,0,0,0-.056.434.563.563,0,0,0,.691.393.551.551,0,0,0,.337-.259,2.71,2.71,0,0,1,.254-.415,2.79,2.79,0,0,1,.4-.4c.045-.031.093-.058.139-.087a8.28,8.28,0,0,1,.427.852.58.58,0,0,0,.692.393.566.566,0,0,0,.393-.692" transform="translate(-35.478 -27.337)" fill="#fb7774"/>
            <path id="Trazado_1278294" data-name="Trazado 1278294" d="M217.043,142.916a10.139,10.139,0,0,1,3.8-4.658.563.563,0,1,1,.568.971,8.9,8.9,0,0,0-2.244,2.183,3.2,3.2,0,0,1,1.161,1.288.61.61,0,0,1,.057.434.571.571,0,0,1-.259.336.562.562,0,0,1-.433.057.548.548,0,0,1-.336-.259,2.715,2.715,0,0,0-.255-.415,2.79,2.79,0,0,0-.4-.4c-.044-.031-.093-.058-.139-.087a8.27,8.27,0,0,0-.427.852.58.58,0,0,1-.692.393.567.567,0,0,1-.393-.692" transform="translate(-42.934 -27.337)" fill="#fb7774"/>
            <path id="Trazado_1278295" data-name="Trazado 1278295" d="M233,215.463H146.042c-2.686,0-5.369,2.571-4.348,6.464l8.221,47.633h79.213l8.16-46.465c1.278-5.061-1.6-7.632-4.288-7.632" transform="translate(-27.989 -42.627)" fill="#d0bfe8"/>
            <path id="Trazado_1278296" data-name="Trazado 1278296" d="M237.361,223.732,229.634,270.2a3.074,3.074,0,0,1-3.031,2.565H152.589a3.074,3.074,0,0,1-3.031-2.565l-7.727-46.468a4.345,4.345,0,0,1,4.286-5.063h86.958a4.345,4.345,0,0,1,4.286,5.063" transform="translate(-28.048 -43.261)" fill="#fff"/>
            <path id="Trazado_1278297" data-name="Trazado 1278297" d="M207.282,250.838c-.115,3.834-3.626,6.86-7.845,6.86s-7.73-3.026-7.845-6.86c-.118-3.948,3.393-7.238,7.845-7.238s7.963,3.29,7.845,7.238" transform="translate(-37.904 -48.194)" fill="#d0bfe8"/>
            <path id="Trazado_1278298" data-name="Trazado 1278298" d="M231.535,282.906l-.227,1.352a1.454,1.454,0,0,1-1.434,1.214H153.12a1.454,1.454,0,0,1-1.434-1.214l-.227-1.352Z" transform="translate(-29.965 -55.97)" fill="#d0bfe8"/>
            <path id="Trazado_1278299" data-name="Trazado 1278299" d="M242.678,296.814l-5.764,26.912H249.4l1.382-23.975Z" transform="translate(-46.871 -58.722)" fill="#d0bfe8"/>
            <path id="Trazado_1278300" data-name="Trazado 1278300" d="M294.523,128.036a18.955,18.955,0,1,1-18.954-18.954,18.954,18.954,0,0,1,18.954,18.954" transform="translate(-50.769 -21.581)" fill="#ffe273"/>
            <path id="Trazado_1278301" data-name="Trazado 1278301" d="M291.581,129a15.05,15.05,0,1,1-15.05-15.05A15.05,15.05,0,0,1,291.581,129" transform="translate(-51.731 -22.544)" fill="#fff"/>
            <path id="Trazado_1278302" data-name="Trazado 1278302" d="M281.161,132.41a1.218,1.218,0,1,1-1.218-1.218,1.218,1.218,0,0,1,1.218,1.218" transform="translate(-55.143 -25.955)" fill="#5961d7"/>
            <line id="Línea_3361" data-name="Línea 3361" y1="8.226" transform="translate(224.8 106.455)" fill="none" stroke="#5961d7" stroke-linecap="round" stroke-linejoin="round" stroke-width="1"/>
            <line id="Línea_3362" data-name="Línea 3362" x1="5.443" y2="1.243" transform="translate(224.8 105.213)" fill="none" stroke="#5961d7" stroke-linecap="round" stroke-linejoin="round" stroke-width="1"/>
            <line id="Línea_3363" data-name="Línea 3363" y2="1.699" transform="translate(224.8 92.701)" fill="none" stroke="#5961d7" stroke-linecap="round" stroke-linejoin="round" stroke-width="1"/>
            <line id="Línea_3364" data-name="Línea 3364" y2="1.699" transform="translate(224.8 118.512)" fill="none" stroke="#5961d7" stroke-linecap="round" stroke-linejoin="round" stroke-width="1"/>
            <line id="Línea_3365" data-name="Línea 3365" x1="1.699" transform="translate(236.856 106.456)" fill="none" stroke="#5961d7" stroke-linecap="round" stroke-linejoin="round" stroke-width="1"/>
            <line id="Línea_3366" data-name="Línea 3366" x1="1.699" transform="translate(211.045 106.456)" fill="none" stroke="#5961d7" stroke-linecap="round" stroke-linejoin="round" stroke-width="1"/>
            <line id="Línea_3367" data-name="Línea 3367" x2="0.809" y2="1.373" transform="translate(218.245 95.339)" fill="none" stroke="#5961d7" stroke-linecap="round" stroke-linejoin="round" stroke-width="0.75"/>
            <line id="Línea_3368" data-name="Línea 3368" x2="0.809" y2="1.373" transform="translate(230.546 116.199)" fill="none" stroke="#5961d7" stroke-linecap="round" stroke-linejoin="round" stroke-width="0.75"/>
            <line id="Línea_3369" data-name="Línea 3369" x1="1.373" y2="0.809" transform="translate(234.544 99.9)" fill="none" stroke="#5961d7" stroke-linecap="round" stroke-linejoin="round" stroke-width="0.75"/>
            <line id="Línea_3370" data-name="Línea 3370" x1="1.373" y2="0.809" transform="translate(213.683 112.201)" fill="none" stroke="#5961d7" stroke-linecap="round" stroke-linejoin="round" stroke-width="0.75"/>
            <line id="Línea_3371" data-name="Línea 3371" x2="1.395" y2="0.772" transform="translate(213.507 100.21)" fill="none" stroke="#5961d7" stroke-linecap="round" stroke-linejoin="round" stroke-width="0.75"/>
            <line id="Línea_3372" data-name="Línea 3372" x2="1.395" y2="0.772" transform="translate(234.698 111.93)" fill="none" stroke="#5961d7" stroke-linecap="round" stroke-linejoin="round" stroke-width="0.75"/>
            <line id="Línea_3373" data-name="Línea 3373" x1="0.772" y2="1.395" transform="translate(230.274 95.162)" fill="none" stroke="#5961d7" stroke-linecap="round" stroke-linejoin="round" stroke-width="0.75"/>
            <line id="Línea_3374" data-name="Línea 3374" x1="0.772" y2="1.395" transform="translate(218.554 116.354)" fill="none" stroke="#5961d7" stroke-linecap="round" stroke-linejoin="round" stroke-width="0.75"/>
            <path id="Trazado_1278303" data-name="Trazado 1278303" d="M320.478,186.429H278.124a8.724,8.724,0,0,1,0-17.448h42.353a8.724,8.724,0,0,1,0,17.448" transform="translate(-53.298 -33.431)" fill="#fff"/>
            <path id="Trazado_1278304" data-name="Trazado 1278304" d="M277.644,185.426l-8.03,12.147a1.218,1.218,0,0,0,1.758,1.639l15.7-12.031" transform="translate(-53.298 -36.685)" fill="#fff"/>
            <path id="Trazado_1278305" data-name="Trazado 1278305" d="M324.324,175.748H278.343a.642.642,0,0,1,0-1.283h45.981a.642.642,0,0,1,0,1.283" transform="translate(-54.94 -34.516)" fill="#5961d7"/>
            <path id="Trazado_1278306" data-name="Trazado 1278306" d="M324.324,180.34H278.343a.641.641,0,1,1,0-1.283h45.981a.641.641,0,1,1,0,1.283" transform="translate(-54.94 -35.425)" fill="#5961d7"/>
            <path id="Trazado_1278307" data-name="Trazado 1278307" d="M324.324,184.93H278.343a.642.642,0,0,1,0-1.283h45.981a.642.642,0,0,1,0,1.283" transform="translate(-54.94 -36.333)" fill="#5961d7"/>
            <path id="Trazado_1278308" data-name="Trazado 1278308" d="M125.464,176.685h0a18.24,18.24,0,1,1,18.239-18.24,18.239,18.239,0,0,1-18.239,18.24" transform="translate(-21.213 -27.738)" fill="#fff"/>
            <path id="Trazado_1278309" data-name="Trazado 1278309" d="M140.528,177.36l8.03,12.147a1.218,1.218,0,0,1-1.758,1.639l-15.7-12.031" transform="translate(-25.938 -35.089)" fill="#fff"/>
            <path id="Trazado_1278310" data-name="Trazado 1278310" d="M115.917,161.756l9.1,11.064,16.008-18.38-6.334-4.956L125.02,164.95,120,158.672Z" transform="translate(-22.933 -29.574)" fill="#fb7774"/>
          </g>
        </g>
      </g>
    </g>
  </g>
</svg>
