<svg xmlns="http://www.w3.org/2000/svg" xmlns:xlink="http://www.w3.org/1999/xlink" width="128" height="128" viewBox="0 0 128 128">
  <defs>
    <clipPath id="clip-path">
      <rect id="Rectángulo_454829" data-name="Rectángulo 454829" width="128" height="128" fill="#1e535a"/>
    </clipPath>
    <clipPath id="clip-path-2">
      <rect id="Rectángulo_463090" data-name="Rectángulo 463090" width="52.604" height="52.667" fill="#1e535a"/>
    </clipPath>
  </defs>
  <g id="Grupo_1212465" data-name="Grupo 1212465" transform="translate(-0.402 -0.359)">
    <g id="Grupo_1177591" data-name="Grupo 1177591" transform="translate(0.402 0.359)">
      <g id="Grupo_1177589" data-name="Grupo 1177589" transform="translate(0 0)">
        <g id="Grupo_1177587" data-name="Grupo 1177587" clip-path="url(#clip-path)">
          <path id="Trazado_997422" data-name="Trazado 997422" d="M122.774,56.654a58.848,58.848,0,0,0-13.293-30.623,6.768,6.768,0,0,0-9.523-9.118A58.761,58.761,0,0,0,69.535,5.027a6.769,6.769,0,0,0-13.148.267A58.842,58.842,0,0,0,27.2,17.772a6.771,6.771,0,0,0-9.4,9.462A58.794,58.794,0,0,0,5.483,56.6a6.774,6.774,0,0,0-.162,13.266A58.776,58.776,0,0,0,17.252,99.82a6.771,6.771,0,0,0,9.2,9.56,58.838,58.838,0,0,0,29.883,13.07,6.771,6.771,0,0,0,13.266.267,58.788,58.788,0,0,0,30.646-12.107,6.769,6.769,0,0,0,9.476-9.165A58.863,58.863,0,0,0,122.933,69.8a6.771,6.771,0,0,0-.159-13.144m-19.12-27.288a6.733,6.733,0,0,0,3.75-1.135,55.884,55.884,0,0,1,12.333,28.407,6.781,6.781,0,0,0-4.327,3.135L98.1,53.283c.013-.189.027-.382.027-.578a6.772,6.772,0,0,0-2.868-5.533l7.57-17.86a7.335,7.335,0,0,0,.821.054M100,28.288,92.472,46.03a6.7,6.7,0,0,0-7.459,4.307L53.705,43.125a6.588,6.588,0,0,0-.142-1.348L97.992,26.305a6.793,6.793,0,0,0,2,1.983M63,13.553a6.777,6.777,0,0,0,6.651-5.5A55.792,55.792,0,0,1,97.857,19.09a6.739,6.739,0,0,0-.98,3.5,7.114,7.114,0,0,0,.064.9L52.29,39.031A6.8,6.8,0,0,0,51.064,37.8L62.775,13.543c.074,0,.145.01.22.01M56.4,8.324a6.778,6.778,0,0,0,3.409,4.435L48.331,36.538a6.8,6.8,0,0,0-1.4-.145,6.727,6.727,0,0,0-3.861,1.213L29.461,26.238A6.736,6.736,0,0,0,29.231,20,55.836,55.836,0,0,1,56.4,8.324M13.387,61.776l28.15-14.519a6.751,6.751,0,0,0,5.341,2.686l9.648,30.839a6.887,6.887,0,0,0-1.493,1.652L13.3,65.046a6.731,6.731,0,0,0,.25-1.8,6.81,6.81,0,0,0-.166-1.473m6.648-32.521a6.771,6.771,0,0,0,7.564-.645L41.037,39.831a6.758,6.758,0,0,0-.747,4.682l-28.2,14.539A6.774,6.774,0,0,0,8.506,56.7,55.812,55.812,0,0,1,20.036,29.254m2.8,67.623a6.756,6.756,0,0,0-3.365.9A55.762,55.762,0,0,1,8.351,69.832a6.783,6.783,0,0,0,3.517-2.121L54.013,85.27a7.266,7.266,0,0,0-.054.814,6.775,6.775,0,0,0,.405,2.29L28.876,100.587a6.775,6.775,0,0,0-6.037-3.709m33.626,22.556a55.892,55.892,0,0,1-27.883-12.2,6.705,6.705,0,0,0,1.034-3.581l0-.078L56,90.929a6.776,6.776,0,0,0,2.392,1.51l1.581,22.725a6.776,6.776,0,0,0-3.51,4.27m2.807-39.96L49.831,49.287a6.786,6.786,0,0,0,3.219-3.219l31.562,7.266a6.736,6.736,0,0,0,1.078,3.081L64.042,80.173a6.692,6.692,0,0,0-4.77-.7M69.592,119.7a6.774,6.774,0,0,0-6.6-5.25l-.051,0-1.5-21.623a6.764,6.764,0,0,0,4.142-2.01l31.555,13.918c0,.061-.01.115-.01.176a6.743,6.743,0,0,0,1,3.534A55.789,55.789,0,0,1,69.592,119.7M97.9,101.779,67.164,88.22a6.736,6.736,0,0,0-.888-6.027L87.858,58.5a6.736,6.736,0,0,0,3.5.98,7.46,7.46,0,0,0,.831-.054l8.067,39.781a6.761,6.761,0,0,0-2.355,2.571m9.722-2.534a6.735,6.735,0,0,0-4.5-1.064l-8.07-39.8a6.8,6.8,0,0,0,2.135-2.23l17.3,6.486a6.009,6.009,0,0,0-.03.608,6.774,6.774,0,0,0,5.445,6.641A55.835,55.835,0,0,1,107.62,99.246" transform="translate(0 0.001)" fill="#1e535a"/>
        </g>
      </g>
    </g>
    <g id="Elipse_13614" data-name="Elipse 13614" transform="translate(23.965 23.773)" fill="#fff" stroke="#1e535a" stroke-width="3">
      <ellipse cx="39.732" cy="39.733" rx="39.732" ry="39.733" stroke="none"/>
      <ellipse cx="39.732" cy="39.733" rx="38.232" ry="38.233" fill="none"/>
    </g>
    <g id="Grupo_1213342" data-name="Grupo 1213342" transform="translate(37.965 36.773)">
      <g id="Grupo_1213341" data-name="Grupo 1213341" clip-path="url(#clip-path-2)">
        <path id="Trazado_1279901" data-name="Trazado 1279901" d="M185.835,34.462a2.932,2.932,0,0,0-.5,3.663,2.823,2.823,0,0,0,5.076-2.358,2.885,2.885,0,0,0-3.227-1.955l-1.532-3.021a2.232,2.232,0,0,0-2.1-1.088l-4-.01.016-2.589,8.494,0a3.854,3.854,0,1,0,0-1.544l-8.5,0-.017-2.558L183.71,23a2.274,2.274,0,0,0,1.938-1.1l1.541-3.034a2.9,2.9,0,0,0,3.189-1.843,2.8,2.8,0,0,0-1.32-3.441,2.855,2.855,0,0,0-3.595.791,2.8,2.8,0,0,0,.373,3.772l-1.473,2.933a1.161,1.161,0,0,1-.8.382l-4.006-.016V1.537a5.663,5.663,0,0,1,7.693-.038l.007,5.787a.841.841,0,0,0,.718.8.781.781,0,0,0,.833-.809l0-2.888c5.185.486,7.929,5.57,7.022,10.558a11.638,11.638,0,0,1,0,22.784c.9,4.978-1.834,10.066-7.023,10.55V45.39a.831.831,0,0,0-.68-.8c-.321-.043-.861.276-.863.656l-.023,5.964a5.774,5.774,0,0,1-7.682.015l-.006-20,4.581.011Z" transform="translate(-152.487 -0.01)" fill="#1e535a"/>
        <path id="Trazado_1279902" data-name="Trazado 1279902" d="M17.834,45.461a.829.829,0,0,0-.724-.875.771.771,0,0,0-.828.8l0,2.889C11.1,47.789,8.351,42.7,9.258,37.727a11.643,11.643,0,0,1,0-22.792C8.349,9.954,11.1,4.866,16.281,4.379v2.9a.826.826,0,0,0,.672.8.806.806,0,0,0,.879-.806l.009-5.778a5.658,5.658,0,0,1,7.692.032l0,14.275h-9.4a2.839,2.839,0,0,0-2.93,2.773v15.37a2.787,2.787,0,0,0,2.628,2.891l9.706.034,0,14.268a5.64,5.64,0,0,1-7.692.024Z" transform="translate(0 0)" fill="#1e535a"/>
        <path id="Trazado_1279903" data-name="Trazado 1279903" d="M100.091,131.508H108.5l0,1.553H99.115A1.322,1.322,0,0,1,97.73,131.8V116.3a1.274,1.274,0,0,1,1.382-1.234l9.4,0L108.5,116.6l-8.333-.007a.84.84,0,0,0-.884.75l0,13.406a.857.857,0,0,0,.813.756" transform="translate(-82.997 -97.719)" fill="#1e535a"/>
        <path id="Trazado_1279904" data-name="Trazado 1279904" d="M250.322,161.642a2.312,2.312,0,1,1-2.312-2.312,2.312,2.312,0,0,1,2.312,2.312" transform="translate(-208.659 -135.311)" fill="#1e535a"/>
        <path id="Trazado_1279905" data-name="Trazado 1279905" d="M227.854,99.283A1.284,1.284,0,1,1,226.57,98a1.284,1.284,0,0,1,1.284,1.284" transform="translate(-191.324 -83.226)" fill="#1e535a"/>
        <path id="Trazado_1279906" data-name="Trazado 1279906" d="M227.873,235.592a1.281,1.281,0,1,1-1.281-1.281,1.281,1.281,0,0,1,1.281,1.281" transform="translate(-191.345 -198.988)" fill="#1e535a"/>
        <rect id="Rectángulo_463089" data-name="Rectángulo 463089" width="1.377" height="7.276" transform="translate(17.81 22.75)" fill="#1e535a"/>
        <path id="Trazado_1279907" data-name="Trazado 1279907" d="M136.876,156.687h-2.414l-.459,1.5H132.54l2.487-7.276H136.3l2.5,7.276H137.34Zm-2.042-1.214h1.67l-.84-2.724Z" transform="translate(-112.559 -128.16)" fill="#1e535a"/>
      </g>
    </g>
  </g>
</svg>
