<svg xmlns="http://www.w3.org/2000/svg" xmlns:xlink="http://www.w3.org/1999/xlink" width="96" height="96" viewBox="0 0 96 96">
  <defs>
    <clipPath id="clip-path">
      <rect id="Rectángulo_454829" data-name="Rectángulo 454829" width="96" height="96" fill="#1e535a"/>
    </clipPath>
    <clipPath id="clip-path-2">
      <rect id="Rectángulo_462483" data-name="Rectángulo 462483" width="35.046" height="35.062" fill="#1e535a"/>
    </clipPath>
  </defs>
  <g id="Grupo_1212392" data-name="Grupo 1212392" transform="translate(-1481 -8562.5)">
    <g id="Grupo_1177591" data-name="Grupo 1177591" transform="translate(1481 8562.5)">
      <g id="Grupo_1177589" data-name="Grupo 1177589" transform="translate(0 0)">
        <g id="Grupo_1177587" data-name="Grupo 1177587" clip-path="url(#clip-path)">
          <path id="Trazado_997422" data-name="Trazado 997422" d="M92.081,42.491a44.136,44.136,0,0,0-9.97-22.967,5.076,5.076,0,0,0-7.142-6.838A44.071,44.071,0,0,0,52.151,3.77a5.077,5.077,0,0,0-9.861.2A44.132,44.132,0,0,0,20.4,13.329a5.079,5.079,0,0,0-7.048,7.1A44.1,44.1,0,0,0,4.112,42.448,5.08,5.08,0,0,0,3.99,52.4a44.082,44.082,0,0,0,8.949,22.468,5.078,5.078,0,0,0,6.9,7.17,44.128,44.128,0,0,0,22.412,9.8,5.078,5.078,0,0,0,9.949.2,44.091,44.091,0,0,0,22.985-9.08,5.077,5.077,0,0,0,7.107-6.874A44.147,44.147,0,0,0,92.2,52.349a5.078,5.078,0,0,0-.119-9.858M77.74,22.024a5.05,5.05,0,0,0,2.812-.851,41.913,41.913,0,0,1,9.25,21.3,5.086,5.086,0,0,0-3.246,2.351l-12.98-4.867c.01-.142.02-.286.02-.433a5.079,5.079,0,0,0-2.151-4.15l5.678-13.4a5.5,5.5,0,0,0,.616.041M75,21.216,69.354,34.523a5.026,5.026,0,0,0-5.594,3.23L40.279,32.344a4.941,4.941,0,0,0-.106-1.011l33.322-11.6A5.1,5.1,0,0,0,75,21.216M47.246,10.165a5.083,5.083,0,0,0,4.989-4.122,41.844,41.844,0,0,1,21.158,8.275,5.054,5.054,0,0,0-.735,2.625,5.335,5.335,0,0,0,.048.671L39.217,29.273a5.1,5.1,0,0,0-.92-.92l8.784-18.2c.056,0,.109.008.165.008M42.3,6.243A5.083,5.083,0,0,0,44.86,9.569L36.248,27.4a5.1,5.1,0,0,0-1.049-.109,5.045,5.045,0,0,0-2.9.91L22.1,19.678A5.052,5.052,0,0,0,21.923,15,41.877,41.877,0,0,1,42.3,6.243M10.041,46.332,31.153,35.442a5.064,5.064,0,0,0,4.006,2.014l7.236,23.129a5.166,5.166,0,0,0-1.12,1.239l-31.3-13.04a5.048,5.048,0,0,0,.187-1.348,5.107,5.107,0,0,0-.124-1.1m4.986-24.391a5.079,5.079,0,0,0,5.673-.484l10.079,8.417a5.068,5.068,0,0,0-.56,3.512L9.07,44.29A5.081,5.081,0,0,0,6.38,42.526a41.859,41.859,0,0,1,8.647-20.585m2.1,50.717a5.067,5.067,0,0,0-2.523.674A41.822,41.822,0,0,1,6.263,52.374,5.087,5.087,0,0,0,8.9,50.783l31.609,13.17a5.45,5.45,0,0,0-.041.611,5.081,5.081,0,0,0,.3,1.718L21.657,75.44a5.081,5.081,0,0,0-4.528-2.782M42.349,89.575a41.919,41.919,0,0,1-20.912-9.149,5.029,5.029,0,0,0,.775-2.686l0-.058L42,68.2A5.082,5.082,0,0,0,43.8,69.329l1.186,17.043a5.082,5.082,0,0,0-2.632,3.2m2.105-29.97-7.081-22.64a5.089,5.089,0,0,0,2.415-2.415L63.459,40a5.052,5.052,0,0,0,.808,2.311L48.032,60.13a5.019,5.019,0,0,0-3.577-.524m7.74,30.167a5.081,5.081,0,0,0-4.948-3.937l-.038,0L46.081,69.62a5.073,5.073,0,0,0,3.106-1.507L72.853,78.551c0,.046-.008.086-.008.132a5.057,5.057,0,0,0,.752,2.65,41.841,41.841,0,0,1-21.4,8.439M73.423,76.334,50.373,66.165a5.052,5.052,0,0,0-.666-4.52L65.893,43.877a5.052,5.052,0,0,0,2.622.735,5.594,5.594,0,0,0,.623-.041l6.05,29.836a5.071,5.071,0,0,0-1.766,1.928m7.292-1.9a5.051,5.051,0,0,0-3.377-.8L71.285,43.788a5.1,5.1,0,0,0,1.6-1.672L85.858,46.98a4.506,4.506,0,0,0-.023.456,5.08,5.08,0,0,0,4.084,4.981,41.876,41.876,0,0,1-9.2,22.017" transform="translate(0 0.001)" fill="#1e535a"/>
        </g>
      </g>
    </g>
    <g id="Elipse_13614" data-name="Elipse 13614" transform="translate(1497.965 8579.469)" fill="#d5f4f8" stroke="#1e535a" stroke-width="3">
      <ellipse cx="31.232" cy="31.233" rx="31.232" ry="31.233" stroke="none"/>
      <ellipse cx="31.232" cy="31.233" rx="29.732" ry="29.733" fill="none"/>
    </g>
    <g id="Grupo_1212881" data-name="Grupo 1212881" transform="translate(1511.965 8592.469)">
      <g id="Grupo_1212880" data-name="Grupo 1212880" clip-path="url(#clip-path-2)">
        <path id="Trazado_1278559" data-name="Trazado 1278559" d="M77.547,36.923l-11.025,0A7.405,7.405,0,0,0,64,32.443a11.165,11.165,0,0,1-3.408-7.087h6.962a1.738,1.738,0,0,0,.729-.249l2.306-2.31a3.235,3.235,0,1,0-1.444-1.461L67.18,23.292,60.6,23.285a11.826,11.826,0,0,1,2.988-6.808,11.784,11.784,0,0,1,16.745-.159,11.769,11.769,0,0,1,3.134,6.969H76.5a1.619,1.619,0,0,0-.678.189l-2.34,2.347a3.233,3.233,0,0,0-4.138,4.665,3.226,3.226,0,0,0,5.586-3.2l1.912-1.932h6.627A11.173,11.173,0,0,1,80.111,32.4a7.388,7.388,0,0,0-2.564,4.523" transform="translate(-54.504 -11.608)" fill="#1e535a"/>
        <path id="Trazado_1278560" data-name="Trazado 1278560" d="M126.964,278.932c-.068.664-.409,1.156-1,1.2a1.046,1.046,0,0,1-1.123-1.167,5.512,5.512,0,0,1-4.328-4.553,13.313,13.313,0,0,1-.052-1.966H131.3a13.1,13.1,0,0,1-.058,1.966,5.445,5.445,0,0,1-4.279,4.524" transform="translate(-108.352 -245.07)" fill="#1e535a"/>
        <path id="Trazado_1278561" data-name="Trazado 1278561" d="M2.968,118.181a9.694,9.694,0,0,1-2.035.051,1.014,1.014,0,0,1-.93-1.1,1.04,1.04,0,0,1,1.091-.954l1.695.019a1.015,1.015,0,0,1,.179,1.982" transform="translate(0.001 -104.508)" fill="#1e535a"/>
        <path id="Trazado_1278562" data-name="Trazado 1278562" d="M315.019,118.189a9.589,9.589,0,0,1-2.036.045,1.028,1.028,0,0,1-.926-1.094,1.044,1.044,0,0,1,1.086-.953l1.7.018a1.014,1.014,0,0,1,.181,1.984" transform="translate(-280.702 -104.514)" fill="#1e535a"/>
        <path id="Trazado_1278563" data-name="Trazado 1278563" d="M49.742,223.692a1.023,1.023,0,0,1-1.472-1.419l1.255-1.257a1.033,1.033,0,0,1,1.355,1.559Z" transform="translate(-43.174 -198.584)" fill="#1e535a"/>
        <path id="Trazado_1278564" data-name="Trazado 1278564" d="M270.416,3.039a1.016,1.016,0,0,1-1.429-.143,1.036,1.036,0,0,1,.1-1.424L270.2.371a1.012,1.012,0,0,1,1.445-.039,1.007,1.007,0,0,1,.01,1.5Z" transform="translate(-241.749 -0.043)" fill="#1e535a"/>
        <path id="Trazado_1278565" data-name="Trazado 1278565" d="M271.668,222.284a1,1,0,0,1,.015,1.414,1.017,1.017,0,0,1-1.437.059l-1.207-1.2a1.026,1.026,0,0,1-.022-1.424,1.037,1.037,0,0,1,1.475-.033Z" transform="translate(-241.741 -198.623)" fill="#1e535a"/>
        <path id="Trazado_1278566" data-name="Trazado 1278566" d="M51.03,1.562a.975.975,0,0,1-.1,1.382,1.027,1.027,0,0,1-1.421-.012l-1.153-1.15A1.017,1.017,0,0,1,48.27.391,1.011,1.011,0,0,1,49.7.234Z" transform="translate(-43.209 0)" fill="#1e535a"/>
        <path id="Trazado_1278567" data-name="Trazado 1278567" d="M165.159,72.155a1.17,1.17,0,1,1-1.17-1.17,1.17,1.17,0,0,1,1.17,1.17" transform="translate(-146.46 -63.853)" fill="#1e535a"/>
        <path id="Trazado_1278568" data-name="Trazado 1278568" d="M165.133,159.825a1.168,1.168,0,1,1-1.168-1.168,1.168,1.168,0,0,1,1.168,1.168" transform="translate(-146.44 -142.717)" fill="#1e535a"/>
      </g>
    </g>
  </g>
</svg>
