<svg xmlns="http://www.w3.org/2000/svg" xmlns:xlink="http://www.w3.org/1999/xlink" width="129" height="129" viewBox="0 0 129 129">
  <defs>
    <clipPath id="clip-path">
      <rect id="Rectángulo_454829" data-name="Rectángulo 454829" width="129" height="129" fill="#1e535a"/>
    </clipPath>
    <clipPath id="clip-path-2">
      <rect id="Rectángulo_463124" data-name="Rectángulo 463124" width="56" height="56" fill="#1e535a"/>
    </clipPath>
  </defs>
  <g id="Grupo_1212573" data-name="Grupo 1212573" transform="translate(-186 -4323.945)">
    <g id="Grupo_1177591" data-name="Grupo 1177591" transform="translate(186 4323.945)">
      <g id="Grupo_1177589" data-name="Grupo 1177589" transform="translate(0 0)">
        <g id="Grupo_1177587" data-name="Grupo 1177587" clip-path="url(#clip-path)">
          <path id="Trazado_997422" data-name="Trazado 997422" d="M123.733,57.1a59.308,59.308,0,0,0-13.4-30.862,6.821,6.821,0,0,0-9.6-9.189A59.221,59.221,0,0,0,70.078,5.066a6.822,6.822,0,0,0-13.25.269A59.3,59.3,0,0,0,27.41,17.911a6.824,6.824,0,0,0-9.471,9.536A59.253,59.253,0,0,0,5.526,57.039a6.827,6.827,0,0,0-.163,13.369A59.236,59.236,0,0,0,17.387,100.6a6.823,6.823,0,0,0,9.27,9.635,59.3,59.3,0,0,0,30.116,13.172,6.824,6.824,0,0,0,13.369.269,59.247,59.247,0,0,0,30.886-12.2,6.822,6.822,0,0,0,9.55-9.236,59.323,59.323,0,0,0,13.315-31.893,6.824,6.824,0,0,0-.16-13.247M104.464,29.6a6.785,6.785,0,0,0,3.779-1.144,56.321,56.321,0,0,1,12.43,28.628,6.834,6.834,0,0,0-4.361,3.159L98.87,53.7c.014-.191.027-.385.027-.582a6.825,6.825,0,0,0-2.89-5.577l7.629-18a7.392,7.392,0,0,0,.827.054m-3.687-1.086L93.195,46.39a6.754,6.754,0,0,0-7.517,4.341L54.125,43.462a6.639,6.639,0,0,0-.143-1.358L98.758,26.511a6.846,6.846,0,0,0,2.019,2m-37.29-14.85a6.83,6.83,0,0,0,6.7-5.539A56.228,56.228,0,0,1,98.622,19.239a6.792,6.792,0,0,0-.987,3.527,7.17,7.17,0,0,0,.065.9l-45,15.668A6.85,6.85,0,0,0,51.462,38.1l11.8-24.451c.075,0,.146.01.221.01m-6.642-5.27a6.831,6.831,0,0,0,3.435,4.47L48.708,36.823a6.848,6.848,0,0,0-1.409-.146A6.78,6.78,0,0,0,43.407,37.9L29.691,26.443a6.789,6.789,0,0,0-.232-6.285A56.272,56.272,0,0,1,56.845,8.389M13.492,62.258l28.37-14.633a6.8,6.8,0,0,0,5.383,2.707l9.723,31.08a6.941,6.941,0,0,0-1.5,1.665L13.407,65.554a6.784,6.784,0,0,0,.252-1.811,6.863,6.863,0,0,0-.167-1.484m6.7-32.775a6.824,6.824,0,0,0,7.623-.65l13.543,11.31a6.81,6.81,0,0,0-.752,4.719L12.188,59.514a6.827,6.827,0,0,0-3.616-2.37,56.248,56.248,0,0,1,11.62-27.662m2.826,68.151a6.809,6.809,0,0,0-3.391.906A56.2,56.2,0,0,1,8.416,70.378,6.835,6.835,0,0,0,11.96,68.24l42.475,17.7a7.323,7.323,0,0,0-.054.82,6.828,6.828,0,0,0,.409,2.308L29.1,101.373a6.828,6.828,0,0,0-6.084-3.738m33.888,22.732a56.328,56.328,0,0,1-28.1-12.294,6.758,6.758,0,0,0,1.042-3.609l0-.078,26.6-12.746a6.829,6.829,0,0,0,2.41,1.522l1.593,22.9a6.829,6.829,0,0,0-3.537,4.3m2.829-40.272L50.22,49.672a6.839,6.839,0,0,0,3.244-3.244L85.273,53.75a6.789,6.789,0,0,0,1.086,3.1L64.543,80.8a6.745,6.745,0,0,0-4.807-.7m10.4,40.537a6.827,6.827,0,0,0-6.649-5.291l-.051,0L61.921,93.552a6.817,6.817,0,0,0,4.174-2.026l31.8,14.027c0,.061-.01.116-.01.177a6.8,6.8,0,0,0,1.011,3.561,56.224,56.224,0,0,1-28.761,11.34m28.526-18.058L67.688,88.909a6.789,6.789,0,0,0-.9-6.074L88.544,58.959a6.789,6.789,0,0,0,3.524.987,7.517,7.517,0,0,0,.838-.054l8.13,40.091a6.814,6.814,0,0,0-2.373,2.591m9.8-2.553a6.788,6.788,0,0,0-4.538-1.072L95.789,58.84a6.857,6.857,0,0,0,2.152-2.247l17.431,6.537a6.057,6.057,0,0,0-.031.613,6.827,6.827,0,0,0,5.488,6.693,56.271,56.271,0,0,1-12.369,29.585" transform="translate(0 0.001)" fill="#1e535a"/>
        </g>
      </g>
    </g>
    <g id="Elipse_13614" data-name="Elipse 13614" transform="translate(210 4347.945)" fill="#d5f4f8" stroke="#1e535a" stroke-width="3">
      <ellipse cx="40.232" cy="40.233" rx="40.232" ry="40.233" stroke="none"/>
      <ellipse cx="40.232" cy="40.233" rx="38.732" ry="38.733" fill="none"/>
    </g>
    <g id="Grupo_1213410" data-name="Grupo 1213410" transform="translate(223 4360.946)">
      <g id="Grupo_1213409" data-name="Grupo 1213409" clip-path="url(#clip-path-2)">
        <path id="Trazado_1280076" data-name="Trazado 1280076" d="M52,40.021l-11.009.012-.014-23.319a2.907,2.907,0,0,0-2.669-2.7l-20.623,0a2.9,2.9,0,0,0-2.673,2.691l-.016,23.323-4.66-.017,3.492-3.451c.313-.309.079-1.221-.255-1.4a1.246,1.246,0,0,0-1.419.256L11.03,36.56l-.041-4.591c-.006-.687-.648-.938-1.235-.958a10.005,10.005,0,1,1,4.066-19.25,1,1,0,0,0,1.331-.831,13.008,13.008,0,0,1,25.682,0,1,1,0,0,0,1.33.824,10.011,10.011,0,1,1,4.82,19.213l0-5.5,1.374,1.31a1.185,1.185,0,0,0,1.374-.069,1.169,1.169,0,0,0-.053-1.475l-2.873-2.867a1.151,1.151,0,0,0-1.437-.132l-3.146,3.158A.986.986,0,0,0,43.7,26.7l1.265-1.226.014,6.474a1.1,1.1,0,0,0,1.263,1.076,12.027,12.027,0,0,0,5.74-1.645Z" transform="translate(0 0.001)" fill="#1e535a"/>
        <path id="Trazado_1280077" data-name="Trazado 1280077" d="M114.623,138.047h-22V120.04h22Zm-10.984-4.957,1.924-7.728a1.036,1.036,0,0,0-.66-1.3,1.055,1.055,0,0,0-1.246.7l-1.992,7.962a.992.992,0,0,0,.859,1.284,1.08,1.08,0,0,0,1.114-.913m-3.446-2.9-1.745-1.154,1.931-1.361c.331-.234.235-1.172-.069-1.4a1.248,1.248,0,0,0-1.37,0l-2.974,2.015c-.615.416-.31,1.345.207,1.68l3.038,1.968a1.083,1.083,0,0,0,1.315-.472,1.255,1.255,0,0,0-.334-1.266m7.913,1.7,3.152-2.08a1.257,1.257,0,0,0,.339-1,1.817,1.817,0,0,0-.6-.773l-2.957-1.924a1.118,1.118,0,0,0-1.277.371,1.282,1.282,0,0,0,.182,1.273l1.855,1.261-1.776,1.19a1.172,1.172,0,0,0-.241,1.368,1.127,1.127,0,0,0,1.323.312" transform="translate(-75.629 -98.017)" fill="#1e535a"/>
        <path id="Trazado_1280078" data-name="Trazado 1280078" d="M69.769,233.153h-48v-4.019h48Zm-22.531-1.138c.378-.036.627-.975.474-1.267a1.4,1.4,0,0,0-.923-.653l-2.058,0a1.311,1.311,0,0,0-.946.8c-.085.338.227,1.119.6,1.146a16.249,16.249,0,0,0,2.852-.025" transform="translate(-17.776 -187.097)" fill="#1e535a"/>
        <path id="Trazado_1280079" data-name="Trazado 1280079" d="M114.586,91.227H92.622L92.6,88.039c0-.317.482-.759.861-.847h20.125a1.043,1.043,0,0,1,1.031,1.061ZM95.922,88.272a6.686,6.686,0,0,0-1.774.037c-.437.069-.644.955-.472,1.3.44.872,2.422.822,2.833.029.209-.4.019-1.3-.587-1.362m4.059.013a7.388,7.388,0,0,0-1.808.008c-.462.057-.681.964-.487,1.334.409.782,2.37.868,2.832-.026.175-.339-.025-1.265-.537-1.317m4.032.015a6.45,6.45,0,0,0-1.787-.013c-.524.072-.746.948-.53,1.349a1.919,1.919,0,0,0,2.84-.048c.192-.316-.039-1.227-.524-1.288" transform="translate(-75.611 -71.196)" fill="#1e535a"/>
        <path id="Trazado_1280080" data-name="Trazado 1280080" d="M110.848,296.432H87.022c-.233-.6-.1-1.79.6-1.974l22.694,0a1.5,1.5,0,0,1,.536,1.98" transform="translate(-70.971 -240.432)" fill="#1e535a"/>
        <path id="Trazado_1280081" data-name="Trazado 1280081" d="M25.336,175.02a1.238,1.238,0,0,0-1.25.028,1.173,1.173,0,0,0-.152,1.354l3.437,3.434-5.611.019,0-8.617a13.117,13.117,0,0,0,5.012,1.567l-.02,3.592Z" transform="translate(-17.767 -139.823)" fill="#1e535a"/>
        <rect id="Rectángulo_463123" data-name="Rectángulo 463123" width="7.973" height="3.99" transform="translate(24.007 48.018)" fill="#1e535a"/>
      </g>
    </g>
  </g>
</svg>
