<svg id="Grupo_1212952" data-name="Grupo 1212952" xmlns="http://www.w3.org/2000/svg" xmlns:xlink="http://www.w3.org/1999/xlink" width="396" height="243.69" viewBox="0 0 396 243.69">
  <defs>
    <clipPath id="clip-path">
      <rect id="Rectángulo_462674" data-name="Rectángulo 462674" width="396" height="243.69" fill="none"/>
    </clipPath>
  </defs>
  <g id="Grupo_1212951" data-name="Grupo 1212951" clip-path="url(#clip-path)">
    <path id="Trazado_1278989" data-name="Trazado 1278989" d="M375.084,230.788c13.772-5.214,27.619-10.59,38.97-17.892,17.811-11.459,28.569-27.5,29.407-43.853S435.2,136.213,418.606,124c-7.865-5.788-17.41-10.724-23.349-17.426-6.718-7.581-8.118-16.6-11.237-25.13-4.8-13.125-14.013-25.547-26.791-36.13-16.863-13.964-40.443-24.785-67-28.527s-55.979.123-76.573,11.738C196.08,38.434,186,52.933,169.627,63.693a110.769,110.769,0,0,1-35.786,14.771c-18.95,4.352-42.005,5.1-57.861,13.8a53.778,53.778,0,0,0-27.168,36.217c-6.028,27.863,9.445,56.326,35.776,78.047,19.332,15.947,41.288,28.754,71.111,34.485,34.2,6.571,71.038,4.26,106.04,4.566,38.961.34,78.535-1.616,113.345-14.794" transform="translate(-47.514 -3.726)" fill="#ffe79e"/>
    <path id="Trazado_1278988" data-name="Trazado 1278988" d="M358.846,288.055c0,3.371-57.829,6.1-129.164,6.1s-129.164-2.733-129.164-6.1,57.829-6.1,129.164-6.1,129.164,2.732,129.164,6.1" transform="translate(-32.508 -68.182)" fill="#ffd453"/>
    <path id="Trazado_1278990" data-name="Trazado 1278990" d="M217.157,129.48a.154.154,0,0,0-.153.039c-1.039,1.015-2,2.093-2.942,3.2-.47.55-.92,1.115-1.382,1.673s-.885,1.143-1.33,1.716q-2.619,3.464-4.953,7.156a126.927,126.927,0,0,0-8.3,15.484c-.6,1.351-1.18,2.714-1.758,4.079s-1.084,2.771-1.611,4.164c-.266.7-.518,1.4-.774,2.1-.24.71-.478,1.422-.7,2.138-.442,1.437-.873,2.873-1.2,4.357s-.578,3-.786,4.513l-.145,1.141-.086,1.163c-.045.779-.083,1.557-.1,2.341s-.01,1.568.007,2.353.107,1.593.2,2.391a28.627,28.627,0,0,0,.947,4.83.181.181,0,0,0,.233.13.189.189,0,0,0,.072-.051l.005-.007a29.534,29.534,0,0,0,2.765-3.783c.771-1.273,1.556-2.529,2.248-3.8.35-.635.675-1.274.993-1.914l.459-.963.476-.959q.929-1.924,1.694-3.889c.52-1.309,1.05-2.62,1.505-3.957.232-.666.451-1.339.668-2.012.233-.669.478-1.333.705-2l.691-2.011c.228-.672.436-1.351.685-2.017.474-1.34.946-2.681,1.4-4.034,1.877-5.382,3.736-10.812,5.539-16.33.911-2.754,1.775-5.549,2.637-8.366.844-2.829,1.683-5.673,2.409-8.633v0a.189.189,0,0,0-.116-.228" transform="translate(-61.748 -31.309)" fill="#3e8f7d"/>
    <path id="Trazado_1278991" data-name="Trazado 1278991" d="M184.918,142.46a118.268,118.268,0,0,0-3.354-14.6q-.538-1.8-1.154-3.6c-.2-.6-.415-1.193-.631-1.788l-.679-1.779a54.158,54.158,0,0,0-3.26-6.995.164.164,0,0,0-.24-.059.2.2,0,0,0-.074.111v0a75.238,75.238,0,0,0-1.451,7.674c-.367,2.53-.633,5.037-.842,7.533-.411,4.991-.562,9.93-.518,14.842.019,2.456.095,4.9.21,7.347q.094,1.832.3,3.653t.5,3.635a53.316,53.316,0,0,0,1.724,7.221,33.676,33.676,0,0,0,3.1,7.155,2.561,2.561,0,0,0,3.8.827,2.96,2.96,0,0,0,.892-1.114l.013-.03a26.746,26.746,0,0,0,1.367-3.823q.536-1.9.869-3.8a49.355,49.355,0,0,0,.74-7.546,57.38,57.38,0,0,0-.3-7.47c-.263-2.475-.614-4.94-1.014-7.4" transform="translate(-55.855 -27.473)" fill="#276b5b"/>
    <path id="Trazado_1278992" data-name="Trazado 1278992" d="M161.46,193.911c-.055-.453-.123-.9-.205-1.347s-.18-.879-.29-1.311a26.04,26.04,0,0,0-.731-2.564,39.623,39.623,0,0,0-2.081-4.819,40.371,40.371,0,0,0-5.775-8.586c-.579-.643-1.181-1.267-1.8-1.875-.635-.6-1.279-1.183-1.962-1.736a20.892,20.892,0,0,0-4.553-2.89.186.186,0,0,0-.25.122.227.227,0,0,0-.014.069v.008a48.215,48.215,0,0,0,.189,5.728c.081.9.171,1.791.287,2.656s.232,1.726.375,2.565a84.14,84.14,0,0,0,2.177,9.6c.214.767.461,1.52.69,2.274s.473,1.5.753,2.231.553,1.457.884,2.165.681,1.409,1.041,2.1a23.187,23.187,0,0,0,1.222,2.051c.428.677.887,1.348,1.4,2.011a22.508,22.508,0,0,0,3.767,3.917l.073.057a2.228,2.228,0,0,0,3.317-.674,2.988,2.988,0,0,0,.162-.3,16.666,16.666,0,0,0,.978-2.967c.106-.486.221-.98.3-1.465s.124-.958.166-1.435a27.587,27.587,0,0,0,.1-2.836c-.033-.925-.115-1.839-.231-2.744" transform="translate(-46.5 -40.811)" fill="#276b5b"/>
    <path id="Trazado_1278993" data-name="Trazado 1278993" d="M216.889,129.243a.3.3,0,0,0-.438.111c-1.74,3.093-3.376,6.24-4.975,9.416s-3.136,6.39-4.621,9.634-2.91,6.524-4.276,9.834-2.673,6.652-3.892,10.036-2.384,6.794-3.424,10.255-2.015,6.949-2.818,10.493a100.12,100.12,0,0,0-2.813,21.7v0a.527.527,0,1,0,1.048.005v-.009a98.989,98.989,0,0,1,2.68-21.439c.781-3.519,1.727-6.993,2.75-10.436s2.155-6.849,3.357-10.223,2.481-6.714,3.83-10.019,2.752-6.583,4.217-9.828,2.986-6.457,4.562-9.634,3.2-6.331,4.911-9.409l0-.005a.381.381,0,0,0-.1-.489" transform="translate(-61.329 -31.24)" fill="#276b5b"/>
    <path id="Trazado_1278994" data-name="Trazado 1278994" d="M182.8,176.091l-.353-6.27-.18-3.134-.21-3.132q-.811-12.532-2.006-25.025c-.791-8.33-1.681-16.644-2.78-24.936a.324.324,0,0,0-.36-.3.352.352,0,0,0-.269.4v.005c1.062,8.274,1.919,16.591,2.675,24.913s1.4,16.661,1.9,25.008l.2,3.129.167,3.132.327,6.263c.171,4.178.38,8.354.488,12.536.3,8.358.375,16.723.4,25.086v.01a.526.526,0,1,0,1.045-.01c-.062-8.379-.173-16.757-.5-25.126-.126-4.187-.351-8.368-.54-12.551" transform="translate(-57.125 -27.396)" fill="#3e8f7d"/>
    <path id="Trazado_1278995" data-name="Trazado 1278995" d="M159.157,206.383a107.149,107.149,0,0,0-3.7-13.24c-1.5-4.3-3.213-8.506-5.108-12.6a132.062,132.062,0,0,0-6.225-11.938.3.3,0,0,0-.434-.1.382.382,0,0,0-.1.491l.005.008a132.376,132.376,0,0,1,5.944,12c1.8,4.109,3.417,8.316,4.815,12.606a105.913,105.913,0,0,1,3.392,13.125c.415,2.225.729,4.469.966,6.72.214,2.253.318,4.512.313,6.766v.038a.91.91,0,0,0,.875.942.92.92,0,0,0,.841-.98q-.061-3.51-.46-6.979c-.288-2.306-.656-4.6-1.124-6.855" transform="translate(-46.422 -40.734)" fill="#3e8f7d"/>
    <path id="Trazado_1278996" data-name="Trazado 1278996" d="M167.619,171.758c-.122-.832-.281-1.651-.446-2.469l-.268-1.221c-.1-.4-.208-.8-.313-1.2a114.614,114.614,0,0,0-7.278-18.22,113.162,113.162,0,0,0-9.969-16.39,90.862,90.862,0,0,0-5.967-7.323c-1.047-1.165-2.137-2.289-3.257-3.375a41.075,41.075,0,0,0-3.516-3.084.155.155,0,0,0-.231.048.2.2,0,0,0-.018.17l0,.005c1.058,3.105,2.131,6.115,3.194,9.1l3.152,8.884q3.123,8.81,6,17.479,1.42,4.35,2.764,8.688c.432,1.453.889,2.893,1.3,4.346l.637,2.173.315,1.085.342,1.076.733,2.132.4,1.056c.139.35.287.7.422,1.049.55,1.4,1.212,2.779,1.886,4.159q.526,1.03,1.112,2.055c.381.685.786,1.368,1.225,2.049a29.612,29.612,0,0,0,3.058,4.061l.046.049a2.01,2.01,0,0,0,3.068-.1,2.546,2.546,0,0,0,.409-.694,20.978,20.978,0,0,0,.808-2.671,25.055,25.055,0,0,0,.492-2.643c.116-.875.2-1.747.258-2.617s.05-1.724.046-2.584a40.267,40.267,0,0,0-.409-5.069" transform="translate(-44.096 -28.641)" fill="#3e8f7d"/>
    <path id="Trazado_1278997" data-name="Trazado 1278997" d="M163.476,178.964c-.227-1-.493-1.993-.737-2.99l-.374-1.493L161.954,173c-1.064-3.96-2.318-7.85-3.662-11.7s-2.83-7.63-4.422-11.353-3.29-7.388-5.1-10.985-3.715-7.128-5.728-10.583q-1.5-2.6-3.1-5.121c-1.066-1.685-2.148-3.347-3.3-4.972a.3.3,0,0,0-.444-.059.386.386,0,0,0-.055.5l0,.006c1.119,1.609,2.189,3.284,3.231,4.969s2.058,3.4,3.041,5.131q2.958,5.192,5.606,10.595T153,150.414c1.549,3.718,2.995,7.492,4.292,11.327s2.511,7.706,3.53,11.643l.394,1.472.357,1.483c.233.991.487,1.975.7,2.97.422,1.993.864,3.98,1.206,5.992a134.44,134.44,0,0,1,2.237,24.364v.02a.763.763,0,1,0,1.516-.02A136.077,136.077,0,0,0,164.748,185c-.364-2.03-.828-4.032-1.272-6.04" transform="translate(-44.008 -28.573)" fill="#276b5b"/>
    <path id="Trazado_1278998" data-name="Trazado 1278998" d="M163.873,256.021h21.006l3.177-26.067H160.7Z" transform="translate(-51.971 -55.608)" fill="#9ab4ef"/>
    <path id="Trazado_1278999" data-name="Trazado 1278999" d="M162.593,265.067h24.586l.318-2.575H162.275Z" transform="translate(-52.481 -63.476)" fill="#9ab4ef"/>
    <path id="Trazado_1279000" data-name="Trazado 1279000" d="M564.925,121.142H528.091a1.5,1.5,0,0,1-1.409-1.579V80.289a1.5,1.5,0,0,1,1.409-1.579h36.834a1.5,1.5,0,0,1,1.409,1.579v39.274a1.5,1.5,0,0,1-1.409,1.579" transform="translate(-170.334 -19.034)" fill="#9ab4ef"/>
    <path id="Trazado_1279001" data-name="Trazado 1279001" d="M529.193,127.531h34.629a2.676,2.676,0,0,0,2.511-2.814v-7.069l-4.216-6.074a3.565,3.565,0,0,0-6.007-.006l-2.323,3.335a3.018,3.018,0,0,1-4.889.274l-7.448-8.731a3.548,3.548,0,0,0-5.723.279l-9.047,12.637v5.355a2.676,2.676,0,0,0,2.512,2.814" transform="translate(-170.333 -25.422)" fill="#5e60f4"/>
    <path id="Trazado_1279002" data-name="Trazado 1279002" d="M565.138,94.693a3.712,3.712,0,1,1-3.688-4.133,3.929,3.929,0,0,1,3.688,4.133" transform="translate(-180.385 -21.899)" fill="#f9cf70"/>
    <path id="Trazado_1279003" data-name="Trazado 1279003" d="M540.145,288.443h-54.2a1.522,1.522,0,0,1-1.428-1.6V243.172a1.522,1.522,0,0,1,1.428-1.6h54.2a1.522,1.522,0,0,1,1.428,1.6v43.67a1.522,1.522,0,0,1-1.428,1.6" transform="translate(-156.697 -58.417)" fill="#9ab4ef"/>
    <path id="Trazado_1279004" data-name="Trazado 1279004" d="M517.447,262.229v15a.746.746,0,0,0,1.081.735l14.585-8.492a.873.873,0,0,0-.067-1.506l-14.586-6.511a.752.752,0,0,0-1.013.77" transform="translate(-167.347 -63.212)" fill="#5e60f4"/>
    <rect id="Rectángulo_462568" data-name="Rectángulo 462568" width="25.285" height="18.581" transform="translate(327.463 120.407)" fill="#5e60f4"/>
    <path id="Trazado_1279005" data-name="Trazado 1279005" d="M508.3,182.492H483.658A1.419,1.419,0,0,1,482.326,181V161.968a1.42,1.42,0,0,1,1.332-1.494h5.305a1.366,1.366,0,0,1,1.285,1.1l.737,1.864a1.366,1.366,0,0,0,1.284,1.1H508.3a1.419,1.419,0,0,1,1.332,1.493V181a1.419,1.419,0,0,1-1.332,1.493" transform="translate(-155.988 -38.806)" fill="#9ab4ef"/>
    <path id="Trazado_1279006" data-name="Trazado 1279006" d="M181.906,16.945c0,9.359-6.771,16.945-15.122,16.945S151.662,26.3,151.662,16.945,158.433,0,166.784,0s15.122,7.586,15.122,16.945" transform="translate(-49.049)" fill="#9ab4ef"/>
    <path id="Trazado_1279007" data-name="Trazado 1279007" d="M176.436,15.624a4.673,4.673,0,1,1-9.286,0,4.673,4.673,0,1,1,9.286,0" transform="translate(-54.058 -2.52)" fill="#5e60f4"/>
    <path id="Trazado_1279008" data-name="Trazado 1279008" d="M170.152,39.73a13.888,13.888,0,0,0,8.076-2.617c-.344-4.55-1.815-12.71-7.932-12.96v-.008c-.048,0-.1,0-.143,0s-.095,0-.144,0v.008c-6.116.249-7.587,8.41-7.932,12.96a13.889,13.889,0,0,0,8.076,2.617" transform="translate(-52.417 -5.839)" fill="#5e60f4"/>
    <path id="Trazado_1279009" data-name="Trazado 1279009" d="M502.447,47.308H483.388V34.1c0-5.888,4.275-10.678,9.529-10.678s9.53,4.79,9.53,10.678Zm-15.233-4.287h11.408V34.1c0-3.524-2.559-6.391-5.7-6.391s-5.7,2.867-5.7,6.391Z" transform="translate(-156.332 -5.664)" fill="#5e60f4"/>
    <path id="Trazado_1279010" data-name="Trazado 1279010" d="M491.012,73.913h0c-7.464,0-13.515-6.781-13.515-15.145V47.52a3.705,3.705,0,0,1,3.477-3.9H501.05a3.705,3.705,0,0,1,3.477,3.9V58.768c0,8.363-6.051,15.145-13.515,15.145" transform="translate(-154.427 -10.549)" fill="#9ab4ef"/>
    <path id="Trazado_1279011" data-name="Trazado 1279011" d="M499.365,57.117a3.65,3.65,0,1,0-7.254,0,4.059,4.059,0,0,0,2.419,3.829l-2.1,6.648h6.609l-2.1-6.648a4.059,4.059,0,0,0,2.419-3.829" transform="translate(-159.153 -12.829)" fill="#5e60f4"/>
    <rect id="Rectángulo_462569" data-name="Rectángulo 462569" width="31.497" height="44.369" transform="translate(57.095 134.22)" fill="#9ab4ef"/>
    <rect id="Rectángulo_462570" data-name="Rectángulo 462570" width="22.376" height="1.586" transform="translate(61.655 142.417)" fill="#ccc"/>
    <rect id="Rectángulo_462571" data-name="Rectángulo 462571" width="22.376" height="1.586" transform="translate(61.655 147.173)" fill="#ccc"/>
    <rect id="Rectángulo_462572" data-name="Rectángulo 462572" width="22.376" height="1.586" transform="translate(61.655 151.929)" fill="#ccc"/>
    <rect id="Rectángulo_462573" data-name="Rectángulo 462573" width="22.376" height="1.586" transform="translate(61.655 156.685)" fill="#ccc"/>
    <rect id="Rectángulo_462574" data-name="Rectángulo 462574" width="22.376" height="1.586" transform="translate(61.655 161.44)" fill="#ccc"/>
    <rect id="Rectángulo_462575" data-name="Rectángulo 462575" width="22.376" height="1.586" transform="translate(61.655 166.196)" fill="#ccc"/>
    <rect id="Rectángulo_462576" data-name="Rectángulo 462576" width="22.376" height="1.586" transform="translate(61.655 170.951)" fill="#ccc"/>
    <path id="Trazado_1279012" data-name="Trazado 1279012" d="M88.982,177.954h0a.663.663,0,0,1-.622-.7v-1.319a.626.626,0,1,1,1.244,0v1.319a.663.663,0,0,1-.622.7" transform="translate(-28.576 -42.377)" fill="#5e60f4"/>
    <path id="Trazado_1279013" data-name="Trazado 1279013" d="M93.578,177.954h0a.663.663,0,0,1-.622-.7v-1.319a.626.626,0,1,1,1.244,0v1.319a.663.663,0,0,1-.622.7" transform="translate(-30.063 -42.377)" fill="#5e60f4"/>
    <path id="Trazado_1279014" data-name="Trazado 1279014" d="M98.174,177.954h0a.663.663,0,0,1-.622-.7v-1.319a.626.626,0,1,1,1.244,0v1.319a.663.663,0,0,1-.622.7" transform="translate(-31.549 -42.377)" fill="#5e60f4"/>
    <path id="Trazado_1279015" data-name="Trazado 1279015" d="M102.769,177.954h0a.663.663,0,0,1-.622-.7v-1.319a.626.626,0,1,1,1.244,0v1.319a.663.663,0,0,1-.622.7" transform="translate(-33.035 -42.377)" fill="#5e60f4"/>
    <path id="Trazado_1279016" data-name="Trazado 1279016" d="M107.365,177.954h0a.663.663,0,0,1-.622-.7v-1.319a.626.626,0,1,1,1.244,0v1.319a.663.663,0,0,1-.622.7" transform="translate(-34.522 -42.377)" fill="#5e60f4"/>
    <path id="Trazado_1279017" data-name="Trazado 1279017" d="M111.961,177.954h0a.663.663,0,0,1-.622-.7v-1.319a.626.626,0,1,1,1.244,0v1.319a.663.663,0,0,1-.622.7" transform="translate(-36.008 -42.377)" fill="#5e60f4"/>
    <path id="Trazado_1279018" data-name="Trazado 1279018" d="M116.557,177.954h0a.662.662,0,0,1-.622-.7v-1.319a.626.626,0,1,1,1.244,0v1.319a.663.663,0,0,1-.622.7" transform="translate(-37.494 -42.377)" fill="#5e60f4"/>
    <path id="Trazado_1279019" data-name="Trazado 1279019" d="M121.152,177.954h0a.663.663,0,0,1-.622-.7v-1.319a.626.626,0,1,1,1.244,0v1.319a.662.662,0,0,1-.621.7" transform="translate(-38.98 -42.377)" fill="#5e60f4"/>
    <path id="Trazado_1279020" data-name="Trazado 1279020" d="M125.748,177.954h0a.663.663,0,0,1-.622-.7v-1.319a.626.626,0,1,1,1.244,0v1.319a.663.663,0,0,1-.622.7" transform="translate(-40.467 -42.377)" fill="#5e60f4"/>
    <path id="Trazado_1279021" data-name="Trazado 1279021" d="M12.135,132.873h52.08c6.7,0,12.135,6.087,12.135,13.6s-5.433,13.6-12.135,13.6H31.8c-4.3,11.826-17.437,11.179-17.437,11.179,5.344-2.416,6.419-8.172,6.6-11.179h-8.83c-6.7,0-12.135-6.088-12.135-13.6s5.433-13.6,12.135-13.6" transform="translate(0 -32.131)" fill="#9ab4ef"/>
    <path id="Trazado_1279022" data-name="Trazado 1279022" d="M71.857,149.5a3.394,3.394,0,1,0,3.373-3.779,3.594,3.594,0,0,0-3.373,3.779" transform="translate(-23.239 -35.238)" fill="#5e60f4"/>
    <path id="Trazado_1279023" data-name="Trazado 1279023" d="M51.438,149.5a3.394,3.394,0,1,0,3.372-3.779,3.594,3.594,0,0,0-3.372,3.779" transform="translate(-16.635 -35.238)" fill="#5e60f4"/>
    <path id="Trazado_1279024" data-name="Trazado 1279024" d="M31.017,149.5a3.594,3.594,0,0,0,3.373,3.78,3.8,3.8,0,0,0,0-7.558,3.593,3.593,0,0,0-3.373,3.779" transform="translate(-10.031 -35.238)" fill="#5e60f4"/>
    <path id="Trazado_1279025" data-name="Trazado 1279025" d="M429.271,26.41V23.9l-2.824-.879a8.538,8.538,0,0,0-.677-1.853l1.438-2.85-1.585-1.776-2.528,1.6a6.763,6.763,0,0,0-1.677-.782l-.776-3.131H418.4l-.777,3.131a6.748,6.748,0,0,0-1.676.782l-2.529-1.6-1.585,1.776,1.437,2.85a8.538,8.538,0,0,0-.677,1.853l-2.824.879V26.41l2.846.886a8.552,8.552,0,0,0,.676,1.8l-1.458,2.891,1.585,1.776,2.6-1.644a6.7,6.7,0,0,0,1.587.734l.8,3.222h2.242l.8-3.222a6.711,6.711,0,0,0,1.588-.734l2.595,1.644,1.585-1.776L425.749,29.1a8.548,8.548,0,0,0,.676-1.8Zm-9.75,3.475a4.537,4.537,0,0,1-4.258-4.772,4.286,4.286,0,1,1,8.517,0,4.537,4.537,0,0,1-4.258,4.772" transform="translate(-132.523 -3.441)" fill="#9ab4ef"/>
    <path id="Trazado_1279026" data-name="Trazado 1279026" d="M141.166,251.884v-2.512l-2.824-.879a8.541,8.541,0,0,0-.677-1.853l1.437-2.85-1.585-1.776-2.528,1.6a6.764,6.764,0,0,0-1.677-.782l-.776-3.131h-2.242l-.777,3.131a6.748,6.748,0,0,0-1.676.782l-2.529-1.6-1.585,1.776,1.437,2.85a8.54,8.54,0,0,0-.677,1.853l-2.824.879v2.512l2.846.886a8.55,8.55,0,0,0,.676,1.8l-1.458,2.891,1.585,1.776,2.6-1.644a6.694,6.694,0,0,0,1.587.734l.8,3.222h2.242l.8-3.222a6.711,6.711,0,0,0,1.588-.734l2.595,1.644,1.585-1.776-1.458-2.891a8.55,8.55,0,0,0,.676-1.8Zm-9.75,3.475a4.8,4.8,0,1,1,4.258-4.772,4.537,4.537,0,0,1-4.258,4.772" transform="translate(-39.348 -57.965)" fill="#9ab4ef"/>
    <path id="Trazado_1279027" data-name="Trazado 1279027" d="M179.42,73.488c0,8.281-5.991,14.994-13.38,14.994s-13.38-6.713-13.38-14.994,5.991-14.994,13.38-14.994,13.38,6.713,13.38,14.994" transform="translate(-49.372 -14.145)" fill="#9ab4ef"/>
    <path id="Trazado_1279028" data-name="Trazado 1279028" d="M174.577,68.859a24.331,24.331,0,0,0,3.81-1.148,15.7,15.7,0,0,0-1-2.146,21.4,21.4,0,0,1-2.183.7c.084-.262.173-.516.266-.757a8.9,8.9,0,0,1,.822-1.648,14.434,14.434,0,0,0-1.516-1.713,10.928,10.928,0,0,0-1.263,2.407,18.235,18.235,0,0,0-.687,2.212,35.041,35.041,0,0,1-5.715.472v-8.68c-.353-.032-.707-.06-1.067-.06s-.714.028-1.067.06v8.621a32.48,32.48,0,0,1-5.492-.766,17.89,17.89,0,0,0-.6-1.858,10.539,10.539,0,0,0-1.4-2.588,14.272,14.272,0,0,0-1.524,1.685,8.651,8.651,0,0,1,1.033,2.04q-.609-.217-1.164-.462c-.237-.1-.482-.237-.725-.36a15.465,15.465,0,0,0-1.09,2.081c.325.171.664.342,1.034.5a21.3,21.3,0,0,0,2.682.962,27.681,27.681,0,0,1,.459,4.029h-5.482c-.022.347-.047.693-.047,1.046,0,.454.026.9.061,1.345H158.2a26.923,26.923,0,0,1-.571,4.7,21.356,21.356,0,0,0-2.576.933c-.24.105-.467.215-.688.324a15.157,15.157,0,0,0,1.215,2.022c.085-.039.171-.084.254-.121.3-.13.61-.255.931-.374a8.236,8.236,0,0,1-.637,1.209,14.368,14.368,0,0,0,1.561,1.659,11.11,11.11,0,0,0,1.2-2.316c.162-.419.311-.863.448-1.326a32.3,32.3,0,0,1,5.641-.8v7.677c.352.031.706.06,1.067.06s.714-.029,1.067-.06V80.685a34.991,34.991,0,0,1,5.85.494,17.322,17.322,0,0,0,.552,1.694,11.476,11.476,0,0,0,1.081,2.145,14.353,14.353,0,0,0,1.541-1.7,9.684,9.684,0,0,1-.742-1.6c.537.144,1.045.306,1.537.476a15.422,15.422,0,0,0,1.121-2.111,24.8,24.8,0,0,0-3.369-.991,27.564,27.564,0,0,1-.478-4.25h5.161c.035-.444.06-.891.06-1.345,0-.353-.026-.7-.047-1.046H174.2a27.944,27.944,0,0,1,.374-3.583m-9.6,9.49a34.877,34.877,0,0,0-5.051.624,30.569,30.569,0,0,0,.41-4.14h4.641Zm0-5.907h-4.646A30.724,30.724,0,0,0,160,68.963a34.852,34.852,0,0,0,4.969.608Zm2.134-2.814a37.614,37.614,0,0,0,5.238-.368,31.269,31.269,0,0,0-.279,3.183h-4.959Zm0,8.666v-3.46h4.955a30.834,30.834,0,0,0,.359,3.839,37.484,37.484,0,0,0-5.313-.379" transform="translate(-49.371 -14.145)" fill="#353dc9"/>
    <path id="Trazado_1279029" data-name="Trazado 1279029" d="M416.85,83.671c0,.132-.368.239-.82.239s-.82-.107-.82-.239.366-.239.82-.239.82.107.82.239" transform="translate(-134.283 -20.176)" fill="#9ab4ef"/>
    <path id="Trazado_1279030" data-name="Trazado 1279030" d="M416.85,81.4c0,.132-.368.239-.82.239s-.82-.107-.82-.239.366-.239.82-.239.82.107.82.239" transform="translate(-134.283 -19.627)" fill="#9ab4ef"/>
    <path id="Trazado_1279031" data-name="Trazado 1279031" d="M416.85,79.135c0,.132-.368.239-.82.239s-.82-.107-.82-.239.366-.239.82-.239.82.107.82.239" transform="translate(-134.283 -19.079)" fill="#9ab4ef"/>
    <path id="Trazado_1279032" data-name="Trazado 1279032" d="M381.526,79.675a.446.446,0,1,1-.436-.356.4.4,0,0,1,.436.356" transform="translate(-123.107 -19.181)" fill="#9ab4ef"/>
    <path id="Trazado_1279033" data-name="Trazado 1279033" d="M381.526,76.3a.446.446,0,1,1-.436-.356.4.4,0,0,1,.436.356" transform="translate(-123.107 -18.364)" fill="#9ab4ef"/>
    <path id="Trazado_1279034" data-name="Trazado 1279034" d="M381.526,72.918a.446.446,0,1,1-.436-.356.4.4,0,0,1,.436.356" transform="translate(-123.107 -17.547)" fill="#9ab4ef"/>
    <path id="Trazado_1279035" data-name="Trazado 1279035" d="M381.526,69.539a.446.446,0,1,1-.436-.356.4.4,0,0,1,.436.356" transform="translate(-123.107 -16.73)" fill="#9ab4ef"/>
    <path id="Trazado_1279036" data-name="Trazado 1279036" d="M381.526,66.16a.446.446,0,1,1-.436-.356.4.4,0,0,1,.436.356" transform="translate(-123.107 -15.913)" fill="#9ab4ef"/>
    <path id="Trazado_1279037" data-name="Trazado 1279037" d="M381.526,62.782a.446.446,0,1,1-.436-.356.4.4,0,0,1,.436.356" transform="translate(-123.107 -15.096)" fill="#9ab4ef"/>
    <path id="Trazado_1279038" data-name="Trazado 1279038" d="M381.526,59.4a.446.446,0,1,1-.436-.356.4.4,0,0,1,.436.356" transform="translate(-123.107 -14.279)" fill="#9ab4ef"/>
    <path id="Trazado_1279039" data-name="Trazado 1279039" d="M381.526,56.024a.446.446,0,1,1-.436-.356.4.4,0,0,1,.436.356" transform="translate(-123.107 -13.462)" fill="#9ab4ef"/>
    <path id="Trazado_1279040" data-name="Trazado 1279040" d="M381.526,52.646a.446.446,0,1,1-.436-.356.4.4,0,0,1,.436.356" transform="translate(-123.107 -12.645)" fill="#9ab4ef"/>
    <path id="Trazado_1279041" data-name="Trazado 1279041" d="M381.526,49.267a.446.446,0,1,1-.436-.356.4.4,0,0,1,.436.356" transform="translate(-123.107 -11.828)" fill="#9ab4ef"/>
    <path id="Trazado_1279042" data-name="Trazado 1279042" d="M381.526,45.888a.446.446,0,1,1-.436-.356.4.4,0,0,1,.436.356" transform="translate(-123.107 -11.011)" fill="#9ab4ef"/>
    <path id="Trazado_1279043" data-name="Trazado 1279043" d="M381.526,42.51a.446.446,0,1,1-.436-.356.4.4,0,0,1,.436.356" transform="translate(-123.107 -10.194)" fill="#9ab4ef"/>
    <path id="Trazado_1279044" data-name="Trazado 1279044" d="M381.526,39.131a.446.446,0,1,1-.436-.356.4.4,0,0,1,.436.356" transform="translate(-123.107 -9.377)" fill="#9ab4ef"/>
    <path id="Trazado_1279045" data-name="Trazado 1279045" d="M381.526,35.752a.446.446,0,1,1-.436-.356.4.4,0,0,1,.436.356" transform="translate(-123.107 -8.559)" fill="#9ab4ef"/>
    <path id="Trazado_1279046" data-name="Trazado 1279046" d="M381.526,32.374a.446.446,0,1,1-.436-.356.4.4,0,0,1,.436.356" transform="translate(-123.107 -7.743)" fill="#9ab4ef"/>
    <path id="Trazado_1279047" data-name="Trazado 1279047" d="M381.526,28.995a.446.446,0,1,1-.436-.356.4.4,0,0,1,.436.356" transform="translate(-123.107 -6.925)" fill="#9ab4ef"/>
    <path id="Trazado_1279048" data-name="Trazado 1279048" d="M381.526,25.616a.446.446,0,1,1-.436-.356.4.4,0,0,1,.436.356" transform="translate(-123.107 -6.108)" fill="#9ab4ef"/>
    <path id="Trazado_1279049" data-name="Trazado 1279049" d="M381.526,22.237a.446.446,0,1,1-.436-.355.4.4,0,0,1,.436.355" transform="translate(-123.107 -5.292)" fill="#9ab4ef"/>
    <path id="Trazado_1279050" data-name="Trazado 1279050" d="M380.13,19.076a.446.446,0,1,1-.436-.356.4.4,0,0,1,.436.356" transform="translate(-122.655 -4.527)" fill="#9ab4ef"/>
    <path id="Trazado_1279051" data-name="Trazado 1279051" d="M376.454,17.181a.446.446,0,1,1-.436-.356.4.4,0,0,1,.436.356" transform="translate(-121.466 -4.069)" fill="#9ab4ef"/>
    <path id="Trazado_1279052" data-name="Trazado 1279052" d="M371.891,16.747a.446.446,0,1,1-.436-.356.4.4,0,0,1,.436.356" transform="translate(-119.991 -3.964)" fill="#9ab4ef"/>
    <path id="Trazado_1279053" data-name="Trazado 1279053" d="M367.247,16.747a.446.446,0,1,1-.436-.356.4.4,0,0,1,.436.356" transform="translate(-118.489 -3.964)" fill="#9ab4ef"/>
    <path id="Trazado_1279054" data-name="Trazado 1279054" d="M125.081,52.405a.142.142,0,1,1-.139-.115.129.129,0,0,1,.139.115" transform="translate(-40.362 -12.645)" fill="#9ab4ef"/>
    <path id="Trazado_1279055" data-name="Trazado 1279055" d="M123.6,52.405a.142.142,0,1,1-.139-.115.129.129,0,0,1,.139.115" transform="translate(-39.882 -12.645)" fill="#9ab4ef"/>
    <path id="Trazado_1279056" data-name="Trazado 1279056" d="M122.113,52.405a.142.142,0,1,1-.139-.115.129.129,0,0,1,.139.115" transform="translate(-39.402 -12.645)" fill="#9ab4ef"/>
    <path id="Trazado_1279057" data-name="Trazado 1279057" d="M120.635,52.435a.142.142,0,1,1-.139-.115.129.129,0,0,1,.139.115" transform="translate(-38.924 -12.652)" fill="#9ab4ef"/>
    <path id="Trazado_1279058" data-name="Trazado 1279058" d="M119.253,52.785a.142.142,0,1,1-.139-.115.129.129,0,0,1,.139.115" transform="translate(-38.477 -12.737)" fill="#9ab4ef"/>
    <path id="Trazado_1279059" data-name="Trazado 1279059" d="M118.328,53.613a.142.142,0,1,1-.139-.115.129.129,0,0,1,.139.115" transform="translate(-38.178 -12.937)" fill="#9ab4ef"/>
    <path id="Trazado_1279060" data-name="Trazado 1279060" d="M118.024,54.679a.142.142,0,1,1-.14-.115.13.13,0,0,1,.14.115" transform="translate(-38.08 -13.195)" fill="#9ab4ef"/>
    <path id="Trazado_1279061" data-name="Trazado 1279061" d="M118.024,55.774a.142.142,0,1,1-.14-.115.13.13,0,0,1,.14.115" transform="translate(-38.08 -13.459)" fill="#9ab4ef"/>
    <path id="Trazado_1279062" data-name="Trazado 1279062" d="M118.024,56.869a.142.142,0,1,1-.14-.115.13.13,0,0,1,.14.115" transform="translate(-38.08 -13.724)" fill="#9ab4ef"/>
    <path id="Trazado_1279063" data-name="Trazado 1279063" d="M118.024,57.965a.142.142,0,1,1-.14-.115.13.13,0,0,1,.14.115" transform="translate(-38.08 -13.989)" fill="#9ab4ef"/>
    <path id="Trazado_1279064" data-name="Trazado 1279064" d="M118.024,59.06a.142.142,0,1,1-.14-.115.13.13,0,0,1,.14.115" transform="translate(-38.08 -14.254)" fill="#9ab4ef"/>
    <path id="Trazado_1279065" data-name="Trazado 1279065" d="M118.024,60.155a.142.142,0,1,1-.14-.115.13.13,0,0,1,.14.115" transform="translate(-38.08 -14.519)" fill="#9ab4ef"/>
    <path id="Trazado_1279066" data-name="Trazado 1279066" d="M118.024,61.251a.142.142,0,1,1-.14-.115.13.13,0,0,1,.14.115" transform="translate(-38.08 -14.784)" fill="#9ab4ef"/>
    <path id="Trazado_1279067" data-name="Trazado 1279067" d="M118.024,62.346a.142.142,0,1,1-.14-.115.13.13,0,0,1,.14.115" transform="translate(-38.08 -15.049)" fill="#9ab4ef"/>
    <path id="Trazado_1279068" data-name="Trazado 1279068" d="M118.024,63.441a.142.142,0,1,1-.14-.115.13.13,0,0,1,.14.115" transform="translate(-38.08 -15.313)" fill="#9ab4ef"/>
    <path id="Trazado_1279069" data-name="Trazado 1279069" d="M118.024,64.537a.142.142,0,1,1-.14-.115.13.13,0,0,1,.14.115" transform="translate(-38.08 -15.579)" fill="#9ab4ef"/>
    <path id="Trazado_1279070" data-name="Trazado 1279070" d="M118.024,65.632a.142.142,0,1,1-.14-.115.13.13,0,0,1,.14.115" transform="translate(-38.08 -15.843)" fill="#9ab4ef"/>
    <path id="Trazado_1279071" data-name="Trazado 1279071" d="M118.024,66.728a.142.142,0,1,1-.14-.115.13.13,0,0,1,.14.115" transform="translate(-38.08 -16.108)" fill="#9ab4ef"/>
    <path id="Trazado_1279072" data-name="Trazado 1279072" d="M118.024,67.823a.142.142,0,1,1-.14-.115.13.13,0,0,1,.14.115" transform="translate(-38.08 -16.373)" fill="#9ab4ef"/>
    <path id="Trazado_1279073" data-name="Trazado 1279073" d="M118.024,68.918a.142.142,0,1,1-.14-.115.13.13,0,0,1,.14.115" transform="translate(-38.08 -16.638)" fill="#9ab4ef"/>
    <path id="Trazado_1279074" data-name="Trazado 1279074" d="M118.024,70.014a.142.142,0,1,1-.14-.115.13.13,0,0,1,.14.115" transform="translate(-38.08 -16.903)" fill="#9ab4ef"/>
    <path id="Trazado_1279075" data-name="Trazado 1279075" d="M118.024,71.109a.142.142,0,1,1-.14-.115.13.13,0,0,1,.14.115" transform="translate(-38.08 -17.168)" fill="#9ab4ef"/>
    <path id="Trazado_1279076" data-name="Trazado 1279076" d="M118.024,72.2a.142.142,0,1,1-.14-.115.13.13,0,0,1,.14.115" transform="translate(-38.08 -17.433)" fill="#9ab4ef"/>
    <path id="Trazado_1279077" data-name="Trazado 1279077" d="M118.024,73.3a.142.142,0,1,1-.14-.115.13.13,0,0,1,.14.115" transform="translate(-38.08 -17.698)" fill="#9ab4ef"/>
    <path id="Trazado_1279078" data-name="Trazado 1279078" d="M118.024,74.4a.142.142,0,1,1-.14-.115.13.13,0,0,1,.14.115" transform="translate(-38.08 -17.962)" fill="#9ab4ef"/>
    <path id="Trazado_1279079" data-name="Trazado 1279079" d="M118.024,75.49a.142.142,0,1,1-.14-.115.13.13,0,0,1,.14.115" transform="translate(-38.08 -18.227)" fill="#9ab4ef"/>
    <path id="Trazado_1279080" data-name="Trazado 1279080" d="M118.024,76.586a.142.142,0,1,1-.14-.115.13.13,0,0,1,.14.115" transform="translate(-38.08 -18.492)" fill="#9ab4ef"/>
    <path id="Trazado_1279081" data-name="Trazado 1279081" d="M118.024,77.681a.142.142,0,1,1-.14-.115.13.13,0,0,1,.14.115" transform="translate(-38.08 -18.757)" fill="#9ab4ef"/>
    <path id="Trazado_1279082" data-name="Trazado 1279082" d="M118.024,78.776a.142.142,0,1,1-.14-.115.13.13,0,0,1,.14.115" transform="translate(-38.08 -19.022)" fill="#9ab4ef"/>
    <path id="Trazado_1279083" data-name="Trazado 1279083" d="M118.024,79.872a.142.142,0,1,1-.14-.115.13.13,0,0,1,.14.115" transform="translate(-38.08 -19.287)" fill="#9ab4ef"/>
    <path id="Trazado_1279084" data-name="Trazado 1279084" d="M110.1,160.588l2.549-4.25h-5.023Z" transform="translate(-34.808 -37.806)" fill="#9ab4ef"/>
    <path id="Trazado_1279085" data-name="Trazado 1279085" d="M110.489,121.454a.579.579,0,1,1,.576.645.613.613,0,0,1-.576-.645" transform="translate(-35.733 -29.214)" fill="#9ab4ef"/>
    <path id="Trazado_1279086" data-name="Trazado 1279086" d="M110.489,127.577a.579.579,0,1,1,.576.645.613.613,0,0,1-.576-.645" transform="translate(-35.733 -30.695)" fill="#9ab4ef"/>
    <path id="Trazado_1279087" data-name="Trazado 1279087" d="M110.489,133.7a.579.579,0,1,1,.576.645.613.613,0,0,1-.576-.645" transform="translate(-35.733 -32.176)" fill="#9ab4ef"/>
    <path id="Trazado_1279088" data-name="Trazado 1279088" d="M110.489,139.825a.579.579,0,1,1,.576.644.613.613,0,0,1-.576-.644" transform="translate(-35.733 -33.657)" fill="#9ab4ef"/>
    <path id="Trazado_1279089" data-name="Trazado 1279089" d="M110.489,145.948a.579.579,0,1,1,.576.644.613.613,0,0,1-.576-.644" transform="translate(-35.733 -35.137)" fill="#9ab4ef"/>
    <path id="Trazado_1279090" data-name="Trazado 1279090" d="M110.489,152.071a.579.579,0,1,1,.576.645.613.613,0,0,1-.576-.645" transform="translate(-35.733 -36.618)" fill="#9ab4ef"/>
    <path id="Trazado_1279091" data-name="Trazado 1279091" d="M365.951,58.958l-2.549,4.25h5.023Z" transform="translate(-117.527 -14.257)" fill="#9ab4ef"/>
    <path id="Trazado_1279092" data-name="Trazado 1279092" d="M367.414,99.036a.579.579,0,1,1-.576-.645.613.613,0,0,1,.576.645" transform="translate(-118.453 -23.793)" fill="#9ab4ef"/>
    <path id="Trazado_1279093" data-name="Trazado 1279093" d="M367.414,92.913a.579.579,0,1,1-.576-.644.613.613,0,0,1,.576.644" transform="translate(-118.453 -22.312)" fill="#9ab4ef"/>
    <path id="Trazado_1279094" data-name="Trazado 1279094" d="M367.414,86.789a.579.579,0,1,1-.576-.645.613.613,0,0,1,.576.645" transform="translate(-118.453 -20.831)" fill="#9ab4ef"/>
    <path id="Trazado_1279095" data-name="Trazado 1279095" d="M367.414,80.666a.579.579,0,1,1-.576-.645.613.613,0,0,1,.576.645" transform="translate(-118.453 -19.351)" fill="#9ab4ef"/>
    <path id="Trazado_1279096" data-name="Trazado 1279096" d="M367.414,74.542a.579.579,0,1,1-.576-.645.613.613,0,0,1,.576.645" transform="translate(-118.453 -17.87)" fill="#9ab4ef"/>
    <path id="Trazado_1279097" data-name="Trazado 1279097" d="M367.414,68.419a.579.579,0,1,1-.576-.645.613.613,0,0,1,.576.645" transform="translate(-118.453 -16.389)" fill="#9ab4ef"/>
    <path id="Trazado_1279098" data-name="Trazado 1279098" d="M11.92,218.586l2.549-4.25H9.447Z" transform="translate(-3.055 -51.831)" fill="#9ab4ef"/>
    <path id="Trazado_1279099" data-name="Trazado 1279099" d="M12.308,161.082a.579.579,0,1,1,.576.644.613.613,0,0,1-.576-.644" transform="translate(-3.981 -38.797)" fill="#9ab4ef"/>
    <path id="Trazado_1279100" data-name="Trazado 1279100" d="M12.308,167.205a.579.579,0,1,1,.576.645.613.613,0,0,1-.576-.645" transform="translate(-3.981 -40.278)" fill="#9ab4ef"/>
    <path id="Trazado_1279101" data-name="Trazado 1279101" d="M12.308,173.328a.579.579,0,1,1,.576.645.613.613,0,0,1-.576-.645" transform="translate(-3.981 -41.758)" fill="#9ab4ef"/>
    <path id="Trazado_1279102" data-name="Trazado 1279102" d="M12.308,179.452a.579.579,0,1,1,.576.645.613.613,0,0,1-.576-.645" transform="translate(-3.981 -43.239)" fill="#9ab4ef"/>
    <path id="Trazado_1279103" data-name="Trazado 1279103" d="M12.308,185.575a.579.579,0,1,1,.576.644.613.613,0,0,1-.576-.644" transform="translate(-3.981 -44.72)" fill="#9ab4ef"/>
    <path id="Trazado_1279104" data-name="Trazado 1279104" d="M12.308,191.7a.579.579,0,1,1,.576.644.613.613,0,0,1-.576-.644" transform="translate(-3.981 -46.201)" fill="#9ab4ef"/>
    <path id="Trazado_1279105" data-name="Trazado 1279105" d="M12.308,197.822a.579.579,0,1,1,.576.645.613.613,0,0,1-.576-.645" transform="translate(-3.981 -47.681)" fill="#9ab4ef"/>
    <path id="Trazado_1279106" data-name="Trazado 1279106" d="M12.308,203.946a.579.579,0,1,1,.576.645.613.613,0,0,1-.576-.645" transform="translate(-3.981 -49.162)" fill="#9ab4ef"/>
    <path id="Trazado_1279107" data-name="Trazado 1279107" d="M12.308,210.069a.579.579,0,1,1,.576.645.613.613,0,0,1-.576-.645" transform="translate(-3.981 -50.643)" fill="#9ab4ef"/>
    <path id="Trazado_1279108" data-name="Trazado 1279108" d="M562.051,143.782l-2.549,4.25h5.023Z" transform="translate(-180.948 -34.769)" fill="#9ab4ef"/>
    <path id="Trazado_1279109" data-name="Trazado 1279109" d="M563.514,202.23a.579.579,0,1,1-.576-.644.613.613,0,0,1,.576.644" transform="translate(-181.873 -48.748)" fill="#9ab4ef"/>
    <path id="Trazado_1279110" data-name="Trazado 1279110" d="M563.514,196.107a.579.579,0,1,1-.576-.644.613.613,0,0,1,.576.644" transform="translate(-181.873 -47.267)" fill="#9ab4ef"/>
    <path id="Trazado_1279111" data-name="Trazado 1279111" d="M563.514,189.983a.579.579,0,1,1-.576-.644.613.613,0,0,1,.576.644" transform="translate(-181.873 -45.786)" fill="#9ab4ef"/>
    <path id="Trazado_1279112" data-name="Trazado 1279112" d="M563.514,183.86a.579.579,0,1,1-.576-.645.614.614,0,0,1,.576.645" transform="translate(-181.873 -44.305)" fill="#9ab4ef"/>
    <path id="Trazado_1279113" data-name="Trazado 1279113" d="M563.514,177.737a.579.579,0,1,1-.576-.645.613.613,0,0,1,.576.645" transform="translate(-181.873 -42.824)" fill="#9ab4ef"/>
    <path id="Trazado_1279114" data-name="Trazado 1279114" d="M563.514,171.613a.579.579,0,1,1-.576-.645.613.613,0,0,1,.576.645" transform="translate(-181.873 -41.343)" fill="#9ab4ef"/>
    <path id="Trazado_1279115" data-name="Trazado 1279115" d="M563.514,165.489a.579.579,0,1,1-.576-.645.613.613,0,0,1,.576.645" transform="translate(-181.873 -39.863)" fill="#9ab4ef"/>
    <path id="Trazado_1279116" data-name="Trazado 1279116" d="M563.514,159.366a.579.579,0,1,1-.576-.644.613.613,0,0,1,.576.644" transform="translate(-181.873 -38.382)" fill="#9ab4ef"/>
    <path id="Trazado_1279117" data-name="Trazado 1279117" d="M563.514,153.243a.579.579,0,1,1-.576-.645.613.613,0,0,1,.576.645" transform="translate(-181.873 -36.901)" fill="#9ab4ef"/>
    <rect id="Rectángulo_462577" data-name="Rectángulo 462577" width="73.79" height="76.386" transform="translate(234.178 138.519)" fill="#83a0f0"/>
    <rect id="Rectángulo_462578" data-name="Rectángulo 462578" width="23.075" height="76.386" transform="translate(284.893 138.519)" fill="#5e60f4"/>
    <rect id="Rectángulo_462579" data-name="Rectángulo 462579" width="54.721" height="15.218" transform="translate(232.276 196.651)" fill="#5e60f4"/>
    <rect id="Rectángulo_462580" data-name="Rectángulo 462580" width="22.873" height="15.218" transform="translate(286.998 196.651)" fill="#a0b7ea"/>
    <path id="Trazado_1279118" data-name="Trazado 1279118" d="M397.092,273.544H344.238V260.418h52.854Zm.934-14.172H343.3V274.59h54.721Z" transform="translate(-111.028 -62.721)" fill="#83a0f0"/>
    <rect id="Rectángulo_462581" data-name="Rectángulo 462581" width="18.024" height="2.618" transform="translate(236.862 202.951)" fill="#fff"/>
    <rect id="Rectángulo_462582" data-name="Rectángulo 462582" width="1.314" height="2.618" transform="translate(265.633 202.951)" fill="#9ab4ef"/>
    <rect id="Rectángulo_462583" data-name="Rectángulo 462583" width="1.314" height="2.618" transform="translate(263.005 202.951)" fill="#f9cf70"/>
    <rect id="Rectángulo_462584" data-name="Rectángulo 462584" width="1.314" height="2.618" transform="translate(260.377 202.951)" fill="#9ab4ef"/>
    <rect id="Rectángulo_462585" data-name="Rectángulo 462585" width="1.314" height="2.618" transform="translate(257.748 202.951)" fill="#f9cf70"/>
    <rect id="Rectángulo_462586" data-name="Rectángulo 462586" width="6.281" height="7.038" transform="translate(276.131 200.476)" fill="#83a0f0"/>
    <rect id="Rectángulo_462587" data-name="Rectángulo 462587" width="0.518" height="0.581" transform="translate(236.862 199.294)" fill="#fff"/>
    <rect id="Rectángulo_462588" data-name="Rectángulo 462588" width="0.518" height="0.581" transform="translate(238.414 199.294)" fill="#9ab4ef"/>
    <rect id="Rectángulo_462589" data-name="Rectángulo 462589" width="0.518" height="0.581" transform="translate(239.966 199.294)" fill="#9ab4ef"/>
    <rect id="Rectángulo_462590" data-name="Rectángulo 462590" width="54.721" height="15.218" transform="translate(232.276 178.285)" fill="#5e60f4"/>
    <rect id="Rectángulo_462591" data-name="Rectángulo 462591" width="22.873" height="15.218" transform="translate(286.998 178.285)" fill="#a0b7ea"/>
    <path id="Trazado_1279119" data-name="Trazado 1279119" d="M397.092,249.321H344.238V236.2h52.854Zm.934-14.172H343.3v15.218h54.721Z" transform="translate(-111.028 -56.864)" fill="#83a0f0"/>
    <rect id="Rectángulo_462592" data-name="Rectángulo 462592" width="18.024" height="2.618" transform="translate(236.862 184.586)" fill="#fff"/>
    <rect id="Rectángulo_462593" data-name="Rectángulo 462593" width="1.314" height="2.618" transform="translate(265.633 184.586)" fill="#9ab4ef"/>
    <rect id="Rectángulo_462594" data-name="Rectángulo 462594" width="1.314" height="2.618" transform="translate(263.005 184.586)" fill="#f9cf70"/>
    <rect id="Rectángulo_462595" data-name="Rectángulo 462595" width="1.314" height="2.618" transform="translate(260.377 184.586)" fill="#9ab4ef"/>
    <rect id="Rectángulo_462596" data-name="Rectángulo 462596" width="1.314" height="2.618" transform="translate(257.748 184.586)" fill="#f9cf70"/>
    <rect id="Rectángulo_462597" data-name="Rectángulo 462597" width="6.281" height="7.038" transform="translate(276.131 182.111)" fill="#83a0f0"/>
    <rect id="Rectángulo_462598" data-name="Rectángulo 462598" width="0.518" height="0.581" transform="translate(236.862 180.929)" fill="#fff"/>
    <rect id="Rectángulo_462599" data-name="Rectángulo 462599" width="0.518" height="0.581" transform="translate(238.414 180.929)" fill="#9ab4ef"/>
    <rect id="Rectángulo_462600" data-name="Rectángulo 462600" width="0.518" height="0.581" transform="translate(239.966 180.929)" fill="#9ab4ef"/>
    <rect id="Rectángulo_462601" data-name="Rectángulo 462601" width="54.721" height="15.218" transform="translate(232.276 159.92)" fill="#5e60f4"/>
    <rect id="Rectángulo_462602" data-name="Rectángulo 462602" width="22.873" height="15.218" transform="translate(286.998 159.92)" fill="#a0b7ea"/>
    <path id="Trazado_1279120" data-name="Trazado 1279120" d="M397.092,225.1H344.238V211.972h52.854Zm.934-14.172H343.3v15.218h54.721Z" transform="translate(-111.028 -51.006)" fill="#83a0f0"/>
    <rect id="Rectángulo_462603" data-name="Rectángulo 462603" width="18.024" height="2.618" transform="translate(236.862 166.22)" fill="#fff"/>
    <rect id="Rectángulo_462604" data-name="Rectángulo 462604" width="1.314" height="2.618" transform="translate(265.633 166.22)" fill="#9ab4ef"/>
    <rect id="Rectángulo_462605" data-name="Rectángulo 462605" width="1.314" height="2.618" transform="translate(263.005 166.22)" fill="#f9cf70"/>
    <rect id="Rectángulo_462606" data-name="Rectángulo 462606" width="1.314" height="2.618" transform="translate(260.377 166.22)" fill="#9ab4ef"/>
    <rect id="Rectángulo_462607" data-name="Rectángulo 462607" width="1.314" height="2.618" transform="translate(257.748 166.22)" fill="#f9cf70"/>
    <rect id="Rectángulo_462608" data-name="Rectángulo 462608" width="6.281" height="7.038" transform="translate(276.131 163.746)" fill="#83a0f0"/>
    <rect id="Rectángulo_462609" data-name="Rectángulo 462609" width="0.518" height="0.581" transform="translate(236.862 162.564)" fill="#fff"/>
    <rect id="Rectángulo_462610" data-name="Rectángulo 462610" width="0.518" height="0.581" transform="translate(238.414 162.564)" fill="#9ab4ef"/>
    <rect id="Rectángulo_462611" data-name="Rectángulo 462611" width="0.518" height="0.581" transform="translate(239.966 162.564)" fill="#9ab4ef"/>
    <rect id="Rectángulo_462612" data-name="Rectángulo 462612" width="54.721" height="15.218" transform="translate(232.276 141.554)" fill="#5e60f4"/>
    <rect id="Rectángulo_462613" data-name="Rectángulo 462613" width="22.873" height="15.218" transform="translate(286.998 141.554)" fill="#a0b7ea"/>
    <path id="Trazado_1279121" data-name="Trazado 1279121" d="M397.092,200.875H344.238V187.749h52.854Zm.934-14.172H343.3v15.218h54.721Z" transform="translate(-111.028 -45.149)" fill="#83a0f0"/>
    <rect id="Rectángulo_462614" data-name="Rectángulo 462614" width="18.024" height="2.618" transform="translate(236.862 147.855)" fill="#fff"/>
    <rect id="Rectángulo_462615" data-name="Rectángulo 462615" width="1.314" height="2.618" transform="translate(265.633 147.855)" fill="#9ab4ef"/>
    <rect id="Rectángulo_462616" data-name="Rectángulo 462616" width="1.314" height="2.618" transform="translate(263.005 147.855)" fill="#f9cf70"/>
    <rect id="Rectángulo_462617" data-name="Rectángulo 462617" width="1.314" height="2.618" transform="translate(260.377 147.855)" fill="#9ab4ef"/>
    <rect id="Rectángulo_462618" data-name="Rectángulo 462618" width="1.314" height="2.618" transform="translate(257.748 147.855)" fill="#f9cf70"/>
    <rect id="Rectángulo_462619" data-name="Rectángulo 462619" width="6.281" height="7.038" transform="translate(276.131 145.38)" fill="#83a0f0"/>
    <rect id="Rectángulo_462620" data-name="Rectángulo 462620" width="0.518" height="0.581" transform="translate(236.862 144.198)" fill="#fff"/>
    <rect id="Rectángulo_462621" data-name="Rectángulo 462621" width="0.518" height="0.581" transform="translate(238.414 144.198)" fill="#9ab4ef"/>
    <rect id="Rectángulo_462622" data-name="Rectángulo 462622" width="0.518" height="0.581" transform="translate(239.966 144.198)" fill="#9ab4ef"/>
    <path id="Trazado_1279122" data-name="Trazado 1279122" d="M442.542,272.291h-9a1.987,1.987,0,0,1-1.865-2.089v-4.289a1.987,1.987,0,0,1,1.865-2.09h9a1.986,1.986,0,0,1,1.864,2.09V270.2a1.986,1.986,0,0,1-1.864,2.089" transform="translate(-139.609 -63.798)" fill="#5e60f4"/>
    <path id="Trazado_1279123" data-name="Trazado 1279123" d="M439.687,270.1v-2.524a.5.5,0,0,1,.467-.523h.958a.5.5,0,0,1,.467.523V270.1a.5.5,0,0,1-.467.523h-.958a.5.5,0,0,1-.467-.523" transform="translate(-142.199 -64.579)" fill="#83a0f0"/>
    <path id="Trazado_1279124" data-name="Trazado 1279124" d="M442.542,248.068h-9a1.987,1.987,0,0,1-1.865-2.089v-4.289a1.987,1.987,0,0,1,1.865-2.09h9a1.986,1.986,0,0,1,1.864,2.09v4.289a1.986,1.986,0,0,1-1.864,2.089" transform="translate(-139.609 -57.94)" fill="#5e60f4"/>
    <path id="Trazado_1279125" data-name="Trazado 1279125" d="M439.687,245.878v-2.524a.5.5,0,0,1,.467-.523h.958a.5.5,0,0,1,.467.523v2.524a.5.5,0,0,1-.467.523h-.958a.5.5,0,0,1-.467-.523" transform="translate(-142.199 -58.721)" fill="#83a0f0"/>
    <path id="Trazado_1279126" data-name="Trazado 1279126" d="M442.542,223.845h-9a1.987,1.987,0,0,1-1.865-2.089v-4.289a1.987,1.987,0,0,1,1.865-2.09h9a1.986,1.986,0,0,1,1.864,2.09v4.289a1.986,1.986,0,0,1-1.864,2.089" transform="translate(-139.609 -52.083)" fill="#5e60f4"/>
    <path id="Trazado_1279127" data-name="Trazado 1279127" d="M439.687,221.655v-2.524a.5.5,0,0,1,.467-.523h.958a.5.5,0,0,1,.467.523v2.524a.5.5,0,0,1-.467.523h-.958a.5.5,0,0,1-.467-.523" transform="translate(-142.199 -52.864)" fill="#83a0f0"/>
    <path id="Trazado_1279128" data-name="Trazado 1279128" d="M442.542,199.622h-9a1.987,1.987,0,0,1-1.865-2.089v-4.289a1.987,1.987,0,0,1,1.865-2.09h9a1.986,1.986,0,0,1,1.864,2.09v4.289a1.986,1.986,0,0,1-1.864,2.089" transform="translate(-139.609 -46.225)" fill="#5e60f4"/>
    <path id="Trazado_1279129" data-name="Trazado 1279129" d="M439.687,197.432v-2.524a.5.5,0,0,1,.467-.523h.958a.5.5,0,0,1,.467.523v2.524a.5.5,0,0,1-.467.523h-.958a.5.5,0,0,1-.467-.523" transform="translate(-142.199 -47.006)" fill="#83a0f0"/>
    <rect id="Rectángulo_462623" data-name="Rectángulo 462623" width="73.79" height="76.386" transform="translate(234.178 65.169)" fill="#83a0f0"/>
    <rect id="Rectángulo_462624" data-name="Rectángulo 462624" width="23.075" height="76.386" transform="translate(284.893 65.169)" fill="#5e60f4"/>
    <rect id="Rectángulo_462625" data-name="Rectángulo 462625" width="54.721" height="15.218" transform="translate(232.276 123.301)" fill="#5e60f4"/>
    <rect id="Rectángulo_462626" data-name="Rectángulo 462626" width="22.873" height="15.218" transform="translate(286.998 123.301)" fill="#a0b7ea"/>
    <path id="Trazado_1279130" data-name="Trazado 1279130" d="M397.092,176.8H344.238V163.673h52.854Zm.934-14.172H343.3v15.218h54.721Z" transform="translate(-111.028 -39.326)" fill="#83a0f0"/>
    <rect id="Rectángulo_462627" data-name="Rectángulo 462627" width="18.024" height="2.618" transform="translate(236.862 129.601)" fill="#fff"/>
    <rect id="Rectángulo_462628" data-name="Rectángulo 462628" width="1.314" height="2.618" transform="translate(265.633 129.601)" fill="#9ab4ef"/>
    <rect id="Rectángulo_462629" data-name="Rectángulo 462629" width="1.314" height="2.618" transform="translate(263.005 129.601)" fill="#f9cf70"/>
    <rect id="Rectángulo_462630" data-name="Rectángulo 462630" width="1.314" height="2.618" transform="translate(260.377 129.601)" fill="#9ab4ef"/>
    <rect id="Rectángulo_462631" data-name="Rectángulo 462631" width="1.314" height="2.618" transform="translate(257.748 129.601)" fill="#f9cf70"/>
    <rect id="Rectángulo_462632" data-name="Rectángulo 462632" width="6.281" height="7.038" transform="translate(276.131 127.126)" fill="#83a0f0"/>
    <rect id="Rectángulo_462633" data-name="Rectángulo 462633" width="0.518" height="0.581" transform="translate(236.862 125.944)" fill="#fff"/>
    <rect id="Rectángulo_462634" data-name="Rectángulo 462634" width="0.518" height="0.581" transform="translate(238.414 125.944)" fill="#9ab4ef"/>
    <rect id="Rectángulo_462635" data-name="Rectángulo 462635" width="0.518" height="0.581" transform="translate(239.966 125.944)" fill="#9ab4ef"/>
    <rect id="Rectángulo_462636" data-name="Rectángulo 462636" width="54.721" height="15.218" transform="translate(232.276 104.935)" fill="#5e60f4"/>
    <rect id="Rectángulo_462637" data-name="Rectángulo 462637" width="22.873" height="15.218" transform="translate(286.998 104.935)" fill="#a0b7ea"/>
    <path id="Trazado_1279131" data-name="Trazado 1279131" d="M397.092,152.576H344.238V139.45h52.854Zm.934-14.172H343.3v15.218h54.721Z" transform="translate(-111.028 -33.469)" fill="#83a0f0"/>
    <rect id="Rectángulo_462638" data-name="Rectángulo 462638" width="18.024" height="2.618" transform="translate(236.862 111.236)" fill="#fff"/>
    <rect id="Rectángulo_462639" data-name="Rectángulo 462639" width="1.314" height="2.618" transform="translate(265.633 111.236)" fill="#9ab4ef"/>
    <rect id="Rectángulo_462640" data-name="Rectángulo 462640" width="1.314" height="2.618" transform="translate(263.005 111.236)" fill="#f9cf70"/>
    <rect id="Rectángulo_462641" data-name="Rectángulo 462641" width="1.314" height="2.618" transform="translate(260.377 111.236)" fill="#9ab4ef"/>
    <rect id="Rectángulo_462642" data-name="Rectángulo 462642" width="1.314" height="2.618" transform="translate(257.748 111.236)" fill="#f9cf70"/>
    <rect id="Rectángulo_462643" data-name="Rectángulo 462643" width="6.281" height="7.038" transform="translate(276.131 108.761)" fill="#83a0f0"/>
    <rect id="Rectángulo_462644" data-name="Rectángulo 462644" width="0.518" height="0.581" transform="translate(236.862 107.579)" fill="#fff"/>
    <rect id="Rectángulo_462645" data-name="Rectángulo 462645" width="0.518" height="0.581" transform="translate(238.414 107.579)" fill="#9ab4ef"/>
    <rect id="Rectángulo_462646" data-name="Rectángulo 462646" width="0.518" height="0.581" transform="translate(239.966 107.579)" fill="#9ab4ef"/>
    <rect id="Rectángulo_462647" data-name="Rectángulo 462647" width="54.721" height="15.218" transform="translate(232.276 86.57)" fill="#5e60f4"/>
    <rect id="Rectángulo_462648" data-name="Rectángulo 462648" width="22.873" height="15.218" transform="translate(286.998 86.57)" fill="#a0b7ea"/>
    <path id="Trazado_1279132" data-name="Trazado 1279132" d="M397.092,128.353H344.238V115.227h52.854Zm.934-14.172H343.3V129.4h54.721Z" transform="translate(-111.028 -27.611)" fill="#83a0f0"/>
    <rect id="Rectángulo_462649" data-name="Rectángulo 462649" width="18.024" height="2.618" transform="translate(236.862 92.87)" fill="#fff"/>
    <rect id="Rectángulo_462650" data-name="Rectángulo 462650" width="1.314" height="2.618" transform="translate(265.633 92.87)" fill="#9ab4ef"/>
    <rect id="Rectángulo_462651" data-name="Rectángulo 462651" width="1.314" height="2.618" transform="translate(263.005 92.87)" fill="#f9cf70"/>
    <rect id="Rectángulo_462652" data-name="Rectángulo 462652" width="1.314" height="2.618" transform="translate(260.377 92.87)" fill="#9ab4ef"/>
    <rect id="Rectángulo_462653" data-name="Rectángulo 462653" width="1.314" height="2.618" transform="translate(257.748 92.87)" fill="#f9cf70"/>
    <rect id="Rectángulo_462654" data-name="Rectángulo 462654" width="6.281" height="7.038" transform="translate(276.131 90.396)" fill="#83a0f0"/>
    <rect id="Rectángulo_462655" data-name="Rectángulo 462655" width="0.518" height="0.581" transform="translate(236.862 89.214)" fill="#fff"/>
    <rect id="Rectángulo_462656" data-name="Rectángulo 462656" width="0.518" height="0.581" transform="translate(238.414 89.214)" fill="#9ab4ef"/>
    <rect id="Rectángulo_462657" data-name="Rectángulo 462657" width="0.518" height="0.581" transform="translate(239.966 89.214)" fill="#9ab4ef"/>
    <rect id="Rectángulo_462658" data-name="Rectángulo 462658" width="54.721" height="15.218" transform="translate(232.276 68.204)" fill="#5e60f4"/>
    <rect id="Rectángulo_462659" data-name="Rectángulo 462659" width="22.873" height="15.218" transform="translate(286.998 68.204)" fill="#a0b7ea"/>
    <path id="Trazado_1279133" data-name="Trazado 1279133" d="M397.092,104.13H344.238V91h52.854Zm.934-14.172H343.3v15.218h54.721Z" transform="translate(-111.028 -21.754)" fill="#83a0f0"/>
    <rect id="Rectángulo_462660" data-name="Rectángulo 462660" width="18.024" height="2.618" transform="translate(236.862 74.504)" fill="#fff"/>
    <rect id="Rectángulo_462661" data-name="Rectángulo 462661" width="1.314" height="2.618" transform="translate(265.633 74.504)" fill="#9ab4ef"/>
    <rect id="Rectángulo_462662" data-name="Rectángulo 462662" width="1.314" height="2.618" transform="translate(263.005 74.504)" fill="#f9cf70"/>
    <rect id="Rectángulo_462663" data-name="Rectángulo 462663" width="1.314" height="2.618" transform="translate(260.377 74.504)" fill="#9ab4ef"/>
    <rect id="Rectángulo_462664" data-name="Rectángulo 462664" width="1.314" height="2.618" transform="translate(257.748 74.504)" fill="#f9cf70"/>
    <rect id="Rectángulo_462665" data-name="Rectángulo 462665" width="6.281" height="7.038" transform="translate(276.131 72.03)" fill="#83a0f0"/>
    <rect id="Rectángulo_462666" data-name="Rectángulo 462666" width="0.518" height="0.581" transform="translate(236.862 70.848)" fill="#fff"/>
    <rect id="Rectángulo_462667" data-name="Rectángulo 462667" width="0.518" height="0.581" transform="translate(238.414 70.848)" fill="#9ab4ef"/>
    <rect id="Rectángulo_462668" data-name="Rectángulo 462668" width="0.518" height="0.581" transform="translate(239.966 70.848)" fill="#9ab4ef"/>
    <path id="Trazado_1279134" data-name="Trazado 1279134" d="M442.542,175.546h-9a1.987,1.987,0,0,1-1.865-2.089v-4.289a1.987,1.987,0,0,1,1.865-2.09h9a1.986,1.986,0,0,1,1.864,2.09v4.289a1.986,1.986,0,0,1-1.864,2.089" transform="translate(-139.609 -40.403)" fill="#5e60f4"/>
    <path id="Trazado_1279135" data-name="Trazado 1279135" d="M439.687,173.356v-2.524a.5.5,0,0,1,.467-.523h.958a.5.5,0,0,1,.467.523v2.524a.5.5,0,0,1-.467.523h-.958a.5.5,0,0,1-.467-.523" transform="translate(-142.199 -41.184)" fill="#83a0f0"/>
    <path id="Trazado_1279136" data-name="Trazado 1279136" d="M442.542,151.323h-9a1.987,1.987,0,0,1-1.865-2.089v-4.289a1.987,1.987,0,0,1,1.865-2.09h9a1.986,1.986,0,0,1,1.864,2.09v4.289a1.986,1.986,0,0,1-1.864,2.089" transform="translate(-139.609 -34.545)" fill="#5e60f4"/>
    <path id="Trazado_1279137" data-name="Trazado 1279137" d="M439.687,149.133v-2.524a.5.5,0,0,1,.467-.523h.958a.5.5,0,0,1,.467.523v2.524a.5.5,0,0,1-.467.523h-.958a.5.5,0,0,1-.467-.523" transform="translate(-142.199 -35.327)" fill="#83a0f0"/>
    <path id="Trazado_1279138" data-name="Trazado 1279138" d="M442.542,127.1h-9a1.987,1.987,0,0,1-1.865-2.089v-4.289a1.987,1.987,0,0,1,1.865-2.09h9a1.986,1.986,0,0,1,1.864,2.09v4.289a1.986,1.986,0,0,1-1.864,2.089" transform="translate(-139.609 -28.688)" fill="#5e60f4"/>
    <path id="Trazado_1279139" data-name="Trazado 1279139" d="M439.687,124.91v-2.524a.5.5,0,0,1,.467-.523h.958a.5.5,0,0,1,.467.523v2.524a.5.5,0,0,1-.467.523h-.958a.5.5,0,0,1-.467-.523" transform="translate(-142.199 -29.469)" fill="#83a0f0"/>
    <path id="Trazado_1279140" data-name="Trazado 1279140" d="M442.542,102.877h-9a1.987,1.987,0,0,1-1.865-2.089V96.5a1.987,1.987,0,0,1,1.865-2.09h9a1.986,1.986,0,0,1,1.864,2.09v4.289a1.986,1.986,0,0,1-1.864,2.089" transform="translate(-139.609 -22.83)" fill="#5e60f4"/>
    <path id="Trazado_1279141" data-name="Trazado 1279141" d="M439.687,100.687V98.163a.5.5,0,0,1,.467-.523h.958a.5.5,0,0,1,.467.523v2.524a.5.5,0,0,1-.467.523h-.958a.5.5,0,0,1-.467-.523" transform="translate(-142.199 -23.611)" fill="#83a0f0"/>
    <path id="Trazado_1279142" data-name="Trazado 1279142" d="M458.333,45.565V86.423h-7.108v-.41h-2.666v.41h-7.474v.82h7.474v.41h2.666v-.41h7.108v17.546h-7.108v-.41h-2.666v.41h-7.474v.82h7.474v.41h2.666v-.41h7.108v17.546h-7.108v-.41h-2.666v.41h-7.474v.82h7.474v.41h2.666v-.41h7.108v17.546H441.085v.82h17.248v17.434h-7.108v-.41h-2.666v.41h-7.474v.82h7.474V161h2.666v-.41h7.108v17.546h-7.108v-.41h-2.666v.41h-7.474v.82h7.474v.41h2.666v-.41h7.108V196.5h-7.108v-.41h-2.666v.41h-7.474v.82h7.474v.41h2.666v-.41h7.108v17.546h-7.108v-.41h-2.666v.41h-7.474v.82h7.474v.41h2.666v-.41h7.84V45.672c-.244-.039-.488-.071-.731-.107" transform="translate(-142.651 -11.019)" fill="#9ab4ef"/>
    <path id="Trazado_1279143" data-name="Trazado 1279143" d="M467.866,42.443a1.441,1.441,0,1,1-1.432-1.6,1.525,1.525,0,0,1,1.432,1.6" transform="translate(-150.386 -9.876)" fill="#f9cf70"/>
    <path id="Trazado_1279144" data-name="Trazado 1279144" d="M467.866,99.482a1.441,1.441,0,1,1-1.432-1.6,1.525,1.525,0,0,1,1.432,1.6" transform="translate(-150.386 -23.669)" fill="#f9cf70"/>
    <path id="Trazado_1279145" data-name="Trazado 1279145" d="M467.866,123.616a1.441,1.441,0,1,1-1.432-1.6,1.525,1.525,0,0,1,1.432,1.6" transform="translate(-150.386 -29.505)" fill="#f9cf70"/>
    <path id="Trazado_1279146" data-name="Trazado 1279146" d="M467.866,147.928a1.441,1.441,0,1,1-1.432-1.6,1.525,1.525,0,0,1,1.432,1.6" transform="translate(-150.386 -35.384)" fill="#f9cf70"/>
    <path id="Trazado_1279147" data-name="Trazado 1279147" d="M467.866,171.882a1.441,1.441,0,1,1-1.432-1.6,1.525,1.525,0,0,1,1.432,1.6" transform="translate(-150.386 -41.177)" fill="#f9cf70"/>
    <path id="Trazado_1279148" data-name="Trazado 1279148" d="M467.866,196.016a1.441,1.441,0,1,1-1.432-1.6,1.525,1.525,0,0,1,1.432,1.6" transform="translate(-150.386 -47.013)" fill="#f9cf70"/>
    <path id="Trazado_1279149" data-name="Trazado 1279149" d="M467.866,220.149a1.441,1.441,0,1,1-1.432-1.6,1.525,1.525,0,0,1,1.432,1.6" transform="translate(-150.386 -52.849)" fill="#f9cf70"/>
    <path id="Trazado_1279150" data-name="Trazado 1279150" d="M467.866,244.283a1.441,1.441,0,1,1-1.432-1.6,1.525,1.525,0,0,1,1.432,1.6" transform="translate(-150.386 -58.685)" fill="#f9cf70"/>
    <path id="Trazado_1279151" data-name="Trazado 1279151" d="M467.866,268.416a1.441,1.441,0,1,1-1.432-1.6,1.525,1.525,0,0,1,1.432,1.6" transform="translate(-150.386 -64.52)" fill="#f9cf70"/>
    <path id="Trazado_1279152" data-name="Trazado 1279152" d="M208.972,28.062V210.209a17.812,17.812,0,0,0,.717,5.034c1.9,6.509,7.384,11.241,13.807,11.241h68.374c6.424,0,11.907-4.732,13.807-11.241a17.836,17.836,0,0,0,.717-5.034V28.062a17.532,17.532,0,0,0-2.5-9.088,14.191,14.191,0,0,0-12.028-7.181H223.5a14.206,14.206,0,0,0-12.033,7.181,17.573,17.573,0,0,0-2.49,9.088" transform="translate(-67.583 -2.852)" fill="#353dc9"/>
    <rect id="Rectángulo_462669" data-name="Rectángulo 462669" width="95.351" height="213.698" rx="20.799" transform="translate(146.1 9.487)" fill="#1b29af"/>
    <path id="Rectángulo_462670" data-name="Rectángulo 462670" d="M20.742,0H73.413A20.742,20.742,0,0,1,94.155,20.742V191.466a20.743,20.743,0,0,1-20.743,20.743H20.742A20.742,20.742,0,0,1,0,191.467V20.742A20.742,20.742,0,0,1,20.742,0Z" transform="translate(146.698 10.153)" fill="#353dc9"/>
    <path id="Trazado_1279153" data-name="Trazado 1279153" d="M233.193,20.411h11.562v1.148c0,3.513,2.542,6.362,5.677,6.362h32.208c3.316,0,6-3.013,6-6.729v-.781H298.77c5.466,0,9.9,4.965,9.9,11.091V210.878c0,6.125-4.431,11.091-9.9,11.091H233.193c-5.466,0-9.9-4.966-9.9-11.091V31.5c0-6.125,4.431-11.091,9.9-11.091" transform="translate(-72.216 -4.936)" fill="#83a0f0"/>
    <path id="Trazado_1279154" data-name="Trazado 1279154" d="M288.643,22.347a1.127,1.127,0,0,0,0-2.239h-10.48a1.127,1.127,0,0,0,0,2.239Z" transform="translate(-89.637 -4.863)" fill="#f9cf70"/>
    <path id="Trazado_1279155" data-name="Trazado 1279155" d="M302.2,20.9a1.3,1.3,0,1,1-1.288-1.443A1.373,1.373,0,0,1,302.2,20.9" transform="translate(-96.9 -4.706)" fill="#f9cf70"/>
    <path id="Trazado_1279156" data-name="Trazado 1279156" d="M301.889,21.115a.7.7,0,1,1-.7-.782.744.744,0,0,1,.7.782" transform="translate(-97.182 -4.917)" fill="#353dc9"/>
    <path id="Trazado_1279157" data-name="Trazado 1279157" d="M212.458,70.251a1.006,1.006,0,1,0-2,0V86.124a1.005,1.005,0,1,0,2,0Z" transform="translate(-68.065 -16.717)" fill="#1b29af"/>
    <path id="Trazado_1279158" data-name="Trazado 1279158" d="M212.458,104.026a1.005,1.005,0,1,0-2,0V119.9a1.005,1.005,0,1,0,2,0Z" transform="translate(-68.065 -24.885)" fill="#1b29af"/>
    <rect id="Rectángulo_462671" data-name="Rectángulo 462671" width="4.711" height="2.625" transform="translate(141.389 30.696)" fill="#1b29af"/>
    <rect id="Rectángulo_462672" data-name="Rectángulo 462672" width="4.711" height="2.625" transform="translate(141.389 199.448)" fill="#1b29af"/>
    <path id="Trazado_1279159" data-name="Trazado 1279159" d="M307.543,62.566V45.8H299.72V62.566H292.7l10.93,12.245,10.93-12.245Z" transform="translate(-94.662 -11.076)" fill="#f9cf70"/>
    <path id="Trazado_1279160" data-name="Trazado 1279160" d="M317.954,90.654H283.093V81.906h2.846v5.558h29.169V81.906h2.846Z" transform="translate(-91.555 -19.807)" fill="#5e60f4"/>
    <path id="Trazado_1279161" data-name="Trazado 1279161" d="M230.982,167.388s-7.656,10-16.8-1.083c0,0-9.028.427-19.873,13.82v57.823l56.146.663v-56.5s-6.592-11.414-19.468-14.722" transform="translate(-62.84 -40.216)" fill="#f9cf70"/>
    <path id="Trazado_1279162" data-name="Trazado 1279162" d="M220.929,236.962c-6.808,4.38-20.116,3.98-27.533,3.757-21.638-.651-13.888-37.362-6.915-52.426s13.374-2.24,13.706,9.9c.181,6.589-1.277,15.1-4.52,20.971,8.263.5,25.712,8.3,25.712,8.3-3.579,4.52-.45,9.5-.45,9.5" transform="translate(-57.957 -43.881)" fill="#f9cf70"/>
    <path id="Trazado_1279163" data-name="Trazado 1279163" d="M235.28,239.69c7.271,3.317,20.41.92,27.733-.416,21.364-3.9,9.29-39.111.577-52.991s-13.522-.21-12.4,11.87c.61,6.557,3.074,14.773,6.991,20.1-8.129,1.734-24.487,12.085-24.487,12.085,4.087,3.941,1.583,9.35,1.583,9.35" transform="translate(-75.58 -43.634)" fill="#f9cf70"/>
    <path id="Trazado_1279164" data-name="Trazado 1279164" d="M249.733,256.564l-68.416-2.451,4.231,12.695,39.834,13.715,25.369-9.283Z" transform="translate(-58.64 -61.449)" fill="#1b29af"/>
    <path id="Trazado_1279165" data-name="Trazado 1279165" d="M245.746,231.387l-.593,13.627H192.875l-1.317-28.528Z" transform="translate(-61.952 -52.351)" fill="#f9cf70"/>
    <path id="Trazado_1279166" data-name="Trazado 1279166" d="M258.023,241.08l1.054-4.773a.651.651,0,0,0-.383-.762l-1.443-.5a.617.617,0,0,1-.391-.492l-.245-1.483a.59.59,0,0,0-.559-.521h-1.181a.559.559,0,0,1-.482-.3l-.72-1.29a.534.534,0,0,0-.772-.211l-1.367.908a.514.514,0,0,1-.567.008l-.8-.5a.534.534,0,0,0-.752.2l-2.874,4.868a.684.684,0,0,0,.178.9l.637.436a.525.525,0,0,0,.722-.122c.377-.477,1.076-.108.988.521l-.029.211a.659.659,0,0,0,.31.669l5.637,3.118a.546.546,0,0,0,.115.047c.354.1,2.085.506,2.847-.723a.641.641,0,0,0,.079-.2" transform="translate(-79.703 -55.777)" fill="#febac7"/>
    <path id="Trazado_1279167" data-name="Trazado 1279167" d="M204.345,241.08l-1.054-4.773a.651.651,0,0,1,.383-.762l1.443-.5a.617.617,0,0,0,.391-.492l.245-1.483a.59.59,0,0,1,.559-.521h1.18a.558.558,0,0,0,.482-.3l.72-1.29a.534.534,0,0,1,.772-.211l1.366.908a.515.515,0,0,0,.568.008l.8-.5a.534.534,0,0,1,.752.2l2.874,4.868a.684.684,0,0,1-.178.9l-.637.436a.526.526,0,0,1-.723-.122c-.376-.477-1.075-.108-.987.521l.029.211a.659.659,0,0,1-.31.669l-5.637,3.118a.547.547,0,0,1-.115.047c-.354.1-2.085.506-2.848-.723a.656.656,0,0,1-.078-.2" transform="translate(-65.741 -55.777)" fill="#febac7"/>
    <path id="Trazado_1279168" data-name="Trazado 1279168" d="M271.407,238.723,220.579,273.3c4.093,3.723,6.369,8.587,7.285,14.308l52.945-29.878c5.329-3.008,7-10.641,3.512-16.068-2.96-4.607-8.583-5.887-12.913-2.942" transform="translate(-71.337 -57.346)" fill="#5e60f4"/>
    <path id="Trazado_1279169" data-name="Trazado 1279169" d="M237.816,291.76l3.227,3.054-6.384,3.6a82.053,82.053,0,0,0-6.189-5.634c-.751-.322,9.346-1.023,9.346-1.023" transform="translate(-73.876 -70.553)" fill="#1b29af"/>
    <path id="Trazado_1279170" data-name="Trazado 1279170" d="M216.215,284.837l-8.466,5.345a1.561,1.561,0,0,0-.491,2c2.233,4.364,9.681,18.468,13.617,20.385,0,0,3.178-1.143,1.961-5.8a16.318,16.318,0,0,1,.421-8.962s-.277-10.853-7.042-12.971" transform="translate(-66.973 -68.879)" fill="#1b29af"/>
    <path id="Trazado_1279171" data-name="Trazado 1279171" d="M174.514,244.039l53.7,28.609a24.3,24.3,0,0,0-5.949,15.064l-55.381-23.69c-5.574-2.384-7.927-9.788-4.951-15.584,2.526-4.92,8-6.836,12.579-4.4" transform="translate(-51.952 -58.758)" fill="#5e60f4"/>
    <path id="Trazado_1279172" data-name="Trazado 1279172" d="M257.721,282.11l8.907,4.353a1.536,1.536,0,0,1,.671,1.936c-1.825,4.6-7.955,19.475-11.7,21.831,0,0-3.265-.776-2.477-5.546a16.177,16.177,0,0,0-1.231-8.868s-.71-10.829,5.828-13.706" transform="translate(-81.457 -68.22)" fill="#1b29af"/>
    <path id="Trazado_1279173" data-name="Trazado 1279173" d="M235.709,164.094a9.9,9.9,0,0,1-2.8-.7c-3.064-1.292-5.214-4.266-6.664-7.363,0,0-.126,5.865-.359,7.674a6.415,6.415,0,0,1-1,2.828l6.8,6.164,3.459-4.093s.217-2.134.566-4.512" transform="translate(-72.73 -37.732)" fill="#ef947a"/>
    <path id="Trazado_1279174" data-name="Trazado 1279174" d="M234.811,172.225c-1.152.658-2.288,1.332-3.371,2a38.376,38.376,0,0,0-6.313-4.857,3.605,3.605,0,0,1-.24.392l6.8,6.165Z" transform="translate(-72.73 -40.956)" fill="#c97865"/>
    <path id="Trazado_1279175" data-name="Trazado 1279175" d="M234.132,164.113A12.3,12.3,0,0,1,228.676,159a21.116,21.116,0,0,0,2.837,6.159,9.674,9.674,0,0,0,2.393,2.6,4.739,4.739,0,0,0,2.537.892c.091-.815.264-2.273.493-3.836a9.874,9.874,0,0,1-2.8-.7" transform="translate(-73.956 -38.45)" fill="#1b29af"/>
    <path id="Trazado_1279176" data-name="Trazado 1279176" d="M225.188,150.57c1.422,3.32,3.545,6.5,6.6,7.853a10.818,10.818,0,0,0,5.549.695,5.275,5.275,0,0,0,4.832-3.466,21.993,21.993,0,0,0,1.242-6.108c.362-3.035.367-6.037.5-9.084.1-2.44-.042-4.177-1.928-5.878a8.3,8.3,0,0,1-2.345,1.166,3.192,3.192,0,0,1-2.386.088,8.894,8.894,0,0,1-2.1-1.6,2.449,2.449,0,0,0-2.371-.68c-2.556,1.041-4.078,4.065-4.375,7.094-.194,1.982.141,5.89-2.482,6.136a9.662,9.662,0,0,0-.992-2.4,1.738,1.738,0,0,0-1.637-.883,1.952,1.952,0,0,0-1.281,1.155,4.217,4.217,0,0,0,.064,3.651,4.776,4.776,0,0,0,3.112,2.263" transform="translate(-71.676 -32.27)" fill="#ef947a"/>
    <path id="Trazado_1279177" data-name="Trazado 1279177" d="M239.224,157.908A11.506,11.506,0,0,0,245.4,159.1c-.614,1.033-1.466,2.258-2.558,2.474a2.579,2.579,0,0,1-2.348-.992,8.085,8.085,0,0,1-1.271-2.671" transform="translate(-77.367 -38.185)" fill="#f5edec"/>
    <path id="Trazado_1279178" data-name="Trazado 1279178" d="M239.224,157.908c.107.319.221.656.348.989a9.848,9.848,0,0,0,4.436,1.267,6.511,6.511,0,0,0,.7-.012,11.727,11.727,0,0,0,.7-1.055,11.506,11.506,0,0,1-6.178-1.189" transform="translate(-77.367 -38.185)" fill="#ddd7d7"/>
    <path id="Trazado_1279179" data-name="Trazado 1279179" d="M243.177,153.861a.239.239,0,0,1-.187-.246.232.232,0,0,1,.222-.242l2.217.033c-.138-2.159-.192-4.348-.16-6.511a.22.22,0,1,1,.438.008c-.034,2.237.026,4.5.176,6.733a.263.263,0,0,1-.059.187.209.209,0,0,1-.162.077l-2.455-.037-.028,0" transform="translate(-78.585 -35.464)" fill="#1b29af"/>
    <path id="Trazado_1279180" data-name="Trazado 1279180" d="M237.811,141.9a4.466,4.466,0,0,1,1.2-.386c.6-.146,1.982-.421,2,.668a1.2,1.2,0,0,1-.486.944,2.211,2.211,0,0,1-.949.373,3.822,3.822,0,0,1-1.351.049,1.164,1.164,0,0,1-.636-.278.927.927,0,0,1,.195-1.351l.029-.019m10.208,1.09a4.349,4.349,0,0,0-.958-.684c-.494-.3-1.637-.943-1.9,0a1.159,1.159,0,0,0,.208.966,2.187,2.187,0,0,0,.744.6,3.593,3.593,0,0,0,1.171.434,1.01,1.01,0,0,0,.62-.059.848.848,0,0,0,.141-1.239c-.007-.008-.014-.017-.021-.024" transform="translate(-76.768 -34.188)" fill="#1b29af"/>
    <path id="Trazado_1279181" data-name="Trazado 1279181" d="M239.87,149.65a.776.776,0,0,1-.858.718.839.839,0,0,1-.641-.961.776.776,0,0,1,.858-.718.839.839,0,0,1,.641.961m6.988-.3a.776.776,0,0,0-.858.718.839.839,0,0,0,.641.961.775.775,0,0,0,.857-.718.838.838,0,0,0-.641-.961" transform="translate(-77.089 -35.954)" fill="#1b29af"/>
    <path id="Trazado_1279182" data-name="Trazado 1279182" d="M243.869,129.823c.617-1.387-.693-3.612-1.969-4.214a6.887,6.887,0,0,0-4.093-.161l-4.683.773a11.284,11.284,0,0,0-3.964,1.171,8.578,8.578,0,0,0-3.356,4.171,21.439,21.439,0,0,0-1.317,5.5,19.655,19.655,0,0,0-.179,4.431,1.823,1.823,0,0,1,1.47.9,9.713,9.713,0,0,1,.992,2.4c2.623-.246,2.288-4.154,2.482-6.135.3-3.03,1.819-6.053,4.375-7.094a2.449,2.449,0,0,1,2.371.68,8.9,8.9,0,0,0,2.1,1.6,3.192,3.192,0,0,0,2.386-.087,8.323,8.323,0,0,0,2.345-1.167c1.886,1.7,2.032,3.439,1.928,5.878-.028.656-.05,1.31-.072,1.962q.319-1,.636-2c.143-.45.286-.9.39-1.366a8.3,8.3,0,0,0-1.843-7.241" transform="translate(-72.523 -30.28)" fill="#1b29af"/>
    <path id="Trazado_1279183" data-name="Trazado 1279183" d="M225.381,152.231a.158.158,0,0,1-.085-.044,2.737,2.737,0,0,0-1.767-.8.185.185,0,0,1,0-.368,2.924,2.924,0,0,1,1.713.653,2.165,2.165,0,0,0-1.344-1.848.188.188,0,0,1-.112-.227.161.161,0,0,1,.2-.125,2.545,2.545,0,0,1,1.582,2.6.183.183,0,0,1-.1.154.15.15,0,0,1-.085.011" transform="translate(-72.238 -36.143)" fill="#1b29af"/>
    <path id="Trazado_1279184" data-name="Trazado 1279184" d="M205.516,189.589a74.464,74.464,0,0,1,3.172,17.718c.808,9.748,6.134,12.727,13.669,15.693l-7.8,8.055-18.159-6.24,9.114-35.226" transform="translate(-63.518 -45.846)" fill="#e5b75c"/>
    <path id="Trazado_1279185" data-name="Trazado 1279185" d="M232.714,172.755l-1.943,6.109-12.905-10.61,3.3-3.2Z" transform="translate(-70.46 -39.914)" fill="#eaece9"/>
    <path id="Trazado_1279186" data-name="Trazado 1279186" d="M240.488,172.33l4.4,4.692,1.82-9.164-2.428-1.553Z" transform="translate(-77.776 -40.216)" fill="#eaece9"/>
    <path id="Trazado_1279187" data-name="Trazado 1279187" d="M253.657,186.644a74.464,74.464,0,0,0-3.172,17.718c-.808,9.748-6.134,12.727-13.669,15.693l7.8,8.055,18.159-6.24-9.114-35.226" transform="translate(-76.588 -45.134)" fill="#e5b75c"/>
    <path id="Trazado_1279188" data-name="Trazado 1279188" d="M205.664,210.17h38.673a3.28,3.28,0,0,1,3.078,3.45v28.6a3.28,3.28,0,0,1-3.078,3.45H205.664a3.28,3.28,0,0,1-3.078-3.45v-28.6a3.28,3.28,0,0,1,3.078-3.45" transform="translate(-65.518 -50.823)" fill="#9ab4ef"/>
    <path id="Trazado_1279189" data-name="Trazado 1279189" d="M203.331,258.663h43.338a.841.841,0,0,0,0-1.671H203.331a.841.841,0,0,0,0,1.671" transform="translate(-65.518 -62.146)" fill="#746980"/>
    <path id="Trazado_1279190" data-name="Trazado 1279190" d="M213.219,257.9a.32.32,0,1,0,.318-.356.339.339,0,0,0-.318.356" transform="translate(-68.957 -62.279)" fill="#9e8fae"/>
    <rect id="Rectángulo_462673" data-name="Rectángulo 462673" width="2.564" height="0.712" transform="translate(145.665 195.262)" fill="#9e8fae"/>
  </g>
</svg>
