<svg xmlns="http://www.w3.org/2000/svg" xmlns:xlink="http://www.w3.org/1999/xlink" width="130" height="130" viewBox="0 0 130 130">
  <defs>
    <clipPath id="clip-path">
      <rect id="Rectángulo_454829" data-name="Rectángulo 454829" width="130" height="130" fill="#1e535a"/>
    </clipPath>
    <clipPath id="clip-path-2">
      <rect id="Rectángulo_463095" data-name="Rectángulo 463095" width="46.615" height="46.667" fill="#1e535a"/>
    </clipPath>
  </defs>
  <g id="Grupo_1212508" data-name="Grupo 1212508" transform="translate(-186 -4323.945)">
    <g id="Grupo_1177591" data-name="Grupo 1177591" transform="translate(186 4323.945)">
      <g id="Grupo_1177589" data-name="Grupo 1177589" transform="translate(0 0)">
        <g id="Grupo_1177587" data-name="Grupo 1177587" clip-path="url(#clip-path)">
          <path id="Trazado_997422" data-name="Trazado 997422" d="M124.692,57.54a59.768,59.768,0,0,0-13.5-31.1,6.874,6.874,0,0,0-9.672-9.26,59.68,59.68,0,0,0-30.9-12.073,6.875,6.875,0,0,0-13.353.271A59.762,59.762,0,0,0,27.622,18.05a6.877,6.877,0,0,0-9.545,9.61A59.712,59.712,0,0,0,5.568,57.481,6.88,6.88,0,0,0,5.4,70.954,59.7,59.7,0,0,0,17.522,101.38a6.876,6.876,0,0,0,9.342,9.709,59.757,59.757,0,0,0,30.35,13.274,6.877,6.877,0,0,0,13.473.271,59.706,59.706,0,0,0,31.125-12.3,6.875,6.875,0,0,0,9.624-9.308,59.783,59.783,0,0,0,13.418-32.141,6.877,6.877,0,0,0-.161-13.35M105.274,29.825a6.838,6.838,0,0,0,3.808-1.153,56.758,56.758,0,0,1,12.526,28.85,6.887,6.887,0,0,0-4.395,3.184L99.637,54.116c.014-.192.027-.388.027-.587a6.877,6.877,0,0,0-2.913-5.62L104.44,29.77a7.449,7.449,0,0,0,.834.055m-3.716-1.094L93.917,46.749a6.806,6.806,0,0,0-7.575,4.374L54.544,43.8A6.691,6.691,0,0,0,54.4,42.43L99.523,26.716a6.9,6.9,0,0,0,2.035,2.014M63.979,13.765a6.883,6.883,0,0,0,6.755-5.582A56.663,56.663,0,0,1,99.386,19.388a6.844,6.844,0,0,0-.995,3.554,7.226,7.226,0,0,0,.065.909L53.107,39.641A6.9,6.9,0,0,0,51.861,38.4L63.756,13.754c.075,0,.148.01.223.01M57.286,8.454a6.884,6.884,0,0,0,3.462,4.5L49.086,37.109a6.9,6.9,0,0,0-1.42-.148,6.832,6.832,0,0,0-3.922,1.232L29.921,26.648a6.842,6.842,0,0,0-.233-6.333,56.709,56.709,0,0,1,27.6-11.861M13.6,62.741l28.59-14.746a6.857,6.857,0,0,0,5.424,2.728l9.8,31.321a7,7,0,0,0-1.516,1.678L13.511,66.062a6.836,6.836,0,0,0,.254-1.825,6.916,6.916,0,0,0-.168-1.5m6.752-33.029a6.877,6.877,0,0,0,7.682-.655l13.648,11.4a6.863,6.863,0,0,0-.758,4.755L12.283,59.976a6.88,6.88,0,0,0-3.644-2.388,56.684,56.684,0,0,1,11.71-27.876M23.2,98.391a6.862,6.862,0,0,0-3.417.913,56.633,56.633,0,0,1-11.3-28.38,6.888,6.888,0,0,0,3.572-2.155L54.857,86.6a7.38,7.38,0,0,0-.055.827,6.881,6.881,0,0,0,.412,2.326l-25.886,12.4A6.881,6.881,0,0,0,23.2,98.391M57.347,121.3A56.765,56.765,0,0,1,29.029,108.91a6.81,6.81,0,0,0,1.05-3.637l0-.079,26.8-12.845a6.882,6.882,0,0,0,2.429,1.534l1.606,23.08a6.882,6.882,0,0,0-3.565,4.337M60.2,80.715,50.609,50.057a6.892,6.892,0,0,0,3.27-3.27l32.055,7.38A6.842,6.842,0,0,0,87.028,57.3L65.043,81.426a6.8,6.8,0,0,0-4.844-.71M70.68,121.567a6.88,6.88,0,0,0-6.7-5.332l-.051,0L62.4,94.278a6.87,6.87,0,0,0,4.206-2.041l32.048,14.135c0,.062-.01.117-.01.178a6.848,6.848,0,0,0,1.019,3.589A56.66,56.66,0,0,1,70.68,121.567m28.747-18.2L68.213,89.6a6.842,6.842,0,0,0-.9-6.121l21.92-24.061a6.841,6.841,0,0,0,3.551.995,7.576,7.576,0,0,0,.844-.055l8.193,40.4a6.867,6.867,0,0,0-2.391,2.611M109.3,100.8a6.84,6.84,0,0,0-4.573-1.081L96.532,59.3A6.91,6.91,0,0,0,98.7,57.032l17.566,6.587a6.1,6.1,0,0,0-.031.618,6.88,6.88,0,0,0,5.531,6.745A56.707,56.707,0,0,1,109.3,100.8" transform="translate(0 0.001)" fill="#1e535a"/>
        </g>
      </g>
    </g>
    <g id="Elipse_13614" data-name="Elipse 13614" transform="translate(210.273 4348.213)" fill="#fff" stroke="#1e535a" stroke-width="3">
      <ellipse cx="40.732" cy="40.733" rx="40.732" ry="40.733" stroke="none"/>
      <ellipse cx="40.732" cy="40.733" rx="39.232" ry="39.233" fill="none"/>
    </g>
    <g id="Grupo_1213353" data-name="Grupo 1213353" transform="translate(227.697 4365.612)">
      <g id="Grupo_1213352" data-name="Grupo 1213352" clip-path="url(#clip-path-2)">
        <path id="Trazado_1279934" data-name="Trazado 1279934" d="M79.918,40.785l-7.252.076L63.682,46.48a1.308,1.308,0,0,1-1.194.079,1.233,1.233,0,0,1-.633-.924l0-4.792-3.892-.027a5.638,5.638,0,0,1-5.421-5.51l0-20.309a5.871,5.871,0,0,1,6.946-5.6l.043-2.6A3.5,3.5,0,0,1,60.61,0a3.5,3.5,0,0,1,1.244,6.8l.01,2.551,13.986,0V6.8a3.491,3.491,0,1,1,2.337,0l.038,2.608c3.314-.535,6.876,1.776,6.879,5.312l.016,20.731a5.608,5.608,0,0,1-5.2,5.333m-15.712-20.8A1.149,1.149,0,0,0,65.53,21a1.183,1.183,0,0,0,.978-1.3,3.5,3.5,0,0,0-6.989.1,1.162,1.162,0,0,0,2.321.122A1.145,1.145,0,0,1,63.012,18.7a1.185,1.185,0,0,1,1.194,1.282m12.736,1.027a1.187,1.187,0,0,0,1.193-.877,3.433,3.433,0,0,0-3.243-3.775,3.492,3.492,0,0,0-3.7,3.431,1.144,1.144,0,0,0,1.181,1.219A1.194,1.194,0,0,0,73.5,19.928,1.151,1.151,0,0,1,74.656,18.7c1.693-.033.679,2.191,2.286,2.313m.6,9.778a1.136,1.136,0,0,0,.463-1.624,1.242,1.242,0,0,0-1.75-.335,18.691,18.691,0,0,1-15.02-.093,1.166,1.166,0,0,0-1.635.6,1.2,1.2,0,0,0,.708,1.54,20.721,20.721,0,0,0,17.234-.091" transform="translate(-45.509 0)" fill="#1e535a"/>
        <path id="Trazado_1279935" data-name="Trazado 1279935" d="M4.668,151.377c-2.307.49-4.588-1.13-4.61-3.011L0,143.394a3.46,3.46,0,0,1,2.878-3.573,12.126,12.126,0,0,1,1.789-.059Z" transform="translate(0 -121.063)" fill="#1e535a"/>
        <path id="Trazado_1279936" data-name="Trazado 1279936" d="M318.582,148.561a3.241,3.241,0,0,1-2.473,2.713,7.029,7.029,0,0,1-2.068.123l0-11.636a10.391,10.391,0,0,1,1.8.056,3.227,3.227,0,0,1,2.741,2.774c.088,2,.084,3.879,0,5.969" transform="translate(-272.032 -121.055)" fill="#1e535a"/>
      </g>
    </g>
  </g>
</svg>
