<svg xmlns="http://www.w3.org/2000/svg" xmlns:xlink="http://www.w3.org/1999/xlink" width="96" height="96" viewBox="0 0 96 96">
  <defs>
    <clipPath id="clip-path">
      <rect id="Rectángulo_454829" data-name="Rectángulo 454829" width="96" height="96" fill="#1e535a"/>
    </clipPath>
    <clipPath id="clip-path-2">
      <rect id="Rectángulo_463132" data-name="Rectángulo 463132" width="36.019" height="34.451" fill="#1e535a"/>
    </clipPath>
  </defs>
  <g id="Grupo_1212593" data-name="Grupo 1212593" transform="translate(-1481 -8562.5)">
    <g id="Grupo_1177591" data-name="Grupo 1177591" transform="translate(1481 8562.5)">
      <g id="Grupo_1177589" data-name="Grupo 1177589" transform="translate(0 0)">
        <g id="Grupo_1177587" data-name="Grupo 1177587" clip-path="url(#clip-path)">
          <path id="Trazado_997422" data-name="Trazado 997422" d="M92.081,42.491a44.136,44.136,0,0,0-9.97-22.967,5.076,5.076,0,0,0-7.142-6.838A44.071,44.071,0,0,0,52.151,3.77a5.077,5.077,0,0,0-9.861.2A44.132,44.132,0,0,0,20.4,13.329a5.079,5.079,0,0,0-7.048,7.1A44.1,44.1,0,0,0,4.112,42.448,5.08,5.08,0,0,0,3.99,52.4a44.082,44.082,0,0,0,8.949,22.468,5.078,5.078,0,0,0,6.9,7.17,44.128,44.128,0,0,0,22.412,9.8,5.078,5.078,0,0,0,9.949.2,44.091,44.091,0,0,0,22.985-9.08,5.077,5.077,0,0,0,7.107-6.874A44.147,44.147,0,0,0,92.2,52.349a5.078,5.078,0,0,0-.119-9.858M77.74,22.024a5.05,5.05,0,0,0,2.812-.851,41.913,41.913,0,0,1,9.25,21.3,5.086,5.086,0,0,0-3.246,2.351l-12.98-4.867c.01-.142.02-.286.02-.433a5.079,5.079,0,0,0-2.151-4.15l5.678-13.4a5.5,5.5,0,0,0,.616.041M75,21.216,69.354,34.523a5.026,5.026,0,0,0-5.594,3.23L40.279,32.344a4.941,4.941,0,0,0-.106-1.011l33.322-11.6A5.1,5.1,0,0,0,75,21.216M47.246,10.165a5.083,5.083,0,0,0,4.989-4.122,41.844,41.844,0,0,1,21.158,8.275,5.054,5.054,0,0,0-.735,2.625,5.335,5.335,0,0,0,.048.671L39.217,29.273a5.1,5.1,0,0,0-.92-.92l8.784-18.2c.056,0,.109.008.165.008M42.3,6.243A5.083,5.083,0,0,0,44.86,9.569L36.248,27.4a5.1,5.1,0,0,0-1.049-.109,5.045,5.045,0,0,0-2.9.91L22.1,19.678A5.052,5.052,0,0,0,21.923,15,41.877,41.877,0,0,1,42.3,6.243M10.041,46.332,31.153,35.442a5.064,5.064,0,0,0,4.006,2.014l7.236,23.129a5.166,5.166,0,0,0-1.12,1.239l-31.3-13.04a5.048,5.048,0,0,0,.187-1.348,5.107,5.107,0,0,0-.124-1.1m4.986-24.391a5.079,5.079,0,0,0,5.673-.484l10.079,8.417a5.068,5.068,0,0,0-.56,3.512L9.07,44.29A5.081,5.081,0,0,0,6.38,42.526a41.859,41.859,0,0,1,8.647-20.585m2.1,50.717a5.067,5.067,0,0,0-2.523.674A41.822,41.822,0,0,1,6.263,52.374,5.087,5.087,0,0,0,8.9,50.783l31.609,13.17a5.45,5.45,0,0,0-.041.611,5.081,5.081,0,0,0,.3,1.718L21.657,75.44a5.081,5.081,0,0,0-4.528-2.782M42.349,89.575a41.919,41.919,0,0,1-20.912-9.149,5.029,5.029,0,0,0,.775-2.686l0-.058L42,68.2A5.082,5.082,0,0,0,43.8,69.329l1.186,17.043a5.082,5.082,0,0,0-2.632,3.2m2.105-29.97-7.081-22.64a5.089,5.089,0,0,0,2.415-2.415L63.459,40a5.052,5.052,0,0,0,.808,2.311L48.032,60.13a5.019,5.019,0,0,0-3.577-.524m7.74,30.167a5.081,5.081,0,0,0-4.948-3.937l-.038,0L46.081,69.62a5.073,5.073,0,0,0,3.106-1.507L72.853,78.551c0,.046-.008.086-.008.132a5.057,5.057,0,0,0,.752,2.65,41.841,41.841,0,0,1-21.4,8.439M73.423,76.334,50.373,66.165a5.052,5.052,0,0,0-.666-4.52L65.893,43.877a5.052,5.052,0,0,0,2.622.735,5.594,5.594,0,0,0,.623-.041l6.05,29.836a5.071,5.071,0,0,0-1.766,1.928m7.292-1.9a5.051,5.051,0,0,0-3.377-.8L71.285,43.788a5.1,5.1,0,0,0,1.6-1.672L85.858,46.98a4.506,4.506,0,0,0-.023.456,5.08,5.08,0,0,0,4.084,4.981,41.876,41.876,0,0,1-9.2,22.017" transform="translate(0 0.001)" fill="#1e535a"/>
        </g>
      </g>
    </g>
    <g id="Elipse_13614" data-name="Elipse 13614" transform="translate(1497.965 8578.952)" fill="#d5f4f8" stroke="#1e535a" stroke-width="3">
      <ellipse cx="31.232" cy="31.233" rx="31.232" ry="31.233" stroke="none"/>
      <ellipse cx="31.232" cy="31.233" rx="29.732" ry="29.733" fill="none"/>
    </g>
    <g id="Grupo_1213422" data-name="Grupo 1213422" transform="translate(1510.965 8592.952)">
      <g id="Grupo_1213421" data-name="Grupo 1213421" clip-path="url(#clip-path-2)">
        <path id="Trazado_1280151" data-name="Trazado 1280151" d="M176.552,21.658a2.073,2.073,0,0,0-.53,1.7l-8.621,0a.5.5,0,0,1-.5-.51V4.1l2.856-.016A1.378,1.378,0,0,0,171,2.735L171,0h13.421c.205,0,.5.221.5.421l0,22.071a4.8,4.8,0,0,1-.391-.6,4.084,4.084,0,0,0-7.962-1.257,2.683,2.683,0,0,0-.017,1.021m3.752-5.217a6.481,6.481,0,1,0-8.792-.005,4.547,4.547,0,0,1,8.792.005" transform="translate(-148.905 0.001)" fill="#1e535a"/>
        <path id="Trazado_1280152" data-name="Trazado 1280152" d="M268.853,208.675l0,5.348-6.525,0,0-5.348Zm-3.943,3.876c.154.145.613.02.778-.133l1.418-1.312a.629.629,0,0,0,.053-.868.649.649,0,0,0-.829-.009l-1.116.994a1,1,0,0,0-.738-.4.683.683,0,0,0-.487.477,1,1,0,0,0,.284.658Z" transform="translate(-234.04 -186.174)" fill="#1e535a"/>
        <path id="Trazado_1280153" data-name="Trazado 1280153" d="M59.237,206.567a1.36,1.36,0,1,0-2.706.123l.021,1.943a.7.7,0,0,1-.476.548c-.267.06-.691-.114-.692-.434l-.01-2.387a2.461,2.461,0,0,1,2.54-2.4,2.547,2.547,0,0,1,2.492,2.47,21.476,21.476,0,0,1-.664,6.659.64.64,0,0,1-.708.363.657.657,0,0,1-.408-.718,21.486,21.486,0,0,0,.612-6.17" transform="translate(-49.403 -181.97)" fill="#1e535a"/>
        <path id="Trazado_1280154" data-name="Trazado 1280154" d="M59.084,64.483l-3.206,7.68c-.106.253-.578.312-.761.22a.638.638,0,0,1-.271-.808l3.3-7.914a.768.768,0,0,1,.6-.356l4.875.007a.689.689,0,0,1,.54.486.652.652,0,0,1-.44.694Z" transform="translate(-48.887 -56.479)" fill="#1e535a"/>
        <path id="Trazado_1280155" data-name="Trazado 1280155" d="M50.354,195.036c-1.057.015-.35-1.726-.675-3.941a3.111,3.111,0,0,0-5.808-.88.628.628,0,0,1-.793.231.607.607,0,0,1-.225-.827,4.309,4.309,0,0,1,8.087,2.052l-.016,2.8a.64.64,0,0,1-.571.561" transform="translate(-38.163 -167.172)" fill="#1e535a"/>
        <path id="Trazado_1280156" data-name="Trazado 1280156" d="M28.983,231.723a.634.634,0,0,1-.716.27c-.188-.069-.48-.43-.382-.662a14.228,14.228,0,0,0,1.134-6.649.64.64,0,0,1,.583-.664.615.615,0,0,1,.611.667,15.239,15.239,0,0,1-1.231,7.037" transform="translate(-24.861 -199.862)" fill="#1e535a"/>
        <path id="Trazado_1280157" data-name="Trazado 1280157" d="M96.269,179.6a.595.595,0,1,1-1.161.255,4.965,4.965,0,0,0-3.145-4.32.65.65,0,0,1-.33-.737.6.6,0,0,1,.772-.353,6.1,6.1,0,0,1,3.862,5.155" transform="translate(-81.735 -155.601)" fill="#1e535a"/>
        <path id="Trazado_1280158" data-name="Trazado 1280158" d="M271.311,175.7a1.738,1.738,0,0,0-1.415-1.859,1.766,1.766,0,0,0-1.975,1.194.637.637,0,0,1-.714.32.62.62,0,0,1-.366-.762,2.9,2.9,0,0,1,5.642,1.1Z" transform="translate(-238.04 -154.012)" fill="#1e535a"/>
        <path id="Trazado_1280159" data-name="Trazado 1280159" d="M68.525,228.759a.637.637,0,0,1-.706.377.647.647,0,0,1-.407-.781,18.7,18.7,0,0,0,.584-6.01c-.013-.256.35-.522.552-.529a.625.625,0,0,1,.627.568,19.265,19.265,0,0,1-.65,6.375" transform="translate(-60.122 -197.897)" fill="#1e535a"/>
        <path id="Trazado_1280160" data-name="Trazado 1280160" d="M32.2,172.274A4.914,4.914,0,0,0,28.06,175.1a.628.628,0,0,1-.835.28.641.641,0,0,1-.231-.8,6.04,6.04,0,0,1,5.182-3.465.636.636,0,0,1,.569.5.612.612,0,0,1-.55.661" transform="translate(-24.031 -152.661)" fill="#1e535a"/>
        <path id="Trazado_1280161" data-name="Trazado 1280161" d="M1.186,161.5l0,2.278a.634.634,0,0,1-.527.554.63.63,0,0,1-.644-.519L0,160.89a.678.678,0,0,1,.58-.579l2.711.01a.684.684,0,0,1,.561.578.637.637,0,0,1-.657.607Z" transform="translate(-0.004 -143.025)" fill="#1e535a"/>
        <path id="Trazado_1280162" data-name="Trazado 1280162" d="M115.53,286.211a.636.636,0,0,1-.63-.525.6.6,0,0,1,.5-.651l2.153-.016-.007-2.2a.71.71,0,0,1,.506-.622c.2-.052.659.185.66.428l.02,3.038a.637.637,0,0,1-.517.542Z" transform="translate(-102.508 -251.76)" fill="#1e535a"/>
        <path id="Trazado_1280163" data-name="Trazado 1280163" d="M118.7,163.81c0,.343-.43.553-.682.5a.658.658,0,0,1-.5-.661l.008-2.158-2.183,0c-.238,0-.489-.381-.476-.6a.626.626,0,0,1,.607-.586l2.6-.006c.194,0,.619.232.619.418Z" transform="translate(-102.479 -143.017)" fill="#1e535a"/>
        <path id="Trazado_1280164" data-name="Trazado 1280164" d="M3.307,286.282l-2.733.01A.638.638,0,0,1,0,285.767l0-2.888a.645.645,0,0,1,.543-.6.6.6,0,0,1,.639.63v2.2H3.292a.656.656,0,0,1,.562.564.644.644,0,0,1-.548.61" transform="translate(0 -251.84)" fill="#1e535a"/>
        <path id="Trazado_1280165" data-name="Trazado 1280165" d="M16.7,231.066a.64.64,0,0,1-.765.467.63.63,0,0,1-.358-.877,12.526,12.526,0,0,0,.669-4.919.623.623,0,0,1,.519-.654.6.6,0,0,1,.663.57,14.191,14.191,0,0,1-.728,5.413" transform="translate(-13.847 -200.808)" fill="#1e535a"/>
        <path id="Trazado_1280166" data-name="Trazado 1280166" d="M118.546,248.127a.615.615,0,0,1-.74.423.625.625,0,0,1-.392-.737,27.48,27.48,0,0,0,.727-4.976.592.592,0,0,1,.6-.526.607.607,0,0,1,.564.635,26.053,26.053,0,0,1-.762,5.181" transform="translate(-104.738 -216.182)" fill="#1e535a"/>
        <path id="Trazado_1280167" data-name="Trazado 1280167" d="M47.773,263.092a.654.654,0,0,1-.735.348.635.635,0,0,1-.376-.71c.284-.941.512-1.783.714-2.744a.589.589,0,1,1,1.164.184,23.737,23.737,0,0,1-.767,2.922" transform="translate(-41.614 -231.508)" fill="#1e535a"/>
        <path id="Trazado_1280168" data-name="Trazado 1280168" d="M170.007,3.274l-2.909.018L169.97.417Z" transform="translate(-149.079 -0.372)" fill="#1e535a"/>
        <path id="Trazado_1280169" data-name="Trazado 1280169" d="M103.016,268.1a.666.666,0,0,1-.7.44.632.632,0,0,1-.452-.724l.4-2a.674.674,0,0,1,.655-.408c.222.037.544.356.5.6Z" transform="translate(-90.872 -236.789)" fill="#1e535a"/>
        <path id="Trazado_1280170" data-name="Trazado 1280170" d="M233.793,73.963a2.288,2.288,0,1,1-2.288-2.288,2.288,2.288,0,0,1,2.288,2.288" transform="translate(-204.5 -63.946)" fill="#1e535a"/>
      </g>
    </g>
  </g>
</svg>
