<svg xmlns="http://www.w3.org/2000/svg" xmlns:xlink="http://www.w3.org/1999/xlink" width="96" height="96" viewBox="0 0 96 96">
  <defs>
    <clipPath id="clip-path">
      <rect id="Rectángulo_454829" data-name="Rectángulo 454829" width="96" height="96" fill="#1e535a"/>
    </clipPath>
    <clipPath id="clip-path-2">
      <rect id="Rectángulo_463127" data-name="Rectángulo 463127" width="39.211" height="39.162" fill="#1e535a"/>
    </clipPath>
  </defs>
  <g id="Grupo_1212596" data-name="Grupo 1212596" transform="translate(-1481 -8562.5)">
    <g id="Grupo_1177591" data-name="Grupo 1177591" transform="translate(1481 8562.5)">
      <g id="Grupo_1177589" data-name="Grupo 1177589" transform="translate(0 0)">
        <g id="Grupo_1177587" data-name="Grupo 1177587" clip-path="url(#clip-path)">
          <path id="Trazado_997422" data-name="Trazado 997422" d="M92.081,42.491a44.136,44.136,0,0,0-9.97-22.967,5.076,5.076,0,0,0-7.142-6.838A44.071,44.071,0,0,0,52.151,3.77a5.077,5.077,0,0,0-9.861.2A44.132,44.132,0,0,0,20.4,13.329a5.079,5.079,0,0,0-7.048,7.1A44.1,44.1,0,0,0,4.112,42.448,5.08,5.08,0,0,0,3.99,52.4a44.082,44.082,0,0,0,8.949,22.468,5.078,5.078,0,0,0,6.9,7.17,44.128,44.128,0,0,0,22.412,9.8,5.078,5.078,0,0,0,9.949.2,44.091,44.091,0,0,0,22.985-9.08,5.077,5.077,0,0,0,7.107-6.874A44.147,44.147,0,0,0,92.2,52.349a5.078,5.078,0,0,0-.119-9.858M77.74,22.024a5.05,5.05,0,0,0,2.812-.851,41.913,41.913,0,0,1,9.25,21.3,5.086,5.086,0,0,0-3.246,2.351l-12.98-4.867c.01-.142.02-.286.02-.433a5.079,5.079,0,0,0-2.151-4.15l5.678-13.4a5.5,5.5,0,0,0,.616.041M75,21.216,69.354,34.523a5.026,5.026,0,0,0-5.594,3.23L40.279,32.344a4.941,4.941,0,0,0-.106-1.011l33.322-11.6A5.1,5.1,0,0,0,75,21.216M47.246,10.165a5.083,5.083,0,0,0,4.989-4.122,41.844,41.844,0,0,1,21.158,8.275,5.054,5.054,0,0,0-.735,2.625,5.335,5.335,0,0,0,.048.671L39.217,29.273a5.1,5.1,0,0,0-.92-.92l8.784-18.2c.056,0,.109.008.165.008M42.3,6.243A5.083,5.083,0,0,0,44.86,9.569L36.248,27.4a5.1,5.1,0,0,0-1.049-.109,5.045,5.045,0,0,0-2.9.91L22.1,19.678A5.052,5.052,0,0,0,21.923,15,41.877,41.877,0,0,1,42.3,6.243M10.041,46.332,31.153,35.442a5.064,5.064,0,0,0,4.006,2.014l7.236,23.129a5.166,5.166,0,0,0-1.12,1.239l-31.3-13.04a5.048,5.048,0,0,0,.187-1.348,5.107,5.107,0,0,0-.124-1.1m4.986-24.391a5.079,5.079,0,0,0,5.673-.484l10.079,8.417a5.068,5.068,0,0,0-.56,3.512L9.07,44.29A5.081,5.081,0,0,0,6.38,42.526a41.859,41.859,0,0,1,8.647-20.585m2.1,50.717a5.067,5.067,0,0,0-2.523.674A41.822,41.822,0,0,1,6.263,52.374,5.087,5.087,0,0,0,8.9,50.783l31.609,13.17a5.45,5.45,0,0,0-.041.611,5.081,5.081,0,0,0,.3,1.718L21.657,75.44a5.081,5.081,0,0,0-4.528-2.782M42.349,89.575a41.919,41.919,0,0,1-20.912-9.149,5.029,5.029,0,0,0,.775-2.686l0-.058L42,68.2A5.082,5.082,0,0,0,43.8,69.329l1.186,17.043a5.082,5.082,0,0,0-2.632,3.2m2.105-29.97-7.081-22.64a5.089,5.089,0,0,0,2.415-2.415L63.459,40a5.052,5.052,0,0,0,.808,2.311L48.032,60.13a5.019,5.019,0,0,0-3.577-.524m7.74,30.167a5.081,5.081,0,0,0-4.948-3.937l-.038,0L46.081,69.62a5.073,5.073,0,0,0,3.106-1.507L72.853,78.551c0,.046-.008.086-.008.132a5.057,5.057,0,0,0,.752,2.65,41.841,41.841,0,0,1-21.4,8.439M73.423,76.334,50.373,66.165a5.052,5.052,0,0,0-.666-4.52L65.893,43.877a5.052,5.052,0,0,0,2.622.735,5.594,5.594,0,0,0,.623-.041l6.05,29.836a5.071,5.071,0,0,0-1.766,1.928m7.292-1.9a5.051,5.051,0,0,0-3.377-.8L71.285,43.788a5.1,5.1,0,0,0,1.6-1.672L85.858,46.98a4.506,4.506,0,0,0-.023.456,5.08,5.08,0,0,0,4.084,4.981,41.876,41.876,0,0,1-9.2,22.017" transform="translate(0 0.001)" fill="#1e535a"/>
        </g>
      </g>
    </g>
    <g id="Elipse_13614" data-name="Elipse 13614" transform="translate(1497.965 8578.952)" fill="#d5f4f8" stroke="#1e535a" stroke-width="3">
      <ellipse cx="31.232" cy="31.233" rx="31.232" ry="31.233" stroke="none"/>
      <ellipse cx="31.232" cy="31.233" rx="29.732" ry="29.733" fill="none"/>
    </g>
    <g id="Grupo_1213416" data-name="Grupo 1213416" transform="translate(1509.965 8590.952)">
      <g id="Grupo_1213415" data-name="Grupo 1213415" clip-path="url(#clip-path-2)">
        <path id="Trazado_1280111" data-name="Trazado 1280111" d="M195.2,167.213a1.579,1.579,0,0,1-1.5.012,11.909,11.909,0,0,1-7.647-10.641l-.033-8.435a.724.724,0,0,1,.656-.7,36.982,36.982,0,0,0,7.048-1.491,1.718,1.718,0,0,1,1.387-.01,35.613,35.613,0,0,0,6.952,1.478c.406.057.766.273.765.725l-.024,8.312a11.811,11.811,0,0,1-7.6,10.751m6.211-10.754.01-6.343a1.675,1.675,0,0,0-1.526-1.593,35.681,35.681,0,0,1-4.818-1.088,2.165,2.165,0,0,0-1.029-.077,35.834,35.834,0,0,1-5.1,1.171,1.671,1.671,0,0,0-1.517,1.585l.011,6.318a10.459,10.459,0,0,0,6.164,9.212c2.235,1.021,7.8-3.662,7.808-9.184" transform="translate(-163.614 -128.246)" fill="#1e535a"/>
        <path id="Trazado_1280112" data-name="Trazado 1280112" d="M83.751,80.137l-8.428.006a48.29,48.29,0,0,1,.892-8.928,62,62,0,0,0,7.535.5Z" transform="translate(-66.252 -62.638)" fill="#1e535a"/>
        <path id="Trazado_1280113" data-name="Trazado 1280113" d="M162.942,80.145l-6.06-.007,0-8.4a67.238,67.238,0,0,0,7.537-.519,46.3,46.3,0,0,1,.878,8.463Z" transform="translate(-137.985 -62.637)" fill="#1e535a"/>
        <path id="Trazado_1280114" data-name="Trazado 1280114" d="M84.027,165.377a67.118,67.118,0,0,0-7.21.439,42.8,42.8,0,0,1-1.179-8.878l8.389,0Z" transform="translate(-66.529 -138.037)" fill="#1e535a"/>
        <path id="Trazado_1280115" data-name="Trazado 1280115" d="M8.911,166.01c-1.888.289-3.6.641-5.345,1.042A18.129,18.129,0,0,1,.012,156.935l7.7-.005a44.814,44.814,0,0,0,1.194,9.08" transform="translate(-0.011 -138.03)" fill="#1e535a"/>
        <path id="Trazado_1280116" data-name="Trazado 1280116" d="M7.707,71.516,0,71.525A18.151,18.151,0,0,1,3.55,61.416c1.677.384,3.3.712,5.03.985a44.338,44.338,0,0,0-.872,9.116" transform="translate(0 -54.019)" fill="#1e535a"/>
        <path id="Trazado_1280117" data-name="Trazado 1280117" d="M233.394,70.174l-1.562.515a44.481,44.481,0,0,0-.87-8.3c1.669-.282,3.3-.6,5.011-1.008a18.191,18.191,0,0,1,3.566,10.048,25.734,25.734,0,0,1-4.977-1.235,2.3,2.3,0,0,0-1.169-.019" transform="translate(-203.146 -53.989)" fill="#1e535a"/>
        <path id="Trazado_1280118" data-name="Trazado 1280118" d="M92.566,7.721c-2.448-.082-4.78-.2-7.225-.514A26.289,26.289,0,0,1,87.785.831,19.482,19.482,0,0,1,92.553,0Z" transform="translate(-75.063)" fill="#1e535a"/>
        <path id="Trazado_1280119" data-name="Trazado 1280119" d="M164.115,7.2a70.054,70.054,0,0,1-7.215.53V.01a19.647,19.647,0,0,1,4.772.828,25.8,25.8,0,0,1,2.443,6.36" transform="translate(-138.004 -0.009)" fill="#1e535a"/>
        <path id="Trazado_1280120" data-name="Trazado 1280120" d="M95.4,246.028a19.14,19.14,0,0,1-3.62-.505,20.023,20.023,0,0,1-3.211-6.742c2.355-.272,4.54-.373,6.832-.456Z" transform="translate(-77.903 -209.623)" fill="#1e535a"/>
        <path id="Trazado_1280121" data-name="Trazado 1280121" d="M161.51,245.378a20.6,20.6,0,0,1-4.628.813l0-7.7,2.15.065a13.164,13.164,0,0,0,2.483,6.818" transform="translate(-137.985 -209.772)" fill="#1e535a"/>
        <path id="Trazado_1280122" data-name="Trazado 1280122" d="M158.986,158.14v7.288l-2.1-.026,0-8.433,2.314-.01a4.468,4.468,0,0,0-.215,1.182" transform="translate(-137.993 -138.055)" fill="#1e535a"/>
        <path id="Trazado_1280123" data-name="Trazado 1280123" d="M44.822,249.414a17.5,17.5,0,0,1-7.1-4.934c1.56-.345,3.06-.626,4.706-.893a29.514,29.514,0,0,0,2.394,5.826" transform="translate(-33.179 -214.252)" fill="#1e535a"/>
        <path id="Trazado_1280124" data-name="Trazado 1280124" d="M219.374,18.026c-1.466.336-2.876.6-4.332.853a32.721,32.721,0,0,0-1.834-5.41,17.672,17.672,0,0,1,6.166,4.557" transform="translate(-187.531 -11.847)" fill="#1e535a"/>
        <path id="Trazado_1280125" data-name="Trazado 1280125" d="M42.2,19.084l-4.331-.858A17.075,17.075,0,0,1,44,13.693a33.938,33.938,0,0,0-1.8,5.391" transform="translate(-33.307 -12.044)" fill="#1e535a"/>
        <path id="Trazado_1280126" data-name="Trazado 1280126" d="M220.579,178.719a8.838,8.838,0,0,1-5.55,7.93,9.009,9.009,0,0,1-5.572-7.879l-.025-6.641,5.557-1.111c1.841.089,3.638,1.051,5.61,1.093Zm-7.46,2.294a.728.728,0,0,0,1.1-.1l3.5-4.211a.807.807,0,0,0-.119-.9c-.175-.152-.746-.23-.924-.017l-3.1,3.709a.748.748,0,0,0-1.12-.155.719.719,0,0,0,.022,1.049Z" transform="translate(-184.209 -150.422)" fill="#1e535a"/>
      </g>
    </g>
  </g>
</svg>
