<svg xmlns="http://www.w3.org/2000/svg" xmlns:xlink="http://www.w3.org/1999/xlink" width="286.378" height="206.113" viewBox="0 0 286.378 206.113">
  <defs>
    <clipPath id="clip-path">
      <rect id="Rectángulo_462473" data-name="Rectángulo 462473" width="286.378" height="206.113" transform="translate(0 -39)" fill="none"/>
    </clipPath>
    <clipPath id="clip-path-2">
      <path id="Trazado_1278492" data-name="Trazado 1278492" d="M138.515,72.941A23.989,23.989,0,1,1,162.5,96.93a23.989,23.989,0,0,1-23.989-23.989m25.552-30.164c-.517-.025-1.039-.039-1.563-.039s-1.046.014-1.565.039L159.2,37.335a35.665,35.665,0,0,0-4.546.719l.02,5.714a30.031,30.031,0,0,0-2.976.968l-3.347-4.643a36.182,36.182,0,0,0-4.095,2.092l1.789,5.436a30.051,30.051,0,0,0-2.53,1.836L138.9,46.083a35.554,35.554,0,0,0-3.256,3.257l3.376,4.609a29.942,29.942,0,0,0-1.838,2.528l-5.436-1.789a35.543,35.543,0,0,0-2.092,4.1l4.641,3.345a29.736,29.736,0,0,0-.966,2.976l-5.714-.022a36.113,36.113,0,0,0-.719,4.546l5.441,1.745q-.041.778-.041,1.565c0,.526.014,1.046.041,1.565L126.9,76.249a36.091,36.091,0,0,0,.719,4.548l5.714-.022a30.022,30.022,0,0,0,.966,2.976L129.658,87.1a35.519,35.519,0,0,0,2.092,4.1l5.436-1.789a29.97,29.97,0,0,0,1.838,2.53l-3.376,4.61A35.733,35.733,0,0,0,138.9,99.8l4.609-3.374a30.435,30.435,0,0,0,2.53,1.836l-1.789,5.434a35.916,35.916,0,0,0,4.095,2.094l3.347-4.643a30.031,30.031,0,0,0,2.976.968l-.02,5.714a35.659,35.659,0,0,0,4.546.717l1.743-5.439c.519.027,1.039.041,1.565.041s1.046-.014,1.563-.041l1.746,5.439a35.729,35.729,0,0,0,4.544-.717l-.02-5.714a30.032,30.032,0,0,0,2.976-.968l3.344,4.643a35.686,35.686,0,0,0,4.1-2.094l-1.789-5.434a30.413,30.413,0,0,0,2.528-1.836l4.61,3.374a35.952,35.952,0,0,0,3.256-3.254l-3.376-4.61a30.355,30.355,0,0,0,1.838-2.53l5.434,1.789a35.8,35.8,0,0,0,2.094-4.1l-4.641-3.345a30.477,30.477,0,0,0,.966-2.976l5.714.022a35.784,35.784,0,0,0,.717-4.548l-5.439-1.743c.025-.519.041-1.039.041-1.565s-.015-1.046-.041-1.565l5.439-1.745a35.806,35.806,0,0,0-.717-4.546l-5.714.022a30.182,30.182,0,0,0-.966-2.976l4.641-3.345a35.552,35.552,0,0,0-2.094-4.1l-5.434,1.789a30.327,30.327,0,0,0-1.838-2.528l3.376-4.609a35.771,35.771,0,0,0-3.256-3.257l-4.61,3.376a30.03,30.03,0,0,0-2.528-1.836l1.789-5.436a35.948,35.948,0,0,0-4.1-2.092l-3.344,4.643a30.032,30.032,0,0,0-2.976-.968l.02-5.714a35.735,35.735,0,0,0-4.544-.719Z" transform="translate(-126.899 -37.335)" fill="#69d7e5"/>
    </clipPath>
    <clipPath id="clip-path-3">
      <path id="Trazado_1278493" data-name="Trazado 1278493" d="M13.142,69.823A23.99,23.99,0,1,1,37.131,93.814,23.989,23.989,0,0,1,13.142,69.823M38.7,39.657q-.776-.038-1.565-.039c-.522,0-1.044.014-1.563.039l-1.745-5.438a35.458,35.458,0,0,0-4.546.717L29.3,40.65a29.482,29.482,0,0,0-2.977.968l-3.344-4.643a35.684,35.684,0,0,0-4.1,2.094L20.668,44.5a30.307,30.307,0,0,0-2.528,1.836l-4.61-3.376a35.989,35.989,0,0,0-3.256,3.257l3.376,4.609a31.007,31.007,0,0,0-1.838,2.528L6.378,51.572a35.79,35.79,0,0,0-2.092,4.1l4.641,3.345a29.305,29.305,0,0,0-.966,2.976l-5.716-.022a35.854,35.854,0,0,0-.717,4.546l5.441,1.745q-.041.778-.041,1.565t.041,1.565L1.527,73.133a35.854,35.854,0,0,0,.717,4.546l5.716-.022a29.412,29.412,0,0,0,.966,2.974L4.286,83.978a35.651,35.651,0,0,0,2.092,4.1l5.434-1.787a31.007,31.007,0,0,0,1.838,2.528l-3.376,4.609a36.209,36.209,0,0,0,3.256,3.257l4.61-3.376a29.907,29.907,0,0,0,2.528,1.835l-1.789,5.436a35.683,35.683,0,0,0,4.1,2.094l3.344-4.643A29.48,29.48,0,0,0,29.3,99l-.022,5.712a35.166,35.166,0,0,0,4.546.719l1.745-5.439c.519.027,1.041.039,1.563.039s1.048-.012,1.565-.039l1.745,5.439a35.458,35.458,0,0,0,4.546-.717L44.966,99a29.7,29.7,0,0,0,2.974-.968l3.347,4.643a35.8,35.8,0,0,0,4.1-2.094L53.6,95.14a30.211,30.211,0,0,0,2.53-1.835l4.609,3.376a36.21,36.21,0,0,0,3.256-3.257l-3.376-4.609a30.59,30.59,0,0,0,1.836-2.528l5.436,1.787a35.381,35.381,0,0,0,2.092-4.1l-4.641-3.347a29.411,29.411,0,0,0,.966-2.974l5.714.022a35.856,35.856,0,0,0,.719-4.546L67.3,71.388c.027-.519.039-1.041.039-1.565s-.012-1.046-.039-1.565l5.439-1.745a36.161,36.161,0,0,0-.717-4.546l-5.716.022a29.3,29.3,0,0,0-.966-2.976l4.641-3.345a35.518,35.518,0,0,0-2.092-4.1l-5.436,1.787a30.59,30.59,0,0,0-1.836-2.528l3.376-4.609a35.99,35.99,0,0,0-3.256-3.257l-4.609,3.376A30.618,30.618,0,0,0,53.6,44.5l1.789-5.434a35.8,35.8,0,0,0-4.1-2.094L47.94,41.619a29.7,29.7,0,0,0-2.974-.968l.02-5.714a35.458,35.458,0,0,0-4.546-.717Z" transform="translate(-1.527 -34.219)" fill="#ffb851"/>
    </clipPath>
    <clipPath id="clip-path-4">
      <rect id="Rectángulo_462466" data-name="Rectángulo 462466" width="286.378" height="167.112" fill="none"/>
    </clipPath>
    <clipPath id="clip-path-5">
      <rect id="Rectángulo_462463" data-name="Rectángulo 462463" width="54.564" height="101.894" fill="none"/>
    </clipPath>
    <clipPath id="clip-path-6">
      <rect id="Rectángulo_462464" data-name="Rectángulo 462464" width="62.339" height="98.852" fill="none"/>
    </clipPath>
    <clipPath id="clip-path-7">
      <rect id="Rectángulo_462465" data-name="Rectángulo 462465" width="42.52" height="67.425" fill="none"/>
    </clipPath>
    <clipPath id="clip-path-8">
      <path id="Trazado_1278505" data-name="Trazado 1278505" d="M208.486,19.448a11.046,11.046,0,0,0,3.361,7.939l-49.065,67.7a5.579,5.579,0,0,0-5.338.792l-46.868-35.8a10.174,10.174,0,1,0-17.826.131L44.007,102.608A9.3,9.3,0,1,0,46.047,105L95.39,63.278a10.137,10.137,0,0,0,13.244-.665l46.868,35.8a5.763,5.763,0,1,0,9.9-1.424L214.43,29.261a11.078,11.078,0,1,0-5.945-9.812" transform="translate(-28.93 -8.366)" fill="#ffd453"/>
    </clipPath>
    <clipPath id="clip-path-10">
      <path id="Trazado_1278516" data-name="Trazado 1278516" d="M32.138,35.978a30.206,30.206,0,0,0,4.175,15.354C36.3,51.333,62.5,108.4,62.5,108.4l26.288-57.23A30.361,30.361,0,1,0,32.138,35.978" transform="translate(-32.138 -5.618)" fill="#ffd453"/>
    </clipPath>
    <clipPath id="clip-path-11">
      <path id="Trazado_1278517" data-name="Trazado 1278517" d="M36.59,30.034A19.964,19.964,0,1,0,56.554,10.07,19.964,19.964,0,0,0,36.59,30.034" transform="translate(-36.59 -10.07)" fill="#69d7e5"/>
    </clipPath>
    <clipPath id="clip-path-12">
      <rect id="Rectángulo_462472" data-name="Rectángulo 462472" width="286.378" height="208.112" transform="translate(0 -41)" fill="none"/>
    </clipPath>
    <clipPath id="clip-path-13">
      <rect id="Rectángulo_462471" data-name="Rectángulo 462471" width="11.743" height="12.015" fill="none"/>
    </clipPath>
  </defs>
  <g id="Grupo_1212381" data-name="Grupo 1212381" transform="translate(0 0.112)">
    <g id="Grupo_1212873" data-name="Grupo 1212873" transform="translate(0 38.888)">
      <g id="Grupo_1212872" data-name="Grupo 1212872" clip-path="url(#clip-path)">
        <g id="Grupo_1212845" data-name="Grupo 1212845" transform="translate(215.168 63.305)">
          <g id="Grupo_1212844" data-name="Grupo 1212844" clip-path="url(#clip-path-2)">
            <rect id="Rectángulo_462461" data-name="Rectángulo 462461" width="88.91" height="88.91" transform="translate(-19.9 6.081) rotate(-16.991)" fill="#69d7e5"/>
          </g>
        </g>
        <g id="Grupo_1212847" data-name="Grupo 1212847" transform="translate(5.328 -30.979)">
          <g id="Grupo_1212846" data-name="Grupo 1212846" clip-path="url(#clip-path-3)">
            <rect id="Rectángulo_462462" data-name="Rectángulo 462462" width="88.91" height="88.908" transform="translate(-19.9 6.081) rotate(-16.991)" fill="#ffb851"/>
          </g>
        </g>
        <g id="Grupo_1212858" data-name="Grupo 1212858" transform="translate(0 0.001)">
          <g id="Grupo_1212857" data-name="Grupo 1212857" clip-path="url(#clip-path-4)">
            <path id="Trazado_1278494" data-name="Trazado 1278494" d="M259.883,121.3a46.69,46.69,0,0,0,5.887-22.878c0-22.758-15.8-41.4-35.885-43.164a34.887,34.887,0,0,0,1.9-11.4c0-17.572-12.825-31.818-28.644-31.818-10.365,0-19.441,6.115-24.47,15.272-6.491-8-15.891-13.03-26.351-13.03-10.725,0-20.333,5.3-26.837,13.652C121.159,17.3,111.533,9.893,100.345,9.893c-12.168,0-22.488,8.757-26.152,20.9-.474-.034-.949-.056-1.43-.056-12.116,0-21.939,10.91-21.939,24.37a25.621,25.621,0,0,0,6.922,17.756c-10.359,3.195-18.4,12.588-20.66,24.362a25.865,25.865,0,0,0-8.621-1.481C12.744,95.747,0,109.905,0,127.368c0,16.014,10.718,29.237,24.619,31.324,2.914,14.8,14.775,25.883,28.972,25.883l202.831-2.9c15.071,0,27.289-13.57,27.289-30.311,0-15.44-10.392-28.173-23.828-30.062" transform="translate(0 -19.186)" fill="#fff7df"/>
            <g id="Grupo_1212850" data-name="Grupo 1212850" transform="translate(115.907 64.922)" opacity="0.29" style="mix-blend-mode: overlay;isolation: isolate">
              <g id="Grupo_1212849" data-name="Grupo 1212849">
                <g id="Grupo_1212848" data-name="Grupo 1212848" clip-path="url(#clip-path-5)">
                  <path id="Trazado_1278495" data-name="Trazado 1278495" d="M122.923,61.177,95.641,38.29,68.357,61.177H79.029v79.006h33.223V61.177Z" transform="translate(-68.358 -38.289)" fill="#fff"/>
                </g>
              </g>
            </g>
            <g id="Grupo_1212853" data-name="Grupo 1212853" transform="translate(34.988 64.089)" opacity="0.29" style="mix-blend-mode: overlay;isolation: isolate">
              <g id="Grupo_1212852" data-name="Grupo 1212852">
                <g id="Grupo_1212851" data-name="Grupo 1212851" clip-path="url(#clip-path-6)">
                  <path id="Trazado_1278496" data-name="Trazado 1278496" d="M82.974,69.523,51.8,37.8,20.634,69.523H32.825v67.127H70.783V69.523Z" transform="translate(-20.635 -37.798)" fill="#fff"/>
                </g>
              </g>
            </g>
            <g id="Grupo_1212856" data-name="Grupo 1212856" transform="translate(193.909 95.517)" opacity="0.29" style="mix-blend-mode: overlay;isolation: isolate">
              <g id="Grupo_1212855" data-name="Grupo 1212855">
                <g id="Grupo_1212854" data-name="Grupo 1212854" clip-path="url(#clip-path-7)">
                  <path id="Trazado_1278497" data-name="Trazado 1278497" d="M156.881,77.972,135.622,56.333,114.361,77.972h8.315v45.786h25.89V77.972Z" transform="translate(-114.361 -56.333)" fill="#fff"/>
                </g>
              </g>
            </g>
            <path id="Trazado_1278498" data-name="Trazado 1278498" d="M15.758,64.966a2.11,2.11,0,1,1-2.109,2.109,2.112,2.112,0,0,1,2.109-2.109m0-.919a3.029,3.029,0,1,0,3.028,3.028,3.028,3.028,0,0,0-3.028-3.028" transform="translate(8.855 44.55)" fill="#fff"/>
            <path id="Trazado_1278499" data-name="Trazado 1278499" d="M227.849,97.68c0,2.7-45.754,4.885-102.195,4.885S23.46,100.378,23.46,97.68,69.214,92.8,125.655,92.8s102.195,2.187,102.195,4.885" transform="translate(16.318 64.546)" fill="#ffe79e"/>
            <path id="Trazado_1278500" data-name="Trazado 1278500" d="M131.6,57.624c.273,1.351.482,2.7,0,3.566s-2.7,2.6-3.178,3.366-5.487,6.065-6.257,6.258-7.55-1.421-7.84-1.806-1.733-2.021-2.309-2.118a1.757,1.757,0,0,0-1.733.771c-.19.343-.566,1.473-.181,1.955s2.209,1.55,2.788,1.346,9.18,5.626,9.95,5.434,5.968-3.274,6.353-3.081-.192,6.162-.48,6.547-19.737,13.285-19.928,13.67-10.1,29.52-10.586,29.617-6.547,2.021-6.643,2.7,8.376.578,9.049.385,13.1-24.011,14.724-26.439c.48-.716,10.591-8.308,10.591-8.308s-7.547,11.181-7.354,12.432,19.677,17.441,19.677,17.826a9.047,9.047,0,0,1-.578,2.793c-.288.288-2.793,1.348-2.6,1.83s5.1-.193,5.487-.578a31.6,31.6,0,0,0,1.926-6.45c0-.77-13.863-15.308-13.575-16.078s11.36-14.345,12.034-15.693.556-15.465.46-17.293.577-7.978-2.192-9.082c-1.2-.482-3.754-1.063-3.754-1.833s-.482-5.777-1.251-6.643-2.708,4.371-2.6,4.91" transform="translate(63.685 36.599)" fill="#ffd6bd"/>
            <path id="Trazado_1278501" data-name="Trazado 1278501" d="M118.177,100.913c.193.482,5.1-.193,5.487-.578a31.494,31.494,0,0,0,1.926-6.45A36.735,36.735,0,0,0,121.7,89.2c-.181.083-.363.164-.546.237-1.746.714-3.518,1.37-5.316,1.943,3.118,2.694,5.514,4.773,5.514,4.909a9.026,9.026,0,0,1-.578,2.791c-.288.29-2.791,1.348-2.6,1.83" transform="translate(80.577 62.048)" fill="#121313"/>
            <path id="Trazado_1278502" data-name="Trazado 1278502" d="M104.891,90.837c-1.258-.373-2.53-.773-3.812-1.065A74.359,74.359,0,0,1,98.2,97.305c-.482.1-6.547,2.021-6.643,2.7s8.376.578,9.051.385c.28-.08,2.589-4.242,5.311-9.253q-.516-.145-1.028-.3" transform="translate(63.685 62.443)" fill="#121313"/>
            <path id="Trazado_1278503" data-name="Trazado 1278503" d="M125.677,92.469c.288-.77,11.36-14.345,12.034-15.693.341-.682.48-4.637.521-8.615a10.421,10.421,0,0,0-1.17-.031l-10.35.193c-.066.39-1.173.678-1.228.751-.288.385-19.735,13.285-19.928,13.67-.154.31-6.591,19.2-9.358,26.646,1.363.39,2.706.816,4.027,1.3C104.177,103.563,110.933,90.75,112.1,89c.48-.716,10.591-8.308,10.591-8.308s-7.547,11.181-7.355,12.432c.154,1,12.485,11.418,17.546,15.852q1.791-1.1,3.583-2.209c.315-.193.629-.388.944-.583-3.761-4.339-11.956-13.124-11.733-13.717" transform="translate(66.914 47.387)" fill="#3b2b5a"/>
            <path id="Trazado_1278504" data-name="Trazado 1278504" d="M103.136,68.449c3.495,1.475,11.045,5.124,11.65,4.971.77-.192,5.968-3.272,6.353-3.079.336.166-.059,4.712-.358,6.14,4.049.853,8.676,1.233,12.613.242.056-4.112,0-8.468-.051-9.429-.1-1.828.575-7.976-2.192-9.08a21.043,21.043,0,0,1-3.383-1.321c-1.379.368-2.742.81-4.13,1.126a1.869,1.869,0,0,1-.093.195c-.482.863-2.694,2.6-3.176,3.366s-5.489,6.065-6.258,6.257c-.649.163-7.791-1.589-10.2-2.376-.224.856-.509,1.97-.78,2.988" transform="translate(71.74 39.574)" fill="#6cb9ff"/>
          </g>
        </g>
        <g id="Grupo_1212860" data-name="Grupo 1212860" transform="translate(49.053 0.001)">
          <g id="Grupo_1212859" data-name="Grupo 1212859" clip-path="url(#clip-path-8)">
            <rect id="Rectángulo_462467" data-name="Rectángulo 462467" width="221.414" height="153.085" transform="matrix(0.974, -0.225, 0.225, 0.974, -24.223, 5.591)" fill="#ffd453"/>
          </g>
        </g>
        <g id="Grupo_1212862" data-name="Grupo 1212862" transform="translate(0 0.001)">
          <g id="Grupo_1212861" data-name="Grupo 1212861" clip-path="url(#clip-path-4)">
            <path id="Trazado_1278506" data-name="Trazado 1278506" d="M127.71,57.773c-1.375.451-5.924,11.171-6.314,11.093s-8.675-4.063-9.161-4.163-2-1.57-3.162-1.611-2.945.868-2.993,1.9,3.73,1.434,4.125,1.607,10.725,8.646,12.447,8.371,7.576-8.858,8.19-10.126,1.328-8.539-3.132-7.076" transform="translate(73.787 40.051)" fill="#ffd6bd"/>
            <path id="Trazado_1278507" data-name="Trazado 1278507" d="M115.479,59.384c.631.136,1.958.549,2.506,0s1.96-2.979,1.8-4.39-.431-4.266-3.566-4.264a3.391,3.391,0,0,0-3.02,4.264c.261,1.15,1.1,4.139,2.275,4.39" transform="translate(78.677 35.286)" fill="#ffd6bd"/>
            <path id="Trazado_1278508" data-name="Trazado 1278508" d="M128.934,64.849c.614-1.267,1.328-8.539-3.132-7.076-1.375.451-5.926,11.171-6.314,11.093s-8.676-4.063-9.163-4.163a1.125,1.125,0,0,1-.292-.134,4.709,4.709,0,0,1-.38,1.248,6.021,6.021,0,0,1-.833,1.168c2.186,1.67,10.4,8.232,11.922,7.99,1.721-.276,7.578-8.859,8.191-10.126" transform="translate(75.694 40.051)" fill="#cfe8ff"/>
            <path id="Trazado_1278509" data-name="Trazado 1278509" d="M103.025,64.467c1.518.575,2.087.2,2.342-.573.473-1.436-1.392-3.108-1.662-2.857a18.981,18.981,0,0,0-.68,3.43" transform="translate(71.663 42.438)" fill="#ffbea1"/>
            <path id="Trazado_1278510" data-name="Trazado 1278510" d="M118.9,50.534a4.641,4.641,0,0,0-2.011-.812,6.938,6.938,0,0,0-4.707.948c-.307.187-.634.463-.6.819.039.421.532.61.938.727a.675.675,0,0,1,.315.156c.242.251-.005.673-.293.872s-.658.385-.705.731a.686.686,0,0,0,.57.69,2.011,2.011,0,0,0,.967-.1c.1.371-.19.722-.38,1.06s-.2.89.173.983a.677.677,0,0,0,.415-.071,15.539,15.539,0,0,0,2.525-1.777,2.763,2.763,0,0,1,2.9-.412c.911.556,1.85,1.557,1.706-.222a5.066,5.066,0,0,0-1.809-3.59" transform="translate(77.61 34.523)" fill="#121313"/>
            <path id="Trazado_1278511" data-name="Trazado 1278511" d="M32.981,87.521a2.544,2.544,0,1,0,2.543-2.543,2.544,2.544,0,0,0-2.543,2.543" transform="translate(22.941 59.109)" fill="#fff"/>
            <path id="Trazado_1278512" data-name="Trazado 1278512" d="M132.249,48.749a2.543,2.543,0,1,0,2.543-2.543,2.543,2.543,0,0,0-2.543,2.543" transform="translate(91.991 32.14)" fill="#fff"/>
            <path id="Trazado_1278513" data-name="Trazado 1278513" d="M142.939,84.84a1.772,1.772,0,1,1-1.772,1.772,1.774,1.774,0,0,1,1.772-1.772m0-.771a2.544,2.544,0,1,0,2.543,2.543,2.543,2.543,0,0,0-2.543-2.543" transform="translate(97.657 58.477)" fill="#fff"/>
            <path id="Trazado_1278514" data-name="Trazado 1278514" d="M81.213,70.981a1.772,1.772,0,1,1-1.772,1.772,1.774,1.774,0,0,1,1.772-1.772m0-.771a2.544,2.544,0,1,0,2.543,2.543,2.543,2.543,0,0,0-2.543-2.543" transform="translate(54.722 48.836)" fill="#fff"/>
            <path id="Trazado_1278515" data-name="Trazado 1278515" d="M105.494,43.978a1.771,1.771,0,1,1-1.772,1.77,1.773,1.773,0,0,1,1.772-1.77m0-.773a2.544,2.544,0,1,0,2.543,2.543,2.543,2.543,0,0,0-2.543-2.543" transform="translate(71.611 30.052)" fill="#fff"/>
          </g>
        </g>
        <g id="Grupo_1212864" data-name="Grupo 1212864" transform="translate(37.861 -18.627)">
          <g id="Grupo_1212863" data-name="Grupo 1212863" transform="translate(0 -0.001)" clip-path="url(#clip-path-10)">
            <path id="Trazado_1278546" data-name="Trazado 1278546" d="M0,0H60.718V102.783H0Z" transform="translate(0 0.001)" fill="#ffd453"/>
          </g>
        </g>
        <g id="Grupo_1212866" data-name="Grupo 1212866" transform="translate(48.258 -8.232)">
          <g id="Grupo_1212865" data-name="Grupo 1212865" transform="translate(0 0)" clip-path="url(#clip-path-11)">
            <rect id="Rectángulo_462470" data-name="Rectángulo 462470" width="41.803" height="41.804" transform="translate(-1.92 0.093) rotate(-2.759)" fill="#69d7e5"/>
          </g>
        </g>
        <g id="Grupo_1212871" data-name="Grupo 1212871" transform="translate(0 0.001)">
          <g id="Grupo_1212870" data-name="Grupo 1212870" clip-path="url(#clip-path-12)">
            <path id="Trazado_1278518" data-name="Trazado 1278518" d="M67.451,65.99c4.475-3.776,6.157-12.349.412-15.627-2.893-1.65-6.333.782-7.569,3.879-1.112,2.788-.466,7.186-2.894,9.282-1.146.987-2.091.156-2.418,1.845a6.1,6.1,0,0,0,1.933,5.59,5.511,5.511,0,0,0,6.536-.315c.929-.77,1.535-1.914,2.406-2.732.916-.858,1.916-1.211,1.594-1.923" transform="translate(38.182 34.661)" fill="#000d24"/>
            <path id="Trazado_1278519" data-name="Trazado 1278519" d="M65.407,74.84a1.7,1.7,0,0,0-1.255.387c-.014-.063-.027-.124-.039-.183-.658-3.013-1.711-12.407.809-14.943,1.5-1.516,2.5,2.7,2.264,4.383A73.239,73.239,0,0,0,66.415,75.4a1.678,1.678,0,0,0-1.007-.556" transform="translate(44.048 41.58)" fill="#ff9f94"/>
            <path id="Trazado_1278520" data-name="Trazado 1278520" d="M63.816,69.373a2.018,2.018,0,0,1,.59-1.073,7.816,7.816,0,0,0,1.76-.061c3.464-.578,7.374-1.187,7.783-.2.361.875-5.7,2.057-8.978,2.621a1.071,1.071,0,0,1-1.156-1.27l0-.017" transform="translate(44.381 46.962)" fill="#ff9f94"/>
            <path id="Trazado_1278521" data-name="Trazado 1278521" d="M69.476,69.138c1.34-.276,2.64-.261,2.815-.439a2.06,2.06,0,0,0,.341-1.5c-.124-.158-1.005.766-1.584.693a15.155,15.155,0,0,0-1.665-.051s1.185-.2,1.278-.485-1.511-.054-1.992.456.807,1.324.807,1.324" transform="translate(47.69 46.73)" fill="#ff9f94"/>
            <path id="Trazado_1278522" data-name="Trazado 1278522" d="M62.515,95.689c-.185-1.882.01-4.787-.168-7.24a8.516,8.516,0,0,0,3.813,0,59.529,59.529,0,0,0-.149,6.965,9.743,9.743,0,0,1-3.5.275" transform="translate(43.368 61.523)" fill="#ffd6bd"/>
            <path id="Trazado_1278523" data-name="Trazado 1278523" d="M66.211,92.482c.005.59-.146,1.109-.041,1.221.743.79,4.358,1.224,4.207,2.025s-7.228.97-7.528-.132a18.877,18.877,0,0,1-.5-2.859,11.874,11.874,0,0,0,3.864-.254" transform="translate(43.368 64.328)" fill="#000d24"/>
            <path id="Trazado_1278524" data-name="Trazado 1278524" d="M48.774,89.385c1.25-1.579,3.566-3.673,5.294-5.628a9.984,9.984,0,0,0,2.509,3.061,41.6,41.6,0,0,0-5.555,4.9,10.235,10.235,0,0,1-2.248-2.328" transform="translate(33.927 58.26)" fill="#ffd6bd"/>
            <path id="Trazado_1278525" data-name="Trazado 1278525" d="M63.938,87.73s-3.444-9.083-3.744-12.439-1.334-7.04,2.732-6.972,4.581,4.449,5.305,7.971c.9,4.353,2.14,10.118,2.14,11.44,0,.692-1.511,11.281-1.948,15.347a15.206,15.206,0,0,1-5.1-.3c-.241-3.318.617-15.047.617-15.047" transform="translate(41.633 47.521)" fill="#3b2b5a"/>
            <path id="Trazado_1278526" data-name="Trazado 1278526" d="M51.5,95.1C53.9,92.382,61.7,84.987,61.7,84.987l1.638-17.8s1.126-.354,6.15,1.926c4.1,1.86-3.456,21.832-4.359,22.738-.5.5-6.08,4.653-10.179,7.418A18.507,18.507,0,0,1,51.5,95.1" transform="translate(35.821 46.722)" fill="#3b2b5a"/>
            <path id="Trazado_1278527" data-name="Trazado 1278527" d="M49.387,86.963a13.483,13.483,0,0,0,2.593,2.657c-.29.27-.7.336-.71.453-.1,1.131,1.206,5.2.5,5.541s-4.217-4.975-4.015-5.994a10.257,10.257,0,0,1,1.631-2.657" transform="translate(33.212 60.49)" fill="#000d24"/>
            <path id="Trazado_1278528" data-name="Trazado 1278528" d="M63.532,57.539c2.443,1.763,4.012,6.358,4.269,7.7s-3.513,3.059-3.513,3.059Z" transform="translate(44.192 40.023)" fill="#d5f4f8"/>
            <path id="Trazado_1278529" data-name="Trazado 1278529" d="M58.234,73.685c1.64-8.554.107-9.65.093-12.293-.027-4.758,5.292-6.969,8.89-3.015,1.848,2.03,1.119,3.683.461,6.545s1.256,10.233,1.256,10.233a9.753,9.753,0,0,1-6.352,1.667c-3.91-.27-4.349-3.137-4.349-3.137" transform="translate(40.507 39.185)" fill="#6cb9ff"/>
            <path id="Trazado_1278530" data-name="Trazado 1278530" d="M55.56,73.967a2,2,0,0,0-1.533-.317c.014-.076.027-.151.041-.222.683-3.64,3.89-14.4,7.783-15.662,2.325-.753,1.986,4.743.95,6.418-.878,1.419-4.736,6.606-6.411,10.974a2.333,2.333,0,0,0-.829-1.19" transform="translate(37.58 40.131)" fill="#ffd6bd"/>
            <path id="Trazado_1278531" data-name="Trazado 1278531" d="M54.241,67.135a2.075,2.075,0,0,1,1.134-.812,10.037,10.037,0,0,0,1.928.966c4.008,1.406,8.512,3.044,8.5,4.349-.014,1.158-7.106-1.122-10.908-2.437a1.423,1.423,0,0,1-.661-2.05l.01-.017" transform="translate(37.581 46.133)" fill="#ffd6bd"/>
            <path id="Trazado_1278532" data-name="Trazado 1278532" d="M62.532,58.1c.944,1.284.643,6.077-3.337,11.165-3.076-.7-3.971-4-3.971-4s5.083-10.189,7.308-7.164" transform="translate(38.413 40.023)" fill="#d5f4f8"/>
            <path id="Trazado_1278533" data-name="Trazado 1278533" d="M60.212,70.414c1.575.487,2.971,1.267,3.242,1.177a2.211,2.211,0,0,0,1.061-1.419c-.061-.242-1.44.239-2.03-.18a20.234,20.234,0,0,0-1.777-1.033s1.375.476,1.606.227-1.607-.944-2.362-.677.259,1.9.259,1.9" transform="translate(41.508 47.612)" fill="#ffd6bd"/>
            <path id="Trazado_1278534" data-name="Trazado 1278534" d="M59.032,67.671l14.943-.3L66.764,71.4,64.51,72Z" transform="translate(41.062 46.863)" fill="#3b2b5a"/>
            <path id="Trazado_1278535" data-name="Trazado 1278535" d="M79.322,63.341c.666.359-1.005,11.389-1.355,11.611s-15.011.336-15.352,0S64.045,63.686,64.3,63.375s14.475-.327,15.021-.034" transform="translate(43.524 43.912)" fill="#3b2b5a"/>
            <path id="Trazado_1278536" data-name="Trazado 1278536" d="M63.915,63.029c.07.07.6.417.6.417-.254.31-2.025,11.243-1.684,11.579a3.128,3.128,0,0,1-.57-.268s1.584-11.8,1.653-11.728" transform="translate(43.309 43.841)" fill="#3f7cd1"/>
            <path id="Trazado_1278537" data-name="Trazado 1278537" d="M64.545,71.465s-5.36-3.878-5.478-3.915-.114.59,0,.761A65.066,65.066,0,0,0,64.859,72.4c.214-.075.256-.515.256-.515l-.57-.268Z" transform="translate(41.026 46.985)" fill="#3f7cd1"/>
            <path id="Trazado_1278538" data-name="Trazado 1278538" d="M62.448,71.065s7.164.039,9.614,0,5.428.148,5.626,0,0-.821,0-.821L62.7,69.463Z" transform="translate(43.438 48.317)" fill="#2b69be"/>
            <path id="Trazado_1278539" data-name="Trazado 1278539" d="M68.47,65.834c.727.039.265,1.529.529,1.865s-.076,1.379-1.014,1.3-.707-1.265-.342-1.582.132-1.624.827-1.587" transform="translate(46.83 45.792)" fill="#fff"/>
            <g id="Grupo_1212869" data-name="Grupo 1212869" transform="translate(108.545 107.055)" opacity="0.35">
              <g id="Grupo_1212868" data-name="Grupo 1212868">
                <g id="Grupo_1212867" data-name="Grupo 1212867" clip-path="url(#clip-path-13)">
                  <path id="Trazado_1278540" data-name="Trazado 1278540" d="M75.76,75.049c-1.226.051-3.242.088-5.373.1-2.733-3.106-5.7-6.733-5.268-6.93.761-.348,4.763.276,4.592-.1-.12-.265-3.72-3.071-5.694-4.856.944-.066,2.71-.109,4.687-.129.134.137.271.28.41.432,3.466,3.791,5.443,6.048,5.021,6.56s-3.14-.512-3.7,0c-.327.3,2.762,2.747,5.322,4.919" transform="translate(-64.017 -63.138)" fill="#fff"/>
                </g>
              </g>
            </g>
            <path id="Trazado_1278541" data-name="Trazado 1278541" d="M63.838,63.55c-.034.041-.6-.417-.6-.417s3.7-.315,7.491-.241,7.656.261,7.656.261l.475.363c-.546-.293-14.767-.278-15.021.034" transform="translate(43.987 43.738)" fill="#94bcf2"/>
            <path id="Trazado_1278542" data-name="Trazado 1278542" d="M64.118,60.56c-.293.831-.473,1.553-1.328,1.3a6.955,6.955,0,0,1-2.559-2.406c-.112-.376-.327-6.255-.327-6.255s2.318.488,2.518,1.562,2.008,4.921,1.7,5.8" transform="translate(41.668 37.002)" fill="#ffd6bd"/>
            <path id="Trazado_1278543" data-name="Trazado 1278543" d="M64.692,50.659c1.763.705,1.947,2.7,1.228,6.5-.419,2.213-4.158,2.465-5.519-.119s.014-8.093,4.292-6.384" transform="translate(41.662 35.013)" fill="#ffd6bd"/>
            <path id="Trazado_1278544" data-name="Trazado 1278544" d="M66.212,51.842c-.022.571-.683,1.014-1.078,1.345a9.906,9.906,0,0,1-2.971,1.653,10.808,10.808,0,0,1-2.608.755c-.1-1.558.746-2.974,1.5-4.305.451-.792,1.3-1.623,2.3-1.35a9.2,9.2,0,0,1,2.092,1.207,9.08,9.08,0,0,1,.758.7" transform="translate(41.42 34.7)" fill="#000d24"/>
            <path id="Trazado_1278545" data-name="Trazado 1278545" d="M111.834,62.645c.746.025,1.5.032,2.255,0s1.506-.095,2.248-.176l1.3-6.175a25.294,25.294,0,0,0,5.438-1.685l4.57,4.373a31.427,31.427,0,0,0,3.807-2.4l-1.972-6.011a25.618,25.618,0,0,0,3.864-4.175l6.145,1.5a31.247,31.247,0,0,0,2.1-3.98l-4.712-4.22a25.113,25.113,0,0,0,1.262-5.551l6.057-1.767c.025-.746.032-1.5,0-2.255s-.095-1.506-.176-2.248l-6.175-1.3a25.079,25.079,0,0,0-1.687-5.438l4.373-4.57a31.079,31.079,0,0,0-2.4-3.807l-6.013,1.97a25.527,25.527,0,0,0-4.173-3.863l1.5-6.146a31.45,31.45,0,0,0-3.98-2.1l-4.22,4.712a25.211,25.211,0,0,0-5.551-1.263L113.928.02c-.746-.024-1.5-.031-2.255,0s-1.506.095-2.248.176l-1.3,6.174a25.3,25.3,0,0,0-5.438,1.687l-4.57-4.373a31.091,31.091,0,0,0-3.807,2.4L96.287,12.1a25.548,25.548,0,0,0-3.864,4.175l-6.146-1.5a31.475,31.475,0,0,0-2.1,3.981l4.712,4.22a25.19,25.19,0,0,0-1.263,5.551l-6.057,1.767c-.024.746-.031,1.5,0,2.255s.095,1.506.176,2.248l6.174,1.294A25.239,25.239,0,0,0,89.6,41.522L85.23,46.093a31.625,31.625,0,0,0,2.4,3.807l6.013-1.972a25.548,25.548,0,0,0,4.175,3.864l-1.5,6.145a31.483,31.483,0,0,0,3.981,2.1l4.219-4.712a25.246,25.246,0,0,0,5.553,1.262ZM92.362,32.125a20.534,20.534,0,1,1,21.31,19.728,20.534,20.534,0,0,1-21.31-19.728" transform="translate(63.786 -36.001)" fill="#ffb851"/>
          </g>
        </g>
      </g>
    </g>
  </g>
</svg>
