<svg xmlns="http://www.w3.org/2000/svg" xmlns:xlink="http://www.w3.org/1999/xlink" width="187.711" height="121.729" viewBox="0 0 187.711 121.729">
  <defs>
    <clipPath id="clip-path">
      <rect id="Rectángulo_463099" data-name="Rectángulo 463099" width="113.033" height="110.123" fill="none"/>
    </clipPath>
  </defs>
  <g id="Grupo_1213447" data-name="Grupo 1213447" transform="translate(-289.711 -6647)">
    <g id="Grupo_1210720" data-name="Grupo 1210720" transform="translate(0.434 -2221.039)">
      <g id="Grupo_1204518" data-name="Grupo 1204518" transform="translate(289.277 8868.039)">
        <rect id="Rectángulo_455283" data-name="Rectángulo 455283" width="187.711" height="121.729" rx="19" fill="#9ed1ff"/>
      </g>
    </g>
    <g id="Grupo_1213360" data-name="Grupo 1213360" transform="translate(326.711 6649.877)">
      <rect id="Rectángulo_463098" data-name="Rectángulo 463098" width="3.768" height="42.881" transform="translate(54.633 50.863)" fill="#3a7f91"/>
      <path id="Trazado_1279944" data-name="Trazado 1279944" d="M51.978,65.457h3.769V53.649H44.358V30.484H40.587V57.416H51.978Z" transform="translate(27.134 20.38)" fill="#3a7f91"/>
      <path id="Trazado_1279945" data-name="Trazado 1279945" d="M21.84,65.457V57.416H33.231V30.484H29.464V53.649H18.071V65.457Z" transform="translate(12.081 20.38)" fill="#3a7f91"/>
      <path id="Trazado_1279946" data-name="Trazado 1279946" d="M50.664,45.9H70.837V57.878h3.769V42.136H54.43V29.356H46.925v3.764h3.739Z" transform="translate(31.371 19.626)" fill="#3a7f91"/>
      <path id="Trazado_1279947" data-name="Trazado 1279947" d="M8,57.878V45.9H28.174V33.12H31.91V29.356H24.405V42.135H4.229V57.878Z" transform="translate(2.827 19.626)" fill="#3a7f91"/>
      <path id="Trazado_1279948" data-name="Trazado 1279948" d="M12.093,45.709,7.286,50.518,2.477,45.709Z" transform="translate(1.656 30.558)" fill="#3a7f91"/>
      <path id="Trazado_1279949" data-name="Trazado 1279949" d="M69.119,45.709l-4.805,4.809L59.5,45.709Z" transform="translate(39.78 30.558)" fill="#3a7f91"/>
      <path id="Trazado_1279950" data-name="Trazado 1279950" d="M26.069,50.339l-4.809,4.805-4.809-4.805Z" transform="translate(10.999 33.653)" fill="#3a7f91"/>
      <path id="Trazado_1279951" data-name="Trazado 1279951" d="M55.274,50.339l-4.807,4.805-4.805-4.805Z" transform="translate(30.526 33.653)" fill="#3a7f91"/>
      <path id="Trazado_1279952" data-name="Trazado 1279952" d="M40.6,54.967,35.8,59.777l-4.809-4.81Z" transform="translate(20.718 36.747)" fill="#3a7f91"/>
      <g id="Grupo_1213359" data-name="Grupo 1213359">
        <g id="Grupo_1213358" data-name="Grupo 1213358" clip-path="url(#clip-path)">
          <path id="Trazado_1279953" data-name="Trazado 1279953" d="M34.021,71.243c.2,0,.364-.682.364-1.52V32.908c0-.838-.164-1.515-.364-1.515s-.37.677-.37,1.515V69.722c0,.838.167,1.52.37,1.52" transform="translate(22.497 20.987)" fill="#ff3912"/>
          <path id="Trazado_1279954" data-name="Trazado 1279954" d="M53.253,63.334c.207,0,.37-.681.37-1.518v-5.74a1.52,1.52,0,0,0-1.515-1.52H43.751a1.515,1.515,0,0,1-1.518-1.515V32.91c0-.838-.167-1.517-.37-1.517s-.367.679-.367,1.517V53.776a1.516,1.516,0,0,0,1.517,1.517h8.359a1.515,1.515,0,0,1,1.517,1.515v5.007c0,.838.162,1.518.365,1.518" transform="translate(27.741 20.987)" fill="#ff3912"/>
          <path id="Trazado_1279955" data-name="Trazado 1279955" d="M19.346,63.334c.207,0,.369-.681.369-1.518V56.808a1.515,1.515,0,0,1,1.517-1.515h8.359a1.516,1.516,0,0,0,1.517-1.517V32.91c0-.838-.167-1.517-.367-1.517s-.37.679-.37,1.517V53.041a1.516,1.516,0,0,1-1.515,1.515H20.494a1.516,1.516,0,0,0-1.512,1.52v5.74c0,.838.164,1.518.364,1.518" transform="translate(12.69 20.987)" fill="#ff3912"/>
          <path id="Trazado_1279956" data-name="Trazado 1279956" d="M72.117,55.755c.2,0,.362-.681.362-1.515V44.559a1.514,1.514,0,0,0-1.515-1.515H53.823a1.511,1.511,0,0,1-1.513-1.515V31.782a1.518,1.518,0,0,0-1.518-1.517H49.348c-.838,0-1.515.162-1.515.365s.5.367,1.11.367h1.115a1.517,1.517,0,0,1,1.517,1.515V42.26a1.517,1.517,0,0,0,1.517,1.517H70.23A1.519,1.519,0,0,1,71.746,45.3V54.24c0,.834.167,1.515.37,1.515" transform="translate(31.978 20.233)" fill="#ff3912"/>
          <path id="Trazado_1279957" data-name="Trazado 1279957" d="M5.507,55.755c.2,0,.367-.681.367-1.515V45.3a1.519,1.519,0,0,1,1.517-1.518H24.53a1.517,1.517,0,0,0,1.517-1.517V32.513A1.518,1.518,0,0,1,27.566,31h1.108c.614,0,1.113-.164,1.113-.367s-.677-.365-1.515-.365H26.829a1.515,1.515,0,0,0-1.515,1.517v9.748A1.517,1.517,0,0,1,23.8,43.044H6.658a1.516,1.516,0,0,0-1.52,1.515V54.24c0,.834.167,1.515.369,1.515" transform="translate(3.435 20.233)" fill="#ff3912"/>
          <path id="Trazado_1279958" data-name="Trazado 1279958" d="M36.608,58.946a1.523,1.523,0,0,0-1.116-.581H32.3a1.526,1.526,0,0,0-1.116.581l-.539.768H29.68a.7.7,0,0,0-.709.709V70.4a.705.705,0,0,0,.709.709H44.622a.709.709,0,0,0,.707-.709V60.422a.708.708,0,0,0-.707-.709H37.15Z" transform="translate(19.368 39.019)" fill="#f99b1d"/>
          <path id="Trazado_1279959" data-name="Trazado 1279959" d="M51.6,54.567a1.521,1.521,0,0,0-1.116-.584H47.292a1.527,1.527,0,0,0-1.116.584l-.539.766h-.973a.71.71,0,0,0-.709.709v9.971a.71.71,0,0,0,.709.709H59.606a.706.706,0,0,0,.709-.709V56.042a.706.706,0,0,0-.709-.709H52.134Z" transform="translate(29.385 36.089)" fill="#f99b1d"/>
          <path id="Trazado_1279960" data-name="Trazado 1279960" d="M21.623,54.567a1.527,1.527,0,0,0-1.118-.584H17.321a1.53,1.53,0,0,0-1.118.584l-.539.766h-.973a.706.706,0,0,0-.707.709v9.971a.706.706,0,0,0,.707.709h14.94a.709.709,0,0,0,.711-.709V56.042a.709.709,0,0,0-.711-.709H22.163Z" transform="translate(9.349 36.089)" fill="#f99b1d"/>
          <path id="Trazado_1279961" data-name="Trazado 1279961" d="M65.577,50.184a1.54,1.54,0,0,0-1.113-.581H61.277a1.538,1.538,0,0,0-1.12.581l-.542.766h-.971a.705.705,0,0,0-.7.712v9.966a.7.7,0,0,0,.7.712H73.591a.71.71,0,0,0,.707-.712V51.662a.711.711,0,0,0-.707-.712H66.119Z" transform="translate(38.735 33.161)" fill="#f99b1d"/>
          <path id="Trazado_1279962" data-name="Trazado 1279962" d="M7.637,50.184A1.51,1.51,0,0,0,6.524,49.6H3.337a1.526,1.526,0,0,0-1.116.581l-.542.766H.706A.711.711,0,0,0,0,51.662v9.966a.71.71,0,0,0,.706.712H15.651a.709.709,0,0,0,.707-.712V51.662a.71.71,0,0,0-.707-.712H8.179Z" transform="translate(0 33.161)" fill="#f99b1d"/>
          <path id="Trazado_1279963" data-name="Trazado 1279963" d="M86.37,20.057A22.147,22.147,0,0,0,47.845,7.349,19.8,19.8,0,0,0,21.422,19.8,16.563,16.563,0,0,0,22.2,52.912H83.3A16.57,16.57,0,0,0,86.37,20.057" transform="translate(3.762 0.001)" fill="#a3b5c6"/>
          <path id="Trazado_1279964" data-name="Trazado 1279964" d="M42.859,60.307,30.785,68.547H42.859Z" transform="translate(20.581 40.317)" fill="#3a7f91"/>
          <path id="Trazado_1279965" data-name="Trazado 1279965" d="M57.847,55.927,45.77,64.168H57.847Z" transform="translate(30.599 37.389)" fill="#ff3912"/>
          <path id="Trazado_1279966" data-name="Trazado 1279966" d="M27.873,55.927,15.8,64.168H27.873Z" transform="translate(10.562 37.389)" fill="#14b0bf"/>
          <path id="Trazado_1279967" data-name="Trazado 1279967" d="M71.831,51.544,59.754,59.785H71.831Z" transform="translate(39.947 34.459)" fill="#fff"/>
          <path id="Trazado_1279968" data-name="Trazado 1279968" d="M13.888,51.546,1.816,59.783H13.888Z" transform="translate(1.214 34.46)" fill="#a55353"/>
          <path id="Trazado_1279969" data-name="Trazado 1279969" d="M38.808,8.072A15.921,15.921,0,0,0,23.526,19.335l-.788,2.543L20.084,22a12.774,12.774,0,0,0,.6,25.534H60.332a36.906,36.906,0,0,0,.137-45.164A18.193,18.193,0,0,0,49.141,8.3l-1.787,1.984L44.888,9.268a15.893,15.893,0,0,0-6.08-1.2" transform="translate(5.281 1.587)" fill="#b8c7d8"/>
          <path id="Trazado_1279970" data-name="Trazado 1279970" d="M25.78,9.823a15.89,15.89,0,0,0-2.256,4.532L22.738,16.9l-2.655.125a12.774,12.774,0,0,0,.08,25.524,37.028,37.028,0,0,0,7.215-21.928,36.762,36.762,0,0,0-1.6-10.8" transform="translate(5.281 6.567)" fill="#d3dce5"/>
        </g>
      </g>
    </g>
  </g>
</svg>
