<svg xmlns="http://www.w3.org/2000/svg" xmlns:xlink="http://www.w3.org/1999/xlink" width="91" height="91" viewBox="0 0 91 91">
  <defs>
    <clipPath id="clip-path">
      <rect id="Rectángulo_462555" data-name="Rectángulo 462555" width="60.669" height="60.704" fill="none"/>
    </clipPath>
  </defs>
  <g id="Grupo_1212022" data-name="Grupo 1212022" transform="translate(-335.711 -2638.394)">
    <circle id="Elipse_13733" data-name="Elipse 13733" cx="45.5" cy="45.5" r="45.5" transform="translate(335.711 2638.394)" fill="#fff"/>
    <g id="Grupo_1212932" data-name="Grupo 1212932" transform="translate(351.377 2653.061)">
      <g id="Grupo_1212931" data-name="Grupo 1212931" clip-path="url(#clip-path)">
        <path id="Trazado_1278819" data-name="Trazado 1278819" d="M46.3,35.424a3.536,3.536,0,0,1-4.188,1.681l-.033,13.751a2.971,2.971,0,0,1,2.908,3.429,6.95,6.95,0,0,1-6.211,6.4L7.126,60.7A6.987,6.987,0,0,1,0,53.917,2.958,2.958,0,0,1,2.96,50.858L3.023,27.9a4.671,4.671,0,0,1,4.625-4.4l22.719-.039a3.09,3.09,0,0,1,2.054-2.366,1.436,1.436,0,0,0,.775-1.646,6.235,6.235,0,0,1-.393-1.8l-9.329.016,0-7.863H13.733l0,7.863H.01L.006,0H13.73l0,7.828h9.739V0H37.2v7.82l9.74,0,0-7.828H60.668l-.006,17.655-7.378.007a4.209,4.209,0,0,1-.311,1.6,1.452,1.452,0,0,0,.855,1.9A3.194,3.194,0,0,1,55.8,24.493a3.255,3.255,0,0,1-2.155,3.353,1.441,1.441,0,0,0-.663,1.859,3.18,3.18,0,0,1-.868,3.738,3.393,3.393,0,0,1-3.98.927A1.4,1.4,0,0,0,46.3,35.424M11.772,1.942H1.958V15.67h9.813Zm23.483,12.57L35.247,1.94H25.426V15.674l8.468-.015a3.94,3.94,0,0,1,1.361-1.148m23.464,1.146L58.712,1.945,48.9,1.954V14.282a3.235,3.235,0,0,1,3.278,1.387ZM43.065,11.715c1.909-.034,2.98.869,3.721,2.812a23.494,23.494,0,0,0,.12-4.74l-9.716.018c.174,1.437-.291,3.04.175,4.37.309.882,2.063.463,2.3-.288.512-1.593,1.783-2.144,3.4-2.173m1.259,23.1a3.692,3.692,0,0,1,5.17-2.128c.641.13,1.9-1.053,1.759-1.677-.3-1.317-.584-2.169.009-3.455a4.484,4.484,0,0,1,2.251-1.884,2.211,2.211,0,0,0-.052-2.457c-1.825-.717-3.07-2.508-2.378-4.432a1.58,1.58,0,0,0-.411-1.985,1.453,1.453,0,0,0-1.832-.4,3.3,3.3,0,0,1-4.129-1.638,1.5,1.5,0,0,0-1.737-1.076,1.439,1.439,0,0,0-1.557,1.043,3.311,3.311,0,0,1-4.25,1.637c-.784-.345-1.171-.031-1.684.426a1.528,1.528,0,0,0-.444,2.025c.7,1.929-.645,3.818-2.6,4.511a18.049,18.049,0,0,0,3.864.108,6.836,6.836,0,1,1,5.794,7.8l.029,3.864c.5.2,1.933.4,2.2-.283M41.9,27.169a8.32,8.32,0,0,1,.191,2.049,4.84,4.84,0,0,0,5.771-3.9,4.88,4.88,0,0,0-9.6-1.736,9.322,9.322,0,0,1,1.832.84,2.946,2.946,0,1,1,5.8.761A2.944,2.944,0,0,1,41.9,27.169m2.128-2.722a.974.974,0,1,0-.974.974.974.974,0,0,0,.974-.974M40.115,50.864V28.46A2.975,2.975,0,0,0,37.2,25.422H7.71a2.9,2.9,0,0,0-2.776,2.853L4.922,50.867Zm1.866,1.971-12.7.034a2.987,2.987,0,0,1-2.812,3.859l-8.035-.016a2.964,2.964,0,0,1-2.684-3.87L2.995,52.837a.966.966,0,0,0-1.022.949,4.926,4.926,0,0,0,4.994,4.921l31.586-.055c2.549,0,4.4-2.42,4.493-4.676a.983.983,0,0,0-1.064-1.142m-15.3,1.889c.725-.006.824-1.163.672-1.855l-9.674-.006c-.244.936.061,1.928.93,1.922Z" transform="translate(0)" fill="#060505"/>
        <path id="Trazado_1278820" data-name="Trazado 1278820" d="M62.632,167.17l-35.193,0,.012-22.591a2.9,2.9,0,0,1,2.776-2.853H59.72a2.975,2.975,0,0,1,2.911,3.037ZM59.1,165.2c.8-.265,1.541-.841,1.54-1.64L60.629,145.3a1.873,1.873,0,0,0-1.8-1.606l-27.561,0a1.915,1.915,0,0,0-1.868,1.773l.019,18.109c0,1.011,1.094,1.634,2.009,1.634Z" transform="translate(-22.517 -116.307)" fill="#e1e4e8"/>
        <path id="Trazado_1278821" data-name="Trazado 1278821" d="M51.006,294.554A.983.983,0,0,1,52.07,295.7c-.092,2.256-1.945,4.672-4.493,4.676l-31.586.055A4.927,4.927,0,0,1,11,295.505a.966.966,0,0,1,1.022-.949l12.756.005a2.964,2.964,0,0,0,2.684,3.87l8.035.016a2.986,2.986,0,0,0,2.812-3.859Z" transform="translate(-9.024 -241.719)" fill="#939ca7"/>
        <path id="Trazado_1278822" data-name="Trazado 1278822" d="M107.169,296.571l-8.073.061c-.869.007-1.174-.986-.93-1.922l9.674.006c.152.692.053,1.85-.672,1.855" transform="translate(-80.492 -241.847)" fill="#fac328"/>
        <path id="Trazado_1278823" data-name="Trazado 1278823" d="M68.085,174.194l-27.666.006c-.915,0-2.008-.623-2.009-1.634l-.019-18.109a1.915,1.915,0,0,1,1.868-1.773l27.561,0a1.873,1.873,0,0,1,1.8,1.606l.009,18.263c0,.8-.745,1.375-1.54,1.64m-.395-19.559H40.328v17.593H67.69Z" transform="translate(-31.505 -125.296)" fill="#060505"/>
        <path id="Trazado_1278824" data-name="Trazado 1278824" d="M76.551,181.159H49.189V163.566H76.551Zm-6.2-2.048c2.9-.011,4.6-3.068,4.2-5.546a4.84,4.84,0,0,0-5.461-4.078,6.876,6.876,0,0,0-12.452.011,4.861,4.861,0,0,0-5.485,4.448,4.806,4.806,0,0,0,4.564,5.223Z" transform="translate(-40.366 -134.227)" fill="#68d4f1"/>
        <path id="Trazado_1278825" data-name="Trazado 1278825" d="M79.237,188.113l-14.636.058a4.806,4.806,0,0,1-4.564-5.222,4.861,4.861,0,0,1,5.485-4.448,6.876,6.876,0,0,1,12.452-.011,4.84,4.84,0,0,1,5.461,4.078c.405,2.479-1.3,5.535-4.2,5.546M78.7,186.25a2.913,2.913,0,0,0,1.6-5.291,3.248,3.248,0,0,0-3.6,0,5.022,5.022,0,0,0-4.667-4.448c-4.381-.232-5.179,4.263-5.212,4.29a.542.542,0,0,1-.392,0,2.954,2.954,0,0,0-4.339,1.726,2.849,2.849,0,0,0,2.521,3.678Z" transform="translate(-49.252 -143.229)" fill="#060505"/>
        <path id="Trazado_1278826" data-name="Trazado 1278826" d="M87.681,195.257,73.6,195.22a2.849,2.849,0,0,1-2.521-3.678,2.954,2.954,0,0,1,4.339-1.726.542.542,0,0,0,.392,0c.034-.027.831-4.522,5.212-4.29a5.022,5.022,0,0,1,4.667,4.448,3.248,3.248,0,0,1,3.6,0,2.913,2.913,0,0,1-1.6,5.291" transform="translate(-58.234 -152.236)" fill="#e1e4e8"/>
        <path id="Trazado_1278827" data-name="Trazado 1278827" d="M192.738,97.39c-.263.679-1.7.479-2.2.283l-.029-3.865a6.842,6.842,0,1,0-5.795-7.8,18.038,18.038,0,0,1-3.864-.108c1.953-.693,3.295-2.582,2.6-4.511a1.528,1.528,0,0,1,.444-2.025c.512-.457.9-.771,1.684-.426a3.311,3.311,0,0,0,4.25-1.637,1.438,1.438,0,0,1,1.557-1.043,1.5,1.5,0,0,1,1.737,1.075,3.3,3.3,0,0,0,4.129,1.638,1.453,1.453,0,0,1,1.832.4,1.58,1.58,0,0,1,.411,1.985c-.691,1.924.553,3.715,2.378,4.432a2.211,2.211,0,0,1,.052,2.457,4.485,4.485,0,0,0-2.251,1.884c-.593,1.286-.313,2.138-.009,3.455.144.624-1.118,1.807-1.759,1.677a3.692,3.692,0,0,0-5.17,2.128" transform="translate(-148.414 -62.575)" fill="#fac328"/>
        <path id="Trazado_1278828" data-name="Trazado 1278828" d="M216.949,116.7a2.94,2.94,0,1,0,1.6-5.612,2.984,2.984,0,0,0-3.412,2.863,9.329,9.329,0,0,0-1.832-.84,4.88,4.88,0,1,1,3.832,5.638,8.309,8.309,0,0,0-.191-2.049" transform="translate(-175.046 -89.529)" fill="#fac328"/>
        <path id="Trazado_1278829" data-name="Trazado 1278829" d="M236.561,131.834a.974.974,0,1,1-.974-.974.974.974,0,0,1,.974.974" transform="translate(-192.529 -107.387)" fill="#e1e4e8"/>
        <path id="Trazado_1278830" data-name="Trazado 1278830" d="M20.733,24.554H10.92V10.826h9.813ZM18.76,12.775H12.869v1.951H18.76Zm0,3.924H12.869v1.973H18.76Zm-5.891,5.907H18.76v-1.96H12.869Z" transform="translate(-8.961 -8.884)" fill="#e1e4e8"/>
        <path id="Trazado_1278831" data-name="Trazado 1278831" d="M151.576,23.387a3.939,3.939,0,0,0-1.361,1.147l-8.468.015V10.816h9.821Zm-1.958-10.624H143.7v1.953h5.919Zm0,3.926H143.7v1.973h5.919Zm0,3.946H143.7V22.6h5.919Z" transform="translate(-116.321 -8.875)" fill="#e1e4e8"/>
        <path id="Trazado_1278832" data-name="Trazado 1278832" d="M282.43,24.557l-6.541.011a3.235,3.235,0,0,0-3.278-1.387V10.853l9.813-.009Zm-1.952-11.77h-5.891V14.74h5.891Zm0,3.926h-5.891v1.973h5.891Zm0,3.946h-5.891v1.96h5.891Z" transform="translate(-223.712 -8.899)" fill="#e1e4e8"/>
        <path id="Trazado_1278833" data-name="Trazado 1278833" d="M213.024,56.494c-1.613.029-2.884.58-3.4,2.173-.241.75-2,1.17-2.3.288-.466-1.33,0-2.933-.175-4.37l9.716-.018a23.5,23.5,0,0,1-.12,4.74c-.741-1.944-1.812-2.846-3.721-2.812" transform="translate(-169.959 -44.778)" fill="#f6f6f6"/>
        <rect id="Rectángulo_462546" data-name="Rectángulo 462546" width="5.891" height="1.951" transform="translate(3.908 3.891)" fill="#060505"/>
        <rect id="Rectángulo_462547" data-name="Rectángulo 462547" width="5.891" height="1.973" transform="translate(3.908 7.815)" fill="#060505"/>
        <rect id="Rectángulo_462548" data-name="Rectángulo 462548" width="5.891" height="1.96" transform="translate(3.908 11.761)" fill="#060505"/>
        <rect id="Rectángulo_462549" data-name="Rectángulo 462549" width="5.919" height="1.953" transform="translate(27.378 3.888)" fill="#060505"/>
        <rect id="Rectángulo_462550" data-name="Rectángulo 462550" width="5.919" height="1.973" transform="translate(27.378 7.815)" fill="#060505"/>
        <rect id="Rectángulo_462551" data-name="Rectángulo 462551" width="5.919" height="1.96" transform="translate(27.378 11.761)" fill="#060505"/>
        <rect id="Rectángulo_462552" data-name="Rectángulo 462552" width="5.891" height="1.953" transform="translate(50.876 3.888)" fill="#060505"/>
        <rect id="Rectángulo_462553" data-name="Rectángulo 462553" width="5.891" height="1.973" transform="translate(50.876 7.815)" fill="#060505"/>
        <rect id="Rectángulo_462554" data-name="Rectángulo 462554" width="5.891" height="1.96" transform="translate(50.876 11.761)" fill="#060505"/>
      </g>
    </g>
  </g>
</svg>
