<svg xmlns="http://www.w3.org/2000/svg" xmlns:xlink="http://www.w3.org/1999/xlink" width="69" height="69" viewBox="0 0 69 69">
  <defs>
    <clipPath id="clip-path">
      <rect id="Rectángulo_462443" data-name="Rectángulo 462443" width="44" height="44" fill="#fff"/>
    </clipPath>
  </defs>
  <g id="Grupo_1212376" data-name="Grupo 1212376" transform="translate(-273.711 -1370)">
    <circle id="Elipse_13700" data-name="Elipse 13700" cx="34.5" cy="34.5" r="34.5" transform="translate(273.711 1370)" fill="#1e535a"/>
    <g id="Grupo_1212833" data-name="Grupo 1212833" transform="translate(286.711 1383)">
      <g id="Grupo_1212832" data-name="Grupo 1212832" clip-path="url(#clip-path)">
        <path id="Trazado_1278311" data-name="Trazado 1278311" d="M68.356,101.147a4.375,4.375,0,0,0-3.069-.941,1.711,1.711,0,0,0-1.575,1.609l-.008,7.7-.933-.018a4.606,4.606,0,0,0-4.566-4.641L58.2,99.247a4.655,4.655,0,0,0,4.572-4.684l20.171,0a4.651,4.651,0,0,0,4.569,4.679l.008,5.613a4.618,4.618,0,0,0-4.573,4.685l-12.821.005,0-3.727a4.548,4.548,0,0,0,6.724-1.478,4.711,4.711,0,0,0-2.336-6.653,4.573,4.573,0,0,0-6.16,3.463" transform="translate(-50.861 -82.39)" fill="#fff"/>
        <path id="Trazado_1278312" data-name="Trazado 1278312" d="M130.909,162.016c.078,1.866.158,2.628-1.025,4.114a3.717,3.717,0,0,0-.807,2.13l-.01,2.186-10.062,0-.042-2.71a3.6,3.6,0,0,0-.788-1.575l-1.808-2.457-.118-1.484.017-9.569a2.7,2.7,0,0,1,2.712,2.611l.011,5.677a1.227,1.227,0,0,0,.441.926c2.385,1.132,2.278,3.317,3.5,2.918a1.041,1.041,0,0,0,.665-1.168l-1-1.6Z" transform="translate(-101.593 -133.007)" fill="#fff"/>
        <rect id="Rectángulo_462442" data-name="Rectángulo 462442" width="13.748" height="4.708" transform="translate(15.578 39.292)" fill="#fff"/>
        <path id="Trazado_1278313" data-name="Trazado 1278313" d="M10.586,193.125a1.191,1.191,0,0,1,.007,1.76l-2.487,2.467a.976.976,0,0,1-1.28.246c-.3-.167-.641-.853-.307-1.219l1.27-1.394-3.344-.04A4.594,4.594,0,0,1,0,190.239v-7.465a.927.927,0,0,1,.935-.924.906.906,0,0,1,.893.969l0,7.421a2.734,2.734,0,0,0,2.574,2.8l3.44.01-1.137-1.181a.93.93,0,0,1-.034-1.33.913.913,0,0,1,1.269-.055Z" transform="translate(0 -158.445)" fill="#fff"/>
        <path id="Trazado_1278314" data-name="Trazado 1278314" d="M270.99,7.382A2.7,2.7,0,0,0,268.4,4.7l-3.41-.028,1.116,1.163a.962.962,0,0,1,.075,1.35.914.914,0,0,1-1.321.042L262.271,4.6a1.079,1.079,0,0,1-.108-1.612l2.7-2.753a.937.937,0,0,1,1.249,1.4l-1.132,1.172,3.822.066a4.565,4.565,0,0,1,4.02,4.573l.011,7.482a.914.914,0,1,1-1.826.054Z" transform="translate(-228.837 -0.001)" fill="#fff"/>
        <path id="Trazado_1278315" data-name="Trazado 1278315" d="M131.081,59.832v1.179H116.451L116.436,60a1.824,1.824,0,0,1,1.665-1.79,1.9,1.9,0,0,1,1.993,1.564,1.854,1.854,0,0,1,3.662-.02,1.911,1.911,0,0,1,1.771-1.551,1.881,1.881,0,0,1,1.888,1.572,1.913,1.913,0,0,1,1.768-1.569,1.866,1.866,0,0,1,1.9,1.627" transform="translate(-101.757 -50.711)" fill="#fff"/>
        <path id="Trazado_1278316" data-name="Trazado 1278316" d="M158.184,133.679a2.749,2.749,0,1,1-2.749-2.806,2.778,2.778,0,0,1,2.749,2.806" transform="translate(-133.437 -114.029)" fill="#fff"/>
        <path id="Trazado_1278317" data-name="Trazado 1278317" d="M60.974,191.889l-2.763.022,0-2.82a2.792,2.792,0,0,1,2.761,2.8" transform="translate(-50.872 -164.754)" fill="#fff"/>
        <path id="Trazado_1278318" data-name="Trazado 1278318" d="M271.683,191.928l-2.753-.012a2.782,2.782,0,0,1,2.752-2.8Z" transform="translate(-235.027 -164.773)" fill="#fff"/>
        <path id="Trazado_1278319" data-name="Trazado 1278319" d="M60.868,94.6a2.734,2.734,0,0,1-2.693,2.813L58.152,94.6Z" transform="translate(-50.821 -82.421)" fill="#fff"/>
        <path id="Trazado_1278320" data-name="Trazado 1278320" d="M271.621,94.479l.022,2.805a2.787,2.787,0,0,1-2.765-2.776Z" transform="translate(-234.981 -82.319)" fill="#fff"/>
      </g>
    </g>
  </g>
</svg>
