<svg xmlns="http://www.w3.org/2000/svg" xmlns:xlink="http://www.w3.org/1999/xlink" width="96" height="96" viewBox="0 0 96 96">
  <defs>
    <clipPath id="clip-path">
      <rect id="Rectángulo_454829" data-name="Rectángulo 454829" width="96" height="96" fill="#1e535a"/>
    </clipPath>
    <clipPath id="clip-path-2">
      <rect id="Rectángulo_463131" data-name="Rectángulo 463131" width="35.927" height="35.261" fill="#1e535a"/>
    </clipPath>
  </defs>
  <g id="Grupo_1212592" data-name="Grupo 1212592" transform="translate(-1481 -8562.5)">
    <g id="Grupo_1177591" data-name="Grupo 1177591" transform="translate(1481 8562.5)">
      <g id="Grupo_1177589" data-name="Grupo 1177589" transform="translate(0 0)">
        <g id="Grupo_1177587" data-name="Grupo 1177587" clip-path="url(#clip-path)">
          <path id="Trazado_997422" data-name="Trazado 997422" d="M92.081,42.491a44.136,44.136,0,0,0-9.97-22.967,5.076,5.076,0,0,0-7.142-6.838A44.071,44.071,0,0,0,52.151,3.77a5.077,5.077,0,0,0-9.861.2A44.132,44.132,0,0,0,20.4,13.329a5.079,5.079,0,0,0-7.048,7.1A44.1,44.1,0,0,0,4.112,42.448,5.08,5.08,0,0,0,3.99,52.4a44.082,44.082,0,0,0,8.949,22.468,5.078,5.078,0,0,0,6.9,7.17,44.128,44.128,0,0,0,22.412,9.8,5.078,5.078,0,0,0,9.949.2,44.091,44.091,0,0,0,22.985-9.08,5.077,5.077,0,0,0,7.107-6.874A44.147,44.147,0,0,0,92.2,52.349a5.078,5.078,0,0,0-.119-9.858M77.74,22.024a5.05,5.05,0,0,0,2.812-.851,41.913,41.913,0,0,1,9.25,21.3,5.086,5.086,0,0,0-3.246,2.351l-12.98-4.867c.01-.142.02-.286.02-.433a5.079,5.079,0,0,0-2.151-4.15l5.678-13.4a5.5,5.5,0,0,0,.616.041M75,21.216,69.354,34.523a5.026,5.026,0,0,0-5.594,3.23L40.279,32.344a4.941,4.941,0,0,0-.106-1.011l33.322-11.6A5.1,5.1,0,0,0,75,21.216M47.246,10.165a5.083,5.083,0,0,0,4.989-4.122,41.844,41.844,0,0,1,21.158,8.275,5.054,5.054,0,0,0-.735,2.625,5.335,5.335,0,0,0,.048.671L39.217,29.273a5.1,5.1,0,0,0-.92-.92l8.784-18.2c.056,0,.109.008.165.008M42.3,6.243A5.083,5.083,0,0,0,44.86,9.569L36.248,27.4a5.1,5.1,0,0,0-1.049-.109,5.045,5.045,0,0,0-2.9.91L22.1,19.678A5.052,5.052,0,0,0,21.923,15,41.877,41.877,0,0,1,42.3,6.243M10.041,46.332,31.153,35.442a5.064,5.064,0,0,0,4.006,2.014l7.236,23.129a5.166,5.166,0,0,0-1.12,1.239l-31.3-13.04a5.048,5.048,0,0,0,.187-1.348,5.107,5.107,0,0,0-.124-1.1m4.986-24.391a5.079,5.079,0,0,0,5.673-.484l10.079,8.417a5.068,5.068,0,0,0-.56,3.512L9.07,44.29A5.081,5.081,0,0,0,6.38,42.526a41.859,41.859,0,0,1,8.647-20.585m2.1,50.717a5.067,5.067,0,0,0-2.523.674A41.822,41.822,0,0,1,6.263,52.374,5.087,5.087,0,0,0,8.9,50.783l31.609,13.17a5.45,5.45,0,0,0-.041.611,5.081,5.081,0,0,0,.3,1.718L21.657,75.44a5.081,5.081,0,0,0-4.528-2.782M42.349,89.575a41.919,41.919,0,0,1-20.912-9.149,5.029,5.029,0,0,0,.775-2.686l0-.058L42,68.2A5.082,5.082,0,0,0,43.8,69.329l1.186,17.043a5.082,5.082,0,0,0-2.632,3.2m2.105-29.97-7.081-22.64a5.089,5.089,0,0,0,2.415-2.415L63.459,40a5.052,5.052,0,0,0,.808,2.311L48.032,60.13a5.019,5.019,0,0,0-3.577-.524m7.74,30.167a5.081,5.081,0,0,0-4.948-3.937l-.038,0L46.081,69.62a5.073,5.073,0,0,0,3.106-1.507L72.853,78.551c0,.046-.008.086-.008.132a5.057,5.057,0,0,0,.752,2.65,41.841,41.841,0,0,1-21.4,8.439M73.423,76.334,50.373,66.165a5.052,5.052,0,0,0-.666-4.52L65.893,43.877a5.052,5.052,0,0,0,2.622.735,5.594,5.594,0,0,0,.623-.041l6.05,29.836a5.071,5.071,0,0,0-1.766,1.928m7.292-1.9a5.051,5.051,0,0,0-3.377-.8L71.285,43.788a5.1,5.1,0,0,0,1.6-1.672L85.858,46.98a4.506,4.506,0,0,0-.023.456,5.08,5.08,0,0,0,4.084,4.981,41.876,41.876,0,0,1-9.2,22.017" transform="translate(0 0.001)" fill="#1e535a"/>
        </g>
      </g>
    </g>
    <g id="Elipse_13614" data-name="Elipse 13614" transform="translate(1497.965 8578.952)" fill="#d5f4f8" stroke="#1e535a" stroke-width="3">
      <ellipse cx="31.232" cy="31.233" rx="31.232" ry="31.233" stroke="none"/>
      <ellipse cx="31.232" cy="31.233" rx="29.732" ry="29.733" fill="none"/>
    </g>
    <g id="Grupo_1213420" data-name="Grupo 1213420" transform="translate(1510.965 8592.952)">
      <g id="Grupo_1213419" data-name="Grupo 1213419" clip-path="url(#clip-path-2)">
        <path id="Trazado_1280131" data-name="Trazado 1280131" d="M236.549,271.017l-.007-2.21a.4.4,0,1,0-.807,0v2.2H228.64l0-2.189a.613.613,0,0,0-.264-.414c-.127-.066-.538.072-.539.238L227.817,271l-1.352.013a.583.583,0,0,1-.537-.51l0-3.124a4.683,4.683,0,0,1,3.059-4.432l1.522,2.382a.466.466,0,0,0,.589.088l1.122-1.128,1.117,1.124a.432.432,0,0,0,.588-.087l1.533-2.392a4.529,4.529,0,0,1,3.011,4.028l.033,3.538a.6.6,0,0,1-.429.505Z" transform="translate(-202.575 -235.756)" fill="#1e535a"/>
        <path id="Trazado_1280132" data-name="Trazado 1280132" d="M16.191,3.529H.468C.258,3.5.019,3.29.018,3.12l0-2.628A.534.534,0,0,1,.48,0H16.055a.534.534,0,0,1,.592.523l0,2.577c0,.168-.193.361-.457.429M10.579,1.771a.542.542,0,1,0-.542.542.542.542,0,0,0,.542-.542m2.543,0a.543.543,0,1,0-.542.542.543.543,0,0,0,.542-.542m2.549,0a.544.544,0,1,0-.544.544.544.544,0,0,0,.544-.544m-9.831.4A.45.45,0,0,0,6.262,1.7a.5.5,0,0,0-.422-.342H1.17c-.181,0-.446.194-.456.343a.689.689,0,0,0,.252.466Z" transform="translate(-0.013)" fill="#1e535a"/>
        <path id="Trazado_1280133" data-name="Trazado 1280133" d="M16.064,137.42l-15.588,0a.507.507,0,0,1-.452-.5V134.3a.519.519,0,0,1,.451-.4H16.165a.511.511,0,0,1,.494.517l-.006,2.478a.538.538,0,0,1-.59.529m-5.473-1.774a.542.542,0,1,0-.542.542.542.542,0,0,0,.542-.542m2.538,0a.54.54,0,1,0-.54.54.54.54,0,0,0,.54-.54m2.548,0a.54.54,0,1,0-.54.54.54.54,0,0,0,.54-.54m-9.825.432a.547.547,0,0,0,.42-.37.568.568,0,0,0-.322-.464l-4.972,0a.566.566,0,0,0-.229.544.621.621,0,0,0,.427.284Z" transform="translate(-0.022 -120.056)" fill="#1e535a"/>
        <path id="Trazado_1280134" data-name="Trazado 1280134" d="M16.178,70.512l-15.723,0A.523.523,0,0,1,0,70l.007-2.627a.517.517,0,0,1,.449-.386H16.042a.516.516,0,0,1,.593.518V70.09c0,.137-.221.341-.456.422m-5.612-1.773a.542.542,0,1,0-.542.542.542.542,0,0,0,.542-.542m2.542,0a.544.544,0,1,0-.544.544.544.544,0,0,0,.544-.544m2.548,0a.543.543,0,1,0-.543.543.543.543,0,0,0,.543-.543m-9.828.416c.161,0,.427-.225.423-.366A.833.833,0,0,0,6,68.345H1.162A.425.425,0,0,0,.7,68.8a.5.5,0,0,0,.459.353Z" transform="translate(0 -60.06)" fill="#1e535a"/>
        <path id="Trazado_1280135" data-name="Trazado 1280135" d="M153.748,274.138l.053,3.474h-4.989l0-2a.551.551,0,0,0-.364-.412c-.141-.019-.44.185-.44.327L148,277.609l-1.282,0a.565.565,0,0,1-.388-.407l.027-3.118a4.155,4.155,0,0,1,2.74-3.788l1.365,2.152c.074.117.435.233.546.128l1.079-1.021.92.923a.577.577,0,0,0,.38.152.825.825,0,0,0,.312-.247l.374-.5a9.1,9.1,0,0,0-.328,2.254" transform="translate(-131.209 -242.358)" fill="#1e535a"/>
        <rect id="Rectángulo_463129" data-name="Rectángulo 463129" width="13.029" height="1.747" transform="translate(1.799 11.264)" fill="#1e535a"/>
        <rect id="Rectángulo_463130" data-name="Rectángulo 463130" width="13.029" height="1.735" transform="translate(1.799 4.362)" fill="#1e535a"/>
        <path id="Trazado_1280136" data-name="Trazado 1280136" d="M213.6,30.607a.409.409,0,1,1-.814-.033l0-10.636-7.935,0a.707.707,0,0,1-.284-.456.542.542,0,0,1,.394-.367h8.246a.468.468,0,0,1,.392.417Z" transform="translate(-183.427 -17.142)" fill="#1e535a"/>
        <path id="Trazado_1280137" data-name="Trazado 1280137" d="M34.573,209.773l-8.214,0a.439.439,0,0,1-.449-.441v-11.06a.482.482,0,0,1,.4-.424c.14-.013.426.174.426.363l0,10.736,7.887,0a.9.9,0,0,1,.326.347.493.493,0,0,1-.373.479" transform="translate(-23.232 -177.401)" fill="#1e535a"/>
        <path id="Trazado_1280138" data-name="Trazado 1280138" d="M267.286,196.618a1.711,1.711,0,0,1-2.3.112,3.43,3.43,0,0,1-1.383-2.862,24.9,24.9,0,0,0,3.142-1.007l1.761.556a3.927,3.927,0,0,1-1.223,3.2" transform="translate(-236.351 -172.926)" fill="#1e535a"/>
        <path id="Trazado_1280139" data-name="Trazado 1280139" d="M182.292,216.983a3.2,3.2,0,0,1-1.728-2.775l1.285-.383,1.576-.563,1.574.485c.293,1.807-1.37,3.865-2.707,3.236" transform="translate(-161.9 -191.218)" fill="#1e535a"/>
        <path id="Trazado_1280140" data-name="Trazado 1280140" d="M256.9,163.531a3.933,3.933,0,0,1-2.363,2.2l-3.12.9a3.565,3.565,0,0,1,1.778-3.057,3.5,3.5,0,0,1,3.705-.041" transform="translate(-225.431 -146.169)" fill="#1e535a"/>
        <path id="Trazado_1280141" data-name="Trazado 1280141" d="M181.82,190.892c-.421-.385-.713-.182-1.084-.009a14.893,14.893,0,0,1-2.516.8,2.237,2.237,0,0,1,.57-1.962,2.461,2.461,0,0,1,1.885-.653,2.184,2.184,0,0,1,2.478,2.2Z" transform="translate(-159.763 -169.518)" fill="#1e535a"/>
        <path id="Trazado_1280142" data-name="Trazado 1280142" d="M253.2,209.634a2.771,2.771,0,0,1-1.9-2.51l-.045-1.963.429-.192a4.542,4.542,0,0,0,1.766,3.293Z" transform="translate(-225.278 -183.783)" fill="#1e535a"/>
        <path id="Trazado_1280143" data-name="Trazado 1280143" d="M303.521,202.861a2.9,2.9,0,0,1-1.941,2.773l-.2-1.316a4.607,4.607,0,0,0,1.85-3.812c-.019-.052.286.011.286.1Z" transform="translate(-270.232 -179.764)" fill="#1e535a"/>
        <path id="Trazado_1280144" data-name="Trazado 1280144" d="M279.54,242.609l-.97.974-.949-.951.2-1.515a4.133,4.133,0,0,0,1.458.021Z" transform="translate(-248.925 -216.195)" fill="#1e535a"/>
        <path id="Trazado_1280145" data-name="Trazado 1280145" d="M303.273,174.772l-2.077-.546,1.017-1.475a3.332,3.332,0,0,1,1.06,2.021" transform="translate(-270.063 -154.895)" fill="#1e535a"/>
        <path id="Trazado_1280146" data-name="Trazado 1280146" d="M195.327,257.917l-.854.865-.852-.85.1-.569a4.7,4.7,0,0,0,1.49.018Z" transform="translate(-173.607 -230.761)" fill="#1e535a"/>
        <path id="Trazado_1280147" data-name="Trazado 1280147" d="M265.416,261.064l-.731.723-1.093-1.722.749-.093Z" transform="translate(-236.346 -233.101)" fill="#1e535a"/>
        <path id="Trazado_1280148" data-name="Trazado 1280148" d="M293.093,261.894l-.727-.727,1.067-1.081.748.075Z" transform="translate(-262.145 -233.203)" fill="#1e535a"/>
        <path id="Trazado_1280149" data-name="Trazado 1280149" d="M182.716,268.224l-.619.618-.938-1.49.588-.095Z" transform="translate(-162.434 -239.632)" fill="#1e535a"/>
        <path id="Trazado_1280150" data-name="Trazado 1280150" d="M208.018,268.9l-.62-.613.986-.963.569.081Z" transform="translate(-185.961 -239.692)" fill="#1e535a"/>
      </g>
    </g>
  </g>
</svg>
