<svg xmlns="http://www.w3.org/2000/svg" xmlns:xlink="http://www.w3.org/1999/xlink" width="396" height="375.792" viewBox="0 0 396 375.792">
  <defs>
    <clipPath id="clip-path">
      <rect id="Rectángulo_459900" data-name="Rectángulo 459900" width="396" height="367.239" fill="#d5f4f8"/>
    </clipPath>
    <clipPath id="clip-path-2">
      <rect id="Rectángulo_462282" data-name="Rectángulo 462282" width="396" height="375.792" fill="none"/>
    </clipPath>
    <clipPath id="clip-path-3">
      <rect id="Rectángulo_462235" data-name="Rectángulo 462235" width="396" height="387.636" fill="none"/>
    </clipPath>
    <clipPath id="clip-path-4">
      <rect id="Rectángulo_462199" data-name="Rectángulo 462199" width="91.436" height="20.482" fill="none"/>
    </clipPath>
    <clipPath id="clip-path-5">
      <rect id="Rectángulo_462200" data-name="Rectángulo 462200" width="39.675" height="31.261" fill="none"/>
    </clipPath>
    <clipPath id="clip-path-6">
      <rect id="Rectángulo_462201" data-name="Rectángulo 462201" width="24.363" height="17.548" fill="none"/>
    </clipPath>
    <clipPath id="clip-path-7">
      <rect id="Rectángulo_462202" data-name="Rectángulo 462202" width="5.614" height="7.743" fill="none"/>
    </clipPath>
    <clipPath id="clip-path-8">
      <rect id="Rectángulo_462281" data-name="Rectángulo 462281" width="361.981" height="361.981" fill="none"/>
    </clipPath>
  </defs>
  <g id="Grupo_1208892" data-name="Grupo 1208892" transform="translate(0 74.121)">
    <g id="Grupo_1208887" data-name="Grupo 1208887" transform="translate(0 -65.567)">
      <g id="Grupo_1208886" data-name="Grupo 1208886" clip-path="url(#clip-path)">
        <path id="Trazado_1271624" data-name="Trazado 1271624" d="M16.41,298.769c18.432,50.527,57.014,66.513,102.557,66.513,79.539,0,72.053-20.137,109.87-29.823,56.67-13.888,136.923-8.484,163.271-97.214,17.3-71.771-26.41-150.933-65.486-191.09C202.35-73.218-69.259,46.273,16.41,298.769" transform="translate(0 -0.001)" fill="#fff7df"/>
      </g>
    </g>
    <g id="Grupo_1212701" data-name="Grupo 1212701" transform="translate(0 -74.121)">
      <g id="Grupo_1212700" data-name="Grupo 1212700" clip-path="url(#clip-path-2)">
        <rect id="Rectángulo_462198" data-name="Rectángulo 462198" width="396" height="48.757" transform="translate(0 327.035)" fill="#e2eaf2"/>
        <g id="Grupo_1212697" data-name="Grupo 1212697" transform="translate(0 -11.844)">
          <g id="Grupo_1212696" data-name="Grupo 1212696" transform="translate(0 0)" clip-path="url(#clip-path-3)">
            <path id="Trazado_1277542" data-name="Trazado 1277542" d="M286.249,239.847s8.447,1.306,17.338,10.88,22.675,65.718,22.675,65.718,12.449-26.983,19.118-30.03,19.118-1.74,24.9,6.964-4.891,28.724-12,37.864-25.788,24.807-36.457,23.067-28.455-8.7-28.455-8.7Z" transform="translate(-78.148 -53.901)" fill="#6b8bd1"/>
            <path id="Trazado_1277543" data-name="Trazado 1277543" d="M192.536,402.7s-5.716,11.7-5.716,23.907,2.615,51.529,2.615,51.529H280.89s2.062-61.7-4.174-73.4c-22.864,4.069-84.18-2.034-84.18-2.034" transform="translate(-57.467 -90.497)" fill="#344866"/>
            <g id="Grupo_1212686" data-name="Grupo 1212686" transform="translate(130.856 312.202)" opacity="0.25" style="mix-blend-mode: multiply;isolation: isolate">
              <g id="Grupo_1212685" data-name="Grupo 1212685">
                <g id="Grupo_1212684" data-name="Grupo 1212684" clip-path="url(#clip-path-4)">
                  <path id="Trazado_1277544" data-name="Trazado 1277544" d="M280.153,418.725a171.3,171.3,0,0,1-91.436-3.822,65.371,65.371,0,0,1,4.213-12.2s61.317,6.1,84.182,2.031c1.386,2.6,2.36,7.675,3.041,13.994" transform="translate(-188.717 -402.7)" fill="#4a2d3e"/>
                </g>
              </g>
            </g>
            <path id="Trazado_1277545" data-name="Trazado 1277545" d="M225.868,232.733s-24.536,1.051-28.579,9.189-12.362,107.8-10.34,112.888,5.56,6.1,5.56,6.1-2.527,7.63.505,9.665,68.235,11.7,86.43,1.526c1.517-2.543-1.011-11.19-1.011-11.19s1.011,3.052,4.549-4.069,1.173-91.438-9.068-113.158c-3.139-6.659-25.3-11.971-48.047-10.954" transform="translate(-57.429 -52.274)" fill="#6b8bd1"/>
            <g id="Grupo_1212689" data-name="Grupo 1212689" transform="translate(139.964 247.595)" opacity="0.25" style="mix-blend-mode: multiply;isolation: isolate">
              <g id="Grupo_1212688" data-name="Grupo 1212688">
                <g id="Grupo_1212687" data-name="Grupo 1212687" clip-path="url(#clip-path-5)">
                  <path id="Trazado_1277546" data-name="Trazado 1277546" d="M204.835,319.366c3.511,16.228,35.057,31.261,35.057,31.261s-36.551-9.756-39.675-10.2Z" transform="translate(-200.217 -319.366)" fill="#6b8bd1"/>
                </g>
              </g>
            </g>
            <path id="Trazado_1277547" data-name="Trazado 1277547" d="M234.089,229.118c5.4,7.486,24.1,10.412,26.938,8.1,1.38-1.124,1.582-5.639,1.437-9.983-.164-4.581-.733-8.982-.733-8.982s-12.611-3.089-20.725-7.905a47.773,47.773,0,0,1-5.735-4.82c-1.182,8.326-4.017,19.66-1.182,23.592" transform="translate(-67.045 -46.188)" fill="#fca695"/>
            <g id="Grupo_1212692" data-name="Grupo 1212692" transform="translate(171.056 163.498)" opacity="0.46" style="mix-blend-mode: multiply;isolation: isolate">
              <g id="Grupo_1212691" data-name="Grupo 1212691">
                <g id="Grupo_1212690" data-name="Grupo 1212690" clip-path="url(#clip-path-6)">
                  <path id="Trazado_1277548" data-name="Trazado 1277548" d="M239.475,210.891a25.5,25.5,0,0,0,8.51,12.722c4.438,3.6,11.463,4.58,15.853,4.826-.164-4.58-.733-8.982-.733-8.982s-12.61-3.088-20.725-7.9Z" transform="translate(-239.475 -210.891)" fill="#fca695"/>
                </g>
              </g>
            </g>
            <path id="Trazado_1277549" data-name="Trazado 1277549" d="M280.574,162.973c1.56,6.861,1.738,34.086-5.647,40.529-10.869,9.484-37.271,1.855-44.423-15.5-6.067-14.719-5.411-39.806,11.219-44.5,20.22-5.708,35.634,5.326,38.851,19.469" transform="translate(-65.823 -31.905)" fill="#fca695"/>
            <path id="Trazado_1277550" data-name="Trazado 1277550" d="M235.583,179.908s7.088-11.1,4.253-27.294c7.325,4.4,38.28,4.163,42.769,3.238s.946-10.409-17.013-17.81-33.789-.925-34.026,6.014c-2.363-6.939-4.489-7.171-5.908-4.394s4.963,5.551,4.963,5.551-6.852,4.626-7.561,15.96,6.616,28.912,12.523,18.735" transform="translate(-64.994 -30.285)" fill="#5a2402"/>
            <path id="Trazado_1277551" data-name="Trazado 1277551" d="M273.476,179.942s3.9,11.449,2.481,14.052-5.848,1.734-7.089.173" transform="translate(-74.533 -40.438)" fill="none" stroke="#db7665" stroke-linecap="round" stroke-miterlimit="10" stroke-width="1"/>
            <path id="Trazado_1277552" data-name="Trazado 1277552" d="M287.569,167.1c-2.6-2.949-7.443-3.123-10.1-1.908s-.886,5.551,1.24,5.031,5.848-1.041,7.8-.347,1.968-1.75,1.064-2.775" transform="translate(-76.043 -36.965)" fill="#5a2402"/>
            <path id="Trazado_1277553" data-name="Trazado 1277553" d="M249.407,168c2.6-2.949,7.443-3.123,10.1-1.908s.886,5.551-1.24,5.031-5.848-1.041-7.8-.347-1.967-1.75-1.063-2.776" transform="translate(-70.365 -37.166)" fill="#5a2402"/>
            <path id="Trazado_1277554" data-name="Trazado 1277554" d="M279.833,180.7c0,1.533.952,2.775,2.127,2.775s2.127-1.243,2.127-2.775-.952-2.775-2.127-2.775-2.127,1.243-2.127,2.775" transform="translate(-76.813 -39.986)" fill="#5a2402"/>
            <path id="Trazado_1277555" data-name="Trazado 1277555" d="M255.89,181.6c0,1.533.952,2.775,2.127,2.775s2.127-1.243,2.127-2.775-.952-2.775-2.127-2.775-2.127,1.243-2.127,2.775" transform="translate(-71.833 -40.187)" fill="#5a2402"/>
            <path id="Trazado_1277556" data-name="Trazado 1277556" d="M271.3,205.311s-4.784,0-7.266-1.214-3.544-1.041-3.9.347,1.949,4.337,5.317,5.031,5.848-.52,7.088-2.255,0-1.734-1.24-1.908" transform="translate(-72.708 -45.684)" fill="#fff"/>
            <path id="Trazado_1277557" data-name="Trazado 1277557" d="M233.837,185.259s-3.013-5.551-7.621-3.643c-4.03,1.669-3.367,5.725-2.127,8.847s4.962,6.245,7.621,6.071,5.317-3.469,2.126-11.276" transform="translate(-65.02 -40.725)" fill="#fca695"/>
            <path id="Trazado_1277558" data-name="Trazado 1277558" d="M232.911,193.666c1.713-1.561.365-7.065-2.658-8.674-2.717-1.446-3.9,2.255-3.9,2.255" transform="translate(-65.69 -41.498)" fill="none" stroke="#db7665" stroke-linecap="round" stroke-miterlimit="10" stroke-width="1"/>
            <g id="Grupo_1212695" data-name="Grupo 1212695" transform="translate(162.323 143.494)" opacity="0.46" style="mix-blend-mode: multiply;isolation: isolate">
              <g id="Grupo_1212694" data-name="Grupo 1212694">
                <g id="Grupo_1212693" data-name="Grupo 1212693" clip-path="url(#clip-path-7)">
                  <path id="Trazado_1277559" data-name="Trazado 1277559" d="M234.055,192.548s-4.43,1.908-5.494-4.163c-.709-3.3,2.127-3.3,2.127-3.3a9.242,9.242,0,0,1,3.367,7.46" transform="translate(-228.448 -185.089)" fill="#fca695"/>
                </g>
              </g>
            </g>
            <path id="Trazado_1277560" data-name="Trazado 1277560" d="M233.509,188.59s-3.071-.347-3.426,2.429" transform="translate(-66.465 -42.379)" fill="none" stroke="#db7665" stroke-linecap="round" stroke-miterlimit="10" stroke-width="1"/>
            <path id="Trazado_1277561" data-name="Trazado 1277561" d="M262.539,222.767s-18.9,0-26.937-14.109" transform="translate(-67.613 -46.892)" fill="none" stroke="#db7665" stroke-linecap="round" stroke-miterlimit="10" stroke-width="1"/>
            <path id="Trazado_1277562" data-name="Trazado 1277562" d="M224.218,236s2.427-12.9,6.7-13.705c2.9-.546,6.674,2.942,16,4.217,10.283,1.4,13.077-.73,15.528,1.73,2,2.007,1.157,16.991,1.157,16.991S235.65,249.222,224.218,236" transform="translate(-65.245 -49.943)" fill="#6b8bd1"/>
            <path id="Trazado_1277563" data-name="Trazado 1277563" d="M226.1,237.648s15.5,13.562,38.352,5.916" transform="translate(-65.637 -53.406)" fill="none" stroke="#4264a0" stroke-linecap="round" stroke-miterlimit="10" stroke-width="1"/>
            <path id="Trazado_1277564" data-name="Trazado 1277564" d="M194.688,397.265s45.706,9.061,78.685,1.133" transform="translate(-59.103 -89.277)" fill="none" stroke="#4264a0" stroke-linecap="round" stroke-miterlimit="10" stroke-width="1"/>
            <path id="Trazado_1277565" data-name="Trazado 1277565" d="M198.649,237.957c-12.937,4.863-24.917,19.058-28.981,34.4S157.032,337.5,160.516,348.3s55.154,27.279,69.088,22.732,15.676-13.071,15.1-25.574-27.868-19.322-53.413-22.733c10.45-30.12,7.363-84.764,7.363-84.764" transform="translate(-51.826 -53.476)" fill="#6b8bd1"/>
            <path id="Trazado_1277566" data-name="Trazado 1277566" d="M199.4,366.523c15.095,4.9,31.5,7.885,38.463,5.612,13.934-4.546,15.676-13.071,15.1-25.574s-27.868-19.323-53.413-22.733c10.45-30.121,8.082-80.945,8.082-80.945" transform="translate(-60.083 -54.583)" fill="none" stroke="#4264a0" stroke-linecap="round" stroke-miterlimit="10" stroke-width="1"/>
            <path id="Trazado_1277567" data-name="Trazado 1277567" d="M197.648,346.536c-6.557,3.793-9.78,10.805-9.78,10.805" transform="translate(-57.685 -77.876)" fill="none" stroke="#4264a0" stroke-linecap="round" stroke-miterlimit="10" stroke-width="1"/>
            <path id="Trazado_1277568" data-name="Trazado 1277568" d="M309.184,361.185H375.7a9.487,9.487,0,0,0,8.525-6.462l10.806-36.284c1.063-3.569-1.031-6.462-4.677-6.462H323.838a9.485,9.485,0,0,0-8.525,6.462l-10.806,36.284c-1.063,3.569,1.031,6.462,4.677,6.462" transform="translate(-81.888 -70.11)" fill="#87a1cf"/>
            <path id="Trazado_1277569" data-name="Trazado 1277569" d="M311.888,361.185h66.519a9.487,9.487,0,0,0,8.525-6.462l10.806-36.284c1.063-3.569-1.031-6.462-4.677-6.462H326.542a9.485,9.485,0,0,0-8.525,6.462l-10.806,36.284c-1.063,3.569,1.031,6.462,4.677,6.462" transform="translate(-82.45 -70.11)" fill="#aac2e5"/>
            <path id="Trazado_1277570" data-name="Trazado 1277570" d="M277.773,375.449H373.3a3.181,3.181,0,1,1,0,6.36H277.773a3.181,3.181,0,1,1,0-6.36" transform="translate(-75.709 -84.374)" fill="#87a1cf"/>
            <path id="Trazado_1277571" data-name="Trazado 1277571" d="M300.935,375.449h77.181a3.181,3.181,0,1,1,0,6.36H300.935a3.181,3.181,0,1,1,0-6.36" transform="translate(-80.527 -84.374)" fill="#aac2e5"/>
            <line id="Línea_3329" data-name="Línea 3329" x1="66.519" transform="translate(229.438 291.075)" fill="none" stroke="#4e6989" stroke-miterlimit="10" stroke-width="1"/>
            <path id="Trazado_1277572" data-name="Trazado 1277572" d="M365.256,349.843s10.916-6.356,9.464-10.653-6.7-.268-6.7-.268-3.212-4.028-6.837.268,4.074,10.653,4.074,10.653" transform="translate(-93.532 -75.78)" fill="#fff"/>
            <path id="Trazado_1277573" data-name="Trazado 1277573" d="M265.621,371.947a8.066,8.066,0,0,0-5.237,7.909c-.033,6.3,1.622,6.932,1.622,6.932s19,2.276,24.66,1.45,26.935-4.749,27.686-8.551-16.863.019-29.665-2.511c-6.059-2.482-3.4-5.1-1.034-7.453s4.56-6.912,2.371-8.112-4.834,1.14-6.359,3.535-14.043,6.8-14.043,6.8" transform="translate(-72.768 -81.191)" fill="#fca695"/>
            <path id="Trazado_1277574" data-name="Trazado 1277574" d="M293.546,248.267s11.56,42.216,12,75.727" transform="translate(-79.666 -55.793)" fill="none" stroke="#4264a0" stroke-linecap="round" stroke-miterlimit="10" stroke-width="1"/>
            <path id="Trazado_1277575" data-name="Trazado 1277575" d="M368.544,289.419s3.857,8.306,16.2,6.418c4.628-3.776,11.572-13.215,13.886-17.745s8.871-21.144,7.714-24.542-8.1-7.551-12.343-6.8S381.273,261.1,379.73,263.367s-1.928-1.51-2.7-5.286-2.7-8.306-5.786-7.174-3.471,1.51-1.543,6.8-.771,12.082-.386,16.236,1.543,6.418,1.543,9.439-2.314,6.041-2.314,6.041" transform="translate(-95.261 -55.433)" fill="#fca695"/>
            <path id="Trazado_1277576" data-name="Trazado 1277576" d="M380.879,268.408a20.075,20.075,0,0,1,1.27,10.182" transform="translate(-97.831 -60.319)" fill="none" stroke="#db7665" stroke-linecap="round" stroke-miterlimit="10" stroke-width="1"/>
            <line id="Línea_3330" data-name="Línea 3330" x1="11.497" y2="19.457" transform="translate(289.701 191.695)" fill="none" stroke="#db7665" stroke-linecap="round" stroke-miterlimit="10" stroke-width="1"/>
            <line id="Línea_3331" data-name="Línea 3331" x1="10.134" y2="21.364" transform="translate(294.768 192.648)" fill="none" stroke="#db7665" stroke-linecap="round" stroke-miterlimit="10" stroke-width="1"/>
            <line id="Línea_3332" data-name="Línea 3332" x1="8.379" y2="21.556" transform="translate(299.445 194.747)" fill="none" stroke="#db7665" stroke-linecap="round" stroke-miterlimit="10" stroke-width="1"/>
            <path id="Trazado_1277577" data-name="Trazado 1277577" d="M224,457.076l25.312,8.544,24.439-10.252" transform="translate(-65.201 -102.334)" fill="none" stroke="#6cb9ff" stroke-linecap="round" stroke-miterlimit="10" stroke-width="1"/>
            <line id="Línea_3333" data-name="Línea 3333" y2="24.178" transform="translate(184.115 363.286)" fill="none" stroke="#6cb9ff" stroke-linecap="round" stroke-miterlimit="10" stroke-width="1"/>
            <path id="Trazado_1277578" data-name="Trazado 1277578" d="M421.764,41.815a23.128,23.128,0,0,0-6.177.841A19.005,19.005,0,0,0,378.8,48.888c0,.14.008.277.011.415a19.437,19.437,0,0,0-2.94-.223,18.547,18.547,0,1,0,0,37.086h45.892a22.18,22.18,0,1,0,0-44.35" transform="translate(-92.849 -6.82)" fill="#dcddde"/>
            <path id="Trazado_1277579" data-name="Trazado 1277579" d="M416.474,41.815a23.129,23.129,0,0,0-6.177.841,19.005,19.005,0,0,0-36.787,6.232c0,.14.008.277.011.415a19.438,19.438,0,0,0-2.94-.223,18.547,18.547,0,1,0,0,37.086h45.892a22.18,22.18,0,1,0,0-44.35" transform="translate(-91.749 -6.82)" fill="#fff"/>
            <path id="Trazado_1277580" data-name="Trazado 1277580" d="M421.764,41.815a23.128,23.128,0,0,0-6.177.841A19.005,19.005,0,0,0,378.8,48.888c0,.14.008.277.011.415a19.437,19.437,0,0,0-2.94-.223,18.547,18.547,0,1,0,0,37.086h45.892a22.18,22.18,0,1,0,0-44.35" transform="translate(-92.849 -6.82)" fill="#acbccc"/>
            <path id="Trazado_1277581" data-name="Trazado 1277581" d="M416.474,41.815a23.129,23.129,0,0,0-6.177.841,19.005,19.005,0,0,0-36.787,6.232c0,.14.008.277.011.415a19.438,19.438,0,0,0-2.94-.223,18.547,18.547,0,1,0,0,37.086h45.892a22.18,22.18,0,1,0,0-44.35" transform="translate(-91.749 -6.82)" fill="#9ed1ff"/>
            <path id="Trazado_1277582" data-name="Trazado 1277582" d="M369.176,173.117a23.13,23.13,0,0,0-6.177.841,19.005,19.005,0,0,0-36.787,6.232c0,.14.008.277.011.415a19.436,19.436,0,0,0-2.94-.223,18.547,18.547,0,1,0,0,37.086h45.892a22.18,22.18,0,1,0,0-44.35" transform="translate(-81.911 -36.327)" fill="#acbccc"/>
            <path id="Trazado_1277583" data-name="Trazado 1277583" d="M363.886,173.117a23.129,23.129,0,0,0-6.177.841,19.005,19.005,0,0,0-36.787,6.232c0,.14.008.277.011.415a19.436,19.436,0,0,0-2.94-.223,18.547,18.547,0,1,0,0,37.086h45.892a22.18,22.18,0,1,0,0-44.35" transform="translate(-80.811 -36.327)" fill="#9ed1ff"/>
            <path id="Trazado_1277584" data-name="Trazado 1277584" d="M218.668,32.8a23.129,23.129,0,0,0-6.177.841A19.005,19.005,0,0,0,175.7,39.87c0,.139.008.276.011.415a19.436,19.436,0,0,0-2.94-.223,18.547,18.547,0,1,0,0,37.085h45.892a22.18,22.18,0,1,0,0-44.35" transform="translate(-50.605 -4.794)" fill="#acbccc"/>
            <path id="Trazado_1277585" data-name="Trazado 1277585" d="M213.378,32.8a23.129,23.129,0,0,0-6.177.841,19.005,19.005,0,0,0-36.787,6.232c0,.139.008.276.011.415a19.437,19.437,0,0,0-2.94-.223,18.547,18.547,0,1,0,0,37.085h45.892a22.18,22.18,0,1,0,0-44.35" transform="translate(-49.505 -4.794)" fill="#9ed1ff"/>
            <path id="Trazado_1277586" data-name="Trazado 1277586" d="M403.341,341.107l6.154.428a4.494,4.494,0,0,1,4.227,4.442v52.181a7,7,0,0,0,14-.083L425.45,214.915a6.587,6.587,0,0,0-6.654-6.434h-5.075" transform="translate(-102.503 -46.852)" fill="none" stroke="#a8c5e2" stroke-miterlimit="10" stroke-width="1"/>
            <path id="Trazado_1277587" data-name="Trazado 1277587" d="M414.473,210.489h-2.347v-5.655h2.347a2.828,2.828,0,1,1,0,5.655" transform="translate(-104.33 -46.032)" fill="#2c4c7c"/>
            <rect id="Rectángulo_462203" data-name="Rectángulo 462203" width="1.296" height="3.935" transform="translate(306.5 159.661)" fill="#4375bb"/>
            <rect id="Rectángulo_462204" data-name="Rectángulo 462204" width="0.893" height="0.198" transform="translate(306.701 160.025)" fill="#2c4c7c"/>
            <rect id="Rectángulo_462205" data-name="Rectángulo 462205" width="0.893" height="0.198" transform="translate(306.701 160.527)" fill="#2c4c7c"/>
            <rect id="Rectángulo_462206" data-name="Rectángulo 462206" width="0.893" height="0.198" transform="translate(306.701 161.028)" fill="#2c4c7c"/>
            <rect id="Rectángulo_462207" data-name="Rectángulo 462207" width="0.893" height="0.198" transform="translate(306.701 161.53)" fill="#2c4c7c"/>
            <rect id="Rectángulo_462208" data-name="Rectángulo 462208" width="0.893" height="0.198" transform="translate(306.701 162.031)" fill="#2c4c7c"/>
            <rect id="Rectángulo_462209" data-name="Rectángulo 462209" width="0.893" height="0.198" transform="translate(306.701 162.533)" fill="#2c4c7c"/>
            <rect id="Rectángulo_462210" data-name="Rectángulo 462210" width="0.893" height="0.198" transform="translate(306.701 163.035)" fill="#2c4c7c"/>
            <path id="Trazado_1277588" data-name="Trazado 1277588" d="M353.125,156.228v2.3h-5.777v-2.3a2.889,2.889,0,0,1,5.777,0" transform="translate(-90.856 -34.474)" fill="#2c4c7c"/>
            <rect id="Rectángulo_462211" data-name="Rectángulo 462211" width="4.02" height="1.268" transform="translate(257.37 124.052)" fill="#4375bb"/>
            <rect id="Rectángulo_462212" data-name="Rectángulo 462212" width="0.203" height="0.875" transform="translate(257.741 124.249)" fill="#2c4c7c"/>
            <rect id="Rectángulo_462213" data-name="Rectángulo 462213" width="0.203" height="0.875" transform="translate(258.254 124.249)" fill="#2c4c7c"/>
            <rect id="Rectángulo_462214" data-name="Rectángulo 462214" width="0.203" height="0.875" transform="translate(258.766 124.249)" fill="#2c4c7c"/>
            <rect id="Rectángulo_462215" data-name="Rectángulo 462215" width="0.203" height="0.875" transform="translate(259.279 124.249)" fill="#2c4c7c"/>
            <rect id="Rectángulo_462216" data-name="Rectángulo 462216" width="0.203" height="0.875" transform="translate(259.791 124.249)" fill="#2c4c7c"/>
            <rect id="Rectángulo_462217" data-name="Rectángulo 462217" width="0.203" height="0.875" transform="translate(260.303 124.249)" fill="#2c4c7c"/>
            <rect id="Rectángulo_462218" data-name="Rectángulo 462218" width="0.203" height="0.875" transform="translate(260.815 124.249)" fill="#2c4c7c"/>
            <path id="Trazado_1277589" data-name="Trazado 1277589" d="M403.712,106.6v-2.3h-5.777v2.3a2.889,2.889,0,0,0,5.777,0" transform="translate(-101.378 -23.441)" fill="#2c4c7c"/>
            <rect id="Rectángulo_462219" data-name="Rectángulo 462219" width="4.02" height="1.268" transform="translate(297.435 79.597)" fill="#4375bb"/>
            <rect id="Rectángulo_462220" data-name="Rectángulo 462220" width="0.203" height="0.875" transform="translate(297.806 79.794)" fill="#2c4c7c"/>
            <rect id="Rectángulo_462221" data-name="Rectángulo 462221" width="0.203" height="0.875" transform="translate(298.319 79.794)" fill="#2c4c7c"/>
            <rect id="Rectángulo_462222" data-name="Rectángulo 462222" width="0.203" height="0.875" transform="translate(298.831 79.794)" fill="#2c4c7c"/>
            <rect id="Rectángulo_462223" data-name="Rectángulo 462223" width="0.203" height="0.875" transform="translate(299.344 79.794)" fill="#2c4c7c"/>
            <rect id="Rectángulo_462224" data-name="Rectángulo 462224" width="0.203" height="0.875" transform="translate(299.856 79.794)" fill="#2c4c7c"/>
            <rect id="Rectángulo_462225" data-name="Rectángulo 462225" width="0.203" height="0.875" transform="translate(300.368 79.794)" fill="#2c4c7c"/>
            <rect id="Rectángulo_462226" data-name="Rectángulo 462226" width="0.203" height="0.875" transform="translate(300.88 79.794)" fill="#2c4c7c"/>
            <path id="Trazado_1277590" data-name="Trazado 1277590" d="M265.354,67.189h-2.347V61.534h2.347a2.828,2.828,0,1,1,0,5.655" transform="translate(-73.313 -13.829)" fill="#2c4c7c"/>
            <rect id="Rectángulo_462227" data-name="Rectángulo 462227" width="1.296" height="3.935" transform="translate(188.399 48.565)" fill="#4375bb"/>
            <rect id="Rectángulo_462228" data-name="Rectángulo 462228" width="0.893" height="0.198" transform="translate(188.6 48.929)" fill="#2c4c7c"/>
            <rect id="Rectángulo_462229" data-name="Rectángulo 462229" width="0.893" height="0.198" transform="translate(188.6 49.431)" fill="#2c4c7c"/>
            <rect id="Rectángulo_462230" data-name="Rectángulo 462230" width="0.893" height="0.198" transform="translate(188.6 49.932)" fill="#2c4c7c"/>
            <rect id="Rectángulo_462231" data-name="Rectángulo 462231" width="0.893" height="0.198" transform="translate(188.6 50.433)" fill="#2c4c7c"/>
            <rect id="Rectángulo_462232" data-name="Rectángulo 462232" width="0.893" height="0.198" transform="translate(188.6 50.935)" fill="#2c4c7c"/>
            <rect id="Rectángulo_462233" data-name="Rectángulo 462233" width="0.893" height="0.198" transform="translate(188.6 51.436)" fill="#2c4c7c"/>
            <rect id="Rectángulo_462234" data-name="Rectángulo 462234" width="0.893" height="0.198" transform="translate(188.6 51.938)" fill="#2c4c7c"/>
            <path id="Trazado_1277591" data-name="Trazado 1277591" d="M268.275,65.181h20.137a4.272,4.272,0,0,1,4.316,4.226v34.131a4.273,4.273,0,0,0,4.317,4.226h32.426a4.272,4.272,0,0,1,4.317,4.226v22.16" transform="translate(-74.409 -14.649)" fill="none" stroke="#a8c5e2" stroke-miterlimit="10" stroke-width="1"/>
            <path id="Trazado_1277592" data-name="Trazado 1277592" d="M391.033,109.663V129.12H350.867" transform="translate(-91.588 -24.645)" fill="none" stroke="#a8c5e2" stroke-miterlimit="10" stroke-width="1"/>
            <path id="Trazado_1277593" data-name="Trazado 1277593" d="M146.825,193.481H88.278a6.193,6.193,0,0,1-6.258-6.126V155.806a6.194,6.194,0,0,1,6.258-6.126h58.546a6.194,6.194,0,0,1,6.258,6.126v31.548a6.193,6.193,0,0,1-6.258,6.126" transform="translate(-35.668 -33.638)" fill="#9ed1ff"/>
          </g>
        </g>
        <text id="HOST" transform="translate(68.914 130.994)" fill="#fff" font-size="13" font-family="Montserrat-Bold, Montserrat" font-weight="700"><tspan x="0" y="0">HO</tspan><tspan y="0" letter-spacing="-0.009em">S</tspan><tspan y="0">T</tspan></text>
        <g id="Grupo_1212699" data-name="Grupo 1212699" transform="translate(17.01 0.001)">
          <g id="Grupo_1212698" data-name="Grupo 1212698" clip-path="url(#clip-path-8)">
            <path id="Trazado_1277594" data-name="Trazado 1277594" d="M184.03,93.327v19.586A7.032,7.032,0,0,1,177,119.945H133.914a7.032,7.032,0,0,0-7.032,7.031v7.148" transform="translate(-52.034 -25.762)" fill="none" stroke="#a8c5e2" stroke-miterlimit="10" stroke-width="1"/>
            <path id="Trazado_1277595" data-name="Trazado 1277595" d="M202.173,94.534V92.389h5.281v2.145a2.64,2.64,0,1,1-5.281,0" transform="translate(-72.817 -25.504)" fill="#2c4c7c"/>
            <rect id="Rectángulo_462236" data-name="Rectángulo 462236" width="3.675" height="1.184" transform="translate(130.159 65.701)" fill="#4375bb"/>
            <rect id="Rectángulo_462237" data-name="Rectángulo 462237" width="0.185" height="0.817" transform="translate(133.309 65.885)" fill="#2c4c7c"/>
            <rect id="Rectángulo_462238" data-name="Rectángulo 462238" width="0.185" height="0.817" transform="translate(132.841 65.885)" fill="#2c4c7c"/>
            <rect id="Rectángulo_462239" data-name="Rectángulo 462239" width="0.185" height="0.817" transform="translate(132.372 65.885)" fill="#2c4c7c"/>
            <rect id="Rectángulo_462240" data-name="Rectángulo 462240" width="0.185" height="0.817" transform="translate(131.905 65.885)" fill="#2c4c7c"/>
            <rect id="Rectángulo_462241" data-name="Rectángulo 462241" width="0.185" height="0.817" transform="translate(131.436 65.885)" fill="#2c4c7c"/>
            <rect id="Rectángulo_462242" data-name="Rectángulo 462242" width="0.185" height="0.817" transform="translate(130.968 65.885)" fill="#2c4c7c"/>
            <rect id="Rectángulo_462243" data-name="Rectángulo 462243" width="0.185" height="0.817" transform="translate(130.499 65.885)" fill="#2c4c7c"/>
            <path id="Trazado_1277596" data-name="Trazado 1277596" d="M128.517,144.608v2.145h-5.281v-2.145a2.64,2.64,0,1,1,5.281,0" transform="translate(-51.027 -39.189)" fill="#2c4c7c"/>
            <rect id="Rectángulo_462244" data-name="Rectángulo 462244" width="3.675" height="1.184" transform="translate(73.012 107.564)" fill="#4375bb"/>
            <rect id="Rectángulo_462245" data-name="Rectángulo 462245" width="0.185" height="0.817" transform="translate(73.351 107.748)" fill="#2c4c7c"/>
            <rect id="Rectángulo_462246" data-name="Rectángulo 462246" width="0.185" height="0.817" transform="translate(73.82 107.748)" fill="#2c4c7c"/>
            <rect id="Rectángulo_462247" data-name="Rectángulo 462247" width="0.185" height="0.817" transform="translate(74.288 107.748)" fill="#2c4c7c"/>
            <rect id="Rectángulo_462248" data-name="Rectángulo 462248" width="0.185" height="0.817" transform="translate(74.756 107.748)" fill="#2c4c7c"/>
            <rect id="Rectángulo_462249" data-name="Rectángulo 462249" width="0.185" height="0.817" transform="translate(75.224 107.748)" fill="#2c4c7c"/>
            <rect id="Rectángulo_462250" data-name="Rectángulo 462250" width="0.185" height="0.817" transform="translate(75.692 107.748)" fill="#2c4c7c"/>
            <rect id="Rectángulo_462251" data-name="Rectángulo 462251" width="0.185" height="0.817" transform="translate(76.161 107.748)" fill="#2c4c7c"/>
            <path id="Trazado_1277597" data-name="Trazado 1277597" d="M310.736,109.512A10.513,10.513,0,1,1,300.222,99a10.514,10.514,0,0,1,10.513,10.513" transform="translate(-96.98 -27.328)" fill="#69d7e5"/>
            <path id="Trazado_1277598" data-name="Trazado 1277598" d="M297.379,111.846l3.484,3.191a1.526,1.526,0,0,0,2.264-.225l4.332-5.926" transform="translate(-99.097 -30.057)" fill="none" stroke="#fff" stroke-miterlimit="10" stroke-width="2"/>
            <path id="Trazado_1277599" data-name="Trazado 1277599" d="M122.846,296.819H73.29a1.092,1.092,0,0,1-1.092-1.092v-9.482a1.092,1.092,0,0,1,1.092-1.092h49.556a1.092,1.092,0,0,1,1.092,1.092v9.482a1.092,1.092,0,0,1-1.092,1.092" transform="translate(-36.939 -78.714)" fill="#bcccdd"/>
            <rect id="Rectángulo_462252" data-name="Rectángulo 462252" width="42.582" height="3.207" transform="translate(39.837 218.105)" fill="#96aabc"/>
            <rect id="Rectángulo_462253" data-name="Rectángulo 462253" width="42.582" height="3.206" transform="translate(39.837 232.978)" fill="#96aabc"/>
            <path id="Trazado_1277600" data-name="Trazado 1277600" d="M130.712,294.393H113.881a.752.752,0,0,1-.753-.753v-1.984a.753.753,0,0,1,.753-.754h16.831a.753.753,0,0,1,.752.754v1.984a.753.753,0,0,1-.752.753" transform="translate(-48.237 -80.301)" fill="#fff"/>
            <path id="Trazado_1277601" data-name="Trazado 1277601" d="M80.826,292.647a1.746,1.746,0,1,1-1.746-1.745,1.746,1.746,0,0,1,1.746,1.745" transform="translate(-38.357 -80.301)" fill="#fff"/>
            <path id="Trazado_1277602" data-name="Trazado 1277602" d="M89.55,292.647A1.745,1.745,0,1,1,87.8,290.9a1.746,1.746,0,0,1,1.745,1.745" transform="translate(-40.765 -80.301)" fill="#fff"/>
            <path id="Trazado_1277603" data-name="Trazado 1277603" d="M122.846,317.362H73.29A1.092,1.092,0,0,1,72.2,316.27v-9.482A1.092,1.092,0,0,1,73.29,305.7h49.556a1.092,1.092,0,0,1,1.092,1.092v9.482a1.092,1.092,0,0,1-1.092,1.092" transform="translate(-36.939 -84.384)" fill="#bcccdd"/>
            <path id="Trazado_1277604" data-name="Trazado 1277604" d="M130.712,314.936H113.881a.752.752,0,0,1-.753-.753V312.2a.752.752,0,0,1,.753-.754h16.831a.753.753,0,0,1,.752.754v1.984a.753.753,0,0,1-.752.753" transform="translate(-48.237 -85.971)" fill="#fff"/>
            <path id="Trazado_1277605" data-name="Trazado 1277605" d="M80.826,313.191a1.746,1.746,0,1,1-1.746-1.745,1.746,1.746,0,0,1,1.746,1.745" transform="translate(-38.357 -85.971)" fill="#fff"/>
            <path id="Trazado_1277606" data-name="Trazado 1277606" d="M89.55,313.191a1.745,1.745,0,1,1-1.745-1.745,1.745,1.745,0,0,1,1.745,1.745" transform="translate(-40.765 -85.971)" fill="#fff"/>
            <path id="Trazado_1277607" data-name="Trazado 1277607" d="M122.846,337.9H73.29a1.092,1.092,0,0,1-1.092-1.092v-9.482a1.092,1.092,0,0,1,1.092-1.092h49.556a1.092,1.092,0,0,1,1.092,1.092v9.482a1.092,1.092,0,0,1-1.092,1.092" transform="translate(-36.939 -90.055)" fill="#bcccdd"/>
            <path id="Trazado_1277608" data-name="Trazado 1277608" d="M130.712,335.48H113.881a.752.752,0,0,1-.753-.753v-1.984a.752.752,0,0,1,.753-.753h16.831a.753.753,0,0,1,.752.753v1.984a.753.753,0,0,1-.752.753" transform="translate(-48.237 -91.642)" fill="#fff"/>
            <path id="Trazado_1277609" data-name="Trazado 1277609" d="M80.826,333.734a1.746,1.746,0,1,1-1.746-1.745,1.746,1.746,0,0,1,1.746,1.745" transform="translate(-38.357 -91.642)" fill="#fff"/>
            <path id="Trazado_1277610" data-name="Trazado 1277610" d="M89.55,333.734a1.745,1.745,0,1,1-1.745-1.745,1.746,1.746,0,0,1,1.745,1.745" transform="translate(-40.765 -91.642)" fill="#fff"/>
            <path id="Trazado_1277611" data-name="Trazado 1277611" d="M107.986,279.547v2.145h-5.281v-2.145a2.64,2.64,0,0,1,5.281,0" transform="translate(-45.36 -76.437)" fill="#2c4c7c"/>
            <rect id="Rectángulo_462254" data-name="Rectángulo 462254" width="3.675" height="1.184" transform="translate(58.148 205.255)" fill="#4375bb"/>
            <rect id="Rectángulo_462255" data-name="Rectángulo 462255" width="0.185" height="0.817" transform="translate(58.487 205.439)" fill="#2c4c7c"/>
            <rect id="Rectángulo_462256" data-name="Rectángulo 462256" width="0.185" height="0.817" transform="translate(58.956 205.439)" fill="#2c4c7c"/>
            <rect id="Rectángulo_462257" data-name="Rectángulo 462257" width="0.185" height="0.817" transform="translate(59.424 205.439)" fill="#2c4c7c"/>
            <rect id="Rectángulo_462258" data-name="Rectángulo 462258" width="0.185" height="0.817" transform="translate(59.893 205.439)" fill="#2c4c7c"/>
            <rect id="Rectángulo_462259" data-name="Rectángulo 462259" width="0.185" height="0.817" transform="translate(60.361 205.439)" fill="#2c4c7c"/>
            <rect id="Rectángulo_462260" data-name="Rectángulo 462260" width="0.185" height="0.817" transform="translate(60.829 205.439)" fill="#2c4c7c"/>
            <rect id="Rectángulo_462261" data-name="Rectángulo 462261" width="0.185" height="0.817" transform="translate(61.297 205.439)" fill="#2c4c7c"/>
            <path id="Trazado_1277612" data-name="Trazado 1277612" d="M106.352,259.548V239.1a1.711,1.711,0,0,1,1.711-1.711h14.081a1.712,1.712,0,0,0,1.711-1.711V211.118" transform="translate(-46.367 -58.277)" fill="none" stroke="#a8c5e2" stroke-miterlimit="10" stroke-width="1"/>
            <path id="Trazado_1277613" data-name="Trazado 1277613" d="M126.883,209.958v-2.145h5.281v2.145a2.64,2.64,0,1,1-5.281,0" transform="translate(-52.034 -57.365)" fill="#2c4c7c"/>
            <rect id="Rectángulo_462262" data-name="Rectángulo 462262" width="3.675" height="1.184" transform="translate(75.652 149.264)" fill="#4375bb"/>
            <rect id="Rectángulo_462263" data-name="Rectángulo 462263" width="0.185" height="0.817" transform="translate(78.801 149.448)" fill="#2c4c7c"/>
            <rect id="Rectángulo_462264" data-name="Rectángulo 462264" width="0.185" height="0.817" transform="translate(78.333 149.448)" fill="#2c4c7c"/>
            <rect id="Rectángulo_462265" data-name="Rectángulo 462265" width="0.185" height="0.817" transform="translate(77.865 149.448)" fill="#2c4c7c"/>
            <rect id="Rectángulo_462266" data-name="Rectángulo 462266" width="0.185" height="0.817" transform="translate(77.397 149.448)" fill="#2c4c7c"/>
            <rect id="Rectángulo_462267" data-name="Rectángulo 462267" width="0.185" height="0.817" transform="translate(76.928 149.448)" fill="#2c4c7c"/>
            <rect id="Rectángulo_462268" data-name="Rectángulo 462268" width="0.185" height="0.817" transform="translate(76.46 149.448)" fill="#2c4c7c"/>
            <rect id="Rectángulo_462269" data-name="Rectángulo 462269" width="0.185" height="0.817" transform="translate(75.992 149.448)" fill="#2c4c7c"/>
            <path id="Trazado_1277614" data-name="Trazado 1277614" d="M435.368,134.891a13.4,13.4,0,1,0,13.4,13.4,13.4,13.4,0,0,0-13.4-13.4m0,20.913a7.515,7.515,0,1,1,7.515-7.515,7.515,7.515,0,0,1-7.515,7.515" transform="translate(-133.486 -37.236)" fill="#ffe79e"/>
            <path id="Trazado_1277615" data-name="Trazado 1277615" d="M442.723,152.011a3.637,3.637,0,1,1-3.634-3.634,3.632,3.632,0,0,1,3.634,3.634" transform="translate(-137.21 -40.958)" fill="#ffe79e"/>
            <rect id="Rectángulo_462270" data-name="Rectángulo 462270" width="9.457" height="12.16" transform="translate(297.149 88.591)" fill="#ffe79e"/>
            <rect id="Rectángulo_462271" data-name="Rectángulo 462271" width="9.457" height="12.159" transform="translate(282.649 98.515) rotate(-45)" fill="#ffe79e"/>
            <rect id="Rectángulo_462272" data-name="Rectángulo 462272" width="12.16" height="9.458" transform="translate(279.413 106.327)" fill="#ffe79e"/>
            <rect id="Rectángulo_462273" data-name="Rectángulo 462273" width="12.16" height="9.457" transform="translate(282.649 123.597) rotate(-45)" fill="#ffe79e"/>
            <rect id="Rectángulo_462274" data-name="Rectángulo 462274" width="9.457" height="12.16" transform="translate(297.148 121.361)" fill="#ffe79e"/>
            <rect id="Rectángulo_462275" data-name="Rectángulo 462275" width="9.457" height="12.16" transform="translate(305.82 121.686) rotate(-45)" fill="#ffe79e"/>
            <rect id="Rectángulo_462276" data-name="Rectángulo 462276" width="12.16" height="9.458" transform="translate(312.182 106.327)" fill="#ffe79e"/>
            <rect id="Rectángulo_462277" data-name="Rectángulo 462277" width="12.159" height="9.457" transform="translate(305.82 100.425) rotate(-45)" fill="#ffe79e"/>
            <path id="Trazado_1277616" data-name="Trazado 1277616" d="M472.366,221.02a1.71,1.71,0,1,0,1.711-1.709A1.709,1.709,0,0,0,472.366,221.02Z" transform="translate(-147.4 -60.539)" fill="none" stroke="#ffd453" stroke-miterlimit="10" stroke-width="1"/>
            <path id="Trazado_1277617" data-name="Trazado 1277617" d="M481.265,219.869v-4.447h-4.672c-.047-.126-.1-.25-.152-.371l3.3-3.3L476.6,208.6l-3.3,3.3c-.122-.055-.245-.1-.371-.151v-4.672h-4.447v4.673c-.125.048-.248.1-.37.152l-3.3-3.3-3.145,3.145,3.3,3.3c-.055.122-.1.246-.152.372h-4.672v4.447h4.672c.048.125.1.249.152.371l-3.3,3.3,3.145,3.145,3.3-3.3c.122.055.245.1.371.153v4.672h4.447v-4.67c.127-.048.25-.1.373-.153l3.3,3.3,3.145-3.145-3.3-3.3c.055-.122.1-.245.152-.371Zm-7.028-2.225a3.537,3.537,0,1,1-3.534-3.534A3.533,3.533,0,0,1,474.238,217.644Z" transform="translate(-144.024 -57.163)" fill="none" stroke="#ffd453" stroke-miterlimit="10" stroke-width="1"/>
            <path id="Trazado_1277618" data-name="Trazado 1277618" d="M113.173,80.317a18.8,18.8,0,1,1-5.719-13.482A18.664,18.664,0,0,1,113.173,80.317Z" transform="translate(-37.883 -16.987)" fill="none" stroke="#ffd453" stroke-miterlimit="10" stroke-width="2"/>
            <path id="Trazado_1277619" data-name="Trazado 1277619" d="M109.636,66.834a18.748,18.748,0,0,1-26.118,0,18.74,18.74,0,0,1,26.118,0Z" transform="translate(-40.064 -16.987)" fill="none" stroke="#ffd453" stroke-miterlimit="10" stroke-width="2"/>
            <path id="Trazado_1277620" data-name="Trazado 1277620" d="M109.636,104.08a18.763,18.763,0,0,1-26.118,0,18.716,18.716,0,0,1,26.118,0Z" transform="translate(-40.064 -27.268)" fill="none" stroke="#ffd453" stroke-miterlimit="10" stroke-width="2"/>
            <path id="Trazado_1277621" data-name="Trazado 1277621" d="M107.444,80.315c0,10.37-4.258,18.777-9.511,18.777s-9.511-8.407-9.511-18.777,4.258-18.777,9.511-18.777S107.444,69.945,107.444,80.315Z" transform="translate(-41.417 -16.988)" fill="none" stroke="#ffd453" stroke-miterlimit="10" stroke-width="2"/>
            <line id="Línea_3334" data-name="Línea 3334" y2="37.554" transform="translate(56.516 44.55)" fill="none" stroke="#ffd453" stroke-miterlimit="10" stroke-width="2"/>
            <line id="Línea_3335" data-name="Línea 3335" x2="37.554" transform="translate(37.739 63.327)" fill="none" stroke="#ffd453" stroke-miterlimit="10" stroke-width="2"/>
            <rect id="Rectángulo_462278" data-name="Rectángulo 462278" width="31.812" height="6.32" transform="translate(35.259 265.49)" fill="#ffd453"/>
            <rect id="Rectángulo_462279" data-name="Rectángulo 462279" width="48.992" height="6.32" transform="translate(35.259 276.533)" fill="#ffd453"/>
            <rect id="Rectángulo_462280" data-name="Rectángulo 462280" width="17.067" height="6.32" transform="translate(35.259 286.852)" fill="#ffd453"/>
          </g>
        </g>
      </g>
    </g>
  </g>
</svg>
